<svg width="23" height="23" viewBox="0 0 23 23" fill="none" xmlns="http://www.w3.org/2000/svg">
<g clip-path="url(#clip0_43_3255)">
<path d="M16.074 0.0115101C16.0251 -0.0431149 14.2642 0.0330726 12.7318 1.69626C11.1995 3.35801 11.4352 5.26413 11.4697 5.31301C11.5042 5.36188 13.6547 5.43807 15.0275 3.50463C16.4003 1.5712 16.1229 0.0675726 16.074 0.0115101ZM20.8379 16.8777C20.7689 16.7397 17.4957 15.1038 17.8005 11.9586C18.1052 8.81188 20.2083 7.94938 20.2413 7.85595C20.2744 7.76251 19.3831 6.72032 18.4387 6.19276C17.7453 5.82081 16.9778 5.60771 16.1919 5.56888C16.0366 5.56457 15.4976 5.43232 14.3893 5.73563C13.659 5.93545 12.0131 6.58232 11.5603 6.6082C11.106 6.63407 9.75477 5.85782 8.30146 5.65226C7.37139 5.47257 6.38527 5.84057 5.67946 6.12376C4.97508 6.40551 3.63533 7.20763 2.69808 9.33945C1.76083 11.4698 2.25102 14.8451 2.60177 15.8944C2.95252 16.9424 3.50021 18.6602 4.43171 19.9137C5.25971 21.3282 6.35796 22.31 6.81652 22.6435C7.27508 22.977 8.56883 23.1984 9.46583 22.7398C10.1875 22.2971 11.4898 22.0426 12.0045 22.0613C12.5176 22.08 13.5296 22.2827 14.5661 22.8361C15.3869 23.1193 16.1631 23.0014 16.9408 22.6852C17.7185 22.3675 18.8441 21.1629 20.158 18.7206C20.6568 17.5849 20.8839 16.9711 20.8379 16.8777Z" fill="black"/>
<path d="M16.074 0.0115101C16.0251 -0.0431149 14.2642 0.0330726 12.7318 1.69626C11.1995 3.35801 11.4352 5.26413 11.4697 5.31301C11.5042 5.36188 13.6547 5.43807 15.0275 3.50463C16.4003 1.5712 16.1229 0.0675726 16.074 0.0115101ZM20.8379 16.8777C20.7689 16.7397 17.4957 15.1038 17.8005 11.9586C18.1052 8.81188 20.2083 7.94938 20.2413 7.85595C20.2744 7.76251 19.3831 6.72032 18.4387 6.19276C17.7453 5.82081 16.9778 5.60771 16.1919 5.56888C16.0366 5.56457 15.4976 5.43232 14.3893 5.73563C13.659 5.93545 12.0131 6.58232 11.5603 6.6082C11.106 6.63407 9.75477 5.85782 8.30146 5.65226C7.37139 5.47257 6.38527 5.84057 5.67946 6.12376C4.97508 6.40551 3.63533 7.20763 2.69808 9.33945C1.76083 11.4698 2.25102 14.8451 2.60177 15.8944C2.95252 16.9424 3.50021 18.6602 4.43171 19.9137C5.25971 21.3282 6.35796 22.31 6.81652 22.6435C7.27508 22.977 8.56883 23.1984 9.46583 22.7398C10.1875 22.2971 11.4898 22.0426 12.0045 22.0613C12.5176 22.08 13.5296 22.2827 14.5661 22.8361C15.3869 23.1193 16.1631 23.0014 16.9408 22.6852C17.7185 22.3675 18.8441 21.1629 20.158 18.7206C20.6568 17.5849 20.8839 16.9711 20.8379 16.8777Z" fill="black"/>
</g>
<defs>
<clipPath id="clip0_43_3255">
<rect width="23" height="23" fill="white"/>
</clipPath>
</defs>
</svg>
