<svg width="557" height="421" viewBox="0 0 557 421" fill="none" xmlns="http://www.w3.org/2000/svg">
<g clip-path="url(#clip0_64_10)">
<path d="M551.825 213.205C547.786 179.997 520.628 152.365 489.677 133.722C458.726 115.08 423.337 103.246 390.926 86.7081C356.618 69.1844 325.895 46.5212 291.91 28.5044C257.924 10.4877 219.008 -3.01544 179.713 0.587912C164.92 1.95339 150.639 5.76536 137.307 11.4738C106.47 20.1788 77.6049 39.4662 57.0469 65.8086C38.0249 90.2166 26.058 119.442 22.4926 150.317C19.022 180.206 23.4029 211.156 35.1233 239.832C53.3487 284.418 85.153 318.745 127.047 339.132C146.126 348.406 167.101 354.627 189.366 357.623C215.519 361.132 247.304 364.034 281.005 364.034C318.935 364.034 359.311 360.373 396.767 349.772C417.287 343.969 439.761 336.781 460.869 326.179C478.582 318.878 495.29 309.964 509.894 298.434C536.9 277.06 555.713 245.275 551.825 213.205ZM396.217 348.198C325.8 368.092 245.009 363.427 189.631 355.992C167.575 353.034 146.808 346.87 127.919 337.691C86.4047 317.512 54.9038 283.47 36.8301 239.263C12.536 179.826 20.653 115.326 58.5641 66.7569C76.1446 44.2075 99.8699 26.8924 125.681 17.0685C105.939 27.5941 88.7184 42.292 75.5377 59.1898C36.2233 109.561 30.3631 175.37 53.709 232.454C71.5172 275.979 102.98 310.78 145.215 331.319C163.877 340.384 184.625 346.681 207.231 349.715C273.76 358.647 349.601 360.146 414.215 341.882C421.384 339.853 428.553 337.71 435.664 335.396C422.313 340.498 408.905 344.613 396.217 348.198Z" fill="#F6F8FA"/>
<g opacity="0.5">
<path opacity="0.5" d="M167.101 119.764C144.589 113.069 120.826 125.928 114.131 148.439C107.437 170.951 120.295 194.714 142.807 201.408C165.318 208.103 189.081 195.245 195.776 172.733C202.471 150.241 189.612 126.478 167.101 119.764ZM147.339 186.199C132.945 181.912 124.752 166.778 129.038 152.384C133.324 137.989 148.458 129.797 162.853 134.083C177.247 138.369 185.44 153.503 181.154 167.897C176.868 182.292 161.734 190.485 147.339 186.199Z" fill="white"/>
<path opacity="0.5" d="M225.703 167.802L220.544 166.266C221.341 157.789 220.468 149.425 218.135 141.536L222.061 139.412C226.499 137.003 228.149 131.466 225.759 127.009L221.815 119.745C219.406 115.307 213.868 113.657 209.412 116.047L205.619 118.095C200.308 111.704 193.765 106.28 186.198 102.221L187.64 97.3474C189.081 92.5114 186.331 87.4098 181.476 85.9684L173.549 83.6357C168.713 82.1944 163.611 84.9443 162.17 89.7994L160.728 94.6734C151.606 93.8768 142.579 95.0337 134.196 97.8405L131.503 92.8717C129.095 88.4339 123.557 86.7839 119.1 89.1735L111.856 93.1182C107.418 95.5268 105.768 101.065 108.157 105.521L111.23 111.211C105.521 116.331 100.647 122.476 96.949 129.493L91.7905 127.957C86.9545 126.516 81.8529 129.266 80.4115 134.121L78.0599 142.048C76.6185 146.884 79.3684 151.986 84.2235 153.427L89.5716 155.02C88.8699 163.744 89.9509 172.373 92.5681 180.433L86.0252 183.98C81.5874 186.388 79.9374 191.926 82.327 196.383L86.2717 203.646C88.6803 208.084 94.2181 209.734 98.6748 207.345L105.692 203.533C110.793 209.355 116.957 214.324 124.012 218.098L122.286 223.863C120.845 228.699 123.595 233.801 128.45 235.242L136.377 237.594C141.213 239.035 146.315 236.285 147.756 231.43L149.482 225.665C157.447 226.366 165.337 225.57 172.79 223.484L176.602 230.501C179.011 234.939 184.548 236.589 189.005 234.199L196.269 230.254C200.707 227.846 202.357 222.308 199.967 217.851L196.421 211.308C203.02 205.998 208.634 199.379 212.825 191.679L218.173 193.272C223.01 194.714 228.111 191.964 229.552 187.109L231.904 179.181C233.289 174.326 230.539 169.244 225.703 167.802ZM141.384 206.226C116.217 198.734 101.842 172.183 109.333 147.017C116.824 121.85 143.375 107.475 168.542 114.966C193.709 122.457 208.084 149.008 200.593 174.175C193.102 199.341 166.532 213.717 141.384 206.226Z" fill="#D6B3FF"/>
</g>
<g opacity="0.5">
<path opacity="0.5" d="M484.765 218.325C469.688 213.831 453.757 222.46 449.262 237.537C444.768 252.614 453.397 268.545 468.474 273.039C483.551 277.534 499.482 268.905 503.976 253.828C508.471 238.732 499.842 222.801 484.765 218.325ZM471.508 262.836C461.855 259.973 456.374 249.826 459.238 240.173C462.102 230.52 472.248 225.039 481.901 227.903C491.554 230.766 497.035 240.913 494.171 250.566C491.308 260.219 481.161 265.7 471.508 262.836Z" fill="white"/>
<path opacity="0.5" d="M524.022 250.49L520.571 249.466C521.102 243.795 520.514 238.182 518.959 232.89L521.595 231.468C524.572 229.856 525.672 226.139 524.06 223.161L521.424 218.287C519.812 215.31 516.095 214.21 513.118 215.822L510.576 217.206C507.03 212.92 502.63 209.279 497.566 206.567L498.533 203.305C499.501 200.062 497.661 196.648 494.418 195.681L489.108 194.107C485.865 193.14 482.451 194.979 481.484 198.222L480.517 201.484C474.391 200.953 468.36 201.731 462.746 203.608L460.945 200.29C459.333 197.312 455.616 196.212 452.638 197.824L447.764 200.46C444.787 202.072 443.687 205.789 445.299 208.767L447.366 212.579C443.535 216.012 440.273 220.127 437.788 224.83L434.337 223.806C431.094 222.839 427.68 224.679 426.713 227.922L425.139 233.232C424.172 236.475 426.011 239.889 429.254 240.856L432.839 241.918C432.364 247.778 433.104 253.543 434.849 258.948L430.468 261.319C427.49 262.931 426.39 266.648 428.003 269.626L430.639 274.5C432.251 277.477 435.968 278.577 438.945 276.965L443.649 274.424C447.062 278.331 451.197 281.649 455.919 284.191L454.762 288.06C453.795 291.303 455.635 294.716 458.878 295.684L464.188 297.258C467.431 298.225 470.844 296.385 471.812 293.142L472.969 289.273C478.317 289.748 483.589 289.217 488.577 287.813L491.118 292.516C492.73 295.494 496.447 296.594 499.425 294.982L504.299 292.346C507.276 290.734 508.376 287.017 506.764 284.039L504.394 279.658C508.812 276.093 512.586 271.655 515.393 266.496L518.978 267.558C522.221 268.526 525.634 266.686 526.602 263.443L528.176 258.133C529.105 254.871 527.265 251.457 524.022 250.49ZM467.526 276.244C450.666 271.219 441.031 253.43 446.057 236.57C451.083 219.71 468.872 210.076 485.732 215.101C502.592 220.127 512.226 237.916 507.2 254.776C502.175 271.636 484.385 281.251 467.526 276.244Z" fill="white"/>
</g>
<path d="M288.06 256.748C288.325 254.131 288.648 251.571 289.008 249.087C289.198 247.74 289.463 246.299 290.411 245.331C292.801 242.904 297.049 245.54 298.301 248.707C299.552 251.874 299.477 255.611 301.544 258.323C299.761 243.587 300.539 228.528 303.839 214.058C304.313 211.972 305.375 209.45 307.518 209.393C308.713 209.374 309.756 210.189 310.609 211.024C315.862 216.049 319.39 222.82 320.471 230.008C319.162 213.413 319.011 196.724 320.054 180.092C320.433 173.833 323.524 165.508 329.688 166.684C332.722 167.271 334.695 170.154 336.041 172.942C338.317 177.664 339.701 182.804 340.138 188.019C343.191 159.648 345.618 129.588 363.616 106.204C364.963 104.459 366.48 102.696 368.547 101.994C373.63 100.287 378.39 105.92 379.149 111.23C379.907 116.54 378.485 122.059 379.812 127.236C382.449 112.728 388.707 98.9026 397.886 87.3529C401.47 82.8392 407.274 78.2686 412.432 80.8479C416.453 82.8392 417.515 88.1684 416.927 92.6252C416.339 97.0819 414.594 101.425 414.974 105.901C422.408 98.0871 427.396 91.2786 438.471 88.5097C441.942 87.6374 446.361 87.5994 448.276 90.6149C449.376 92.3407 449.281 94.5596 449.035 96.5888C446.911 114.15 435.759 125.188 425.177 138.426C431.966 134.31 442.264 139.014 443.573 146.846C444.9 154.66 438.642 161.582 432.573 166.684C423.242 174.535 413.096 181.419 402.381 187.223C410.725 185.212 421.858 186.559 424.456 194.733C426.77 202.034 420.473 209.032 414.556 213.887C400.257 225.608 384.724 235.849 368.301 244.345C374.313 245.919 381.557 241.311 386.526 245.047C390.054 247.683 389.959 253.316 387.512 256.995C383.15 263.538 373.914 266.971 367.106 270.081C358.06 274.234 349.013 278.369 339.967 282.522C345.125 281.612 350.474 281.706 355.594 282.787C358.401 283.375 361.53 284.665 362.308 287.415C363.351 291.132 359.501 294.242 356.163 296.177C340.176 305.47 324.188 314.743 308.219 324.036C305.033 325.895 301.582 327.81 297.903 327.526C290.961 326.976 292.308 321.666 292.099 317.057C291.815 310.666 288.951 303.858 288.136 297.409C286.467 283.944 286.656 270.233 288.06 256.748Z" fill="#D6B3FF"/>
<path d="M306.626 298.718C310.116 293.749 313.852 288.97 317.797 284.362C320.774 280.891 323.998 277.458 328.152 275.543C330.029 274.67 332.703 274.386 333.803 276.131C334.145 276.681 334.258 277.344 334.334 277.989C334.619 280.587 334.353 283.224 333.595 285.727C337.52 280.701 340.782 275.6 344.348 270.422C347.875 265.321 352.351 260.466 358.287 258.645C359.52 263.083 358.496 268.09 355.594 271.674C365.835 261.528 376.152 251.306 388.138 243.283C391.4 241.102 396.426 239.358 398.702 242.544C400.181 244.611 399.365 247.569 397.924 249.675C396.483 251.78 394.51 253.543 393.505 255.876C404.22 247.475 415.524 238.808 428.932 236.361C433.749 235.489 439.647 235.925 442.188 240.116C444.123 243.302 443.231 247.588 441.031 250.604C438.832 253.619 435.551 255.63 432.364 257.564C428.78 259.745 425.196 261.907 421.611 264.088C424.608 264.088 427.718 264.107 430.392 265.453C433.066 266.819 435.076 269.948 434.128 272.793C433.237 275.448 430.316 276.757 427.642 277.61C419.051 280.36 409.986 281.631 400.977 281.327C403.5 282.617 406.079 283.925 407.994 286.011C409.91 288.079 411.067 291.113 410.194 293.787C408.715 298.282 402.969 299.363 398.246 299.59C388.555 300.065 378.826 300.14 369.135 299.818C372.321 301.43 375.166 303.687 377.48 306.399C378.143 307.176 378.769 308.03 378.921 309.035C379.187 310.837 377.745 312.525 376.057 313.169C374.369 313.814 372.492 313.681 370.69 313.549C359.899 312.676 349.108 311.804 338.317 310.932C339.967 312.657 342.356 313.473 344.234 314.971C346.093 316.469 347.363 319.352 345.865 321.211C345.087 322.178 343.817 322.557 342.641 322.861C332.722 325.421 322.424 326.464 312.202 325.952C307.214 325.705 301.98 324.985 298.073 321.855C296.973 320.983 295.968 319.826 295.835 318.423C295.494 314.8 301.714 305.963 303.725 302.928C304.673 301.544 305.64 300.121 306.626 298.718Z" fill="#DBC5FC"/>
<path opacity="0.5" d="M415.504 163.422L414.556 161.942L369.04 191.035C371.126 187.735 372.985 184.833 374.54 182.425C380.457 173.226 387.853 162.758 395.269 152.593L414.67 144.134L413.968 142.522L397.336 149.767C413.722 127.502 429.671 107.551 429.918 107.247L428.533 106.147C428.287 106.451 412.451 126.269 396.122 148.458L401.357 115.269L399.612 115.004L393.846 151.568C386.393 161.753 378.997 172.259 373.042 181.476C371.354 184.093 369.306 187.299 367.011 190.94L366.461 146.467L364.697 146.486L365.285 193.671C355.48 209.184 341.693 231.24 330.029 249.997L332.343 199.74L330.579 199.664L328.114 253.069C316.545 271.655 307.499 286.258 307.29 286.599L308.788 287.529C308.997 287.187 318.043 272.584 329.612 253.999L371.126 231.108L370.273 229.572L331.527 250.907C343.21 232.151 356.997 210.057 366.802 194.543L415.504 163.422Z" fill="white"/>
<path d="M467.848 168.542H525.084C525.084 168.542 524.8 153.825 513.288 153.503C501.776 153.18 496.77 162.682 496.77 162.682C496.77 162.682 489.297 150.336 479.777 153.503C470.257 156.689 471.432 162.17 470.086 162.682C468.758 163.194 460.034 163.896 458.896 168.542H467.848Z" fill="#F8F3FF"/>
<path d="M72.6361 60.9915H129.872C129.872 60.9915 129.588 46.2746 118.076 45.9522C106.564 45.6298 101.558 55.1313 101.558 55.1313C101.558 55.1313 94.0855 42.7851 84.5651 45.9522C75.0446 49.1194 76.2204 54.6193 74.8739 55.1313C73.5464 55.6434 64.8225 56.3451 63.6846 60.9915H72.6361Z" fill="#F8F3FF"/>
<path d="M344.272 135.638C340.119 135.638 336.762 132.281 336.762 128.128V91.7907C336.762 87.6374 340.119 84.2805 344.272 84.2805C348.425 84.2805 351.782 87.6374 351.782 91.7907V128.147C351.782 132.281 348.406 135.638 344.272 135.638Z" fill="url(#paint0_linear_64_10)"/>
<path d="M344.272 193.329C340.119 193.329 336.762 189.973 336.762 185.819V149.482C336.762 145.329 340.119 141.972 344.272 141.972C348.425 141.972 351.782 145.329 351.782 149.482V185.838C351.782 189.973 348.406 193.329 344.272 193.329Z" fill="url(#paint1_linear_64_10)"/>
<path d="M166.949 404.695H333.898C340.441 404.695 345.732 399.384 345.732 392.86V51.9452C345.732 45.4023 340.441 40.111 333.898 40.111H166.949C160.406 40.111 155.115 45.4023 155.115 51.9452V392.841C155.115 399.384 160.425 404.695 166.949 404.695Z" fill="url(#paint2_linear_64_10)"/>
<path d="M345.732 45.3454V382.885C345.732 390.357 339.682 396.407 332.21 396.407H168.637C161.165 396.407 155.115 390.357 155.115 382.885V45.3454C155.115 43.6764 155.418 42.0834 155.968 40.6041C157.466 36.6215 160.785 33.5112 164.92 32.3543C166.095 32.013 167.347 31.8233 168.637 31.8233H332.21C334.107 31.8233 335.927 32.2216 337.577 32.9422C340.327 34.1181 342.603 36.2042 344.044 38.8024C345.125 40.7369 345.732 42.9747 345.732 45.3454Z" fill="url(#paint3_linear_64_10)"/>
<path d="M250.433 48.7211C253.052 48.7211 255.174 46.5984 255.174 43.9799C255.174 41.3614 253.052 39.2386 250.433 39.2386C247.815 39.2386 245.692 41.3614 245.692 43.9799C245.692 46.5984 247.815 48.7211 250.433 48.7211Z" fill="url(#paint4_linear_64_10)"/>
<path d="M250.433 389.94C255.387 389.94 259.404 385.924 259.404 380.969C259.404 376.015 255.387 371.999 250.433 371.999C245.479 371.999 241.463 376.015 241.463 380.969C241.463 385.924 245.479 389.94 250.433 389.94Z" fill="url(#paint5_linear_64_10)"/>
<path d="M174.308 367.258H326.54C328.266 367.258 329.65 365.873 329.65 364.147V64.1018C329.65 62.3759 328.266 60.9915 326.54 60.9915H174.308C172.582 60.9915 171.197 62.3759 171.197 64.1018V364.166C171.197 365.873 172.601 367.258 174.308 367.258Z" fill="url(#paint6_linear_64_10)"/>
<path d="M307.328 96.1526H193.519C190.94 96.1526 188.854 94.0665 188.854 91.4872C188.854 88.908 190.94 86.8219 193.519 86.8219H307.328C309.907 86.8219 311.993 88.908 311.993 91.4872C311.993 94.0665 309.907 96.1526 307.328 96.1526Z" fill="url(#paint7_linear_64_10)"/>
<path d="M307.328 111.002H193.519C190.94 111.002 188.854 108.916 188.854 106.337C188.854 103.758 190.94 101.671 193.519 101.671H307.328C309.907 101.671 311.993 103.758 311.993 106.337C311.993 108.916 309.907 111.002 307.328 111.002Z" fill="url(#paint8_linear_64_10)"/>
<path d="M307.328 319.864H193.519C190.94 319.864 188.854 317.778 188.854 315.199C188.854 312.619 190.94 310.533 193.519 310.533H307.328C309.907 310.533 311.993 312.619 311.993 315.199C311.993 317.778 309.907 319.864 307.328 319.864Z" fill="url(#paint9_linear_64_10)"/>
<path d="M307.328 334.733H193.519C190.94 334.733 188.854 332.646 188.854 330.067C188.854 327.488 190.94 325.402 193.519 325.402H307.328C309.907 325.402 311.993 327.488 311.993 330.067C311.993 332.646 309.907 334.733 307.328 334.733Z" fill="url(#paint10_linear_64_10)"/>
<path d="M307.328 349.601H193.519C190.94 349.601 188.854 347.515 188.854 344.936C188.854 342.357 190.94 340.27 193.519 340.27H307.328C309.907 340.27 311.993 342.357 311.993 344.936C311.993 347.496 309.907 349.601 307.328 349.601Z" fill="url(#paint11_linear_64_10)"/>
<path d="M206.851 232.17L204.576 234.901C203.438 234.028 202.3 233.497 200.915 233.497C198.317 233.497 196.496 235.583 196.496 240.552C196.496 245.445 198.279 247.512 200.972 247.512C202.584 247.512 203.76 246.773 204.955 245.881L207.098 248.631C205.751 249.978 203.551 251.23 200.745 251.23C195.188 251.23 191.471 247.475 191.471 240.552C191.471 233.763 195.415 229.951 200.688 229.951C203.305 229.951 205.144 230.728 206.851 232.17Z" fill="#FF1654"/>
<path d="M225.987 240.571C225.987 247.209 222.554 251.23 216.827 251.23C211.118 251.23 207.686 247.342 207.686 240.571C207.686 233.952 211.118 229.951 216.827 229.951C222.554 229.951 225.987 233.801 225.987 240.571ZM212.73 240.571C212.73 245.73 214.191 247.721 216.827 247.721C219.577 247.721 220.961 245.73 220.961 240.571C220.961 235.451 219.558 233.459 216.827 233.459C214.134 233.459 212.73 235.451 212.73 240.571Z" fill="#FF1654"/>
<path d="M244.478 250.737H238.352L232.492 235.015C232.72 236.854 233.099 239.547 233.099 243.302V250.737H228.832V230.444H234.806L240.799 246.185C240.533 244.554 240.154 241.88 240.154 238.637V230.444H244.459V250.737H244.478Z" fill="#FF1654"/>
<path d="M261.66 234.123H256.654V250.718H251.855V234.123H246.621V230.444H262.134L261.66 234.123Z" fill="#FF1654"/>
<path d="M272.243 246.375H266.325L265.301 250.737H260.333L266.458 230.444H272.28L278.406 250.737H273.286L272.243 246.375ZM271.408 242.885L269.265 233.934L267.122 242.885H271.408Z" fill="#FF1654"/>
<path d="M294.033 232.17L291.758 234.901C290.62 234.028 289.482 233.497 288.097 233.497C285.499 233.497 283.679 235.583 283.679 240.552C283.679 245.445 285.461 247.512 288.154 247.512C289.766 247.512 290.942 246.773 292.137 245.881L294.28 248.631C292.933 249.978 290.734 251.23 287.927 251.23C282.37 251.23 278.653 247.475 278.653 240.552C278.653 233.763 282.598 229.951 287.87 229.951C290.506 229.951 292.346 230.728 294.033 232.17Z" fill="#FF1654"/>
<path d="M309.528 234.123H304.521V250.718H299.723V234.123H294.489V230.444H310.002L309.528 234.123Z" fill="#FF1654"/>
<path d="M253.354 279.127C253.354 283.224 250.717 286.353 245.426 286.353C240.135 286.353 237.518 283.394 237.518 279.127V265.567H242.316V278.919C242.316 281.517 243.245 282.787 245.426 282.787C247.626 282.787 248.555 281.536 248.555 278.919V265.567H253.354V279.127Z" fill="#FF1654"/>
<path d="M270.251 267.672L268.032 270.27C266.629 269.133 265.226 268.564 263.576 268.564C261.907 268.564 260.845 269.265 260.845 270.555C260.845 271.845 261.603 272.376 264.77 273.362C268.601 274.595 270.801 276.169 270.801 279.924C270.801 283.698 267.824 286.334 262.76 286.334C259.252 286.334 256.729 285.044 255.06 283.432L257.488 280.777C258.986 282.029 260.598 282.768 262.608 282.768C264.6 282.768 265.832 281.839 265.832 280.284C265.832 278.786 265.074 278.122 262.115 277.212C257.583 275.808 255.914 273.931 255.914 270.915C255.914 267.35 259.024 265.055 263.234 265.055C266.326 265.074 268.45 265.984 270.251 267.672Z" fill="#FF1654"/>
<path d="M274.627 192.226C287.529 179.325 287.529 158.407 274.627 145.505C261.725 132.604 240.808 132.604 227.906 145.505C215.004 158.407 215.004 179.325 227.906 192.226C240.808 205.128 261.725 205.128 274.627 192.226Z" fill="#FCBA04"/>
<path d="M236.721 165.546C239.288 165.546 241.368 163.465 241.368 160.899C241.368 158.333 239.288 156.253 236.721 156.253C234.155 156.253 232.075 158.333 232.075 160.899C232.075 163.465 234.155 165.546 236.721 165.546Z" fill="white"/>
<path d="M265.814 165.546C268.38 165.546 270.46 163.465 270.46 160.899C270.46 158.333 268.38 156.253 265.814 156.253C263.248 156.253 261.167 158.333 261.167 160.899C261.167 163.465 263.248 165.546 265.814 165.546Z" fill="white"/>
<path d="M251.268 193.481C262.476 193.481 271.579 184.397 271.579 173.17H230.956C230.956 184.378 240.059 193.481 251.268 193.481Z" fill="white"/>
<path d="M543.082 404.695H373.611C366.195 404.695 360.202 398.683 360.202 391.286V282.18C360.202 274.765 366.214 268.772 373.611 268.772H543.082C550.497 268.772 556.49 274.784 556.49 282.18V391.286C556.49 398.683 550.478 404.695 543.082 404.695Z" fill="#FCBA04"/>
<path d="M458.915 352.18L549.758 272.3C546.742 270.062 543.025 268.753 539.005 268.753H378.864C374.824 268.753 371.107 270.081 368.111 272.3L458.915 352.18Z" fill="#FCC947"/>
<path d="M104.727 386.708C128.687 362.749 128.687 323.903 104.727 299.944C80.7683 275.985 41.9228 275.985 17.9637 299.944C-5.99549 323.903 -5.99549 362.749 17.9637 386.708C41.9228 410.667 80.7683 410.667 104.727 386.708Z" fill="#F67574"/>
<path d="M80.0516 360.287C90.1167 350.222 90.1167 333.903 80.0516 323.838C69.9866 313.773 53.6679 313.773 43.6028 323.838C33.5378 333.903 33.5378 350.222 43.6028 360.287C53.6679 370.352 69.9866 370.352 80.0516 360.287Z" fill="#F9BBBB"/>
<path d="M66.8327 214.608H59.7966V236.892H66.8327V214.608Z" fill="#FFB663"/>
<path d="M69.6397 208.35C69.6397 212.882 66.8139 216.581 63.3244 216.581C62.1486 216.581 61.0486 216.163 60.1193 215.443C58.2607 214.02 57.009 211.365 57.009 208.35C57.009 203.817 59.8348 200.119 63.3244 200.119C66.8139 200.119 69.6397 203.817 69.6397 208.35Z" fill="#FFB663"/>
<path d="M66.8329 215.329C66.8329 215.329 63.0399 217.927 59.9866 215.519C61.1624 217.51 65.164 217.984 66.8329 215.329Z" fill="#FFA85C"/>
<path d="M68.7104 208.672C68.4259 208.198 68.1035 207.743 67.857 207.401C67.288 206.605 66.5294 205.903 65.6191 205.524C63.9692 204.803 61.864 205.164 60.3658 206.074C58.8296 207.022 57.9193 208.615 57.4831 210.265C57.4262 210.493 57.3504 210.739 57.1418 210.853C56.3263 211.27 56.1366 207.401 56.1176 206.965C56.0228 205.448 56.2125 203.855 56.9331 202.49C57.7107 200.972 59.3038 199.797 61.1434 199.379C63.3244 198.886 65.676 199.284 67.3449 200.859C68.6535 202.091 69.488 203.836 70.019 205.543C70.2276 206.226 70.3604 206.946 70.3604 207.686C70.3604 208.407 70.1138 209.07 69.9052 209.753C69.7535 210.246 69.5638 210.701 69.4311 211.194C69.6018 210.436 69.2035 209.507 68.7104 208.672Z" fill="#F7D747"/>
<path d="M57.5589 209.601C58.033 210.246 58.1279 210.986 57.8054 211.213C57.4641 211.46 56.8193 211.119 56.3641 210.455C55.89 209.81 55.7952 209.07 56.1176 208.843C56.4589 208.615 57.1037 208.957 57.5589 209.601Z" fill="#FFB663"/>
<path d="M68.6915 209.848C68.2174 210.493 68.1225 211.232 68.445 211.46C68.7863 211.707 69.4311 211.365 69.8863 210.701C70.3604 210.057 70.4552 209.317 70.1328 209.089C69.8104 208.862 69.1656 209.203 68.6915 209.848Z" fill="#FFB663"/>
<path d="M66.5293 198.45C66.5293 200.043 64.8603 201.333 62.8121 201.333C60.7639 201.333 59.095 200.043 59.095 198.45C59.095 196.857 60.7639 195.567 62.8121 195.567C64.8603 195.567 66.5293 196.857 66.5293 198.45Z" fill="#F7D747"/>
<path d="M65.9982 200.328C66.3017 200.328 66.681 200.271 66.7568 199.967C66.8137 199.759 66.662 199.569 66.4723 199.474C66.2827 199.379 66.0741 199.379 65.8655 199.379C64.6707 199.379 63.4948 199.36 62.3 199.36C61.3707 199.36 60.3656 199.228 59.4742 199.569C59.3225 199.626 59.1708 199.702 59.0949 199.834C58.8674 200.195 59.3415 200.612 59.6449 200.688C60.3846 200.878 61.2001 200.214 61.9587 200.271C62.3569 200.309 62.7173 200.365 63.1345 200.365C64.1017 200.346 65.05 200.347 65.9982 200.328Z" fill="#FC6F4E"/>
<path d="M34.2886 256.9L28.7887 255.004C28.7887 255.004 28.4284 256.009 28.8077 256.445C29.2059 256.881 34.2886 256.9 34.2886 256.9Z" fill="#FC6F4E"/>
<path d="M58.9812 272.224L62.1862 272.11L62.9638 276.567C62.9638 276.567 61.6363 276.719 60.3466 277.003C57.8812 278.843 55.1313 279.924 52.9503 279.772C52.4193 279.734 52.3813 279.355 52.8555 279.146C53.2348 278.994 53.6141 278.843 53.9365 278.71C53.4434 278.767 52.8744 278.748 52.1917 278.596C51.6607 278.482 51.7176 278.103 52.2675 277.97C52.5331 277.913 52.7796 277.837 52.9882 277.781C52.6468 277.819 52.2486 277.8 51.7555 277.705C51.3193 277.629 51.2434 277.174 51.6417 277.003C51.9641 276.87 52.2675 276.738 52.552 276.605C52.2486 276.681 51.9262 276.719 51.5848 276.681C51.1676 276.643 51.0538 276.188 51.4141 275.979C53.5192 274.955 54.9985 273.874 54.9985 273.874C54.9985 273.874 53.4054 275.031 52.8365 275.239H51.7745C52.1348 274.272 54.6192 272.622 55.1692 272.451C57.0278 271.939 58.9812 272.224 58.9812 272.224Z" fill="#FFA55B"/>
<path d="M97.5181 259.821C97.2147 258.379 96.8923 256.938 96.5698 255.497C96.1716 253.695 95.7733 251.931 95.3561 250.168C94.9957 248.65 94.5975 247.171 94.1613 245.692C92.6062 240.495 90.4821 235.583 86.8029 231.165C84.7736 228.737 82.4409 226.556 79.8806 224.717C79.4255 224.375 78.9324 224.053 78.4583 223.73C78.2307 223.579 78.0221 223.446 77.7945 223.294C77.7376 223.256 77.6996 223.237 77.6428 223.199C77.2255 222.934 76.8083 222.687 76.3911 222.46C75.0445 221.701 73.6411 221.018 72.2188 220.43C71.4602 220.127 67.4585 218.249 66.8517 218.705C65.4293 219.767 64.481 232.815 63.438 232.815C62.3759 232.815 61.238 219.786 59.8346 218.705C59.1139 218.155 56.2881 219.122 55.5106 219.349C53.6141 219.861 51.7555 220.563 49.9918 221.417C46.8436 222.934 43.923 224.944 41.4006 227.353C41.0403 227.694 40.6799 228.054 40.3386 228.415C40.3196 228.434 40.3006 228.453 40.2817 228.472C40.1299 228.642 39.9782 228.813 39.8265 228.984C39.4662 229.382 39.1438 229.761 38.8214 230.159C33.056 237.328 31.5957 246.356 28.8458 255.004L28.9027 255.023C28.732 255.44 25.8114 262.571 29.8888 266.99C30.1923 267.312 30.4768 267.521 30.7992 267.653C31.6147 268.241 32.487 268.829 33.4163 269.417C33.7387 269.626 34.0801 269.853 34.4215 270.062C36.1283 271.124 37.9679 272.243 39.9593 273.362C41.8747 274.462 43.923 275.6 46.0281 276.757C48.4746 278.084 50.9969 279.45 53.5951 280.834C55.2451 281.725 56.914 282.617 58.6019 283.527L60.3467 280.834L61.4087 279.184C60.7449 278.691 60.0811 278.198 59.4174 277.686C57.8622 276.491 56.383 275.277 54.9416 274.026C54.6382 273.76 54.3158 273.495 54.0123 273.229C52.4003 271.826 50.8262 270.384 49.328 268.962C49.328 268.962 49.328 268.962 49.328 268.943L68.7861 268.886C65.6189 269.948 62.338 271.01 58.9812 272.053L60.2139 277.079C72.4084 275.088 84.2805 273.381 91.9803 271.067C91.9803 271.067 91.9803 271.067 91.9993 271.067C92.2269 271.029 92.4734 270.953 92.7389 270.839C93.4596 270.517 94.0854 270.138 94.6354 269.72C95.7164 268.886 96.4561 267.9 96.9491 266.876C98.5043 263.538 97.5181 259.821 97.5181 259.821ZM39.9024 259.745C39.4851 259.328 39.0869 258.929 38.6886 258.531C38.7265 258.455 38.7455 258.417 38.7455 258.417L38.48 258.323L38.7455 258.417L39.9024 255.345L42.6713 248.062L43.0506 247.038L43.2592 248.062L45.2126 257.374L45.7436 265.548C43.7143 263.576 41.7799 261.603 39.9024 259.745ZM81.4168 264.278L82.4599 251.457L82.8771 246.412L85.8736 257.147L86.177 258.266L86.2149 258.379V258.398L86.5373 259.555L87.1822 261.869C85.3426 262.684 83.4081 263.5 81.4168 264.278Z" fill="#44C057"/>
<path d="M80.3168 268.962H45.9712V288.818H80.3168V268.962Z" fill="#00546A"/>
<path d="M80.4687 299.363C79.8049 301.449 77.586 302.587 75.4998 301.923L61.6174 297.504L64.007 289.975L77.8894 294.394C79.9945 295.077 81.1324 297.296 80.4687 299.363Z" fill="#FFFFEC"/>
<path d="M68.6724 291.492L66.3966 299.04L18.472 287.87C13.7687 286.77 10.5826 282.313 11.2274 277.534C11.3222 276.757 11.5118 275.96 11.7774 275.163C11.7963 275.107 11.8153 275.05 11.8342 275.012C13.6739 269.626 19.8944 267.141 24.996 269.683L68.6724 291.492Z" fill="#00566C"/>
<path d="M45.3075 298.13C44.5679 296.082 45.6489 293.825 47.6971 293.085L61.4278 288.173L64.0829 295.608L50.3522 300.52C48.304 301.259 46.0472 300.178 45.3075 298.13Z" fill="#FFFFEC"/>
<path d="M59.4933 297.239L56.7244 289.861L101.596 269.683C105.995 267.71 111.23 269.322 113.638 273.513C114.037 274.196 114.378 274.936 114.644 275.732C114.662 275.789 114.681 275.846 114.7 275.884C116.502 281.289 113.069 287.036 107.456 288.098L59.4933 297.239Z" fill="#00657C"/>
<path d="M81.5496 280.834H40.8317C40.3197 280.834 39.9214 280.417 39.9214 279.924V249.011C39.9214 248.499 40.3386 248.1 40.8317 248.1H81.5496C82.0617 248.1 82.4599 248.518 82.4599 249.011V279.924C82.4599 280.417 82.0427 280.834 81.5496 280.834Z" fill="#FC6F4E"/>
<path opacity="0.1" d="M80.4686 248.081H80.3738V280.815H80.4686C81.5686 280.815 82.4599 279.924 82.4599 278.824V250.054C82.4599 248.973 81.5686 248.081 80.4686 248.081Z" fill="#231F20"/>
<path d="M82.2134 279.81L87.1443 272.3L83.5978 273.058L82.403 273.229L82.2134 279.81Z" fill="#FC6F4E"/>
<path d="M43.1264 230.406L43.866 232.625L41.6471 231.866L39.7696 233.251L39.8075 230.899L38.7644 230.16C39.0678 229.761 39.4092 229.363 39.7696 228.984L40.1489 228.87L40.3006 228.415C40.6419 228.054 41.0023 227.694 41.3626 227.353L42.216 228.566L44.5487 228.547L43.1264 230.406Z" fill="#13914D"/>
<path d="M51.945 238.637L50.5037 238.144L49.2899 239.054L49.3089 237.518L48.0762 236.646L49.5365 236.19L49.9916 234.749L50.864 236.001L52.3812 235.982L51.4709 237.196L51.945 238.637Z" fill="#13914D"/>
<path d="M45.383 245.426L44.6813 245.18L44.0744 245.635L44.0934 244.876L43.4675 244.44L44.1882 244.213L44.4158 243.511L44.852 244.118H45.5916L45.1554 244.706L45.383 245.426Z" fill="#13914D"/>
<path d="M83.9201 232.378L83.1994 232.132L82.5926 232.587L82.6115 231.828L82.0046 231.392L82.7253 231.184L82.9529 230.463L83.3701 231.089L84.1287 231.07L83.6736 231.677L83.9201 232.378Z" fill="#13914D"/>
<path d="M76.3151 245.426L75.6134 245.18L75.0065 245.635L75.0255 244.876L74.3997 244.44L75.1203 244.213L75.3479 243.511L75.7841 244.118H76.5237L76.0875 244.706L76.3151 245.426Z" fill="#13914D"/>
<path d="M59.9484 233.44L59.2278 233.194L58.6209 233.649L58.6398 232.89L58.033 232.454L58.7536 232.246L58.9812 231.525L59.3984 232.132H60.157L59.7019 232.739L59.9484 233.44Z" fill="#13914D"/>
<path d="M37.0766 260.788L35.6542 260.295L34.4215 261.205L34.4405 259.669L33.2078 258.797L34.6681 258.342L35.1232 256.9L35.9956 258.133H37.5128L36.6025 259.347L37.0766 260.788Z" fill="#13914D"/>
<path d="M60.7448 245.711L59.3035 245.218L58.0897 246.128L58.1087 244.592L56.876 243.719L58.3363 243.264L58.7914 241.823L59.6638 243.075L61.181 243.056L60.2707 244.269L60.7448 245.711Z" fill="#13914D"/>
<path d="M36.28 248.461L34.8387 247.968L33.6059 248.878L33.6439 247.342L32.4111 246.469L33.8525 246.014L34.3266 244.573L35.199 245.806H36.7162L35.7869 247.019L36.28 248.461Z" fill="#13914D"/>
<path d="M35.5214 268.962L35.9956 270.403L34.5542 269.91L34.3646 270.062C34.0232 269.853 33.6818 269.626 33.3594 269.417V269.303L32.1267 268.412L33.587 267.976L34.0422 266.534L34.9146 267.786L36.4318 267.767L35.5214 268.962Z" fill="#13914D"/>
<path d="M84.7736 242.79L83.3513 242.278L82.1185 243.188L82.1375 241.671L80.9048 240.78L82.3651 240.344L82.8203 238.883L83.6926 240.135L85.2288 240.116L84.2995 241.33L84.7736 242.79Z" fill="#13914D"/>
<path d="M96.8922 266.876C96.3992 267.9 95.6595 268.886 94.5785 269.721L94.5975 268.412L93.3647 267.521L94.8251 267.084L95.2802 265.643L96.1526 266.895L96.8922 266.876Z" fill="#13914D"/>
<path d="M88.3769 257.962L88.851 259.404L87.4097 258.91L86.5373 259.555L86.2149 258.398V258.304L86.177 258.266L85.8735 257.147L86.4425 256.957L86.8977 255.516L87.77 256.767L89.2872 256.748L88.3769 257.962Z" fill="#13914D"/>
<path d="M59.114 226.727L56.914 225.968L55.0365 227.353L55.0744 225.02L53.1589 223.655L55.4158 222.972L56.1175 220.734L57.464 222.649H59.7967L58.3933 224.508L59.114 226.727Z" fill="#13914D"/>
<path d="M71.1188 239.813L68.7292 238.978L66.6809 240.476L66.7189 237.954L64.6707 236.475L67.0982 235.735L67.8568 233.308L69.3171 235.394L71.8584 235.375L70.3222 237.404L71.1188 239.813Z" fill="#13914D"/>
<path d="M79.8806 228.149L77.472 227.315L75.4238 228.813L75.4617 226.272L73.3945 224.792L75.8221 224.053L76.3341 222.441C76.7513 222.687 77.1686 222.934 77.5858 223.18C77.6427 223.218 77.6806 223.237 77.7375 223.275L78.041 223.711H78.4013C78.8754 224.034 79.3495 224.356 79.8237 224.698L79.0461 225.722L79.8806 228.149Z" fill="#13914D"/>
<path d="M95.3558 250.168L93.8197 249.637L91.7714 251.135L91.8094 248.594L89.7422 247.114L92.1697 246.375L92.9283 243.966L94.1231 245.692C94.5972 247.171 94.9955 248.65 95.3558 250.168Z" fill="#13914D"/>
<path d="M238.978 255.383C237.594 255.895 235.09 257.45 233.744 258.322C234.958 257.507 237.063 256.047 237.897 255.079C238.182 254.738 237.916 254.264 237.499 254.359C235.128 255.004 231.203 257.204 231.203 257.204C231.203 257.204 233.953 254.548 233.175 254.036C232.435 253.543 231.222 255.042 229.932 256.369C228.775 257.564 227.77 258.74 227.466 259.1L202.565 275.846L187.014 254.15C186.957 254.074 186.919 253.998 186.862 253.923C184.909 251.381 179.883 247.19 177.057 249.371C174.232 251.533 175.066 256.748 177.001 259.29C177.057 259.366 177.114 259.441 177.19 259.498L194.24 282.806C198.052 287.775 203.533 288.06 207.326 284.665L230.823 264.296C233.934 263.898 237.594 262.305 238.997 260.731C239.358 260.314 239.111 259.953 238.599 260.124C237.309 260.579 235.508 261.395 234.673 261.774C235.754 261.243 238.523 259.783 239.699 258.019C240.021 257.526 239.68 257.241 239.149 257.526C237.233 258.588 234.502 260.086 234.502 260.086C234.502 260.086 238.087 257.507 239.433 256.047C239.737 255.743 239.395 255.231 238.978 255.383Z" fill="#FFAF65"/>
<path d="M182.197 301.79L181.135 293.996H144.836L144.115 300.178L143.831 302.549C143.243 307.442 143.451 362.915 143.451 362.915L140.682 412.243L146.599 412.736L159.913 362.896L163.099 317.626L170.932 363.047L170.04 414.727H176.564L187.507 363.047C187.507 363.047 182.936 307.195 182.197 301.79Z" fill="#9775C7"/>
<path d="M178.593 414.575H169.699L169.68 412.584C169.68 412.584 175.919 412.603 177.171 412.584C177.702 413.362 178.062 413.912 178.593 414.575Z" fill="#2F548D"/>
<path d="M188.74 418.729H171.425C170.533 418.729 169.775 418.027 169.737 417.136L169.718 414.594H178.612C180.793 416.529 184.871 417.117 186.578 417.23C188.74 417.382 188.74 418.729 188.74 418.729Z" fill="#77A4BD"/>
<path d="M170.704 420.435H188.74V418.653L169.737 417.136L169.718 419.146C169.699 419.848 170.135 420.435 170.704 420.435Z" fill="#2F548D"/>
<path d="M148.97 414.196L140.094 413.817L140.17 411.825C140.17 411.825 146.41 412.091 147.643 412.148C148.136 412.925 148.458 413.494 148.97 414.196Z" fill="#2F548D"/>
<path d="M158.927 418.748L141.631 418.027C140.739 417.989 140.019 417.249 140 416.358L140.095 413.817L148.97 414.196C151.075 416.225 155.115 416.965 156.803 417.174C158.984 417.401 158.927 418.748 158.927 418.748Z" fill="#77A4BD"/>
<path d="M140.834 419.696L158.851 420.454L158.927 418.672L140.019 416.358L139.905 418.368C139.848 419.07 140.284 419.677 140.834 419.696Z" fill="#2F548D"/>
<path d="M146.373 313.507L145.956 313.527L146.034 315.175L146.451 315.155L146.373 313.507Z" fill="#FFFFE1"/>
<path d="M143.224 407.046L142.806 406.989L143.224 403.727L143.641 403.784L143.224 407.046ZM144.058 400.503L143.641 400.446L144.058 397.184L144.475 397.241L144.058 400.503ZM144.874 393.96L144.456 393.903L144.874 390.641L145.291 390.698L144.874 393.96ZM145.708 387.436L145.291 387.379L145.708 384.118L146.125 384.174L145.708 387.436ZM146.524 380.893L146.106 380.837L146.524 377.575L146.941 377.631L146.524 380.893ZM147.358 374.351L146.941 374.294L147.358 371.032L147.775 371.089L147.358 374.351ZM148.173 367.827L147.756 367.77L148.173 364.508L148.591 364.565L148.173 367.827ZM148.211 361.246L148.06 357.946L148.477 357.927L148.629 361.227L148.211 361.246ZM147.908 354.665L147.756 351.365L148.173 351.346L148.325 354.646L147.908 354.665ZM147.586 348.084L147.434 344.803L147.851 344.784L148.003 348.065L147.586 348.084ZM147.282 341.503L147.13 338.203L147.548 338.184L147.699 341.484L147.282 341.503ZM146.96 334.922L146.808 331.622L147.225 331.603L147.377 334.903L146.96 334.922ZM146.656 328.341L146.505 325.041L146.922 325.023L147.074 328.322L146.656 328.341ZM146.353 321.761L146.201 318.461L146.618 318.442L146.77 321.742L146.353 321.761Z" fill="#FFFFE1"/>
<path d="M142.427 410.267L142.221 411.904L142.635 411.956L142.841 410.319L142.427 410.267Z" fill="#FFFFE1"/>
<path d="M150.241 258.36L140.227 250.926L125.245 272.47C123.291 275.277 123.026 278.919 124.562 281.953C128.621 289.994 136.7 302.701 143.565 310.666C144.058 312.392 145.234 312.544 146.031 313.359L149.122 311.349L146.467 303.649C141.839 295.892 137.857 287.32 133.893 278.843L150.241 258.36Z" fill="#FFAF65"/>
<path d="M166.835 237.006H159.022V247.228H166.835V237.006Z" fill="#E69B47"/>
<path d="M163.535 239.282C167.337 239.282 170.419 235.274 170.419 230.33C170.419 225.386 167.337 221.379 163.535 221.379C159.733 221.379 156.651 225.386 156.651 230.33C156.651 235.274 159.733 239.282 163.535 239.282Z" fill="#FFAF65"/>
<path d="M158.168 230.159C158.168 230.103 158.168 230.046 158.149 229.97C158.13 229.647 158.111 229.306 158.244 229.003C158.509 228.377 159.268 228.13 159.932 228.206C160.596 228.282 161.202 228.604 161.828 228.851C162.587 229.135 163.308 229.116 164.028 228.775C164.597 228.51 165.128 228.13 165.735 227.96C167.423 227.466 169.282 228.51 170.969 228.035C171.937 227.751 172.733 226.973 173.037 226.006C173.321 225.039 173.094 223.939 172.449 223.18C171.918 222.555 171.14 222.137 170.704 221.455C170.154 220.563 170.154 219.198 169.206 218.724C168.144 218.193 166.949 219.274 165.754 219.16C164.54 219.046 163.896 217.794 162.796 217.415C161.733 217.055 160.501 217.187 159.571 217.813C158.604 218.477 157.997 219.596 156.973 220.184C156.158 220.658 155.172 220.753 154.261 220.98C152.422 221.473 151.113 223.541 151.246 225.418C151.417 227.846 153.503 230.311 154.906 232.151C155.342 232.72 155.76 233.308 156.196 233.877C156.499 234.275 157.106 235.508 157.58 235.678C158.472 235.982 158.339 234.351 158.339 233.801C158.301 232.568 158.225 231.373 158.168 230.159Z" fill="#0E5464"/>
<path d="M157.732 230.463C158.168 231.127 158.794 231.468 159.116 231.241C159.458 231.013 159.363 230.311 158.927 229.647C158.491 228.984 157.865 228.642 157.542 228.87C157.22 229.097 157.296 229.799 157.732 230.463Z" fill="#FFAF65"/>
<path d="M149.173 311.321L143.407 315.048L143.634 315.398L149.399 311.671L149.173 311.321Z" fill="#FFFFE1"/>
<path d="M176.863 311.088L176.636 311.438L183.274 315.736L183.501 315.386L176.863 311.088Z" fill="#FFFFE1"/>
<path d="M184.093 249.959C184.074 250.414 183.998 250.964 183.979 251.419C183.979 251.552 183.979 251.704 183.979 251.836C183.923 253.885 183.885 255.895 183.828 257.886C183.828 258.019 183.828 258.152 183.828 258.304C183.771 260.029 183.733 261.736 183.676 263.424C183.676 263.557 183.676 263.709 183.657 263.841C183.619 265.188 183.562 266.534 183.524 267.862C183.524 267.995 183.505 268.146 183.505 268.279C183.486 270.46 183.373 272.527 183.259 274.576C183.259 274.708 183.259 274.86 183.24 274.993C183.164 276.643 183.107 278.274 183.012 279.886C183.012 280.019 182.993 280.17 182.993 280.303C182.861 283.091 182.709 285.803 182.538 288.42C182.538 288.553 182.519 288.704 182.519 288.837C182.348 291.606 182.14 294.261 181.931 296.821C181.912 296.954 181.912 297.106 181.893 297.239C181.666 300.008 181.4 302.644 181.116 305.128C181.097 305.261 181.078 305.394 181.059 305.545C181.021 305.849 180.983 306.171 180.945 306.475L178.385 309.433L178.214 309.623L177.949 309.926L177.778 310.116L177.399 310.533L177.057 310.913L174.8 313.511L174.497 313.435L174.08 313.321L169.225 312.088L168.807 311.975L163.383 310.59L160.671 311.368L160.254 311.481L155.722 312.771L155.304 312.885L151.872 313.871L148.382 310.685L147.984 310.325L147.51 309.888L147.055 309.471L144.968 307.575C144.855 306.645 144.741 305.697 144.627 304.73C144.608 304.597 144.589 304.445 144.589 304.313C144.343 302.189 144.096 299.989 143.85 297.694C143.831 297.561 143.812 297.409 143.812 297.277C143.546 294.641 143.262 291.891 142.996 289.046C142.977 288.913 142.958 288.761 142.958 288.629C142.768 286.675 142.598 284.684 142.408 282.636V282.598C142.332 281.858 142.275 281.118 142.219 280.379C142.2 280.246 142.2 280.113 142.181 279.962C142.067 278.634 141.953 277.288 141.858 275.922V275.884C141.801 275.201 141.744 274.538 141.687 273.855C141.669 273.722 141.669 273.589 141.65 273.438C141.517 271.731 141.384 269.986 141.251 268.241C141.232 268.108 141.232 267.976 141.213 267.824C141.081 266.174 140.967 264.505 140.853 262.836C140.834 262.703 140.834 262.571 140.815 262.419C140.739 261.471 140.682 260.503 140.625 259.536C140.606 259.404 140.606 259.252 140.588 259.119C140.474 257.412 140.36 255.724 140.246 253.999C140.227 253.866 140.227 253.714 140.208 253.581C140.151 252.671 139.962 252.178 139.905 251.268C140.303 250.718 140.853 249.807 141.27 249.314L141.536 249.03C141.593 248.973 141.631 248.916 141.687 248.859C141.763 248.764 141.839 248.688 141.934 248.612C143.698 246.811 145.708 245.578 147.946 244.687C148.079 244.63 148.211 244.573 148.344 244.535C149.691 244.023 151.132 243.625 152.649 243.302C152.782 243.264 152.915 243.245 153.048 243.207C154.868 242.828 156.803 242.563 158.832 242.297C158.756 242.828 158.889 243.34 159.154 243.814C159.268 244.004 159.401 244.175 159.553 244.364C160.444 245.407 161.923 246.128 162.739 246.128C164.047 246.128 166.93 244.781 166.93 242.107C167.499 242.24 167.764 242.563 168.295 242.695C168.428 242.733 168.58 242.771 168.713 242.79C170.761 243.283 172.544 243.776 174.175 244.307C174.307 244.345 174.44 244.402 174.573 244.44C176.697 245.161 178.537 245.995 180.262 247.095C180.319 247.133 180.376 247.152 180.414 247.19C180.49 247.228 180.585 247.285 180.661 247.342C180.717 247.38 180.755 247.418 180.812 247.456C181.078 247.626 181.343 247.816 181.609 248.025C181.78 248.157 181.969 248.29 182.14 248.423C182.785 248.954 183.467 249.371 184.093 249.959Z" fill="#9ACBFF"/>
<path d="M163.146 246.176L162.729 246.18L163.332 310.623L163.75 310.619L163.146 246.176Z" fill="#FFFFE1"/>
<path d="M198.697 267.71L198.071 268.203L197.691 268.507L195.473 270.252L195.112 270.536L192.855 272.3L192.495 272.584L190.561 274.12L190.2 274.405L188.55 275.694L188.19 275.979L188.114 276.036L187.83 275.638L187.526 275.182L186.995 274.386L186.843 274.158L186.692 273.931L185.383 271.996L185.099 271.579L184.928 271.314L184.625 270.877L183.733 269.569L183.619 269.398L183.449 269.114V269.095V268.848L183.506 266.364L183.525 265.453L183.885 249.864C184.757 250.452 185.971 251.818 187.374 253.638C187.412 253.676 188.702 255.307 190.39 257.431L190.466 257.526L190.712 257.829C190.75 257.867 190.788 257.924 190.826 257.981C191.509 258.835 192.23 259.745 192.969 260.655L193.273 261.035C193.443 261.243 193.595 261.433 193.766 261.641C193.917 261.831 194.069 262.021 194.221 262.21C194.676 262.798 195.15 263.367 195.567 263.917C195.681 264.05 195.795 264.183 195.89 264.315C196.079 264.562 196.288 264.809 196.459 265.036L196.724 265.359C197.824 266.648 198.564 267.558 198.697 267.71Z" fill="#9ACBFF"/>
<path d="M169.377 312.107L168.959 311.994V310.438V310.021L168.921 305.261V304.844L168.864 297.39V296.973L168.808 288.78V288.363L168.751 280.322V279.905L168.713 274.594V274.177L168.675 268.26V267.843L168.637 263.253V262.836L168.599 258.74V258.323L168.561 252.026V251.609L168.542 248.65V248.233L168.504 242.676C168.637 242.714 168.789 242.752 168.921 242.771L168.959 248.214V248.631L168.978 251.571V251.988L169.016 258.285V258.702L169.054 262.836V263.253L169.092 267.824V268.241L169.13 274.158V274.576L169.168 279.886V280.303L169.225 288.344V288.761L169.282 296.935V297.353L169.339 304.825V305.242L169.377 310.021V310.438V312.107Z" fill="#FFFFE1"/>
<path d="M174.535 310.742C174.573 311.633 174.611 312.543 174.649 313.435L174.232 313.321C174.194 312.449 174.156 311.576 174.118 310.704C174.118 310.571 174.099 310.419 174.099 310.287C174.042 308.637 173.966 307.006 173.928 305.356C173.928 305.223 173.909 305.071 173.909 304.939C173.833 302.397 173.758 299.856 173.701 297.315C173.701 297.182 173.701 297.03 173.701 296.897C173.644 294.185 173.587 291.473 173.568 288.761C173.568 288.629 173.568 288.477 173.568 288.344C173.53 285.67 173.511 282.977 173.511 280.284V279.867C173.511 278.141 173.511 276.415 173.53 274.689C173.53 274.557 173.53 274.405 173.53 274.272C173.549 272.262 173.568 270.252 173.606 268.222C173.606 268.09 173.606 267.938 173.606 267.805C173.625 266.326 173.663 264.865 173.682 263.386C173.682 263.253 173.682 263.102 173.701 262.969C173.739 261.49 173.758 260.029 173.814 258.55C173.814 258.417 173.814 258.266 173.833 258.133C173.89 256.028 173.966 253.923 174.042 251.836C174.042 251.704 174.042 251.552 174.061 251.419C174.099 250.452 174.137 249.485 174.175 248.537C174.175 248.404 174.175 248.252 174.194 248.119C174.251 246.83 174.308 245.559 174.364 244.269C174.497 244.307 174.63 244.364 174.763 244.402C174.706 245.635 174.649 246.868 174.592 248.1C174.592 248.233 174.573 248.385 174.573 248.518C174.535 249.485 174.497 250.433 174.459 251.4C174.459 251.533 174.44 251.666 174.44 251.818C174.364 253.904 174.289 256.009 174.232 258.114C174.232 258.247 174.213 258.379 174.213 258.531C174.175 260.01 174.137 261.49 174.099 262.969C174.099 263.102 174.08 263.234 174.099 263.386C174.061 264.846 174.042 266.326 174.004 267.786C174.004 267.919 174.004 268.052 174.004 268.203C173.966 270.214 173.947 272.243 173.928 274.253C173.928 274.386 173.928 274.538 173.928 274.67C173.909 276.396 173.909 278.122 173.909 279.829V280.246C173.909 282.92 173.928 285.613 173.966 288.306C173.966 288.439 173.966 288.591 173.966 288.723C174.004 291.435 174.042 294.147 174.099 296.84C174.099 296.973 174.099 297.106 174.099 297.258C174.156 299.799 174.232 302.359 174.308 304.901C174.308 305.033 174.308 305.185 174.326 305.318C174.383 306.968 174.44 308.618 174.497 310.268C174.535 310.457 174.535 310.609 174.535 310.742Z" fill="#FFFFE1"/>
<path d="M180.85 247.418V247.512L180.831 248.1L180.812 248.518L180.699 251.438L180.68 251.855L180.433 258.019L180.414 258.436L180.224 263.31L180.205 263.728L180.035 267.9L180.016 268.317L179.769 274.519L179.75 274.936L179.542 279.924L179.523 280.341L179.2 288.42L179.181 288.837L178.859 296.878L178.84 297.296L178.537 305.071L178.518 305.489L178.366 309.395L178.195 309.585L177.93 309.888L178.1 305.47L178.119 305.052L178.423 297.277L178.442 296.859L178.764 288.818L178.783 288.401L179.106 280.322L179.124 279.905L179.333 274.898L179.352 274.481L179.599 268.279L179.618 267.862L179.788 263.671L179.807 263.253L179.997 258.417L180.016 258L180.262 251.818L180.281 251.4L180.395 248.48L180.414 248.062L180.452 247.19V247.114C180.585 247.228 180.718 247.323 180.85 247.418Z" fill="#FFFFE1"/>
<path d="M156.12 297.144V297.561C156.12 299.894 156.101 302.246 156.063 304.578C156.063 304.711 156.063 304.844 156.063 304.995C156.044 306.532 156.006 308.068 155.968 309.585C155.968 309.718 155.968 309.869 155.968 310.002C155.949 310.932 155.912 311.861 155.893 312.79L155.475 312.904C155.513 311.937 155.532 310.95 155.551 309.983C155.551 309.851 155.551 309.699 155.551 309.566C155.589 308.03 155.608 306.494 155.646 304.976C155.646 304.844 155.646 304.692 155.646 304.559C155.684 302.227 155.703 299.894 155.703 297.561V297.144C155.703 294.394 155.684 291.644 155.627 288.875C155.627 288.742 155.627 288.591 155.627 288.458C155.589 285.765 155.513 283.053 155.418 280.36C155.418 280.227 155.418 280.075 155.399 279.943C155.343 278.046 155.267 276.131 155.172 274.234C155.172 274.101 155.172 273.95 155.153 273.817C155.077 271.958 154.982 270.119 154.868 268.26C154.868 268.127 154.849 267.995 154.849 267.843C154.755 266.212 154.66 264.581 154.546 262.95C154.546 262.817 154.527 262.666 154.508 262.533C154.432 261.414 154.356 260.276 154.262 259.157C154.262 259.024 154.243 258.873 154.224 258.74C154.072 256.767 153.92 254.776 153.731 252.804C153.731 252.671 153.712 252.519 153.693 252.387C153.598 251.211 153.484 250.035 153.37 248.859C153.37 248.726 153.351 248.575 153.332 248.442C153.162 246.716 152.991 245.009 152.801 243.283C152.934 243.245 153.067 243.226 153.2 243.188C153.389 244.933 153.56 246.678 153.731 248.423C153.75 248.556 153.768 248.707 153.768 248.84C153.882 250.016 153.996 251.173 154.091 252.33C154.11 252.462 154.11 252.595 154.129 252.747C154.3 254.738 154.47 256.711 154.622 258.702C154.641 258.835 154.641 258.986 154.66 259.119C154.755 260.257 154.831 261.376 154.906 262.514C154.906 262.647 154.925 262.779 154.925 262.931C155.039 264.562 155.134 266.193 155.229 267.824C155.248 267.957 155.248 268.09 155.248 268.241C155.362 270.1 155.456 271.958 155.532 273.798C155.532 273.931 155.551 274.082 155.551 274.215C155.646 276.112 155.722 278.008 155.779 279.905C155.779 280.038 155.798 280.189 155.798 280.322C155.893 283.015 155.968 285.727 156.006 288.42C156.006 288.553 156.006 288.705 156.006 288.837C156.101 291.644 156.12 294.394 156.12 297.144Z" fill="#FFFFE1"/>
<path d="M149.824 273.684C149.824 273.817 149.824 273.969 149.824 274.101C149.805 276.055 149.786 278.008 149.729 279.962C149.729 280.094 149.729 280.227 149.729 280.379C149.672 283.11 149.577 285.841 149.482 288.534C149.482 288.667 149.463 288.818 149.463 288.951C149.368 291.72 149.236 294.47 149.122 297.22C149.122 297.353 149.103 297.504 149.103 297.637C149.065 298.528 149.027 299.439 148.989 300.33L148.818 304.408L148.799 304.825L148.61 309.49L148.591 309.907L148.553 310.704L148.155 310.344L148.174 309.907L148.193 309.49L148.401 304.825L148.42 304.408L148.591 300.311C148.629 299.42 148.667 298.528 148.705 297.637C148.705 297.504 148.724 297.371 148.724 297.22C148.837 294.47 148.951 291.72 149.046 288.951C149.046 288.818 149.046 288.667 149.065 288.534C149.16 285.822 149.255 283.091 149.311 280.36C149.311 280.227 149.311 280.075 149.311 279.943C149.349 277.989 149.387 276.017 149.406 274.063C149.406 273.931 149.406 273.779 149.406 273.646C149.425 271.845 149.425 270.043 149.406 268.241C149.406 268.108 149.406 267.976 149.406 267.824C149.387 266.174 149.368 264.524 149.311 262.874C149.311 262.741 149.311 262.609 149.311 262.457C149.274 261.395 149.255 260.352 149.198 259.29C149.198 259.157 149.179 259.005 149.179 258.873C149.103 256.976 148.989 255.08 148.875 253.183C148.856 253.05 148.856 252.918 148.837 252.766C148.743 251.495 148.648 250.206 148.534 248.935C148.534 248.802 148.515 248.65 148.496 248.518C148.382 247.247 148.249 245.957 148.117 244.687C148.249 244.63 148.382 244.573 148.515 244.535C148.667 245.863 148.799 247.19 148.913 248.518C148.932 248.65 148.951 248.802 148.951 248.935C149.065 250.206 149.16 251.476 149.255 252.747C149.274 252.88 149.274 253.012 149.293 253.164C149.425 255.061 149.52 256.976 149.596 258.873C149.596 259.005 149.615 259.157 149.615 259.29C149.653 260.352 149.691 261.414 149.729 262.476C149.729 262.609 149.729 262.76 149.729 262.893C149.767 264.543 149.805 266.193 149.824 267.843C149.824 267.976 149.824 268.127 149.824 268.26C149.843 270.081 149.843 271.883 149.824 273.684Z" fill="#FFFFE1"/>
<path d="M142.579 282.636C142.503 281.896 142.446 281.156 142.389 280.417C142.37 280.284 142.37 280.151 142.351 280C142.238 278.672 142.124 277.325 142.029 275.96V275.922L141.991 273.893V273.476L141.896 268.279V267.862L141.801 262.874V262.457L141.745 259.555V259.138L141.631 253.923V253.505L141.536 249.352L141.801 249.068C141.858 249.011 141.896 248.954 141.953 248.897V249.068L142.048 253.467V253.885L142.162 259.119V259.536L142.219 262.457V262.874L142.313 267.862V268.279L142.408 273.495L142.427 273.912L142.56 280V280.417L142.579 282.636Z" fill="#FFFFE1"/>
<path d="M184.131 251.438C184.131 251.571 184.131 251.723 184.131 251.855C182.974 251.836 181.837 251.837 180.68 251.837C180.547 251.837 180.395 251.837 180.262 251.837C178.328 251.837 176.375 251.855 174.44 251.893C174.307 251.893 174.156 251.893 174.023 251.893C172.335 251.931 170.647 251.969 168.959 252.026C168.827 252.026 168.675 252.026 168.542 252.045C165.546 252.14 162.53 252.273 159.534 252.443C159.401 252.443 159.249 252.462 159.116 252.462C157.467 252.557 155.817 252.671 154.167 252.785C154.034 252.785 153.901 252.804 153.749 252.823C152.251 252.918 150.772 253.05 149.293 253.183C149.16 253.183 149.027 253.202 148.875 253.221C146.581 253.411 144.267 253.638 141.972 253.885C141.82 253.904 141.688 253.923 141.536 253.923V253.505C141.688 253.486 141.82 253.467 141.972 253.467C144.267 253.221 146.543 253.012 148.856 252.804C148.989 252.785 149.122 252.785 149.274 252.766C150.753 252.633 152.251 252.519 153.73 252.405C153.863 252.386 153.996 252.386 154.148 252.368C155.817 252.235 157.467 252.14 159.135 252.045C159.268 252.045 159.401 252.026 159.553 252.026C162.549 251.855 165.565 251.723 168.561 251.609C168.694 251.609 168.846 251.59 168.978 251.59C170.685 251.533 172.373 251.495 174.061 251.457C174.194 251.457 174.345 251.457 174.478 251.457C176.413 251.419 178.366 251.4 180.3 251.4C180.433 251.4 180.585 251.4 180.718 251.4C181.837 251.419 182.993 251.419 184.131 251.438Z" fill="#FFFFE1"/>
<path d="M183.96 257.905C183.96 258.038 183.96 258.171 183.96 258.323L180.414 258.417L179.997 258.436L174.231 258.607L173.814 258.626L169.016 258.759L168.599 258.778L159.477 259.043L159.059 259.062L154.697 259.195L154.28 259.214L149.634 259.347L149.217 259.366L142.105 259.574L141.668 259.593V259.176L142.105 259.157L149.198 258.948L149.615 258.929L154.261 258.797L154.678 258.778L159.059 258.645H159.477L168.599 258.379L169.016 258.36L173.833 258.228L174.25 258.209L180.035 258.038L180.452 258.019L183.96 257.905Z" fill="#FFFFE1"/>
<path d="M183.638 267.881C183.638 268.014 183.638 268.165 183.619 268.298H179.997H173.587H169.054H168.637H159.477H154.868H149.824H141.403C141.384 268.165 141.384 268.033 141.365 267.881H149.824H154.849H159.496H168.656H169.073H173.606H180.035H183.638Z" fill="#FFFFE1"/>
<path d="M183.164 279.905C183.164 280.037 183.145 280.189 183.145 280.322H179.523H179.106L173.909 280.341H173.492H169.149H168.732L159.723 280.36H159.306H155.817H155.399L149.71 280.379H149.293L142.503 280.398H142.351C142.332 280.265 142.332 280.132 142.313 279.981H142.503L149.293 279.962H149.71L155.38 279.943H155.798H159.287H159.704L168.732 279.924H169.149H173.492H173.909L179.125 279.905H179.542H183.164Z" fill="#FFFFE1"/>
<path d="M182.69 288.42C182.69 288.553 182.671 288.704 182.671 288.837C181.514 288.818 180.357 288.818 179.2 288.818C179.067 288.818 178.916 288.818 178.783 288.818C177.19 288.799 175.578 288.799 173.966 288.799C173.833 288.799 173.7 288.799 173.549 288.799C172.107 288.799 170.647 288.799 169.206 288.799H168.788C165.849 288.799 162.909 288.818 159.97 288.837C159.837 288.837 159.685 288.837 159.552 288.837C158.377 288.837 157.201 288.856 156.025 288.875C155.892 288.875 155.759 288.875 155.608 288.875C153.56 288.894 151.492 288.913 149.444 288.951C149.311 288.951 149.16 288.951 149.027 288.951C147.055 288.989 145.101 289.008 143.129 289.046C143.11 288.913 143.091 288.761 143.091 288.629C145.063 288.591 147.055 288.553 149.046 288.534C149.179 288.534 149.33 288.534 149.463 288.534C151.511 288.496 153.56 288.477 155.608 288.458C155.74 288.458 155.892 288.458 156.025 288.458C157.201 288.439 158.377 288.42 159.533 288.42C159.666 288.42 159.799 288.42 159.951 288.42C162.89 288.401 165.83 288.382 168.788 288.382H169.206C170.647 288.382 172.088 288.382 173.549 288.382C173.681 288.382 173.814 288.382 173.966 288.382C175.578 288.382 177.19 288.382 178.802 288.401C178.935 288.401 179.086 288.401 179.219 288.401C180.376 288.401 181.533 288.42 182.69 288.42Z" fill="#FFFFE1"/>
<path d="M182.083 296.822C182.064 296.954 182.064 297.106 182.045 297.239L178.859 297.277H178.442L174.118 297.334H173.701L169.282 297.39H168.865L160.292 297.504H159.875L156.12 297.542H155.703L149.122 297.618H148.705L144.02 297.675C144.001 297.542 143.982 297.39 143.982 297.258L148.743 297.201H149.16L155.722 297.125H156.139L159.875 297.087H160.292L168.883 296.973H169.301L173.72 296.916H174.137L178.499 296.859H178.916L182.083 296.822Z" fill="#FFFFE1"/>
<path d="M181.268 305.109C181.249 305.242 181.23 305.375 181.211 305.526L178.537 305.47H178.119L174.345 305.394H173.928L169.339 305.299H168.921L160.577 305.128H160.159L156.044 305.033H155.627L148.78 304.882H148.363L144.76 304.806C144.741 304.673 144.722 304.521 144.722 304.389L148.382 304.464H148.799L155.627 304.616H156.044L160.122 304.711L160.539 304.73L168.883 304.901H169.301L173.89 304.995H174.307L178.119 305.071L178.537 305.09L181.268 305.109Z" fill="#FFFFE1"/>
<path d="M177.399 310.514L177.057 310.894C176.223 310.837 175.389 310.78 174.554 310.742C174.421 310.723 174.27 310.723 174.137 310.723C172.563 310.628 170.97 310.533 169.377 310.457C169.244 310.457 169.092 310.438 168.959 310.438C166.228 310.306 163.497 310.192 160.767 310.116C160.634 310.116 160.482 310.116 160.349 310.097C158.889 310.059 157.41 310.021 155.949 309.983C155.817 309.983 155.684 309.983 155.532 309.983C153.218 309.945 150.886 309.907 148.572 309.907C148.439 309.907 148.288 309.907 148.155 309.907C147.984 309.907 147.832 309.907 147.662 309.907L147.207 309.49C147.529 309.49 147.851 309.49 148.174 309.49C148.307 309.49 148.458 309.49 148.591 309.49C150.905 309.49 153.218 309.528 155.532 309.566C155.665 309.566 155.817 309.566 155.949 309.566C157.41 309.604 158.87 309.623 160.33 309.68C160.463 309.68 160.615 309.68 160.748 309.699C163.479 309.775 166.209 309.888 168.94 310.021C169.073 310.021 169.206 310.021 169.358 310.04C170.932 310.116 172.525 310.211 174.099 310.306C174.232 310.306 174.383 310.325 174.516 310.325C175.483 310.382 176.432 310.438 177.399 310.514Z" fill="#FFFFE1"/>
<path d="M183.411 274.595C183.411 274.727 183.411 274.879 183.392 275.012L179.75 274.917H179.333L173.928 274.765H173.511L169.111 274.651L168.694 274.632L159.59 274.386H159.173L155.589 274.291H155.172L149.823 274.139L149.406 274.12L142.389 273.931L141.953 273.912H141.839C141.82 273.779 141.82 273.646 141.801 273.495H141.953H142.389L149.425 273.684L149.842 273.703L155.172 273.836L155.589 273.855L159.173 273.95L159.59 273.969L168.713 274.215L169.13 274.234L173.549 274.348H173.966L179.39 274.5H179.807L183.411 274.595Z" fill="#FFFFE1"/>
<path d="M182.33 248.48L180.794 248.499H180.376L174.554 248.593H174.137L168.922 248.669H168.504L159.591 248.802H159.173L153.787 248.878H153.37L148.932 248.935H148.515L141.858 249.03H141.688C141.745 248.973 141.783 248.916 141.839 248.859C141.915 248.764 141.991 248.688 142.086 248.612L148.477 248.518H148.894L153.332 248.461H153.75L159.173 248.385H159.591L168.485 248.252H168.903L174.156 248.176H174.573L180.395 248.081H180.813L181.799 248.062C181.969 248.214 182.159 248.347 182.33 248.48Z" fill="#FFFFE1"/>
<path d="M183.809 263.462C183.809 263.595 183.809 263.747 183.79 263.879C182.595 263.822 181.4 263.765 180.205 263.709C180.073 263.709 179.94 263.69 179.788 263.69C177.892 263.614 175.995 263.538 174.099 263.462C173.966 263.462 173.814 263.462 173.682 263.443C172.126 263.386 170.59 263.329 169.035 263.291C168.902 263.291 168.77 263.291 168.618 263.272C165.564 263.178 162.511 263.102 159.458 263.045C159.325 263.045 159.173 263.045 159.041 263.045C157.675 263.007 156.329 262.988 154.963 262.969C154.83 262.969 154.698 262.969 154.546 262.969C152.953 262.931 151.341 262.912 149.748 262.912C149.615 262.912 149.482 262.912 149.33 262.912C146.941 262.893 144.57 262.874 142.181 262.874C142.029 262.874 141.896 262.874 141.744 262.874H141.024C141.005 262.741 141.005 262.609 140.986 262.457H141.725C141.877 262.457 142.01 262.457 142.162 262.457C144.551 262.457 146.922 262.476 149.311 262.495C149.444 262.495 149.596 262.495 149.729 262.495C151.322 262.514 152.915 262.533 154.508 262.552C154.641 262.552 154.792 262.552 154.925 262.552C156.291 262.571 157.656 262.59 159.041 262.628C159.173 262.628 159.306 262.628 159.458 262.628C162.511 262.684 165.564 262.76 168.618 262.855C168.751 262.855 168.902 262.855 169.035 262.874C170.59 262.912 172.145 262.969 173.7 263.026C173.833 263.026 173.985 263.026 174.118 263.045C176.014 263.121 177.911 263.197 179.807 263.272C179.94 263.272 180.092 263.291 180.224 263.291C181.419 263.348 182.614 263.405 183.809 263.462Z" fill="#FFFFE1"/>
<path d="M160.823 311.387L160.406 311.5C160.387 311.045 160.368 310.571 160.349 310.097C160.349 309.964 160.349 309.813 160.33 309.68C160.273 308.144 160.216 306.607 160.159 305.071C160.159 304.939 160.14 304.787 160.14 304.654C160.14 304.483 160.121 304.294 160.121 304.123C160.046 301.923 159.951 299.723 159.875 297.504C159.875 297.371 159.875 297.22 159.856 297.087C159.761 294.337 159.666 291.587 159.571 288.837C159.571 288.704 159.553 288.553 159.553 288.42C159.458 285.746 159.382 283.053 159.306 280.36C159.306 280.227 159.306 280.094 159.287 279.943C159.23 278.084 159.192 276.226 159.154 274.348C159.154 274.215 159.154 274.064 159.154 273.931C159.116 272.053 159.097 270.157 159.059 268.279C159.059 268.146 159.059 267.995 159.059 267.862C159.04 266.25 159.021 264.657 159.021 263.045C159.021 262.912 159.021 262.76 159.021 262.628C159.021 261.433 159.021 260.238 159.021 259.043C159.021 258.91 159.021 258.759 159.021 258.626C159.021 256.578 159.059 254.53 159.078 252.481C159.078 252.349 159.078 252.197 159.078 252.064C159.097 250.983 159.116 249.902 159.154 248.821C159.154 248.688 159.154 248.556 159.154 248.404C159.192 246.887 159.249 245.369 159.306 243.852C159.42 244.042 159.553 244.213 159.704 244.402C159.647 245.73 159.609 247.076 159.571 248.404C159.571 248.537 159.571 248.669 159.571 248.821C159.534 249.902 159.515 250.983 159.496 252.045C159.496 252.178 159.496 252.311 159.496 252.462C159.458 254.511 159.439 256.578 159.439 258.626C159.439 258.759 159.439 258.891 159.439 259.043C159.42 260.238 159.42 261.452 159.439 262.647V263.064C159.439 264.657 159.458 266.269 159.477 267.862C159.477 267.995 159.477 268.146 159.477 268.279C159.496 270.176 159.534 272.072 159.571 273.95C159.571 274.082 159.571 274.215 159.571 274.367C159.609 276.226 159.647 278.084 159.704 279.943C159.704 280.075 159.704 280.227 159.723 280.36C159.799 283.053 159.875 285.746 159.97 288.42C159.97 288.553 159.97 288.686 159.989 288.837C160.084 291.587 160.178 294.356 160.273 297.087C160.273 297.22 160.273 297.371 160.292 297.504C160.368 299.704 160.463 301.904 160.539 304.104C160.539 304.294 160.558 304.483 160.558 304.673C160.558 304.806 160.577 304.958 160.577 305.09C160.634 306.626 160.69 308.163 160.747 309.699C160.747 309.832 160.747 309.983 160.766 310.116C160.785 310.533 160.804 310.969 160.823 311.387Z" fill="#FFFFE1"/>
<path d="M165.451 250.3C165.451 250.68 165.147 250.983 164.768 250.983C164.389 250.983 164.085 250.68 164.085 250.3C164.085 249.921 164.389 249.618 164.768 249.618C165.147 249.637 165.451 249.94 165.451 250.3Z" fill="#5B90AB"/>
<path d="M165.451 260.333C165.451 260.712 165.147 261.016 164.768 261.016C164.389 261.016 164.085 260.712 164.085 260.333C164.085 259.953 164.389 259.65 164.768 259.65C165.147 259.669 165.451 259.972 165.451 260.333Z" fill="#5B90AB"/>
<path d="M165.451 270.991C165.451 271.37 165.147 271.674 164.768 271.674C164.389 271.674 164.085 271.37 164.085 270.991C164.085 270.612 164.389 270.308 164.768 270.308C165.147 270.308 165.451 270.612 165.451 270.991Z" fill="#5B90AB"/>
<path d="M165.451 281.232C165.451 281.612 165.147 281.915 164.768 281.915C164.389 281.915 164.085 281.612 164.085 281.232C164.085 280.853 164.389 280.55 164.768 280.55C165.147 280.55 165.451 280.853 165.451 281.232Z" fill="#5B90AB"/>
<path d="M165.451 290.43C165.451 290.81 165.147 291.113 164.768 291.113C164.389 291.113 164.085 290.81 164.085 290.43C164.085 290.051 164.389 289.748 164.768 289.748C165.147 289.748 165.451 290.051 165.451 290.43Z" fill="#5B90AB"/>
<path d="M165.451 300.463C165.451 300.842 165.147 301.146 164.768 301.146C164.389 301.146 164.085 300.842 164.085 300.463C164.085 300.083 164.389 299.78 164.768 299.78C165.147 299.78 165.451 300.083 165.451 300.463Z" fill="#5B90AB"/>
<path d="M141.896 270.422L141.536 271.162L141.479 271.238V271.257L139.507 274.443L139.298 274.803L138.236 276.529L136.965 275.524L136.643 275.277L135.107 274.082L134.765 273.817L132.964 272.414L132.641 272.148L130.593 270.555L130.271 270.289L128.355 268.791L128.014 268.545L127.198 267.9L128.715 265.927L128.962 265.586L129.19 265.302L130.176 264.012L130.441 263.671L131.56 262.191L131.845 261.831L132.793 260.598L133.058 260.257L135.05 257.659L135.315 257.317L137.743 254.15L138.008 253.809L140.682 250.3L140.948 252.917L141.005 253.449L141.403 257.412V257.431L141.46 257.981V258L141.479 258.228L141.574 258.986L141.82 261.452L141.877 262.021V265.055V265.7L141.896 268.355V269.038V270.422Z" fill="#9ACBFF"/>
<path d="M142.295 267.293L142.313 269.853L141.896 270.555V270.422L142.295 269.569L142.276 268.241L142.257 267.502L142.295 267.293Z" fill="#77A4BD"/>
<path d="M142.37 266.819L142.294 267.293V266.06L142.37 266.819Z" fill="#77A4BD"/>
<path d="M141.65 252.785C141.479 252.955 141.251 253.202 140.986 253.449C140.36 254.093 139.601 254.871 139.184 255.307C139.089 255.402 138.995 255.516 138.9 255.611C138.008 256.559 137.136 257.545 136.283 258.531C136.188 258.645 136.093 258.74 136.017 258.854C135.296 259.688 134.595 260.522 133.912 261.376C133.817 261.49 133.722 261.603 133.646 261.698C133.362 262.04 133.077 262.4 132.812 262.741C132.717 262.855 132.622 262.988 132.527 263.102C132.11 263.633 131.712 264.145 131.314 264.676C131.219 264.79 131.143 264.903 131.067 265.017C130.707 265.472 130.365 265.946 130.043 266.421L130.024 266.44C129.948 266.553 129.853 266.667 129.778 266.762C129.303 267.426 128.829 268.089 128.374 268.753L128.052 268.507C128.507 267.824 129 267.16 129.474 266.496C129.493 266.458 129.512 266.44 129.531 266.402C129.588 266.326 129.645 266.231 129.702 266.155C129.721 266.117 129.759 266.079 129.778 266.041C130.1 265.586 130.441 265.131 130.783 264.676C130.859 264.562 130.953 264.448 131.048 264.334C131.446 263.803 131.845 263.291 132.243 262.779C132.338 262.665 132.433 262.533 132.527 262.419C132.812 262.059 133.115 261.679 133.4 261.319C133.476 261.205 133.571 261.091 133.665 260.997C134.348 260.143 135.05 259.309 135.771 258.493C135.846 258.379 135.941 258.285 136.036 258.171C136.889 257.185 137.762 256.217 138.653 255.269C138.748 255.174 138.843 255.061 138.938 254.966C139.412 254.454 140.265 253.581 140.948 252.899C141.195 252.633 141.422 252.405 141.612 252.235L141.65 252.785Z" fill="#FFFFE1"/>
<path d="M141.745 257.64L141.46 257.981L141.384 258.095L141.1 258.417L138.539 261.376L138.274 261.679L136.112 264.183L135.827 264.505L135.278 265.131L134.974 265.491L133.476 267.217L133.191 267.54L132.395 268.469L132.129 268.772L131.902 269.038L131.617 269.36L130.593 270.555L130.271 270.289L131.371 269.019L131.655 268.696L131.807 268.507L132.072 268.203L132.926 267.217L133.191 266.895L134.671 265.188L134.974 264.846L135.562 264.164L135.846 263.86L138.008 261.357L138.274 261.035L140.853 258.076L141.119 257.754L141.403 257.412L141.688 257.071L141.745 257.64Z" fill="#FFFFE1"/>
<path d="M141.877 262.021L140.417 263.728L140.151 264.031L137.97 266.572L137.686 266.895L137.42 267.198L137.136 267.559L135.448 269.512L135.182 269.834L134.689 270.403L134.424 270.707L133.703 271.56L133.419 271.883L132.964 272.414L132.641 272.148L133.172 271.522L133.457 271.2L134.101 270.441L134.386 270.138L134.898 269.531L135.182 269.208L136.832 267.274L137.136 266.914L137.439 266.572L137.705 266.25L139.886 263.709L140.151 263.386L141.82 261.452L141.877 262.021Z" fill="#FFFFE1"/>
<path d="M142.219 265.302L141.934 265.624L141.877 265.7L141.669 265.965L139.545 268.583L139.279 268.924L139.241 268.962L138.957 269.322L137.174 271.522L136.908 271.845L136.7 272.091L136.453 272.414L135.315 273.798L135.107 274.082L134.765 273.817L134.803 273.779L135.069 273.457L136.131 272.148L136.396 271.826L136.624 271.522L136.889 271.2L138.653 269.038L138.938 268.677L139.014 268.583L139.279 268.26L141.403 265.624L141.669 265.302L141.877 265.055L142.143 264.714L142.219 265.302Z" fill="#FFFFE1"/>
<path d="M142.219 268.621L141.896 269.038L140.91 270.346L140.815 270.46L140.645 270.688L140.531 270.839L138.672 273.286L138.464 273.551L138.407 273.627L138.217 273.893L136.965 275.524L136.643 275.277L137.895 273.627L138.141 273.286L138.407 272.964L140.227 270.555L140.379 270.346L140.512 270.176L140.645 270.005L141.896 268.355L142.143 268.014L142.219 268.621Z" fill="#FFFFE1"/>
<path d="M139.507 274.443L139.298 274.803L138.388 274.045L138.217 273.893L138.065 273.76L137.895 273.627L136.491 272.451L136.453 272.414L136.169 272.167L136.131 272.148L134.424 270.726L134.367 270.669L134.121 270.46L134.045 270.403L132.129 268.791L131.996 268.677L131.807 268.526L131.674 268.412L129.778 266.819C129.721 266.762 129.645 266.705 129.588 266.648C129.55 266.61 129.512 266.591 129.474 266.553C129.398 266.496 129.341 266.421 129.265 266.364C129.095 266.231 128.924 266.079 128.753 265.946L129 265.624C129.133 265.738 129.284 265.852 129.417 265.984C129.512 266.06 129.607 266.155 129.721 266.231C129.74 266.231 129.74 266.25 129.759 266.269C129.853 266.345 129.948 266.421 130.043 266.496C130.043 266.496 130.062 266.515 130.081 266.515L131.902 268.033L132.129 268.222L132.224 268.317L132.433 268.507L134.272 270.043L134.424 270.176L134.595 270.327L134.746 270.441L136.396 271.826L136.453 271.864L136.738 272.091L136.776 272.129L138.217 273.343L138.293 273.4L138.52 273.589L138.615 273.665L139.507 274.443Z" fill="#FFFFE1"/>
<path d="M141.536 271.181L141.479 271.238V271.257L141.251 271.541L140.531 270.839L140.417 270.726L140.227 270.555L140.095 270.403L138.957 269.322L138.691 269.057L138.653 269.038L138.369 268.734L137.136 267.558L136.833 267.274L136.7 267.141L136.377 266.819L134.974 265.491L134.671 265.188L134.348 264.884L134.026 264.562L132.528 263.121L132.224 262.836L131.598 262.229L131.56 262.191L131.845 261.831L131.94 261.926L132.509 262.476L132.812 262.76L134.367 264.259L134.69 264.581L134.974 264.846L135.277 265.131L136.719 266.534L137.041 266.838L137.136 266.914L137.42 267.198L138.691 268.431L138.938 268.677L139.033 268.753L139.241 268.962L140.417 270.081L140.512 270.176L140.739 270.403L140.815 270.46L141.536 271.162V271.181Z" fill="#FFFFE1"/>
<path d="M142.2 266.8L141.688 265.965L141.422 265.624L140.152 264.031L139.886 263.709L138.274 261.679L138.009 261.357L136.017 258.854L135.771 258.531L135.05 257.659L135.316 257.317L136.036 258.209L136.302 258.55L138.274 261.035L138.54 261.376L140.152 263.386L140.417 263.728L141.688 265.302L141.934 265.624L142.238 266.003L142.124 266.041L142.2 266.8Z" fill="#FFFFE1"/>
<path d="M141.744 259.176L141.099 258.417L140.853 258.076L138.919 255.63L138.653 255.307L137.743 254.15L138.008 253.809L138.937 255.004L139.203 255.326L141.118 257.754L141.384 258.095L141.649 258.398L141.706 258.531L141.744 259.176Z" fill="#FFFFE1"/>
<path d="M198.071 268.203L197.691 268.507C197.654 268.431 197.597 268.374 197.54 268.298C197.445 268.165 197.35 268.014 197.236 267.881C197.009 267.558 196.781 267.236 196.554 266.914C196.459 266.781 196.364 266.648 196.25 266.496C196.193 266.402 196.117 266.326 196.06 266.231C195.966 266.098 195.871 265.965 195.776 265.833C194.904 264.638 194.012 263.462 193.083 262.305C192.988 262.172 192.874 262.04 192.78 261.907C192.002 260.902 191.186 259.935 190.371 258.948C190.276 258.816 190.162 258.702 190.049 258.569C189.081 257.412 188.076 256.274 187.052 255.155C186.938 255.042 186.843 254.909 186.73 254.795C186.066 254.055 184.625 252.538 183.923 251.836L184.131 251.419C184.947 252.254 186.275 253.6 187.014 254.416C187.128 254.529 187.242 254.662 187.337 254.776C188.361 255.895 189.347 257.033 190.333 258.19C190.447 258.304 190.542 258.436 190.636 258.569C191.452 259.536 192.267 260.522 193.045 261.509C193.14 261.641 193.254 261.774 193.348 261.888C194.278 263.064 195.169 264.24 196.06 265.415C196.155 265.548 196.25 265.681 196.345 265.814C196.402 265.89 196.459 265.965 196.516 266.041C196.61 266.174 196.705 266.307 196.8 266.44C197.047 266.762 197.274 267.084 197.502 267.407C197.597 267.539 197.691 267.672 197.786 267.824C197.919 267.976 197.995 268.089 198.071 268.203Z" fill="#FFFFE1"/>
<path d="M195.473 270.252L195.131 270.536L195.055 270.441L194.752 270.081L194.031 269.246L193.728 268.886L193.311 268.412L193.007 268.052L190.428 264.998L190.124 264.657L187.754 261.869L187.45 261.509L184.625 258.19L184.321 257.848L183.923 257.336L183.98 256.692L184.606 257.45L184.909 257.81L187.716 261.129L188.019 261.471L190.39 264.278L190.693 264.619L193.311 267.691L193.595 268.033L193.974 268.488L194.297 268.848L195.017 269.683L195.321 270.043L195.473 270.252Z" fill="#FFFFE1"/>
<path d="M192.874 272.3L192.514 272.565L192.115 272.11L191.812 271.75L191.224 271.048L190.921 270.688L188.455 267.748L188.152 267.388L185.762 264.543L185.459 264.202L183.847 262.286L183.904 261.641L185.724 263.822L186.047 264.183L188.417 267.008L188.721 267.369L191.205 270.327L191.509 270.688L192.077 271.351L192.381 271.712L192.874 272.3Z" fill="#FFFFE1"/>
<path d="M190.579 274.101L190.219 274.386L190.124 274.272L189.384 273.343L189.1 272.982L186.767 270.062L186.483 269.702L184.131 266.762L183.543 266.022L183.6 265.359L184.112 266.003L184.416 266.383L186.767 269.322L187.052 269.683L189.384 272.622L189.669 272.982L190.39 273.874L190.579 274.101Z" fill="#FFFFE1"/>
<path d="M188.569 275.675L188.133 276.017L187.735 275.391L187.507 275.088L186.862 274.139L185.326 272.072L185.061 271.731L185.042 271.693L183.752 269.569L183.448 269.076V269.057L183.467 268.829V268.753L185.326 271.314L185.592 271.693L187.791 274.632L188.076 274.993L188.569 275.675Z" fill="#FFFFE1"/>
<path d="M196.762 265.34L195.605 266.553L195.454 266.686L195.188 266.933L195.036 267.065L192.609 269.303L192.457 269.417L192.192 269.664L192.04 269.796L189.897 271.731L189.802 271.826L189.499 272.129L189.385 272.205L187.507 273.931L187.45 273.969L187.09 274.31L187.033 274.348L187.014 274.367L186.862 274.139L186.711 273.912L186.806 273.836L186.862 273.779L187.242 273.457L187.28 273.4L189.157 271.712L189.252 271.617L189.574 271.332L189.669 271.238L191.793 269.303L191.945 269.17L192.211 268.924L192.343 268.791L194.79 266.572L194.942 266.44L195.207 266.193L195.359 266.06L196.516 265.017L196.762 265.34Z" fill="#FFFFE1"/>
<path d="M184.928 271.314L185.098 271.143L186.729 269.55L187.109 269.171L189.043 267.274L189.422 266.895L191.774 264.581L192.153 264.202L194.24 262.153C194.088 261.964 194.05 261.907 193.898 261.717L191.452 264.145L189.1 266.459L188.721 266.819L186.805 268.734L186.426 269.095L184.833 270.688L184.643 270.858L184.928 271.314Z" fill="#FFFFE1"/>
<path d="M190.864 257.943L188.778 260.314L188.417 260.731L186.179 263.272L185.819 263.69L184.055 265.7L183.695 266.117L183.543 266.345L183.562 265.434L183.676 265.302L185.421 263.31L185.781 262.893L188.038 260.352L188.398 259.935L190.522 257.507L190.769 257.81C190.788 257.848 190.826 257.886 190.864 257.943Z" fill="#FFFFE1"/>
<path d="M187.716 253.98L187.242 254.643L186.957 255.023L184.909 257.829L184.624 258.209L183.961 259.081L183.98 258.36L184.037 258.209L184.321 257.848L184.606 257.469L186.635 254.681L186.9 254.302L187.412 253.619C187.507 253.733 187.602 253.847 187.716 253.98Z" fill="#FFFFE1"/>
<path d="M154.261 250.262L156.594 242.544L159.04 242.278C159.04 242.278 158.68 245.161 162.549 245.616C166.399 246.071 166.797 242.013 166.797 242.013L169.206 242.866L172.278 250.585L162.852 246.697L154.261 250.262Z" fill="#8DBEF1"/>
<path d="M495.196 267.559C495.063 267.559 482.489 265.397 482.489 265.397L479.777 262.059L492.123 264.505L495.196 267.559Z" fill="#105A6B"/>
<path d="M480.801 262.533L483.077 265.207L494.418 267.16L491.991 264.676L480.801 262.533Z" fill="#FFFFE1"/>
<path d="M482.489 265.415L482.451 265.852L495.196 267.881V267.559L482.489 265.415Z" fill="#094859"/>
<path d="M479.777 262.078V262.533L482.451 265.852L482.489 265.415L479.777 262.078Z" fill="#094859"/>
<path d="M496.334 273.172L496.997 267.862L496.296 267.805L494.93 267.578L493.603 267.046C493.603 267.046 493.261 266.743 491.554 265.909C489.98 265.15 489.354 264.429 488.861 265.112C488.33 265.833 490.454 266.781 490.454 266.781C490.454 266.781 486.718 265.852 484.367 266.041C483.949 266.098 483.874 266.629 484.234 266.819C484.518 266.99 484.879 267.141 485.239 267.293C485.106 267.426 485.163 267.691 485.296 267.938C484.954 267.976 484.936 268.336 485.125 268.772C485.22 268.962 485.315 269.133 485.429 269.303C484.917 269.303 484.841 269.436 485.277 269.967C486.851 271.769 489.942 273.381 492.92 272.489C494.209 272.736 496.049 273.077 496.049 273.077L496.334 273.172Z" fill="#FFBD72"/>
<path d="M512.776 229.192L518.977 225.93L522.486 233.896L515.09 236.304L512.776 229.192Z" fill="#EA9255"/>
<path d="M506.669 224.185C507.731 229.097 509.628 231.866 514.9 230.918C518.693 230.235 521.386 226.158 520.324 221.265C519.262 216.353 515.355 213.034 511.581 213.85C507.826 214.665 505.607 219.293 506.669 224.185Z" fill="#FFB672"/>
<path d="M514.407 220.07C514.141 219.805 513.914 219.52 513.743 219.198C513.572 218.894 513.459 218.515 513.155 218.875C512.681 219.444 512.283 219.88 511.638 220.298C510.405 221.075 509.116 221.758 507.769 222.327C507.447 222.46 507.105 222.611 506.764 222.725C506.423 222.858 506.347 222.915 506.214 222.573C506.062 222.232 505.948 221.853 505.873 221.492C505.285 219.406 505.929 217.017 507.523 215.519C508.566 214.551 510.064 213.888 511.391 213.413C512.472 213.034 513.781 212.731 514.938 212.901C516.076 213.072 517.119 213.774 518.219 214.134C518.769 214.324 519.281 214.305 519.793 214.665C520.286 214.987 520.684 215.462 520.969 215.974C521.898 217.662 522.126 219.937 521.784 221.815C521.67 222.498 521.5 223.161 521.253 223.806C521.12 224.129 520.95 224.432 520.817 224.735C520.722 224.963 520.589 225.437 520.343 225.551C520.134 225.646 519.774 224.963 519.66 224.811C519.338 224.375 519.034 223.939 518.845 223.427C518.655 222.934 518.579 222.403 518.617 221.891C518.636 221.625 518.693 221.379 518.674 221.113C518.655 220.848 518.579 220.582 518.389 220.411C518.143 220.184 517.745 220.165 517.46 220.336C517.252 220.449 517.138 220.62 517.043 220.829C516.91 221.113 516.986 221.265 516.645 221.227C516.171 221.17 515.696 220.961 515.298 220.734C514.938 220.544 514.653 220.317 514.407 220.07Z" fill="#135564"/>
<path d="M515.431 411.56C515.469 411.275 515.735 410.251 517.631 410.119C519.357 409.986 523.472 409.379 525.691 407.407C526.241 406.724 526.602 406.155 527.133 405.377C528.384 405.377 534.377 404.998 534.377 404.998L534.529 407.369L534.719 409.948L534.756 411.977C534.775 412.698 534.32 413.305 533.751 413.305L530.717 413.324C530.508 413.324 530.338 413.172 530.319 412.963L530.262 412.394L526.298 412.963C525.596 413.21 524.857 413.343 524.117 413.343L516.209 413.362C515.791 413.362 515.45 413.02 515.45 412.622V411.636C515.431 411.636 515.431 411.617 515.431 411.56Z" fill="#003C4D"/>
<path d="M508.85 294.584C508.888 294.944 508.888 302.625 508.926 302.985C509.723 310.837 513.497 341.826 513.497 345.353C514.255 352.939 514.862 360.563 516.247 368.035C516.664 370.33 517.176 372.625 517.726 374.919C518.769 379.225 525.502 406.819 525.824 406.819C525.824 406.819 534.245 407.444 534.643 406.117C535.288 403.917 532.101 351.915 532.557 346.586C533.031 340.877 533.372 335.169 533.581 329.441C533.998 318.005 533.884 306.551 533.22 295.134L530.869 295.228L530.091 295.266L520.817 295.646L520.021 295.684L508.85 294.584Z" fill="#9775C7"/>
<path d="M530.205 411.427C530.243 411.143 530.489 410.119 532.234 409.986C533.827 409.853 537.639 409.246 539.669 407.274C540.181 406.591 540.503 406.022 540.996 405.245C542.153 405.245 547.691 404.865 547.691 404.865L547.824 407.236L547.994 409.815L548.032 411.844C548.051 412.565 547.615 413.172 547.103 413.172L544.296 413.191C544.106 413.191 543.955 413.039 543.936 412.831L543.879 412.262L540.219 412.831C539.574 413.077 538.891 413.21 538.189 413.21L530.888 413.229C530.508 413.229 530.186 412.887 530.186 412.489V411.503C530.186 411.522 530.186 411.484 530.205 411.427Z" fill="#00566C"/>
<path d="M522.334 294.28C522.372 294.641 522.41 296.765 522.448 297.125C523.245 304.976 527.398 341.712 527.398 345.22C528.157 352.806 528.764 360.43 530.148 367.902C530.565 370.197 531.077 372.492 531.627 374.787C532.67 379.092 539.403 406.686 539.725 406.686C539.725 406.686 548.146 407.312 548.544 405.984C549.189 403.784 546.003 351.782 546.458 346.453C546.932 340.744 547.273 335.036 547.482 329.309C547.899 317.873 547.786 306.418 547.122 295.001L544.77 295.096L543.993 295.134L534.719 295.513L533.922 295.551L522.334 294.28Z" fill="#AE93D8"/>
<path d="M508.642 294.28L513.079 296.196C513.743 296.613 513.629 297.372 513.231 298.244H547.615C547.672 298.225 547.71 298.206 547.766 298.206C547.823 297.94 547.88 296.461 547.918 294.394V294.28C547.994 289.729 547.899 282.313 547.046 277.913C545.794 271.503 544.789 265.055 543.101 258.74C540.484 248.935 536.046 238.751 527.341 232.89C526.583 232.378 523.965 230.008 523.15 230.577C522.979 230.691 522.809 230.823 522.638 230.937C522.429 231.032 522.202 231.108 521.974 231.203C521.822 231.259 521.69 231.316 521.538 231.373C520.514 231.772 519.376 232.151 518.238 232.359C518.067 232.397 517.897 232.416 517.745 232.435C516.91 232.549 516.095 232.568 515.298 232.416C514.54 233.08 513.838 234.332 513.155 236.02C513.079 236.19 513.023 236.38 512.947 236.57C512.264 238.428 511.619 240.761 511.031 243.378C510.974 243.644 510.917 243.89 510.861 244.137C510.216 247.076 509.628 250.338 509.116 253.714C509.059 254.093 509.002 254.473 508.945 254.833C506.954 267.938 508.793 291.587 508.642 294.28Z" fill="#4BBB5C"/>
<path d="M508.642 294.28L508.945 303.099H547.615L547.918 294.28H508.642Z" fill="#47B758"/>
<path d="M520.969 229.989C520.988 229.913 524.098 229.78 525.065 231.184C525.502 231.809 512.454 238.201 512.454 238.201L513.25 232.322C513.25 232.34 518.807 232.568 520.969 229.989Z" fill="white"/>
<path d="M540.227 303.105H543.944V294.305H540.227V303.105Z" fill="#3CAC4D"/>
<path d="M531.193 303.105H534.91V294.305H531.193V303.105Z" fill="#3CAC4D"/>
<path d="M522.158 303.105H525.875V294.305H522.158V303.105Z" fill="#3CAC4D"/>
<path d="M513.142 303.105H516.86V294.305H513.142V303.105Z" fill="#3CAC4D"/>
<path d="M495.101 267.483C505.285 267.805 514.009 267.521 524.25 266.705L516.019 244.592C515.981 244.497 515.943 244.402 515.905 244.307C514.9 241.33 516.797 238.011 520.116 236.911C523.434 235.811 526.924 237.309 527.929 240.306C527.948 240.344 527.948 240.363 527.948 240.401C531.457 249.94 534.188 259.65 536.198 269.55C537.089 272.717 535.42 276.055 532.329 277.212L527.171 277.705C517.328 277.136 506.385 274.879 494.115 272.945L495.101 267.483Z" fill="#3FAF50"/>
<path d="M494.095 272.945L499.311 275.524L500.449 266.686L495.101 267.483L494.095 272.945Z" fill="white"/>
<path d="M412.034 189.328L419.62 186.881L420.815 198.602L413.058 199.379L412.034 189.328Z" fill="#FE944B"/>
<path d="M421.023 184.397C421.479 188.778 419.127 192.609 415.77 192.969C412.413 193.329 409.303 190.067 408.848 185.686C408.393 181.306 410.744 177.475 414.101 177.114C417.458 176.773 420.568 180.016 421.023 184.397Z" fill="#FFBD72"/>
<path d="M423.546 250.528L423.242 243.947L413.191 242.563C397.469 249.011 384.004 252.064 369.704 255.497C365.096 256.862 361.701 260.826 361.056 265.586L348.862 328.057C349.639 328.284 353.717 329.896 353.717 329.896L377.119 272.565C387.702 272.186 398.133 271.086 408.393 269.284C417.477 267.71 423.963 259.707 423.546 250.528Z" fill="#FE944B"/>
<path d="M433.901 253.885L437.637 247.778L427.585 246.393C412.584 249.561 398.057 253.771 384.099 259.328C379.49 260.693 376.095 264.657 375.451 269.417L372.814 329.138C374.123 329.479 377.897 329.138 377.897 329.138L391.533 276.396C396.881 270.801 405.245 269.493 415.524 267.672C424.551 266.079 434.299 263.045 433.901 253.885Z" fill="#FFBD72"/>
<path d="M378.106 328.417C378.542 329.536 380.344 332.305 378.618 333.196C378.333 333.348 377.992 333.348 377.67 333.31C377.082 333.234 376.513 333.064 375.944 332.931C374.996 332.741 374.161 332.95 373.232 333.14C372.397 333.31 371.544 333.367 370.69 333.462C369.192 333.633 367.675 333.746 366.158 333.708C365.722 333.689 365.304 333.633 364.868 333.595C362.725 333.405 361.056 333.557 360.923 332.969C360.829 332.571 362.099 331.755 362.896 331.717C366.063 331.565 371.278 330.276 372.796 328.095C375.185 328.247 378.106 328.417 378.106 328.417Z" fill="#FFFF68"/>
<path d="M354.077 329.138C354.21 330.333 355.253 333.481 353.356 333.879C353.034 333.955 352.712 333.86 352.408 333.746C351.858 333.538 351.365 333.215 350.834 332.95C349.962 332.514 349.108 332.514 348.16 332.457C347.307 332.419 346.472 332.248 345.619 332.115C344.12 331.888 342.622 331.622 341.181 331.186C340.764 331.053 340.365 330.883 339.967 330.75C337.938 330.01 336.288 329.745 336.307 329.138C336.326 328.74 337.748 328.265 338.545 328.436C341.655 329.1 347.003 329.176 349.051 327.469C351.289 328.228 354.077 329.138 354.077 329.138Z" fill="#FFFF68"/>
<path d="M422.56 248.878C422.56 248.878 424.361 257.886 417.932 261.471C411.503 265.055 375.564 275.448 375.564 275.448L365.153 307.878L351.062 304.351C351.441 295.646 352.484 286.922 354.57 278.444C356.561 270.365 358.742 260.731 366.708 256.388C372.682 253.145 380.135 252.5 386.659 250.812C392.254 249.352 397.829 247.835 403.386 246.261C403.481 246.242 403.576 246.204 403.67 246.185L422.56 248.878Z" fill="#F47D7D"/>
<path d="M437.618 247.778C436.802 255.895 433.863 265.226 425.063 267.521C422.313 268.241 419.431 268.355 416.586 268.583C411.048 269.057 405.529 270.062 400.276 271.883C398.304 272.565 396.312 273.4 394.795 274.841C392.045 277.458 391.514 281.308 391.002 284.874C390.395 289.179 389.086 293.484 388.157 297.751C387.304 301.639 386.45 305.507 385.597 309.395H370.766C370.766 309.395 365.02 263.007 380.59 258.323C396.16 253.638 418.596 246.413 418.596 246.413L437.618 247.778Z" fill="#FF8E8D"/>
<path d="M354.286 233.308C355.67 232.852 358.591 232.549 360.146 232.397C358.723 232.511 356.182 232.644 354.93 232.416C354.513 232.34 354.418 231.809 354.798 231.601C357.035 230.653 361.397 229.97 361.397 229.97C361.397 229.97 357.642 229.591 357.927 228.718C358.192 227.884 360.051 228.301 361.853 228.547C363.806 228.813 365.589 229.192 365.589 229.192L366.48 229.249L366.461 229.211L390.262 226.879L401.565 202.224L412.944 207.876L401.11 229.723H401.091C400.124 233.497 396.578 236.247 392.462 235.963L370.292 234.483L369.401 234.578C369.401 234.578 368.035 234.616 366.67 234.806C364.015 236.645 359.728 237.859 357.491 237.461C356.96 237.366 356.922 236.93 357.434 236.74C358.723 236.304 360.62 235.83 361.492 235.621C360.335 235.868 357.282 236.437 355.31 235.773C354.76 235.583 354.854 235.147 355.423 235.052C357.548 234.711 360.582 234.199 360.582 234.199C360.582 234.199 356.239 234.37 354.304 234.085C353.906 234.028 353.849 233.44 354.286 233.308Z" fill="#FE944B"/>
<path d="M400.769 233.061C400.693 228.585 400.731 224.034 401.072 219.501C398.948 218.799 396.957 217.756 395.06 216.391C395.06 216.391 394.852 203.077 407.198 195.776C407.198 195.776 411.939 194.221 412.527 194.202C412.205 196.516 418.103 199.398 420.322 193.405C420.758 193.102 424.058 194.259 424.703 194.391C426.239 194.714 427.775 195.017 429.292 195.416C431.701 196.041 434.337 196.8 435.987 198.791C436.594 199.531 437.03 200.403 437.314 201.314C437.713 202.622 437.826 204.045 437.807 205.429C437.599 218.496 438.111 238.997 438.376 252.064C428.913 253.809 419.506 248.1 410.043 249.845C408.374 250.149 399.858 250.319 398.702 248.499C397.431 246.507 401.508 244.838 401.3 242.563C400.996 239.395 400.826 236.228 400.769 233.061Z" fill="#9775C7"/>
<path d="M410.384 181.419C410.65 182.178 409.758 184.112 409.436 184.814C408.962 185.838 409.076 187.204 409.569 188.38C408.715 187.735 408.298 186.502 408.013 185.516C407.615 184.169 407.672 182.823 407.9 181.457C408.108 180.244 408.507 179.049 409.303 178.1C410.422 176.792 412.186 176.166 413.893 176.052C415.543 175.938 417.287 176.261 418.634 177.228C419.942 178.176 420.777 179.675 421.175 181.249C421.706 183.316 421.763 185.668 421.08 187.697C421.061 187.754 421.042 187.83 421.005 187.886C420.815 186.407 419.753 185.042 418.672 184.169C416.813 182.614 411.048 183.316 410.384 181.419Z" fill="#FFFF68"/>
<path d="M395.061 224.508C394.928 224.508 382.354 222.346 382.354 222.346L379.642 219.008L391.988 221.455L395.061 224.508Z" fill="#105A6B"/>
<path d="M380.666 219.482L382.923 222.156L394.264 224.11L391.856 221.625L380.666 219.482Z" fill="#FFFFE1"/>
<path d="M382.354 222.365L382.316 222.801L395.061 224.83V224.508L382.354 222.365Z" fill="#094859"/>
<path d="M379.642 219.027V219.463L382.316 222.801L382.354 222.365L379.642 219.027Z" fill="#094859"/>
<path d="M430.847 198.222C427.358 197.786 424.21 199.967 423.811 203.096C423.792 203.191 423.792 203.286 423.792 203.381L421.612 226.499L396.122 224.773L394.757 224.546L393.429 224.015C393.429 224.015 393.088 223.711 391.381 222.877C389.807 222.118 389.181 221.398 388.688 222.08C388.157 222.801 390.281 223.749 390.281 223.749C390.281 223.749 386.545 222.82 384.194 223.01C383.776 223.067 383.7 223.598 384.061 223.787C384.345 223.958 384.706 224.11 385.066 224.261C384.933 224.394 384.99 224.66 385.123 224.906C384.781 224.944 384.762 225.304 384.952 225.741C385.047 225.93 385.142 226.101 385.256 226.272C384.743 226.272 384.668 226.404 385.104 226.935C386.678 228.737 389.769 230.349 392.747 229.458C394.036 229.704 395.876 230.046 395.876 230.046L397.052 230.273V230.311C397.621 230.406 398.247 230.52 398.247 230.52L422.446 235.83C427.054 236.835 431.549 233.82 432.403 229.249H432.422L436.385 205.012C436.404 204.917 436.423 204.803 436.442 204.708C436.84 201.56 434.337 198.659 430.847 198.222Z" fill="#FFBD72"/>
<path d="M434.659 221.606C434.659 221.606 444.426 196.971 430.203 196.516C415.979 196.06 422.104 219.179 422.104 219.179C426.087 221.492 430.278 222.346 434.659 221.606Z" fill="#9775C7"/>
<path d="M420.625 203.039C421.479 204.879 423.299 206.169 425.253 206.757C427.206 207.326 429.273 207.288 431.322 207.06C433.218 206.851 435.152 206.491 436.764 205.467C438.376 204.462 439.647 202.698 439.59 200.802C439.533 198.791 438.092 197.084 436.651 195.681C435.001 194.069 433.218 192.571 431.34 191.224C430.278 190.466 429.197 189.745 428.078 189.062C426.713 188.228 425.499 187.64 424.437 186.464C423.204 185.08 421.953 183.885 421.118 182.197C421.479 182.937 421.137 184.719 421.08 185.535C421.024 186.749 420.891 187.962 420.739 189.157C420.568 190.352 420.341 191.433 420.284 192.609C420.284 192.741 420.284 192.893 420.265 193.026C420.265 193.841 420.227 194.657 420.17 195.472C420.132 196.231 420.075 196.971 420.037 197.729C419.943 199.55 419.886 201.408 420.625 203.039Z" fill="#FFFF68"/>
</g>
<defs>
<linearGradient id="paint0_linear_64_10" x1="336.762" y1="109.965" x2="351.776" y2="109.965" gradientUnits="userSpaceOnUse">
<stop stop-color="#592E83"/>
<stop offset="1" stop-color="#7D83FF"/>
</linearGradient>
<linearGradient id="paint1_linear_64_10" x1="336.762" y1="167.651" x2="351.776" y2="167.651" gradientUnits="userSpaceOnUse">
<stop stop-color="#592E83"/>
<stop offset="1" stop-color="#7D83FF"/>
</linearGradient>
<linearGradient id="paint2_linear_64_10" x1="437.727" y1="-32.3326" x2="641.167" y2="-309.011" gradientUnits="userSpaceOnUse">
<stop stop-color="#592E83"/>
<stop offset="1" stop-color="#7D83FF"/>
</linearGradient>
<linearGradient id="paint3_linear_64_10" x1="82.2361" y1="442.868" x2="284.989" y2="167.124" gradientUnits="userSpaceOnUse">
<stop stop-color="#592E83"/>
<stop offset="1" stop-color="#7D83FF"/>
</linearGradient>
<linearGradient id="paint4_linear_64_10" x1="237.737" y1="43.9829" x2="283.457" y2="43.9829" gradientUnits="userSpaceOnUse">
<stop stop-color="#592E83"/>
<stop offset="1" stop-color="#7D83FF"/>
</linearGradient>
<linearGradient id="paint5_linear_64_10" x1="241.449" y1="380.973" x2="259.409" y2="380.973" gradientUnits="userSpaceOnUse">
<stop stop-color="#DFE1E5"/>
<stop offset="1" stop-color="white"/>
</linearGradient>
<linearGradient id="paint6_linear_64_10" x1="273.093" y1="38.8549" x2="263.234" y2="115.095" gradientUnits="userSpaceOnUse">
<stop stop-color="#DFE1E5"/>
<stop offset="1" stop-color="white"/>
</linearGradient>
<linearGradient id="paint7_linear_64_10" x1="292.597" y1="133.649" x2="184.465" y2="25.5174" gradientUnits="userSpaceOnUse">
<stop stop-color="#D1CEF2"/>
<stop offset="1" stop-color="#EDEBFC"/>
</linearGradient>
<linearGradient id="paint8_linear_64_10" x1="285.471" y1="141.388" x2="177.339" y2="33.2562" gradientUnits="userSpaceOnUse">
<stop stop-color="#D1CEF2"/>
<stop offset="1" stop-color="#EDEBFC"/>
</linearGradient>
<linearGradient id="paint9_linear_64_10" x1="292.597" y1="357.368" x2="184.465" y2="249.236" gradientUnits="userSpaceOnUse">
<stop stop-color="#D1CEF2"/>
<stop offset="1" stop-color="#EDEBFC"/>
</linearGradient>
<linearGradient id="paint10_linear_64_10" x1="285.471" y1="365.107" x2="177.339" y2="256.975" gradientUnits="userSpaceOnUse">
<stop stop-color="#D1CEF2"/>
<stop offset="1" stop-color="#EDEBFC"/>
</linearGradient>
<linearGradient id="paint11_linear_64_10" x1="278.346" y1="372.846" x2="170.214" y2="264.714" gradientUnits="userSpaceOnUse">
<stop stop-color="#D1CEF2"/>
<stop offset="1" stop-color="#EDEBFC"/>
</linearGradient>
<clipPath id="clip0_64_10">
<rect width="556.491" height="420.454" fill="white"/>
</clipPath>
</defs>
</svg>
