<svg width="42" height="42" viewBox="0 0 42 42" fill="none" xmlns="http://www.w3.org/2000/svg">
<path d="M21 42C32.598 42 42 32.598 42 21C42 9.40202 32.598 0 21 0C9.40202 0 0 9.40202 0 21C0 32.598 9.40202 42 21 42Z" fill="#4B0082"/>
<path d="M21.241 24.521C20.5563 24.5198 19.8918 24.2888 19.354 23.865L11 17.369V26.442C11 26.9512 11.2023 27.4396 11.5624 27.7996C11.9224 28.1597 12.4108 28.362 12.92 28.362H29.562C30.0712 28.362 30.5596 28.1597 30.9196 27.7996C31.2797 27.4396 31.482 26.9512 31.482 26.442V17.369L23.129 23.869C22.5895 24.29 21.9253 24.5194 21.241 24.521ZM11.652 16.252L20.141 22.852C20.4556 23.0964 20.8426 23.2291 21.241 23.2291C21.6394 23.2291 22.0264 23.0964 22.341 22.852L30.83 16.252C31.0264 16.0885 31.1858 15.8853 31.2978 15.6557C31.4099 15.4261 31.472 15.1754 31.48 14.92C31.48 14.4111 31.278 13.9231 30.9184 13.5631C30.5587 13.2031 30.0709 13.0005 29.562 13H12.92C12.4108 13 11.9224 13.2023 11.5624 13.5624C11.2023 13.9224 11 14.4108 11 14.92C11.0002 15.177 11.059 15.4306 11.172 15.6614C11.285 15.8922 11.4491 16.0942 11.652 16.252Z" fill="white"/>
</svg>
