<svg width="171" height="76" viewBox="0 0 171 76" fill="none" xmlns="http://www.w3.org/2000/svg">
<path d="M84.8073 55.6748C86.3599 55.6748 87.8832 55.6748 89.4358 55.6748C89.4065 62.3246 89.4651 69.0038 89.4065 75.6536C87.8832 75.6243 86.3599 75.6536 84.8366 75.6243C84.8366 74.8919 84.8366 74.1889 84.8659 73.4858C84.1628 74.3646 83.3133 75.1849 82.2294 75.5364C79.4757 76.4738 76.2826 75.1263 74.8179 72.6949C72.7087 69.2674 73.2653 64.1116 76.6049 61.6802C79.0363 59.8346 82.991 59.9518 84.8659 62.5297C84.778 60.2154 84.8073 57.9305 84.8073 55.6748ZM80.5303 64.5803C78.1868 65.3127 77.6302 68.4765 78.8312 70.3806C79.7394 71.8453 81.8486 72.2847 83.2547 71.318C84.8366 70.322 85.1295 68.1249 84.5436 66.4551C83.9578 64.9025 82.0829 63.9944 80.5303 64.5803Z" fill="white"/>
<path d="M128.632 55.6748C130.184 55.6748 131.708 55.6748 133.26 55.6748C133.26 57.9598 133.29 60.2154 133.26 62.5004C135.194 59.8932 139.236 59.8346 141.668 61.768C145.74 64.9318 145.505 72.2554 141.023 74.9212C138.533 76.4738 134.901 76.0637 133.26 73.4858C133.26 74.1889 133.26 74.9212 133.26 75.6243C131.708 75.6243 130.184 75.6243 128.632 75.6243C128.632 68.9745 128.632 62.3246 128.632 55.6748ZM135.604 64.551C133.202 65.2541 132.616 68.5058 133.875 70.4099C134.784 71.816 136.893 72.2554 138.27 71.2887C139.852 70.2927 140.115 68.0956 139.529 66.4551C139.002 64.9318 137.156 64.0237 135.604 64.551Z" fill="white"/>
<path d="M147.468 55.6748C149.021 55.6748 150.544 55.6748 152.097 55.6748C152.097 62.3246 152.097 68.9745 152.097 75.6536C150.544 75.6536 149.021 75.6536 147.497 75.6536C147.468 68.9745 147.468 62.3246 147.468 55.6748Z" fill="white"/>
<path d="M0.0292944 56.7C2.69509 56.7 5.39017 56.6707 8.05596 56.7C10.3116 56.7586 12.6845 57.7839 13.7977 59.8345C14.8816 61.768 14.5886 64.2873 13.2411 66.0156C12.5087 67.0117 11.3662 67.539 10.2237 67.9198C11.7764 70.4977 13.2997 73.0463 14.8523 75.6242C13.0653 75.6242 11.2491 75.6242 9.46209 75.6242C8.11455 73.3393 6.7963 71.0543 5.47806 68.74C5.36088 68.3592 5.00934 68.242 4.65781 68.1834C4.62852 70.6735 4.65781 73.1342 4.62852 75.6242C3.07591 75.6242 1.5526 75.6242 0 75.6242C0.0292944 69.3259 0.0292944 62.9983 0.0292944 56.7ZM4.65781 60.1861C4.65781 61.7094 4.65781 63.2034 4.65781 64.7267C5.88818 64.6974 7.14784 64.8732 8.34891 64.6095C10.2823 64.0236 10.2237 60.8598 8.31961 60.3032C7.11854 60.0689 5.85888 60.2447 4.65781 60.1861Z" fill="white"/>
<path d="M92.1016 56.7002C97.0817 56.7002 102.062 56.7002 107.042 56.7002C107.042 57.872 107.042 59.0437 107.042 60.2155C105.313 60.2155 103.585 60.2155 101.857 60.2155C101.857 65.3713 101.857 70.4979 101.857 75.6537C100.304 75.6537 98.7807 75.6537 97.2281 75.6537C97.2281 70.4979 97.2281 65.3713 97.2281 60.2155C95.4998 60.2155 93.8007 60.2155 92.0723 60.2155C92.0723 59.0145 92.0723 57.872 92.1016 56.7002Z" fill="white"/>
<path d="M19.7737 61.768C22.2051 59.8345 26.2478 59.8931 28.1812 62.5003C28.1812 61.8559 28.1812 61.2114 28.1812 60.5669C29.7338 60.5669 31.2571 60.5669 32.8097 60.5669C32.8097 65.5762 32.8097 70.6149 32.8097 75.6242C31.2571 75.6242 29.7338 75.6242 28.1812 75.6242C28.1812 74.8919 28.1812 74.1888 28.1812 73.4564C27.4488 74.3939 26.5114 75.2434 25.3396 75.5656C22.586 76.3859 19.4808 75.0091 18.0453 72.5483C16.0533 69.1795 16.5806 64.2287 19.7737 61.768ZM23.9921 64.5509C21.5021 65.254 20.9162 68.7108 22.3516 70.6149C23.3183 71.9038 25.3104 72.2261 26.6579 71.2887C28.2105 70.2927 28.4741 68.1249 27.9176 66.5137C27.361 64.9611 25.5447 64.0236 23.9921 64.5509Z" fill="white"/>
<path d="M36.7059 60.5669C38.2292 60.5669 39.7525 60.5669 41.3051 60.5669C41.3051 63.3206 41.3051 66.0742 41.3051 68.7986C41.3051 69.6774 41.5688 70.6149 42.2718 71.1715C43.2093 71.9038 44.5568 71.9331 45.6114 71.4644C46.6367 70.9957 47.0761 69.8239 47.0468 68.74C47.0761 66.0157 47.0468 63.262 47.0468 60.5376C48.5994 60.5376 50.1227 60.5376 51.6753 60.5376C51.6753 65.5469 51.6753 70.5856 51.6753 75.5949C50.1227 75.5949 48.5994 75.5949 47.0761 75.5949C47.0761 74.8919 47.0761 74.1595 47.0761 73.4564C45.2306 76.298 40.7192 76.5323 38.405 74.1302C37.1746 72.8705 36.6766 71.0543 36.7059 69.3259C36.7059 66.4258 36.7059 63.4963 36.7059 60.5669Z" fill="white"/>
<path d="M55.6887 60.5667C57.2413 60.5667 58.7646 60.5667 60.3172 60.5667C60.3172 61.2698 60.3172 62.0022 60.2879 62.7052C62.1627 59.8637 66.6741 59.6293 68.9883 62.0314C70.1601 63.2618 70.6874 65.0195 70.6581 66.6893C70.6581 69.648 70.6581 72.636 70.6581 75.5948C69.1348 75.5948 67.6115 75.5948 66.0589 75.5948C66.0003 72.636 66.1468 69.648 66.0003 66.6893C65.8245 64.4336 62.7486 63.6719 61.196 65.0488C60.4929 65.664 60.2879 66.66 60.3172 67.5681C60.3172 70.2339 60.3172 72.929 60.3172 75.5948C58.7646 75.5948 57.2413 75.5948 55.6887 75.5948C55.6887 70.6147 55.6887 65.6054 55.6887 60.5667Z" fill="white"/>
<path d="M111.524 61.7972C113.955 59.8345 118.027 59.8638 119.99 62.5003C119.961 61.8558 119.961 61.2113 119.961 60.5669C121.484 60.5669 123.037 60.5669 124.589 60.5669C124.589 65.5762 124.589 70.6149 124.589 75.6242C123.037 75.6242 121.513 75.6242 119.961 75.6242C119.961 74.8918 119.961 74.1888 119.99 73.4857C119.228 74.4231 118.32 75.2727 117.119 75.5949C114.336 76.3859 111.202 75.009 109.825 72.519C107.862 69.1501 108.36 64.258 111.524 61.7972ZM115.713 64.5509C113.34 65.254 112.754 68.4471 113.985 70.3805C114.893 71.8159 116.973 72.2553 118.379 71.3179C119.961 70.3219 120.254 68.1248 119.668 66.4843C119.111 64.9317 117.266 64.0236 115.713 64.5509Z" fill="white"/>
<path d="M156.198 63.7014C158.893 59.19 166.509 59.3365 169.146 63.8186C170.2 65.5469 170.376 67.6561 170.142 69.6188C166.656 69.6188 163.199 69.6188 159.713 69.6188C160.065 71.9624 163.463 72.6948 164.781 70.7613C166.451 70.732 168.091 70.7613 169.761 70.7613C169.146 72.8705 167.476 74.5989 165.396 75.3313C162.584 76.298 159.098 75.8293 157.018 73.5736C154.674 70.9664 154.44 66.7187 156.198 63.7014ZM161.236 64.6681C160.445 65.0782 160.035 65.8985 159.772 66.6894C161.676 66.7187 163.58 66.7187 165.484 66.6894C165.25 64.7853 162.877 63.76 161.236 64.6681Z" fill="white"/>
<path d="M82.4426 0.145783C85.2775 -0.301009 88.1739 0.315256 90.7622 1.50156C92.6726 2.41055 94.506 3.53523 96.0621 4.99886C93.9206 5.7846 92.2258 7.4177 90.9471 9.26649C90.0535 10.5606 89.3756 11.9935 88.8672 13.4725C87.1263 13.0565 85.2929 12.8562 83.5519 13.4109C82.6121 13.6728 81.7802 14.1812 80.9328 14.6434C79.3151 12.8408 78.0826 10.6531 77.4817 8.29587C77.112 6.4779 77.1274 4.41341 78.2058 2.82653C79.1302 1.33209 80.7633 0.453915 82.4426 0.145783Z" fill="#4B0082"/>
<path d="M68.6537 9.31268C70.8723 7.20198 73.5838 5.6305 76.4803 4.67529C76.0797 6.92466 76.5727 9.25105 77.5896 11.2847C78.252 12.7175 79.2073 13.9963 80.1779 15.2288C78.668 16.6462 77.5742 18.5412 77.3122 20.6211C77.2506 21.2836 77.266 21.9461 77.2814 22.624C75.6945 23.0091 74.046 23.0246 72.4129 22.9167C70.4255 22.7318 68.3918 22.1156 66.882 20.7598C65.4337 19.481 64.7559 17.432 65.0794 15.5369C65.4646 13.0873 66.9436 10.992 68.6537 9.31268Z" fill="#FF4F00"/>
<path d="M94.2441 7.01713C95.7231 5.86164 97.6952 5.21456 99.544 5.67676C101.316 6.09274 102.764 7.37148 103.735 8.86592C105.275 11.1923 105.922 13.9963 106.061 16.7541C106.123 18.5413 106.03 20.3438 105.645 22.0848C103.75 20.5595 101.331 19.8508 98.9277 19.7738C97.4795 19.6659 96.0621 19.9125 94.6293 20.0357C94.09 17.3396 92.1796 14.9669 89.6992 13.8114C90.5927 11.2385 92.0255 8.72726 94.2441 7.01713Z" fill="white"/>
<path d="M94.7833 21.0063C97.5719 20.4979 100.576 20.4825 103.211 21.6688C104.952 22.4391 106.431 23.9336 106.847 25.8286C107.386 28.1242 106.431 30.4814 105.106 32.3302C102.779 35.5193 99.2666 37.6917 95.569 38.9704C95.7231 37.5838 95.7077 36.151 95.3379 34.7952C94.6909 32.438 93.4121 30.2657 91.8098 28.4323C93.181 27.169 94.1978 25.5205 94.583 23.6871C94.7987 22.8243 94.7987 21.9153 94.7833 21.0063Z" fill="#0F9403"/>
<path d="M66.4814 21.7612C67.1131 22.0385 67.6677 22.4853 68.2994 22.7473C71.1188 24.0876 74.3696 24.0568 77.3893 23.5792C77.9439 26.2908 79.8235 28.6634 82.3348 29.8189C81.5028 32.2531 80.1779 34.5795 78.2058 36.2742C76.8809 37.4297 75.1245 38.2309 73.3373 38.1076C71.6426 37.9844 70.0711 37.0292 68.9927 35.735C67.3596 33.84 66.543 31.3749 66.1425 28.9407C65.8651 26.9533 65.8651 24.9042 66.127 22.9167C66.2041 22.5162 66.3427 22.1464 66.4814 21.7612Z" fill="#61081A"/>
<path d="M86.7411 30.5891C88.2971 30.4658 89.7916 29.8803 91.0703 29.0176C92.7959 30.9742 94.1362 33.316 94.6292 35.8889C94.8295 37.4758 94.7987 39.2013 93.9359 40.6188C92.9807 42.3289 91.0857 43.2995 89.1907 43.5768C86.6178 43.9158 83.9833 43.3457 81.6261 42.3289C79.5616 41.4045 77.5741 40.2182 75.941 38.6467C78.0672 37.9226 79.7465 36.3049 81.0098 34.4869C81.9034 33.162 82.6583 31.7137 83.1513 30.1885C84.3376 30.4658 85.5394 30.7123 86.7411 30.5891Z" fill="#068CD5"/>
</svg>
