<svg width="316" height="329" viewBox="0 0 316 329" fill="none" xmlns="http://www.w3.org/2000/svg">
<g opacity="0.1">
<path d="M131.158 1.0962C152.474 -2.2634 174.254 2.37053 193.716 11.2909C208.081 18.1259 221.867 26.5829 233.568 37.5885C217.465 43.4967 204.722 55.7767 195.106 69.6785C188.387 79.4097 183.29 90.1836 179.467 101.305C166.376 98.1772 152.59 96.6711 139.499 100.842C132.432 102.811 126.177 106.634 119.805 110.11C107.641 96.5553 98.373 80.1048 93.8549 62.38C91.0746 48.7099 91.1904 33.1862 99.2998 21.2538C106.251 10.0165 118.531 3.41317 131.158 1.0962Z" fill="white"/>
<path d="M27.4739 70.0257C44.156 54.1544 64.5453 42.3379 86.3249 35.1553C83.3128 52.0691 87.0199 69.5623 94.6659 84.8543C99.6474 95.6282 106.83 105.244 114.128 114.511C102.775 125.17 94.5501 139.419 92.5807 155.058C92.1173 160.04 92.2331 165.021 92.349 170.119C80.4166 173.015 68.0208 173.131 55.7409 172.32C40.7964 170.93 25.5044 166.296 14.1513 156.101C3.26154 146.486 -1.83579 131.078 0.597028 116.828C3.49324 98.4085 14.6147 82.6531 27.4739 70.0257Z" fill="white"/>
<path d="M219.898 52.7643C231.019 44.0757 245.848 39.2101 259.75 42.6855C273.072 45.8134 283.962 55.4289 291.26 66.6661C302.845 84.1593 307.711 105.244 308.754 125.981C309.217 139.419 308.522 152.973 305.626 166.064C291.376 154.595 273.188 149.266 255.116 148.687C244.226 147.876 233.568 149.729 222.794 150.656C218.739 130.383 204.374 112.542 185.723 103.853C192.442 84.5068 203.216 65.6235 219.898 52.7643Z" fill="white"/>
<path d="M223.953 157.954C244.922 154.131 267.512 154.016 287.322 162.936C300.413 168.728 311.534 179.966 314.662 194.215C318.717 211.476 311.534 229.201 301.571 243.103C284.078 267.084 257.665 283.418 229.861 293.034C231.02 282.607 230.904 271.833 228.124 261.639C223.258 243.914 213.642 227.579 201.594 213.793C211.905 204.294 219.551 191.898 222.447 178.112C224.069 171.625 224.069 164.789 223.953 157.954Z" fill="white"/>
<path d="M11.139 163.633C15.8888 165.718 20.0593 169.078 24.8091 171.047C46.0094 181.126 70.4534 180.894 93.1597 177.303C97.3302 197.692 111.464 215.533 130.347 224.222C124.091 242.526 114.128 260.019 99.2996 272.762C89.3367 281.451 76.13 287.475 62.6915 286.548C49.9482 285.621 38.1317 278.439 30.0223 268.707C17.7424 254.458 11.6024 235.922 8.59034 217.618C6.50506 202.674 6.50508 187.266 8.4745 172.321C9.05374 169.309 10.0964 166.529 11.139 163.633Z" fill="white"/>
<path d="M163.48 230.012C175.18 229.085 186.418 224.683 196.033 218.195C209.008 232.908 219.087 250.517 222.794 269.864C224.3 281.796 224.068 294.771 217.581 305.429C210.398 318.288 196.149 325.587 181.9 327.672C162.553 330.221 142.743 325.934 125.018 318.288C109.494 311.337 94.55 302.417 82.27 290.601C98.2571 285.156 110.885 272.992 120.384 259.321C127.103 249.359 132.78 238.469 136.487 227C145.407 229.085 154.444 230.939 163.48 230.012Z" fill="white"/>
</g>
</svg>
