<svg width="42" height="42" viewBox="0 0 42 42" fill="none" xmlns="http://www.w3.org/2000/svg">
<path d="M21 42C32.598 42 42 32.598 42 21C42 9.40202 32.598 0 21 0C9.40202 0 0 9.40202 0 21C0 32.598 9.40202 42 21 42Z" fill="#4B0082"/>
<path d="M24.7849 20.763C24.783 21.6575 24.7353 22.5514 24.6419 23.441H16.8819C16.777 22.5513 16.7183 21.6568 16.7059 20.761C16.7183 19.8652 16.777 18.9707 16.8819 18.081H24.6419C24.7354 18.972 24.7832 19.8672 24.7849 20.763ZM31.1469 18.083C31.5993 19.8414 31.5993 21.6856 31.1469 23.444H25.9909C26.0789 22.581 26.1249 21.644 26.1249 20.764C26.1256 19.869 26.0809 18.9745 25.9909 18.084L31.1469 18.083ZM30.7069 16.743H25.8189C25.5494 14.4761 24.7565 12.3029 23.5029 10.395C25.1135 10.8219 26.6027 11.6174 27.853 12.7188C29.1033 13.8201 30.0803 15.1972 30.7069 16.741V16.743ZM24.4619 16.743H17.0619C17.2762 15.3798 17.6574 14.0481 18.1969 12.778C18.5238 11.9761 18.9999 11.2435 19.5999 10.619C19.8977 10.282 20.3154 10.0746 20.7639 10.041C21.2124 10.0746 21.6301 10.282 21.9279 10.619C22.5268 11.2437 23.0019 11.9763 23.3279 12.778C23.867 14.0475 24.2478 15.3785 24.4619 16.741V16.743ZM10.8209 16.741C11.4474 15.1971 12.4244 13.82 13.6747 12.7186C14.925 11.6172 16.4143 10.8217 18.0249 10.395C16.7716 12.3023 15.9788 14.4748 15.7089 16.741H10.8209ZM15.5419 18.082C15.439 18.9718 15.3816 19.8663 15.3699 20.762C15.3699 21.646 15.4539 22.58 15.5419 23.442H10.3799C9.92935 21.6834 9.92935 19.8396 10.3799 18.081L15.5419 18.082ZM18.1969 28.741C17.6586 27.4718 17.2788 26.1411 17.0659 24.779H24.4659C24.2521 26.1413 23.8712 27.4719 23.3319 28.741C23.0067 29.5437 22.5316 30.2771 21.9319 30.902C21.7799 31.0727 21.5956 31.2117 21.3897 31.3109C21.1837 31.4101 20.9602 31.4676 20.7319 31.48C20.2968 31.4363 19.8943 31.2298 19.6049 30.902C19.0053 30.2771 18.5301 29.5437 18.2049 28.741H18.1969ZM18.0249 31.128C16.4148 30.7002 14.9262 29.9039 13.6767 28.8021C12.4271 27.7002 11.4508 26.3229 10.8249 24.779H15.7089C15.9785 27.0462 16.7714 29.2197 18.0249 31.128ZM23.5029 31.128C24.7565 29.2197 25.5493 27.0462 25.8189 24.779H30.7069C30.0808 26.3228 29.1045 27.7 27.855 28.8018C26.6054 29.9037 25.1169 30.7 23.5069 31.128H23.5029Z" fill="white"/>
</svg>
