<svg width="586" height="396" viewBox="0 0 586 396" fill="none" xmlns="http://www.w3.org/2000/svg">
<g clip-path="url(#clip0_43_3265)">
<path d="M132.82 125.629C132.82 125.629 152.898 126.064 150.195 121.189C147.468 116.314 128.139 117.183 128.139 117.183C128.139 117.183 129.732 109.485 123.699 106.903C117.666 104.321 111.488 106.155 111.488 106.155C111.488 106.155 119.258 85.3536 102.68 83.9298C86.0775 82.4819 88.1287 100.991 88.1287 100.991C88.1287 100.991 85.1605 92.5931 76.9557 97.6848C68.7509 102.777 74.9045 112.936 74.9045 112.936C74.9045 112.936 70.1264 106.879 63.3213 110.547C56.4921 114.215 57.8435 119.958 57.8435 119.958C57.8435 119.958 37.8866 121.72 43.7264 124.495C49.5422 127.246 132.82 125.629 132.82 125.629Z" fill="#D6E7EE"/>
<path d="M467.767 29.6578C467.767 29.6578 406.932 31.8296 404.301 29.1028C401.671 26.3759 400.923 18.9192 415.595 20.1982C415.595 20.1982 402.226 3.47496 422.762 0.386113C443.298 -2.70273 440.837 12.9104 440.837 12.9104C440.837 12.9104 461.179 1.83401 455.702 19.8121C455.702 19.8121 460.793 16.1682 462.29 22.5389C462.314 22.5631 493.95 28.3788 467.767 29.6578Z" fill="#D6E7EE"/>
<path d="M292.717 396.024C454.38 396.024 585.433 381.19 585.433 362.891C585.433 344.593 454.38 329.759 292.717 329.759C131.054 329.759 -6.10352e-05 344.593 -6.10352e-05 362.891C-6.10352e-05 381.19 131.054 396.024 292.717 396.024Z" fill="#D6E7EE"/>
<path d="M188.323 377.612C220.336 377.612 246.287 373.938 246.287 369.407C246.287 364.876 220.336 361.202 188.323 361.202C156.31 361.202 130.359 364.876 130.359 369.407C130.359 373.938 156.31 377.612 188.323 377.612Z" fill="#B4D2DB"/>
<path d="M427.057 374.885C459.23 374.885 485.311 371.428 485.311 367.163C485.311 362.898 459.23 359.441 427.057 359.441C394.885 359.441 368.804 362.898 368.804 367.163C368.804 371.428 394.885 374.885 427.057 374.885Z" fill="#B4D2DB"/>
<path d="M359.103 354.397C378.534 354.397 394.287 349.06 394.287 342.476C394.287 335.892 378.534 330.555 359.103 330.555C339.671 330.555 323.919 335.892 323.919 342.476C323.919 349.06 339.671 354.397 359.103 354.397Z" fill="#B4D2DB"/>
<path d="M325.222 339.049C325.222 345.613 339.411 350.946 356.931 350.946C374.45 350.946 388.64 345.613 388.64 339.049V333.161C388.64 326.597 374.45 321.264 356.931 321.264C339.411 321.264 325.222 326.597 325.222 333.161V339.049Z" fill="#B48AD2"/>
<path d="M356.955 351.284C341.004 351.284 327.683 346.94 325.294 340.956C325.222 340.787 325.318 340.618 325.463 340.546C325.632 340.473 325.801 340.57 325.873 340.714C328.142 346.385 341.487 350.633 356.931 350.633C368.152 350.633 378.601 348.364 384.224 344.744C384.368 344.648 384.561 344.696 384.658 344.841C384.755 344.986 384.706 345.179 384.561 345.275C378.866 348.992 368.273 351.284 356.955 351.284Z" fill="#4B0082"/>
<path d="M356.955 345.058C374.467 345.058 388.664 339.732 388.664 333.161C388.664 326.591 374.467 321.264 356.955 321.264C339.443 321.264 325.246 326.591 325.246 333.161C325.246 339.732 339.443 345.058 356.955 345.058Z" fill="#CAB1DC"/>
<path d="M356.955 323.46C342.38 323.46 330.579 327.49 330.579 332.461C330.579 337.433 342.38 341.463 356.955 341.463C363.519 341.463 369.528 340.642 374.137 339.291C379.759 337.65 383.331 335.188 383.331 332.461C383.331 327.49 371.506 323.46 356.955 323.46Z" fill="#B48AD2"/>
<path d="M374.113 339.629C373.968 339.629 373.847 339.532 373.799 339.411C373.751 339.242 373.847 339.074 374.016 339.025C379.711 337.36 382.993 334.971 382.993 332.486C382.993 330.265 380.266 328.045 375.488 326.404C370.541 324.715 363.953 323.774 356.931 323.774C349.909 323.774 343.321 324.715 338.374 326.404C333.596 328.045 330.869 330.241 330.869 332.486C330.869 333.789 331.762 335.044 333.499 336.25C333.644 336.347 333.668 336.54 333.571 336.684C333.475 336.829 333.282 336.853 333.137 336.757C331.207 335.43 330.241 334.006 330.241 332.486C330.241 329.928 333.065 327.563 338.181 325.825C343.2 324.112 349.86 323.171 356.931 323.171C364.001 323.171 370.662 324.112 375.681 325.825C380.797 327.563 383.62 329.952 383.62 332.486C383.62 335.261 380.194 337.867 374.185 339.629C374.185 339.629 374.161 339.629 374.113 339.629Z" fill="#4B0082"/>
<path d="M386.854 342.114C386.685 342.114 386.54 341.969 386.54 341.8V338.422C386.54 338.253 386.685 338.108 386.854 338.108C387.023 338.108 387.168 338.253 387.168 338.422V341.8C387.168 341.969 387.047 342.114 386.854 342.114Z" fill="#4B0082"/>
<path d="M381.062 346.023C380.894 346.023 380.749 345.879 380.749 345.71V342.331C380.749 342.162 380.894 342.018 381.062 342.018C381.231 342.018 381.376 342.162 381.376 342.331V345.71C381.376 345.879 381.231 346.023 381.062 346.023Z" fill="#4B0082"/>
<path d="M377.708 347.495C377.539 347.495 377.395 347.351 377.395 347.182V343.803C377.395 343.634 377.539 343.49 377.708 343.49C377.877 343.49 378.022 343.634 378.022 343.803V347.182C378.022 347.351 377.877 347.495 377.708 347.495Z" fill="#4B0082"/>
<path d="M354.735 350.222C354.566 350.222 354.421 350.078 354.421 349.909V346.53C354.421 346.361 354.566 346.216 354.735 346.216C354.904 346.216 355.049 346.361 355.049 346.53V349.909C355.049 350.078 354.904 350.222 354.735 350.222Z" fill="#4B0082"/>
<path d="M349.667 349.595C349.498 349.595 349.354 349.45 349.354 349.281V345.903C349.354 345.734 349.498 345.589 349.667 345.589C349.836 345.589 349.981 345.734 349.981 345.903V349.281C349.981 349.45 349.86 349.595 349.667 349.595Z" fill="#4B0082"/>
<path d="M340.401 348.34C340.232 348.34 340.087 348.195 340.087 348.026V344.648C340.087 344.479 340.232 344.334 340.401 344.334C340.57 344.334 340.714 344.479 340.714 344.648V348.026C340.714 348.195 340.57 348.34 340.401 348.34Z" fill="#4B0082"/>
<path d="M330.507 344.117C330.338 344.117 330.193 343.972 330.193 343.803V340.425C330.193 340.256 330.338 340.111 330.507 340.111C330.676 340.111 330.82 340.256 330.82 340.425V343.803C330.82 343.972 330.676 344.117 330.507 344.117Z" fill="#4B0082"/>
<path d="M328.817 343.707C328.649 343.707 328.504 343.562 328.504 343.393V340.015C328.504 339.846 328.649 339.701 328.817 339.701C328.986 339.701 329.131 339.846 329.131 340.015V343.393C329.131 343.562 328.986 343.707 328.817 343.707Z" fill="#4B0082"/>
<path d="M377.877 332.775L376.719 331.689L372.182 332.003C371.772 331.641 371.313 331.279 370.831 330.917L375.078 330.627L373.582 329.373L369.093 329.686C367.235 328.48 365.546 327.611 365.546 327.611C364.122 327.659 361.492 327.732 361.492 327.732C362.964 328.552 364.267 329.3 365.329 329.952L354.397 330.748C349.643 328.962 344.624 327.346 341.487 328.311C339.315 328.962 339.194 330.314 339.942 331.81L335.743 332.124L336.902 333.21L340.666 332.968C340.932 333.354 341.245 333.716 341.583 334.078L338.543 334.271L340.039 335.526L342.814 335.333C344.262 336.709 345.661 337.722 345.661 337.722L349.716 337.601C348.461 336.684 347.423 335.84 346.603 335.044L356.183 334.344C362.288 336.588 368.78 338.374 372.834 336.564C374.644 335.743 374.402 334.464 373.268 333.113L377.877 332.775ZM367.163 331.182C367.718 331.593 368.152 331.955 368.49 332.268L359.803 332.848C358.982 332.534 358.089 332.196 357.196 331.858L367.163 331.182ZM347.978 331.231L344.214 331.496C344.286 330.7 345.517 330.531 347.978 331.231ZM345.396 333.813C345.034 333.403 344.769 333.041 344.551 332.703L350.826 332.293C351.646 332.63 352.491 332.968 353.335 333.306L345.396 333.813ZM365.474 334.344C364.798 334.368 363.881 334.175 362.819 333.861L369.021 333.403C368.828 333.982 367.718 334.295 365.474 334.344Z" fill="#4B0082"/>
<path d="M503.868 372.713C542.118 372.713 573.126 366.944 573.126 359.827C573.126 352.71 542.118 346.94 503.868 346.94C465.618 346.94 434.61 352.71 434.61 359.827C434.61 366.944 465.618 372.713 503.868 372.713Z" fill="#B4D2DB"/>
<path d="M517.406 354.518C517.406 361.082 503.217 366.415 485.697 366.415C468.178 366.415 453.988 361.082 453.988 354.518V348.63C453.988 342.066 468.178 336.733 485.697 336.733C503.217 336.733 517.406 342.066 517.406 348.63V354.518Z" fill="#B48AD2"/>
<path d="M485.697 366.752C501.648 366.752 514.969 362.409 517.358 356.424C517.43 356.255 517.334 356.086 517.189 356.014C517.02 355.942 516.851 356.038 516.779 356.183C514.51 361.854 501.165 366.101 485.721 366.101C474.5 366.101 464.051 363.833 458.428 360.213C458.284 360.116 458.09 360.165 457.994 360.309C457.897 360.454 457.946 360.647 458.09 360.744C463.786 364.46 474.355 366.752 485.697 366.752Z" fill="#4B0082"/>
<path d="M485.697 360.527C503.209 360.527 517.406 355.2 517.406 348.63C517.406 342.059 503.209 336.733 485.697 336.733C468.185 336.733 453.988 342.059 453.988 348.63C453.988 355.2 468.185 360.527 485.697 360.527Z" fill="#CAB1DC"/>
<path d="M485.697 338.929C500.273 338.929 512.073 342.959 512.073 347.93C512.073 352.901 500.273 356.931 485.697 356.931C479.133 356.931 473.125 356.11 468.515 354.759C462.893 353.118 459.321 350.657 459.321 347.93C459.321 342.959 471.122 338.929 485.697 338.929Z" fill="#B48AD2"/>
<path d="M468.515 355.097C468.66 355.097 468.781 355 468.829 354.88C468.877 354.711 468.781 354.542 468.612 354.494C462.917 352.829 459.635 350.44 459.635 347.954C459.635 345.734 462.362 343.514 467.14 341.873C472.087 340.184 478.675 339.242 485.697 339.242C492.719 339.242 499.307 340.184 504.254 341.873C509.032 343.514 511.759 345.71 511.759 347.954C511.759 349.257 510.866 350.512 509.129 351.718C508.984 351.815 508.96 352.008 509.057 352.153C509.153 352.298 509.346 352.322 509.491 352.225C511.421 350.898 512.387 349.474 512.387 347.954C512.387 345.396 509.563 343.031 504.447 341.294C499.428 339.58 492.768 338.639 485.697 338.639C478.627 338.639 471.966 339.58 466.947 341.294C461.831 343.031 459.008 345.42 459.008 347.954C459.008 350.729 462.434 353.335 468.443 355.097C468.467 355.097 468.491 355.097 468.515 355.097Z" fill="#4B0082"/>
<path d="M455.774 357.582C455.943 357.582 456.088 357.438 456.088 357.269V353.89C456.088 353.721 455.943 353.577 455.774 353.577C455.605 353.577 455.46 353.721 455.46 353.89V357.269C455.46 357.438 455.605 357.582 455.774 357.582Z" fill="#4B0082"/>
<path d="M461.566 361.492C461.734 361.492 461.879 361.347 461.879 361.178V357.8C461.879 357.631 461.734 357.486 461.566 357.486C461.397 357.486 461.252 357.631 461.252 357.8V361.178C461.252 361.347 461.397 361.492 461.566 361.492Z" fill="#4B0082"/>
<path d="M464.944 362.964C465.113 362.964 465.258 362.819 465.258 362.65V359.272C465.258 359.103 465.113 358.958 464.944 358.958C464.775 358.958 464.63 359.103 464.63 359.272V362.65C464.63 362.819 464.775 362.964 464.944 362.964Z" fill="#4B0082"/>
<path d="M487.917 365.691C488.086 365.691 488.231 365.546 488.231 365.377V361.999C488.231 361.83 488.086 361.685 487.917 361.685C487.748 361.685 487.604 361.83 487.604 361.999V365.377C487.604 365.546 487.748 365.691 487.917 365.691Z" fill="#4B0082"/>
<path d="M492.961 365.063C493.13 365.063 493.275 364.918 493.275 364.75V361.371C493.275 361.202 493.13 361.057 492.961 361.057C492.792 361.057 492.647 361.202 492.647 361.371V364.75C492.647 364.918 492.792 365.063 492.961 365.063Z" fill="#4B0082"/>
<path d="M502.251 363.808C502.42 363.808 502.565 363.664 502.565 363.495V360.116C502.565 359.947 502.42 359.803 502.251 359.803C502.082 359.803 501.938 359.947 501.938 360.116V363.495C501.914 363.664 502.058 363.808 502.251 363.808Z" fill="#4B0082"/>
<path d="M512.145 359.585C512.314 359.585 512.459 359.441 512.459 359.272V355.893C512.459 355.724 512.314 355.58 512.145 355.58C511.976 355.58 511.832 355.724 511.832 355.893V359.272C511.832 359.441 511.976 359.585 512.145 359.585Z" fill="#4B0082"/>
<path d="M513.835 359.175C514.004 359.175 514.148 359.03 514.148 358.861V355.483C514.148 355.314 514.004 355.169 513.835 355.169C513.666 355.169 513.521 355.314 513.521 355.483V358.861C513.521 359.03 513.666 359.175 513.835 359.175Z" fill="#4B0082"/>
<path d="M469.36 348.581C468.226 349.933 467.984 351.212 469.794 352.032C473.848 353.842 480.34 352.08 486.445 349.812L496.025 350.512C495.181 351.284 494.143 352.153 492.912 353.07L496.967 353.191C496.967 353.191 498.366 352.177 499.814 350.801L502.589 350.995L504.085 349.74L501.045 349.547C501.383 349.185 501.696 348.799 501.962 348.437L505.726 348.678L506.885 347.592L502.686 347.278C503.434 345.782 503.313 344.431 501.141 343.779C498.004 342.838 492.985 344.431 488.231 346.216L477.299 345.42C478.385 344.744 479.664 344.02 481.136 343.2C481.136 343.2 478.506 343.128 477.082 343.079C477.082 343.079 475.417 343.948 473.535 345.155L469.046 344.841L467.55 346.096L471.797 346.385C471.315 346.747 470.88 347.109 470.446 347.471L465.909 347.158L464.751 348.244L469.36 348.581ZM485.456 347.302C484.563 347.664 483.67 348.002 482.85 348.292L474.162 347.713C474.476 347.399 474.91 347.037 475.489 346.627L485.456 347.302ZM498.439 346.989L494.674 346.723C497.135 345.999 498.342 346.168 498.439 346.989ZM489.269 348.75C490.137 348.412 490.982 348.075 491.778 347.737L498.052 348.147C497.859 348.485 497.57 348.847 497.208 349.257L489.269 348.75ZM473.607 348.895L479.809 349.354C478.747 349.667 477.83 349.86 477.155 349.836C474.934 349.764 473.8 349.45 473.607 348.895Z" fill="#4B0082"/>
<path d="M527.204 339.846C527.204 346.41 513.014 351.743 495.495 351.743C477.975 351.743 463.786 346.41 463.786 339.846V333.958C463.786 327.394 477.975 322.061 495.495 322.061C513.014 322.061 527.204 327.394 527.204 333.958V339.846Z" fill="#B48AD2"/>
<path d="M495.495 352.056C511.446 352.056 524.766 347.713 527.155 341.728C527.228 341.559 527.131 341.39 526.986 341.318C526.817 341.245 526.648 341.342 526.576 341.487C524.308 347.158 510.963 351.405 495.519 351.405C484.297 351.405 473.848 349.136 468.226 345.517C468.081 345.42 467.888 345.468 467.791 345.613C467.695 345.758 467.743 345.951 467.888 346.048C473.583 349.764 484.153 352.056 495.495 352.056Z" fill="#4B0082"/>
<path d="M495.495 345.83C513.007 345.83 527.204 340.504 527.204 333.933C527.204 327.363 513.007 322.037 495.495 322.037C477.982 322.037 463.786 327.363 463.786 333.933C463.786 340.504 477.982 345.83 495.495 345.83Z" fill="#CAB1DC"/>
<path d="M495.495 324.257C510.07 324.257 521.87 328.287 521.87 333.258C521.87 338.229 510.07 342.259 495.495 342.259C488.931 342.259 482.922 341.438 478.313 340.087C472.69 338.446 469.119 335.985 469.119 333.258C469.119 328.287 480.919 324.257 495.495 324.257Z" fill="#B48AD2"/>
<path d="M478.313 340.401C478.458 340.401 478.578 340.304 478.627 340.184C478.675 340.015 478.578 339.846 478.409 339.797C472.714 338.132 469.432 335.743 469.432 333.258C469.432 331.038 472.159 328.818 476.937 327.177C481.884 325.487 488.472 324.546 495.495 324.546C502.517 324.546 509.105 325.487 514.052 327.177C518.83 328.818 521.557 331.014 521.557 333.258C521.557 334.561 520.664 335.816 518.926 337.022C518.782 337.119 518.757 337.312 518.854 337.457C518.95 337.602 519.143 337.626 519.288 337.529C521.219 336.202 522.184 334.778 522.184 333.258C522.184 330.7 519.361 328.335 514.245 326.597C509.225 324.884 502.565 323.943 495.495 323.943C488.424 323.943 481.764 324.884 476.744 326.597C471.628 328.335 468.805 330.724 468.805 333.258C468.805 336.033 472.232 338.639 478.24 340.401C478.265 340.401 478.289 340.401 478.313 340.401Z" fill="#4B0082"/>
<path d="M465.571 342.886C465.74 342.886 465.885 342.742 465.885 342.573V339.194C465.885 339.025 465.74 338.88 465.571 338.88C465.402 338.88 465.258 339.025 465.258 339.194V342.573C465.258 342.742 465.402 342.886 465.571 342.886Z" fill="#4B0082"/>
<path d="M471.363 346.796C471.532 346.796 471.677 346.651 471.677 346.482V343.104C471.677 342.935 471.532 342.79 471.363 342.79C471.194 342.79 471.049 342.935 471.049 343.104V346.482C471.049 346.651 471.194 346.796 471.363 346.796Z" fill="#4B0082"/>
<path d="M474.741 348.268C474.91 348.268 475.055 348.123 475.055 347.954V344.576C475.055 344.407 474.91 344.262 474.741 344.262C474.572 344.262 474.428 344.407 474.428 344.576V347.954C474.428 348.123 474.572 348.268 474.741 348.268Z" fill="#4B0082"/>
<path d="M497.715 350.995C497.884 350.995 498.028 350.85 498.028 350.681V347.302C498.028 347.134 497.884 346.989 497.715 346.989C497.546 346.989 497.401 347.134 497.401 347.302V350.681C497.401 350.874 497.546 350.995 497.715 350.995Z" fill="#4B0082"/>
<path d="M502.758 350.367C502.927 350.367 503.072 350.222 503.072 350.053V346.675C503.072 346.506 502.927 346.361 502.758 346.361C502.589 346.361 502.444 346.506 502.444 346.675V350.053C502.444 350.222 502.589 350.367 502.758 350.367Z" fill="#4B0082"/>
<path d="M512.049 349.112C512.218 349.112 512.362 348.967 512.362 348.799V345.42C512.362 345.251 512.218 345.106 512.049 345.106C511.88 345.106 511.735 345.251 511.735 345.42V348.799C511.711 348.967 511.856 349.112 512.049 349.112Z" fill="#4B0082"/>
<path d="M521.943 344.889C522.112 344.889 522.257 344.744 522.257 344.576V341.197C522.257 341.028 522.112 340.883 521.943 340.883C521.774 340.883 521.629 341.028 521.629 341.197V344.576C521.629 344.744 521.774 344.889 521.943 344.889Z" fill="#4B0082"/>
<path d="M523.632 344.479C523.801 344.479 523.946 344.334 523.946 344.165V340.787C523.946 340.618 523.801 340.473 523.632 340.473C523.463 340.473 523.318 340.618 523.318 340.787V344.165C523.318 344.334 523.463 344.479 523.632 344.479Z" fill="#4B0082"/>
<path d="M479.157 333.885C478.023 335.237 477.782 336.516 479.592 337.336C483.646 339.146 490.137 337.384 496.243 335.116L505.823 335.816C504.978 336.588 503.941 337.457 502.71 338.374L506.764 338.494C506.764 338.494 508.164 337.481 509.612 336.105L512.387 336.298L513.883 335.044L510.842 334.85C511.18 334.489 511.494 334.102 511.759 333.74L515.524 333.982L516.682 332.896L512.483 332.582C513.231 331.086 513.111 329.735 510.939 329.083C507.802 328.142 502.782 329.735 498.028 331.52L487.097 330.724C488.183 330.048 489.462 329.324 490.934 328.504C490.934 328.504 488.303 328.432 486.88 328.383C486.88 328.383 485.215 329.252 483.332 330.459L478.844 330.145L477.348 331.4L481.595 331.689C481.112 332.051 480.678 332.413 480.243 332.775L475.707 332.461L474.548 333.547L479.157 333.885ZM495.253 332.63C494.36 332.992 493.468 333.33 492.647 333.62L483.96 333.041C484.273 332.727 484.708 332.365 485.287 331.955L495.253 332.63ZM508.236 332.293L504.472 332.027C506.933 331.303 508.14 331.472 508.236 332.293ZM499.066 334.054C499.935 333.716 500.779 333.378 501.576 333.041L507.85 333.451C507.657 333.789 507.367 334.151 507.005 334.561L499.066 334.054ZM483.405 334.199L489.606 334.657C488.545 334.971 487.628 335.164 486.952 335.14C484.732 335.068 483.598 334.754 483.405 334.199Z" fill="#4B0082"/>
<path d="M517.599 331.207C517.599 337.77 503.41 343.104 485.89 343.104C468.371 343.104 454.181 337.77 454.181 331.207V325.294C454.181 318.731 468.371 313.397 485.89 313.397C503.41 313.397 517.599 318.731 517.599 325.294V331.207Z" fill="#B48AD2"/>
<path d="M485.89 343.417C501.841 343.417 515.162 339.074 517.551 333.089C517.623 332.92 517.527 332.751 517.382 332.679C517.213 332.606 517.044 332.703 516.972 332.848C514.703 338.518 501.358 342.766 485.914 342.766C474.693 342.766 464.244 340.497 458.621 336.878C458.477 336.781 458.283 336.829 458.187 336.974C458.09 337.119 458.139 337.312 458.283 337.408C463.979 341.125 474.572 343.417 485.89 343.417Z" fill="#4B0082"/>
<path d="M485.89 337.191C503.402 337.191 517.599 331.865 517.599 325.294C517.599 318.724 503.402 313.397 485.89 313.397C468.378 313.397 454.181 318.724 454.181 325.294C454.181 331.865 468.378 337.191 485.89 337.191Z" fill="#CAB1DC"/>
<path d="M485.89 315.593C500.466 315.593 512.266 319.623 512.266 324.595C512.266 329.566 500.466 333.596 485.89 333.596C479.326 333.596 473.318 332.775 468.708 331.424C463.086 329.783 459.514 327.321 459.514 324.595C459.514 319.623 471.339 315.593 485.89 315.593Z" fill="#B48AD2"/>
<path d="M468.708 331.762C468.853 331.762 468.974 331.665 469.022 331.544C469.07 331.376 468.974 331.207 468.805 331.158C463.11 329.493 459.828 327.104 459.828 324.619C459.828 322.399 462.555 320.178 467.333 318.537C472.28 316.848 478.868 315.907 485.89 315.907C492.912 315.907 499.5 316.848 504.447 318.537C509.225 320.178 511.952 322.374 511.952 324.619C511.952 325.922 511.059 327.177 509.322 328.383C509.177 328.48 509.153 328.673 509.25 328.818C509.346 328.962 509.539 328.986 509.684 328.89C511.614 327.563 512.58 326.139 512.58 324.619C512.58 322.061 509.756 319.696 504.64 317.958C499.621 316.245 492.961 315.304 485.89 315.304C478.82 315.304 472.159 316.245 467.14 317.958C462.024 319.696 459.201 322.085 459.201 324.619C459.201 327.394 462.627 330 468.636 331.762C468.66 331.762 468.684 331.762 468.708 331.762Z" fill="#4B0082"/>
<path d="M455.991 334.247C456.16 334.247 456.305 334.102 456.305 333.933V330.555C456.305 330.386 456.16 330.241 455.991 330.241C455.822 330.241 455.677 330.386 455.677 330.555V333.933C455.653 334.102 455.798 334.247 455.991 334.247Z" fill="#4B0082"/>
<path d="M461.783 338.157C461.951 338.157 462.096 338.012 462.096 337.843V334.464C462.096 334.295 461.951 334.151 461.783 334.151C461.614 334.151 461.469 334.295 461.469 334.464V337.843C461.469 338.012 461.59 338.157 461.783 338.157Z" fill="#4B0082"/>
<path d="M465.137 339.629C465.306 339.629 465.451 339.484 465.451 339.315V335.936C465.451 335.767 465.306 335.623 465.137 335.623C464.968 335.623 464.823 335.767 464.823 335.936V339.315C464.823 339.484 464.968 339.629 465.137 339.629Z" fill="#4B0082"/>
<path d="M488.11 342.355C488.279 342.355 488.424 342.211 488.424 342.042V338.663C488.424 338.494 488.279 338.35 488.11 338.35C487.941 338.35 487.797 338.494 487.797 338.663V342.042C487.797 342.211 487.941 342.355 488.11 342.355Z" fill="#4B0082"/>
<path d="M493.178 341.728C493.347 341.728 493.492 341.583 493.492 341.414V338.036C493.492 337.867 493.347 337.722 493.178 337.722C493.009 337.722 492.864 337.867 492.864 338.036V341.414C492.864 341.583 492.985 341.728 493.178 341.728Z" fill="#4B0082"/>
<path d="M502.444 340.473C502.613 340.473 502.758 340.328 502.758 340.159V336.781C502.758 336.612 502.613 336.467 502.444 336.467C502.276 336.467 502.131 336.612 502.131 336.781V340.159C502.131 340.328 502.276 340.473 502.444 340.473Z" fill="#4B0082"/>
<path d="M512.338 336.25C512.507 336.25 512.652 336.105 512.652 335.936V332.558C512.652 332.389 512.507 332.244 512.338 332.244C512.169 332.244 512.025 332.389 512.025 332.558V335.936C512.025 336.105 512.169 336.25 512.338 336.25Z" fill="#4B0082"/>
<path d="M514.028 335.84C514.197 335.84 514.341 335.695 514.341 335.526V332.148C514.341 331.979 514.197 331.834 514.028 331.834C513.859 331.834 513.714 331.979 513.714 332.148V335.526C513.714 335.695 513.859 335.84 514.028 335.84Z" fill="#4B0082"/>
<path d="M469.577 325.246C468.443 326.597 468.202 327.876 470.011 328.697C474.065 330.507 480.557 328.745 486.662 326.477L496.242 327.177C495.398 327.949 494.36 328.818 493.129 329.735L497.184 329.855C497.184 329.855 498.583 328.842 500.031 327.466L502.806 327.659L504.302 326.404L501.262 326.211C501.6 325.849 501.913 325.463 502.179 325.101L505.943 325.343L507.102 324.257L502.903 323.943C503.651 322.447 503.53 321.095 501.358 320.444C498.221 319.503 493.202 321.095 488.448 322.881L477.516 322.085C478.602 321.409 479.881 320.685 481.353 319.865C481.353 319.865 478.723 319.792 477.299 319.744C477.299 319.744 475.634 320.613 473.752 321.819L469.263 321.506L467.767 322.761L472.014 323.05C471.532 323.412 471.097 323.774 470.663 324.136L466.126 323.822L464.968 324.908L469.577 325.246ZM485.649 323.967C484.756 324.329 483.863 324.667 483.042 324.957L474.355 324.377C474.669 324.064 475.103 323.702 475.682 323.291L485.649 323.967ZM498.656 323.653L494.891 323.388C497.328 322.664 498.559 322.833 498.656 323.653ZM489.486 325.415C490.354 325.077 491.199 324.739 491.995 324.401L498.27 324.812C498.076 325.15 497.787 325.512 497.425 325.922L489.486 325.415ZM473.824 325.56L480.026 326.018C478.964 326.332 478.047 326.525 477.372 326.501C475.127 326.429 473.993 326.115 473.824 325.56Z" fill="#4B0082"/>
<path d="M544.964 366.849C539.1 369.841 527.903 359.61 519.94 344.021C511.976 328.431 510.263 313.349 516.127 310.357L521.388 307.678C527.252 304.686 538.449 314.918 546.412 330.507C554.376 346.096 556.089 361.178 550.225 364.17L544.964 366.849Z" fill="#B48AD2"/>
<path d="M519.65 344.165C526.914 358.379 536.832 368.249 543.251 367.67C543.42 367.645 543.565 367.501 543.541 367.332C543.517 367.163 543.372 367.018 543.203 367.042C537.146 367.597 527.252 357.655 520.23 343.9C515.138 333.909 512.387 323.581 513.062 316.921C513.087 316.752 512.966 316.583 512.773 316.583C512.604 316.559 512.435 316.679 512.435 316.872C511.735 323.581 514.51 334.054 519.65 344.165Z" fill="#4B0082"/>
<path d="M550.218 364.159C556.07 361.171 554.357 346.105 546.392 330.508C538.428 314.912 527.227 304.691 521.376 307.679C515.524 310.667 517.237 325.733 525.202 341.329C533.166 356.926 544.366 367.147 550.218 364.159Z" fill="#CAB1DC"/>
<path d="M544.433 331.496C551.07 344.479 552.831 356.834 548.415 359.079C543.999 361.323 535.022 352.66 528.386 339.677C525.394 333.837 523.391 328.118 522.498 323.388C521.412 317.621 521.967 313.325 524.404 312.094C528.844 309.85 537.797 318.538 544.433 331.496Z" fill="#B48AD2"/>
<path d="M522.281 314.266C521.484 316.366 521.46 319.527 522.184 323.46C522.208 323.629 522.377 323.75 522.546 323.702C522.715 323.678 522.836 323.509 522.787 323.34C521.677 317.5 522.329 313.494 524.525 312.384C526.504 311.37 529.713 312.794 533.357 316.317C537.121 319.961 540.934 325.391 544.12 331.641C547.305 337.891 549.477 344.165 550.225 349.354C550.949 354.349 550.225 357.8 548.246 358.813C547.088 359.416 545.568 359.199 543.709 358.186C543.565 358.113 543.372 358.162 543.275 358.306C543.203 358.451 543.251 358.644 543.396 358.741C545.447 359.851 547.16 360.068 548.512 359.368C550.78 358.21 551.6 354.614 550.828 349.257C550.08 344.021 547.884 337.65 544.675 331.351C541.465 325.053 537.58 319.551 533.791 315.859C529.906 312.094 526.504 310.671 524.235 311.829C523.391 312.287 522.715 313.108 522.281 314.266Z" fill="#4B0082"/>
<path d="M514.197 313.084C514.172 313.156 514.172 313.253 514.221 313.349C514.293 313.494 514.486 313.566 514.655 313.494L517.647 311.95C517.792 311.877 517.865 311.684 517.792 311.515C517.72 311.37 517.527 311.298 517.358 311.37L514.365 312.915C514.269 312.963 514.221 313.011 514.197 313.084Z" fill="#4B0082"/>
<path d="M513.352 320.01C513.328 320.082 513.328 320.178 513.376 320.275C513.448 320.42 513.641 320.492 513.81 320.42L516.803 318.875C516.948 318.803 517.02 318.61 516.948 318.441C516.875 318.296 516.682 318.224 516.513 318.296L513.521 319.841C513.448 319.889 513.4 319.937 513.352 320.01Z" fill="#4B0082"/>
<path d="M513.593 323.702C513.569 323.774 513.569 323.871 513.617 323.967C513.69 324.112 513.883 324.184 514.052 324.112L517.044 322.567C517.189 322.495 517.261 322.302 517.189 322.133C517.116 321.988 516.923 321.916 516.754 321.988L513.762 323.533C513.666 323.557 513.617 323.629 513.593 323.702Z" fill="#4B0082"/>
<path d="M521.581 345.396C521.557 345.468 521.557 345.565 521.605 345.661C521.677 345.806 521.87 345.879 522.039 345.806L525.032 344.262C525.176 344.189 525.249 343.996 525.176 343.827C525.104 343.683 524.911 343.61 524.742 343.683L521.75 345.227C521.677 345.251 521.605 345.324 521.581 345.396Z" fill="#4B0082"/>
<path d="M524.453 349.619C524.428 349.691 524.428 349.788 524.477 349.884C524.549 350.029 524.742 350.102 524.911 350.029L527.903 348.485C528.048 348.412 528.12 348.219 528.048 348.05C527.976 347.882 527.783 347.833 527.614 347.906L524.621 349.45C524.525 349.474 524.477 349.547 524.453 349.619Z" fill="#4B0082"/>
<path d="M529.786 357.293C529.761 357.365 529.762 357.462 529.81 357.558C529.882 357.703 530.075 357.776 530.244 357.703L533.236 356.159C533.381 356.086 533.454 355.893 533.381 355.724C533.309 355.58 533.116 355.507 532.947 355.58L529.955 357.124C529.882 357.148 529.81 357.221 529.786 357.293Z" fill="#4B0082"/>
<path d="M538.063 364.195C538.039 364.267 538.039 364.364 538.087 364.46C538.159 364.605 538.352 364.677 538.521 364.605L541.514 363.06C541.658 362.988 541.731 362.795 541.658 362.626C541.586 362.481 541.393 362.409 541.224 362.481L538.232 364.026C538.135 364.05 538.087 364.122 538.063 364.195Z" fill="#4B0082"/>
<path d="M539.197 365.498C539.173 365.57 539.173 365.667 539.221 365.763C539.294 365.908 539.487 365.98 539.656 365.908L542.648 364.363C542.793 364.291 542.865 364.098 542.793 363.929C542.72 363.784 542.527 363.712 542.358 363.784L539.366 365.329C539.269 365.377 539.221 365.425 539.197 365.498Z" fill="#4B0082"/>
<path d="M528.41 321.337C526.697 320.951 525.442 321.313 525.538 323.291C525.78 327.732 530.292 332.703 535.095 337.119L538.835 345.975C537.749 345.589 536.518 345.058 535.143 344.358L536.88 348.026C536.88 348.026 538.425 348.799 540.307 349.474L541.393 352.032L543.203 352.804L541.996 350.005C542.479 350.126 542.937 350.246 543.396 350.319L544.868 353.77L546.364 354.301L544.723 350.415C546.388 350.415 547.546 349.691 547.136 347.447C546.557 344.238 542.841 340.473 539.076 337.071L534.805 326.959C535.891 327.611 537.146 328.431 538.545 329.373C538.545 329.373 537.411 327.008 536.808 325.705C536.808 325.705 535.288 324.619 533.357 323.509L531.62 319.358L529.81 318.586L531.475 322.495C530.944 322.23 530.413 321.988 529.906 321.795L528.12 317.62L526.624 317.09L528.41 321.337ZM536.856 335.092C536.132 334.44 535.432 333.813 534.781 333.234L531.354 325.246C531.788 325.391 532.319 325.608 532.923 325.922L536.856 335.092ZM543.058 346.506L541.586 343.031C543.348 344.889 543.734 346.072 543.058 346.506ZM537.315 339.146C538.014 339.749 538.69 340.353 539.366 340.932L541.851 346.723C541.465 346.699 541.007 346.627 540.476 346.482L537.315 339.146ZM530.075 325.27L532.488 331.014C531.716 330.193 531.137 329.469 530.847 328.866C529.906 326.839 529.665 325.68 530.075 325.27Z" fill="#4B0082"/>
<path d="M139.819 370.131C159.25 370.131 175.003 364.794 175.003 358.21C175.003 351.626 159.25 346.289 139.819 346.289C120.387 346.289 104.635 351.626 104.635 358.21C104.635 364.794 120.387 370.131 139.819 370.131Z" fill="#B4D2DB"/>
<path d="M74.3978 367.838C93.8293 367.838 109.582 362.501 109.582 355.917C109.582 349.334 93.8293 343.996 74.3978 343.996C54.9662 343.996 39.2139 349.334 39.2139 355.917C39.2139 362.501 54.9662 367.838 74.3978 367.838Z" fill="#B4D2DB"/>
<path d="M111.078 366.173C130.509 366.173 146.262 360.836 146.262 354.252C146.262 347.668 130.509 342.331 111.078 342.331C91.6463 342.331 75.8939 347.668 75.8939 354.252C75.8939 360.836 91.6463 366.173 111.078 366.173Z" fill="#B4D2DB"/>
<path d="M173.048 353.601C173.048 360.165 158.858 365.498 141.339 365.498C123.819 365.498 109.63 360.165 109.63 353.601V347.713C109.63 341.149 123.819 335.816 141.339 335.816C158.858 335.816 173.048 341.149 173.048 347.713V353.601Z" fill="#B48AD2"/>
<path d="M141.339 365.811C157.29 365.811 170.611 361.468 173 355.483C173.072 355.314 172.975 355.145 172.831 355.073C172.662 355 172.493 355.097 172.42 355.242C170.152 360.913 156.807 365.16 141.363 365.16C130.142 365.16 119.693 362.891 114.07 359.272C113.925 359.175 113.732 359.223 113.636 359.368C113.539 359.513 113.587 359.706 113.732 359.803C119.403 363.519 129.997 365.811 141.339 365.811Z" fill="#4B0082"/>
<path d="M141.339 359.61C158.851 359.61 173.048 354.283 173.048 347.713C173.048 341.142 158.851 335.816 141.339 335.816C123.826 335.816 109.63 341.142 109.63 347.713C109.63 354.283 123.826 359.61 141.339 359.61Z" fill="#CAB1DC"/>
<path d="M141.339 338.012C155.914 338.012 167.715 342.042 167.715 347.013C167.715 351.984 155.914 356.014 141.339 356.014C134.775 356.014 128.766 355.193 124.157 353.842C118.534 352.201 114.963 349.74 114.963 347.013C114.939 342.042 126.763 338.012 141.339 338.012Z" fill="#B48AD2"/>
<path d="M124.157 354.18C124.302 354.18 124.423 354.083 124.471 353.963C124.519 353.794 124.423 353.625 124.254 353.577C118.559 351.912 115.277 349.522 115.277 347.037C115.277 344.817 118.004 342.597 122.782 340.956C127.729 339.267 134.317 338.325 141.339 338.325C148.361 338.325 154.949 339.267 159.896 340.956C164.674 342.597 167.401 344.793 167.401 347.037C167.401 348.34 166.508 349.595 164.771 350.801C164.626 350.898 164.602 351.091 164.698 351.236C164.795 351.381 164.988 351.405 165.133 351.308C167.063 349.981 168.028 348.557 168.028 347.037C168.028 344.479 165.205 342.114 160.089 340.377C155.07 338.663 148.409 337.722 141.339 337.722C134.268 337.722 127.608 338.663 122.589 340.377C117.473 342.114 114.649 344.503 114.649 347.037C114.649 349.812 118.076 352.418 124.085 354.18C124.085 354.156 124.109 354.18 124.157 354.18Z" fill="#4B0082"/>
<path d="M111.416 356.665C111.585 356.665 111.729 356.521 111.729 356.352V352.973C111.729 352.804 111.585 352.66 111.416 352.66C111.247 352.66 111.102 352.804 111.102 352.973V356.352C111.102 356.521 111.223 356.665 111.416 356.665Z" fill="#4B0082"/>
<path d="M117.207 360.551C117.376 360.551 117.521 360.406 117.521 360.237V356.859C117.521 356.69 117.376 356.545 117.207 356.545C117.038 356.545 116.894 356.69 116.894 356.859V360.237C116.894 360.406 117.038 360.551 117.207 360.551Z" fill="#4B0082"/>
<path d="M120.562 362.023C120.73 362.023 120.875 361.878 120.875 361.709V358.331C120.875 358.162 120.73 358.017 120.562 358.017C120.393 358.017 120.248 358.162 120.248 358.331V361.709C120.248 361.878 120.393 362.023 120.562 362.023Z" fill="#4B0082"/>
<path d="M143.535 364.774C143.704 364.774 143.849 364.629 143.849 364.46V361.082C143.849 360.913 143.704 360.768 143.535 360.768C143.366 360.768 143.221 360.913 143.221 361.082V364.46C143.221 364.629 143.366 364.774 143.535 364.774Z" fill="#4B0082"/>
<path d="M148.603 364.146C148.771 364.146 148.916 364.001 148.916 363.833V360.454C148.916 360.285 148.771 360.14 148.603 360.14C148.434 360.14 148.289 360.285 148.289 360.454V363.833C148.289 364.001 148.434 364.146 148.603 364.146Z" fill="#4B0082"/>
<path d="M157.869 362.867C158.038 362.867 158.183 362.723 158.183 362.554V359.175C158.183 359.006 158.038 358.861 157.869 358.861C157.7 358.861 157.555 359.006 157.555 359.175V362.554C157.555 362.723 157.7 362.867 157.869 362.867Z" fill="#4B0082"/>
<path d="M167.763 358.668C167.932 358.668 168.077 358.524 168.077 358.355V354.976C168.077 354.807 167.932 354.663 167.763 354.663C167.594 354.663 167.449 354.807 167.449 354.976V358.355C167.449 358.524 167.594 358.668 167.763 358.668Z" fill="#4B0082"/>
<path d="M169.452 358.234C169.621 358.234 169.766 358.089 169.766 357.92V354.542C169.766 354.373 169.621 354.228 169.452 354.228C169.283 354.228 169.138 354.373 169.138 354.542V357.92C169.138 358.089 169.283 358.234 169.452 358.234Z" fill="#4B0082"/>
<path d="M125.002 347.664C123.868 349.016 123.626 350.295 125.436 351.115C129.49 352.925 135.982 351.163 142.087 348.895L151.667 349.595C150.823 350.367 149.785 351.236 148.554 352.153L152.608 352.274C152.608 352.274 154.008 351.26 155.456 349.884L158.231 350.078L159.727 348.823L156.687 348.63C157.024 348.268 157.338 347.882 157.604 347.52L161.368 347.761L162.526 346.675L158.328 346.361C159.076 344.865 158.955 343.514 156.783 342.862C153.646 341.921 148.627 343.514 143.873 345.299L132.941 344.503C134.027 343.827 135.306 343.103 136.778 342.283C136.778 342.283 134.148 342.211 132.724 342.162C132.724 342.162 131.059 343.031 129.177 344.238L124.688 343.924L123.192 345.179L127.439 345.468C126.956 345.83 126.522 346.192 126.088 346.554L121.551 346.241L120.393 347.327L125.002 347.664ZM141.073 346.385C140.181 346.747 139.288 347.085 138.467 347.375L129.78 346.796C130.094 346.482 130.528 346.12 131.107 345.71L141.073 346.385ZM154.08 346.048L150.316 345.782C152.753 345.058 153.984 345.251 154.08 346.048ZM144.91 347.809C145.779 347.471 146.624 347.133 147.42 346.796L153.694 347.206C153.501 347.544 153.212 347.906 152.85 348.316L144.91 347.809ZM129.249 347.954L135.451 348.412C134.389 348.726 133.472 348.919 132.796 348.895C130.552 348.823 129.442 348.509 129.249 347.954Z" fill="#4B0082"/>
<path d="M78.3312 362.481C78.5001 362.481 78.6449 362.336 78.6449 362.167V358.789C78.6449 358.62 78.5001 358.475 78.3312 358.475C78.1623 358.475 78.0175 358.62 78.0175 358.789V362.167C78.0175 362.336 78.1623 362.481 78.3312 362.481Z" fill="#4B0082"/>
<path d="M83.3747 361.854C83.5437 361.854 83.6885 361.709 83.6885 361.54V358.162C83.6885 357.993 83.5437 357.848 83.3747 357.848C83.2058 357.848 83.061 357.993 83.061 358.162V361.54C83.061 361.709 83.2058 361.854 83.3747 361.854Z" fill="#4B0082"/>
<path d="M107.82 351.308C107.82 357.872 93.6306 363.205 76.1111 363.205C58.5915 363.205 44.4021 357.872 44.4021 351.308V345.42C44.4021 338.856 58.5915 333.523 76.1111 333.523C93.6306 333.523 107.82 338.856 107.82 345.42V351.308Z" fill="#B48AD2"/>
<path d="M76.1111 363.519C92.0621 363.519 105.383 359.175 107.772 353.19C107.844 353.022 107.748 352.853 107.603 352.78C107.434 352.708 107.265 352.804 107.193 352.949C104.924 358.62 91.5795 362.867 76.1352 362.867C64.914 362.867 54.465 360.599 48.8424 356.979C48.6976 356.883 48.5045 356.931 48.408 357.076C48.3115 357.22 48.3597 357.414 48.5045 357.51C54.1996 361.226 64.7934 363.519 76.1111 363.519Z" fill="#4B0082"/>
<path d="M76.1111 357.317C93.6234 357.317 107.82 351.991 107.82 345.42C107.82 338.85 93.6234 333.523 76.1111 333.523C58.5987 333.523 44.4021 338.85 44.4021 345.42C44.4021 351.991 58.5987 357.317 76.1111 357.317Z" fill="#CAB1DC"/>
<path d="M76.1111 335.719C90.6866 335.719 102.487 339.749 102.487 344.72C102.487 349.691 90.6866 353.721 76.1111 353.721C69.5473 353.721 63.5385 352.901 58.9294 351.55C53.3067 349.909 49.7352 347.447 49.7352 344.72C49.7352 339.749 61.5597 335.719 76.1111 335.719Z" fill="#B48AD2"/>
<path d="M58.9294 351.887C59.0742 351.887 59.1948 351.791 59.2431 351.67C59.2913 351.501 59.1948 351.332 59.0259 351.284C53.3308 349.619 50.0489 347.23 50.0489 344.744C50.0489 342.524 52.7758 340.304 57.5539 338.663C62.5009 336.974 69.0888 336.033 76.1111 336.033C83.1334 336.033 89.7213 336.974 94.6683 338.663C99.4464 340.304 102.173 342.5 102.173 344.744C102.173 346.048 101.28 347.302 99.5429 348.509C99.3981 348.605 99.374 348.799 99.4705 348.943C99.567 349.088 99.7601 349.112 99.9049 349.016C101.835 347.689 102.801 346.265 102.801 344.744C102.801 342.186 99.9773 339.822 94.8614 338.084C89.842 336.371 83.1817 335.43 76.1111 335.43C69.0405 335.43 62.3802 336.371 57.3608 338.084C52.2449 339.822 49.4215 342.211 49.4215 344.744C49.4215 347.52 52.8482 350.126 58.857 351.887C58.8811 351.863 58.9052 351.887 58.9294 351.887Z" fill="#4B0082"/>
<path d="M59.774 345.372C58.6398 346.723 58.3985 348.002 60.2084 348.823C64.2625 350.633 70.7539 348.871 76.8592 346.603L86.4394 347.302C85.5948 348.075 84.5572 348.943 83.3265 349.86L87.3806 349.981C87.3806 349.981 88.7802 348.967 90.2281 347.592L93.0032 347.785L94.4994 346.53L91.4588 346.337C91.7967 345.975 92.1104 345.589 92.3758 345.227L96.1404 345.468L97.2987 344.382L93.0998 344.069C93.8479 342.573 93.7272 341.221 91.5553 340.57C88.4182 339.629 83.3989 341.221 78.6449 343.007L67.7133 342.211C68.7992 341.535 70.0782 340.811 71.5502 339.991C71.5502 339.991 68.9199 339.918 67.4961 339.87C67.4961 339.87 65.831 340.739 63.9488 341.945L59.4603 341.631L57.9641 342.886L62.2113 343.176C61.7287 343.538 61.2943 343.9 60.8599 344.262L56.3232 343.948L55.1649 345.034L59.774 345.372ZM75.8698 344.093C74.9769 344.455 74.0841 344.793 73.2636 345.082L64.5762 344.503C64.8899 344.189 65.3243 343.827 65.9034 343.417L75.8698 344.093ZM88.8526 343.755L85.0881 343.49C87.5495 342.766 88.7561 342.959 88.8526 343.755ZM79.7067 345.517C80.5755 345.179 81.4201 344.841 82.2164 344.503L88.4906 344.913C88.2976 345.251 88.008 345.613 87.646 346.023L79.7067 345.517ZM64.0453 345.661L70.2471 346.12C69.1853 346.434 68.2683 346.627 67.5926 346.603C65.3484 346.53 64.2142 346.216 64.0453 345.661Z" fill="#4B0082"/>
<path d="M151.788 343.393C151.788 349.957 137.599 355.29 120.079 355.29C102.559 355.29 88.37 349.957 88.37 343.393V337.505C88.37 330.941 102.559 325.608 120.079 325.608C137.599 325.608 151.788 330.941 151.788 337.505V343.393Z" fill="#B48AD2"/>
<path d="M120.079 355.604C136.03 355.604 149.351 351.26 151.74 345.275C151.812 345.106 151.716 344.937 151.571 344.865C151.402 344.793 151.233 344.889 151.16 345.034C148.892 350.705 135.547 354.952 120.103 354.952C108.882 354.952 98.4329 352.684 92.8102 349.064C92.6654 348.967 92.4724 349.016 92.3758 349.161C92.2793 349.305 92.3276 349.498 92.4724 349.595C98.1674 353.311 108.737 355.604 120.079 355.604Z" fill="#4B0082"/>
<path d="M120.079 349.402C137.591 349.402 151.788 344.075 151.788 337.505C151.788 330.934 137.591 325.608 120.079 325.608C102.567 325.608 88.37 330.934 88.37 337.505C88.37 344.075 102.567 349.402 120.079 349.402Z" fill="#CAB1DC"/>
<path d="M120.079 327.804C134.654 327.804 146.455 331.834 146.455 336.805C146.455 341.776 134.654 345.806 120.079 345.806C113.515 345.806 107.506 344.986 102.897 343.634C97.2745 341.993 93.7031 339.532 93.7031 336.805C93.7031 331.834 105.503 327.804 120.079 327.804Z" fill="#B48AD2"/>
<path d="M102.897 343.948C103.042 343.948 103.163 343.852 103.211 343.731C103.259 343.562 103.163 343.393 102.994 343.345C97.2987 341.68 94.0168 339.291 94.0168 336.805C94.0168 334.585 96.7436 332.365 101.522 330.724C106.469 329.035 113.057 328.094 120.079 328.094C127.101 328.094 133.689 329.035 138.636 330.724C143.414 332.365 146.141 334.561 146.141 336.805C146.141 338.108 145.248 339.363 143.511 340.57C143.366 340.666 143.342 340.859 143.438 341.004C143.535 341.149 143.728 341.173 143.873 341.076C145.803 339.749 146.769 338.325 146.769 336.805C146.769 334.247 143.945 331.882 138.829 330.145C133.81 328.431 127.149 327.49 120.079 327.49C113.008 327.49 106.348 328.431 101.329 330.145C96.2127 331.882 93.3893 334.271 93.3893 336.805C93.3893 339.58 96.816 342.187 102.825 343.948C102.849 343.948 102.873 343.948 102.897 343.948Z" fill="#4B0082"/>
<path d="M122.299 354.566C122.468 354.566 122.613 354.421 122.613 354.252V350.874C122.613 350.705 122.468 350.56 122.299 350.56C122.13 350.56 121.985 350.705 121.985 350.874V354.252C121.985 354.421 122.106 354.566 122.299 354.566Z" fill="#4B0082"/>
<path d="M127.343 353.939C127.511 353.939 127.656 353.794 127.656 353.625V350.246C127.656 350.078 127.511 349.933 127.343 349.933C127.174 349.933 127.029 350.078 127.029 350.246V353.625C127.029 353.794 127.174 353.939 127.343 353.939Z" fill="#4B0082"/>
<path d="M103.742 337.457C102.608 338.808 102.366 340.087 104.176 340.908C108.23 342.717 114.722 340.956 120.827 338.687L130.407 339.387C129.563 340.159 128.525 341.028 127.294 341.945L131.348 342.066C131.348 342.066 132.748 341.052 134.196 339.677L136.971 339.87L138.467 338.615L135.427 338.422C135.765 338.06 136.078 337.674 136.344 337.312L140.108 337.553L141.267 336.467L137.068 336.154C137.816 334.657 137.695 333.306 135.523 332.655C132.386 331.713 127.367 333.306 122.613 335.092L111.681 334.295C112.767 333.62 114.046 332.896 115.518 332.075C115.518 332.075 112.888 332.003 111.464 331.955C111.464 331.955 109.799 332.823 107.917 334.03L103.428 333.716L101.932 334.971L106.179 335.261C105.696 335.623 105.262 335.985 104.828 336.347L100.291 336.033L99.1327 337.119L103.742 337.457ZM119.838 336.178C118.945 336.54 118.052 336.878 117.231 337.167L108.544 336.588C108.858 336.274 109.292 335.912 109.871 335.502L119.838 336.178ZM132.82 335.84L129.056 335.574C131.493 334.85 132.724 335.044 132.82 335.84ZM123.65 337.601C124.519 337.264 125.364 336.926 126.16 336.588L132.434 336.998C132.241 337.336 131.952 337.698 131.59 338.108L123.65 337.601ZM107.989 337.746L114.191 338.205C113.129 338.518 112.212 338.712 111.536 338.687C109.292 338.615 108.182 338.301 107.989 337.746Z" fill="#4B0082"/>
<path d="M243.15 195.997C243.15 195.997 242.981 190.616 244.043 190.471C245.129 190.326 244.646 192.981 245.346 192.667C246.022 192.377 247.204 187.623 248.532 187.696C249.666 187.744 247.253 192.16 247.566 192.184C247.904 192.208 250.921 189.071 251.645 189.264C252.369 189.433 251.693 190.857 249.352 192.546C249.352 192.546 248.387 193.294 248.58 193.367C248.773 193.439 252.344 191.557 252.586 192.088C252.827 192.643 251.934 193.198 249.135 194.573C249.135 194.573 248.58 194.815 248.918 194.839C249.256 194.863 252.562 193.898 251.91 194.984C251.258 196.094 244.14 198.072 244.14 198.072L243.15 195.997Z" fill="#E55857"/>
<path d="M242.74 194.815C234.004 201.113 222.156 203.43 222.156 203.43C217.402 200.775 213.034 198.386 208.956 196.359C208.57 199.617 208.304 202.875 208.159 206.157C208.039 208.835 208.015 211.514 208.063 214.168C208.087 215.833 208.159 217.547 208.401 219.212C212.117 221.287 217.088 223.338 221.166 222.469C230.529 220.467 242.04 204.25 245.974 198.338C245.298 196.793 244.236 195.611 242.74 194.815Z" fill="#020139"/>
<path d="M319.961 77.1488C319.961 77.1488 309.488 118.872 311.539 125.05C313.59 131.228 320.444 149.375 320.444 153.139C320.444 156.904 349.233 144.573 349.909 146.286C350.584 147.999 349.909 148.337 349.909 148.337C349.909 148.337 322.157 157.58 320.444 161.006C318.73 164.433 313.59 230.24 310.502 237.093C307.413 243.947 289.266 257.316 289.266 260.404C289.266 263.493 287.89 365.956 287.89 365.956L279.324 366.632C279.324 366.632 281.785 262.311 279.324 251.138C272.808 221.673 232.725 182.266 233.401 178.478C234.077 174.713 236.49 174.375 236.49 174.375C236.49 174.375 261.152 209.68 265.955 209.68C270.757 209.68 282.05 188.444 280.337 180.891C278.624 173.362 242.981 119.548 242.981 119.548L247.446 115.784C247.446 115.784 260.115 138.733 262.19 138.733C264.265 138.733 273.846 129.828 273.846 129.828L275.559 132.217C275.559 132.217 265.279 143.173 265.955 144.548C266.63 145.924 285.139 177.44 285.477 182.918C285.815 188.396 272.422 218.295 274.521 221.649C276.597 225.003 288.566 248.025 288.566 248.025C288.566 248.025 303.648 237.745 305.024 230.216C306.399 222.687 315.666 153.863 314.266 146.6C311.515 132.217 293.368 93.4859 293.368 93.4859C295.081 91.7726 295.081 91.4347 295.081 91.4347L308.45 119.186L317.017 75.6768L319.961 77.1488Z" fill="#AA3B30"/>
<path d="M305.386 367.042C306.809 366.173 307.895 365.136 307.485 364.098C306.448 361.516 300.222 363.591 300.222 363.591C300.222 363.591 308.523 356.328 303.841 353.215C299.184 350.102 290.883 360.478 290.883 360.478C290.883 360.478 310.067 332.461 295.033 332.461C279.999 332.461 280.506 359.441 280.506 359.441C280.506 359.441 279.999 343.369 271.167 346.482C262.986 349.354 270.709 364.243 271.891 366.415C271.867 366.415 271.843 366.415 271.795 366.415C270.829 365.377 267.113 361.661 264.41 362.554C262.407 363.229 264.724 365.618 266.606 367.235C263.928 367.814 262.335 368.538 262.335 369.286C262.335 371.289 273.122 372.906 286.442 372.906C299.763 372.906 310.55 371.289 310.55 369.286C310.598 368.442 308.644 367.669 305.386 367.042Z" fill="#0F9403"/>
<path d="M348.895 102.487C340.039 108.713 319.454 94.6442 302.876 71.0918C286.298 47.5393 280.047 23.3835 288.88 17.1576L296.819 11.5832C305.675 5.35721 326.26 19.426 342.838 42.9784C359.416 66.5309 365.666 90.6867 356.834 96.9126L348.895 102.487Z" fill="#B48AD2"/>
<path d="M302.442 71.4055C317.548 92.8585 335.985 106.662 346.289 104.225C346.578 104.152 346.747 103.887 346.675 103.597C346.603 103.307 346.337 103.139 346.048 103.211C336.298 105.528 317.91 91.6037 303.286 70.8022C292.668 55.7199 285.815 39.5035 285.405 28.5236C285.405 28.234 285.163 28.0168 284.874 28.0168C284.584 28.0168 284.367 28.2581 284.367 28.5477C284.801 39.7448 291.727 56.1543 302.442 71.4055Z" fill="#4B0082"/>
<path d="M356.846 96.8852C365.687 90.6659 359.419 66.5281 342.847 42.972C326.275 19.4158 305.674 5.36147 296.834 11.5808C287.994 17.8 294.261 41.9378 310.833 65.494C327.405 89.0501 348.006 103.104 356.846 96.8852Z" fill="#CAB1DC"/>
<path d="M339.87 45.0779C353.649 64.6728 359.416 84.3883 352.708 89.094C346.023 93.7996 329.421 81.7338 315.617 62.1389C309.416 53.3068 304.831 44.4505 302.273 36.9697C299.16 27.8238 299.087 20.7049 302.755 18.1228C309.488 13.393 326.091 25.483 339.87 45.0779Z" fill="#B48AD2"/>
<path d="M301.862 37.2592C301.983 37.4523 302.224 37.5247 302.466 37.4523C302.731 37.3558 302.876 37.0662 302.779 36.8007C299.642 27.5583 299.739 20.898 303.069 18.5572C306.061 16.4578 311.636 18.0505 318.344 22.925C325.294 27.9927 332.799 35.9561 339.435 45.3916C346.072 54.8271 351.043 64.5762 353.456 72.8292C355.773 80.7927 355.386 86.5843 352.394 88.6837C350.657 89.9144 348.123 89.9144 344.865 88.7079C344.6 88.6113 344.286 88.732 344.189 89.0216C344.093 89.287 344.238 89.6007 344.503 89.6973C348.099 91.0486 350.946 90.9762 352.997 89.5525C356.424 87.1393 356.955 81.1064 354.445 72.5638C352.008 64.1901 346.964 54.3444 340.256 44.8124C333.547 35.2804 325.994 27.2205 318.924 22.1046C311.732 16.868 305.868 15.3236 302.442 17.7367C298.701 20.3671 298.46 27.4618 301.766 37.1627C301.814 37.1627 301.838 37.211 301.862 37.2592Z" fill="#4B0082"/>
<path d="M286.466 22.4665C286.635 22.7079 286.949 22.7561 287.19 22.5872L291.727 19.4018C291.969 19.2329 292.017 18.9192 291.848 18.6779C291.679 18.4366 291.365 18.3883 291.124 18.5572L286.587 21.7426C286.37 21.9115 286.298 22.2494 286.466 22.4665Z" fill="#4B0082"/>
<path d="M286.708 33.9532C286.877 34.1945 287.19 34.2428 287.432 34.0739L291.968 30.8885C292.21 30.7196 292.258 30.4058 292.089 30.1645C291.92 29.9232 291.607 29.875 291.365 30.0439L286.828 33.2292C286.587 33.3982 286.539 33.7119 286.708 33.9532Z" fill="#4B0082"/>
<path d="M287.914 39.8896C288.083 40.1309 288.397 40.1792 288.638 40.0102L293.175 36.8249C293.416 36.6559 293.465 36.3422 293.296 36.1009C293.127 35.8596 292.813 35.8113 292.572 35.9803L288.035 39.1656C287.794 39.3345 287.745 39.6483 287.914 39.8896Z" fill="#4B0082"/>
<path d="M305.965 73.3843C306.134 73.6256 306.448 73.6739 306.689 73.5049L311.226 70.3196C311.467 70.1506 311.515 69.8369 311.346 69.5956C311.177 69.3543 310.864 69.306 310.622 69.475L306.086 72.6603C305.844 72.8293 305.796 73.143 305.965 73.3843Z" fill="#4B0082"/>
<path d="M311.588 79.5861C311.756 79.8274 312.07 79.8757 312.311 79.7068L316.848 76.5214C317.09 76.3525 317.138 76.0388 316.969 75.7974C316.8 75.5561 316.486 75.5079 316.245 75.6768L311.708 78.8622C311.491 79.0311 311.443 79.3448 311.588 79.5861Z" fill="#4B0082"/>
<path d="M322.085 90.8556C322.254 91.0969 322.567 91.1451 322.809 90.9762L327.346 87.7908C327.587 87.6219 327.635 87.3082 327.466 87.0669C327.297 86.8256 326.984 86.7773 326.742 86.9462L322.205 90.1316C321.964 90.3005 321.916 90.6143 322.085 90.8556Z" fill="#4B0082"/>
<path d="M337.119 100.195C337.288 100.436 337.601 100.484 337.843 100.315L342.38 97.1298C342.621 96.9609 342.669 96.6472 342.5 96.4058C342.331 96.1645 342.018 96.1163 341.776 96.2852L337.239 99.4706C336.998 99.6395 336.95 99.9532 337.119 100.195Z" fill="#4B0082"/>
<path d="M339.267 102.053C339.435 102.294 339.749 102.342 339.99 102.173L344.527 98.9879C344.769 98.819 344.817 98.5053 344.648 98.264C344.479 98.0227 344.165 97.9744 343.924 98.1433L339.387 101.329C339.17 101.498 339.122 101.835 339.267 102.053Z" fill="#4B0082"/>
<path d="M311.443 32.2398C308.571 31.9985 306.592 32.8673 307.22 36.0768C308.619 43.268 317.138 50.3144 325.97 56.3956L334.102 69.9334C332.268 69.5473 330.121 68.9682 327.707 68.1477L331.375 73.698C331.375 73.698 334.054 74.615 337.288 75.2665L339.628 79.1759L342.741 80.0205L340.135 75.7492C340.932 75.8457 341.728 75.9181 342.5 75.9422L345.71 81.2271L348.268 81.7579L344.696 75.8216C347.399 75.4355 349.112 73.9876 347.954 70.4402C346.265 65.3484 339.339 60.0877 332.437 55.3821L323.147 39.9137C325.077 40.7342 327.297 41.7718 329.783 42.9784C329.783 42.9784 327.394 39.3828 326.115 37.4281C326.115 37.4281 323.364 36.0044 319.961 34.6289L316.148 28.2823L313.035 27.4377L316.655 33.4223C315.738 33.1327 314.821 32.8431 313.928 32.6501L310.043 26.2552L307.485 25.7243L311.443 32.2398ZM328.359 52.6793C327.032 51.7865 325.753 50.9419 324.546 50.1214L317.114 37.8866C317.838 38.0073 318.755 38.2486 319.816 38.6347L328.359 52.6793ZM341.1 69.8369L337.891 64.5038C341.197 67.1342 342.114 68.944 341.1 69.8369ZM330.072 59.1707C331.351 60.0154 332.582 60.8117 333.813 61.608L339.194 70.4643C338.543 70.5126 337.794 70.4885 336.902 70.392L330.072 59.1707ZM315.038 38.2486L320.299 47.0325C318.875 45.8983 317.765 44.8366 317.138 43.9196C315.111 40.8307 314.483 39.0208 315.038 38.2486Z" fill="#4B0082"/>
<path d="M279.203 62.6698C287.19 69.9576 277.948 93.1239 258.546 114.408C239.144 135.692 216.943 147.058 208.932 139.77L201.765 133.231C193.777 125.943 203.019 102.777 222.421 81.4925C241.823 60.2084 264.048 48.8424 272.036 56.1302L279.203 62.6698Z" fill="#B48AD2"/>
<path d="M258.932 114.746C276.621 95.3441 286.08 74.3495 281.447 64.8176C281.327 64.5521 281.013 64.4556 280.747 64.5762C280.482 64.6969 280.385 65.0106 280.506 65.2761C284.898 74.3013 275.269 95.2475 258.16 114.046C245.732 127.68 231.398 137.888 220.756 140.687C220.491 140.76 220.322 141.049 220.394 141.315C220.467 141.604 220.756 141.749 221.022 141.677C231.857 138.853 246.384 128.525 258.932 114.746Z" fill="#4B0082"/>
<path d="M251.355 107.849C270.755 86.5622 280.006 63.4038 272.017 56.1231C264.029 48.8424 241.826 60.1965 222.425 81.4831C203.025 102.77 193.774 125.928 201.763 133.209C209.752 140.49 231.955 129.136 251.355 107.849Z" fill="#CAB1DC"/>
<path d="M225.124 83.9298C241.268 66.2172 259.246 56.3232 265.303 61.8494C271.36 67.3514 263.155 86.1982 247.035 103.887C239.772 111.874 232.122 118.245 225.365 122.371C217.112 127.391 210.186 129.008 206.856 125.991C200.799 120.465 208.98 101.642 225.124 83.9298Z" fill="#B48AD2"/>
<path d="M211.393 128.018C215.061 128.018 219.96 126.257 225.606 122.83C225.848 122.685 225.92 122.371 225.775 122.106C225.631 121.865 225.317 121.792 225.051 121.937C216.702 127.005 210.186 128.356 207.17 125.605C204.467 123.144 204.805 117.352 208.111 109.751C211.538 101.86 217.715 92.8102 225.486 84.2918C233.256 75.7733 241.678 68.7993 249.231 64.6486C256.495 60.6428 262.238 59.774 264.941 62.2355C266.51 63.6834 267.089 66.1448 266.606 69.5715C266.558 69.8611 266.775 70.1265 267.04 70.1507C267.33 70.1989 267.596 69.9817 267.62 69.7163C268.151 65.9276 267.475 63.1525 265.641 61.4633C262.528 58.6399 256.543 59.4362 248.725 63.7316C241.099 67.9305 232.556 74.977 224.714 83.592C216.871 92.207 210.645 101.329 207.17 109.34C203.623 117.497 203.381 123.554 206.47 126.377C207.701 127.463 209.366 128.018 211.393 128.018Z" fill="#4B0082"/>
<path d="M214.265 141.146C214.409 141.146 214.554 141.098 214.651 140.977C214.844 140.76 214.82 140.446 214.627 140.253L210.524 136.513C210.307 136.32 209.993 136.344 209.8 136.537C209.607 136.754 209.631 137.068 209.824 137.261L213.927 141.001C213.999 141.098 214.12 141.146 214.265 141.146Z" fill="#4B0082"/>
<path d="M225.413 138.419C225.558 138.419 225.703 138.371 225.8 138.25C225.993 138.033 225.969 137.719 225.775 137.526L221.673 133.786C221.456 133.593 221.142 133.617 220.949 133.81C220.756 134.027 220.78 134.341 220.973 134.534L225.076 138.274C225.172 138.371 225.293 138.419 225.413 138.419Z" fill="#4B0082"/>
<path d="M230.94 135.958C231.084 135.958 231.229 135.909 231.326 135.789C231.519 135.571 231.495 135.258 231.302 135.065L227.199 131.324C226.982 131.131 226.668 131.155 226.475 131.348C226.282 131.566 226.306 131.879 226.499 132.072L230.602 135.813C230.698 135.909 230.819 135.958 230.94 135.958Z" fill="#4B0082"/>
<path d="M259.729 111.078C259.873 111.078 260.018 111.03 260.115 110.909C260.308 110.692 260.284 110.378 260.091 110.185L255.988 106.445C255.771 106.252 255.457 106.276 255.264 106.469C255.071 106.686 255.095 107 255.288 107.193L259.391 110.933C259.463 111.03 259.584 111.078 259.729 111.078Z" fill="#4B0082"/>
<path d="M264.555 104.225C264.7 104.225 264.845 104.176 264.941 104.056C265.134 103.838 265.11 103.525 264.917 103.332L260.815 99.5912C260.597 99.3982 260.284 99.4223 260.091 99.6154C259.898 99.8325 259.922 100.146 260.115 100.339L264.217 104.08C264.314 104.176 264.434 104.225 264.555 104.225Z" fill="#4B0082"/>
<path d="M273.291 91.5554C273.435 91.5554 273.58 91.5071 273.677 91.3865C273.87 91.1693 273.846 90.8556 273.653 90.6625L269.55 86.9221C269.333 86.7291 269.019 86.7532 268.826 86.9463C268.633 87.1634 268.657 87.4772 268.85 87.6702L272.953 91.4106C273.049 91.5071 273.17 91.5554 273.291 91.5554Z" fill="#4B0082"/>
<path d="M279.13 74.8322C279.275 74.8322 279.42 74.7839 279.517 74.6633C279.71 74.4461 279.685 74.1324 279.492 73.9393L275.39 70.1989C275.173 70.0059 274.859 70.03 274.666 70.223C274.473 70.4402 274.497 70.7539 274.69 70.947L278.793 74.6874C278.889 74.8081 279.01 74.8322 279.13 74.8322Z" fill="#4B0082"/>
<path d="M280.506 72.3225C280.651 72.3225 280.796 72.2742 280.892 72.1536C281.085 71.9364 281.061 71.6227 280.868 71.4296L276.766 67.6892C276.548 67.4962 276.235 67.5203 276.042 67.7133C275.849 67.9305 275.873 68.2442 276.066 68.4373L280.168 72.1777C280.241 72.2742 280.361 72.3225 280.506 72.3225Z" fill="#4B0082"/>
<path d="M218.753 114.48C219.139 117.352 220.418 119.09 223.411 117.786C230.119 114.867 235.163 104.997 239.193 95.0786L250.655 84.1953C250.679 86.0775 250.559 88.2976 250.293 90.8315L254.926 86.0293C254.926 86.0293 255.24 83.2059 255.168 79.8998L258.474 76.7627L258.619 73.5532L254.999 77.0282C254.926 76.2318 254.806 75.4355 254.661 74.6874L259.125 70.4161L259.101 67.8099L254.082 72.5879C253.117 70.03 251.331 68.6786 248.121 70.585C243.512 73.336 239.892 81.2271 236.804 88.9974L223.724 101.425C224.11 99.374 224.641 96.985 225.269 94.2823C225.269 94.2823 222.276 97.3711 220.635 99.0845C220.635 99.0845 219.839 102.077 219.236 105.697L213.879 110.788L213.734 113.998L218.777 109.147C218.681 110.113 218.632 111.078 218.608 111.971L213.227 117.135L213.251 119.741L218.753 114.48ZM235.018 93.5101C234.439 95.0062 233.884 96.43 233.353 97.7814L223.024 107.699C222.976 106.951 223.024 106.01 223.169 104.9L235.018 93.5101ZM249.014 77.366L244.502 81.6614C246.36 77.8728 247.928 76.5697 249.014 77.366ZM241.003 90.4453C241.533 89.0216 242.064 87.6219 242.571 86.2706L250.028 79.1035C250.221 79.7068 250.366 80.479 250.462 81.3477L241.003 90.4453ZM223.845 109.654L231.277 102.608C230.481 104.249 229.685 105.552 228.913 106.348C226.33 109.027 224.714 110.04 223.845 109.654Z" fill="#4B0082"/>
<path d="M321.843 145.683C321.843 145.683 346.771 152.102 335.43 164.988C324.088 177.874 303.648 179.033 303.648 179.033C303.648 179.033 299.473 154.08 306.423 147.734C313.373 141.435 321.843 145.683 321.843 145.683Z" fill="#0F9403"/>
<path d="M332.92 150.557C332.92 150.557 345.155 117.859 360.913 134.992C376.671 152.126 375.295 179.877 375.295 179.877C375.295 179.877 341.028 181.928 333.499 171.648C325.946 161.368 332.92 150.557 332.92 150.557Z" fill="#0F9403"/>
<path d="M259.511 135.113C259.511 135.113 294.382 133.4 284.898 154.66C275.414 175.92 249.376 185.645 249.376 185.645C249.376 185.645 233.932 154.997 240.375 143.993C246.818 133.014 259.511 135.113 259.511 135.113Z" fill="#0F9403"/>
<path d="M252.272 174.399C252.272 174.399 260.38 124.761 269.188 133.979L271.215 132.217C271.215 132.217 267.837 127.584 262.552 132.579C256.037 138.757 252.272 174.399 252.272 174.399Z" fill="#236933"/>
<path d="M302.321 91.8932C302.321 91.8932 297.302 106.445 290.159 99.0603C283.016 91.676 283.305 79.4413 283.305 79.4413C283.305 79.4413 298.388 78.1623 301.814 82.6026C305.265 87.0428 302.321 91.8932 302.321 91.8932Z" fill="#0F9403"/>
<path d="M287.456 82.4819C287.456 82.4819 306.423 93.9444 301.211 96.0197L301.597 97.1298C301.597 97.1298 304.058 96.5024 302.876 93.5342C301.404 89.8662 287.456 82.4819 287.456 82.4819Z" fill="#236933"/>
<path d="M263.252 130.962C263.252 130.962 268.271 145.514 275.414 138.129C282.557 130.745 282.268 118.51 282.268 118.51C282.268 118.51 267.185 117.231 263.759 121.672C260.308 126.112 263.252 130.962 263.252 130.962Z" fill="#0F9403"/>
<path d="M278.117 121.551C278.117 121.551 259.15 133.014 264.362 135.089L263.976 136.199C263.976 136.199 261.514 135.571 262.697 132.603C264.169 128.935 278.117 121.551 278.117 121.551Z" fill="#236933"/>
<path d="M295.999 97.7572C295.999 97.7572 321.216 92.6172 316.679 109.171C312.143 125.726 294.261 135.716 294.261 135.716C294.261 135.716 279.565 115.108 283.064 106.372C286.515 97.6366 295.999 97.7572 295.999 97.7572Z" fill="#0F9403"/>
<path d="M294.768 128.477C294.768 128.477 294.092 95.2475 298.532 93.872C302.997 92.4965 302.828 97.0333 302.828 97.0333L300.945 97.1298C300.945 97.1298 300.583 95.2475 299.546 96.2852C298.532 97.2987 296.481 106.541 294.768 128.477Z" fill="#236933"/>
<path d="M327.659 141.146C327.659 141.146 319.092 130.528 307.099 175.075C307.099 175.075 318.634 139.191 326.815 142.352L325.511 146.865L326.742 147.348L328.214 142.304C330.483 141.291 338.06 139.505 350.801 151.957C360.623 161.561 365.932 168.439 368.49 172.179C361.902 161.971 340.835 131.71 327.659 141.146Z" fill="#236933"/>
<path d="M368.466 172.179C369.769 174.182 370.493 175.413 370.493 175.413C370.493 175.413 369.938 174.303 368.466 172.179Z" fill="#236933"/>
<path d="M312.239 195.297C312.239 195.297 290.303 192.208 293.73 208.328C297.157 224.424 324.908 242.257 324.908 242.257C324.908 242.257 354.373 204.902 339.291 193.946C324.233 182.966 312.239 195.297 312.239 195.297Z" fill="#0F9403"/>
<path d="M324.232 236.418C324.232 236.418 318.055 193.922 311.201 189.482C304.348 185.017 303.721 195.394 303.721 195.394L306.592 195.297C306.592 195.297 307.292 190.133 310.188 192.474C313.108 194.79 318.586 207.797 324.232 236.418Z" fill="#236933"/>
<path d="M277.996 233.86C277.996 233.86 298.267 231.012 295.106 245.901C291.944 260.79 266.268 277.272 266.268 277.272C266.268 277.272 239.024 242.74 252.972 232.605C266.92 222.445 277.996 233.86 277.996 233.86Z" fill="#0F9403"/>
<path d="M266.654 269.309C266.654 269.309 268.609 239.941 275.004 231.833C281.399 223.724 285.139 233.811 285.139 233.811L280.868 233.642C280.868 233.642 278.6 230.143 274.545 239.506C270.081 249.786 266.654 269.309 266.654 269.309Z" fill="#236933"/>
<path d="M239.868 177.199C239.868 177.199 249.907 180.287 245.201 186.513C240.496 192.739 224.955 194.815 224.955 194.815C224.955 194.815 219.815 172.831 228.502 171.142C237.19 169.476 239.868 177.199 239.868 177.199Z" fill="#0F9403"/>
<path d="M226.861 191.219C226.861 191.219 234.173 177.995 238.903 175.606C243.633 173.241 243.174 178.743 243.174 178.743L241.22 177.729C241.22 177.729 240.93 175.606 237.021 179.081C232.701 182.869 226.861 191.219 226.861 191.219Z" fill="#236933"/>
<path d="M280.747 176.861C280.747 176.861 270.709 179.95 275.414 186.176C280.12 192.401 295.661 194.477 295.661 194.477C295.661 194.477 300.801 172.493 292.113 170.804C283.426 169.139 280.747 176.861 280.747 176.861Z" fill="#0F9403"/>
<path d="M293.754 190.857C293.754 190.857 286.442 177.633 281.713 175.244C276.983 172.879 277.441 178.381 277.441 178.381L279.396 177.367C279.396 177.367 279.686 175.244 283.619 178.719C287.89 182.532 293.754 190.857 293.754 190.857Z" fill="#236933"/>
<path d="M316.39 86.0293C316.39 86.0293 306.351 89.1181 311.057 95.3441C315.762 101.57 331.303 103.645 331.303 103.645C331.303 103.645 336.443 81.6614 327.756 79.9722C319.068 78.3313 316.39 86.0293 316.39 86.0293Z" fill="#0F9403"/>
<path d="M329.397 100.05C329.397 100.05 322.085 86.8256 317.355 84.4366C312.625 82.0717 313.084 87.5737 313.084 87.5737L315.038 86.5601C315.038 86.5601 315.328 84.4366 319.261 87.9115C323.533 91.7243 329.397 100.05 329.397 100.05Z" fill="#236933"/>
<path d="M266.268 222.759C266.268 222.759 267.933 217.643 268.995 217.884C270.057 218.126 268.706 220.442 269.454 220.394C270.202 220.346 272.905 216.292 274.135 216.799C275.173 217.233 271.408 220.563 271.698 220.684C272.012 220.804 275.921 218.922 276.524 219.308C277.152 219.718 276.017 220.829 273.242 221.625C273.242 221.625 272.084 222.011 272.229 222.132C272.374 222.252 276.379 221.697 276.428 222.301C276.476 222.904 275.438 223.121 272.325 223.459C272.325 223.459 271.722 223.507 272.036 223.628C272.349 223.748 275.8 223.966 274.811 224.786C273.822 225.607 266.461 225.052 266.461 225.052L266.268 222.759Z" fill="#F07461"/>
<path d="M262.094 223.7L266.003 222.397C266.003 222.397 267.958 224.424 267.403 226.017L264.483 227.972L262.094 223.7Z" fill="#F1F1F1"/>
<path d="M165.615 368.828C165.905 368.924 166.219 368.973 166.532 368.997C168.656 369.142 179.829 369.841 180.118 368.056C180.432 366.077 176.933 361.468 168.487 364.677C161.754 367.235 164.312 368.442 165.615 368.828Z" fill="#562F5E"/>
<path d="M168.487 364.677C168.873 364.532 169.235 364.412 169.621 364.291C168.004 365.956 171.045 368.056 175.847 368.056C178.791 368.056 179.684 367.308 179.829 366.584C180.094 367.114 180.191 367.645 180.143 368.056C179.877 369.865 168.68 369.142 166.556 368.997C166.243 368.973 165.929 368.924 165.639 368.828C164.312 368.442 161.754 367.235 168.487 364.677Z" fill="#481F52"/>
<path d="M166.001 365.763L170.321 350.85C170.418 350.536 170.731 350.343 171.069 350.415L172.903 350.874C173.265 350.97 173.458 351.332 173.337 351.67L168.608 365.16C168.366 365.884 167.715 366.391 166.967 366.487L166.701 366.511C166.243 366.608 165.881 366.173 166.001 365.763Z" fill="#E85653"/>
<path d="M205.481 370.565C205.77 370.662 206.084 370.71 206.398 370.734C208.521 370.879 219.694 371.579 219.984 369.793C220.298 367.814 216.799 363.205 208.352 366.415C201.62 368.973 204.178 370.179 205.481 370.565Z" fill="#562F5E"/>
<path d="M208.328 366.415C208.714 366.27 209.076 366.149 209.463 366.029C207.846 367.694 210.886 369.793 215.688 369.793C218.633 369.793 219.525 369.045 219.67 368.321C219.936 368.852 220.032 369.383 219.984 369.793C219.718 371.603 208.521 370.879 206.398 370.734C206.084 370.71 205.77 370.662 205.481 370.565C204.178 370.179 201.62 368.973 208.328 366.415Z" fill="#481F52"/>
<path d="M205.843 367.501L206.784 350.464C206.88 350.15 207.194 349.957 207.532 350.029L209.366 350.488C209.728 350.584 209.921 350.946 209.8 351.284L208.449 366.921C208.208 367.645 207.556 368.152 206.808 368.249L206.543 368.273C206.084 368.345 205.722 367.911 205.843 367.501Z" fill="#F5735D"/>
<path d="M181.035 251.524C181.035 251.524 179.805 298.219 180.118 304.034C180.432 309.85 169.356 352.515 169.356 352.515C169.356 352.515 168.125 351.743 167.835 352.66C167.522 353.577 165.857 357.245 167.522 357.872C169.211 358.475 172.734 360.02 173.193 358.934C173.651 357.872 175.799 353.721 173.193 353.263C173.193 353.263 190.543 312.287 191.919 305.724C193.294 299.136 196.045 282.75 196.045 282.75C196.045 282.75 205.24 306.785 205.529 308.016C205.843 309.247 205.988 354.88 205.988 354.88C205.988 354.88 204.467 354.735 204.298 355.797C204.154 356.859 203.695 360.092 204.902 360.382C206.132 360.695 211.49 361.444 211.779 360.382C212.093 359.32 213.01 355.025 210.09 354.88C210.09 354.88 218.053 308.016 217.595 303.431C217.136 298.846 211.176 252.296 211.176 252.296L181.035 251.524Z" fill="#201F59"/>
<path d="M196.021 282.75C196.021 282.75 193.029 273.797 192.039 268.054C192.039 268.054 181.397 268.44 180.915 255.626C180.625 267.137 179.853 299.28 180.094 304.034C180.408 309.85 169.332 352.515 169.332 352.515C169.332 352.515 168.101 351.743 167.811 352.66C167.498 353.577 165.832 357.245 167.498 357.872C169.187 358.475 172.71 360.02 173.168 358.934C173.627 357.872 175.775 353.721 173.168 353.263C173.168 353.263 190.519 312.287 191.895 305.724C193.27 299.136 196.021 282.75 196.021 282.75Z" fill="#201F59"/>
<path d="M192.015 268.03C191.991 267.813 191.774 267.692 191.581 267.716C191.364 267.74 191.243 267.958 191.267 268.151C191.291 268.223 192.377 274.473 195.78 284.319C195.949 283.329 196.045 282.75 196.045 282.75C196.045 282.75 196.045 282.774 196.069 282.823C193.029 273.773 192.015 268.102 192.015 268.03Z" fill="#020139"/>
<path d="M172.638 353.384H172.662C172.855 353.384 173.024 353.215 173.048 353.022C173.048 352.804 172.903 352.635 172.686 352.611C172.662 352.611 171.214 352.515 169.573 351.718C169.452 352.153 169.38 352.418 169.38 352.467C171.069 353.287 172.541 353.384 172.638 353.384Z" fill="#1A1A1A"/>
<path d="M201.764 177.512L201.161 192.522L206.977 192.981L206.518 186.851C206.518 186.851 209.728 188.999 212.334 187.31C214.651 185.814 213.396 175.075 213.396 175.075L201.764 177.512Z" fill="#F5735D"/>
<path d="M209.607 191.678C209.607 191.678 208.98 188.565 208.546 188.54C208.111 188.516 199.038 187.382 198.097 188.178C197.155 188.975 197.035 190.712 197.035 190.712L209.607 191.678Z" fill="#EFEFEF"/>
<path d="M214.699 199.496C214.699 199.496 212.648 191.919 210.983 190.929C209.318 189.94 197.638 188.613 196.238 189.795C194.839 191.002 195.008 200.172 195.008 200.172L214.699 199.496Z" fill="#020139"/>
<path d="M264.41 222.518C254.347 224.81 243.03 221.697 243.03 221.697C232.749 202.513 224.496 196.142 211.803 193.053C204.998 191.412 182.411 190.109 177.657 202.537C173.144 214.41 179.177 257.002 179.177 257.002C202.271 267.909 213.782 257.098 213.782 257.098C216.388 248.532 223.652 226.644 223.652 226.644C223.652 226.644 230.626 238.203 238.203 239.362C246.987 240.689 259.439 232.267 266.148 227.585C266.317 225.727 265.569 223.942 264.41 222.518Z" fill="#020139"/>
<path d="M218.15 215.327C218.15 215.327 215.713 246.408 193.511 245.636C183.545 245.298 178.743 238.348 176.523 230.843C177.512 243.995 179.201 257.026 179.201 257.026C202.295 267.933 213.806 257.122 213.806 257.122C216.34 248.773 223.314 227.585 223.652 226.717C221.963 223.869 219.936 220.056 218.15 215.327Z" fill="#020139"/>
<path d="M198.483 262.287C193.318 262.287 186.875 261.08 179.177 257.46C178.96 257.364 178.888 257.123 178.984 256.905C179.081 256.688 179.322 256.616 179.539 256.712C200.92 266.727 212.165 257.943 213.396 256.905C213.565 256.761 213.83 256.785 213.975 256.954C214.12 257.123 214.096 257.388 213.927 257.533C213.106 258.233 207.942 262.287 198.483 262.287Z" fill="#020139"/>
<path d="M266.172 226.644C261.321 230.119 258.064 232.822 252.441 235.476C244.26 239.337 237.986 239.893 233.835 237.142C224.255 230.819 218.126 214.12 218.078 213.951C218.005 213.758 217.788 213.637 217.595 213.71C217.402 213.782 217.281 213.999 217.354 214.192C217.378 214.241 218.922 218.512 221.649 223.507C224.183 228.14 228.285 234.366 233.401 237.769C235.259 239 237.479 239.603 240.086 239.603C243.633 239.603 247.88 238.445 252.779 236.152C258.281 233.57 261.394 230.988 266.172 227.585C266.196 227.272 266.196 226.958 266.172 226.644Z" fill="#010020"/>
<path d="M206.736 182.339C206.736 182.339 203.526 187.696 199.544 185.403C195.563 183.111 197.71 178.212 197.71 178.212C197.71 178.212 195.273 179.129 195.273 178.212C195.273 177.295 197.566 177.44 197.566 177.44C197.566 177.44 194.356 176.064 195.273 174.375C196.19 172.686 198.193 174.689 198.193 174.689C198.193 174.689 199.882 168.415 208.594 166.725C217.329 165.036 219.912 176.523 207.218 178.815C207.218 178.815 204.491 176.33 203.84 179.588C202.923 184.173 206.736 182.339 206.736 182.339Z" fill="#582C5F"/>
<path d="M197.566 177.44C197.566 177.44 195.273 177.295 195.273 178.212C195.273 179.129 197.71 178.212 197.71 178.212C197.71 178.212 195.563 183.111 199.544 185.403C203.526 187.696 206.736 182.339 206.736 182.339C206.736 182.339 202.899 184.173 203.816 179.588C204.467 176.354 207.194 178.815 207.194 178.815C213.927 177.609 216.364 173.796 215.857 170.755C215.23 175.461 204.926 177.995 201.378 176.668C198.772 175.702 199.158 173.337 199.786 171.721C198.531 173.337 198.169 174.689 198.169 174.689C198.169 174.689 196.19 172.71 195.249 174.375C194.356 176.064 197.566 177.44 197.566 177.44Z" fill="#4A1C53"/>
<path d="M263.686 227.079C263.807 227.296 263.493 227.706 262.962 227.996C262.431 228.285 261.925 228.382 261.804 228.165C261.683 227.947 261.997 227.537 262.528 227.248C263.059 226.934 263.566 226.861 263.686 227.079Z" fill="#1A1A1A"/>
<path d="M430.388 366.873L428.723 351.067L425.682 351.839L427.95 366.584L430.388 366.873Z" fill="#EE7461"/>
<path d="M430.508 369.021C430.219 369.117 429.905 369.166 429.591 369.19C427.468 369.335 416.367 370.034 416.102 368.249C415.788 366.27 419.263 361.685 427.661 364.894C434.345 367.452 431.787 368.659 430.508 369.021Z" fill="#562F5E"/>
<path d="M427.661 364.894C427.275 364.75 426.913 364.629 426.551 364.508C428.167 366.149 425.151 368.249 420.373 368.249C417.429 368.249 416.56 367.501 416.415 366.801C416.15 367.332 416.053 367.863 416.126 368.249C416.391 370.034 427.492 369.335 429.615 369.19C429.929 369.166 430.243 369.117 430.532 369.021C431.787 368.659 434.345 367.452 427.661 364.894Z" fill="#371443"/>
<path d="M450.755 349.016L441.633 335.985L439.34 338.108L448.486 349.909L450.755 349.016Z" fill="#E15857"/>
<path d="M451.696 350.198C451.503 350.439 451.285 350.681 451.068 350.874C449.476 352.274 441.005 359.489 439.702 358.21C438.279 356.81 438.303 351.067 446.942 348.605C453.819 346.651 452.492 349.136 451.696 350.198Z" fill="#562F5E"/>
<path d="M446.942 348.63C446.556 348.75 446.17 348.871 445.808 348.992C448.1 349.354 446.918 352.829 443.105 355.7C440.764 357.462 439.606 357.389 439.075 356.907C439.196 357.486 439.413 357.969 439.702 358.258C441.005 359.513 449.452 352.298 451.068 350.922C451.31 350.729 451.527 350.488 451.696 350.246C452.492 349.136 453.819 346.651 446.942 348.63Z" fill="#371443"/>
<path d="M415.86 248.797L407.945 299.811C407.873 300.342 408.018 300.897 408.355 301.332L441.416 342.935L445.373 339.435L419.987 302.176L434.659 251.162L415.86 248.797Z" fill="#E9AD68"/>
<path d="M443.708 252.296L425.441 309.319L430.315 356.014L424.837 356.617L416.946 307.799L421.797 249.425L443.708 252.296Z" fill="#F0BD78"/>
<path d="M428.771 356.183L430.315 356.014L425.441 309.343L443.684 252.32L421.797 249.425L420.88 260.549C422.473 258.691 427.685 253.648 432.994 259.391C438.761 265.617 422.352 309.416 422.352 309.416L428.771 356.183Z" fill="#E9AD68"/>
<path d="M417.236 307.727L421.362 258.064C421.362 257.991 421.362 257.919 421.338 257.871L419.963 254.951C419.866 254.758 419.649 254.685 419.456 254.782C419.263 254.878 419.191 255.095 419.287 255.289L420.614 258.112L416.512 307.702C416.512 307.727 416.512 307.751 416.512 307.775L416.995 312.167L417.887 313.277L417.236 307.727Z" fill="#CF873F"/>
<path d="M411.999 214.072C411.999 214.072 411.227 244.188 413.978 249.811C413.978 249.811 432.825 256.35 445.759 253.165C445.759 253.165 456.715 225.486 455.798 212.72C454.881 199.955 446.99 196.142 430.243 191.895C430.243 191.895 421.121 192.498 398.461 206.181C375.802 219.839 411.999 214.072 411.999 214.072Z" fill="#068CD5"/>
<path d="M431.401 192.16C430.798 192.064 430.195 191.991 429.567 191.943C428.457 192.136 426.72 192.281 421.869 194.235C421.025 197.228 420.687 208.98 426.623 209.8C433.308 210.717 440.282 197.831 441.054 195.08C437.748 193.705 435.045 193.101 431.401 192.16Z" fill="#EDEDED"/>
<path d="M465.596 172.927C458.163 165.181 448.969 182.097 442.478 181.784L440.088 181.446C441.199 179.177 441.536 176.33 439.944 172.903C435.479 163.323 421.266 166.243 419.359 173.531C417.453 180.818 423.944 182.701 423.944 182.701L433.766 187.599C433.766 187.599 436.855 186.079 439.003 183.183L440.74 184.124C440.74 184.124 441.367 191.871 449.765 192.353C458.163 192.836 459.587 183.811 464.654 191.098C464.654 191.122 473.052 180.673 465.596 172.927Z" fill="#4D4D4D"/>
<path d="M426.671 190.736C426.671 190.736 431.184 188.927 436.179 190.278L435.286 193.898L426.695 195.707V190.736H426.671Z" fill="#B8B8B8"/>
<path d="M464.413 178.864C458.549 176.402 456.981 182.99 449.838 185.524C442.719 188.058 440.33 183.159 440.33 183.159L441.078 181.615L440.064 181.47C441.174 179.201 441.512 176.354 439.92 172.927C438.785 170.466 436.976 168.849 434.924 167.884C436.855 169.525 438.134 171.938 436.662 174.737C434.2 179.419 426.768 175.292 426.768 175.292C426.84 178.864 431.063 185.283 432.27 186.924L433.718 187.648C433.718 187.648 436.807 186.127 438.954 183.231L440.692 184.173C440.692 184.173 441.319 191.919 449.717 192.401C458.115 192.884 459.539 183.859 464.606 191.147C464.606 191.147 464.606 191.122 464.63 191.098C466.875 186.851 468.757 180.673 464.413 178.864Z" fill="#333333"/>
<path d="M433.887 195.587L434.104 183.521L428.143 184.921L427.806 196.914L429.929 199.4L433.887 195.587Z" fill="#EE7461"/>
<path d="M436.179 190.736C436.179 190.736 439.34 197.059 432.559 203.864C432.559 203.864 431.208 199.786 429.857 199.351L428.047 208.401L428.94 198.893C428.94 198.893 427.13 200.244 426.671 202.513C426.671 202.513 423.052 197.083 425.778 192.112L428.722 197.324L430.074 197.783L436.179 190.736Z" fill="#D4D4D4"/>
<path d="M436.638 193.898C436.638 193.898 436.638 190.736 436.179 190.278C436.179 190.278 432.101 196.166 429.398 197.517C429.398 197.517 433.018 198.869 433.018 202.03C433.018 202.054 436.638 197.517 436.638 193.898Z" fill="#EDEDED"/>
<path d="M426.671 190.736C426.671 190.736 426.671 195.249 429.374 197.517C429.374 197.517 427.106 198.41 426.671 201.137C426.671 201.137 423.51 193.898 426.671 190.736Z" fill="#EDEDED"/>
<path d="M437.169 185.283C437.169 185.283 440.426 182.435 441.03 177.705C441.03 177.705 445.325 178.791 443.105 183.207C441.126 187.213 437.169 185.283 437.169 185.283Z" fill="#FFB002"/>
<path d="M439.558 182.146C438.448 184.148 437.169 185.259 437.169 185.259C437.169 185.259 441.102 187.189 443.105 183.207C443.298 182.821 443.443 182.459 443.539 182.146C441.995 183.497 439.968 182.411 439.558 182.146Z" fill="#EF9500"/>
<path d="M422.858 178.14C422.858 178.14 421.748 188.106 426.647 187.792C431.546 187.479 433.935 184.004 433.935 184.004C433.935 184.004 437.579 184.631 437.579 181.639C437.579 178.622 434.731 177.995 433.79 180.046C433.79 180.046 428.891 179.877 426.816 175.292C426.816 175.292 425.223 177.512 422.858 178.14Z" fill="#EE7461"/>
<path d="M424.741 183.521C424.741 183.521 426.623 184.462 428.216 183.304C428.216 183.328 426.551 187.937 424.741 183.521Z" fill="white"/>
<path d="M433.621 180.215C433.597 180.215 433.597 180.215 433.573 180.215C429.446 179.708 427.419 176.692 426.768 175.485C425.03 177.874 421.797 178.598 421.652 178.646C421.483 178.695 421.314 178.574 421.266 178.405C421.218 178.236 421.338 178.067 421.507 178.019C421.531 178.019 425.03 177.223 426.526 174.689L426.864 174.134L427.106 174.737C427.13 174.785 428.843 179.008 433.645 179.612C433.814 179.636 433.935 179.781 433.911 179.974C433.911 180.094 433.79 180.215 433.621 180.215Z" fill="#1A1A1A"/>
<path d="M428.071 187.623C428.071 187.623 430.629 186.948 432.029 185.114C432.029 185.114 432.487 189.24 428.023 190.64L428.071 187.623Z" fill="#E15857"/>
<path d="M412.144 218.102C412.144 218.102 412.313 205.698 414.726 199.737C415.329 198.217 416.077 196.986 416.97 196.263C416.97 196.263 396.917 203.019 393.176 203.019C389.436 203.019 373.364 199.327 373.364 199.327L372.544 203.816C372.544 203.816 389.195 217.691 394.576 218.512C399.982 219.332 412.144 218.102 412.144 218.102Z" fill="#068CD5"/>
<path d="M411.83 218.271C411.83 218.271 411.806 218.271 411.83 218.271C411.637 218.271 411.468 218.102 411.468 217.909C411.468 217.788 411.806 206.905 413.93 200.751C414.002 200.558 414.195 200.461 414.388 200.534C414.581 200.606 414.678 200.799 414.605 200.992C412.53 207.025 412.192 217.836 412.192 217.933C412.168 218.126 412.023 218.271 411.83 218.271Z" fill="#027EC1"/>
<path d="M455.798 212.696C455.726 211.634 455.605 210.621 455.412 209.68C451.334 206.615 444.167 202.295 440.692 206.422C435.262 212.841 434.514 225.462 434.514 225.462L417.332 229.106C417.332 229.106 410.793 229.106 412.506 241.606C412.82 245.322 413.302 248.363 413.978 249.786C413.978 249.786 432.825 256.326 445.759 253.141C445.759 253.141 456.691 225.462 455.798 212.696Z" fill="#027EC1"/>
<path d="M335.357 247.832L328.021 249.569C328.021 249.569 326.187 250.51 325.777 254.01C325.367 257.509 320.227 256.085 317.017 254.878C313.832 253.648 301.235 246.842 304.445 244.212C307.654 241.582 320.227 245.419 333.089 241.027L335.357 247.832Z" fill="#4B0082"/>
<path d="M304.445 244.212C304.638 244.067 304.855 243.947 305.096 243.826C309.464 243.006 322.833 251.234 322.833 251.234C322.833 251.234 324.208 249.569 325.27 248.676C326.115 248.001 334.754 246.263 334.754 246.263C334.754 246.263 334.875 247.035 335.019 247.904L328.021 249.569C328.021 249.569 326.187 250.51 325.777 254.01C325.367 257.509 320.227 256.085 317.017 254.878C313.832 253.672 301.235 246.842 304.445 244.212Z" fill="#40006E"/>
<path d="M333.668 248.242C333.668 248.242 346.41 245.057 354.494 245.033C362.554 245.008 381.811 249.256 381.811 249.256C381.811 249.256 387.699 258.281 395.131 255.626C402.564 252.972 417.525 233.425 420.904 228.864C424.282 224.303 421.748 221.866 421.748 221.866L410.576 209.921C410.576 209.921 399.933 178.116 390.015 174.882C380.097 171.648 365.835 186.875 358.379 196.842C350.922 206.808 353.384 212.31 354.397 214.916C355.411 217.498 355.628 221.528 355.628 221.528C355.628 221.528 356.569 223.362 361.637 227.851C366.704 232.339 361.371 234.994 361.371 234.994C345.348 236.2 331.472 241.606 331.472 241.606C335.044 242.716 333.668 248.242 333.668 248.242ZM363.036 209.414C363.036 209.414 357.969 208.763 360.14 203.55C362.312 198.338 380.097 180.046 385.43 179.539C390.763 179.008 399.813 188.878 396.145 194.622L390.474 187.889C390.474 187.889 388.688 185.379 382.969 189.795C377.298 194.163 363.036 209.414 363.036 209.414Z" fill="#4B0082"/>
<path d="M368.731 210.573C360.502 216.774 360.913 214.989 360.913 214.989C360.913 214.989 359.996 213.541 358.572 206.76C357.124 199.979 371.941 186.61 378.384 181.735C384.827 176.861 385.961 176.764 391.656 180.046C397.351 183.328 401.043 193.343 398.486 194.742C397.665 195.201 396.893 194.959 396.241 194.453C399.668 188.685 390.739 178.984 385.454 179.515C380.121 180.046 362.336 198.314 360.164 203.526C357.993 208.739 363.06 209.39 363.06 209.39C363.06 209.39 377.298 194.139 383.017 189.747C386.806 186.827 388.881 186.948 389.822 187.358C392.79 191.388 369.745 209.8 368.731 210.573Z" fill="#40006F"/>
<path d="M372.954 202.464C373.364 202.899 376.719 200.341 380.459 196.745C384.2 193.174 386.902 189.916 386.492 189.482C386.082 189.047 382.728 191.605 378.987 195.201C375.247 198.772 372.544 202.03 372.954 202.464Z" fill="#24003E"/>
<path d="M333.668 248.242C333.668 248.242 333.861 247.47 333.909 246.432C336.274 245.877 352.298 242.257 361.902 242.378C372.279 242.499 379.663 243.319 379.325 239.893C378.987 236.466 375.633 233.715 375.633 233.715C375.633 233.715 375.03 231.471 379.397 232.967C383.765 234.463 398.292 241.461 407.438 229.033C411.348 223.724 411.541 216.412 410.503 209.776C410.527 209.849 410.551 209.897 410.551 209.897L421.724 221.842C421.724 221.842 424.282 224.279 420.88 228.84C417.501 233.401 402.516 252.948 395.107 255.602C387.675 258.257 381.786 249.231 381.786 249.231C381.786 249.231 362.529 244.984 354.469 245.008C346.409 245.057 333.668 248.242 333.668 248.242Z" fill="#40006F"/>
<path d="M386.685 253.672C395.735 252.779 412.554 233.16 416.729 226.813C421.218 220.032 418.37 217.643 418.249 217.547C418.08 217.426 417.839 217.45 417.718 217.619C417.598 217.788 417.622 218.029 417.767 218.15C417.815 218.198 420.132 220.274 416.078 226.379C414.075 229.419 408.404 236.442 402.057 242.595C397.786 246.746 389.919 253.575 385.358 252.899C385.141 252.875 384.948 253.02 384.924 253.213C384.899 253.43 385.044 253.623 385.237 253.648C385.72 253.72 386.203 253.72 386.685 253.672Z" fill="#24003E"/>
<path d="M360.792 226.113C369.865 225.51 387.288 206.422 391.68 200.196C396.386 193.56 393.611 191.098 393.49 190.978C393.321 190.833 393.08 190.857 392.959 191.026C392.815 191.195 392.839 191.436 393.008 191.557C393.056 191.605 395.3 193.753 391.077 199.737C388.978 202.706 383.09 209.559 376.55 215.495C372.158 219.501 364.074 226.113 359.537 225.269C359.32 225.22 359.127 225.365 359.103 225.582C359.054 225.8 359.199 225.993 359.416 226.017C359.827 226.113 360.285 226.137 360.792 226.113Z" fill="#24003E"/>
<path d="M381.811 249.618C381.98 249.593 382.1 249.497 382.148 249.328C382.197 249.063 383.5 242.981 377.901 235.501C374.933 231.543 371.555 230.409 369.238 230.167C366.728 229.878 364.918 230.554 364.846 230.578C364.653 230.65 364.556 230.867 364.629 231.06C364.701 231.253 364.918 231.35 365.112 231.278C365.401 231.181 371.965 228.864 377.274 235.959C380.097 239.724 381.063 243.102 381.376 245.274C381.714 247.639 381.4 249.135 381.4 249.135C381.352 249.352 381.473 249.545 381.69 249.593C381.738 249.618 381.786 249.618 381.811 249.618Z" fill="#24003E"/>
<path d="M337.119 247.832C337.288 247.808 337.408 247.711 337.457 247.542C337.505 247.349 338.494 242.909 335.044 240.086C334.875 239.965 334.633 239.989 334.513 240.134C334.392 240.303 334.416 240.544 334.561 240.665C337.65 243.15 336.733 247.301 336.709 247.349C336.66 247.566 336.781 247.759 336.998 247.808C337.022 247.832 337.071 247.832 337.119 247.832Z" fill="#24003E"/>
<path d="M306.568 246.746C307.485 247.253 308.402 247.373 308.619 247.011C308.812 246.649 308.233 245.925 307.316 245.419C306.399 244.912 305.482 244.791 305.265 245.153C305.048 245.515 305.627 246.239 306.568 246.746Z" fill="#24003E"/>
<path d="M321.289 254.637C322.206 255.144 323.123 255.264 323.34 254.902C323.533 254.54 322.954 253.816 322.037 253.31C321.12 252.803 320.203 252.682 319.985 253.044C319.792 253.406 320.372 254.13 321.289 254.637Z" fill="#24003E"/>
<path d="M314.097 250.872C315.014 251.379 315.931 251.5 316.148 251.138C316.341 250.776 315.762 250.052 314.845 249.545C313.928 249.038 313.011 248.918 312.794 249.28C312.577 249.642 313.18 250.342 314.097 250.872Z" fill="#24003E"/>
<path d="M318.224 251.548C319.141 252.055 320.058 252.176 320.275 251.814C320.468 251.452 319.889 250.728 318.972 250.221C318.055 249.714 317.138 249.593 316.921 249.955C316.703 250.317 317.283 251.041 318.224 251.548Z" fill="#24003E"/>
<path d="M316.51 253.961C317.427 254.468 318.344 254.589 318.562 254.227C318.755 253.865 318.175 253.141 317.258 252.634C316.341 252.127 315.424 252.007 315.207 252.369C314.99 252.731 315.569 253.43 316.51 253.961Z" fill="#24003E"/>
<path d="M311.37 247.784C312.287 248.29 313.204 248.411 313.422 248.049C313.615 247.687 313.035 246.963 312.118 246.456C311.201 245.95 310.284 245.829 310.067 246.191C309.85 246.553 310.429 247.277 311.37 247.784Z" fill="#24003E"/>
<path d="M309.657 250.173C310.574 250.679 311.491 250.8 311.708 250.438C311.901 250.076 311.322 249.352 310.405 248.845C309.488 248.339 308.571 248.218 308.354 248.58C308.137 248.942 308.716 249.666 309.657 250.173Z" fill="#24003E"/>
<path d="M301.935 256.688C302.007 256.133 296.24 262.649 296.433 264.941C296.529 266.341 300.101 269.14 301.935 256.688Z" fill="#479BDB"/>
<path d="M306.013 272.832C305.892 272.084 301.09 283.016 302.297 285.936C303.021 287.697 308.861 289.869 306.013 272.832Z" fill="#479BDB"/>
<path d="M320.396 257.412C320.227 256.664 316.221 267.909 317.645 270.733C318.489 272.446 324.474 274.159 320.396 257.412Z" fill="#479BDB"/>
<path d="M327.273 287.866C327.032 287.456 326.718 295.033 328.094 296.481C328.938 297.374 332.896 297.302 327.273 287.866Z" fill="#479BDB"/>
<path d="M296.433 306.013C296.409 305.531 292.451 311.998 292.934 313.928C293.247 315.111 296.747 316.993 296.433 306.013Z" fill="#479BDB"/>
<path d="M275.68 281.689C275.728 281.351 272.06 285.26 272.132 286.684C272.181 287.552 274.328 289.338 275.68 281.689Z" fill="#479BDB"/>
<path d="M278.141 319.044C278.141 318.706 275.101 323.122 275.366 324.522C275.535 325.367 277.948 326.815 278.141 319.044Z" fill="#479BDB"/>
<path d="M313.373 264.917C313.325 264.579 310.912 269.381 311.394 270.709C311.684 271.529 314.242 272.639 313.373 264.917Z" fill="#479BDB"/>
<path d="M314.121 316.679C314.001 316.366 312.818 321.602 313.59 322.785C314.049 323.509 316.824 323.967 314.121 316.679Z" fill="#479BDB"/>
<path d="M286.008 283.426C285.96 282.654 280.192 293.127 281.133 296.143C281.688 297.977 287.311 300.632 286.008 283.426Z" fill="#479BDB"/>
<path d="M412.844 244.96C412.892 245.25 412.916 245.539 412.965 245.805C414.485 246.312 418.635 247.591 424.017 248.58C429.181 249.521 433.669 249.883 437.458 249.883C441.561 249.883 444.842 249.473 447.328 248.966C447.424 248.701 447.521 248.411 447.642 248.121C432.608 251.331 415.185 245.757 412.844 244.96Z" fill="#068CD5"/>
<path d="M411.155 230.264C411.155 230.264 409.128 225.172 408.042 225.486C406.956 225.8 408.5 228.068 407.728 228.068C406.956 228.068 403.915 224.11 402.709 224.714C401.671 225.22 405.749 228.358 405.436 228.527C405.122 228.671 401.019 227.006 400.416 227.465C399.813 227.923 401.019 228.985 403.915 229.588C403.915 229.588 405.122 229.902 404.977 230.047C404.832 230.192 400.73 229.902 400.73 230.505C400.73 231.109 401.792 231.278 404.977 231.422C404.977 231.422 405.58 231.422 405.291 231.567C404.977 231.712 401.478 232.17 402.564 232.943C403.626 233.715 411.082 232.629 411.082 232.629L411.155 230.264Z" fill="#EE7461"/>
<path d="M455.871 205.167C452.878 200.099 445.784 196.962 442.019 195.563C441.536 196.721 440.981 197.855 440.402 198.965L441.609 204.853C435.6 212.986 437.048 227.199 437.048 227.199L411.203 229.781C410.6 230.843 410.6 232.822 410.6 232.822C416.367 236.321 437.362 243.464 445.422 239.506C453.433 235.573 460.166 212.431 455.871 205.167Z" fill="#068CD5"/>
</g>
<defs>
<clipPath id="clip0_43_3265">
<rect width="585.433" height="396" fill="white"/>
</clipPath>
</defs>
</svg>
