<svg width="230" height="172" viewBox="0 0 230 172" fill="none" xmlns="http://www.w3.org/2000/svg">
<g clip-path="url(#clip0_53_162)">
<path d="M230 150.604H0V150.742H230V150.604Z" fill="#EBEBEB"/>
<path d="M206.954 158.01H191.728V158.148H206.954V158.01Z" fill="#EBEBEB"/>
<path d="M152.352 159.298H148.35V159.436H152.352V159.298Z" fill="#EBEBEB"/>
<path d="M191.268 153.778H182.436V153.916H191.268V153.778Z" fill="#EBEBEB"/>
<path d="M44.022 154.514H24.15V154.652H44.022V154.514Z" fill="#EBEBEB"/>
<path d="M51.014 154.514H48.116V154.652H51.014V154.514Z" fill="#EBEBEB"/>
<path d="M103.592 156.492H60.49V156.63H103.592V156.492Z" fill="#EBEBEB"/>
<path d="M109.02 130.088H20.194C18.768 130.088 17.572 128.892 17.572 127.466V2.622C17.572 1.196 18.768 0 20.194 0H109.02C110.446 0 111.642 1.196 111.642 2.622V127.466C111.642 128.938 110.492 130.088 109.02 130.088ZM20.194 0.138C18.814 0.138 17.664 1.242 17.664 2.668V127.512C17.664 128.892 18.768 130.042 20.194 130.042H109.02C110.4 130.042 111.55 128.938 111.55 127.512V2.622C111.55 1.242 110.446 0.092 109.02 0.092H20.194V0.138Z" fill="#EBEBEB"/>
<path d="M208.518 130.088H119.692C118.266 130.088 117.07 128.892 117.07 127.466V2.622C117.07 1.196 118.266 0 119.692 0H208.518C209.944 0 211.14 1.196 211.14 2.622V127.466C211.14 128.938 209.99 130.088 208.518 130.088ZM119.692 0.138C118.312 0.138 117.162 1.242 117.162 2.668V127.512C117.162 128.892 118.266 130.042 119.692 130.042H208.518C209.898 130.042 211.048 128.938 211.048 127.512V2.622C211.048 1.242 209.944 0.092 208.518 0.092H119.692V0.138Z" fill="#EBEBEB"/>
<path d="M154.284 62.0079C164.827 62.0079 173.374 53.461 173.374 42.9179C173.374 32.3748 164.827 23.8279 154.284 23.8279C143.741 23.8279 135.194 32.3748 135.194 42.9179C135.194 53.461 143.741 62.0079 154.284 62.0079Z" fill="#F5F5F5"/>
<path d="M188.37 39.1461C188.37 37.4441 186.99 36.0181 185.242 36.0181C184.92 36.0181 184.644 36.0641 184.368 36.1561C184.414 35.8341 184.46 35.5121 184.46 35.1901C184.46 31.5561 181.516 28.6121 177.882 28.6121C177.468 28.6121 177.054 28.6581 176.686 28.7041C175.674 27.0481 173.834 25.9441 171.764 25.9441C168.59 25.9441 166.06 28.4741 166.014 31.6481C165.968 31.6481 165.968 31.6481 165.922 31.6481C162.978 31.6481 160.632 34.0401 160.632 36.9381C160.632 39.8821 163.024 42.2281 165.922 42.2281H185.38C187.036 42.2281 188.37 40.8481 188.37 39.1461Z" fill="#EBEBEB"/>
<path d="M139.196 56.3041C139.196 54.6021 137.816 53.1761 136.068 53.1761C135.746 53.1761 135.47 53.2221 135.194 53.3141C135.24 52.9921 135.286 52.6701 135.286 52.3481C135.286 48.7141 132.342 45.7701 128.708 45.7701C128.294 45.7701 127.88 45.8161 127.512 45.8621C126.5 44.2061 124.66 43.1021 122.59 43.1021C119.416 43.1021 116.886 45.6321 116.84 48.8061C116.794 48.8061 116.794 48.8061 116.748 48.8061C113.804 48.8061 111.458 51.1981 111.458 54.0961C111.458 57.0401 113.85 59.3861 116.748 59.3861H136.16C137.862 59.3401 139.196 58.0061 139.196 56.3041Z" fill="#EBEBEB"/>
<path d="M53.36 62.192C53.36 60.49 51.98 59.064 50.232 59.064C49.91 59.064 49.634 59.11 49.358 59.202C49.404 58.88 49.45 58.558 49.45 58.236C49.45 54.602 46.506 51.658 42.872 51.658C42.458 51.658 42.044 51.704 41.676 51.75C40.664 50.094 38.824 48.99 36.754 48.99C33.58 48.99 31.05 51.52 31.004 54.694C30.958 54.694 30.958 54.694 30.912 54.694C27.968 54.694 25.622 57.086 25.622 59.984C25.622 62.882 27.876 65.32 30.82 65.32H50.324C51.98 65.228 53.36 63.894 53.36 62.192Z" fill="#EBEBEB"/>
<path d="M186.576 77.0499C186.576 75.9919 185.748 75.1639 184.69 75.1639C184.506 75.1639 184.322 75.2099 184.138 75.2559C184.184 75.0719 184.184 74.8879 184.184 74.6579C184.184 72.4499 182.39 70.6559 180.182 70.6559C179.952 70.6559 179.676 70.7019 179.446 70.7019C178.848 69.6899 177.744 69.0459 176.456 69.0459C174.57 69.0459 173.006 70.5639 172.96 72.4959H172.914C171.12 72.4959 169.694 73.9219 169.694 75.7159C169.694 77.5099 171.12 78.9359 172.914 78.9359H184.69C185.794 78.8899 186.576 78.0619 186.576 77.0499Z" fill="#EBEBEB"/>
<path d="M72.864 16.5599C72.864 15.5019 72.036 14.6739 70.978 14.6739C70.794 14.6739 70.61 14.7199 70.426 14.7659C70.472 14.5819 70.472 14.3979 70.472 14.1679C70.472 11.9599 68.678 10.1659 66.47 10.1659C66.24 10.1659 65.964 10.2119 65.734 10.2119C65.136 9.19991 64.032 8.55591 62.744 8.55591C60.858 8.55591 59.294 10.0739 59.248 12.0059H59.202C57.408 12.0059 55.982 13.4319 55.982 15.2259C55.982 17.0199 57.408 18.4459 59.202 18.4459H70.978C72.082 18.3999 72.864 17.5719 72.864 16.5599Z" fill="#EBEBEB"/>
<path d="M41.354 86.802L53.774 143.382L56.074 142.324L42.964 86.48L41.354 86.802Z" fill="#EBEBEB"/>
<path d="M184.368 143.106C184.368 143.106 176.686 89.93 193.982 34.96L191.268 32.844C191.268 32.844 170.936 74.428 173.926 144.578L184.368 143.106Z" fill="#E6E6E6"/>
<path d="M198.72 20.5162C205.068 16.3302 214.498 23.0002 215.786 33.3502C215.786 33.3502 214.682 32.6602 212.888 31.9702C212.382 29.3482 211.922 27.0482 211.922 27.0482L212.244 31.7402C211.692 31.5562 211.094 31.3262 210.404 31.1422L209.944 28.6122L209.714 30.9582C208.886 30.7742 207.966 30.5902 207 30.4522L205.804 23.0922L205.206 30.3602C204.286 30.3142 203.366 30.3602 202.4 30.4982L201.664 25.4842V30.5902C200.882 30.7282 200.1 30.9122 199.272 31.1422L198.398 23.6902C198.398 23.6902 198.444 27.8762 198.398 31.4182C196.374 32.1542 194.304 33.3042 192.28 35.0062L192.234 34.0862C192.188 34.1322 192.924 24.3342 198.72 20.5162Z" fill="#E0E0E0"/>
<path d="M189.934 17.2041C184.874 11.5001 174.064 15.4561 170.108 25.1161C170.108 25.1161 171.35 24.7481 173.282 24.5181C174.432 22.1261 175.49 20.0101 175.49 20.0101L173.926 24.4261C174.524 24.3801 175.168 24.3341 175.858 24.3341L176.962 22.0341L176.548 24.3341C177.422 24.3801 178.342 24.4261 179.308 24.5641L182.39 17.8021L181.102 24.9321C181.976 25.1621 182.896 25.4381 183.77 25.8061L185.794 21.1601L184.46 26.1281C185.196 26.4501 185.886 26.8181 186.622 27.2781L189.428 20.3321C189.428 20.3321 188.324 24.3801 187.404 27.8301C189.198 29.0721 190.9 30.7281 192.372 32.9361L192.694 32.0621C192.694 32.0161 194.534 22.4021 189.934 17.2041Z" fill="#E0E0E0"/>
<path d="M185.058 30.6819C190.118 25.7599 193.936 30.0379 193.936 30.0379C192.05 30.5439 190.348 31.7399 188.876 33.3039L188.186 32.4299L188.278 33.9479C187.91 34.3619 187.588 34.7759 187.266 35.1899L186.116 32.5679L186.622 36.1559C186.162 36.8459 185.702 37.5359 185.334 38.2259L184.828 35.6039L184.874 39.0539C184.46 39.8359 184.092 40.6179 183.724 41.3079L183.172 36.5239L183.08 42.7339C182.252 44.6659 181.838 45.9999 181.838 45.9999C181.838 45.9999 179.998 35.6039 185.058 30.6819Z" fill="#E0E0E0"/>
<path d="M198.72 42.32L197.662 42.918C197.524 42.136 197.34 41.262 197.11 40.434L197.8 39.146L196.926 39.698C196.834 39.422 196.788 39.146 196.696 38.87L197.616 36.34L196.236 37.352C195.5 35.052 194.58 33.028 193.384 32.062C193.384 32.062 204.976 35.788 198.444 48.3C198.444 48.3 198.214 46.322 197.754 43.7L198.72 42.32Z" fill="#E0E0E0"/>
<path d="M187.312 32.1079L185.472 28.6119L186.254 32.2459C186.07 32.2919 185.886 32.2919 185.702 32.3379L183.31 29.3479L183.908 32.7979C183.126 33.0279 182.344 33.3039 181.47 33.6719C180.642 34.0399 179.768 34.4539 178.94 34.9599L177.79 31.9239L178.342 35.3279C177.56 35.7879 176.778 36.2939 176.042 36.8459L175.444 34.1319L175.49 37.2139C174.57 37.8579 173.696 38.5479 172.914 39.1919L173.006 34.3159L172.316 39.7439C171.488 40.4339 170.798 41.0779 170.154 41.6759L170.062 38.2719L169.188 42.5959C168.314 43.4699 167.762 44.0679 167.762 44.0679C168.222 32.1999 172.822 27.5079 180.412 26.2199C188.002 24.9319 193.522 32.8439 193.522 32.8439C193.522 32.8439 191.176 31.7399 187.312 32.1079Z" fill="#E0E0E0"/>
<path d="M209.484 46.5981L208.794 50.1401C208.472 49.2661 208.012 48.1161 207.414 46.8741L208.058 41.6761L206.908 45.7701C206.08 44.0681 205.022 42.1821 203.826 40.4341L204.93 36.8461L203.182 39.5141C202.814 39.0541 202.446 38.5941 202.078 38.1801L202.676 35.9261L201.71 37.8121C201.434 37.5361 201.204 37.2601 200.928 36.9841L201.664 33.9481L200.468 36.5701C199.686 35.8801 198.904 35.2821 198.03 34.8221L199.226 31.1421C199.226 31.1421 198.352 32.6601 197.34 34.5001C196.144 33.9481 194.856 33.6721 193.522 33.7181C193.522 33.7181 195.822 30.0381 200.054 28.7961C204.286 27.5081 213.394 35.1901 209.438 52.0721C209.438 52.0721 209.3 51.7041 209.07 51.0141L209.484 46.5981Z" fill="#E0E0E0"/>
<path d="M202.538 13.8L203.274 15.962C203.044 15.962 202.768 16.008 202.492 16.054L201.618 13.248L202.216 16.1C201.756 16.238 201.204 16.468 200.652 16.836L199.456 13.064L200.146 17.158C199.962 17.296 199.778 17.434 199.548 17.618L198.214 14.076L199.18 17.94C198.352 18.722 197.478 19.826 196.65 21.298L196.282 16.1L195.684 23.184C194.856 24.978 194.028 27.232 193.292 30.038C193.292 30.038 192.556 11.178 197.11 9.06196C201.664 6.94596 204.332 16.008 204.332 16.008C204.332 16.008 204.102 15.916 203.688 15.916L202.538 13.8Z" fill="#E0E0E0"/>
<path d="M196.052 34.776L195.638 38.364L194.258 34.914L192.418 37.6281L191.682 35.0981L189.566 36.892C189.566 36.892 189.842 32.3381 191.176 30.2681C192.556 28.1521 196.604 29.624 196.052 34.776Z" fill="#E0E0E0"/>
<path d="M139.38 92.2301V67.2981C139.38 67.2981 134.32 72.6801 130.962 71.9441C127.604 71.2081 123.234 73.7381 123.234 73.7381C123.234 73.7381 127.604 73.0941 129.26 74.8881C130.87 76.6821 138.138 76.8661 138.138 76.8661V93.1501L139.38 92.2301Z" fill="#EBEBEB"/>
<path d="M161.69 84.5942H160.54V86.1582H156.768V84.5942H153.042V86.1582H149.224V84.5942H145.498V86.1582H141.726V84.5942H138V86.1582H134.182V84.5942H130.502V86.1582H126.684V84.5942H122.958V86.1582H119.186V84.5942H117.898L114.218 114.126L165.508 113.942L161.69 84.5942Z" fill="#E0E0E0"/>
<path d="M169.832 106.03H168.268V108.192H163.07V106.03H157.964V108.192H152.72V106.03H147.614V108.192H142.416V106.03H137.31V108.192H132.066V106.03H126.96V108.192H121.762V106.03H116.656V108.192H111.458V106.03H109.664L104.604 146.602L175.122 146.326L169.832 106.03Z" fill="#EBEBEB"/>
<path d="M195.868 141.818C194.764 140.576 193.752 139.334 192.602 138.138C192.51 138.046 192.464 137.954 192.418 137.954C192.05 137.724 191.636 137.494 191.268 137.31C191.176 137.264 190.946 137.172 190.716 137.08C190.256 136.896 189.796 136.712 189.336 136.528C186.484 135.378 183.908 134.044 181.746 131.79C180.55 130.548 179.63 129.076 178.388 127.88C178.342 127.926 178.112 127.788 178.02 127.696C177.652 127.65 177.146 127.604 177.1 127.558C176.594 127.558 176.088 127.558 175.628 127.604C174.938 127.65 174.202 127.696 173.512 127.742C170.752 131.744 167.302 137.218 165.784 137.954C163.438 139.058 141.588 144.854 139.978 144.486C138.368 144.164 129.95 144.808 127.834 144.762C125.718 144.67 121.9 143.75 116.334 141.174C110.768 138.644 107.732 138.598 101.062 136.482C94.392 134.366 89.884 133.538 85.974 136.804C82.064 140.07 71.3 133.17 67.988 132.158C64.63 131.192 58.236 125.488 53.866 128.156C49.496 130.824 45.862 132.066 40.388 136.804C34.914 141.542 24.104 150.65 24.104 150.65H208.564L206.448 146.924C202.354 146.878 198.628 144.946 195.868 141.818Z" fill="#F5F5F5"/>
<path d="M19.872 96.5999C19.872 96.5999 25.254 86.9399 39.79 78.6139C39.79 78.6139 51.612 77.6019 64.998 83.4439C64.998 83.4439 67.712 87.9519 64.63 89.6999C61.548 91.4939 58.972 87.9059 58.972 87.9059C58.972 87.9059 58.42 93.3339 54.372 93.5179C50.37 93.6559 49.174 89.6999 49.174 89.6999C49.174 89.6999 48.76 94.6679 43.976 95.9559C39.79 97.0599 37.214 93.5179 37.214 93.5179C37.214 93.5179 36.386 97.6119 32.66 98.8079C29.67 99.7739 27.6 97.1979 27.6 97.1979C27.6 97.1979 26.726 101.66 23.552 101.66C20.884 101.614 19.872 96.5999 19.872 96.5999Z" fill="#E0E0E0"/>
<path d="M115 171.396C164.26 171.396 204.194 169.069 204.194 166.198C204.194 163.327 164.26 161 115 161C65.7395 161 25.806 163.327 25.806 166.198C25.806 169.069 65.7395 171.396 115 171.396Z" fill="#F5F5F5"/>
<path d="M176.64 143.52C176.64 143.52 178.664 140.576 180.458 139.794C182.298 138.966 182.574 135.884 183.586 135.7C184.598 135.516 185.656 138.414 187.404 139.242C189.152 140.07 191.728 143.52 191.728 143.52H176.64Z" fill="#4B0082"/>
<path opacity="0.8" d="M176.64 143.52C176.64 143.52 178.664 140.576 180.458 139.794C182.298 138.966 182.574 135.884 183.586 135.7C184.598 135.516 185.656 138.414 187.404 139.242C189.152 140.07 191.728 143.52 191.728 143.52H176.64Z" fill="white"/>
<path d="M191.176 164.588H176.64L174.8 143.474H193.016L191.176 164.588Z" fill="#4B0082"/>
<path d="M193.936 142.37H173.926V144.578H193.936V142.37Z" fill="#4B0082"/>
<path opacity="0.2" d="M193.936 142.37H173.926V144.578H193.936V142.37Z" fill="white"/>
<path d="M183.034 143.934C184.368 146.004 190.026 154.606 193.568 155.204L193.982 154.146C193.982 154.146 190.854 154.514 183.862 143.382C183.724 143.152 183.448 143.06 183.218 143.198C182.988 143.382 182.896 143.704 183.034 143.934Z" fill="#263238"/>
<path d="M162.334 137.31C162.978 137.126 163.622 137.494 163.806 138.092L166.29 146.786L169.51 145.498C169.51 145.498 171.442 152.766 167.762 153.87C164.174 154.974 161.414 148.304 161.414 148.304L164.68 147.384L161.552 138.782C161.368 138.184 161.69 137.494 162.334 137.31Z" fill="#4B0082"/>
<path opacity="0.4" d="M167.808 153.87C164.22 154.974 161.46 148.304 161.46 148.304L164.726 147.384C164.726 147.384 165.278 148.35 165.922 148.12C166.566 147.89 166.29 146.786 166.29 146.786L169.51 145.498C169.556 145.498 171.488 152.72 167.808 153.87Z" fill="white"/>
<path d="M195.362 166.382C193.568 165.508 191.728 164.634 191.13 164.588C189.842 164.496 189.106 163.944 188.232 162.84C187.312 161.736 186.944 160.494 185.334 158.746C183.678 156.998 185.518 156.308 182.068 155.848C178.618 155.388 179.952 155.664 177.836 154.146C175.72 152.628 176.134 152.628 173.65 151.524C171.166 150.42 172.638 150.006 169.694 149.776C167.67 149.592 164.496 150.65 162.84 151.846C162.104 152.352 161.736 153.226 161 153.686C160.172 154.192 158.93 153.226 159.068 154.974C159.114 155.434 159.252 155.894 159.114 156.308C158.884 157.274 154.836 157.274 153.778 157.596C153.548 157.688 153.272 157.734 153.18 157.964C152.95 158.378 153.318 159.114 152.858 159.298C152.72 159.344 152.536 159.298 152.398 159.298C151.846 159.39 151.984 160.402 151.478 160.632C150.972 160.862 150.374 160.402 149.822 160.632C149.362 160.816 149.224 161.368 148.856 161.644C148.212 162.058 147.476 162.334 146.832 162.794C145.682 163.53 144.716 164.45 143.474 165.14L140.208 166.014L139.242 166.336H195.362V166.382Z" fill="#4B0082"/>
<path opacity="0.8" d="M195.362 166.382C193.568 165.508 191.728 164.634 191.13 164.588C189.842 164.496 189.106 163.944 188.232 162.84C187.312 161.736 186.944 160.494 185.334 158.746C183.678 156.998 185.518 156.308 182.068 155.848C178.618 155.388 179.952 155.664 177.836 154.146C175.72 152.628 176.134 152.628 173.65 151.524C171.166 150.42 172.638 150.006 169.694 149.776C167.67 149.592 164.496 150.65 162.84 151.846C162.104 152.352 161.736 153.226 161 153.686C160.172 154.192 158.93 153.226 159.068 154.974C159.114 155.434 159.252 155.894 159.114 156.308C158.884 157.274 154.836 157.274 153.778 157.596C153.548 157.688 153.272 157.734 153.18 157.964C152.95 158.378 153.318 159.114 152.858 159.298C152.72 159.344 152.536 159.298 152.398 159.298C151.846 159.39 151.984 160.402 151.478 160.632C150.972 160.862 150.374 160.402 149.822 160.632C149.362 160.816 149.224 161.368 148.856 161.644C148.212 162.058 147.476 162.334 146.832 162.794C145.682 163.53 144.716 164.45 143.474 165.14L140.208 166.014L139.242 166.336H195.362V166.382Z" fill="white"/>
<path d="M156.768 158.01C156.768 158.056 156.768 158.056 156.768 158.102C156.768 159.712 156.262 161.23 155.48 162.472C155.434 162.564 155.342 162.702 155.25 162.794C154.79 163.484 154.192 164.082 153.502 164.588C153.364 164.726 153.18 164.818 153.042 164.91C152.996 164.956 152.95 164.956 152.904 165.002C152.858 165.048 152.812 165.048 152.766 165.094C152.674 165.14 152.582 165.186 152.536 165.232C152.398 165.324 152.26 165.37 152.122 165.462C151.018 166.014 149.73 166.336 148.396 166.336C146.004 166.336 143.842 165.324 142.324 163.76C141.772 163.162 141.266 162.518 140.898 161.782C140.3 160.632 139.978 159.344 139.978 157.964V157.918C139.978 157.688 139.978 157.458 140.024 157.228C140.116 156.124 140.438 155.066 140.898 154.146C141.036 153.916 141.174 153.686 141.312 153.456C141.772 152.72 142.416 152.03 143.06 151.478C143.29 151.294 143.52 151.11 143.75 150.972C143.842 150.926 143.934 150.834 144.026 150.788C144.67 150.374 145.406 150.098 146.142 149.868C146.188 149.868 146.28 149.822 146.326 149.822C146.97 149.638 147.66 149.592 148.35 149.592C148.58 149.592 148.764 149.592 148.994 149.638C149.04 149.638 149.086 149.638 149.178 149.638C150.144 149.73 151.018 149.96 151.846 150.374C151.892 150.374 151.938 150.42 151.938 150.42C152.674 150.742 153.318 151.202 153.916 151.708C155.388 152.996 156.4 154.836 156.676 156.86C156.722 157.274 156.768 157.642 156.768 158.01Z" fill="#4B0082"/>
<path opacity="0.6" d="M156.768 158.01C156.768 161.276 154.882 164.128 152.122 165.508C151.8 165.232 151.662 164.956 151.662 164.956C153.226 160.448 151.662 158.056 151.662 158.056V158.01L151.754 157.274V157.136C151.984 155.802 152.582 153.272 153.916 151.754C155.664 153.272 156.768 155.526 156.768 158.01Z" fill="white"/>
<path opacity="0.6" d="M141.956 156.538C141.956 156.538 140.484 158.01 140.898 161.782C140.3 160.632 139.978 159.344 139.978 157.964C139.978 155.342 141.174 152.996 143.06 151.478C142.278 153.088 141.864 154.928 141.956 156.538Z" fill="white"/>
<path opacity="0.2" d="M153.916 151.754C152.076 153.87 151.616 158.01 151.616 158.01C146.556 159.252 141.91 156.584 141.91 156.584C141.818 154.974 142.232 153.088 143.06 151.524C144.486 150.374 146.326 149.638 148.35 149.638C150.512 149.638 152.444 150.42 153.916 151.754Z" fill="white"/>
<path opacity="0.2" d="M152.122 165.508C151.018 166.06 149.73 166.382 148.396 166.382C146.004 166.382 143.842 165.37 142.324 163.806C143.888 164.726 147.108 166.06 151.662 164.956C151.662 164.91 151.754 165.232 152.122 165.508Z" fill="white"/>
<g opacity="0.2">
<path opacity="0.2" d="M151.984 150.466C151.754 150.788 151.57 151.11 151.386 151.432C151.064 152.076 150.742 152.72 150.512 153.41C150.236 154.1 150.052 154.79 149.868 155.48C149.684 156.17 149.546 156.906 149.408 157.596C149.454 156.86 149.546 156.17 149.73 155.434C149.868 154.698 150.098 154.008 150.328 153.318C150.604 152.628 150.88 151.984 151.248 151.34C151.432 151.018 151.662 150.696 151.892 150.42C151.892 150.42 151.938 150.42 151.984 150.466Z" fill="black"/>
<path opacity="0.2" d="M149.178 149.684C149.04 149.914 148.948 150.098 148.856 150.328C148.534 151.018 148.258 151.8 148.028 152.536C147.798 153.272 147.614 154.054 147.43 154.836C147.246 155.618 147.108 156.4 146.97 157.182C147.016 156.4 147.108 155.572 147.246 154.79C147.384 154.008 147.568 153.226 147.798 152.444C148.028 151.662 148.304 150.926 148.672 150.19C148.764 150.006 148.856 149.822 148.994 149.638C149.04 149.638 149.132 149.684 149.178 149.684Z" fill="black"/>
<path opacity="0.2" d="M146.326 149.868C146.28 150.006 146.234 150.098 146.188 150.236C145.912 150.926 145.728 151.616 145.544 152.352C145.36 153.042 145.222 153.778 145.084 154.514C144.946 155.25 144.854 155.94 144.716 156.676C144.716 155.94 144.808 155.204 144.9 154.468C144.992 153.732 145.13 152.996 145.314 152.306C145.498 151.57 145.682 150.88 146.004 150.19C146.05 150.098 146.096 150.006 146.142 149.96C146.234 149.914 146.28 149.914 146.326 149.868Z" fill="black"/>
<path opacity="0.2" d="M144.026 150.834C143.888 151.34 143.704 151.846 143.612 152.398C143.474 152.996 143.382 153.594 143.29 154.192C143.198 154.79 143.152 155.388 143.06 155.986C143.014 155.388 143.06 154.79 143.106 154.192C143.152 153.594 143.244 152.996 143.382 152.398C143.474 151.938 143.612 151.478 143.75 151.064C143.842 150.972 143.934 150.88 144.026 150.834Z" fill="black"/>
<path opacity="0.2" d="M154.008 160.816C154.008 161.69 153.916 162.564 153.686 163.392C153.594 163.806 153.41 164.22 153.226 164.588C153.18 164.726 153.088 164.864 153.042 165.002C152.996 165.048 152.95 165.048 152.904 165.094C153.134 164.542 153.364 163.944 153.502 163.346C153.732 162.518 153.824 161.69 153.778 160.816C153.778 159.988 153.64 159.114 153.41 158.332C153.18 157.504 152.812 156.722 152.398 155.986C152.904 156.676 153.318 157.458 153.594 158.286C153.824 159.068 153.962 159.942 154.008 160.816Z" fill="black"/>
<path opacity="0.2" d="M155.664 160.586V161.276L155.572 161.966C155.572 162.15 155.526 162.334 155.48 162.518C155.434 162.61 155.342 162.748 155.25 162.84C155.296 162.564 155.388 162.242 155.388 161.92L155.434 161.23V160.54C155.434 160.31 155.434 160.08 155.434 159.85C155.434 159.62 155.434 159.39 155.388 159.16C155.296 158.24 155.02 157.366 154.698 156.538C154.376 155.71 153.916 154.882 153.364 154.146C154.008 154.79 154.514 155.618 154.882 156.446C155.25 157.32 155.526 158.194 155.618 159.114C155.664 159.344 155.664 159.574 155.664 159.804C155.664 160.08 155.664 160.356 155.664 160.586Z" fill="black"/>
<path opacity="0.2" d="M156.768 158.01C156.768 158.056 156.768 158.056 156.768 158.102C156.768 158.056 156.768 158.01 156.722 157.964C156.538 156.998 156.216 156.078 155.802 155.204C155.388 154.33 154.882 153.456 154.192 152.766C154.928 153.456 155.48 154.284 155.94 155.158C156.216 155.756 156.492 156.354 156.676 156.952C156.722 157.274 156.768 157.642 156.768 158.01Z" fill="black"/>
<path opacity="0.2" d="M141.542 155.25C141.174 155.664 140.852 156.124 140.576 156.63C140.346 157.09 140.116 157.55 139.978 158.01C139.978 157.78 139.978 157.55 140.024 157.32C140.162 157.044 140.3 156.814 140.438 156.538C140.76 156.032 141.082 155.572 141.542 155.25Z" fill="black"/>
<path opacity="0.2" d="M141.956 152.996C141.588 153.41 141.266 153.778 140.944 154.192C141.082 153.962 141.22 153.732 141.358 153.502C141.496 153.318 141.726 153.134 141.956 152.996Z" fill="black"/>
<path opacity="0.2" d="M141.956 158.332C142.738 158.608 143.474 158.884 144.256 159.114C145.038 159.344 145.82 159.528 146.648 159.666C148.258 159.942 149.914 160.034 151.478 159.62C150.696 159.942 149.914 160.08 149.086 160.08C148.258 160.126 147.43 160.034 146.602 159.896C145.774 159.758 144.992 159.528 144.21 159.252C143.428 159.022 142.646 158.7 141.956 158.332Z" fill="black"/>
<path opacity="0.2" d="M141.956 160.356C142.738 160.678 143.52 160.908 144.302 161.138C145.084 161.322 145.912 161.506 146.74 161.598C147.568 161.736 148.396 161.736 149.224 161.736L149.822 161.69L150.42 161.598C150.834 161.552 151.248 161.46 151.662 161.414C150.88 161.644 150.052 161.874 149.224 161.92C148.396 161.966 147.568 161.966 146.74 161.874C145.912 161.782 145.084 161.598 144.302 161.368C143.428 161.046 142.646 160.724 141.956 160.356Z" fill="black"/>
<path opacity="0.2" d="M142.14 162.058C142.876 162.38 143.612 162.656 144.394 162.886C145.176 163.116 145.958 163.254 146.74 163.346C147.154 163.392 147.522 163.438 147.936 163.438C148.35 163.438 148.718 163.438 149.132 163.438C149.914 163.392 150.696 163.254 151.478 163.116C150.696 163.346 149.914 163.576 149.132 163.622C148.35 163.714 147.522 163.668 146.694 163.576C145.912 163.484 145.084 163.3 144.348 163.024C143.566 162.794 142.83 162.472 142.14 162.058Z" fill="black"/>
<path opacity="0.2" d="M142.462 163.346C143.152 163.668 143.842 163.944 144.578 164.128C145.314 164.358 146.05 164.496 146.786 164.588C147.522 164.68 148.258 164.726 149.04 164.68L149.592 164.634L150.144 164.542C150.512 164.496 150.88 164.358 151.248 164.312C150.558 164.588 149.822 164.818 149.04 164.864C148.304 164.956 147.522 164.956 146.74 164.864C146.004 164.772 145.222 164.588 144.532 164.358C143.842 164.082 143.106 163.76 142.462 163.346Z" fill="black"/>
</g>
<path d="M52.348 144.854C52.348 144.854 54.004 142.416 56.902 142.232C59.8 142.048 62.284 145.774 62.284 145.774H61.364C61.364 145.774 59.018 143.244 57.316 143.244C55.614 143.244 54.004 145.314 54.004 145.314L52.348 144.854Z" fill="#263238"/>
<path d="M27.646 164.266C28.658 162.564 39.928 163.668 42.504 162.656L43.884 165.002C43.884 165.002 41.952 166.06 38.686 165.692C35.42 165.324 30.59 165.186 29.302 166.336L27.646 164.266Z" fill="#263238"/>
<path opacity="0.3" d="M27.646 164.266C28.658 162.564 39.928 163.668 42.504 162.656L43.884 165.002C43.884 165.002 41.952 166.06 38.686 165.692C35.42 165.324 30.59 165.186 29.302 166.336L27.646 164.266Z" fill="black"/>
<path d="M75.164 159.16C75.072 159.574 74.98 159.942 74.842 160.356C73.922 163.484 72.496 166.014 71.484 166.428H42.228C41.4 166.428 40.618 166.06 40.158 165.416C40.158 165.416 40.158 165.416 40.112 165.37C40.02 165.232 39.928 165.094 39.836 164.91C37.812 160.678 35.788 152.26 38.64 148.396C38.916 147.982 39.284 147.614 39.652 147.292C39.698 147.292 39.698 147.246 39.744 147.246C40.342 146.74 40.986 146.372 41.722 146.004C43.746 145.084 46.23 144.67 48.622 144.486C49.312 144.44 50.002 144.394 50.692 144.394C52.486 144.348 54.142 144.394 55.476 144.44C60.168 144.578 63.894 145.958 66.378 145.728C67.39 145.636 68.31 145.728 69.138 145.958C69.414 146.05 69.644 146.096 69.92 146.234C70.978 146.648 71.99 147.292 73.094 148.166C76.084 150.42 76.13 155.112 75.164 159.16Z" fill="#263238"/>
<path opacity="0.1" d="M75.164 159.16C75.072 159.574 74.98 159.942 74.842 160.356C73.922 163.484 72.496 166.014 71.484 166.428H42.228C41.4 166.428 40.618 166.06 40.158 165.416C40.158 165.416 40.158 165.416 40.112 165.37C40.02 165.232 39.928 165.094 39.836 164.91C37.812 160.678 35.788 152.26 38.64 148.396C38.916 147.982 39.284 147.614 39.652 147.292C39.698 147.292 39.698 147.246 39.744 147.246C40.342 146.74 40.986 146.372 41.722 146.004C43.746 145.084 46.23 144.67 48.622 144.486C49.312 144.44 50.002 144.394 50.692 144.394C52.486 144.348 54.142 144.394 55.476 144.44C60.168 144.578 63.894 145.958 66.378 145.728C67.39 145.636 68.31 145.728 69.138 145.958C69.414 146.05 69.644 146.096 69.92 146.234C70.978 146.648 71.99 147.292 73.094 148.166C76.084 150.42 76.13 155.112 75.164 159.16Z" fill="white"/>
<path opacity="0.2" d="M70.702 158.838C68.586 158.838 64.4 159.85 58.236 158.47C54.234 157.596 51.152 158.01 49.45 158.424C49.404 157.504 49.312 156.492 49.22 155.388C48.668 147.89 44.39 144.762 41.814 146.004C41.032 146.372 40.388 146.786 39.836 147.246C39.79 147.246 39.79 147.292 39.744 147.292C39.376 147.614 39.008 147.982 38.732 148.396C35.88 152.26 37.904 160.678 39.928 164.91C40.02 165.094 40.112 165.232 40.204 165.37C40.204 165.37 40.204 165.37 40.25 165.416C40.756 165.968 41.446 166.336 42.228 166.336H47.38C49.496 166.336 49.772 164.358 49.542 160.172C49.91 159.942 50.37 159.712 50.83 159.39C52.118 158.562 57.178 158.976 59.386 159.804C61.594 160.632 67.298 161 70.058 160.54C71.99 160.218 73.876 160.356 74.842 160.448C74.98 160.08 75.072 159.666 75.164 159.252C74.198 159.068 72.22 158.838 70.702 158.838Z" fill="black"/>
<path opacity="0.2" d="M51.658 148.304C52.946 152.95 53.82 154.56 54.142 155.02C54.464 155.48 63.756 156.584 65.504 156.584C67.252 156.584 70.196 156.308 71.484 155.986C72.68 155.664 73.048 149.73 70.058 146.142C69.782 146.05 69.552 145.958 69.276 145.866C70.886 149.5 70.932 153.962 70.748 154.606C70.472 155.48 67.758 155.342 66.47 155.342C65.182 155.342 57.27 154.836 56.442 154.514C55.614 154.192 55.154 153.732 54.51 152.904C53.866 152.076 53.774 149.27 52.624 146.832C52.21 145.958 51.474 145.084 50.738 144.348C50.048 144.348 49.358 144.394 48.668 144.44C49.91 145.176 51.106 146.326 51.658 148.304Z" fill="black"/>
<path d="M42.458 152.582L39.928 153.226C39.928 153.226 38.134 158.424 39.192 160.586C40.296 162.748 31.832 165.784 27.646 164.266L29.302 166.382C29.302 166.382 39.33 165.738 41.216 161.92C43.148 158.102 40.388 157.504 40.204 156.446C40.02 155.388 42.458 152.582 42.458 152.582Z" fill="#263238"/>
<path opacity="0.1" d="M42.458 152.582L39.928 153.226C39.928 153.226 38.134 158.424 39.192 160.586C40.296 162.748 31.832 165.784 27.646 164.266L29.302 166.382C29.302 166.382 39.33 165.738 41.216 161.92C43.148 158.102 40.388 157.504 40.204 156.446C40.02 155.388 42.458 152.582 42.458 152.582Z" fill="white"/>
<path d="M64.998 45.586C64.998 45.586 55.154 40.066 53.13 38.64C51.06 37.214 40.158 26.496 39.56 26.22C39.56 26.22 39.974 24.978 39.054 24.288C38.134 23.552 34.592 21.252 34.04 21.252C33.488 21.252 32.2 26.22 32.43 27.416C32.614 28.658 37.628 28.934 37.628 28.934C37.628 28.934 48.024 41.032 49.634 42.734C51.244 44.436 62.376 51.658 62.376 51.658L64.998 45.586Z" fill="#E4897B"/>
<path d="M69.046 46.5978C69.046 46.5978 71.208 50.9678 65.964 57.8678L54.418 49.3578L59.018 40.9858L69.046 46.5978Z" fill="#4B0082"/>
<path opacity="0.6" d="M65.964 57.868L60.49 53.866L59.754 53.36L56.672 51.106L54.372 49.404L56.074 46.322L57.04 44.574L59.018 41.032L60.904 42.09L62.514 43.01L69 46.644C69 46.644 69.276 47.196 69.368 48.208C69.644 50.002 69.322 53.406 65.964 57.868Z" fill="white"/>
<path opacity="0.2" d="M65.964 57.8678L60.49 53.8658C62.376 50.0018 67.206 48.6218 69.414 48.2078C69.644 50.0018 69.322 53.4058 65.964 57.8678Z" fill="black"/>
<g opacity="0.2">
<path opacity="0.2" d="M62.514 42.9639L60.904 43.9299V42.0439L62.514 42.9639Z" fill="white"/>
<path opacity="0.2" d="M58.972 45.1258L56.948 47.9778L56.074 46.2758L57.04 44.5278L58.972 45.1258Z" fill="white"/>
<path opacity="0.2" d="M60.49 49.45L59.754 53.314L56.718 51.06L60.49 49.45Z" fill="white"/>
<path opacity="0.2" d="M61.916 47.1959L63.02 50.1399L65.412 46.9199L61.916 47.1959Z" fill="white"/>
</g>
<path d="M90.482 44.5278C90.482 44.5278 100.326 39.0078 102.35 37.5818C104.374 36.1558 115.276 25.4378 115.92 25.1618C115.92 25.1618 115.506 23.9198 116.426 23.2298C117.346 22.4938 120.888 20.1938 121.44 20.1938C121.992 20.1938 123.28 25.2078 123.05 26.4038C122.866 27.6458 117.852 27.9218 117.852 27.9218C117.852 27.9218 107.456 40.0198 105.846 41.7218C104.236 43.4238 93.104 50.6458 93.104 50.6458L90.482 44.5278Z" fill="#E4897B"/>
<path d="M78.706 102.81C78.706 102.81 78.476 106.306 78.154 110.906C77.924 113.804 77.694 117.116 77.418 120.336C77.05 124.66 76.59 128.8 76.176 131.376C75.762 133.722 70.472 163.024 70.472 163.024H66.93C68.034 135.7 69.782 125.12 69.874 123.51C69.92 123.004 69.92 122.268 69.92 121.394C69.966 118.266 70.058 113.344 70.104 109.756C70.15 107.18 70.15 105.294 70.15 105.294L78.706 102.81Z" fill="#E4897B"/>
<path d="M92.46 124.936C92.322 127.328 90.896 162.978 90.896 162.978H86.986C85.008 134.596 85.744 124.752 85.376 122.774C85.376 122.774 85.376 122.774 85.376 122.728C84.778 119.37 84.18 115 83.812 111.734C83.49 109.112 83.306 107.226 83.306 107.226L91.264 103.776C91.264 103.776 91.77 107.916 92.092 112.884C92.276 115.368 92.414 118.082 92.46 120.566C92.552 122.084 92.552 123.602 92.46 124.936Z" fill="#E4897B"/>
<path opacity="0.2" d="M70.058 109.802L78.2 110.906C77.97 113.804 77.74 117.116 77.464 120.336L69.92 121.394C69.966 118.312 70.012 113.39 70.058 109.802Z" fill="black"/>
<path opacity="0.2" d="M92.506 120.52L85.376 122.728C84.778 119.37 84.18 115 83.812 111.734L92.138 112.884C92.322 115.322 92.46 117.99 92.506 120.52Z" fill="black"/>
<path d="M71.3 161.966H66.608C66.47 161.966 66.332 162.058 66.286 162.242L65.504 165.692C65.458 166.014 65.642 166.29 65.964 166.382C66.01 166.382 66.056 166.382 66.102 166.382C67.62 166.336 68.724 166.244 70.656 166.244C71.852 166.244 75.394 166.382 77.004 166.382C78.614 166.382 78.844 164.772 78.154 164.634C75.164 163.99 72.91 163.07 71.99 162.242C71.76 162.058 71.53 161.966 71.3 161.966Z" fill="#4B0082"/>
<path d="M91.218 161.874H86.526C86.388 161.874 86.25 161.966 86.204 162.15L85.422 165.6C85.376 165.922 85.56 166.198 85.882 166.29C85.928 166.29 85.974 166.29 86.02 166.29C87.538 166.244 88.642 166.152 90.574 166.152C91.77 166.152 95.312 166.29 96.922 166.29C98.532 166.29 98.762 164.68 98.072 164.542C95.082 163.898 92.828 162.978 91.908 162.15C91.678 161.92 91.448 161.874 91.218 161.874Z" fill="#4B0082"/>
<path d="M79.028 118.358C79.074 118.036 79.12 117.714 79.12 117.346C79.58 112.654 80.086 106.996 80.5 101.522C82.11 105.8 82.754 111.78 83.582 118.358H93.242C92.46 101.43 90.344 87.6299 89.24 81.7419H68.724C68.678 83.8579 68.448 104.282 67.942 118.358H79.028Z" fill="#263238"/>
<path opacity="0.2" d="M79.028 118.358C79.074 118.036 79.12 117.714 79.12 117.346C79.58 112.654 80.086 106.996 80.5 101.522C82.11 105.8 82.754 111.78 83.582 118.358H93.242C92.46 101.43 90.344 87.6299 89.24 81.7419H68.724C68.678 83.8579 68.448 104.282 67.942 118.358H79.028Z" fill="white"/>
<path d="M81.88 39.79C81.834 39.974 81.788 40.158 81.696 40.342C81.328 41.4 80.638 42.274 79.764 42.872C79.534 43.056 79.304 43.194 79.074 43.286C77.786 43.93 76.268 44.068 74.888 43.47C74.336 43.24 73.784 42.872 73.278 42.366C71.346 40.388 71.392 38.134 71.162 34.316C71.116 33.488 71.254 32.66 71.53 31.924C72.634 29.256 75.716 27.968 78.384 29.118C82.202 30.682 82.708 36.386 81.88 39.79Z" fill="#E4897B"/>
<path opacity="0.2" d="M79.764 42.918C79.534 43.102 79.304 43.24 79.074 43.332C77.786 43.976 76.268 44.114 74.888 43.516C75.164 42.78 75.578 42.228 75.578 42.228C75.578 42.228 77.878 41.86 79.764 42.918Z" fill="black"/>
<path d="M72.082 47.8399C73.968 49.5419 78.568 48.8979 78.568 48.8979C78.568 48.8979 81.466 48.1159 80.822 47.1959C79.12 46.9199 78.292 46.1379 77.97 45.1259C77.786 44.5279 77.74 43.8839 77.786 43.1939C77.832 42.8259 77.878 42.4579 77.924 42.0899L72.22 37.8579C73.002 40.7099 73.922 45.8619 72.082 47.8399Z" fill="#E4897B"/>
<path d="M79.764 36.3398L80.592 36.6618L80.178 34.9598C80.178 34.9598 81.374 33.1658 80.178 31.5098C80.178 31.5098 83.49 30.4978 81.65 28.7498C80.96 28.1058 80.086 28.7498 77.786 27.7378C76.544 27.1858 72.634 27.1398 72.45 28.7498C72.45 28.7498 69.644 28.7498 69.322 33.5338C69 38.3178 72.312 41.0778 72.312 41.0778C72.312 41.0778 75.716 41.8598 77.372 40.5258C78.982 39.1458 79.764 36.3398 79.764 36.3398Z" fill="#263238"/>
<path d="M77.602 36.6159C77.832 37.4439 78.292 38.0419 78.89 38.3179C79.672 38.6399 80.178 37.5359 80.086 36.3859C79.994 35.3739 79.442 33.9479 78.614 34.1319C77.74 34.3159 77.326 35.5579 77.602 36.6159Z" fill="#E4897B"/>
<path opacity="0.2" d="M80.546 101.522C80.132 106.95 79.626 112.654 79.166 117.346C78.476 110.538 77.602 105.708 77.602 105.708C77.602 105.708 76.82 105.064 74.612 101.522C72.404 97.9798 74.612 91.4478 74.612 91.4478C74.52 97.5198 80.546 101.522 80.546 101.522Z" fill="black"/>
<path d="M94.024 117.576L93.61 119.186H83.306V117.714L94.024 117.576Z" fill="#4B0082"/>
<path d="M79.534 117.806L79.258 119.278H67.574L66.884 117.806H79.534Z" fill="#4B0082"/>
<path d="M80.96 46.7359C80.96 46.7359 79.304 44.0679 75.072 43.8839C70.84 43.6999 70.518 46.5979 70.518 46.5979L80.96 46.7359Z" fill="#4B0082"/>
<path opacity="0.5" d="M80.96 46.7359C80.96 46.7359 79.304 44.0679 75.072 43.8839C70.84 43.6999 70.518 46.5979 70.518 46.5979L80.96 46.7359Z" fill="white"/>
<path d="M65.826 45.126C65.826 45.126 67.988 64.768 65.366 88.136L90.068 86.618C89.792 61.41 86.388 45.494 86.388 45.494C86.388 45.494 79.994 46.828 74.842 46.644C70.012 46.506 65.826 45.126 65.826 45.126Z" fill="#4B0082"/>
<path d="M86.434 45.5398C86.434 45.5398 89.746 53.2678 90.114 61.0878C90.482 68.9078 76.682 79.6258 76.682 79.6258C76.682 79.6258 66.056 72.3118 57.868 73.0018C49.68 73.6918 47.15 76.5898 47.15 76.5898C47.15 76.5898 53.498 62.9738 64.584 58.2358C64.584 58.2358 62.284 50.3698 65.826 45.2178C65.826 45.1258 73.508 47.6098 86.434 45.5398Z" fill="#4B0082"/>
<path opacity="0.6" d="M90.114 61.0419C90.114 61.2719 90.114 61.4559 90.114 61.6859C90.114 62.0079 90.068 62.3759 89.976 62.6979C89.838 63.4799 89.608 64.2159 89.286 64.9979C88.458 67.0219 87.032 69.0919 85.468 70.9779C84.686 71.9439 83.858 72.8639 83.03 73.6919C79.81 77.0959 76.682 79.4879 76.682 79.4879C76.682 79.4879 72.772 76.7739 67.85 74.8419C66.884 74.4739 65.918 74.1059 64.906 73.8299C62.56 73.1399 60.122 72.7259 57.868 72.8639C54.97 73.0939 52.808 73.5999 51.198 74.1519C50.83 74.2899 50.462 74.4279 50.14 74.5659C50.048 74.6119 49.956 74.6579 49.864 74.7039C48.99 75.1179 48.346 75.4859 47.886 75.8079C47.84 75.8539 47.748 75.8999 47.702 75.9459C47.564 76.0379 47.472 76.1299 47.38 76.1759C47.334 76.2219 47.288 76.2219 47.288 76.2679C47.242 76.3139 47.242 76.3139 47.196 76.3599C47.15 76.3599 47.15 76.4059 47.15 76.4059L47.104 76.4519C47.104 76.4519 47.15 76.3139 47.242 76.1759C47.288 76.1299 47.334 76.0379 47.38 75.8999C47.518 75.6239 47.702 75.3019 47.932 74.8879C47.978 74.8419 47.978 74.7499 48.024 74.7039C48.07 74.6119 48.162 74.5199 48.208 74.3819C48.254 74.2899 48.346 74.1519 48.392 74.0599C48.668 73.5999 48.99 73.0479 49.312 72.4959C50.83 70.1039 53.084 66.9299 55.982 64.0779C56.902 63.2039 57.822 62.3299 58.834 61.5479C60.582 60.2139 62.468 59.0179 64.538 58.0979C64.538 58.0979 63.71 55.2919 63.802 51.9339C63.802 51.2899 63.848 50.6459 63.986 49.9559C64.216 48.2539 64.768 46.5519 65.78 45.0339C65.78 45.0339 66.976 45.4019 69.23 45.7699C70.472 45.9539 71.99 46.1379 73.83 46.2299C76.406 46.3679 79.488 46.3219 83.122 45.9079C84.18 45.7699 85.238 45.6319 86.388 45.4479C86.388 45.4479 86.434 45.5399 86.48 45.7239C86.756 46.4139 87.584 48.5299 88.366 51.3359C88.55 52.0719 88.78 52.8539 88.964 53.6819C89.148 54.4179 89.286 55.2459 89.47 56.0279C89.838 57.6839 90.022 59.3859 90.114 61.0419Z" fill="white"/>
<g opacity="0.2">
<path opacity="0.2" d="M86.94 67.344L85.468 71.07C84.686 72.036 83.858 72.956 83.03 73.784L80.086 68.264L86.94 67.344Z" fill="white"/>
<path opacity="0.2" d="M61.916 63.7559L56.074 64.0779C56.994 63.2039 57.914 62.3299 58.926 61.5479L61.916 63.7559Z" fill="white"/>
<path opacity="0.2" d="M68.632 49.0359L67.988 55.1079L63.848 51.9799C63.848 51.3359 63.894 50.6919 64.032 50.0019L68.632 49.0359Z" fill="white"/>
<path opacity="0.2" d="M70.564 65.0438L68.632 59.2478L74.474 58.1438L70.564 65.0438Z" fill="white"/>
<path opacity="0.2" d="M80.546 59.4778V63.8478L84.732 62.3758L80.546 59.4778Z" fill="white"/>
<path opacity="0.2" d="M69.828 72.1278L67.85 74.8878C66.884 74.5198 65.918 74.1518 64.906 73.8758L63.434 70.5178L69.828 72.1278Z" fill="white"/>
<path opacity="0.2" d="M54.878 67.9419L57.914 69.2299L54.878 71.2999V67.9419Z" fill="white"/>
<path opacity="0.2" d="M51.244 74.244C48.254 75.302 47.196 76.498 47.196 76.498C47.196 76.498 47.978 74.842 49.404 72.542L51.244 74.244Z" fill="white"/>
<path opacity="0.2" d="M75.762 68.5859L73.186 71.2999L77.096 71.9439L75.762 68.5859Z" fill="white"/>
<path opacity="0.2" d="M75.762 51.7498L78.798 55.8438L80.96 51.1978L75.762 51.7498Z" fill="white"/>
<path opacity="0.2" d="M89.516 56.0739L85.606 53.4979L88.412 51.3359C88.826 52.8079 89.24 54.4179 89.516 56.0739Z" fill="white"/>
<path opacity="0.2" d="M90.114 61.7319C90.068 62.7899 89.746 63.9399 89.286 65.0899L87.676 61.0879L90.114 61.7319Z" fill="white"/>
<path opacity="0.2" d="M86.572 45.7699L84.134 48.2999L83.214 45.9539C84.272 45.8159 85.33 45.6779 86.48 45.4939C86.434 45.5399 86.48 45.6319 86.572 45.7699Z" fill="white"/>
<path opacity="0.2" d="M73.876 46.2759L72.082 50.0939L69.276 45.8159C70.518 46.0459 72.082 46.2299 73.876 46.2759Z" fill="white"/>
</g>
<path opacity="0.2" d="M90.114 61.0419C90.114 61.2719 90.114 61.4559 90.114 61.6859C90.114 62.0079 90.068 62.3759 89.976 62.6979C86.756 57.5919 87.538 52.9919 87.538 52.9919L89.056 53.7279C89.24 54.4639 89.378 55.2919 89.562 56.0739C89.838 57.6839 90.022 59.3859 90.114 61.0419Z" fill="black"/>
<path d="M77.05 25.208C82.524 23.322 83.858 30.59 78.476 35.512C73.048 40.434 66.838 41.032 66.102 38.548C65.412 36.064 68.724 28.06 77.05 25.208Z" fill="#4B0082"/>
<path d="M71.576 24.8401C74.382 24.8401 78.338 27.6921 78.338 27.6921C78.338 27.6921 78.89 30.7281 76.13 33.3961C73.324 36.0641 70.84 36.4781 69.276 35.4661C67.712 34.4541 67.298 30.4061 67.298 30.4061C67.298 30.4061 67.712 28.8421 69.276 28.3361C69.276 28.3361 69.736 24.8401 71.576 24.8401Z" fill="#4B0082"/>
<path opacity="0.2" d="M76.176 33.396C73.37 36.064 70.886 36.478 69.322 35.466C69.046 35.282 68.816 35.052 68.632 34.73C67.62 33.212 67.344 30.406 67.344 30.406C70.012 33.626 73.094 30.314 73.508 28.06C73.738 26.772 73.416 25.668 72.772 24.978C74.612 25.392 76.636 26.542 77.648 27.232C78.108 27.508 78.338 27.692 78.338 27.692C78.338 27.692 78.936 30.728 76.176 33.396Z" fill="black"/>
<path opacity="0.6" d="M76.176 33.3962C73.37 36.0642 70.886 36.4782 69.322 35.4662C69.046 35.2822 68.816 35.0522 68.632 34.7302C71.438 35.5582 74.75 34.1782 76.544 31.6942C77.694 30.0842 77.832 28.4282 77.694 27.2322C78.154 27.5082 78.384 27.6922 78.384 27.6922C78.384 27.6922 78.936 30.7282 76.176 33.3962Z" fill="white"/>
<path d="M86.434 45.5397C86.434 45.5397 84.272 49.9097 89.516 56.8097L101.062 48.2997L96.462 39.9277L86.434 45.5397Z" fill="#4B0082"/>
<path opacity="0.6" d="M101.108 48.2999L98.072 50.5079L93.61 53.7739L89.516 56.7639C89.24 56.3959 89.01 56.0739 88.78 55.7519C88.274 55.0159 87.86 54.2799 87.492 53.6359C86.296 51.3359 85.974 49.4499 85.974 48.0699C85.974 46.4139 86.434 45.4939 86.434 45.4939L89.01 44.0679L93.426 41.6299L95.358 40.5719L96.462 39.9739L101.108 48.2999Z" fill="white"/>
<g opacity="0.2">
<path opacity="0.2" d="M98.072 50.508L93.61 53.82L91.632 49.45L98.072 50.508Z" fill="white"/>
<path opacity="0.2" d="M97.658 43.4698L93.564 45.1258L93.426 41.6298L95.404 40.5718L97.658 43.4698Z" fill="white"/>
<path opacity="0.2" d="M90.482 46.9199L86.02 48.0699C86.02 46.4139 86.48 45.4939 86.48 45.4939L89.056 44.0679L90.482 46.9199Z" fill="white"/>
<path opacity="0.2" d="M89.516 52.4858L88.78 55.7518C88.274 55.0158 87.86 54.2798 87.492 53.6358L89.516 52.4858Z" fill="white"/>
</g>
<path d="M111.587 122.869L117.319 123.318L119.557 94.7487L113.825 94.2997L111.587 122.869Z" stroke="#263238" stroke-width="1.38" stroke-miterlimit="10"/>
<path d="M113.068 162.656C113.206 162.656 113.804 162.702 113.988 162.748C115 162.84 115.782 163.714 115.69 164.726C115.598 165.738 114.724 166.474 113.666 166.428C113.528 166.428 112.93 166.382 112.746 166.336C111.734 166.244 110.952 165.37 111.044 164.358C111.136 163.3 112.01 162.564 113.068 162.656Z" fill="#263238"/>
<path opacity="0.1" d="M111.044 164.312C110.952 165.324 111.734 166.244 112.746 166.336C113.758 166.428 114.678 165.646 114.77 164.634C114.862 163.622 114.08 162.702 113.068 162.61C112.056 162.518 111.136 163.254 111.044 164.312Z" fill="white"/>
<path d="M108.054 162.242C108.192 162.242 108.79 162.288 108.974 162.334C109.986 162.426 110.768 163.3 110.676 164.312C110.584 165.324 109.71 166.06 108.652 166.014C108.514 166.014 107.916 165.968 107.732 165.922C106.72 165.83 105.938 164.956 106.03 163.944C106.122 162.932 106.996 162.196 108.054 162.242Z" fill="#263238"/>
<path opacity="0.2" d="M106.03 163.898C105.938 164.91 106.72 165.83 107.732 165.922C108.744 166.014 109.664 165.232 109.756 164.22C109.848 163.208 109.066 162.288 108.054 162.196C106.996 162.104 106.122 162.886 106.03 163.898Z" fill="white"/>
<path d="M107.18 162.794L114.31 163.346C115 163.392 115.598 162.886 115.644 162.196L119.048 118.956C119.094 118.266 118.588 117.668 117.898 117.622L110.768 117.07C110.078 117.024 109.48 117.53 109.434 118.22L106.03 161.46C105.984 162.15 106.49 162.748 107.18 162.794Z" fill="#263238"/>
<path opacity="0.2" d="M110.722 163.07L114.31 163.346C115 163.392 115.598 162.886 115.644 162.196L119.048 118.956C119.094 118.266 118.588 117.668 117.898 117.622L114.31 117.346C113.62 117.3 113.022 117.806 112.976 118.496L109.572 161.736C109.572 162.426 110.078 163.024 110.722 163.07Z" fill="white"/>
<path d="M113.666 95.1278L119.646 95.5878C120.152 95.6338 120.612 95.2658 120.658 94.7598L120.704 94.2078C120.75 93.7018 120.382 93.2418 119.876 93.1958L113.896 92.7358C113.39 92.6898 112.93 93.0578 112.884 93.5638L112.838 94.1158C112.792 94.6218 113.16 95.0818 113.666 95.1278Z" fill="#263238"/>
<path opacity="0.2" d="M113.666 95.1278L119.646 95.5878C120.152 95.6338 120.612 95.2658 120.658 94.7598L120.704 94.2078C120.75 93.7018 120.382 93.2418 119.876 93.1958L113.896 92.7358C113.39 92.6898 112.93 93.0578 112.884 93.5638L112.838 94.1158C112.792 94.6218 113.16 95.0818 113.666 95.1278Z" fill="white"/>
<path opacity="0.2" d="M113.666 95.1278L114.172 95.1738C114.678 95.2198 115.138 94.8518 115.138 94.3458L115.184 93.7938C115.23 93.2878 114.862 92.8278 114.356 92.7818L113.85 92.7358C113.344 92.6898 112.884 93.0578 112.838 93.5638L112.792 94.1158C112.792 94.6218 113.16 95.0818 113.666 95.1278Z" fill="black"/>
<path d="M132.25 122.222L129.168 161.322C129.076 162.748 127.788 163.852 126.362 163.714L112.102 162.61C111.09 162.518 110.354 161.644 110.4 160.632L113.574 120.014C113.666 119.002 114.54 118.266 115.552 118.312L129.812 119.416C131.284 119.508 132.388 120.796 132.25 122.222Z" fill="#4B0082"/>
<path opacity="0.2" d="M132.25 122.222L129.168 161.322C129.076 162.748 127.788 163.852 126.362 163.714L112.102 162.61C111.09 162.518 110.354 161.644 110.4 160.632L113.574 120.014C113.666 119.002 114.54 118.266 115.552 118.312L129.812 119.416C131.284 119.508 132.388 120.796 132.25 122.222Z" fill="white"/>
<path opacity="0.2" d="M122.452 118.818V118.864L121.946 118.818C120.934 118.726 120.06 119.508 119.968 120.52L116.794 161.138C116.748 162.012 117.254 162.748 118.036 163.024L112.102 162.564C111.09 162.472 110.354 161.598 110.4 160.586L113.574 119.968C113.666 118.956 114.54 118.22 115.552 118.266L122.452 118.818Z" fill="black"/>
<path opacity="0.2" d="M119.14 161.092H118.91C118.634 161.092 118.45 160.816 118.45 160.54L121.578 120.704C121.578 120.428 121.854 120.244 122.13 120.244H122.36C122.636 120.244 122.82 120.52 122.82 120.796L119.692 160.632C119.646 160.908 119.416 161.138 119.14 161.092Z" fill="black"/>
<path opacity="0.2" d="M121.992 161.506H121.762C121.486 161.506 121.302 161.23 121.302 160.954L124.43 121.118C124.43 120.842 124.706 120.658 124.982 120.658H125.212C125.488 120.658 125.672 120.934 125.672 121.21L122.544 161.046C122.498 161.322 122.268 161.552 121.992 161.506Z" fill="black"/>
<path opacity="0.2" d="M124.844 161.69H124.614C124.338 161.69 124.154 161.414 124.154 161.138L127.282 121.302C127.282 121.026 127.558 120.842 127.834 120.842H128.064C128.34 120.842 128.524 121.118 128.524 121.394L125.396 161.23C125.35 161.506 125.12 161.69 124.844 161.69Z" fill="black"/>
<path opacity="0.2" d="M127.696 161.828H127.466C127.19 161.828 127.006 161.552 127.006 161.276L130.134 121.44C130.134 121.164 130.41 120.98 130.686 120.98H130.916C131.192 120.98 131.376 121.256 131.376 121.532L128.248 161.368C128.202 161.644 127.972 161.874 127.696 161.828Z" fill="black"/>
</g>
<defs>
<clipPath id="clip0_53_162">
<rect width="230" height="171.396" fill="white"/>
</clipPath>
</defs>
</svg>
