<svg width="323" height="286" viewBox="0 0 323 286" fill="none" xmlns="http://www.w3.org/2000/svg">
<path d="M295.439 96.5627C300.628 121.753 298.911 153.609 281.09 173.893C254.171 204.553 266.962 233.718 206.073 268.443C197.205 273.551 187.81 277.684 178.051 280.768C173.275 282.261 168.408 283.447 163.48 284.32C120.006 292.025 82.5325 272.475 60.7451 241.106C32.0839 199.855 49.0437 160.997 60.8845 137.048C72.7254 113.099 67.0995 52.5704 126.69 17.9602C135.769 12.6476 145.431 8.39902 155.484 5.29866C178.457 -1.72214 205.787 -2.48816 228.202 7.41313C229.891 8.15172 231.551 8.94728 233.182 9.79982C265.188 26.3864 288.388 62.2184 295.439 96.5627Z" fill="url(#paint0_linear_24_9080)"/>
<path d="M296.586 170C298.711 177.157 297.101 186.313 294.526 193.276C291.951 200.24 287.123 206.365 280.943 210.491C280.235 210.943 279.334 211.394 278.626 211.007C278.046 210.685 277.789 209.911 277.66 209.266C276.179 201.658 277.209 193.534 280.557 186.506C283.969 179.414 289.698 173.611 296.586 170Z" fill="#CAB1DC"/>
<path d="M323 246.034C323 246.09 250.703 246.203 161.5 246.203C72.2975 246.146 0 246.09 0 246.034C0 245.977 72.2975 245.864 161.5 245.864C250.646 245.864 323 245.921 323 246.034Z" fill="#263238"/>
<path d="M15.9471 92.1246L24.0052 89.2462L20.5679 84.6182C20.5115 84.336 20.3424 83.2636 20.3424 81.514C20.3424 81.0061 20.4551 80.4417 20.6242 79.9337C20.8496 79.3129 21.1314 78.5228 21.4695 78.1277C21.8639 77.6762 21.4695 76.9425 20.906 77.1118C20.3424 77.2811 19.2718 78.5228 18.821 80.4417C18.3138 82.3606 17.0178 79.5387 16.567 78.5228C16.0598 77.5069 14.4257 74.4591 13.9749 74.3463C13.355 74.2334 13.0733 74.8542 13.5804 75.8701C14.0876 76.886 15.44 79.9902 14.8765 80.2159C14.313 80.4417 11.8899 75.2493 11.8899 75.2493C11.8899 75.2493 11.5518 74.0641 10.9319 74.2898C9.74859 74.7413 12.7915 80.1031 13.0733 80.5546C13.2987 80.8932 12.6788 81.1754 12.5098 80.7803C12.2844 80.3852 10.1994 75.5315 9.01604 75.983C8.11443 76.3216 11.4391 80.3852 11.3264 81.6269C11.2137 82.8686 9.12874 78.297 8.28349 78.6356C7.94538 78.7485 7.71998 78.9178 9.35414 81.4012C9.91764 82.2477 10.8756 83.433 11.8899 84.7311L15.9471 92.1246Z" fill="#FFBE9D"/>
<path d="M88.47 102.001C88.47 102.001 84.4691 92.6884 81.7643 88.1732C79.1722 83.9403 75.7348 83.2066 73.9316 83.0937C72.5792 82.6986 71.6213 82.6422 71.6213 82.6422L56.6884 82.5293C56.6884 82.5293 52.0677 82.3036 47.7851 85.8028C47.1089 86.3672 41.9246 92.3497 35.1062 100.872L23.1036 87.891L15.9471 92.124C15.9471 92.124 23.7235 118.933 33.4157 117.07C39.1635 115.998 43.6715 111.934 43.6715 111.934L51.2788 105.895L51.4478 106.911C51.6169 108.153 52.0113 110.128 52.2931 111.37C53.1947 115.208 53.7019 120.231 51.7296 123.561C51.7296 123.561 49.0248 125.649 51.1661 127.906H79.2285C79.2285 127.906 83.2294 125.197 79.5666 122.206L77.3126 116.506L78.7777 109.564L79.3412 106.798L81.8206 111.031C81.8206 111.031 86.7231 117.183 91.7947 116.449C97.9368 115.546 101.431 104.371 95.9082 89.6406L89.2589 91.6725L88.47 102.001Z" fill="#CAB1DC"/>
<g opacity="0.4">
<path opacity="0.4" d="M15.9471 92.1247L16.6233 94.3823L24.5687 89.5285L23.0473 87.9482L15.9471 92.1247Z" fill="black"/>
</g>
<g opacity="0.2">
<g opacity="0.2">
<path opacity="0.2" d="M51.7296 123.561C54.1526 123.222 56.1813 121.868 57.6464 119.892C59.1115 117.917 59.7313 115.377 59.3369 113.007C59.2242 112.16 58.8861 111.257 58.1535 110.806C57.2519 110.241 56.0686 110.523 55.1106 110.016C54.3781 109.62 53.9836 108.774 53.4201 108.097C52.9129 107.419 52.1804 106.347 51.3915 106.686C51.3915 106.686 52.3494 111.652 52.7439 113.853C53.1383 116.054 53.3074 119.215 52.5185 121.586C52.3494 122.319 52.0677 122.997 51.7296 123.561Z" fill="black"/>
</g>
</g>
<path d="M33.9229 105.444C33.8102 105.444 33.9792 104.372 34.3173 103.13C34.6554 101.888 34.9372 100.873 35.0499 100.873C35.1626 100.873 34.9935 101.945 34.6554 103.187C34.261 104.485 33.9792 105.501 33.9229 105.444Z" fill="#263238"/>
<path d="M35.7261 104.202C35.6697 104.202 35.4443 103.469 35.2189 102.566C35.0499 101.663 34.9372 100.873 35.0499 100.873C35.1062 100.873 35.3316 101.606 35.557 102.509C35.7261 103.469 35.7824 104.202 35.7261 104.202Z" fill="#263238"/>
<path d="M89.2589 71.3545L79.0595 87.9476L87.1176 90.1487L96.0209 76.434L89.2589 71.3545Z" fill="#455A64"/>
<path d="M88.6391 85.4643L88.9772 87.8912L90.3859 89.6972L90.555 91.2211L95.6829 89.6408L93.5979 82.3037C93.5979 82.3037 93.936 80.159 93.8233 79.3124L92.4145 81.1749L92.0201 78.1272L89.1462 75.8132C88.8081 75.5874 88.4137 75.6439 88.1883 75.9825C87.9629 76.2647 88.0192 76.6598 88.2446 76.8855L90.555 78.9173L90.724 81.4571L89.0335 79.8768C88.8645 79.7075 88.6391 79.5946 88.47 79.5946L86.1597 79.1431C85.8216 79.0867 85.4835 79.3124 85.4271 79.651C85.3708 79.9332 85.5962 80.2154 85.8779 80.2719L88.0192 80.9491L90.1605 83.0938L88.0756 82.3037L85.2581 82.6988C84.9763 82.7552 84.8073 82.981 84.8073 83.2632C84.8073 83.6018 85.089 83.8275 85.3708 83.8275L87.174 83.7147L88.2446 84.0533L85.8216 84.6741C85.5962 84.7306 85.4271 84.9563 85.4271 85.1821C85.4271 85.4643 85.7089 85.69 85.9343 85.6336L88.6391 85.4643Z" fill="#FFBE9D"/>
<g opacity="0.4">
<path opacity="0.4" d="M89.3152 91.6163L89.0898 94.3254L96.8662 92.1807L95.9646 89.5845L89.3152 91.6163Z" fill="black"/>
</g>
<path d="M79.0595 87.9475C79.0595 87.9475 78.3833 86.9881 78.4396 86.8752C78.496 86.7059 88.1319 70.79 88.1319 70.79L89.2589 71.4109L79.0595 87.9475Z" fill="#263238"/>
<path d="M91.7947 75.5312C91.9637 75.3619 92.3018 75.4748 92.3582 75.7005C92.4145 75.9263 92.1891 76.2085 91.9637 76.1521C91.7383 76.0956 91.6256 75.757 91.7947 75.5312Z" fill="#263238"/>
<path d="M85.4271 95.9618C85.4271 95.9618 85.3707 96.1311 85.1453 96.3569C84.9199 96.5826 84.5255 96.8648 83.9056 97.0342C83.2857 97.2035 82.4968 97.2035 81.6516 97.0342C80.8063 96.9213 79.792 96.6391 78.7777 96.9213C77.7071 97.147 76.7491 97.8243 75.7348 98.6144C74.7205 99.4046 73.6498 100.364 72.2411 100.816C71.5085 101.041 70.776 101.098 69.9871 100.985C69.1982 100.872 68.4656 100.646 67.7331 100.364C66.268 99.7997 64.8592 98.9531 63.2814 98.3887C62.4925 98.1065 61.7036 97.9372 60.9147 97.8807C60.1258 97.8243 59.3369 97.9372 58.548 98.1065C57.0265 98.4451 55.6177 98.9531 54.1526 99.2353C51.2788 99.8561 48.574 99.2353 46.6017 98.2194C44.6294 97.2035 43.3897 95.8489 42.6572 94.833C41.9246 93.8171 41.6992 93.1963 41.6992 93.1963C41.7556 93.1963 41.981 93.8171 42.7135 94.7766C43.4461 95.7361 44.6858 97.0342 46.658 98.0501C48.574 99.0095 51.2224 99.6303 54.0399 99.0095C55.4487 98.7273 56.8575 98.1629 58.4353 97.8243C59.2242 97.655 60.0131 97.5421 60.8583 97.5985C61.7036 97.655 62.4925 97.8807 63.2814 98.1629C64.8592 98.7273 66.268 99.5739 67.7331 100.138C68.4656 100.42 69.1982 100.646 69.9307 100.759C70.6633 100.872 71.3958 100.816 72.072 100.59C73.4244 100.195 74.4951 99.2353 75.5094 98.5016C76.5237 97.7114 77.538 97.0342 78.665 96.8084C79.792 96.5826 80.8063 96.8648 81.6516 96.9777C82.4968 97.147 83.2294 97.147 83.8493 97.0342C84.4691 96.9213 84.8636 96.6391 85.089 96.4698C85.3144 96.0747 85.4271 95.9618 85.4271 95.9618Z" fill="#FAFAFA"/>
<path d="M88.639 106.686C88.5827 106.686 88.4699 105.557 88.4136 104.203C88.3572 102.792 88.4136 101.72 88.47 101.663C88.5263 101.663 88.639 102.792 88.6953 104.146C88.7517 105.557 88.6954 106.686 88.639 106.686Z" fill="#263238"/>
<path d="M71.0577 210.478C71.2831 211.437 77.0309 243.72 77.0309 243.72L85.8215 243.043L84.1874 210.083L71.0577 210.478Z" fill="#FFBE9D"/>
<path d="M86.1033 243.609V242.706L76.6928 242.875L76.7492 245.923H77.3127C79.9048 246.035 90.4423 246.205 92.1328 245.64C94.105 245.076 86.1033 243.609 86.1033 243.609Z" fill="#CAB1DC"/>
<g opacity="0.3">
<g opacity="0.3">
<g opacity="0.3">
<g opacity="0.3">
<path opacity="0.3" d="M80.1302 245.808C79.9611 245.075 79.5103 244.397 78.8905 244.002C78.2706 243.551 77.4817 243.325 76.6928 243.438L76.7492 245.865L80.1302 245.808Z" fill="black"/>
</g>
</g>
</g>
</g>
<g opacity="0.3">
<g opacity="0.3">
<path opacity="0.3" d="M89.9915 244.454C89.9915 244.454 92.809 245.131 92.4709 245.583C92.1328 246.034 81.4826 246.204 76.7491 245.922V245.752L89.2026 245.639C89.2026 245.583 89.4843 244.511 89.9915 244.454Z" fill="black"/>
</g>
</g>
<path d="M76.6365 245.696C76.6365 245.696 76.6928 245.696 76.8055 245.696C76.9182 245.696 77.0873 245.696 77.2563 245.696C77.7071 245.696 78.2706 245.696 78.9468 245.753C80.3556 245.753 82.3842 245.753 84.5819 245.753C86.7795 245.696 88.7518 245.64 90.1606 245.583C90.8368 245.527 91.4003 245.527 91.8511 245.471C92.0201 245.471 92.1892 245.471 92.3019 245.414C92.4146 245.414 92.4709 245.414 92.4709 245.414C92.4709 245.414 92.4146 245.414 92.3019 245.414C92.1892 245.414 92.0201 245.414 91.8511 245.414C91.4003 245.414 90.8368 245.471 90.1606 245.471C88.7518 245.527 86.7232 245.583 84.5819 245.64C82.3842 245.696 80.4119 245.696 79.0032 245.696C78.327 245.696 77.7635 245.696 77.3127 245.696C77.1436 245.696 76.9746 245.696 76.8619 245.696C76.6928 245.696 76.6365 245.696 76.6365 245.696Z" fill="#263238"/>
<path d="M89.2025 245.751C89.2589 245.751 89.2589 245.356 89.4843 245.017C89.7097 244.622 90.0478 244.453 90.0478 244.396C90.0478 244.396 89.6533 244.566 89.3716 244.961C89.1462 245.3 89.2025 245.751 89.2025 245.751Z" fill="#263238"/>
<path d="M86.4414 244.454C86.4414 244.454 86.6104 244.341 86.7231 244.115C86.8358 243.89 86.9485 243.72 86.8922 243.72C86.8922 243.72 86.7231 243.833 86.6104 244.059C86.4977 244.285 86.385 244.454 86.4414 244.454Z" fill="#263238"/>
<path d="M85.6525 244.115C85.6525 244.115 85.8215 244.059 85.9906 243.89C86.1596 243.777 86.2723 243.607 86.216 243.607C86.216 243.607 86.0469 243.664 85.8779 243.833C85.7652 243.946 85.6525 244.115 85.6525 244.115Z" fill="#263238"/>
<path d="M85.1453 243.325C85.1453 243.381 85.3707 243.381 85.6525 243.381C85.9342 243.381 86.1596 243.381 86.1596 243.325C86.1596 243.269 85.9342 243.269 85.6525 243.269C85.3707 243.269 85.1453 243.269 85.1453 243.325Z" fill="#263238"/>
<path d="M84.9763 242.706C84.9763 242.706 85.2017 242.818 85.5398 242.818C85.8779 242.818 86.1033 242.762 86.1033 242.762C86.1033 242.706 85.8779 242.762 85.5398 242.762C85.258 242.762 84.9763 242.706 84.9763 242.706Z" fill="#263238"/>
<path d="M86.7231 243.72C86.7231 243.72 86.9485 243.777 87.343 243.72C87.512 243.72 87.7375 243.664 87.9629 243.551C88.0756 243.494 88.1882 243.494 88.3009 243.382C88.3573 243.325 88.4137 243.269 88.47 243.212C88.47 243.156 88.47 243.043 88.3573 242.987C87.7938 242.704 87.2303 243.043 87.0049 243.325C86.8922 243.494 86.8359 243.607 86.8359 243.72C86.8359 243.833 86.8359 243.89 86.8359 243.89C86.8359 243.89 86.8922 243.664 87.1176 243.382C87.2303 243.269 87.3993 243.156 87.6248 243.043C87.8502 242.987 88.1319 242.987 88.3573 243.099C88.47 243.156 88.4137 243.269 88.3009 243.325C88.1882 243.382 88.0756 243.438 87.9629 243.438C87.7375 243.494 87.512 243.551 87.343 243.607C86.9485 243.664 86.7231 243.72 86.7231 243.72Z" fill="#263238"/>
<path d="M86.8922 243.72C86.8922 243.72 87.0049 243.607 86.9485 243.325C86.9485 243.212 86.8922 243.043 86.7795 242.93C86.6668 242.817 86.5541 242.648 86.2723 242.648C86.1596 242.648 86.0469 242.817 86.1032 242.93C86.1032 243.043 86.1596 243.099 86.2159 243.156C86.3286 243.269 86.385 243.382 86.4977 243.495C86.6668 243.664 86.8358 243.72 86.8922 243.72C86.8358 243.72 86.7231 243.607 86.5541 243.438C86.4977 243.325 86.385 243.212 86.2723 243.099C86.1596 242.987 86.1032 242.761 86.2723 242.761C86.4414 242.761 86.5541 242.874 86.6668 242.987C86.7795 243.099 86.8358 243.212 86.8358 243.325C86.8922 243.607 86.8358 243.72 86.8922 243.72Z" fill="#263238"/>
<path d="M76.7491 243.325C76.7491 243.325 77.0309 243.269 77.4253 243.325C77.8198 243.381 78.4397 243.494 78.9468 243.889C79.454 244.228 79.7921 244.736 79.9048 245.131C80.0738 245.526 80.0738 245.752 80.0738 245.752C80.0738 245.752 80.0738 245.695 80.0738 245.583C80.0738 245.47 80.0175 245.3 79.9611 245.131C79.8484 244.736 79.5103 244.228 79.0032 243.833C78.4397 243.438 77.8761 243.325 77.4253 243.269C77.1999 243.269 77.0309 243.269 76.9182 243.269C76.8055 243.325 76.7491 243.325 76.7491 243.325Z" fill="#263238"/>
<path d="M81.3135 244.905C81.3135 244.905 81.9333 245.018 82.6659 245.018C83.3984 245.018 84.0183 244.905 84.0183 244.905C84.0183 244.849 83.3984 244.905 82.6659 244.905C81.9333 244.905 81.3135 244.905 81.3135 244.905Z" fill="#263238"/>
<path d="M79.454 244.963C79.454 244.963 79.5103 245.076 79.5667 245.189C79.623 245.301 79.6794 245.414 79.6794 245.414C79.7357 245.414 79.7357 245.301 79.623 245.132C79.623 245.019 79.5103 244.906 79.454 244.963Z" fill="#263238"/>
<path d="M78.7778 244.172C78.7778 244.172 78.8341 244.284 78.8905 244.397C79.0032 244.51 79.0595 244.567 79.1159 244.51C79.1159 244.51 79.0595 244.397 79.0032 244.284C78.8905 244.172 78.7778 244.115 78.7778 244.172Z" fill="#263238"/>
<path d="M77.7634 243.834C77.7634 243.89 77.8761 243.834 78.0452 243.89C78.1579 243.947 78.2706 244.003 78.3269 244.003C78.3269 244.003 78.2706 243.89 78.1015 243.834C77.8761 243.721 77.7634 243.777 77.7634 243.834Z" fill="#263238"/>
<path d="M77.0872 243.664C77.0872 243.664 77.1436 243.72 77.1999 243.777C77.2563 243.777 77.369 243.777 77.369 243.777C77.369 243.777 77.3126 243.72 77.2563 243.664C77.1436 243.607 77.0872 243.607 77.0872 243.664Z" fill="#263238"/>
<path d="M48.6303 207.769C48.574 208.784 44.9112 240.221 44.9112 240.221L53.5328 242.14L61.4782 210.139L48.6303 207.769Z" fill="#FFBE9D"/>
<path d="M53.9272 242.987L54.0963 242.084L44.9112 240.052L44.235 243.043L44.7985 243.212C47.2779 243.89 57.4773 246.599 59.2805 246.486C61.3091 246.373 53.9272 242.987 53.9272 242.987Z" fill="#CAB1DC"/>
<g opacity="0.3">
<g opacity="0.3">
<g opacity="0.3">
<g opacity="0.3">
<path opacity="0.3" d="M47.616 243.665C47.616 242.931 47.3906 242.197 46.8271 241.576C46.3199 241.012 45.5874 240.617 44.8548 240.504L44.3477 242.874L47.616 243.665Z" fill="black"/>
</g>
</g>
</g>
</g>
<g opacity="0.3">
<g opacity="0.3">
<path opacity="0.3" d="M57.5336 244.735C57.5336 244.735 60.0694 246.09 59.6749 246.429C59.2241 246.767 48.8557 244.397 44.3477 242.986L44.404 242.816L56.5193 245.638C56.463 245.638 56.9701 244.679 57.5336 244.735Z" fill="black"/>
</g>
</g>
<path d="M44.235 242.761C44.235 242.761 44.2913 242.761 44.404 242.817C44.5167 242.874 44.6858 242.874 44.8548 242.93C45.3056 243.043 45.8691 243.212 46.489 243.382C47.8978 243.72 49.8137 244.228 51.955 244.736C54.0963 245.244 56.0122 245.639 57.421 245.865C58.0972 245.978 58.6607 246.091 59.1115 246.204C59.2805 246.26 59.4496 246.26 59.5623 246.26C59.675 246.26 59.7313 246.26 59.7313 246.26C59.7313 246.26 59.675 246.26 59.5623 246.204C59.4496 246.147 59.2805 246.147 59.1115 246.091C58.6607 245.978 58.0972 245.865 57.421 245.752C56.0122 245.47 54.0963 245.075 51.955 244.567C49.8137 244.059 47.8978 243.607 46.489 243.269C45.8128 243.099 45.3056 242.987 44.8548 242.874C44.6858 242.817 44.5167 242.817 44.404 242.761C44.2913 242.817 44.235 242.761 44.235 242.761Z" fill="#263238"/>
<path d="M56.463 245.809C56.5194 245.809 56.5757 245.471 56.9138 245.132C57.2519 244.794 57.6464 244.681 57.59 244.681C57.59 244.681 57.1392 244.737 56.8011 245.076C56.463 245.414 56.4067 245.809 56.463 245.809Z" fill="#263238"/>
<path d="M54.0399 243.89C54.0399 243.89 54.209 243.777 54.378 243.608C54.5471 243.438 54.6598 243.269 54.6598 243.269C54.6598 243.269 54.4907 243.382 54.3217 243.551C54.1526 243.721 54.0399 243.89 54.0399 243.89Z" fill="#263238"/>
<path d="M53.3638 243.381C53.3638 243.381 53.5328 243.325 53.7019 243.268C53.8709 243.155 54.04 243.099 53.9836 243.042C53.9836 243.042 53.8146 243.099 53.6455 243.155C53.5328 243.268 53.3638 243.381 53.3638 243.381Z" fill="#263238"/>
<path d="M53.082 242.478C53.082 242.535 53.3074 242.591 53.5328 242.648C53.8146 242.704 54.04 242.761 54.04 242.704C54.04 242.648 53.8146 242.591 53.5892 242.535C53.3074 242.478 53.082 242.422 53.082 242.478Z" fill="#263238"/>
<path d="M53.082 241.859C53.082 241.859 53.251 242.028 53.5891 242.141C53.8709 242.254 54.1526 242.198 54.1526 242.198C54.1526 242.141 53.9272 242.141 53.6455 242.028C53.3074 241.972 53.082 241.859 53.082 241.859Z" fill="#263238"/>
<path d="M54.4907 243.269C54.4907 243.269 54.7161 243.382 55.0542 243.382C55.2233 243.382 55.4487 243.439 55.7304 243.382C55.8431 243.382 55.9558 243.382 56.1249 243.326C56.1812 243.326 56.2939 243.269 56.2939 243.213C56.3503 243.156 56.2939 243.043 56.2376 242.987C55.7304 242.592 55.1106 242.761 54.8288 242.987C54.6598 243.1 54.6034 243.213 54.5471 243.326C54.4907 243.439 54.4907 243.495 54.4907 243.495C54.4907 243.495 54.6034 243.269 54.8852 243.1C54.9979 242.987 55.2233 242.931 55.4487 242.931C55.6741 242.931 55.9558 242.987 56.1249 243.156C56.1812 243.269 56.1249 243.326 56.0122 243.382C55.8995 243.439 55.7868 243.439 55.6741 243.439C55.4487 243.439 55.2233 243.439 55.0542 243.439C54.7725 243.269 54.5471 243.213 54.4907 243.269Z" fill="#263238"/>
<path d="M54.6598 243.325C54.6598 243.325 54.7725 243.212 54.8289 242.987C54.8289 242.874 54.8289 242.705 54.7725 242.535C54.7162 242.366 54.6035 242.197 54.3217 242.14C54.209 242.14 54.0963 242.253 54.0963 242.366C54.0963 242.479 54.0963 242.535 54.1527 242.648C54.209 242.817 54.2654 242.93 54.3781 243.043C54.4908 243.212 54.6035 243.269 54.6598 243.325C54.6035 243.269 54.4908 243.156 54.3781 242.987C54.3217 242.874 54.2654 242.761 54.209 242.592C54.1527 242.479 54.1527 242.253 54.3217 242.253C54.4908 242.253 54.6035 242.422 54.6598 242.592C54.7162 242.705 54.7725 242.874 54.7725 242.987C54.7162 243.156 54.6598 243.269 54.6598 243.325Z" fill="#263238"/>
<path d="M44.9112 240.503C44.9112 240.503 45.1929 240.56 45.5874 240.673C45.9819 240.785 46.5454 241.068 46.9398 241.576C47.3343 242.027 47.5597 242.591 47.616 242.987C47.6724 243.382 47.616 243.607 47.6724 243.607C47.6724 243.607 47.6724 243.551 47.7287 243.438C47.7287 243.325 47.7287 243.156 47.7287 242.93C47.6724 242.535 47.5033 241.971 47.1089 241.463C46.6581 240.955 46.0946 240.673 45.7001 240.56C45.4747 240.503 45.3056 240.447 45.1929 240.447C44.9675 240.503 44.9112 240.503 44.9112 240.503Z" fill="#263238"/>
<path d="M48.9684 243.1C48.9684 243.1 49.5319 243.325 50.2644 243.551C50.997 243.72 51.6168 243.777 51.6168 243.777C51.6168 243.72 50.997 243.664 50.2644 243.495C49.5319 243.269 48.9684 243.1 48.9684 243.1Z" fill="#263238"/>
<path d="M47.1652 242.706C47.1652 242.706 47.1652 242.818 47.2216 242.988C47.2779 243.101 47.2779 243.27 47.2779 243.27C47.3343 243.27 47.3343 243.157 47.3343 242.988C47.2779 242.818 47.2216 242.706 47.1652 242.706Z" fill="#263238"/>
<path d="M46.6581 241.802C46.6581 241.802 46.6581 241.915 46.7708 242.027C46.8271 242.14 46.9398 242.197 46.9398 242.197C46.9398 242.197 46.9398 242.084 46.8271 241.971C46.7708 241.858 46.7144 241.745 46.6581 241.802Z" fill="#263238"/>
<path d="M45.8128 241.181C45.8128 241.237 45.9255 241.237 46.0382 241.294C46.1509 241.35 46.2636 241.463 46.2636 241.463C46.2636 241.463 46.2636 241.294 46.0946 241.237C45.9255 241.181 45.8128 241.181 45.8128 241.181Z" fill="#263238"/>
<path d="M45.1366 240.898C45.1366 240.898 45.1366 240.955 45.2493 241.011C45.3057 241.068 45.362 241.068 45.4184 241.068C45.4184 241.068 45.4184 241.011 45.3057 240.955C45.2493 240.898 45.1366 240.842 45.1366 240.898Z" fill="#263238"/>
<path d="M80.9754 67.7994C80.75 67.1221 80.1865 66.6142 79.9048 65.9933C79.5103 65.0339 79.7921 63.9051 79.9048 62.8327C80.0175 61.7604 79.7921 60.5187 78.8341 60.0672C78.4397 59.8979 77.9889 59.8979 77.5944 59.6722C76.8619 59.2206 76.8619 58.1483 76.8055 57.2453C76.7492 56.6809 76.6365 56.0601 76.3547 55.5521C76.4111 55.5521 76.4674 55.4957 76.5238 55.4957C77.7635 55.157 79.0595 55.8907 79.3976 56.9066C79.5667 57.4146 79.5667 57.979 79.2849 58.3176C79.0032 58.7127 78.496 58.8256 78.2143 58.6563C77.8762 58.4869 77.7071 58.0919 77.8198 57.8097C77.8762 57.5275 78.2143 57.4146 78.4397 57.471C78.6651 57.471 78.8341 57.6404 78.8905 57.6968C78.9468 57.8097 78.9468 57.8661 79.0032 57.8661C79.0032 57.8661 79.0032 57.8097 79.0032 57.6404C78.9468 57.5275 78.7778 57.3582 78.5524 57.3017C78.4397 57.3017 78.2706 57.3017 78.1016 57.3582C77.9325 57.4146 77.7635 57.5275 77.7071 57.7532C77.5944 58.1483 77.7635 58.6563 78.1579 58.882C78.6087 59.1078 79.2286 58.9385 79.5667 58.4869C79.9611 58.0354 79.9611 57.3582 79.7357 56.7938C79.3413 55.7214 78.1016 54.9313 76.7492 55.1006C77.0309 54.6491 77.0873 54.0847 76.9182 53.5767C76.6928 52.8995 76.1857 52.5044 75.6222 52.2786C75.0586 52.0529 74.4951 52.0529 73.988 52.1658C73.4808 52.2786 73.03 52.5044 72.6919 52.7301C72.3538 52.9559 72.0721 53.2381 71.7903 53.4074C71.5086 53.5767 71.2832 53.6896 71.0578 53.6896C70.607 53.7461 70.3816 53.5203 70.3816 53.5203C70.3816 53.5203 70.5506 53.8025 71.0578 53.8025C71.2832 53.8025 71.6213 53.6896 71.903 53.5203C72.1848 53.351 72.5229 53.0688 72.861 52.8995C73.5372 52.5044 74.5515 52.1093 75.5658 52.5044C76.073 52.6737 76.5238 53.0688 76.6365 53.6332C76.8055 54.1411 76.6928 54.762 76.242 55.157C75.9603 54.6491 75.5658 54.1976 75.0023 53.9154C73.8753 53.2945 72.1848 53.5767 71.6213 54.762L62.3798 51.6014C61.2528 50.5855 59.5623 50.3033 58.1536 50.7548C58.0972 50.7548 58.0409 50.7548 57.9845 50.6983C57.5337 50.6419 56.9702 50.6983 56.4067 50.9805C55.8432 51.2627 55.336 51.7707 54.8289 52.3351C54.5471 52.6173 54.2654 52.8995 53.9273 53.0688C53.8709 53.1252 53.8146 53.1252 53.7582 53.1252C53.3638 53.1817 52.913 53.1817 52.5185 53.1817C51.7296 53.0123 50.9407 52.5608 49.9828 52.448C49.4756 52.3915 48.9121 52.3915 48.405 52.5608C47.8978 52.7301 47.3906 53.0123 46.9962 53.4639C46.6017 53.9154 46.3763 54.4798 46.3763 55.1006C46.3763 55.5521 46.489 55.9472 46.6017 56.3987C46.3763 56.9631 46.32 57.5275 46.32 58.1483C46.3763 58.9385 46.6017 59.7286 46.6017 60.5187C46.3763 60.6881 46.1509 60.8009 45.8692 60.9138C45.362 61.0831 44.8549 61.1396 44.3477 61.3089C43.3334 61.704 42.6572 62.5506 42.3755 63.4536C42.0937 64.2437 42.1501 65.2032 42.6009 65.7676C42.3755 66.7835 42.6009 67.9123 43.2771 68.7589C43.7279 69.3232 44.3477 69.7183 44.7422 70.3392C45.362 71.2986 45.2493 72.4838 45.4184 73.6126C45.5874 74.7414 46.2073 75.9831 47.3343 76.0395C48.2359 76.0959 49.0248 75.3622 49.9264 75.4187C51.1661 75.5316 51.7296 77.0554 52.4622 78.0713C53.3638 79.3694 55.0543 80.1031 56.6321 79.8774C57.7591 79.708 58.9425 79.0872 60.0695 79.4258C61.4782 79.7645 62.3235 81.4577 63.7886 81.627C64.8592 81.7963 65.8735 81.0626 66.6625 80.3289C67.4514 79.5952 68.2966 78.7486 69.3673 78.5793C70.6633 78.3535 71.903 79.1437 73.1991 79.313C74.8896 79.5387 76.6365 78.6357 77.4817 77.1683C78.2143 75.8702 78.2143 74.2899 78.8341 72.9918C79.2849 72.0888 80.0175 71.4115 80.5246 70.5649C80.9191 69.7748 81.3135 68.7589 80.9754 67.7994ZM43.8969 63.6229C43.6715 63.5665 43.5588 63.6229 43.5588 63.6229C43.5588 63.6229 43.6715 63.6229 43.7842 63.6793C43.7279 63.7358 43.6715 63.7358 43.6152 63.7922C43.108 64.2437 42.7136 64.8081 42.5445 65.4854C42.2628 64.9774 42.2628 64.2437 42.4882 63.5665C42.7699 62.7763 43.4461 61.9862 44.3477 61.6475C44.7985 61.4782 45.3057 61.4218 45.8128 61.2525C46.0382 61.196 46.2636 61.0831 46.4327 60.9703C46.3763 61.2525 46.32 61.5911 46.1509 61.8168C45.7565 62.7199 44.7422 63.0585 43.8969 63.6229ZM50.2082 53.2381C48.6867 53.4639 47.3906 54.5362 46.7144 55.8907C46.6581 55.6085 46.6017 55.3828 46.6017 55.1006C46.6017 54.5362 46.7708 54.0282 47.1089 53.6896C47.7851 52.8995 48.9121 52.6173 49.8701 52.7866C50.3772 52.843 50.8844 53.0123 51.3915 53.1817C51.0534 53.1817 50.6026 53.1817 50.2082 53.2381ZM54.8852 52.843C54.7725 52.8995 54.6598 52.9559 54.5471 52.9559C54.7162 52.7866 54.8852 52.6173 54.9979 52.5044C55.5051 51.94 55.9559 51.3756 56.463 51.1499C56.9702 50.9241 57.421 50.8677 57.8155 50.8677C57.59 50.9805 57.3646 51.0934 57.1392 51.2063C56.3503 51.7142 55.7305 52.448 54.8852 52.843Z" fill="#263238"/>
<path d="M74.8896 72.2592C75.3404 69.4936 75.1713 64.9221 74.9459 61.1971C74.7205 57.8672 71.7903 55.3274 68.4656 55.6661L58.7734 56.682C57.7591 56.7948 56.9702 57.6414 57.0265 58.6573L58.0408 82.4746C56.6884 82.4746 55.7868 82.4746 55.7868 82.4746V86.764C55.7868 91.6742 59.7877 95.6814 64.6902 95.6814C69.5926 95.6814 73.5935 91.6742 73.5935 86.764V83.039C73.5935 83.039 71.2831 82.3053 69.8744 82.3618C69.818 82.3618 69.649 82.3618 69.5363 82.3618C69.5363 80.1606 69.7053 78.4675 69.7053 78.4675C69.7053 78.4675 74.0443 77.8466 74.8896 72.2592Z" fill="#FFBE9D"/>
<path d="M73.5372 64.8087C73.5372 65.2038 73.2554 65.486 72.861 65.5424C72.4665 65.5424 72.1284 65.2602 72.1284 64.9216C72.1284 64.5265 72.4102 64.2443 72.8046 64.1879C73.1991 64.1314 73.5372 64.4136 73.5372 64.8087Z" fill="#263238"/>
<path d="M73.9879 63.5672C73.8752 63.6801 73.3681 63.285 72.5792 63.285C71.7903 63.285 71.2268 63.6801 71.1704 63.5672C71.1141 63.5108 71.2268 63.3415 71.4522 63.1721C71.6776 63.0028 72.1284 62.8335 72.5792 62.8335C73.0863 62.8335 73.4808 63.0028 73.7062 63.1721C73.9316 63.3415 74.0443 63.5108 73.9879 63.5672Z" fill="#263238"/>
<path d="M65.9862 64.8087C65.9862 65.2038 65.7045 65.486 65.31 65.5424C64.9156 65.5424 64.5775 65.2602 64.5775 64.9216C64.5775 64.5265 64.8592 64.2443 65.2537 64.1879C65.6481 64.1314 65.9862 64.4136 65.9862 64.8087Z" fill="#263238"/>
<path d="M66.437 63.68C66.3243 63.7929 65.8171 63.3978 65.0282 63.3978C64.2393 63.3978 63.6758 63.7929 63.6195 63.68C63.5631 63.6236 63.6758 63.4542 63.9012 63.2849C64.1266 63.1156 64.5774 62.9463 65.0282 62.9463C65.5354 62.9463 65.9298 63.1156 66.1552 63.2849C66.3806 63.5107 66.437 63.68 66.437 63.68Z" fill="#263238"/>
<path d="M69.1982 69.4369C69.1982 69.3804 69.649 69.324 70.4379 69.2111C70.6069 69.2111 70.8323 69.1547 70.8323 69.0418C70.8887 68.8725 70.776 68.7031 70.7196 68.4774C70.5506 68.0259 70.3252 67.5179 70.1561 66.9535C69.3672 64.8088 68.7474 63.0592 68.8601 63.0028C68.9728 62.9464 69.649 64.696 70.4942 66.8407C70.6633 67.3486 70.8887 67.8566 71.0577 68.3645C71.1141 68.5903 71.2831 68.816 71.1704 69.1547C71.1141 69.324 70.945 69.4369 70.8323 69.4369C70.7196 69.4933 70.6069 69.4933 70.4942 69.4933C69.7053 69.4933 69.1982 69.4933 69.1982 69.4369Z" fill="#263238"/>
<path d="M69.7617 78.5804C69.7617 78.5804 65.9862 78.8061 62.2671 76.605C62.2671 76.605 64.0703 80.4428 69.649 79.9349L69.7617 78.5804Z" fill="#EB996E"/>
<path d="M68.8601 71.2993C68.5783 70.9042 68.0712 70.7349 67.6204 70.7913C67.2823 70.8478 66.9442 70.9607 66.7188 71.2429C66.4934 71.5251 66.4934 71.9201 66.6624 72.1459C66.8878 72.4281 67.2823 72.4845 67.6767 72.4281C68.0712 72.3152 68.3529 72.0894 68.6347 71.8637C68.691 71.8072 68.8037 71.7508 68.8601 71.6379C68.9728 71.5251 68.9728 71.4122 68.8601 71.2993Z" fill="#EB996E"/>
<path d="M66.9442 69.9438C67.0569 69.9438 67.0569 70.7904 67.7895 71.3548C68.522 71.9757 69.4236 71.8628 69.4236 71.9757C69.4236 72.0321 69.1982 72.145 68.8601 72.145C68.4657 72.145 67.9585 72.0321 67.5077 71.6935C67.0569 71.3548 66.8879 70.8469 66.8315 70.5082C66.7752 70.1696 66.8879 69.9438 66.9442 69.9438Z" fill="#263238"/>
<path d="M66.7751 62.3248C66.7188 62.5506 65.9299 62.4377 65.0283 62.5506C64.1267 62.6635 63.3941 62.8892 63.2814 62.7199C63.2251 62.607 63.3378 62.4377 63.6759 62.2119C63.9576 61.9862 64.4084 61.8169 64.9719 61.7604C65.5354 61.704 65.9862 61.7604 66.3243 61.9297C66.6061 62.0991 66.7751 62.2684 66.7751 62.3248Z" fill="#263238"/>
<path d="M73.7062 61.9869C73.5935 62.1562 73.03 61.9869 72.4101 61.9869C71.7903 61.9305 71.2268 62.0998 71.1141 61.9305C71.0577 61.8176 71.1704 61.6483 71.3958 61.479C71.6212 61.3097 72.0157 61.1968 72.4665 61.1968C72.9173 61.1968 73.3117 61.3661 73.4808 61.5354C73.7062 61.7047 73.7626 61.8741 73.7062 61.9869Z" fill="#263238"/>
<path d="M77.0309 56.1731C76.6364 54.7057 75.5094 53.2947 73.988 53.0125C73.03 52.8432 72.0157 53.1254 71.0014 53.0689C70.1561 53.0125 69.8744 52.3352 69.0855 52.1095C67.7894 51.658 66.7751 50.247 63.9576 50.5292C63.2251 50.5856 62.2107 51.4886 61.5345 52.5045C60.4639 52.053 59.0551 52.561 58.2662 52.8996C56.6321 53.6333 55.6178 55.4394 55.336 57.3019C54.9979 59.1644 55.2797 61.0833 55.5614 62.8893C55.6741 63.7359 55.7868 64.5825 55.8995 65.4291C55.9559 65.9935 56.0686 66.5579 56.3503 67.0658L55.0543 79.0309C57.59 79.9904 60.802 78.2408 61.3655 75.5317C61.8726 73.1613 60.5766 70.7908 60.7456 68.3639C60.8583 66.953 61.6472 65.5984 61.6472 64.1874C61.6472 63.7359 61.5909 63.2844 61.4218 62.7765C63.6759 60.914 64.2957 59.4466 64.183 57.6969C64.8592 58.1485 65.7045 58.4871 66.5497 58.4871C67.7331 58.4871 68.9728 58.0356 70.0998 58.4871C70.8887 58.7693 71.4522 59.503 72.0721 60.1238C72.6919 60.7447 73.4808 61.309 74.3261 61.1962C74.7205 61.1397 75.115 60.914 75.5094 60.8011C75.9039 60.6318 76.3547 60.5753 76.6928 60.8011C77.1999 59.2772 77.4253 57.6969 77.0309 56.1731Z" fill="#263238"/>
<path d="M43.6715 68.4209C43.6715 68.3644 44.235 68.9288 45.5311 69.4932C46.1509 69.7754 46.9962 70.0012 47.9541 70.0012C48.9121 70.0012 50.0391 69.7754 51.0534 69.0981C52.0114 68.4209 52.913 67.2356 53.0257 65.8247C53.082 65.1474 52.9693 64.3572 52.6312 63.7364C52.2931 63.1156 51.5606 62.6076 50.7716 62.6076C50.3772 62.6076 50.0391 62.7205 49.701 62.9463C49.4192 63.172 49.1938 63.5107 49.0248 63.9057C48.7994 64.6959 48.9121 65.5989 49.4756 66.2197C49.9827 66.897 50.828 67.2921 51.6733 67.5178C52.5185 67.7436 53.4765 67.7436 54.3781 67.5743C55.2797 67.405 56.1249 67.0099 56.8575 66.4455C57.59 65.8811 58.0972 65.1474 58.3789 64.3572C58.6607 63.5671 58.717 62.6641 58.6043 61.8739C58.548 61.4788 58.3789 61.0838 58.2099 60.7451C57.9845 60.4065 57.7591 60.0679 57.4773 59.8421C57.1956 59.6164 56.8011 59.447 56.463 59.447C56.1249 59.447 55.7868 59.6164 55.6178 59.955C55.4487 60.2372 55.3924 60.6323 55.5051 60.9709C55.6178 61.3095 55.7868 61.5917 56.0686 61.8175C57.1392 62.7769 58.548 63.0591 59.7313 62.9463C60.9711 62.8334 61.9854 62.269 62.6052 61.5917C63.2814 60.9145 63.6195 60.1243 63.8449 59.447C64.183 58.0925 63.9576 57.3024 64.014 57.3588C64.014 57.3588 64.0703 57.5281 64.1267 57.9232C64.183 58.2618 64.1267 58.8262 63.9576 59.5035C63.7886 60.1807 63.3941 60.9709 62.7179 61.7046C62.0417 62.4383 60.9711 63.0591 59.7313 63.172C58.4916 63.3413 57.0265 63.0591 55.8995 61.9868C55.6178 61.7046 55.3924 61.4224 55.2797 61.0273C55.167 60.6323 55.2233 60.1807 55.3924 59.7857C55.6178 59.3906 56.0686 59.1648 56.463 59.1648C56.9138 59.1648 57.3083 59.3342 57.6464 59.6164C57.9845 59.8421 58.2662 60.2372 58.4916 60.5758C58.717 60.9709 58.8297 61.366 58.9424 61.8175C59.1115 62.6641 59.0551 63.6235 58.717 64.4701C58.4353 65.3167 57.8154 66.1069 57.0829 66.7277C56.3503 67.2921 55.4487 67.6871 54.4908 67.9129C53.5328 68.0822 52.5749 68.0822 51.6733 67.8565C50.7716 67.6307 49.87 67.1792 49.3065 66.4455C49.0248 66.1069 48.7994 65.6553 48.743 65.2038C48.6867 64.7523 48.6867 64.3008 48.8557 63.8493C49.0248 63.3978 49.2502 63.0027 49.5883 62.7205C49.9264 62.4383 50.3772 62.269 50.828 62.3254C51.7296 62.3254 52.4622 62.8898 52.8566 63.6235C53.2511 64.3572 53.3638 65.1474 53.3074 65.8811C53.1384 67.405 52.1804 68.5902 51.1661 69.3239C50.1518 70.0576 48.9684 70.2833 47.9541 70.2269C46.9398 70.1705 46.0946 69.9447 45.4747 69.6625C44.8549 69.3803 44.4041 69.0981 44.066 68.8724C43.8969 68.7595 43.8406 68.6466 43.7279 68.5902C43.7279 68.4773 43.6715 68.4773 43.6715 68.4209Z" fill="#455A64"/>
<path d="M77.369 58.7124C77.369 58.7124 77.3127 58.7688 77.0873 58.8817C76.9182 58.9946 76.5801 59.1075 76.1857 59.2204C75.7912 59.2768 75.2841 59.3332 74.6642 59.2204C74.1007 59.1075 73.4808 58.7688 72.9173 58.3173C72.3538 57.8094 71.8467 57.1885 71.5086 56.342C71.3395 55.9469 71.2268 55.4389 71.4522 54.931C71.5649 54.7052 71.734 54.4795 71.9594 54.3666C72.1848 54.2537 72.5229 54.2537 72.7483 54.3666C73.2555 54.6488 73.4809 55.2696 73.3118 55.7776C73.1428 56.342 72.6919 56.737 72.1848 56.9628C71.1705 57.4707 69.9871 57.4143 68.9165 57.0192C68.4093 56.8499 67.9022 56.5677 67.395 56.2855C66.9442 56.0033 66.4934 55.7211 66.099 55.2696C65.7609 54.8745 65.5918 54.1408 65.9863 53.6893C66.1553 53.4636 66.4934 53.3507 66.7752 53.4071C67.0569 53.4636 67.2823 53.6329 67.4514 53.8586C67.6204 54.0844 67.7331 54.3666 67.6768 54.6488C67.6204 54.931 67.5077 55.1567 67.3387 55.3261C67.0006 55.7211 66.5498 55.8905 66.099 55.9469C65.6482 56.0033 65.1973 55.8904 64.8592 55.7776C64.4648 55.6647 64.1267 55.4954 63.7886 55.3825C63.1124 55.1003 62.5489 54.6488 62.2108 54.1973C61.8727 53.6893 61.76 53.1814 61.8163 52.7299C61.8727 52.3348 61.9854 51.9961 62.1544 51.8268C62.3235 51.6575 62.3798 51.6011 62.3798 51.6011C62.4362 51.6011 61.9854 51.8833 61.929 52.7299C61.929 53.1249 62.0417 53.6329 62.3798 54.0844C62.7179 54.5359 63.2251 54.931 63.9013 55.2132C64.5775 55.4954 65.3101 55.834 66.099 55.7211C66.4934 55.6647 66.8879 55.4954 67.1696 55.1567C67.4514 54.8181 67.5077 54.3666 67.226 54.028C67.0006 53.6893 66.4371 53.52 66.1553 53.9151C66.0426 54.0844 65.9863 54.3102 65.9863 54.5359C65.9863 54.7617 66.099 54.9874 66.268 55.1567C66.5498 55.5518 67.0569 55.834 67.4514 56.1162C67.9022 56.3984 68.4093 56.6242 68.9165 56.7935C69.9308 57.1321 71.0578 57.1885 71.9594 56.7935C72.4102 56.5677 72.8046 56.2291 72.9173 55.7776C73.0864 55.3825 72.861 54.8745 72.4665 54.6488C72.1284 54.423 71.6776 54.7052 71.5086 55.0439C71.3395 55.3825 71.3959 55.834 71.5649 56.2291C71.8467 57.0192 72.3538 57.6401 72.861 58.148C73.3681 58.5995 73.988 58.9382 74.4952 59.051C75.0587 59.1639 75.5658 59.1639 75.9603 59.1075C76.9746 58.9946 77.369 58.7124 77.369 58.7124Z" fill="#455A64"/>
<path d="M61.0837 71.8633C61.0837 71.8633 61.0274 71.9197 60.8583 72.0326C60.6893 72.1455 60.4075 72.2584 60.0131 72.3712C59.6186 72.4277 59.1678 72.4841 58.6043 72.2584C58.0972 72.089 57.4773 71.7504 57.1956 71.0167C57.0829 70.6781 57.0829 70.2266 57.421 69.8879C57.7591 69.6057 58.2662 69.6057 58.6607 69.8879C59.3932 70.3959 59.675 71.3553 59.5059 72.3148C59.3932 73.2178 58.8297 74.1773 57.8718 74.6288C56.9138 75.0803 55.7868 74.9674 54.8289 74.403C54.3781 74.1209 53.9836 73.7822 53.6455 73.3307C53.3638 72.8792 53.2511 72.3148 53.3638 71.8068C53.4201 71.5247 53.5328 71.2989 53.7582 71.1296C53.9273 70.9603 54.209 70.8474 54.4908 70.8474C55.0543 70.8474 55.4487 71.2425 55.6741 71.6375C55.8995 72.089 56.0122 72.5406 56.0122 72.9356C56.0122 73.3871 56.0122 73.7822 55.8995 74.1773C55.6741 74.9674 55.2797 75.6447 54.7725 76.1527C54.2654 76.6606 53.6455 76.8864 53.082 76.8864C52.5185 76.9428 52.0677 76.8299 51.6732 76.6606C51.3351 76.4913 51.1097 76.322 50.9407 76.1527C50.828 75.9833 50.7153 75.9269 50.7716 75.9269C50.7716 75.8705 51.0534 76.2655 51.7296 76.5477C52.0677 76.6606 52.5185 76.7735 53.0257 76.717C53.5328 76.6606 54.0963 76.4349 54.6035 75.9833C55.0543 75.5318 55.4487 74.8546 55.6178 74.1209C55.7305 73.7258 55.7305 73.3307 55.7305 72.9356C55.7305 72.5406 55.6178 72.089 55.4487 71.7504C55.2797 71.4118 54.8852 71.1296 54.4908 71.0731C54.0963 71.0731 53.7582 71.4118 53.6455 71.8633C53.5328 72.3148 53.6455 72.7663 53.8709 73.1614C54.0963 73.5565 54.4908 73.8951 54.9416 74.1209C55.7868 74.6288 56.8575 74.7417 57.7027 74.3466C58.548 73.9515 59.0551 73.1049 59.1678 72.2584C59.2805 71.4118 59.0551 70.5652 58.4353 70.1137C58.1535 69.8879 57.7591 69.8879 57.5337 70.1137C57.3083 70.283 57.2519 70.6781 57.3646 70.9603C57.59 71.5811 58.1535 71.9197 58.6043 72.089C59.1115 72.2584 59.5623 72.2584 59.9004 72.2019C60.7456 72.1455 61.0837 71.8068 61.0837 71.8633Z" fill="#455A64"/>
<path d="M37.811 209.067C37.811 209.067 41.5865 216.404 51.3915 212.848C51.3915 212.848 61.0274 218.097 70.2125 212.227C70.2125 212.227 82.1587 213.808 88.639 210.703L80.2992 138.687L79.2285 127.625H52.9693C52.9693 127.625 45.1366 131.181 43.8969 148.564C42.6572 165.947 39.896 189.821 39.896 189.821L37.811 209.067Z" fill="#263238"/>
<path d="M69.7053 212.396C69.7053 212.396 69.7053 212.34 69.649 212.17C69.649 212.001 69.5926 211.775 69.5926 211.55C69.5363 210.985 69.4799 210.139 69.4236 209.066C69.2545 206.922 69.0291 203.817 68.8037 200.036C68.3529 192.417 67.8458 181.806 67.6204 170.123C67.395 158.44 67.395 147.83 67.5077 140.211C67.564 136.373 67.6204 133.269 67.7331 131.124C67.7894 130.052 67.7894 129.261 67.7894 128.641C67.7894 128.358 67.7894 128.133 67.8458 128.02C67.8458 127.85 67.8458 127.794 67.8458 127.794C67.8458 127.794 67.8458 127.85 67.8458 128.02C67.8458 128.189 67.8458 128.415 67.8458 128.641C67.8458 129.205 67.8458 130.052 67.7894 131.124C67.7894 133.269 67.7331 136.373 67.6767 140.211C67.6204 147.886 67.6204 158.44 67.8458 170.123C68.1275 181.806 68.5783 192.36 68.9728 200.036C69.1982 203.874 69.3672 206.922 69.4799 209.066C69.5363 210.139 69.5926 210.929 69.5926 211.55C69.5926 211.832 69.5926 212.058 69.5926 212.17C69.7053 212.34 69.7053 212.396 69.7053 212.396Z" fill="#455A64"/>
<path d="M72.0157 191.796C72.0157 191.796 72.072 191.74 72.2411 191.684C72.4101 191.627 72.6355 191.627 72.8609 191.74C73.0863 191.853 73.3681 192.079 73.4808 192.474C73.5935 192.869 73.3117 193.32 72.9173 193.546C72.5228 193.772 72.0157 193.772 71.7339 193.49C71.4522 193.207 71.3395 192.869 71.3958 192.587C71.3958 192.304 71.5649 192.079 71.6776 192.022C71.7903 191.909 71.8466 191.909 71.903 191.909C71.9593 191.966 71.6212 192.135 71.6212 192.643C71.6212 192.869 71.7339 193.151 71.9593 193.32C72.1847 193.49 72.5228 193.49 72.8046 193.32C73.0863 193.151 73.2554 192.812 73.2554 192.587C73.199 192.304 73.03 192.079 72.8046 191.966C72.3538 191.684 72.0157 191.853 72.0157 191.796Z" fill="#455A64"/>
<path d="M71.3958 170.406C71.3958 170.406 71.4522 170.349 71.6212 170.293C71.7903 170.236 72.0157 170.236 72.2411 170.349C72.4665 170.462 72.7483 170.688 72.861 171.083C72.9737 171.478 72.6919 171.93 72.2975 172.155C71.903 172.381 71.3958 172.381 71.1141 172.099C70.8323 171.817 70.7196 171.478 70.776 171.196C70.776 170.914 70.945 170.688 71.0577 170.632C71.1704 170.519 71.2268 170.519 71.2831 170.519C71.3395 170.575 71.0014 170.744 71.0014 171.252C71.0014 171.478 71.1141 171.76 71.3395 171.93C71.5649 172.099 71.903 172.099 72.1848 171.93C72.4665 171.76 72.6356 171.422 72.6356 171.196C72.5792 170.914 72.4102 170.688 72.1848 170.575C71.734 170.293 71.4522 170.462 71.3958 170.406Z" fill="#455A64"/>
<path d="M71.0578 151.499C71.0578 151.499 71.1141 151.442 71.2832 151.386C71.4522 151.329 71.6776 151.329 71.903 151.442C72.1284 151.555 72.4102 151.781 72.5229 152.176C72.6356 152.571 72.3538 153.022 71.9594 153.248C71.5649 153.474 71.0578 153.474 70.776 153.192C70.4943 152.91 70.3816 152.571 70.4379 152.289C70.4379 152.007 70.607 151.781 70.7197 151.724C70.8324 151.611 70.8887 151.611 70.9451 151.611C71.0014 151.668 70.6633 151.837 70.6633 152.345C70.6633 152.571 70.776 152.853 71.0014 153.022C71.2268 153.192 71.5649 153.192 71.8467 153.022C72.1284 152.853 72.2975 152.514 72.2975 152.289C72.2411 152.007 72.0721 151.781 71.8467 151.668C71.3959 151.386 71.0578 151.555 71.0578 151.499Z" fill="#455A64"/>
<path d="M70.3816 131.237C70.3816 131.237 70.4379 131.181 70.607 131.124C70.776 131.068 71.0014 131.068 71.2268 131.181C71.4522 131.294 71.734 131.52 71.8467 131.915C71.9594 132.31 71.6776 132.761 71.2832 132.987C70.8887 133.213 70.3816 133.213 70.0998 132.931C69.8181 132.648 69.7054 132.31 69.7617 132.028C69.7617 131.745 69.9308 131.52 70.0435 131.463C70.1562 131.35 70.2125 131.35 70.2689 131.35C70.3252 131.407 69.9871 131.576 69.9871 132.084C69.9871 132.31 70.0998 132.592 70.3252 132.761C70.5506 132.931 70.8887 132.931 71.1705 132.761C71.4522 132.592 71.6213 132.253 71.6213 132.028C71.5649 131.745 71.3959 131.52 71.1705 131.407C70.7197 131.124 70.4379 131.294 70.3816 131.237Z" fill="#455A64"/>
<path d="M104.699 109.338L237.629 108.379L241.348 198.851L103.685 197.609L104.699 109.338Z" fill="#CAB1DC"/>
<path d="M104.699 109.34L167.586 58.3755C170.234 56.2308 174.066 56.2308 176.715 58.4319L237.573 108.437" fill="#CAB1DC"/>
<g opacity="0.3">
<g opacity="0.3">
<g opacity="0.3">
<path opacity="0.3" d="M104.699 109.34L167.586 58.3755C170.234 56.2308 174.066 56.2308 176.715 58.4319L237.573 108.437" fill="black"/>
</g>
</g>
</g>
<path d="M103.685 197.609C103.516 197.44 114.166 185.813 127.464 171.647C140.763 157.424 151.639 146.08 151.808 146.249C151.977 146.419 141.327 158.045 128.028 172.211C114.786 186.378 103.854 197.778 103.685 197.609Z" fill="#263238"/>
<path d="M241.348 198.852C241.179 199.022 230.811 187.621 218.188 173.398C205.566 159.176 195.479 147.549 195.648 147.38C195.817 147.21 206.186 158.611 218.808 172.834C231.431 187.056 241.517 198.739 241.348 198.852Z" fill="#263238"/>
<g opacity="0.5">
<g opacity="0.5">
<g opacity="0.5">
<path opacity="0.5" d="M237.629 108.379L170.854 161.77L104.699 109.338" fill="black"/>
</g>
</g>
</g>
<path d="M111.405 114.305L111.179 72.7093L227.599 71.2983L228.895 115.095L170.854 161.093L111.405 114.305Z" fill="#FAFAFA"/>
<path d="M111.405 114.305C111.405 114.305 111.799 114.587 112.475 115.151C113.208 115.716 114.278 116.562 115.631 117.634C118.392 119.779 122.449 122.996 127.634 127.06C138.002 135.187 152.878 146.87 170.911 161.036H170.741C187.534 147.717 207.313 131.97 228.782 114.982L228.726 115.095C228.501 106.742 228.219 97.9936 227.937 89.0763C227.768 83.0937 227.599 77.1676 227.43 71.3544L227.599 71.5237C180.715 72.0316 139.298 72.5396 111.236 72.8218L111.348 72.7089C111.405 85.8028 111.405 96.1876 111.461 103.299C111.461 106.855 111.461 109.62 111.461 111.483C111.461 112.386 111.461 113.119 111.461 113.571C111.405 114.022 111.405 114.305 111.405 114.305C111.405 114.305 111.405 114.079 111.405 113.571C111.405 113.119 111.405 112.386 111.405 111.483C111.405 109.62 111.348 106.911 111.348 103.355C111.292 96.244 111.236 85.8028 111.123 72.7089V72.596H111.236C139.354 72.2574 180.715 71.7494 227.599 71.1851H227.768V71.3544C227.937 77.1676 228.106 83.0937 228.275 89.0763C228.557 97.9936 228.782 106.742 229.064 115.095V115.151L229.008 115.208C207.538 132.196 187.703 147.942 170.967 161.205L170.911 161.262L170.854 161.205C152.822 146.983 137.946 135.243 127.577 127.116C122.393 123.053 118.392 119.836 115.631 117.691C114.278 116.619 113.208 115.772 112.532 115.208C111.743 114.587 111.405 114.305 111.405 114.305Z" fill="#263238"/>
<path d="M209.172 92.2375C209.172 92.2939 191.366 92.5197 169.445 92.6325C147.469 92.7454 129.718 92.8019 129.718 92.7454C129.718 92.689 147.525 92.4632 169.445 92.3503C191.366 92.2375 209.172 92.181 209.172 92.2375Z" fill="#263238"/>
<path d="M209.172 103.977C209.172 104.034 191.366 104.259 169.445 104.372C147.469 104.485 129.718 104.542 129.718 104.485C129.718 104.429 147.525 104.203 169.445 104.09C191.366 103.977 209.172 103.921 209.172 103.977Z" fill="#263238"/>
<path d="M209.172 117.522C209.172 117.579 191.366 117.804 169.445 117.917C147.469 118.03 129.718 118.087 129.718 118.03C129.718 117.974 147.525 117.748 169.445 117.635C191.366 117.522 209.172 117.466 209.172 117.522Z" fill="#263238"/>
<path d="M209.172 131.068C209.172 131.124 192.211 131.294 171.249 131.463C150.286 131.576 133.325 131.632 133.325 131.519C133.325 131.463 150.286 131.294 171.249 131.124C192.211 131.011 209.172 131.011 209.172 131.068Z" fill="#263238"/>
<path d="M194.296 142.976C194.296 142.976 194.127 142.976 193.845 143.033C193.507 143.033 193.056 143.033 192.493 143.089C191.309 143.089 189.619 143.146 187.59 143.146C183.42 143.202 177.673 143.315 171.361 143.371C165.05 143.484 159.302 143.541 155.132 143.541C153.104 143.541 151.413 143.541 150.23 143.541C149.666 143.541 149.216 143.541 148.878 143.541C148.596 143.541 148.427 143.541 148.427 143.541C148.427 143.541 148.596 143.541 148.878 143.484C149.216 143.484 149.666 143.484 150.23 143.428C151.413 143.428 153.104 143.371 155.132 143.371C159.302 143.315 165.05 143.202 171.361 143.146C177.673 143.033 183.42 142.976 187.59 142.976C189.619 142.976 191.309 142.976 192.493 142.976C193.056 142.976 193.507 142.976 193.845 142.976C194.127 142.92 194.296 142.92 194.296 142.976Z" fill="#263238"/>
<path d="M179.307 154.377C179.307 154.434 175.531 154.547 170.854 154.547C166.177 154.547 162.402 154.49 162.402 154.377C162.402 154.321 166.177 154.208 170.854 154.208C175.531 154.208 179.307 154.321 179.307 154.377Z" fill="#263238"/>
<path d="M218.47 145.121C226.219 145.121 232.501 138.829 232.501 131.068C232.501 123.307 226.219 117.015 218.47 117.015C210.721 117.015 204.439 123.307 204.439 131.068C204.439 138.829 210.721 145.121 218.47 145.121Z" fill="#263238"/>
<path d="M214.807 145.121C222.557 145.121 228.839 138.829 228.839 131.068C228.839 123.307 222.557 117.015 214.807 117.015C207.058 117.015 200.776 123.307 200.776 131.068C200.776 138.829 207.058 145.121 214.807 145.121Z" fill="#455A64"/>
<path d="M216.611 124.521V136.203H214.413V126.327H211.934V124.521H216.611Z" fill="#EBEBEB"/>
<path d="M112.306 53.6901H125.154L123.407 51.7147V46.9174C123.407 44.3212 121.322 42.2329 118.73 42.2329C116.138 42.2329 114.053 44.3212 114.053 46.9174V51.4889L112.306 53.6901Z" fill="#CAB1DC"/>
<path d="M116.927 53.0689C116.983 53.8026 117.434 54.5363 118.167 54.8185C118.843 55.1007 119.688 54.9878 120.252 54.4799C120.815 53.9719 121.04 53.1253 120.815 52.3916" fill="#CAB1DC"/>
<path d="M119.406 40.2573H118.167V42.9664H119.406V40.2573Z" fill="#CAB1DC"/>
<path d="M137.495 44.8857C137.495 44.8857 137.438 44.7729 137.382 44.5471C137.326 44.3213 137.269 43.9827 137.157 43.5312C137.1 43.0797 136.931 42.5717 136.706 41.9509C136.593 41.6687 136.537 41.2736 136.368 40.935C136.199 40.5964 136.03 40.2013 135.917 39.8627C135.184 38.3388 134.114 36.5327 132.536 34.8396C130.902 33.09 128.76 31.5097 126.056 30.3809C124.703 29.7601 123.238 29.4214 121.717 29.1392C120.139 28.9699 118.505 28.857 116.814 29.0828C115.969 29.1392 115.124 29.365 114.278 29.5343C113.828 29.6472 113.433 29.8165 113.039 29.9294C112.588 30.0422 112.193 30.2116 111.799 30.3809C110.108 31.0017 108.531 32.0176 107.009 33.2593C104.023 35.6862 101.656 39.2983 100.642 43.4748C100.134 45.563 100.022 47.8206 100.247 50.0217C100.473 52.2793 101.149 54.4804 102.163 56.5122L102.501 57.133L102.558 57.1895V57.2459C101.543 60.6887 100.473 64.0186 99.5146 67.2356L99.2329 67.0099C101.994 65.5425 104.699 64.1315 107.291 62.8334L107.404 62.7769L107.516 62.8334C110.108 64.8087 113.095 66.0504 115.969 66.5019C118.899 66.9534 121.773 66.6712 124.309 65.9375C126.845 65.2038 129.099 63.9057 130.902 62.3819C132.705 60.858 134.114 59.1648 135.128 57.4152C136.142 55.6656 136.762 53.9724 137.157 52.3921C137.495 50.8118 137.664 49.4573 137.72 48.3285C137.72 47.7641 137.72 47.2562 137.72 46.8611C137.664 46.466 137.664 46.071 137.607 45.7888C137.607 45.5066 137.551 45.2808 137.551 45.1115C137.495 44.9986 137.495 44.8857 137.495 44.8857C137.495 44.8857 137.495 44.9422 137.551 45.1115C137.551 45.2808 137.607 45.5066 137.607 45.7888C137.664 46.071 137.664 46.466 137.72 46.8611C137.72 47.3126 137.72 47.8206 137.72 48.3285C137.72 49.4573 137.551 50.8118 137.213 52.3921C136.819 53.9724 136.199 55.722 135.184 57.4717C134.17 59.2213 132.761 60.9709 130.902 62.5512C129.099 64.075 126.845 65.3731 124.252 66.1633C121.66 66.9534 118.786 67.2356 115.8 66.7841C112.813 66.3326 109.827 65.0909 107.178 63.0591H107.347C104.755 64.4137 102.05 65.8246 99.2892 67.2921L98.8948 67.5178L99.0075 67.0663C99.9654 63.7928 101.036 60.4629 102.05 57.0766V57.2459L101.712 56.6251C100.642 54.5368 99.9654 52.2793 99.74 50.0217C99.4583 47.7641 99.571 45.4501 100.134 43.3054C101.205 39.0161 103.572 35.3475 106.671 32.9206C108.193 31.679 109.827 30.6631 111.517 30.0422C111.912 29.8165 112.362 29.7036 112.813 29.5907C113.264 29.4779 113.659 29.3085 114.109 29.1957C114.955 29.0263 115.8 28.8006 116.701 28.7442C118.392 28.5184 120.082 28.6313 121.66 28.857C123.238 29.1392 124.76 29.5343 126.056 30.1551C128.76 31.2839 130.958 32.9771 132.592 34.7267C134.226 36.4763 135.297 38.3388 135.973 39.8627C136.142 40.2577 136.311 40.6528 136.424 40.9914C136.593 41.3301 136.649 41.6687 136.762 42.0073C136.931 42.6282 137.1 43.1926 137.213 43.5876C137.269 44.0392 137.382 44.3213 137.382 44.6035C137.495 44.7729 137.495 44.8857 137.495 44.8857Z" fill="#263238"/>
<path d="M265.297 149.296C269.185 149.183 271.721 153.529 272.116 157.367C272.51 161.261 271.665 165.268 272.792 168.993C274.257 173.734 278.652 177.121 279.948 181.861C281.526 187.449 278.427 193.262 278.314 199.132C278.258 201.954 278.878 204.832 278.37 207.598C277.469 212.282 273.017 216.064 268.227 216.12C263.438 216.176 258.93 212.508 257.915 207.823C257.014 203.478 258.93 198.85 257.803 194.504C256.957 191.343 254.478 188.634 254.309 185.361C254.083 181.466 257.07 178.08 257.634 174.186C258.197 170.291 256.225 166.51 255.943 162.616C255.38 155.561 258.31 150.086 265.297 149.296Z" fill="#CAB1DC"/>
<path d="M273.806 229.158C273.806 229.158 273.862 229.045 273.919 228.762C273.975 228.48 274.088 228.085 274.201 227.634C274.426 226.674 274.708 225.263 275.159 223.514C276.004 220.014 277.356 215.274 279.159 210.081C281.019 204.945 282.991 200.374 284.513 197.157C285.302 195.52 285.921 194.222 286.372 193.319C286.598 192.924 286.767 192.529 286.879 192.303C286.992 192.077 287.048 191.908 287.048 191.908C287.048 191.908 286.936 192.021 286.823 192.246C286.654 192.529 286.485 192.867 286.259 193.262C285.752 194.109 285.076 195.407 284.287 197.044C282.653 200.261 280.624 204.776 278.821 209.968C276.962 215.161 275.722 219.958 274.933 223.457C274.539 225.207 274.257 226.618 274.088 227.634C274.032 228.085 273.975 228.48 273.919 228.762C273.806 229.045 273.75 229.158 273.806 229.158Z" fill="#263238"/>
<path d="M265.466 168.429C265.466 168.429 265.466 168.655 265.523 169.05C265.579 169.502 265.635 170.066 265.748 170.8C265.973 172.38 266.255 174.581 266.593 177.29C267.326 182.765 268.34 190.384 269.354 198.793C270.425 207.203 271.327 214.822 271.947 220.297C272.285 223.006 272.51 225.263 272.735 226.844C272.848 227.577 272.904 228.198 272.961 228.593C273.017 228.988 273.074 229.214 273.074 229.214C273.074 229.214 273.074 228.988 273.017 228.593C272.961 228.142 272.905 227.577 272.848 226.787C272.679 225.207 272.454 223.006 272.172 220.24C271.608 214.709 270.707 207.09 269.693 198.681C268.622 190.271 267.608 182.652 266.819 177.177C266.424 174.468 266.086 172.267 265.861 170.687C265.748 169.953 265.635 169.332 265.579 168.937C265.466 168.655 265.466 168.429 265.466 168.429Z" fill="#263238"/>
<path d="M287.33 221.539H257.859V224.981H287.33V221.539Z" fill="#263238"/>
<path d="M260.62 224.982L264.058 245.864H282.315L284.738 224.982H260.62Z" fill="#263238"/>
<path d="M284.794 224.812C284.794 224.869 279.328 225.038 272.623 225.095C265.917 225.151 260.451 225.207 260.451 225.095C260.451 225.038 265.861 224.869 272.623 224.812C279.385 224.756 284.794 224.756 284.794 224.812Z" fill="#455A64"/>
<path d="M283.78 235.31C283.78 235.31 283.724 235.31 283.611 235.31C283.498 235.31 283.329 235.31 283.104 235.31C282.653 235.31 282.033 235.31 281.244 235.254C280.455 235.141 279.441 234.915 278.483 234.181C278.032 233.843 277.582 233.335 277.243 232.77C276.962 232.15 276.849 231.416 277.074 230.682C277.3 229.949 278.032 229.328 278.934 229.328C279.385 229.328 279.779 229.553 280.061 229.892C280.343 230.231 280.512 230.626 280.625 231.077C280.963 232.883 279.723 234.859 277.807 235.48C275.891 236.157 273.524 235.028 272.566 233.109C272.341 232.601 272.172 232.093 272.116 231.529C272.116 230.964 272.228 230.4 272.566 229.892C272.905 229.441 273.412 229.045 274.032 228.989C274.651 228.933 275.271 229.271 275.553 229.779C275.891 230.287 276.06 230.852 276.06 231.416C276.06 231.98 275.891 232.545 275.666 233.053C275.159 234.069 274.257 234.802 273.299 235.254C272.341 235.705 271.327 235.987 270.312 236.1C269.298 236.213 268.284 236.157 267.326 235.818C266.368 235.48 265.579 234.859 265.072 234.069C264.565 233.278 264.452 232.263 264.79 231.416C265.072 230.569 265.804 229.892 266.65 229.779C267.495 229.666 268.34 230.005 268.791 230.569C269.298 231.19 269.242 232.037 268.96 232.658C268.678 233.278 268.227 233.73 267.72 234.069C267.213 234.407 266.706 234.577 266.255 234.802C265.804 234.972 265.354 235.141 264.959 235.254C264.17 235.48 263.55 235.592 263.1 235.649C262.874 235.705 262.705 235.705 262.592 235.705C262.48 235.705 262.423 235.705 262.423 235.705C262.423 235.705 262.48 235.705 262.592 235.649C262.705 235.649 262.874 235.592 263.043 235.536C263.438 235.423 264.057 235.31 264.846 235.084C265.241 234.972 265.635 234.802 266.142 234.633C266.593 234.464 267.1 234.238 267.551 233.899C268.002 233.561 268.453 233.166 268.735 232.545C268.96 231.98 269.016 231.19 268.566 230.682C268.115 230.174 267.382 229.836 266.593 229.949C265.861 230.061 265.185 230.682 264.959 231.472C264.677 232.263 264.79 233.166 265.241 233.899C265.692 234.633 266.481 235.254 267.326 235.536C268.227 235.875 269.185 235.875 270.2 235.762C271.158 235.649 272.172 235.367 273.13 234.915C274.032 234.464 274.877 233.73 275.328 232.827C275.835 231.924 275.891 230.682 275.271 229.836C274.989 229.384 274.482 229.158 273.975 229.215C273.468 229.271 273.017 229.553 272.735 229.949C272.454 230.344 272.341 230.908 272.341 231.416C272.341 231.924 272.51 232.432 272.735 232.883C273.637 234.689 275.835 235.762 277.638 235.141C279.441 234.577 280.625 232.714 280.286 231.077C280.23 230.682 280.061 230.287 279.779 230.005C279.554 229.723 279.159 229.497 278.821 229.497C278.089 229.441 277.413 230.005 277.187 230.682C276.962 231.359 277.074 232.037 277.356 232.658C277.638 233.222 278.032 233.673 278.483 234.069C279.385 234.746 280.399 235.028 281.188 235.141C281.977 235.254 282.653 235.254 283.048 235.254C283.273 235.254 283.386 235.254 283.555 235.254C283.724 235.31 283.78 235.31 283.78 235.31Z" fill="#455A64"/>
<defs>
<linearGradient id="paint0_linear_24_9080" x1="171.5" y1="-1.50579e-06" x2="153.845" y2="308.646" gradientUnits="userSpaceOnUse">
<stop stop-color="#CAB1DC" stop-opacity="0.26"/>
<stop offset="1" stop-color="white" stop-opacity="0"/>
</linearGradient>
</defs>
</svg>
