<svg width="215" height="147" viewBox="0 0 215 147" fill="none" xmlns="http://www.w3.org/2000/svg">
<g clip-path="url(#clip0_53_5650)">
<path d="M195.085 146.574C190.384 146.574 169.198 146.583 142.308 146.574C134.888 146.574 127.023 146.574 118.963 146.565C112.84 146.565 106.602 146.556 100.346 146.556C96.8092 146.556 93.2724 146.556 89.7445 146.547C42.424 146.512 34.8883 147.035 27.3792 146.574C13.4097 146.574 -22.3761 92.3563 20.2256 56.7643C36.7633 42.9392 15.5336 24.5798 43.0016 10.7813C61.0678 1.71252 74.1931 17.6495 96.0005 11.9083C112.121 7.6667 115.391 -2.2806 147.249 0.479093C177.88 3.1323 178.503 28.2446 168.781 48.9822C162.649 62.0796 192.73 58.0332 206.637 77.5729C230.391 110.929 195.298 146.077 195.085 146.574Z" fill="#EBF3FA"/>
<path d="M169.225 111.568C169.225 111.568 171.047 111.506 172.389 111.115C173.766 110.716 174.815 109.314 175.908 109.394C178.209 109.562 182.581 108.852 182.146 109.66C181.711 110.467 179.071 110.263 178.76 110.742C178.449 111.222 182.519 112.446 183.701 112.668C184.883 112.881 189.282 113.378 189.131 113.964C188.98 114.549 183.115 117.273 179.649 116.546C176.183 115.818 169.963 114.576 169.963 114.576L169.225 111.568Z" fill="#FFB27D"/>
<path d="M121.114 23.9499C116.022 21.3144 111.943 22.9649 111.943 22.9649C96.356 21.137 91.815 39.2835 92.0194 45.5305C92.2238 51.7775 93.7789 56.7556 86.412 63.2244C77.6322 70.9356 79.6761 81.1225 84.226 84.7251C86.1988 86.2869 88.7758 87.4671 91.5129 88.3545C94.8986 89.4548 98.5065 90.1114 101.483 90.5019C103.127 90.7148 104.576 90.8479 105.678 90.9367C105.856 90.9455 106.024 90.9633 106.193 90.9722C107.313 91.052 107.979 91.0609 107.979 91.0609C108.104 84.3525 111.072 80.9272 114.778 79.3832C115.64 79.0194 116.537 78.7621 117.452 78.5935C119.985 78.1054 122.624 78.2652 124.81 78.6911C127.939 79.3034 130.142 80.457 129.822 81.0781C131.635 81.5129 133.235 81.6904 134.63 81.6371C136.674 81.5661 138.282 80.9982 139.526 80.0488C150.954 71.255 130.907 29.0256 121.114 23.9499Z" fill="#163560"/>
<path d="M122.207 65.4961C122.207 65.4961 133.964 67.1732 138.034 72.666C143.179 79.6051 148.235 99.1714 151.914 102.676C155.593 106.182 170.985 111.408 170.985 111.408C170.985 111.408 171.553 114.78 169.785 115.809C166.799 117.549 151.71 116.794 142.948 112.1C134.55 107.592 128.596 97.7427 128.596 97.7427L122.207 65.4961Z" fill="#CAB1DC"/>
<path d="M58.9973 93.4122C58.9973 93.4122 56.5446 88.8245 54.2519 88.5317C51.9681 88.2389 47.8181 86.6683 48.0847 87.5467C48.3513 88.4252 50.9728 88.7536 51.1861 89.286C51.3993 89.8184 47.1605 90.2088 45.9608 90.1822C44.7612 90.1556 41.9619 89.8184 41.9975 90.4218C42.033 91.0252 46.7784 93.9357 50.3152 93.9091C53.852 93.8825 58.0642 95.6394 58.0642 95.6394L58.9973 93.4122Z" fill="#FFB27D"/>
<path d="M100.071 98.5325C100.071 98.5325 98.2488 101.452 95.1208 104.717C91.3529 108.648 85.6922 113.067 79.054 113.44C75.8816 113.618 72.8868 112.668 70.1853 111.169C70.1765 111.169 70.1765 111.169 70.1765 111.169C62.5341 106.918 57.2911 98.2663 57.2911 98.2663C56.2336 94.3175 58.162 92.0193 58.162 92.0193C58.162 92.0193 74.4597 96.8731 76.1037 96.3673C82.7153 94.3264 87.3273 77.0584 91.2374 71.539C94.5165 66.907 105.953 65.4961 105.953 65.4961L100.071 98.5325Z" fill="#CAB1DC"/>
<path d="M95.1119 104.717C91.344 108.648 85.6834 113.067 79.0452 113.44C75.8727 113.617 72.8779 112.668 70.1765 111.168C70.4875 111.239 78.3431 112.934 82.0221 107.566C85.7811 102.082 90.0999 93.2259 94.6232 96.7221C96.5782 98.2218 96.1872 101.487 95.1119 104.717Z" fill="#4B0082"/>
<path d="M135.803 102.171C135.492 104.664 135.012 107.326 134.355 110.148C133.315 114.585 131.511 116.324 130.729 116.901C130.489 117.078 130.347 117.14 130.347 117.14L116.431 120.548L111.534 121.746L96.0983 117.14C96.0983 117.14 89.0691 97.5475 91.895 86.5176C94.7209 75.4877 96.7292 70.2434 96.7292 70.2434C96.7292 70.2434 106.762 66.1616 128.383 69.782C128.383 69.782 138.682 79.3832 135.803 102.171Z" fill="#CAB1DC"/>
<path d="M118.963 146.565C112.84 146.565 106.602 146.556 100.346 146.556C96.8092 146.556 93.2724 146.556 89.7445 146.548C91.3262 138.765 94.7742 127.363 96.3116 122.411C96.7825 120.885 97.0758 119.98 97.0758 119.98H117.755C117.755 119.98 117.755 120.06 117.755 120.211V120.282C117.755 120.814 117.772 122.048 117.808 123.858C117.923 128.374 118.199 136.503 118.963 146.565Z" fill="#BC61FF"/>
<path d="M142.308 146.574C134.888 146.574 127.023 146.574 118.963 146.565C112.84 146.565 106.602 146.556 100.346 146.556C98.4621 142.226 100.586 130.38 101.759 124.709C101.821 124.39 101.883 124.088 101.946 123.813C101.963 123.724 101.981 123.636 102.008 123.547C102.274 122.331 102.443 121.613 102.443 121.613L105.491 121.346L106.593 121.249L109.153 121.027L117.31 120.326L117.755 120.29L129.458 119.279C129.458 119.279 130.107 120.148 131.111 121.613C134.363 126.36 141.375 137.39 142.201 145.456C142.246 145.802 142.272 146.175 142.308 146.574Z" fill="#BC61FF"/>
<path d="M131.111 100.866C132.986 104.256 135.225 105.924 135.225 105.924C134.683 113.467 131.502 116.333 130.72 116.901L130.338 117.016L118.226 118.187C118.226 118.187 123.593 116.306 124.659 112.881C125.717 109.447 124.002 105.072 125.415 99.7304C126.659 95.0096 127.832 94.9297 131.111 100.866Z" fill="#4B0082"/>
<path d="M95.8584 116.315C95.8584 116.315 98.9242 118.737 105.02 118.862C112.298 119.004 130.338 117.007 130.338 117.007C130.338 117.007 131.138 119.243 131.111 121.604C131.111 121.604 109.081 127.15 96.3116 122.411C96.3116 122.42 94.6676 119.323 95.8584 116.315Z" fill="#FFA412"/>
<path d="M106.593 121.258C106.584 120.903 106.531 120.557 106.433 120.228C106.407 120.149 106.389 120.069 106.353 119.989C106.211 119.581 105.998 119.199 105.74 118.88C105.136 118.108 104.247 117.628 103.27 117.628C102.479 117.628 101.759 117.939 101.19 118.463C101.137 118.516 101.075 118.569 101.021 118.622C100.657 119.004 100.364 119.465 100.177 119.998C100.026 120.432 99.9373 120.894 99.9373 121.391C99.9373 122.216 100.177 122.979 100.577 123.6C100.879 124.071 101.279 124.461 101.741 124.727C102.194 124.994 102.71 125.144 103.252 125.144C104.087 125.144 104.851 124.798 105.438 124.222C106.14 123.529 106.575 122.518 106.575 121.391C106.602 121.338 106.602 121.293 106.593 121.258ZM105.5 121.373C105.5 122.757 104.603 123.902 103.465 124.017H103.456C103.394 124.026 103.332 124.026 103.279 124.026C103.056 124.026 102.843 123.991 102.639 123.911C102.408 123.831 102.203 123.707 102.008 123.547C101.43 123.068 101.057 122.269 101.057 121.373C101.057 120.858 101.181 120.388 101.386 119.98C101.608 119.554 101.919 119.208 102.301 118.986C102.523 118.853 102.763 118.764 103.021 118.729C103.101 118.72 103.19 118.711 103.27 118.711C103.465 118.711 103.661 118.746 103.847 118.8C104.345 118.959 104.771 119.323 105.065 119.802C105.1 119.856 105.127 119.909 105.162 119.971C105.367 120.37 105.491 120.832 105.491 121.338V121.373H105.5Z" fill="#4B0082"/>
<path d="M121.674 66.4985C120.856 64.9545 118.501 57.1191 118.519 53.0461L117.817 53.1615L106.069 55.1314C106.069 55.1314 106.336 58.2638 106.344 61.2099C106.344 61.2365 106.344 61.2631 106.344 61.2808C106.362 63.8364 106.309 65.0965 106.824 68.2732C107.055 69.7019 106.567 79.9775 111.49 79.2321C113.24 78.9748 122.216 67.519 121.674 66.4985Z" fill="#FFB27D"/>
<path d="M106.069 55.1315C106.069 55.1315 106.336 58.2639 106.344 61.2099C112.92 61.0502 116.395 55.9833 117.817 53.1704L106.069 55.1315Z" fill="#E8945B"/>
<path d="M103.874 58.8052C103.874 58.8052 119.425 59.0626 119.443 49.3903C119.452 39.7181 121.469 33.2315 111.534 32.6547C101.599 32.0779 99.6707 35.7694 98.8798 38.9994C98.0889 42.2293 99.8306 58.4858 103.874 58.8052Z" fill="#FFB27D"/>
<path d="M104.452 32.4151C104.452 32.4151 108.708 43.7644 115.249 45.4415C121.789 47.1186 124.624 45.3706 124.624 45.3706C124.624 45.3706 119.612 41.3952 118.572 34.4472C118.563 34.456 107.66 27.0111 104.452 32.4151Z" fill="#163560"/>
<path d="M105.5 33.3381C105.5 33.3381 102.345 34.5183 101.039 36.8165C99.7684 39.0615 98.6843 42.0431 98.9331 45.699C98.9331 45.699 95.7251 37.9878 99.333 33.622C103.163 28.99 105.5 33.3381 105.5 33.3381Z" fill="#163560"/>
<path d="M110.139 79.4365C110.139 79.4365 120.27 68.3268 120.678 63.8545C120.678 63.8545 122.784 63.8989 126.65 65.8954C126.943 66.0463 127.077 66.3923 126.943 66.694C126.188 68.4776 123.584 74.2898 121.096 75.9936C121.096 75.9936 118.954 75.683 117.266 74.982C117.266 74.982 118.332 76.7656 119.176 77.8304C119.176 77.8215 114.502 80.4304 110.139 79.4365Z" fill="#4B0082"/>
<path d="M106.362 63.6593C106.362 63.6593 106.593 70.8025 110.139 79.4277C110.139 79.4277 105.34 78.4871 102.896 75.0885C102.896 75.0885 103.67 73.2782 104.327 72.8612C104.327 72.8612 102.888 72.2844 101.981 73.1185C101.981 73.1185 101.021 66.8183 101.75 65.7091C102.052 65.2654 105.616 63.464 106.362 63.6593Z" fill="#4B0082"/>
<path d="M110.903 79.4363C110.903 79.0104 110.565 78.6732 110.139 78.6643C109.712 78.6643 109.375 79.0015 109.366 79.4274C109.366 79.8534 109.703 80.1906 110.13 80.1995C110.557 80.1995 110.903 79.8623 110.903 79.4363Z" fill="#233862"/>
<path d="M106.762 90.2444C106.762 89.8185 106.424 89.4813 105.998 89.4724C105.571 89.4724 105.234 89.8096 105.225 90.2355C105.225 90.6615 105.562 90.9986 105.989 91.0075C106.415 91.0164 106.762 90.6703 106.762 90.2444Z" fill="#233862"/>
<path d="M105.936 102.942C105.936 102.516 105.598 102.179 105.171 102.17C104.745 102.17 104.407 102.508 104.398 102.934C104.389 103.359 104.736 103.697 105.162 103.706C105.589 103.706 105.936 103.359 105.936 102.942Z" fill="#233862"/>
<path d="M167.652 96.0479V99.4997C167.652 100.156 167.11 100.698 166.452 100.698H163.973C163.316 100.698 162.773 100.156 162.773 99.4997V96.0479C162.773 95.3912 163.316 94.85 163.973 94.85H166.452C167.11 94.8411 167.652 95.3824 167.652 96.0479Z" fill="#ED7D2B"/>
<path d="M167.652 96.0479V97.9735C167.652 98.6301 167.11 99.1714 166.452 99.1714H163.973C163.316 99.1714 162.773 98.6301 162.773 97.9735V96.0479C162.773 95.3912 163.316 94.85 163.973 94.85H166.452C167.11 94.8411 167.652 95.3824 167.652 96.0479Z" fill="#F99746"/>
<path d="M195.085 97.7693C195.085 99.5351 194.72 101.221 194.072 102.756C192.117 107.362 187.531 110.609 182.226 110.609H178.547C173.855 110.609 169.732 108.063 167.483 104.291C166.346 102.375 165.688 100.147 165.688 97.7693C165.688 96.0035 166.053 94.3175 166.701 92.7823C168.656 88.1769 173.242 84.9292 178.547 84.9292H182.226C187.051 84.9292 191.272 87.6179 193.476 91.5667C194.498 93.4124 195.085 95.5243 195.085 97.7693Z" fill="#ED7D2B"/>
<path d="M184.403 105.161L183.203 112.934C183.043 113.538 183.497 114.123 184.119 114.123H187.273C187.949 114.123 188.571 113.751 188.882 113.147L193.778 103.386L184.403 105.161Z" fill="#ED7D2B"/>
<path d="M177.232 105.294L178.191 112.934C178.351 113.538 177.898 114.123 177.276 114.123H174.121C173.446 114.123 172.824 113.751 172.513 113.147L167.483 104.282L177.232 105.294Z" fill="#ED7D2B"/>
<path d="M198.151 101.257C198.079 101.257 198.008 101.248 197.937 101.23C197.377 101.079 197.057 100.414 197.102 99.4908C197.146 98.5857 197.528 97.6273 198.142 96.8642C198.417 96.527 198.737 96.2342 199.084 95.9768C198.915 95.7018 198.693 95.4356 198.39 95.2137C197.875 94.8322 197.342 94.7168 196.764 94.8765C195.209 95.3024 193.885 97.5209 193.778 97.7693C193.734 97.9024 193.583 97.9734 193.45 97.929C193.307 97.8847 193.236 97.7338 193.281 97.5919C193.325 97.4499 193.716 96.7932 194.249 96.1277C195.191 94.983 196.009 94.5482 196.524 94.3885C197.297 94.1489 198.026 94.282 198.702 94.7878C199.039 95.0362 199.315 95.3468 199.528 95.6929C200.061 95.3912 200.665 95.1871 201.323 95.0806C201.465 95.054 201.599 95.1516 201.625 95.2936C201.652 95.4356 201.554 95.5687 201.412 95.5953C200.808 95.6929 200.257 95.8792 199.777 96.1543C199.928 96.5181 200.017 96.9086 200.061 97.3434C200.141 98.2219 199.963 99.1891 199.572 99.9788C199.172 100.804 198.657 101.257 198.151 101.257ZM199.324 96.4649C199.039 96.6779 198.781 96.9175 198.55 97.2014C197.999 97.8758 197.662 98.7277 197.626 99.5263C197.6 100.156 197.777 100.653 198.071 100.733C198.364 100.813 198.79 100.414 199.101 99.7748C199.439 99.0737 199.608 98.1864 199.537 97.4144C199.501 97.1215 199.448 96.7932 199.324 96.4649Z" fill="#ED7D2B"/>
<path d="M193.476 91.5667C193.778 93.0486 193.538 95.1605 193.147 96.2874C190.553 103.741 184.456 105.081 178.218 105.649C173.784 106.048 167.483 104.291 167.483 104.291C166.346 102.375 165.688 100.147 165.688 97.7693C165.688 96.0035 166.053 94.3175 166.701 92.7823C168.656 88.1769 173.242 84.9292 178.547 84.9292H182.226C187.051 84.9292 191.281 87.6179 193.476 91.5667Z" fill="#F99746"/>
<path d="M177.036 88.1503H171.98C171.473 88.1503 171.056 87.8397 171.056 87.4582V80.5634C171.056 80.448 171.091 80.3415 171.153 80.2439C171.402 79.889 172.051 79.7381 172.531 80.0132C174.45 81.0958 177.596 83.465 177.952 87.4138C177.996 87.8131 177.569 88.1503 177.036 88.1503Z" fill="#F99746"/>
<path d="M172.184 88.1502H171.98C171.473 88.1502 171.056 87.8397 171.056 87.4581V80.5633C171.056 80.448 171.091 80.3415 171.153 80.2439C171.171 80.2616 171.198 80.2794 171.216 80.306C172.318 81.5306 173.899 83.9264 173.455 87.2895C173.393 87.7776 172.842 88.1502 172.184 88.1502Z" fill="#ED7D2B"/>
<path d="M169.518 92.7557C169.518 92.3387 169.856 92.0015 170.274 92.0015C170.691 92.0015 171.029 92.3387 171.029 92.7557C171.029 93.1728 170.691 93.51 170.274 93.51C169.856 93.51 169.518 93.1728 169.518 92.7557Z" fill="#2B478B"/>
<path opacity="0.5" d="M153.336 128.782C153.336 128.782 155.06 131.205 156.633 131.24C158.215 131.276 160.614 130.122 160.614 130.122C160.614 130.122 162.063 126.901 161.076 125.632C161.076 125.632 160.09 125.198 159.059 125.961C158.881 126.094 158.703 126.262 158.526 126.475C158.277 126.777 157.993 126.946 157.699 127.034C156.571 127.38 155.238 126.573 154.74 127.345C154.447 127.798 154.127 128.135 153.869 128.374C153.558 128.649 153.336 128.782 153.336 128.782Z" fill="#C293E4"/>
<path opacity="0.5" d="M175.783 146.246C175.783 146.246 169.696 131.524 158.748 131.24C158.748 131.24 148.635 132.359 148.075 146.246H175.783Z" fill="#C293E4"/>
<path d="M161.743 131.684C161.743 131.684 157.353 132.66 155.993 132.083C155.993 132.083 155.789 130.247 157.637 130.504C158.899 130.681 159.725 130.069 160.214 129.829C160.907 129.483 161.929 130.921 161.743 131.684Z" fill="#CAB1DC"/>
<path opacity="0.5" d="M157.921 128.924C158.206 129.137 159.068 125.961 159.068 125.961C158.89 126.094 158.712 126.262 158.535 126.475C158.286 126.777 158.001 126.946 157.708 127.034C157.699 127.123 157.646 128.72 157.921 128.924Z" fill="#C293E4"/>
<path opacity="0.5" d="M153.869 128.374C153.931 128.41 155.958 129.625 156.233 129.625C156.517 129.625 154.74 127.345 154.74 127.345C154.447 127.798 154.127 128.135 153.869 128.374Z" fill="#C293E4"/>
<path opacity="0.5" d="M169.838 142.128C169.954 142.031 165.528 135.633 164.311 135.588C163.093 135.544 160.356 136.99 158.384 137.177C156.402 137.363 154.482 136.804 154.109 137.975C153.736 139.147 152.705 143.291 153.336 143.947C153.967 144.604 167.403 144.205 169.838 142.128Z" fill="#C293E4"/>
<path d="M71.8738 105.587C71.8738 105.587 70.4519 107.583 69.1456 107.61C67.8393 107.637 65.8576 106.687 65.8576 106.687C65.8576 106.687 64.658 104.025 65.4755 102.987C65.4755 102.987 66.2931 102.632 67.1373 103.262C67.2795 103.368 67.4305 103.51 67.5816 103.679C67.786 103.927 68.017 104.069 68.2659 104.14C69.1989 104.424 70.3009 103.759 70.7096 104.398C70.9496 104.77 71.2162 105.054 71.4294 105.25C71.6871 105.471 71.8738 105.587 71.8738 105.587Z" fill="#FFEDDC"/>
<path d="M53.3455 119.997C53.3455 119.997 58.3663 107.841 67.4128 107.61C67.4128 107.61 75.7572 108.533 76.2193 119.997H53.3455Z" fill="#FFEDDC"/>
<path d="M64.9334 107.982C64.9334 107.982 68.5591 108.79 69.6788 108.311C69.6788 108.311 69.8477 106.793 68.3192 107.006C67.2706 107.148 66.5952 106.651 66.1953 106.447C65.6266 106.163 64.7824 107.352 64.9334 107.982Z" fill="#DB6A1D"/>
<path d="M68.0881 105.702C67.8571 105.879 67.1462 103.253 67.1462 103.253C67.2884 103.359 67.4394 103.501 67.5905 103.67C67.7949 103.918 68.0259 104.06 68.2747 104.131C68.2747 104.22 68.3192 105.533 68.0881 105.702Z" fill="#E5C1A1"/>
<path d="M71.4383 105.25C71.385 105.276 69.7144 106.279 69.4833 106.279C69.2523 106.279 70.7185 104.398 70.7185 104.398C70.9585 104.77 71.2251 105.054 71.4383 105.25Z" fill="#E5C1A1"/>
<path d="M58.2597 116.599C58.1708 116.519 61.8143 111.239 62.8185 111.195C63.8226 111.159 66.0798 112.348 67.7149 112.508C69.35 112.659 70.9318 112.198 71.2429 113.165C71.5539 114.132 72.3981 117.548 71.8827 118.098C71.3584 118.649 60.2592 118.311 58.2597 116.599Z" fill="#F9DDBF"/>
<path d="M78.6719 144.267V145.625C78.6719 145.731 78.6364 145.829 78.5653 145.917C78.4942 146.006 78.3964 146.077 78.272 146.113C78.2365 146.122 78.2009 146.13 78.1565 146.139C78.121 146.148 78.0854 146.148 78.0499 146.148H52.3235C52.0125 146.148 51.7548 145.953 51.7104 145.704C51.7104 145.687 51.7015 145.669 51.7015 145.651C51.7015 145.642 51.7015 145.633 51.7015 145.625V144.267C51.7015 144.258 51.7015 144.249 51.7015 144.24C51.7015 144.223 51.7015 144.205 51.7104 144.187C51.7548 143.939 52.0125 143.743 52.3235 143.743H78.0499C78.0854 143.743 78.121 143.743 78.1565 143.752C78.192 143.761 78.2365 143.77 78.272 143.779C78.3875 143.814 78.4942 143.885 78.5653 143.974C78.6364 144.054 78.6719 144.152 78.6719 144.267Z" fill="#FFB93E"/>
<path d="M66.0442 146.139H52.2613C52.0036 146.139 51.7903 145.971 51.7281 145.749C51.7192 145.731 51.7193 145.713 51.7104 145.696C51.7104 145.678 51.7015 145.66 51.7015 145.642C51.7015 145.634 51.7015 145.625 51.7015 145.616V144.258C51.7015 144.249 51.7015 144.24 51.7015 144.232C51.7015 144.214 51.7015 144.196 51.7104 144.178C51.7104 144.161 51.7192 144.143 51.7281 144.125C51.7903 143.903 52.0036 143.735 52.2613 143.735H64.3469C64.5424 144.445 64.9956 145.421 66.0442 146.139Z" fill="#FFA412"/>
<path d="M75.5439 143.743H75.2506V146.139H75.5439V143.743Z" fill="#FFA412"/>
<path d="M74.5575 143.743H74.2642V146.139H74.5575V143.743Z" fill="#FFA412"/>
<path d="M73.3667 143.743H73.0734V146.139H73.3667V143.743Z" fill="#FFA412"/>
<path d="M71.545 143.743H71.2517V146.139H71.545V143.743Z" fill="#FFA412"/>
<path d="M69.6255 143.743H69.3322V146.139H69.6255V143.743Z" fill="#FFA412"/>
<path d="M66.6752 143.743H66.3819V146.139H66.6752V143.743Z" fill="#FFA412"/>
<path d="M63.9115 143.743H63.6182V146.139H63.9115V143.743Z" fill="#FFA412"/>
<path d="M61.4499 143.743H61.1567V146.139H61.4499V143.743Z" fill="#FFA412"/>
<path d="M76.4858 143.743H76.1926V146.139H76.4858V143.743Z" fill="#FFA412"/>
<path d="M77.1079 143.743H76.8147V146.139H77.1079V143.743Z" fill="#FFA412"/>
<path d="M77.7122 143.743H77.4189V146.139H77.7122V143.743Z" fill="#FFA412"/>
<path d="M78.1565 143.752V146.13C78.121 146.139 78.0854 146.139 78.0499 146.139H77.8633V143.743H78.0499C78.0854 143.743 78.121 143.743 78.1565 143.752Z" fill="#FFA412"/>
<path d="M78.5653 143.974V145.908C78.4942 145.997 78.3964 146.068 78.272 146.104V143.779C78.3964 143.814 78.4942 143.885 78.5653 143.974Z" fill="#FFA412"/>
<path d="M75.926 141.862V143.22C75.926 143.326 75.8905 143.433 75.8194 143.513C75.8016 143.53 75.7838 143.557 75.7572 143.575C75.6949 143.637 75.615 143.681 75.5261 143.708C75.4906 143.717 75.455 143.726 75.4106 143.735C75.375 143.743 75.3395 143.743 75.3039 143.743H49.5776C49.2666 143.743 49.0089 143.548 48.9644 143.3C48.9644 143.282 48.9556 143.264 48.9556 143.246C48.9556 143.238 48.9556 143.229 48.9556 143.22V141.862C48.9556 141.853 48.9556 141.844 48.9556 141.836C48.9556 141.818 48.9556 141.8 48.9644 141.782C49.0089 141.534 49.2666 141.339 49.5776 141.339H75.3039C75.3217 141.339 75.3395 141.339 75.3573 141.339C75.3662 141.339 75.3662 141.339 75.375 141.339C75.3839 141.339 75.3928 141.339 75.4017 141.339C75.4106 141.339 75.4106 141.339 75.4195 141.339C75.455 141.347 75.4994 141.356 75.535 141.365C75.5528 141.374 75.5794 141.383 75.5972 141.392C75.615 141.401 75.6239 141.401 75.6416 141.41C75.6505 141.41 75.6594 141.418 75.6683 141.418C75.6772 141.418 75.6861 141.427 75.6861 141.427C75.7127 141.445 75.7394 141.463 75.766 141.481C75.7749 141.489 75.7838 141.498 75.7838 141.498C75.7927 141.498 75.7927 141.507 75.7927 141.507L75.8016 141.516L75.8105 141.525C75.8194 141.534 75.8282 141.543 75.8371 141.552C75.8816 141.658 75.926 141.756 75.926 141.862Z" fill="#FFB93E"/>
<path d="M63.2894 143.743H49.5065C49.2488 143.743 49.0355 143.575 48.9733 143.353C48.9644 143.335 48.9644 143.317 48.9556 143.3C48.9556 143.282 48.9467 143.264 48.9467 143.246C48.9467 143.238 48.9467 143.229 48.9467 143.22V141.862C48.9467 141.853 48.9467 141.844 48.9467 141.836C48.9467 141.818 48.9467 141.8 48.9556 141.782C48.9556 141.765 48.9644 141.747 48.9733 141.729C49.0355 141.507 49.2488 141.339 49.5065 141.339H61.5921C61.601 141.356 61.601 141.374 61.6099 141.401C61.8143 142.102 62.2675 143.042 63.2894 143.743Z" fill="#FFA412"/>
<path d="M72.7891 141.348H72.4958V143.743H72.7891V141.348Z" fill="#FFA412"/>
<path d="M71.8027 141.348H71.5094V143.743H71.8027V141.348Z" fill="#FFA412"/>
<path d="M70.6208 141.348H70.3275V143.743H70.6208V141.348Z" fill="#FFA412"/>
<path d="M68.7991 141.348H68.5058V143.743H68.7991V141.348Z" fill="#FFA412"/>
<path d="M66.8707 141.348H66.5775V143.743H66.8707V141.348Z" fill="#FFA412"/>
<path d="M63.9293 141.348H63.636V143.743H63.9293V141.348Z" fill="#FFA412"/>
<path d="M61.1656 141.348H60.8723V143.743H61.1656V141.348Z" fill="#FFA412"/>
<path d="M58.6951 141.348H58.4019V143.743H58.6951V141.348Z" fill="#FFA412"/>
<path d="M73.731 141.348H73.4378V143.743H73.731V141.348Z" fill="#FFA412"/>
<path d="M74.362 141.348H74.0687V143.743H74.362V141.348Z" fill="#FFA412"/>
<path d="M74.9574 141.348H74.6641V143.743H74.9574V141.348Z" fill="#FFA412"/>
<path d="M75.4106 141.347V143.726C75.375 143.735 75.3395 143.735 75.304 143.735H75.1174V141.339H75.304C75.3395 141.347 75.375 141.347 75.4106 141.347Z" fill="#FFA412"/>
<path d="M75.8194 141.578V143.513C75.7483 143.601 75.6505 143.672 75.5261 143.708V141.383C75.6416 141.419 75.7483 141.49 75.8194 141.578Z" fill="#FFA412"/>
<path d="M77.2501 139.529V140.886C77.2501 140.993 77.2145 141.09 77.1434 141.179C77.0724 141.268 76.9746 141.339 76.8502 141.374C76.8146 141.383 76.7791 141.392 76.7347 141.401C76.6991 141.41 76.6636 141.41 76.628 141.41H50.9017C50.7951 141.41 50.6973 141.392 50.6173 141.348C50.4485 141.277 50.3241 141.135 50.2885 140.966C50.2885 140.957 50.2885 140.939 50.2796 140.931C50.2796 140.922 50.2796 140.913 50.2796 140.904C50.2796 140.895 50.2796 140.886 50.2796 140.877V139.52C50.2796 139.511 50.2796 139.502 50.2796 139.493C50.2796 139.475 50.2796 139.458 50.2885 139.44C50.333 139.191 50.5907 138.996 50.9017 138.996H76.628C76.6636 138.996 76.6991 138.996 76.7347 139.005C76.7702 139.014 76.8146 139.023 76.8502 139.032C76.9657 139.067 77.0724 139.138 77.1434 139.227C77.2145 139.316 77.2501 139.422 77.2501 139.529Z" fill="#FFB93E"/>
<path d="M64.6224 141.401H50.8395C50.7506 141.401 50.6618 141.383 50.5818 141.339C50.4307 141.268 50.3152 141.126 50.2885 140.957C50.2885 140.948 50.2885 140.931 50.2796 140.922C50.2796 140.913 50.2796 140.904 50.2796 140.895C50.2796 140.886 50.2796 140.877 50.2796 140.868V139.511C50.2796 139.502 50.2796 139.493 50.2796 139.484C50.2796 139.466 50.2796 139.449 50.2885 139.431C50.2885 139.413 50.2974 139.395 50.3063 139.378C50.3685 139.156 50.5818 138.987 50.8395 138.987H62.9251C63.1117 139.671 63.5472 140.62 64.5336 141.33C64.5602 141.365 64.5869 141.383 64.6224 141.401Z" fill="#FFA412"/>
<path d="M74.122 139.005H73.8288V141.401H74.122V139.005Z" fill="#FFA412"/>
<path d="M73.1356 139.005H72.8424V141.401H73.1356V139.005Z" fill="#FFA412"/>
<path d="M71.9449 139.005H71.6516V141.401H71.9449V139.005Z" fill="#FFA412"/>
<path d="M70.1231 139.005H69.8299V141.401H70.1231V139.005Z" fill="#FFA412"/>
<path d="M68.2037 139.005H67.9104V141.401H68.2037V139.005Z" fill="#FFA412"/>
<path d="M65.2533 139.005H64.9601V141.401H65.2533V139.005Z" fill="#FFA412"/>
<path d="M62.4897 139.005H62.1964V141.401H62.4897V139.005Z" fill="#FFA412"/>
<path d="M60.0281 139.005H59.7349V141.401H60.0281V139.005Z" fill="#FFA412"/>
<path d="M75.064 139.005H74.7708V141.401H75.064V139.005Z" fill="#FFA412"/>
<path d="M75.6861 139.005H75.3928V141.401H75.6861V139.005Z" fill="#FFA412"/>
<path d="M76.2903 139.005H75.9971V141.401H76.2903V139.005Z" fill="#FFA412"/>
<path d="M76.7436 139.014V141.392C76.708 141.401 76.6725 141.401 76.6369 141.401H76.4503V139.005H76.6369C76.6636 139.005 76.6991 139.005 76.7436 139.014Z" fill="#FFA412"/>
<path d="M77.1434 139.236V141.17C77.0723 141.259 76.9746 141.33 76.8502 141.366V139.041C76.9746 139.076 77.0723 139.147 77.1434 139.236Z" fill="#FFA412"/>
<path d="M77.8721 137.133V138.49C77.8721 138.597 77.8366 138.694 77.7655 138.783C77.7566 138.792 77.7477 138.801 77.7388 138.819C77.6855 138.872 77.6322 138.916 77.5611 138.952C77.5344 138.961 77.5078 138.978 77.4722 138.987C77.4367 138.996 77.4012 139.005 77.3567 139.014C77.3389 139.014 77.3212 139.023 77.3034 139.023C77.2856 139.023 77.2679 139.023 77.2501 139.023H51.5237C51.2127 139.023 50.955 138.827 50.9106 138.579C50.9106 138.561 50.9017 138.543 50.9017 138.526V137.115C50.9195 136.857 51.1505 136.653 51.4527 136.627C51.4793 136.627 51.506 136.627 51.5237 136.627H77.2501C77.2679 136.627 77.2856 136.627 77.3034 136.627C77.3212 136.627 77.3389 136.627 77.3567 136.636C77.3923 136.644 77.4367 136.653 77.4722 136.662C77.5878 136.698 77.6944 136.769 77.7655 136.857C77.8277 136.92 77.8721 137.017 77.8721 137.133Z" fill="#FFB93E"/>
<path d="M65.2356 139.005H51.4527C51.1949 139.005 50.9817 138.836 50.9195 138.614C50.9106 138.597 50.9106 138.579 50.9017 138.561C50.9017 138.543 50.8928 138.526 50.8928 138.508V137.097C50.9106 136.84 51.115 136.636 51.3816 136.609C51.3993 136.609 51.426 136.609 51.4438 136.609H63.5294C63.7426 137.319 64.187 138.286 65.2356 139.005Z" fill="#FFA412"/>
<path d="M74.7352 136.609H74.442V139.005H74.7352V136.609Z" fill="#FFA412"/>
<path d="M73.7488 136.609H73.4556V139.005H73.7488V136.609Z" fill="#FFA412"/>
<path d="M72.5581 136.609H72.2648V139.005H72.5581V136.609Z" fill="#FFA412"/>
<path d="M70.7452 136.609H70.452V139.005H70.7452V136.609Z" fill="#FFA412"/>
<path d="M68.8168 136.609H68.5236V139.005H68.8168V136.609Z" fill="#FFA412"/>
<path d="M65.8665 136.609H65.5733V139.005H65.8665V136.609Z" fill="#FFA412"/>
<path d="M63.1117 136.609H62.8185V139.005H63.1117V136.609Z" fill="#FFA412"/>
<path d="M60.6413 136.609H60.348V139.005H60.6413V136.609Z" fill="#FFA412"/>
<path d="M75.6772 136.609H75.3839V139.005H75.6772V136.609Z" fill="#FFA412"/>
<path d="M76.2992 136.609H76.006V139.005H76.2992V136.609Z" fill="#FFA412"/>
<path d="M76.9035 136.609H76.6103V139.005H76.9035V136.609Z" fill="#FFA412"/>
<path d="M77.3567 136.618V138.996C77.3212 139.005 77.2856 139.005 77.2501 139.005H77.0635V136.609H77.2501C77.2856 136.609 77.3212 136.609 77.3567 136.618Z" fill="#FFA412"/>
<path d="M77.7655 136.84V138.774C77.6944 138.863 77.5966 138.934 77.4722 138.969V136.645C77.5878 136.68 77.6944 136.751 77.7655 136.84Z" fill="#FFA412"/>
<path d="M75.9793 134.737V136.094C75.9793 136.201 75.9438 136.299 75.8727 136.387C75.8016 136.476 75.7038 136.547 75.5794 136.582C75.5439 136.591 75.5083 136.6 75.4639 136.609C75.455 136.609 75.4372 136.609 75.4283 136.618H75.4195C75.4106 136.618 75.4106 136.618 75.4017 136.618C75.3928 136.618 75.3928 136.618 75.3839 136.618C75.375 136.618 75.3661 136.618 75.3484 136.618H49.6309C49.3021 136.618 49.0266 136.396 49.0089 136.121C49.0089 136.112 49.0089 136.103 49.0089 136.094V134.737C49.0089 134.728 49.0089 134.719 49.0089 134.71C49.0089 134.701 49.0089 134.692 49.0089 134.692C49.0355 134.471 49.2221 134.293 49.4799 134.24C49.4887 134.24 49.4887 134.24 49.4976 134.24C49.5421 134.231 49.5865 134.231 49.6309 134.231H75.3573C75.375 134.231 75.3928 134.231 75.4106 134.231C75.4195 134.231 75.4284 134.231 75.4372 134.231C75.4461 134.231 75.455 134.231 75.4639 134.231C75.4994 134.24 75.5439 134.249 75.5794 134.258C75.6949 134.293 75.8016 134.364 75.8727 134.453C75.9349 134.524 75.9793 134.63 75.9793 134.737Z" fill="#FFB93E"/>
<path d="M63.3427 136.609H49.5598C49.2666 136.609 49.0178 136.387 49.0089 136.112C49.0089 136.103 49.0089 136.094 49.0089 136.085V134.728C49.0089 134.719 49.0089 134.71 49.0089 134.701C49.0089 134.692 49.0089 134.683 49.0089 134.683C49.0355 134.461 49.2133 134.275 49.4443 134.222C49.4532 134.222 49.4621 134.222 49.471 134.213C49.5065 134.204 49.5332 134.204 49.5687 134.204H61.6543C61.6543 134.213 61.6543 134.213 61.6632 134.222C61.8498 134.932 62.303 135.899 63.3427 136.609Z" fill="#FFA412"/>
<path d="M72.8513 134.213H72.558V136.609H72.8513V134.213Z" fill="#FFA412"/>
<path d="M71.856 134.213H71.5627V136.609H71.856V134.213Z" fill="#FFA412"/>
<path d="M70.6741 134.213H70.3808V136.609H70.6741V134.213Z" fill="#FFA412"/>
<path d="M68.8524 134.213H68.5591V136.609H68.8524V134.213Z" fill="#FFA412"/>
<path d="M66.924 134.213H66.6307V136.609H66.924V134.213Z" fill="#FFA412"/>
<path d="M63.9826 134.213H63.6893V136.609H63.9826V134.213Z" fill="#FFA412"/>
<path d="M61.2189 134.213H60.9256V136.609H61.2189V134.213Z" fill="#FFA412"/>
<path d="M58.7485 134.213H58.4552V136.609H58.7485V134.213Z" fill="#FFA412"/>
<path d="M73.7932 134.213H73.5V136.609H73.7932V134.213Z" fill="#FFA412"/>
<path d="M74.4153 134.213H74.122V136.609H74.4153V134.213Z" fill="#FFA412"/>
<path d="M75.0107 134.213H74.7174V136.609H75.0107V134.213Z" fill="#FFA412"/>
<path d="M75.4639 134.222V136.6C75.4284 136.609 75.3928 136.609 75.3573 136.609H75.1707V134.213H75.3573C75.3928 134.213 75.4284 134.213 75.4639 134.222Z" fill="#FFA412"/>
<path d="M75.8727 134.444V136.378C75.8016 136.467 75.7038 136.538 75.5794 136.574V134.249C75.6949 134.284 75.8016 134.355 75.8727 134.444Z" fill="#FFA412"/>
<path d="M75.926 132.35V133.707C75.926 133.814 75.8905 133.911 75.8194 134C75.8016 134.018 75.7838 134.045 75.7572 134.062C75.6949 134.124 75.615 134.169 75.5261 134.195C75.4994 134.204 75.4639 134.213 75.4372 134.222C75.4284 134.222 75.4195 134.222 75.4106 134.222C75.375 134.231 75.3395 134.231 75.3039 134.231H49.5776C49.551 134.231 49.5243 134.231 49.4976 134.222C49.4887 134.222 49.4799 134.222 49.471 134.222C49.2133 134.178 49 134 48.9644 133.778C48.9644 133.761 48.9644 133.752 48.9556 133.734C48.9556 133.725 48.9556 133.716 48.9556 133.707V132.35C48.9556 132.341 48.9556 132.332 48.9556 132.323C48.9556 132.305 48.9556 132.288 48.9644 132.27C49.0089 132.021 49.2666 131.826 49.5776 131.826H75.3039C75.3217 131.826 75.3395 131.826 75.3573 131.826H75.3661C75.375 131.826 75.375 131.826 75.3839 131.826C75.3928 131.826 75.4017 131.826 75.4106 131.826C75.4195 131.826 75.4195 131.826 75.4284 131.826C75.4639 131.835 75.5083 131.844 75.5439 131.853C75.5617 131.862 75.5883 131.871 75.6061 131.879C75.6861 131.915 75.7572 131.968 75.8105 132.021C75.8194 132.03 75.8282 132.039 75.8371 132.048C75.8816 132.146 75.926 132.243 75.926 132.35Z" fill="#FFB93E"/>
<path d="M63.2894 134.231H49.5065C49.4976 134.231 49.4887 134.231 49.471 134.231C49.4621 134.231 49.4443 134.231 49.4354 134.231C49.1866 134.204 48.9911 134.018 48.9556 133.787C48.9556 133.769 48.9556 133.761 48.9467 133.743C48.9467 133.734 48.9467 133.725 48.9467 133.716V132.359C48.9467 132.35 48.9467 132.341 48.9467 132.332C48.9467 132.314 48.9467 132.296 48.9556 132.279C48.9556 132.261 48.9644 132.243 48.9733 132.225C49.0355 132.004 49.2488 131.835 49.5065 131.835H61.5921C61.601 131.853 61.601 131.87 61.6099 131.897C61.8143 132.589 62.2586 133.521 63.2628 134.222C63.2717 134.222 63.2806 134.222 63.2894 134.231Z" fill="#FFA412"/>
<path d="M72.7891 131.835H72.4958V134.231H72.7891V131.835Z" fill="#FFA412"/>
<path d="M71.8027 131.835H71.5094V134.231H71.8027V131.835Z" fill="#FFA412"/>
<path d="M70.6208 131.835H70.3275V134.231H70.6208V131.835Z" fill="#FFA412"/>
<path d="M68.7991 131.835H68.5058V134.231H68.7991V131.835Z" fill="#FFA412"/>
<path d="M66.8707 131.835H66.5775V134.231H66.8707V131.835Z" fill="#FFA412"/>
<path d="M63.9293 131.835H63.636V134.231H63.9293V131.835Z" fill="#FFA412"/>
<path d="M61.1656 131.835H60.8723V134.231H61.1656V131.835Z" fill="#FFA412"/>
<path d="M58.6951 131.835H58.4019V134.231H58.6951V131.835Z" fill="#FFA412"/>
<path d="M73.731 131.835H73.4378V134.231H73.731V131.835Z" fill="#FFA412"/>
<path d="M74.362 131.835H74.0687V134.231H74.362V131.835Z" fill="#FFA412"/>
<path d="M74.9574 131.835H74.6641V134.231H74.9574V131.835Z" fill="#FFA412"/>
<path d="M75.4106 131.844V134.222C75.375 134.231 75.3395 134.231 75.304 134.231H75.1174V131.835H75.304C75.3395 131.835 75.375 131.835 75.4106 131.844Z" fill="#FFA412"/>
<path d="M75.8194 132.066V134C75.7483 134.089 75.6505 134.16 75.5261 134.195V131.87C75.6416 131.906 75.7483 131.977 75.8194 132.066Z" fill="#FFA412"/>
<path d="M77.2501 130.016V131.373C77.2501 131.48 77.2145 131.586 77.1434 131.666C77.0723 131.755 76.9746 131.826 76.8502 131.862C76.8146 131.87 76.7791 131.879 76.7347 131.888C76.6991 131.897 76.6636 131.897 76.628 131.897H50.9017C50.7951 131.897 50.6973 131.879 50.6173 131.835C50.4485 131.764 50.3241 131.622 50.2885 131.453C50.2885 131.444 50.2885 131.427 50.2796 131.418C50.2796 131.409 50.2796 131.4 50.2796 131.391C50.2796 131.382 50.2796 131.373 50.2796 131.365V130.007C50.2796 129.998 50.2796 129.989 50.2796 129.98C50.2796 129.963 50.2796 129.945 50.2885 129.927C50.333 129.679 50.5907 129.483 50.9017 129.483H76.628C76.6636 129.483 76.6991 129.483 76.7347 129.492C76.7702 129.501 76.8146 129.51 76.8502 129.519C76.9657 129.554 77.0723 129.625 77.1434 129.714C77.2145 129.803 77.2501 129.909 77.2501 130.016Z" fill="#FFB93E"/>
<path d="M64.6224 131.888H50.8395C50.7506 131.888 50.6618 131.87 50.5818 131.826C50.4307 131.755 50.3152 131.613 50.2885 131.445C50.2885 131.436 50.2885 131.418 50.2796 131.409C50.2796 131.4 50.2796 131.391 50.2796 131.382C50.2796 131.374 50.2796 131.365 50.2796 131.356V129.998C50.2796 129.989 50.2796 129.98 50.2796 129.972C50.2796 129.954 50.2796 129.936 50.2885 129.918C50.2885 129.901 50.2974 129.883 50.3063 129.865C50.3685 129.643 50.5818 129.475 50.8395 129.475H62.9251C63.1117 130.158 63.5472 131.107 64.5336 131.817C64.5602 131.853 64.5869 131.87 64.6224 131.888Z" fill="#FFA412"/>
<path d="M74.122 129.492H73.8288V131.888H74.122V129.492Z" fill="#FFA412"/>
<path d="M73.1356 129.492H72.8424V131.888H73.1356V129.492Z" fill="#FFA412"/>
<path d="M71.9449 129.492H71.6516V131.888H71.9449V129.492Z" fill="#FFA412"/>
<path d="M70.1231 129.492H69.8299V131.888H70.1231V129.492Z" fill="#FFA412"/>
<path d="M68.2037 129.492H67.9104V131.888H68.2037V129.492Z" fill="#FFA412"/>
<path d="M65.2533 129.492H64.9601V131.888H65.2533V129.492Z" fill="#FFA412"/>
<path d="M62.4897 129.492H62.1964V131.888H62.4897V129.492Z" fill="#FFA412"/>
<path d="M60.0281 129.492H59.7348V131.888H60.0281V129.492Z" fill="#FFA412"/>
<path d="M75.064 129.492H74.7708V131.888H75.064V129.492Z" fill="#FFA412"/>
<path d="M75.6861 129.492H75.3928V131.888H75.6861V129.492Z" fill="#FFA412"/>
<path d="M76.2903 129.492H75.9971V131.888H76.2903V129.492Z" fill="#FFA412"/>
<path d="M76.7436 129.501V131.879C76.708 131.888 76.6725 131.888 76.6369 131.888H76.4503V129.492H76.6369C76.6636 129.492 76.6991 129.492 76.7436 129.501Z" fill="#FFA412"/>
<path d="M77.1434 129.723V131.658C77.0723 131.746 76.9746 131.817 76.8502 131.853V129.528C76.9746 129.564 77.0723 129.635 77.1434 129.723Z" fill="#FFA412"/>
<path d="M79.3562 127.62V128.978C79.3562 129.084 79.3206 129.182 79.2495 129.271C79.2407 129.28 79.2318 129.288 79.2229 129.306C79.1873 129.351 79.134 129.386 79.0896 129.413C79.0629 129.43 79.0363 129.439 79.0096 129.448C78.9918 129.457 78.9829 129.457 78.9652 129.466C78.9296 129.475 78.8941 129.484 78.8496 129.493C78.8141 129.501 78.7786 129.501 78.743 129.501H53.0078C52.6968 129.501 52.4391 129.306 52.3946 129.058C52.3946 129.04 52.3857 129.022 52.3857 129.004C52.3857 128.996 52.3857 128.987 52.3857 128.978V127.62C52.3857 127.611 52.3857 127.602 52.3857 127.594C52.4035 127.336 52.6346 127.132 52.9367 127.105C52.9634 127.105 52.9811 127.105 53.0078 127.105H78.7341C78.7697 127.105 78.8052 127.105 78.8408 127.114C78.8763 127.123 78.9207 127.132 78.9563 127.141C79.0629 127.176 79.1518 127.23 79.2229 127.301C79.2318 127.31 79.2407 127.318 79.2495 127.336C79.3117 127.407 79.3562 127.505 79.3562 127.62Z" fill="#FFB93E"/>
<path d="M66.7196 129.493H52.9367C52.679 129.493 52.4657 129.324 52.4035 129.102C52.3946 129.084 52.3946 129.067 52.3857 129.049C52.3857 129.031 52.3769 129.013 52.3769 128.996C52.3769 128.987 52.3769 128.978 52.3769 128.969V127.611C52.3769 127.602 52.3769 127.594 52.3769 127.585C52.3946 127.327 52.599 127.123 52.8656 127.097C52.8834 127.097 52.91 127.097 52.9278 127.097H65.0134C65.2267 127.807 65.671 128.783 66.7196 129.493Z" fill="#FFA412"/>
<path d="M76.2281 127.096H75.9349V129.492H76.2281V127.096Z" fill="#FFA412"/>
<path d="M75.2329 127.096H74.9396V129.492H75.2329V127.096Z" fill="#FFA412"/>
<path d="M74.0509 127.096H73.7577V129.492H74.0509V127.096Z" fill="#FFA412"/>
<path d="M72.2292 127.096H71.936V129.492H72.2292V127.096Z" fill="#FFA412"/>
<path d="M70.3097 127.096H70.0165V129.492H70.3097V127.096Z" fill="#FFA412"/>
<path d="M67.3594 127.096H67.0662V129.492H67.3594V127.096Z" fill="#FFA412"/>
<path d="M64.5958 127.096H64.3025V129.492H64.5958V127.096Z" fill="#FFA412"/>
<path d="M62.1342 127.096H61.8409V129.492H62.1342V127.096Z" fill="#FFA412"/>
<path d="M77.1701 127.096H76.8768V129.492H77.1701V127.096Z" fill="#FFA412"/>
<path d="M77.7922 127.096H77.4989V129.492H77.7922V127.096Z" fill="#FFA412"/>
<path d="M78.3876 127.096H78.0943V129.492H78.3876V127.096Z" fill="#FFA412"/>
<path d="M78.8408 127.105V129.483C78.8052 129.492 78.7697 129.492 78.7341 129.492H78.5475V127.096H78.7341C78.7697 127.096 78.8052 127.096 78.8408 127.105Z" fill="#FFA412"/>
<path d="M79.2495 127.327V129.262C79.1784 129.35 79.0807 129.421 78.9563 129.457V127.132C79.0718 127.168 79.1784 127.239 79.2495 127.327Z" fill="#FFA412"/>
<path d="M75.9793 125.224V126.582C75.9793 126.688 75.9438 126.786 75.8727 126.874C75.8016 126.963 75.7038 127.034 75.5794 127.07C75.5439 127.079 75.5083 127.087 75.4639 127.096C75.455 127.096 75.4372 127.096 75.4283 127.105H75.4195C75.4106 127.105 75.4017 127.105 75.3928 127.105C75.3839 127.105 75.3839 127.105 75.375 127.105C75.3661 127.105 75.3573 127.105 75.3484 127.105H49.6309C49.4088 127.105 49.2133 127.008 49.0977 126.857C49.0444 126.786 49.0089 126.697 49.0089 126.608C49.0089 126.599 49.0089 126.591 49.0089 126.582V125.224C49.0089 125.215 49.0089 125.206 49.0089 125.197C49.0266 124.976 49.2044 124.789 49.4532 124.727C49.5065 124.709 49.5687 124.7 49.6309 124.7H75.3573C75.3661 124.7 75.375 124.7 75.3928 124.7C75.4017 124.7 75.4017 124.7 75.4106 124.7C75.4283 124.7 75.455 124.7 75.4728 124.709C75.5083 124.718 75.5528 124.727 75.5883 124.736C75.6061 124.745 75.6239 124.745 75.6416 124.754C75.7127 124.78 75.7749 124.825 75.8194 124.869C75.8194 124.869 75.8282 124.869 75.8282 124.878C75.846 124.896 75.8638 124.913 75.8816 124.931C75.9349 125.011 75.9793 125.117 75.9793 125.224Z" fill="#FFB93E"/>
<path d="M63.3427 127.096H49.5598C49.3643 127.096 49.1955 126.999 49.0977 126.857C49.0444 126.786 49.0089 126.697 49.0089 126.6C49.0089 126.591 49.0089 126.582 49.0089 126.573V125.215C49.0089 125.206 49.0089 125.197 49.0089 125.189C49.0266 124.949 49.2044 124.754 49.4532 124.701C49.4887 124.692 49.5243 124.692 49.5687 124.692H61.6543C61.6632 124.709 61.6632 124.727 61.6721 124.745C61.8676 125.455 62.3208 126.395 63.3427 127.096Z" fill="#FFA412"/>
<path d="M72.8513 124.7H72.5581V127.096H72.8513V124.7Z" fill="#FFA412"/>
<path d="M71.856 124.7H71.5627V127.096H71.856V124.7Z" fill="#FFA412"/>
<path d="M70.6741 124.7H70.3808V127.096H70.6741V124.7Z" fill="#FFA412"/>
<path d="M68.8524 124.7H68.5591V127.096H68.8524V124.7Z" fill="#FFA412"/>
<path d="M66.924 124.7H66.6307V127.096H66.924V124.7Z" fill="#FFA412"/>
<path d="M63.9826 124.7H63.6893V127.096H63.9826V124.7Z" fill="#FFA412"/>
<path d="M61.2189 124.7H60.9256V127.096H61.2189V124.7Z" fill="#FFA412"/>
<path d="M58.7485 124.7H58.4552V127.096H58.7485V124.7Z" fill="#FFA412"/>
<path d="M73.7932 124.7H73.5V127.096H73.7932V124.7Z" fill="#FFA412"/>
<path d="M74.4153 124.7H74.122V127.096H74.4153V124.7Z" fill="#FFA412"/>
<path d="M75.0107 124.7H74.7174V127.096H75.0107V124.7Z" fill="#FFA412"/>
<path d="M75.4639 124.709V127.087C75.4284 127.096 75.3928 127.096 75.3573 127.096H75.1707V124.7H75.3573C75.3928 124.7 75.4284 124.7 75.4639 124.709Z" fill="#FFA412"/>
<path d="M75.8727 124.931V126.866C75.8016 126.954 75.7038 127.025 75.5794 127.061V124.736C75.6949 124.771 75.8016 124.842 75.8727 124.931Z" fill="#FFA412"/>
<path d="M77.8721 122.882V124.239C77.8721 124.346 77.8366 124.443 77.7655 124.532C77.6944 124.621 77.5967 124.692 77.4722 124.727C77.4367 124.736 77.4011 124.745 77.3567 124.754C77.3212 124.763 77.2856 124.763 77.2501 124.763H51.5237C51.426 124.763 51.3282 124.745 51.2483 124.709C51.0617 124.63 50.9284 124.47 50.9106 124.292C50.9106 124.284 50.9106 124.275 50.9106 124.275C50.9106 124.266 50.9106 124.257 50.9106 124.248V122.89C50.9106 122.882 50.9106 122.873 50.9106 122.864C50.9284 122.606 51.1594 122.402 51.4615 122.376C51.4882 122.376 51.506 122.376 51.5326 122.376H77.259C77.2945 122.376 77.3301 122.376 77.3656 122.385C77.4011 122.393 77.4456 122.402 77.4811 122.411C77.5967 122.447 77.7033 122.518 77.7744 122.606C77.8277 122.669 77.8721 122.775 77.8721 122.882Z" fill="#FFB93E"/>
<path d="M65.2356 124.754H51.4527C51.3638 124.754 51.2749 124.736 51.2038 124.701C51.035 124.621 50.9195 124.461 50.9017 124.284C50.9017 124.275 50.9017 124.266 50.9017 124.266C50.9017 124.257 50.9017 124.248 50.9017 124.239V122.882C50.9017 122.873 50.9017 122.864 50.9017 122.855C50.9195 122.598 51.1239 122.394 51.3904 122.367C51.4082 122.367 51.4349 122.367 51.4527 122.367H63.5383C63.7249 123.05 64.1603 124 65.1467 124.71C65.1823 124.718 65.2089 124.736 65.2356 124.754Z" fill="#FFA412"/>
<path d="M74.7352 122.358H74.442V124.754H74.7352V122.358Z" fill="#FFA412"/>
<path d="M73.7488 122.358H73.4555V124.754H73.7488V122.358Z" fill="#FFA412"/>
<path d="M72.5581 122.358H72.2648V124.754H72.5581V122.358Z" fill="#FFA412"/>
<path d="M70.7452 122.358H70.452V124.754H70.7452V122.358Z" fill="#FFA412"/>
<path d="M68.8168 122.358H68.5236V124.754H68.8168V122.358Z" fill="#FFA412"/>
<path d="M65.8665 122.358H65.5733V124.754H65.8665V122.358Z" fill="#FFA412"/>
<path d="M63.1117 122.358H62.8185V124.754H63.1117V122.358Z" fill="#FFA412"/>
<path d="M60.6413 122.358H60.348V124.754H60.6413V122.358Z" fill="#FFA412"/>
<path d="M75.6772 122.358H75.3839V124.754H75.6772V122.358Z" fill="#FFA412"/>
<path d="M76.2992 122.358H76.006V124.754H76.2992V122.358Z" fill="#FFA412"/>
<path d="M76.9035 122.358H76.6102V124.754H76.9035V122.358Z" fill="#FFA412"/>
<path d="M77.3567 122.367V124.745C77.3212 124.754 77.2856 124.754 77.2501 124.754H77.0635V122.358H77.2501C77.2856 122.358 77.3212 122.358 77.3567 122.367Z" fill="#FFA412"/>
<path d="M77.7655 122.589V124.523C77.6944 124.612 77.5966 124.683 77.4722 124.718V122.394C77.5878 122.429 77.6944 122.5 77.7655 122.589Z" fill="#FFA412"/>
<path d="M78.6719 120.486V121.843C78.6719 121.95 78.6364 122.047 78.5653 122.136C78.4942 122.225 78.3964 122.296 78.272 122.331C78.2365 122.34 78.2009 122.349 78.1565 122.358C78.1476 122.358 78.1298 122.358 78.121 122.367C78.1121 122.367 78.1032 122.367 78.1032 122.367C78.0943 122.367 78.0854 122.367 78.0854 122.367C78.0765 122.367 78.0676 122.367 78.0499 122.367H52.3235C51.9947 122.367 51.7192 122.145 51.7015 121.87C51.7015 121.861 51.7015 121.852 51.7015 121.843V120.486C51.7015 120.477 51.7015 120.468 51.7015 120.459C51.7192 120.184 51.9947 119.962 52.3235 119.962H78.0499C78.0854 119.962 78.121 119.962 78.1565 119.971C78.192 119.98 78.2365 119.989 78.272 119.998C78.3875 120.033 78.4942 120.104 78.5653 120.193C78.6364 120.282 78.6719 120.379 78.6719 120.486Z" fill="#FFB93E"/>
<path d="M66.0442 122.358H52.2613C51.9681 122.358 51.7193 122.136 51.7104 121.861C51.7104 121.852 51.7104 121.843 51.7104 121.835V120.477C51.7104 120.468 51.7104 120.459 51.7104 120.45C51.7281 120.175 51.9681 119.953 52.2613 119.953H64.3469C64.5424 120.672 64.9868 121.639 66.0442 122.358C66.0354 122.358 66.0354 122.358 66.0442 122.358Z" fill="#FFA412"/>
<path d="M75.5439 119.962H75.2506V122.358H75.5439V119.962Z" fill="#FFA412"/>
<path d="M74.5575 119.962H74.2642V122.358H74.5575V119.962Z" fill="#FFA412"/>
<path d="M73.3667 119.962H73.0734V122.358H73.3667V119.962Z" fill="#FFA412"/>
<path d="M71.545 119.962H71.2517V122.358H71.545V119.962Z" fill="#FFA412"/>
<path d="M69.6255 119.962H69.3322V122.358H69.6255V119.962Z" fill="#FFA412"/>
<path d="M66.6752 119.962H66.3819V122.358H66.6752V119.962Z" fill="#FFA412"/>
<path d="M63.9115 119.962H63.6182V122.358H63.9115V119.962Z" fill="#FFA412"/>
<path d="M61.4499 119.962H61.1567V122.358H61.4499V119.962Z" fill="#FFA412"/>
<path d="M76.4858 119.962H76.1926V122.358H76.4858V119.962Z" fill="#FFA412"/>
<path d="M77.1079 119.962H76.8147V122.358H77.1079V119.962Z" fill="#FFA412"/>
<path d="M77.7122 119.962H77.4189V122.358H77.7122V119.962Z" fill="#FFA412"/>
<path d="M78.1565 119.971V122.349C78.121 122.358 78.0854 122.358 78.0499 122.358H77.8633V119.962H78.0499C78.0854 119.962 78.121 119.962 78.1565 119.971Z" fill="#FFA412"/>
<path d="M78.5653 120.193V122.127C78.4942 122.216 78.3964 122.287 78.272 122.322V119.998C78.3964 120.033 78.4942 120.104 78.5653 120.193Z" fill="#FFA412"/>
<path opacity="0.5" d="M60.8368 134.213C60.8368 134.222 60.8368 134.222 60.8368 134.231C60.7923 135.038 60.6591 135.828 60.4547 136.609C60.428 136.724 60.3925 136.831 60.3569 136.946C60.1436 137.656 59.8593 138.339 59.5127 139.005C59.0773 139.839 58.5352 140.62 57.8954 141.348C57.8776 141.365 57.8598 141.392 57.842 141.41C57.0423 142.297 56.1003 143.096 55.0161 143.752C54.7851 143.894 54.554 144.027 54.3141 144.152C54.1542 144.24 53.9853 144.32 53.8254 144.391C53.6654 144.48 53.5054 144.56 53.3455 144.657C52.8923 144.933 52.3235 145.154 51.7104 145.332V144.276C51.7104 144.267 51.7104 144.258 51.7104 144.249C51.7104 144.231 51.7104 144.214 51.7193 144.196C51.7193 144.178 51.7281 144.161 51.737 144.143C51.7992 143.921 52.0125 143.752 52.2702 143.752H49.5154C49.2577 143.752 49.0444 143.584 48.9822 143.362C48.9733 143.344 48.9733 143.326 48.9644 143.309C48.9644 143.291 48.9556 143.273 48.9556 143.255C48.9556 143.247 48.9556 143.238 48.9556 143.229V141.871C48.9556 141.862 48.9556 141.853 48.9556 141.844C48.9556 141.827 48.9556 141.809 48.9644 141.791C48.9644 141.774 48.9733 141.756 48.9822 141.738C49.0444 141.516 49.2577 141.348 49.5154 141.348H50.5907C50.4396 141.277 50.3241 141.135 50.2974 140.966C50.2974 140.957 50.2974 140.939 50.2885 140.931C50.2885 140.922 50.2885 140.913 50.2885 140.904C50.2885 140.895 50.2885 140.886 50.2885 140.877V139.52C50.2885 139.511 50.2885 139.502 50.2885 139.493C50.2885 139.475 50.2885 139.458 50.2974 139.44C50.2974 139.422 50.3063 139.404 50.3152 139.387C50.3774 139.165 50.5907 138.996 50.8484 138.996H51.4615C51.2038 138.996 50.9906 138.827 50.9284 138.606C50.9195 138.588 50.9195 138.57 50.9106 138.552C50.9106 138.535 50.9017 138.517 50.9017 138.499V137.088C50.9195 136.831 51.1239 136.627 51.3905 136.6H49.5687C49.2755 136.6 49.0267 136.378 49.0178 136.103C49.0178 136.094 49.0178 136.086 49.0178 136.077V134.719C49.0178 134.71 49.0178 134.701 49.0178 134.692C49.0178 134.684 49.0178 134.675 49.0178 134.675C49.0444 134.453 49.2222 134.266 49.4532 134.213C49.2044 134.187 49.0089 134 48.9733 133.77C48.9733 133.752 48.9733 133.743 48.9644 133.725C48.9644 133.716 48.9644 133.707 48.9644 133.699V132.341C48.9644 132.332 48.9644 132.323 48.9644 132.314C48.9644 132.297 48.9644 132.279 48.9733 132.261C48.9733 132.243 48.9822 132.226 48.9911 132.208C49.0533 131.986 49.2666 131.817 49.5243 131.817H50.5996C50.4485 131.746 50.333 131.604 50.3063 131.436C50.3063 131.427 50.3063 131.409 50.2974 131.4C50.2974 131.391 50.2974 131.383 50.2974 131.374C50.2974 131.365 50.2974 131.356 50.2974 131.347V129.989C50.2974 129.981 50.2974 129.972 50.2974 129.963C50.2974 129.945 50.2974 129.927 50.3063 129.91C50.3063 129.892 50.3152 129.874 50.3241 129.856C50.3863 129.634 50.5996 129.466 50.8573 129.466H52.9634C52.7057 129.466 52.4924 129.297 52.4302 129.075C52.4213 129.058 52.4213 129.04 52.4124 129.022C52.4124 129.004 52.4035 128.987 52.4035 128.969C52.4035 128.96 52.4035 128.951 52.4035 128.942V127.585C52.4035 127.576 52.4035 127.567 52.4035 127.558C52.4213 127.301 52.6257 127.097 52.8923 127.07H49.5776C49.3821 127.07 49.2133 126.972 49.1155 126.83V126.821L49.4621 124.692V124.683L49.9597 121.648C50.5374 121.728 51.1061 121.843 51.6659 121.994C51.7015 122.003 51.7281 122.012 51.7637 122.021C51.7637 122.021 51.7637 122.021 51.7726 122.021C52.1014 122.11 52.4213 122.216 52.7323 122.331H52.7412C54.1986 122.864 55.5582 123.645 56.7312 124.674C56.749 124.692 56.7757 124.71 56.7934 124.727C57.4066 125.26 57.9665 125.863 58.4641 126.529C58.5618 126.662 58.6596 126.795 58.7573 126.928C58.7929 126.972 58.8196 127.017 58.8462 127.061C58.9973 127.283 59.1395 127.514 59.2816 127.753C59.6016 128.312 59.877 128.88 60.0992 129.457C60.3925 130.229 60.5968 131.01 60.7213 131.8C60.7213 131.817 60.7301 131.835 60.7301 131.862C60.8457 132.669 60.8812 133.441 60.8368 134.213Z" fill="#E2810E"/>
<path d="M46.3498 145.56C53.3162 145.006 58.5139 138.918 57.9592 131.962C57.4044 125.006 51.3073 119.815 44.3409 120.369C37.3745 120.923 32.1768 127.012 32.7315 133.968C33.2862 140.924 39.3833 146.114 46.3498 145.56Z" fill="#E2810E"/>
<path d="M50.9639 144.294C50.8039 144.391 50.6529 144.48 50.484 144.569C50.4307 144.595 50.3774 144.631 50.3241 144.658C50.1997 144.72 50.0753 144.791 49.9508 144.853C43.9258 147.808 36.5767 145.536 33.2976 139.609C30.1696 133.947 31.8491 126.937 36.9766 123.254C37.3854 122.962 37.8119 122.687 38.2651 122.438C38.4251 122.349 38.5939 122.261 38.7539 122.181C38.9139 122.101 39.0738 122.03 39.2338 121.95C39.7314 121.728 40.229 121.542 40.7445 121.391C41.4998 121.16 42.264 121.009 43.0372 120.93C45.4187 120.681 47.8181 121.116 49.942 122.154C52.1991 123.254 54.1453 125.038 55.4516 127.398C58.7396 133.361 56.7223 140.798 50.9639 144.294Z" fill="#FFB93E"/>
<path d="M44.4679 144.968C43.4104 144.968 42.344 144.817 41.3043 144.516C38.3984 143.673 35.9902 141.756 34.5239 139.103C33.0577 136.458 32.72 133.397 33.5642 130.495C34.4084 127.594 36.3279 125.189 38.9849 123.725C44.459 120.708 51.3727 122.704 54.3852 128.17C57.4066 133.637 55.4072 140.54 49.9331 143.548C48.2269 144.489 46.3518 144.959 44.4679 144.968ZM44.4324 122.624C42.6373 122.624 40.8067 123.068 39.1271 123.991C36.5501 125.411 34.675 127.753 33.8574 130.575C33.0399 133.406 33.3687 136.379 34.7905 138.952C36.2124 141.525 38.5584 143.398 41.3843 144.214C44.2191 145.03 47.196 144.702 49.7731 143.282C55.0961 140.354 57.0423 133.637 54.1097 128.321C52.1014 124.683 48.3246 122.624 44.4324 122.624Z" fill="#FFA412"/>
<path d="M50.0219 134.737C49.9953 134.675 49.9686 134.613 49.942 134.559C49.7376 134.107 49.4799 133.743 49.1777 133.468C48.8312 133.148 48.4313 132.918 47.9692 132.758C47.5071 132.598 47.0005 132.501 46.4318 132.474C45.8631 132.439 45.2499 132.43 44.5923 132.447C44.1835 132.456 43.8281 132.456 43.5437 132.43C43.2504 132.403 43.0016 132.35 42.8061 132.27C42.6017 132.19 42.4418 132.075 42.3085 131.933C42.1841 131.791 42.0774 131.622 41.9975 131.418C41.9175 131.214 41.8642 131.01 41.8553 130.815C41.8464 130.611 41.873 130.424 41.9441 130.247C42.0152 130.069 42.1308 129.901 42.2996 129.75C42.4596 129.599 42.6817 129.466 42.9483 129.359C43.4459 129.155 43.8992 129.164 44.3346 129.368C44.7611 129.581 45.1077 130.016 45.3832 130.673L47.9603 129.626C47.7381 129.075 47.4537 128.605 47.1161 128.232C46.7784 127.851 46.3963 127.558 45.9697 127.354C45.5432 127.15 45.0811 127.026 44.5834 126.99C44.0858 126.955 43.5615 127.008 43.0283 127.15L42.2996 125.357L40.8689 125.934L41.5887 127.709C41.0733 127.975 40.6378 128.286 40.2824 128.641C39.9269 128.996 39.6514 129.377 39.4559 129.794C39.2604 130.202 39.1627 130.637 39.1538 131.09C39.1449 131.542 39.2338 132.004 39.4293 132.474C39.6514 133.015 39.9358 133.441 40.2824 133.761C40.6289 134.08 41.0288 134.311 41.4909 134.471C41.953 134.621 42.4596 134.719 43.0283 134.746C43.597 134.772 44.2102 134.772 44.8767 134.746C45.2588 134.728 45.5965 134.728 45.8808 134.755C46.1652 134.781 46.414 134.834 46.6184 134.914C46.8228 134.994 47.0005 135.118 47.1338 135.26C47.2671 135.411 47.3827 135.598 47.4804 135.828C47.5604 136.032 47.6048 136.236 47.6048 136.441C47.6048 136.645 47.5604 136.84 47.4715 137.017C47.3827 137.204 47.2405 137.372 47.0627 137.532C46.885 137.692 46.654 137.825 46.3696 137.94C46.1297 138.038 45.872 138.1 45.6142 138.135C45.3565 138.171 45.0988 138.144 44.85 138.056C44.6012 137.976 44.3701 137.825 44.1569 137.603C43.9436 137.39 43.7481 137.079 43.597 136.689L41.0199 137.736C41.2865 138.402 41.6242 138.925 42.033 139.307C42.4418 139.697 42.8861 139.972 43.366 140.141C43.8458 140.309 44.3524 140.38 44.8856 140.363C45.4099 140.345 45.9342 140.256 46.4496 140.105L47.1161 141.747L48.5379 141.17L47.8714 139.529C48.3868 139.262 48.8311 138.952 49.1955 138.606C49.5332 138.286 49.7998 137.94 49.9953 137.567C50.013 137.541 50.0219 137.505 50.0397 137.479C50.2352 137.071 50.3418 136.645 50.3507 136.183C50.3152 135.695 50.2263 135.225 50.0219 134.737Z" fill="#FFA412"/>
<path d="M70.5319 88.7715H26.2951V89.4103H70.5319V88.7715Z" fill="#CAB1DC"/>
<path d="M70.9851 89.4102H25.8419V90.0491H70.9851V89.4102Z" fill="#C38CEC"/>
<path d="M71.6072 90.0493H25.2198V90.6882H71.6072V90.0493Z" fill="#CAB1DC"/>
<path d="M68.7013 64.3689H27.3348V88.7713H68.7013V64.3689Z" fill="#CAB1DC"/>
<path d="M71.5094 64.8305H24.8732L48.6179 52.8157L71.5094 64.8305Z" fill="#CAB1DC"/>
<path d="M31.9557 63.2333L64.4269 63.1623L48.6001 54.9453L31.9557 63.2333Z" fill="#4B0082"/>
<path d="M70.5141 64.8303H26.0907V65.8597H70.5141V64.8303Z" fill="#CAB1DC"/>
<path d="M33.7686 64.3691H29.3965V65.9486H33.7686V64.3691Z" fill="#CAB1DC"/>
<path d="M32.7822 65.9485H30.374V88.7714H32.7822V65.9485Z" fill="#CAB1DC"/>
<path d="M43.2238 64.3691H38.8516V65.9486H43.2238V64.3691Z" fill="#CAB1DC"/>
<path d="M42.2374 65.9485H39.8292V88.7714H42.2374V65.9485Z" fill="#CAB1DC"/>
<path d="M58.082 64.3691H53.7098V65.9486H58.082V64.3691Z" fill="#CAB1DC"/>
<path d="M57.1045 65.9485H54.6962V88.7714H57.1045V65.9485Z" fill="#CAB1DC"/>
<path d="M66.9862 64.3691H62.6141V65.9486H66.9862V64.3691Z" fill="#CAB1DC"/>
<path d="M66.0087 65.9485H63.6005V88.7714H66.0087V65.9485Z" fill="#CAB1DC"/>
<path d="M49.1333 60.154C49.1333 60.083 49.1244 60.012 49.1066 59.9587C49.0889 59.9055 49.0533 59.8523 49.0089 59.8079C48.9644 59.7635 48.9022 59.7192 48.8311 59.6837C48.7601 59.6482 48.6712 59.6038 48.5557 59.5683C48.3691 59.4973 48.2091 59.4263 48.058 59.3553C47.907 59.2844 47.7825 59.1956 47.6759 59.1069C47.5693 59.0093 47.4893 58.9028 47.4271 58.7786C47.3738 58.6543 47.3382 58.5035 47.3471 58.3349C47.3471 58.184 47.3738 58.0509 47.436 57.9267C47.4893 57.8025 47.5693 57.696 47.667 57.6072C47.7648 57.5185 47.8803 57.4475 48.0225 57.3943C48.1558 57.341 48.3157 57.3055 48.4846 57.2878L48.4935 56.7288L48.9467 56.7376L48.9378 57.3055C49.0977 57.3322 49.2488 57.3765 49.3732 57.4386C49.5065 57.5096 49.6132 57.5895 49.702 57.696C49.7909 57.8025 49.862 57.9267 49.9064 58.0687C49.9508 58.2107 49.9775 58.3704 49.9775 58.539L49.1599 58.5301C49.1599 58.3171 49.1155 58.1663 49.0267 58.0598C48.9378 57.9533 48.8134 57.9001 48.6534 57.9001C48.5646 57.9001 48.4935 57.909 48.4313 57.9356C48.3691 57.9622 48.3157 57.9888 48.2802 58.0332C48.2358 58.0775 48.2091 58.1219 48.1913 58.1752C48.1736 58.2284 48.1647 58.2905 48.1647 58.3526C48.1647 58.4147 48.1736 58.4769 48.1913 58.5301C48.2091 58.5833 48.2446 58.6277 48.2891 58.6809C48.3335 58.7253 48.3957 58.7697 48.4668 58.8052C48.5468 58.8496 48.6356 58.885 48.7512 58.9294C48.9289 59.0004 49.0977 59.0714 49.2488 59.1424C49.3999 59.2134 49.5243 59.3021 49.6309 59.3997C49.7376 59.4973 49.8175 59.6038 49.8798 59.728C49.9331 59.8523 49.9686 60.0031 49.9597 60.1717C49.9597 60.3226 49.9331 60.4645 49.8709 60.5888C49.8175 60.713 49.7376 60.8106 49.6398 60.8993C49.5421 60.9881 49.4177 61.0591 49.2844 61.1123C49.1422 61.1656 48.9911 61.201 48.8223 61.2099L48.8134 61.7335L48.3602 61.7246L48.3691 61.2011C48.2091 61.1833 48.058 61.1478 47.9158 61.0946C47.7737 61.0413 47.6404 60.9615 47.5337 60.8639C47.4182 60.7662 47.3293 60.642 47.2671 60.4823C47.2049 60.3314 47.1694 60.154 47.1694 59.941L47.9869 59.9499C47.9869 60.0741 48.0047 60.1806 48.0314 60.2604C48.0669 60.3403 48.1113 60.4113 48.1647 60.4645C48.218 60.5178 48.2891 60.5533 48.3602 60.571C48.4313 60.5888 48.5112 60.6065 48.5912 60.6065C48.6801 60.6065 48.7601 60.5976 48.8223 60.5799C48.8934 60.5622 48.9467 60.5267 48.9911 60.4912C49.0355 60.4557 49.0711 60.4024 49.0977 60.3492C49.1155 60.2782 49.1244 60.2161 49.1333 60.154Z" fill="#CAB1DC"/>
<path d="M51.0083 88.7713H45.0011V82.2226C45.0011 80.6697 46.263 79.4097 47.8181 79.4097H48.3513C49.8175 79.4097 51.0083 80.5987 51.0083 82.0629V88.7713Z" fill="#4B0082"/>
<path d="M46.023 74.6002H43.1882V71.5122C43.1882 70.7757 43.7836 70.1812 44.5212 70.1812H44.77C45.4632 70.1812 46.023 70.7402 46.023 71.4323V74.6002Z" fill="#4B0082"/>
<path d="M37.7231 74.6002H34.8883V71.5122C34.8883 70.7757 35.4837 70.1812 36.2213 70.1812H36.4701C37.1632 70.1812 37.7231 70.7402 37.7231 71.4323V74.6002Z" fill="#4B0082"/>
<path d="M37.7231 84.095H34.8883V81.0071C34.8883 80.2706 35.4837 79.676 36.2213 79.676H36.4701C37.1632 79.676 37.7231 80.2351 37.7231 80.9272V84.095Z" fill="#4B0082"/>
<path d="M61.7699 74.6002H58.9351V71.5122C58.9351 70.7757 59.5305 70.1812 60.268 70.1812H60.5169C61.21 70.1812 61.7699 70.7402 61.7699 71.4323V74.6002Z" fill="#4B0082"/>
<path d="M61.7699 84.095H58.9351V81.0071C58.9351 80.2706 59.5305 79.676 60.268 79.676H60.5169C61.21 79.676 61.7699 80.2351 61.7699 80.9272V84.095Z" fill="#4B0082"/>
<path d="M53.1944 74.6002H50.3596V71.5122C50.3596 70.7757 50.955 70.1812 51.6926 70.1812H51.9414C52.6346 70.1812 53.1944 70.7402 53.1944 71.4323V74.6002Z" fill="#4B0082"/>
<path d="M210.938 147H12.8765C12.7165 147 12.5921 146.867 12.5921 146.716V146.432C12.5921 146.272 12.7254 146.148 12.8765 146.148H210.938C211.098 146.148 211.222 146.281 211.222 146.432V146.716C211.222 146.876 211.098 147 210.938 147Z" fill="#233862"/>
</g>
<defs>
<clipPath id="clip0_53_5650">
<rect width="214.884" height="147" fill="white"/>
</clipPath>
</defs>
</svg>
