<svg width="42" height="42" viewBox="0 0 42 42" fill="none" xmlns="http://www.w3.org/2000/svg">
<path d="M21 42C32.598 42 42 32.598 42 21C42 9.40202 32.598 0 21 0C9.40202 0 0 9.40202 0 21C0 32.598 9.40202 42 21 42Z" fill="#4B0082"/>
<path d="M19.391 32.8875C16.788 29.6865 11 21.9295 11 17.5715C11 15.0327 12.0085 12.5979 13.8037 10.8027C15.5989 9.00755 18.0337 7.99902 20.5725 7.99902C23.1113 7.99902 25.5461 9.00755 27.3413 10.8027C29.1365 12.5979 30.145 15.0327 30.145 17.5715C30.145 21.9285 24.312 29.6865 21.754 32.8875C21.613 33.0659 21.4335 33.21 21.2289 33.3091C21.0243 33.4082 20.7999 33.4597 20.5725 33.4597C20.3451 33.4597 20.1208 33.4082 19.9161 33.3091C19.7115 33.21 19.532 33.0659 19.391 32.8875ZM20.572 20.7625C21.2032 20.7627 21.8202 20.5757 22.3451 20.2252C22.87 19.8747 23.2791 19.3764 23.5208 18.7934C23.7625 18.2103 23.8258 17.5687 23.7028 16.9496C23.5798 16.3305 23.276 15.7619 22.8297 15.3155C22.3835 14.8691 21.8149 14.5651 21.1959 14.4419C20.5769 14.3187 19.9352 14.3818 19.3521 14.6233C18.769 14.8648 18.2705 15.2738 17.9198 15.7986C17.5692 16.3234 17.382 16.9404 17.382 17.5715C17.3828 18.4174 17.7191 19.2284 18.3171 19.8267C18.9152 20.4249 19.7261 20.7615 20.572 20.7625Z" fill="white"/>
</svg>
