<svg width="171" height="69" viewBox="0 0 171 69" fill="none" xmlns="http://www.w3.org/2000/svg">
<path d="M84.8073 48.691C86.3599 48.691 87.8832 48.691 89.4358 48.691C89.4065 55.3409 89.4651 62.02 89.4065 68.6698C87.8832 68.6405 86.3599 68.6698 84.8366 68.6405C84.8366 67.9082 84.8366 67.2051 84.8659 66.502C84.1628 67.3809 83.3133 68.2011 82.2294 68.5526C79.4757 69.4901 76.2826 68.1425 74.8179 65.7111C72.7087 62.2836 73.2653 57.1278 76.6049 54.6964C79.0363 52.8508 82.991 52.968 84.8659 55.5459C84.778 53.2317 84.8073 50.9467 84.8073 48.691ZM80.5303 57.5965C78.1868 58.3289 77.6302 61.4927 78.8312 63.3968C79.7394 64.8615 81.8486 65.301 83.2547 64.3343C84.8366 63.3382 85.1295 61.1412 84.5436 59.4714C83.9578 57.9188 82.0829 57.0106 80.5303 57.5965Z" fill="#020139"/>
<path d="M128.632 48.691C130.184 48.691 131.708 48.691 133.26 48.691C133.26 50.976 133.29 53.2317 133.26 55.5166C135.194 52.9094 139.236 52.8508 141.668 54.7843C145.74 57.9481 145.505 65.2717 141.023 67.9375C138.533 69.4901 134.901 69.0799 133.26 66.502C133.26 67.2051 133.26 67.9375 133.26 68.6405C131.708 68.6405 130.184 68.6405 128.632 68.6405C128.632 61.9907 128.632 55.3409 128.632 48.691ZM135.604 57.5672C133.202 58.2703 132.616 61.522 133.875 63.4261C134.784 64.8323 136.893 65.2717 138.27 64.305C139.852 63.3089 140.115 61.1119 139.529 59.4714C139.002 57.9481 137.156 57.0399 135.604 57.5672Z" fill="#020139"/>
<path d="M147.468 48.691C149.021 48.691 150.544 48.691 152.097 48.691C152.097 55.3409 152.097 61.9907 152.097 68.6698C150.544 68.6698 149.021 68.6698 147.497 68.6698C147.468 61.9907 147.468 55.3409 147.468 48.691Z" fill="#020139"/>
<path d="M0.0292944 49.7164C2.69509 49.7164 5.39017 49.6871 8.05596 49.7164C10.3116 49.7749 12.6845 50.8002 13.7977 52.8509C14.8816 54.7843 14.5886 57.3036 13.2411 59.032C12.5087 60.028 11.3662 60.5553 10.2237 60.9361C11.7764 63.514 13.2997 66.0626 14.8523 68.6405C13.0653 68.6405 11.2491 68.6405 9.46209 68.6405C8.11455 66.3556 6.7963 64.0706 5.47806 61.7564C5.36088 61.3755 5.00934 61.2583 4.65781 61.1998C4.62852 63.6898 4.65781 66.1505 4.62852 68.6405C3.07591 68.6405 1.5526 68.6405 0 68.6405C0.0292944 62.3422 0.0292944 56.0147 0.0292944 49.7164ZM4.65781 53.2024C4.65781 54.7257 4.65781 56.2197 4.65781 57.743C5.88818 57.7137 7.14784 57.8895 8.34891 57.6258C10.2823 57.04 10.2237 53.8762 8.31961 53.3196C7.11854 53.0852 5.85888 53.261 4.65781 53.2024Z" fill="#020139"/>
<path d="M92.1016 49.7164C97.0817 49.7164 102.062 49.7164 107.042 49.7164C107.042 50.8881 107.042 52.0599 107.042 53.2317C105.313 53.2317 103.585 53.2317 101.857 53.2317C101.857 58.3875 101.857 63.514 101.857 68.6698C100.304 68.6698 98.7807 68.6698 97.2281 68.6698C97.2281 63.514 97.2281 58.3875 97.2281 53.2317C95.4998 53.2317 93.8007 53.2317 92.0723 53.2317C92.0723 52.0306 92.0723 50.8881 92.1016 49.7164Z" fill="#020139"/>
<path d="M19.7737 54.7843C22.2051 52.8508 26.2478 52.9094 28.1812 55.5166C28.1812 54.8722 28.1812 54.2277 28.1812 53.5832C29.7338 53.5832 31.2571 53.5832 32.8097 53.5832C32.8097 58.5925 32.8097 63.6312 32.8097 68.6405C31.2571 68.6405 29.7338 68.6405 28.1812 68.6405C28.1812 67.9082 28.1812 67.2051 28.1812 66.4727C27.4488 67.4102 26.5114 68.2597 25.3396 68.5819C22.586 69.4022 19.4808 68.0254 18.0453 65.5646C16.0533 62.1958 16.5806 57.245 19.7737 54.7843ZM23.9921 57.5672C21.5021 58.2703 20.9162 61.7271 22.3516 63.6312C23.3183 64.9201 25.3104 65.2424 26.6579 64.305C28.2105 63.3089 28.4741 61.1412 27.9176 59.53C27.361 57.9774 25.5447 57.0399 23.9921 57.5672Z" fill="#020139"/>
<path d="M36.7059 53.5832C38.2292 53.5832 39.7525 53.5832 41.3051 53.5832C41.3051 56.3369 41.3051 59.0905 41.3051 61.8149C41.3051 62.6937 41.5688 63.6312 42.2718 64.1878C43.2093 64.9201 44.5568 64.9494 45.6114 64.4807C46.6367 64.012 47.0761 62.8402 47.0468 61.7563C47.0761 59.0319 47.0468 56.2783 47.0468 53.5539C48.5994 53.5539 50.1227 53.5539 51.6753 53.5539C51.6753 58.5632 51.6753 63.6019 51.6753 68.6112C50.1227 68.6112 48.5994 68.6112 47.0761 68.6112C47.0761 67.9082 47.0761 67.1758 47.0761 66.4727C45.2306 69.3143 40.7192 69.5486 38.405 67.1465C37.1746 65.8868 36.6766 64.0706 36.7059 62.3422C36.7059 59.4421 36.7059 56.5126 36.7059 53.5832Z" fill="#020139"/>
<path d="M55.6887 53.5832C57.2413 53.5832 58.7646 53.5832 60.3172 53.5832C60.3172 54.2863 60.3172 55.0186 60.2879 55.7217C62.1627 52.8801 66.6741 52.6458 68.9883 55.0479C70.1601 56.2783 70.6874 58.036 70.6581 59.7057C70.6581 62.6645 70.6581 65.6525 70.6581 68.6112C69.1348 68.6112 67.6115 68.6112 66.0589 68.6112C66.0003 65.6525 66.1468 62.6645 66.0003 59.7057C65.8245 57.4501 62.7486 56.6884 61.196 58.0653C60.4929 58.6804 60.2879 59.6765 60.3172 60.5846C60.3172 63.2504 60.3172 65.9455 60.3172 68.6112C58.7646 68.6112 57.2413 68.6112 55.6887 68.6112C55.6887 63.6312 55.6887 58.6218 55.6887 53.5832Z" fill="#020139"/>
<path d="M111.524 54.8136C113.955 52.8509 118.027 52.8802 119.99 55.5167C119.961 54.8722 119.961 54.2277 119.961 53.5832C121.484 53.5832 123.037 53.5832 124.589 53.5832C124.589 58.5926 124.589 63.6312 124.589 68.6406C123.037 68.6406 121.513 68.6406 119.961 68.6406C119.961 67.9082 119.961 67.2051 119.99 66.5021C119.228 67.4395 118.32 68.289 117.119 68.6113C114.336 69.4022 111.202 68.0254 109.825 65.5353C107.862 62.1665 108.36 57.2743 111.524 54.8136ZM115.713 57.5673C113.34 58.2703 112.754 61.4634 113.985 63.3968C114.893 64.8323 116.973 65.2717 118.379 64.3343C119.961 63.3383 120.254 61.1412 119.668 59.5007C119.111 57.9481 117.266 57.04 115.713 57.5673Z" fill="#020139"/>
<path d="M156.198 56.7177C158.893 52.2064 166.509 52.3528 169.146 56.8349C170.2 58.5632 170.376 60.6725 170.142 62.6352C166.656 62.6352 163.199 62.6352 159.713 62.6352C160.065 64.9787 163.463 65.7111 164.781 63.7777C166.451 63.7484 168.091 63.7777 169.761 63.7777C169.146 65.8869 167.476 67.6152 165.396 68.3476C162.584 69.3143 159.098 68.8456 157.018 66.5899C154.674 63.9827 154.44 59.735 156.198 56.7177ZM161.236 57.6844C160.445 58.0945 160.035 58.9148 159.772 59.7057C161.676 59.735 163.58 59.735 165.484 59.7057C165.25 57.8016 162.877 56.7763 161.236 57.6844Z" fill="#020139"/>
<path d="M82.4426 0.145783C85.2775 -0.301009 88.1739 0.315256 90.7622 1.50156C92.6726 2.41055 94.506 3.53523 96.0621 4.99886C93.9206 5.7846 92.2258 7.4177 90.9471 9.26649C90.0535 10.5606 89.3756 11.9935 88.8672 13.4725C87.1263 13.0565 85.2929 12.8562 83.5519 13.4109C82.6121 13.6728 81.7802 14.1812 80.9328 14.6434C79.3151 12.8408 78.0826 10.6531 77.4817 8.29587C77.112 6.4779 77.1274 4.41341 78.2058 2.82653C79.1302 1.33209 80.7633 0.453915 82.4426 0.145783Z" fill="#4B0082"/>
<path d="M68.6537 9.31271C70.8723 7.20201 73.5838 5.63053 76.4803 4.67532C76.0797 6.92469 76.5727 9.25108 77.5896 11.2848C78.252 12.7176 79.2073 13.9963 80.1779 15.2288C78.668 16.6463 77.5742 18.5413 77.3122 20.6212C77.2506 21.2836 77.266 21.9461 77.2814 22.624C75.6945 23.0092 74.046 23.0246 72.4129 22.9167C70.4255 22.7319 68.3918 22.1156 66.882 20.7598C65.4337 19.4811 64.7559 17.432 65.0794 15.537C65.4646 13.0873 66.9436 10.992 68.6537 9.31271Z" fill="#FF4F00"/>
<path d="M94.2441 7.0171C95.7231 5.86161 97.6952 5.21453 99.544 5.67673C101.316 6.0927 102.764 7.37145 103.735 8.86589C105.275 11.1923 105.922 13.9963 106.061 16.7541C106.123 18.5412 106.03 20.3438 105.645 22.0848C103.75 20.5595 101.331 19.8508 98.9277 19.7738C97.4795 19.6659 96.0621 19.9124 94.6293 20.0357C94.09 17.3395 92.1796 14.9669 89.6992 13.8114C90.5927 11.2385 92.0256 8.72723 94.2441 7.0171Z" fill="#020139"/>
<path d="M94.7833 21.0063C97.5719 20.4979 100.576 20.4825 103.211 21.6688C104.952 22.4391 106.431 23.9336 106.847 25.8286C107.386 28.1242 106.431 30.4814 105.106 32.3302C102.779 35.5193 99.2666 37.6917 95.569 38.9704C95.7231 37.5838 95.7077 36.151 95.3379 34.7952C94.6909 32.438 93.4121 30.2657 91.8098 28.4323C93.181 27.169 94.1978 25.5205 94.583 23.6871C94.7987 22.8243 94.7987 21.9153 94.7833 21.0063Z" fill="#0F9403"/>
<path d="M66.4814 21.7612C67.1131 22.0385 67.6677 22.4853 68.2994 22.7473C71.1188 24.0876 74.3696 24.0568 77.3893 23.5792C77.9439 26.2908 79.8235 28.6634 82.3348 29.8189C81.5028 32.2531 80.1779 34.5795 78.2058 36.2742C76.8809 37.4297 75.1245 38.2309 73.3373 38.1076C71.6426 37.9844 70.0711 37.0292 68.9927 35.735C67.3596 33.84 66.543 31.3749 66.1425 28.9407C65.8651 26.9533 65.8651 24.9042 66.127 22.9167C66.2041 22.5162 66.3427 22.1464 66.4814 21.7612Z" fill="#61081A"/>
<path d="M86.7411 30.5892C88.2971 30.4659 89.7916 29.8805 91.0703 29.0177C92.7959 30.9743 94.1362 33.3161 94.6292 35.889C94.8295 37.4759 94.7987 39.2015 93.9359 40.6189C92.9807 42.329 91.0857 43.2996 89.1907 43.5769C86.6178 43.9159 83.9833 43.3458 81.6261 42.329C79.5616 41.4046 77.5741 40.2183 75.941 38.6468C78.0672 37.9227 79.7465 36.305 81.0098 34.487C81.9034 33.1621 82.6583 31.7139 83.1513 30.1886C84.3376 30.4659 85.5394 30.7124 86.7411 30.5892Z" fill="#068CD5"/>
</svg>
