<svg width="38" height="38" viewBox="0 0 38 38" fill="none" xmlns="http://www.w3.org/2000/svg">
<path d="M1.76534 32.8205C1.48042 32.8205 1.19549 32.7118 0.97818 32.4944C0.543406 32.0596 0.543406 31.3547 0.97818 30.92L13.6854 18.2128C14.1201 17.778 14.825 17.778 15.2598 18.2128C15.6946 18.6475 15.6946 19.3524 15.2598 19.7872L2.55258 32.4945C2.33519 32.7118 2.05027 32.8205 1.76534 32.8205Z" fill="#FFCC33"/>
<path d="M36.2345 32.8205C35.9496 32.8205 35.6647 32.7118 35.4474 32.4944L22.7401 19.7872C22.3054 19.3524 22.3054 18.6475 22.7401 18.2128C23.1748 17.7781 23.8798 17.778 24.3145 18.2128L37.0218 30.92C37.4565 31.3547 37.4565 32.0596 37.0218 32.4944C36.8044 32.7118 36.5195 32.8205 36.2345 32.8205Z" fill="#FFCC33"/>
<path d="M19.0741 24.5664C18.7908 24.5664 18.5073 24.4589 18.2903 24.2437L0.981604 7.08336C0.544901 6.65044 0.541932 5.94559 0.974776 5.50896C1.40769 5.07233 2.11255 5.06929 2.54918 5.50221L19.0707 21.8821L35.4472 5.50555C35.8819 5.07077 36.5869 5.07077 37.0216 5.50555C37.4564 5.94032 37.4564 6.64517 37.0216 7.07995L19.8613 24.2403C19.6441 24.4577 19.3591 24.5664 19.0741 24.5664Z" fill="#FEDB41"/>
<path d="M34.6602 33.4727H3.33984C1.49825 33.4727 0 31.9744 0 30.1328V7.86719C0 6.0256 1.49825 4.52734 3.33984 4.52734H34.6602C36.5017 4.52734 38 6.0256 38 7.86719V30.1328C38 31.9744 36.5017 33.4727 34.6602 33.4727ZM3.33984 6.75391C2.72598 6.75391 2.22656 7.25332 2.22656 7.86719V30.1328C2.22656 30.7467 2.72598 31.2461 3.33984 31.2461H34.6602C35.274 31.2461 35.7734 30.7467 35.7734 30.1328V7.86719C35.7734 7.25332 35.274 6.75391 34.6602 6.75391H3.33984Z" fill="#FEA832"/>
</svg>
