<svg width="162" height="172" viewBox="0 0 162 172" fill="none" xmlns="http://www.w3.org/2000/svg">
<g clip-path="url(#clip0_53_332)">
<path d="M48.9859 99.1841H12.4643V168.249H48.9859V99.1841Z" fill="#E0E0E0"/>
<path d="M38.1507 99.1841H1.62908V168.249H38.1507V99.1841Z" fill="#F5F5F5"/>
<path d="M35.4608 113.392H4.09164V102.443H35.4608V113.392ZM4.50838 113.013H35.0819V102.821H4.50838V113.013Z" fill="#E0E0E0"/>
<path d="M24.0573 104.829H15.9119C14.889 104.829 14.0555 103.996 14.0555 102.973V102.67H25.9516V102.973C25.9516 103.958 25.1181 104.829 24.0573 104.829Z" fill="#EBEBEB"/>
<path d="M35.4608 127.296H4.09164V116.347H35.4608V127.296ZM4.50838 126.917H35.0819V116.726H4.50838V126.917Z" fill="#E0E0E0"/>
<path d="M24.0573 118.733H15.9119C14.889 118.733 14.0555 117.9 14.0555 116.877V116.574H25.9516V116.877C25.9516 117.862 25.1181 118.733 24.0573 118.733Z" fill="#EBEBEB"/>
<path d="M35.4608 141.199H4.09164V130.25H35.4608V141.199ZM4.50838 140.82H35.0819V130.629H4.50838V140.82Z" fill="#E0E0E0"/>
<path d="M24.0573 132.637H15.9119C14.889 132.637 14.0555 131.804 14.0555 130.781V130.478H25.9516V130.781C25.9516 131.766 25.1181 132.637 24.0573 132.637Z" fill="#EBEBEB"/>
<path d="M35.4608 155.103H4.09164V144.154H35.4608V155.103ZM4.50838 154.724H35.0819V144.533H4.50838V154.724Z" fill="#E0E0E0"/>
<path d="M24.0573 146.541H15.9119C14.889 146.541 14.0555 145.708 14.0555 144.685V144.344H25.9516V144.647C25.9516 145.67 25.1181 146.541 24.0573 146.541Z" fill="#EBEBEB"/>
<path d="M39.6661 96.6079H7.62939e-06V100.055H39.6661V96.6079Z" fill="#EBEBEB"/>
<path d="M51.6 96.6079H39.6661V100.055H51.6V96.6079Z" fill="#E0E0E0"/>
<path d="M3.56124 168.211H1.62908V171.735H3.56124V168.211Z" fill="#E0E0E0"/>
<path d="M15.4194 168.211H13.4872V171.735H15.4194V168.211Z" fill="#E0E0E0"/>
<path d="M37.0899 168.211H35.1577V171.735H37.0899V168.211Z" fill="#E0E0E0"/>
<path d="M47.9251 168.211H45.993V171.735H47.9251V168.211Z" fill="#E0E0E0"/>
<path d="M35.4229 87.4019L39.1357 96.8732H36.8247L35.0062 91.0389L35.4229 87.4019Z" fill="#E0E0E0"/>
<path d="M22.8071 78.6506L21.5568 96.7978L34.6652 97.063L36.1427 78.6506H22.8071Z" fill="#EBEBEB"/>
<path d="M24.133 80.128L23.0723 95.2064L32.8088 95.6611L34.1727 80.0522L24.133 80.128Z" fill="#FAFAFA"/>
<path d="M26.2546 82.2498L25.459 92.8577H30.8767L31.8238 82.2498H26.2546Z" fill="#E0E0E0"/>
<path d="M156.732 8.33472H107.746V96.3048H156.732V8.33472Z" fill="#EBEBEB"/>
<path d="M154.27 10.9106H109.716V93.7283H154.27V10.9106Z" fill="#FAFAFA"/>
<path d="M158.816 97.1382L156.732 96.3426V6.85718H158.816V97.1382Z" fill="#E0E0E0"/>
<path d="M155.255 34.741H109.716V35.6123H155.255V34.741Z" fill="#E0E0E0"/>
<path d="M155.255 54.4414H109.716V55.3128H155.255V54.4414Z" fill="#E0E0E0"/>
<path d="M155.255 74.1797H109.716V75.0511H155.255V74.1797Z" fill="#E0E0E0"/>
<path d="M130.854 35.1928V96.0747H133.089V35.1928H130.854Z" fill="#E0E0E0"/>
<path d="M119.301 10.9106H118.278V35.1573H119.301V10.9106Z" fill="#E0E0E0"/>
<path d="M128.129 10.9106H127.106V35.1573H128.129V10.9106Z" fill="#E0E0E0"/>
<path d="M136.918 10.9106H135.895V35.1573H136.918V10.9106Z" fill="#E0E0E0"/>
<path d="M145.707 10.9106H144.685V35.1573H145.707V10.9106Z" fill="#E0E0E0"/>
<path d="M107.784 6.85718H105.7V96.873H107.784V6.85718Z" fill="#E0E0E0"/>
<path d="M158.816 5.948H105.7V8.33478H158.816V5.948Z" fill="#E0E0E0"/>
<path d="M160.218 97.4414H104.223V99.6766H160.218V97.4414Z" fill="#E0E0E0"/>
<path d="M156.732 96.3428L160.218 97.4415H104.223L107.746 96.3428H156.732Z" fill="#E0E0E0"/>
<path d="M31.9753 11.4033C32.8467 10.8729 33.756 10.494 34.7031 10.2288L35.2714 7.50106L39.8555 7.42529L40.4996 10.1152C41.4467 10.3425 42.3938 10.7213 43.2652 11.2138L45.5762 9.69842L48.8723 12.8808L47.4326 15.2676C47.963 16.1389 48.3419 17.0482 48.6071 17.9953L51.3348 18.5636L51.4106 23.1478L48.7207 23.7918C48.4934 24.7389 48.1145 25.6861 47.622 26.5575L49.1375 28.8685L45.9551 32.1645L43.5683 30.7249C42.6969 31.2552 41.7877 31.6341 40.8405 31.8993L40.2723 34.6271L35.6881 34.7028L35.0441 32.013C34.0969 31.7856 33.1498 31.4068 32.2784 30.9143L29.9674 32.4297L26.6714 29.2473L28.111 26.8605C27.5806 25.9892 27.2018 25.0799 26.9366 24.1328L24.2467 23.6024L24.1709 19.0182L26.8608 18.3742C27.0881 17.4271 27.467 16.4799 27.9595 15.6086L26.4441 13.2975L29.6264 10.0015L31.9753 11.4033ZM34.4 17.5028C32.5057 19.4729 32.5815 22.5795 34.5137 24.4738C36.4837 26.368 39.5903 26.2923 41.4846 24.3601C43.3789 22.3901 43.3031 19.2834 41.3709 17.3892C39.4009 15.4949 36.2943 15.5328 34.4 17.5028Z" fill="#E0E0E0"/>
<path d="M34.4 17.503C34.4 17.503 34.6652 17.1241 35.3093 16.7074C35.9533 16.2906 37.0899 15.7981 38.5295 15.9497C39.2493 16.0255 40.0071 16.2528 40.7269 16.7074C41.4088 17.162 42.0908 17.844 42.5075 18.6774C42.7348 19.0942 42.8864 19.5867 42.9621 20.0413C43.0379 20.5338 43.0758 21.0263 43 21.5567C42.8864 22.5796 42.3938 23.6025 41.6361 24.3981C40.8784 25.1937 39.8555 25.6862 38.8326 25.8757C38.3401 25.9514 37.8097 25.9893 37.3172 25.9136C36.8247 25.8378 36.3701 25.7241 35.9154 25.4968C35.0441 25.118 34.3621 24.4739 33.8696 23.792C33.3771 23.11 33.1119 22.3523 33.0361 21.6325C32.8467 20.1929 33.2634 19.0563 33.6802 18.4122C34.059 17.7682 34.4 17.503 34.4 17.503C34.4379 17.5409 34.0969 17.844 33.7181 18.488C33.3392 19.1699 32.9604 20.2686 33.1877 21.6325C33.3013 22.3144 33.5665 23.0343 34.0212 23.6783C34.5137 24.3224 35.1577 24.9285 35.9912 25.2695C36.4079 25.4589 36.8626 25.5726 37.3172 25.6484C37.7718 25.7241 38.2643 25.7241 38.7568 25.6105C39.7419 25.4589 40.6511 24.9664 41.3709 24.2087C42.0908 23.451 42.5454 22.5039 42.659 21.5188C42.7348 21.0263 42.7348 20.5338 42.6212 20.0792C42.5454 19.6246 42.3938 19.1699 42.2044 18.7532C41.8256 17.9197 41.2194 17.3136 40.5375 16.8589C39.8555 16.4043 39.1357 16.177 38.4538 16.1012C37.0899 15.9118 35.9912 16.3664 35.3093 16.7453C34.741 17.1999 34.4379 17.5409 34.4 17.503Z" fill="#E0E0E0"/>
<path d="M31.9753 11.4029C31.9753 11.4029 31.9375 11.365 31.8238 11.3271C31.7101 11.2513 31.5586 11.1756 31.3692 11.0619C30.9524 10.8346 30.3463 10.4557 29.5886 10.0011H29.6264C28.8308 10.8346 27.7322 11.9711 26.4441 13.335V13.2593C26.8987 13.9412 27.4291 14.7368 27.9595 15.5703L27.9974 15.6082L27.9595 15.646C27.5049 16.4795 27.126 17.3888 26.8987 18.4117V18.4496H26.8608C26.0273 18.639 25.1181 18.8663 24.1709 19.1315L24.2467 19.0178C24.2846 20.4575 24.3225 22.0108 24.3225 23.602L24.2467 23.4883C25.0802 23.6778 26.0273 23.8672 26.9745 24.0566H27.0502L27.0881 24.1324C27.3533 25.0037 27.7322 25.9509 28.2626 26.8601L28.3004 26.9359L28.2626 27.0117C27.8079 27.7315 27.3154 28.565 26.8229 29.3985L26.785 29.1711C27.8079 30.1562 28.9445 31.2548 30.0811 32.3535H29.9295C30.6493 31.861 31.4449 31.3685 32.2405 30.8381L32.3163 30.8002L32.3921 30.8381C33.1877 31.2927 34.1348 31.6716 35.1577 31.8989L35.2335 31.9368L35.2714 32.0126C35.4608 32.846 35.6881 33.7932 35.9154 34.7024L35.7639 34.5888C37.2035 34.5509 38.7568 34.5509 40.348 34.513L40.1965 34.6267C40.3859 33.7553 40.5753 32.846 40.7648 31.8989V31.8231L40.8405 31.7852C41.7498 31.52 42.6969 31.1412 43.5304 30.6108L43.6062 30.5729L43.682 30.6108C44.4775 31.1033 45.2731 31.5579 46.0687 32.0504L45.8793 32.0883C46.9401 30.9896 48.0009 29.891 49.0617 28.7923V28.9817C48.5692 28.1861 48.0388 27.4284 47.5463 26.6707L47.5084 26.5949L47.5463 26.5192C48.0388 25.6478 48.3797 24.7007 48.6449 23.7914L48.6828 23.7156L48.7586 23.6778C49.6679 23.4504 50.5771 23.2231 51.4485 23.0337L51.3348 23.1852C51.2969 21.6319 51.2969 20.0786 51.259 18.6011L51.3727 18.7148C50.4634 18.5253 49.5542 18.3359 48.6449 18.1465H48.5692L48.5313 18.0707C48.2661 17.0857 47.8493 16.1764 47.3568 15.343L47.319 15.2672L47.3568 15.1914C47.8493 14.3958 48.3419 13.6002 48.7965 12.8425V12.9941C47.622 11.8575 46.5612 10.7967 45.5005 9.81168H45.652C44.8185 10.3421 44.0608 10.8346 43.341 11.3271L43.3031 11.365L43.2652 11.3271C42.356 10.7967 41.4088 10.4557 40.4996 10.2284H40.4617V10.1905C40.2344 9.20551 40.0071 8.33414 39.8176 7.50066L39.8934 7.57643C38.1128 7.61432 36.5974 7.61432 35.3093 7.65221L35.385 7.61432C35.1577 8.713 34.9683 9.58436 34.8168 10.3421V10.38H34.7789C33.7938 10.6452 33.1119 10.9861 32.6952 11.1756C32.4679 11.2892 32.3163 11.365 32.2027 11.4408C32.0132 11.365 31.9753 11.4029 31.9753 11.4029C31.9753 11.4029 32.0132 11.365 32.1269 11.2892C32.2405 11.2134 32.3921 11.1377 32.6194 11.024C33.074 10.7967 33.756 10.4557 34.7031 10.1905L34.6652 10.2284C34.8168 9.47071 35.0062 8.59934 35.1956 7.50066V7.46278H35.2335C36.5216 7.42489 38.037 7.38701 39.8176 7.34912H39.8934V7.42489C40.0828 8.25837 40.3101 9.12974 40.5753 10.1148L40.4996 10.039C41.4088 10.2663 42.356 10.6073 43.3031 11.1377H43.1894C43.9093 10.6452 44.7049 10.1526 45.5005 9.62225L45.5762 9.58436L45.652 9.66013C46.7128 10.683 47.8115 11.7059 48.948 12.8425L49.0238 12.9183L48.9859 12.9941C48.5313 13.7518 48.0388 14.5474 47.5463 15.3808V15.2672C48.0767 16.1007 48.4555 17.0478 48.7586 18.0328L48.6449 17.9571C49.5163 18.1465 50.4256 18.3359 51.3727 18.5253L51.4864 18.5632V18.6769C51.5242 20.1544 51.5242 21.7077 51.5621 23.261V23.3747L51.4485 23.4126C50.5771 23.6399 49.6679 23.8672 48.7586 24.0566L48.8723 23.943C48.6449 24.928 48.2661 25.8751 47.7736 26.7465V26.5949C48.2661 27.3526 48.7965 28.1482 49.289 28.9059L49.3648 28.9817L49.289 29.0575C48.2282 30.1562 47.1674 31.2548 46.1066 32.3535L46.0308 32.4293L45.9172 32.3535C45.1216 31.861 44.326 31.4064 43.5304 30.9139H43.682C42.8106 31.4443 41.8256 31.861 40.9163 32.1262L41.03 32.0126C40.8405 32.9597 40.6511 33.8689 40.4617 34.7403L40.4238 34.854H40.3101C38.719 34.8918 37.1657 34.8918 35.726 34.9297H35.6123V34.7403C35.385 33.7932 35.1577 32.8839 34.9683 32.0504L35.0819 32.1641C34.059 31.8989 33.1119 31.52 32.2784 31.0654H32.43C31.6344 31.5958 30.8388 32.1262 30.119 32.5808L30.0432 32.6566L29.9674 32.5808C28.8308 31.4822 27.6943 30.3835 26.6714 29.3985L26.5956 29.3227L26.6335 29.2469C27.126 28.4134 27.6185 27.6178 28.0731 26.898V27.0117C27.5427 26.1024 27.126 25.1553 26.8608 24.246L26.9366 24.3218C25.9894 24.1324 25.0802 23.943 24.2088 23.7535H24.133V23.6778C24.0952 22.0866 24.0952 20.5333 24.0573 19.0936V19.0178H24.133C25.0802 18.7905 25.9894 18.5632 26.8229 18.3738L26.7471 18.4496C27.0123 17.4267 27.3912 16.4795 27.8458 15.646V15.7218C27.3154 14.8883 26.785 14.0927 26.3304 13.4108V13.2593L26.3683 13.2214C27.6564 11.8954 28.7551 10.7967 29.5886 9.92533L29.6264 9.88745H29.6643C30.422 10.3421 30.9903 10.7209 31.4071 10.9861C31.5965 11.0998 31.748 11.2134 31.8617 11.2892C31.9375 11.365 31.9753 11.4029 31.9753 11.4029Z" fill="#E0E0E0"/>
<path d="M60.2 2.42463C60.7304 2.12154 61.2608 1.85634 61.8291 1.7048L62.1701 0.0757273L64.8978 0.0378418L65.2767 1.66692C65.8449 1.81846 66.4132 2.00789 66.9436 2.31097L68.3454 1.40172L70.3154 3.29599L69.4441 4.69775C69.7471 5.22815 70.0123 5.75855 70.1639 6.32683L71.793 6.6678L71.8308 9.39555L70.2018 9.77441C70.0502 10.3427 69.8608 10.911 69.5577 11.4414L70.467 12.8431L68.5727 14.8132L67.1709 13.9418C66.6405 14.2449 66.1101 14.5101 65.5419 14.6616L65.2009 16.2907L62.4731 16.3286L62.0943 14.6995C61.526 14.548 60.9577 14.3207 60.4273 14.0555L59.0256 14.9647L57.0555 13.0704L57.9269 11.6687C57.6238 11.1383 57.3586 10.6079 57.2071 10.0396L55.578 9.69864L55.5401 6.97088L57.1692 6.59203C57.3207 6.02374 57.548 5.45546 57.8132 4.92507L56.904 3.5233L58.7982 1.55326L60.2 2.42463ZM61.6397 6.09952C60.5031 7.27397 60.541 9.13035 61.7154 10.2669C62.8899 11.4035 64.7463 11.3656 65.8828 10.1911C67.0194 9.0167 66.9815 7.16031 65.8071 6.02374C64.6326 4.88718 62.7762 4.92507 61.6397 6.09952Z" fill="#F5F5F5"/>
<path d="M61.6397 6.09968C61.6397 6.09968 61.7912 5.87237 62.1701 5.60717C62.5489 5.34197 63.2308 5.07677 64.1022 5.15254C64.5189 5.19043 64.9736 5.34197 65.3903 5.60717C65.8071 5.87237 66.1859 6.28911 66.4511 6.78162C66.5648 7.04682 66.6784 7.31202 66.7163 7.6151C66.7542 7.91818 66.7921 8.22127 66.7163 8.52435C66.6405 9.13052 66.3375 9.73669 65.8828 10.2292C65.4282 10.6838 64.822 11.0248 64.2159 11.1006C63.9128 11.1384 63.6097 11.1763 63.3066 11.1006C63.0035 11.0627 62.7383 10.9869 62.4731 10.8732C61.9427 10.6459 61.526 10.2671 61.2608 9.85034C60.9577 9.4336 60.8062 8.97898 60.7683 8.56224C60.6546 7.69087 60.9198 7.00893 61.1471 6.63008C61.4502 6.25122 61.6397 6.09968 61.6397 6.09968C61.6397 6.09968 61.4502 6.28911 61.2229 6.70585C60.9956 7.0847 60.7683 7.76664 60.8819 8.60012C60.9577 9.01686 61.1093 9.4336 61.3745 9.81246C61.6775 10.1913 62.0564 10.5702 62.5489 10.7596C62.7762 10.8732 63.0793 10.949 63.3445 10.9869C63.6097 11.0248 63.9128 11.0248 64.2159 10.9869C64.7841 10.9111 65.3524 10.6081 65.8071 10.1534C66.2238 9.6988 66.5269 9.13052 66.5648 8.56224C66.6026 8.25915 66.6026 7.99395 66.5648 7.69087C66.5269 7.42567 66.4511 7.16047 66.2996 6.89528C66.0723 6.40277 65.6934 6.02391 65.3145 5.75871C64.8978 5.49351 64.4811 5.34197 64.0643 5.30409C63.2308 5.19043 62.5868 5.45563 62.2079 5.68294C61.8291 5.91025 61.6775 6.09968 61.6397 6.09968Z" fill="#F5F5F5"/>
<path d="M60.2 2.42467C60.2 2.42467 60.1621 2.42467 60.1242 2.38678C60.0485 2.3489 59.9727 2.31101 59.859 2.23524C59.5938 2.0837 59.2529 1.89427 58.7982 1.59119H58.8361C58.3436 2.0837 57.6996 2.76564 56.9419 3.56123V3.52335C57.2071 3.94009 57.5101 4.39471 57.8511 4.92511V4.963V5.00088C57.5859 5.49339 57.3586 6.06167 57.2071 6.66784V6.70573H57.1692C56.6767 6.81938 56.1084 6.97092 55.578 7.12247L55.6159 7.0467C55.6159 7.91806 55.6538 8.82731 55.6538 9.77445L55.6159 9.69868C56.1084 9.81234 56.6767 9.92599 57.2449 10.0396H57.2828V10.0775C57.4344 10.6079 57.6617 11.1762 58.0027 11.7066L58.0405 11.7445H57.9648C57.6996 12.1991 57.3965 12.6537 57.0934 13.1463V13.0705C57.6996 13.6767 58.3815 14.3207 59.0634 14.9648H58.9498C59.3665 14.6996 59.859 14.3586 60.3516 14.0555L60.3894 14.0176L60.4273 14.0555C60.9198 14.3207 61.4881 14.548 62.0564 14.6996H62.0943V14.7374C62.2079 15.23 62.3595 15.7982 62.4731 16.3665L62.3974 16.2907C63.2687 16.2907 64.2159 16.2529 65.1251 16.2529L65.0493 16.3286C65.163 15.7982 65.2767 15.2678 65.3903 14.6996V14.6617H65.4282C65.9586 14.5101 66.5269 14.2828 67.0573 13.9418L67.0952 13.904L67.133 13.9418C67.6256 14.2449 68.0802 14.5101 68.5348 14.8132H68.4212C69.0652 14.1313 69.7093 13.4872 70.3154 12.8432V12.9568C70.0123 12.5022 69.7093 12.0097 69.4062 11.5551L69.3683 11.5172L69.4062 11.4793C69.7093 10.9489 69.8987 10.4185 70.0502 9.85022V9.81234H70.0881C70.6185 9.66079 71.1868 9.54714 71.7172 9.43348L71.6414 9.50925C71.6414 8.56211 71.6035 7.65286 71.6035 6.7815L71.6793 6.85727C71.111 6.74361 70.5806 6.62996 70.0502 6.5163H70.0123V6.47841C69.8608 5.91013 69.5956 5.34185 69.2925 4.84934L69.2546 4.81145L69.2925 4.77357C69.5956 4.28106 69.8608 3.82643 70.1639 3.37181V3.44758C69.4819 2.76564 68.8 2.15947 68.1938 1.5533H68.2696C67.7771 1.85639 67.3225 2.15947 66.8678 2.46256L66.83 2.50044H66.7921C66.2238 2.19736 65.6934 1.97004 65.1251 1.85639H65.0872V1.8185C64.9357 1.25022 64.822 0.719824 64.7084 0.189427L64.7463 0.227313C63.6855 0.227313 62.7762 0.265198 62.0185 0.265198L62.0564 0.227313C61.9049 0.871366 61.7912 1.40176 61.7154 1.85639C61.1471 2.00793 60.7304 2.19736 60.4652 2.3489C60.3516 2.42467 60.2379 2.46256 60.1621 2.50044C60.2 2.42467 60.2 2.42467 60.2 2.42467C60.2 2.42467 60.2379 2.38678 60.2758 2.3489C60.3516 2.31101 60.4273 2.23524 60.5789 2.19736C60.8441 2.04581 61.2608 1.85639 61.8291 1.70485L61.7912 1.74273C61.867 1.28811 61.9806 0.757709 62.1322 0.113656V0.0757709H62.1701C62.9278 0.0757709 63.837 0.0378855 64.8978 0H64.9357V0.0378855C65.0493 0.530396 65.2009 1.06079 65.3524 1.62908L65.3145 1.59119C65.8828 1.74273 66.4132 1.93216 66.9815 2.23524H66.9057C67.3604 1.93216 67.815 1.62907 68.3075 1.32599L68.3454 1.28811L68.3833 1.32599C69.0273 1.93216 69.6714 2.57621 70.3533 3.22026L70.3912 3.25815L70.3533 3.29604C70.0881 3.75066 69.785 4.24317 69.4819 4.6978V4.62203C69.785 5.11454 70.0502 5.68282 70.2018 6.28899L70.126 6.2511C70.6564 6.36476 71.1868 6.47841 71.7551 6.59207H71.8308V6.66784C71.8308 7.57709 71.8687 8.48634 71.8687 9.39559V9.47137H71.793C71.2626 9.58502 70.7322 9.73656 70.1639 9.85022L70.2397 9.77445C70.0881 10.3427 69.8608 10.911 69.5956 11.4414V11.3656C69.8987 11.8203 70.2018 12.2749 70.5049 12.7674L70.5427 12.8053L70.5049 12.8432C69.8608 13.4872 69.2546 14.1692 68.6106 14.8132L68.5727 14.8511L68.4969 14.8132C68.0423 14.548 67.5498 14.2449 67.0952 13.9418H67.1709C66.6405 14.2828 66.0723 14.5101 65.504 14.6617L65.5797 14.5859C65.4661 15.1542 65.3524 15.6846 65.2388 16.215V16.2907H65.163C64.2159 16.2907 63.3066 16.3286 62.4353 16.3286H62.3595V16.2529C62.2079 15.6846 62.0943 15.1542 61.9806 14.6238L62.0564 14.6996C61.4502 14.548 60.8819 14.3207 60.3894 14.0176H60.4652C59.9727 14.3207 59.5181 14.6238 59.0634 14.9269L59.0256 14.9648L58.9877 14.9269C58.3057 14.2828 57.6238 13.6009 57.0176 13.0326L56.9797 12.9947L57.0176 12.9568C57.3207 12.4643 57.6238 11.9718 57.889 11.5551V11.6308C57.548 11.1004 57.3207 10.4943 57.1692 9.96388L57.2071 10.0018C56.6388 9.88811 56.0705 9.77445 55.578 9.66079H55.5401V9.62291C55.5401 8.67577 55.5022 7.72863 55.5022 6.89515V6.85727H55.5401C56.1084 6.70573 56.6388 6.59207 57.1692 6.47841L57.1313 6.5163C57.2828 5.91013 57.5101 5.34185 57.8132 4.84934V4.88722C57.4723 4.39471 57.1692 3.9022 56.904 3.48546V3.44758L56.9419 3.40969C57.7375 2.6141 58.3815 1.93216 58.874 1.43965C59.3286 1.70485 59.6696 1.93216 59.9348 2.0837C60.0485 2.15947 60.1242 2.19736 60.2 2.27313C60.1621 2.42467 60.2 2.42467 60.2 2.42467Z" fill="#F5F5F5"/>
<path d="M34.741 42.6973H3.71278V75.0136H34.741V42.6973Z" fill="#E0E0E0"/>
<path d="M32.6573 42.6973H1.62908V75.0136H32.6573V42.6973Z" fill="#EBEBEB"/>
<path d="M28.4899 47.054H5.79648V70.6945H28.4899V47.054Z" fill="#FAFAFA"/>
<path d="M5.79648 70.8462C5.79648 70.8462 5.60706 71.1114 5.2282 71.4902C4.84935 71.8691 4.35684 72.3995 3.78856 72.9299C3.22027 73.4982 2.68988 73.9907 2.31102 74.3695C1.93217 74.7105 1.66697 74.9378 1.66697 74.9378C1.66697 74.9378 1.8564 74.6726 2.23525 74.2938C2.61411 73.9149 3.10662 73.3845 3.6749 72.8162C4.24318 72.248 4.77358 71.7554 5.15243 71.3766C5.53129 71.0356 5.79648 70.8462 5.79648 70.8462Z" fill="#E0E0E0"/>
<path d="M28.4899 70.8081C28.4899 70.8081 28.7551 70.9975 29.1339 71.3764C29.5128 71.7552 30.0432 72.2478 30.5736 72.816C31.1419 73.3843 31.6344 73.9147 32.0132 74.2936C32.3542 74.6724 32.5815 74.9376 32.5815 74.9376C32.5815 74.9376 32.3163 74.7482 31.9375 74.3693C31.5586 73.9905 31.0282 73.498 30.4599 72.9297C29.8916 72.3614 29.3991 71.831 29.0203 71.4522C28.6793 71.0733 28.452 70.8081 28.4899 70.8081Z" fill="#E0E0E0"/>
<path d="M28.4141 47.1295C28.4141 47.1295 28.6035 46.8643 28.9824 46.4854C29.3612 46.1066 29.8538 45.5762 30.422 45.0458C30.9903 44.4775 31.5207 43.985 31.8996 43.6061C32.2784 43.2652 32.5436 43.0378 32.5436 43.0378C32.5436 43.0378 32.3542 43.303 31.9753 43.6819C31.5965 44.0608 31.104 44.5911 30.5357 45.1594C29.9674 45.7277 29.437 46.2202 29.0582 46.5991C28.6793 46.94 28.4141 47.1295 28.4141 47.1295Z" fill="#E0E0E0"/>
<path d="M5.72071 47.1674C5.72071 47.1674 5.45551 46.9779 5.07666 46.5991C4.6978 46.2202 4.16741 45.7277 3.63701 45.1594C3.06873 44.5911 2.57622 44.0608 2.19736 43.6819C1.81851 43.303 1.62908 43.0378 1.62908 43.0378C1.62908 43.0378 1.89428 43.2273 2.27313 43.6061C2.65199 43.985 3.18239 44.4775 3.75067 45.0458C4.31895 45.6141 4.81146 46.1445 5.19032 46.5233C5.53128 46.9022 5.7586 47.1674 5.72071 47.1674Z" fill="#E0E0E0"/>
<path d="M28.4141 70.6943C28.4141 70.6943 28.4141 70.6564 28.4141 70.5807C28.4141 70.5049 28.4141 70.3912 28.4141 70.2397C28.4141 69.9366 28.4141 69.5199 28.4141 68.9516C28.4141 67.8529 28.4141 66.2238 28.3762 64.1401C28.3762 60.0106 28.3383 54.1005 28.3383 47.0538L28.4141 47.1296C21.822 47.1296 14.0555 47.1296 5.79648 47.1296L5.87225 47.0538C5.87225 55.7296 5.87225 63.8371 5.87225 70.6943L5.79648 70.6186C12.578 70.6186 18.2229 70.6564 22.163 70.6564C24.133 70.6564 25.6863 70.6564 26.7471 70.6943C27.2775 70.6943 27.6943 70.6943 27.9595 70.6943C28.111 70.6943 28.1868 70.6943 28.2626 70.6943C28.3762 70.6943 28.4141 70.6943 28.4141 70.6943C28.4141 70.6943 28.3762 70.6943 28.3004 70.6943C28.2247 70.6943 28.111 70.6943 27.9974 70.6943C27.7322 70.6943 27.3154 70.6943 26.785 70.6943C25.7242 70.6943 24.1709 70.6943 22.2009 70.7322C18.2229 70.7322 12.578 70.7701 5.7586 70.7701H5.68283V70.6943C5.68283 63.8371 5.68283 55.7296 5.68283 47.0538V46.978H5.7586C14.0176 46.978 21.7841 46.978 28.3762 46.978H28.452V47.0538C28.452 54.1384 28.4141 60.0485 28.4141 64.2159C28.4141 66.2617 28.4141 67.8908 28.3762 69.0274C28.3762 69.5578 28.3762 70.0124 28.3762 70.2776C28.3762 70.4291 28.3762 70.5049 28.3762 70.5807C28.4141 70.6564 28.4141 70.6943 28.4141 70.6943Z" fill="#E0E0E0"/>
<path d="M11.7824 56.9419C11.7824 56.9419 11.2899 62.7763 17.6167 62.7763C17.6167 59.6696 15.0405 57.2071 11.7824 56.9419Z" fill="#EBEBEB"/>
<path d="M23.3753 56.9418C23.3753 56.9418 17.541 56.4493 17.541 62.7762C20.6476 62.7762 23.1101 60.1999 23.3753 56.9418Z" fill="#EBEBEB"/>
<path d="M17.3516 53.7217C17.3516 53.7217 12.578 58.0027 17.6167 62.7763C19.9656 60.3137 19.7762 56.4115 17.3516 53.7217Z" fill="#E0E0E0"/>
<path d="M132.41 148.7C125.969 145.215 118.695 138.85 115.892 131.652C122.863 135.251 128.735 141.313 132.41 148.7Z" fill="#4B0082"/>
<path d="M131.993 137.865C125.552 134.38 118.278 128.015 115.475 120.817C122.446 124.416 128.318 130.477 131.993 137.865Z" fill="#4B0082"/>
<path d="M131.046 127.295C124.605 123.81 117.331 117.445 114.528 110.247C121.461 113.846 127.371 119.908 131.046 127.295Z" fill="#4B0082"/>
<path d="M129.606 116.195C123.62 111.838 117.18 104.526 115.21 96.9487C121.726 101.495 126.841 108.352 129.606 116.195Z" fill="#4B0082"/>
<path d="M127.788 107.595C123.734 101.116 120.286 91.7207 121.082 83.9163C125.552 90.7735 127.939 99.222 127.788 107.595Z" fill="#4B0082"/>
<path d="M128.697 111.686C130.402 103.579 134.569 93.6149 140.517 88.0078C138.85 96.6836 134.645 105.094 128.697 111.686Z" fill="#4B0082"/>
<path d="M130.061 120.855C132.485 112.596 137.638 102.556 144.344 97.2141C141.843 106.079 136.767 114.49 130.061 120.855Z" fill="#4B0082"/>
<path d="M131.5 131.993C133.925 123.734 139.078 113.694 145.783 108.352C143.321 117.217 138.244 125.628 131.5 131.993Z" fill="#4B0082"/>
<path d="M132.258 145.556C134.683 137.297 139.835 127.257 146.541 121.916C144.078 130.819 138.964 139.229 132.258 145.556Z" fill="#4B0082"/>
<path d="M127.636 105.966C127.636 105.966 127.636 106.003 127.674 106.079C127.712 106.193 127.712 106.307 127.75 106.458C127.826 106.837 127.939 107.329 128.091 107.974C128.394 109.262 128.735 111.194 129.189 113.543C129.606 115.892 130.061 118.695 130.515 121.84C130.932 124.984 131.349 128.432 131.69 132.031C132.031 135.668 132.258 139.115 132.372 142.298C132.523 145.442 132.561 148.284 132.599 150.67C132.599 153.057 132.599 154.989 132.561 156.315C132.523 156.959 132.523 157.49 132.523 157.869C132.523 158.02 132.523 158.172 132.485 158.285C132.485 158.361 132.485 158.437 132.485 158.437C132.485 158.437 132.485 158.399 132.485 158.285C132.485 158.172 132.485 158.058 132.485 157.869C132.485 157.49 132.485 156.997 132.485 156.315C132.485 154.989 132.485 153.057 132.448 150.67C132.41 148.284 132.334 145.442 132.182 142.298C132.031 139.153 131.804 135.668 131.463 132.069C131.122 128.432 130.705 124.984 130.288 121.877C129.871 118.733 129.417 115.929 129.038 113.581C128.621 111.232 128.28 109.337 128.053 108.011C127.939 107.367 127.826 106.875 127.788 106.496C127.75 106.344 127.75 106.193 127.712 106.117C127.636 106.041 127.636 105.966 127.636 105.966Z" fill="#263238"/>
<g opacity="0.3">
<g opacity="0.3">
<path opacity="0.3" d="M132.41 148.7C125.969 145.215 118.695 138.85 115.892 131.652C122.863 135.251 128.735 141.313 132.41 148.7Z" fill="black"/>
</g>
</g>
<g opacity="0.3">
<g opacity="0.3">
<path opacity="0.3" d="M131.993 137.865C125.552 134.38 118.278 128.015 115.475 120.817C122.446 124.416 128.318 130.477 131.993 137.865Z" fill="black"/>
</g>
</g>
<g opacity="0.3">
<g opacity="0.3">
<path opacity="0.3" d="M131.046 127.295C124.605 123.81 117.331 117.445 114.528 110.247C121.461 113.846 127.371 119.908 131.046 127.295Z" fill="black"/>
</g>
</g>
<g opacity="0.3">
<g opacity="0.3">
<path opacity="0.3" d="M129.606 116.195C123.62 111.838 117.18 104.526 115.21 96.9487C121.726 101.495 126.841 108.352 129.606 116.195Z" fill="black"/>
</g>
</g>
<g opacity="0.3">
<g opacity="0.3">
<path opacity="0.3" d="M127.788 107.595C123.734 101.116 120.286 91.7207 121.082 83.9163C125.552 90.7735 127.939 99.222 127.788 107.595Z" fill="black"/>
</g>
</g>
<g opacity="0.3">
<g opacity="0.3">
<path opacity="0.3" d="M128.697 111.686C130.402 103.579 134.569 93.6149 140.517 88.0078C138.85 96.6836 134.645 105.094 128.697 111.686Z" fill="black"/>
</g>
</g>
<g opacity="0.3">
<g opacity="0.3">
<path opacity="0.3" d="M130.061 120.855C132.485 112.596 137.638 102.556 144.344 97.2141C141.843 106.079 136.767 114.49 130.061 120.855Z" fill="black"/>
</g>
</g>
<g opacity="0.3">
<g opacity="0.3">
<path opacity="0.3" d="M131.5 131.993C133.925 123.734 139.078 113.694 145.783 108.352C143.321 117.217 138.244 125.628 131.5 131.993Z" fill="black"/>
</g>
</g>
<g opacity="0.3">
<g opacity="0.3">
<path opacity="0.3" d="M132.258 145.556C134.683 137.297 139.835 127.257 146.541 121.916C144.078 130.819 138.964 139.229 132.258 145.556Z" fill="black"/>
</g>
</g>
<path d="M134.039 150.898C130.099 145.708 126.462 138.017 126.5 131.463C130.819 136.918 133.508 143.813 134.039 150.898Z" fill="#4B0082"/>
<path d="M137.07 142.487C133.13 137.297 129.493 129.606 129.53 123.052C133.849 128.508 136.539 135.441 137.07 142.487Z" fill="#4B0082"/>
<path d="M139.608 134.077C135.668 128.886 132.031 121.196 132.069 114.641C136.388 120.097 139.078 127.03 139.608 134.077Z" fill="#4B0082"/>
<path d="M141.995 125.098C138.699 119.415 135.971 111.345 136.804 104.829C140.441 110.853 142.26 118.051 141.995 125.098Z" fill="#4B0082"/>
<path d="M143.245 117.862C142.108 111.345 142.336 102.821 145.404 97.2141C146.73 104.185 145.935 111.535 143.245 117.862Z" fill="#4B0082"/>
<path d="M142.677 121.309C146.503 115.854 152.83 109.868 159.233 107.974C155.217 113.884 149.345 118.657 142.677 121.309Z" fill="#4B0082"/>
<path d="M140.858 128.773C145.329 123.431 152.451 117.862 159.308 116.422C154.611 122.219 148.056 126.613 140.858 128.773Z" fill="#4B0082"/>
<path d="M138.547 137.827C143.018 132.486 150.14 126.916 156.997 125.477C152.3 131.273 145.745 135.668 138.547 137.827Z" fill="#4B0082"/>
<path d="M134.91 148.435C139.381 143.094 146.503 137.524 153.36 136.085C148.663 141.881 142.108 146.276 134.91 148.435Z" fill="#4B0082"/>
<path d="M143.624 116.536C143.624 116.536 143.624 116.574 143.624 116.649C143.624 116.725 143.586 116.839 143.586 116.99C143.548 117.293 143.472 117.71 143.396 118.24C143.207 119.339 142.904 120.892 142.525 122.825C141.73 126.689 140.479 132.031 138.737 137.789C137.865 140.669 136.956 143.396 136.085 145.859C135.213 148.322 134.38 150.519 133.622 152.337C132.864 154.156 132.258 155.633 131.804 156.656C131.576 157.149 131.425 157.528 131.273 157.831C131.197 157.944 131.159 158.058 131.122 158.134C131.084 158.21 131.084 158.248 131.084 158.248C131.084 158.248 131.084 158.21 131.122 158.134C131.159 158.058 131.197 157.944 131.235 157.831C131.349 157.528 131.5 157.149 131.728 156.656C132.145 155.633 132.751 154.156 133.47 152.3C134.19 150.443 135.024 148.246 135.857 145.783C136.729 143.321 137.6 140.593 138.471 137.714C140.214 131.955 141.502 126.651 142.336 122.787C142.752 120.855 143.093 119.301 143.283 118.203C143.396 117.672 143.472 117.255 143.548 116.952C143.586 116.839 143.586 116.725 143.624 116.611C143.586 116.574 143.624 116.536 143.624 116.536Z" fill="#263238"/>
<path d="M140.214 172H126.386L123.81 152.981H142.866L140.214 172Z" fill="#455A64"/>
<path d="M144.571 152.792H122.105V155.747H144.571V152.792Z" fill="#455A64"/>
<path d="M144.571 155.785C144.571 155.823 139.608 155.899 133.47 155.899C127.333 155.899 122.37 155.861 122.37 155.785C122.37 155.747 127.333 155.671 133.47 155.671C139.608 155.709 144.571 155.747 144.571 155.785Z" fill="#263238"/>
<path d="M112.974 171.735H52.3577C47.0538 171.735 42.7727 167.454 42.7727 162.15V23.3375C42.7727 18.0335 47.0538 13.7524 52.3577 13.7524H112.937C118.241 13.7524 122.522 18.0335 122.522 23.3375V162.15C122.559 167.454 118.278 171.735 112.974 171.735Z" fill="#455A64"/>
<path d="M44.0229 162.074V23.4133C44.0229 18.7533 47.8115 15.0027 52.4335 15.0027H112.899C117.559 15.0027 121.309 18.7912 121.309 23.4133V162.074C121.309 166.734 117.521 170.485 112.899 170.485H52.4335C47.8115 170.485 44.0229 166.734 44.0229 162.074Z" fill="#263238"/>
<path d="M76.9454 19.9656C76.4529 19.9656 76.074 19.5489 76.074 19.0943C76.074 18.6396 76.4908 18.2229 76.9454 18.2229H88.3489C88.8414 18.2229 89.2203 18.6396 89.2203 19.0943C89.2203 19.5489 88.8035 19.9656 88.3489 19.9656H76.9454Z" fill="#455A64"/>
<path d="M70.8079 19.9656C70.3154 19.9656 69.9366 19.5489 69.9366 19.0943C69.9366 18.6396 70.3533 18.2229 70.8079 18.2229C71.3004 18.2229 71.6793 18.6396 71.6793 19.0943C71.6793 19.5489 71.3004 19.9656 70.8079 19.9656Z" fill="#455A64"/>
<path d="M74.104 19.9656C73.6115 19.9656 73.2326 19.5489 73.2326 19.0943C73.2326 18.6396 73.6494 18.2229 74.104 18.2229C74.5965 18.2229 74.9753 18.6396 74.9753 19.0943C74.9753 19.5489 74.5965 19.9656 74.104 19.9656Z" fill="#455A64"/>
<path d="M94.5242 19.9656C94.0317 19.9656 93.6529 19.5489 93.6529 19.0943C93.6529 18.6396 94.0696 18.2229 94.5242 18.2229C95.0168 18.2229 95.3956 18.6396 95.3956 19.0943C95.3956 19.5489 95.0168 19.9656 94.5242 19.9656Z" fill="#455A64"/>
<path d="M91.2661 19.9656C90.7736 19.9656 90.3947 19.5489 90.3947 19.0943C90.3947 18.6396 90.8115 18.2229 91.2661 18.2229C91.7586 18.2229 92.1375 18.6396 92.1375 19.0943C92.1375 19.5489 91.7586 19.9656 91.2661 19.9656Z" fill="#455A64"/>
<path d="M114.035 16.0635H100.207C99.1463 16.0635 98.237 16.7454 97.9718 17.7683L97.1004 20.7992C96.7595 21.9357 95.7366 22.6934 94.6 22.6934H70.8079C69.6335 22.6934 68.6106 21.9357 68.3075 20.7992L67.4361 17.7683C67.133 16.7833 66.2238 16.0635 65.2009 16.0635H54.4414C49.7057 16.0635 45.8793 19.8899 45.8793 24.6256V162.642C45.8793 165.825 48.4555 168.439 51.6758 168.439H114.49C117.293 168.439 119.567 166.166 119.567 163.362V21.519C119.529 18.4881 117.066 16.0635 114.035 16.0635Z" fill="#FAFAFA"/>
<path d="M117.066 18.6018C115.513 17.0485 113.353 16.0635 110.967 16.0635H98.4643L96.5322 22.6555H68.8L66.8679 16.0635H51.4106C48.3419 16.0635 45.8035 18.5639 45.8035 21.6705V121.612L46.0308 121.65C53.2291 122.446 60.2 117.9 64.1401 111.876C68.0802 105.814 69.4819 98.4644 70.1639 91.2661C70.8458 84.0679 70.9595 76.7939 72.6264 69.7472C75.4678 57.9648 82.9313 47.3569 93.0846 40.689C98.0855 37.4309 103.693 35.082 108.504 31.4829C112.747 28.2626 116.346 23.7163 117.066 18.6018Z" fill="#F5F5F5"/>
<path d="M119.529 164.915V120.703C108.201 121.84 97.5551 128.735 91.8723 138.585C86.7198 147.488 85.6969 158.626 88.993 168.363H116.081C117.975 168.401 119.529 166.848 119.529 164.915Z" fill="#F5F5F5"/>
<path d="M122.559 48.0767H122.673C122.9 48.0767 123.09 48.2661 123.09 48.4934V65.8449C123.09 66.0723 122.9 66.2617 122.673 66.2617H122.559V48.0767Z" fill="#455A64"/>
<path d="M42.7727 59.2529H42.6212C42.3938 59.2529 42.2044 59.4424 42.2044 59.6697V70.3534C42.2044 70.5807 42.3938 70.7701 42.6212 70.7701H42.7727V59.2529Z" fill="#455A64"/>
<path d="M42.7727 44.2502H42.6212C42.3938 44.2502 42.2044 44.4397 42.2044 44.667V55.3507C42.2044 55.578 42.3938 55.7674 42.6212 55.7674H42.7727V44.2502Z" fill="#455A64"/>
<path d="M42.7727 32.9604H42.659C42.4696 32.9604 42.3181 33.112 42.3181 33.3014V37.9234C42.3181 38.1129 42.4696 38.2644 42.659 38.2644H42.7727V32.9604Z" fill="#455A64"/>
<path d="M102.177 21.178H101.647V21.9357H102.177V21.178Z" fill="#263238"/>
<path d="M103.048 20.8369H102.518V21.9356H103.048V20.8369Z" fill="#263238"/>
<path d="M103.958 20.6096H103.427V21.9735H103.958V20.6096Z" fill="#263238"/>
<path d="M104.829 20.0793H104.299V21.9357H104.829V20.0793Z" fill="#263238"/>
<path d="M112.937 22.0115H110.171C110.057 22.0115 109.981 21.9358 109.981 21.8221V20.4582C109.981 20.3446 110.057 20.2688 110.171 20.2688H112.937H112.974V20.3067V20.7613H113.278C113.315 20.7613 113.315 20.7992 113.315 20.7992V21.4432C113.315 21.4811 113.278 21.4811 113.278 21.4811H112.974V21.9358C113.012 21.9736 112.974 22.0115 112.937 22.0115ZM112.899 20.3446H110.209C110.171 20.3446 110.133 20.3825 110.133 20.4582V21.8221C110.133 21.86 110.171 21.9358 110.247 21.9358H112.937V21.4811C112.937 21.4432 112.974 21.4432 112.974 21.4432H113.278V20.8371H112.974C112.937 20.8371 112.937 20.7992 112.937 20.7992V20.3446H112.899Z" fill="#263238"/>
<path d="M110.322 21.6705V20.5718H112.671V21.0643V21.1779V21.6705H110.322Z" fill="#263238"/>
<path d="M107.481 21.8977C107.481 21.784 107.405 21.7083 107.292 21.7083C107.178 21.7083 107.102 21.784 107.102 21.8977C107.102 22.0113 107.178 22.0871 107.292 22.0871C107.405 22.0871 107.481 22.0113 107.481 21.8977Z" fill="#263238"/>
<path d="M106.572 21.4054L106.837 21.6706C106.951 21.5569 107.102 21.4811 107.254 21.4811C107.405 21.4811 107.557 21.5569 107.67 21.6706L107.936 21.4054C107.746 21.216 107.519 21.1023 107.254 21.1023C107.026 21.1402 106.761 21.216 106.572 21.4054Z" fill="#263238"/>
<path d="M107.292 20.5339C106.875 20.5339 106.496 20.7234 106.193 20.9886L106.458 21.2538C106.685 21.0264 106.951 20.9128 107.292 20.9128C107.633 20.9128 107.898 21.0264 108.125 21.2538L108.39 20.9886C108.087 20.7234 107.708 20.5339 107.292 20.5339Z" fill="#263238"/>
<path d="M105.776 20.5718L106.041 20.837C106.344 20.5339 106.799 20.3066 107.292 20.3066C107.784 20.3066 108.239 20.496 108.542 20.837L108.807 20.5718C108.428 20.1929 107.898 19.9277 107.292 19.9277C106.685 19.9656 106.155 20.1929 105.776 20.5718Z" fill="#263238"/>
<path d="M100.038 79.2047C102.064 74.2237 99.6691 68.5432 94.688 66.517C89.707 64.4908 84.0265 66.8862 82.0003 71.8673C79.9741 76.8483 82.3695 82.5288 87.3506 84.555C92.3316 86.5812 98.0121 84.1858 100.038 79.2047Z" fill="#F5F5F5"/>
<path d="M56.6388 56.0326C56.6388 53.5701 57.9269 52.0925 59.7454 52.0925C61.526 52.0925 62.852 53.5701 62.852 56.0326C62.852 58.4952 61.526 59.9727 59.7454 59.9727C57.9269 60.0106 56.6388 58.5331 56.6388 56.0326ZM62.0185 56.0326C62.0185 53.9489 61.0714 52.8124 59.7454 52.8124C58.3815 52.8124 57.4723 53.9489 57.4723 56.0326C57.4723 58.1163 58.4194 59.2529 59.7454 59.2529C61.0714 59.2529 62.0185 58.1163 62.0185 56.0326Z" fill="#263238"/>
<path d="M69.5577 55.9947C69.5577 58.6467 68.1181 60.0105 65.9965 60.0105C65.3145 60.0105 64.6326 59.8969 64.1401 59.5938L64.4432 58.9498C64.8599 59.215 65.3903 59.3286 65.9586 59.3286C67.6256 59.3286 68.7242 58.2678 68.7242 56.1462C68.7242 55.9568 68.7242 55.7295 68.6864 55.5022C68.3075 56.3735 67.3982 56.8282 66.2996 56.8282C64.7463 56.8282 63.6855 55.9189 63.6855 54.5171C63.6855 53.0775 64.822 52.1304 66.3375 52.1304C68.459 52.0925 69.5577 53.5321 69.5577 55.9947ZM68.4969 54.4414C68.4969 53.57 67.7771 52.7744 66.4511 52.7744C65.3145 52.7744 64.5568 53.4185 64.5568 54.4793C64.5568 55.5022 65.3145 56.1462 66.5269 56.1462C67.6634 56.1462 68.4969 55.3885 68.4969 54.4414Z" fill="#263238"/>
<path d="M70.7322 54.6308C70.7322 54.2899 70.9974 54.0247 71.3383 54.0247C71.6414 54.0247 71.9445 54.2899 71.9445 54.6308C71.9445 54.9718 71.6793 55.237 71.3383 55.237C70.9974 55.237 70.7322 54.9718 70.7322 54.6308ZM70.7322 59.3665C70.7322 59.0255 70.9974 58.7603 71.3383 58.7603C71.6414 58.7603 71.9445 59.0255 71.9445 59.3665C71.9445 59.7075 71.6793 59.9727 71.3383 59.9727C70.9974 59.9727 70.7322 59.7075 70.7322 59.3665Z" fill="#263238"/>
<path d="M73.0811 56.0326C73.0811 53.5701 74.3692 52.0925 76.1877 52.0925C77.9683 52.0925 79.2943 53.5701 79.2943 56.0326C79.2943 58.4952 77.9683 59.9727 76.1877 59.9727C74.3692 60.0106 73.0811 58.5331 73.0811 56.0326ZM78.4608 56.0326C78.4608 53.9489 77.5137 52.8124 76.1877 52.8124C74.8238 52.8124 73.9145 53.9489 73.9145 56.0326C73.9145 58.1163 74.8617 59.2529 76.1877 59.2529C77.5137 59.2529 78.4608 58.1163 78.4608 56.0326Z" fill="#263238"/>
<path d="M80.4308 56.0326C80.4308 53.5701 81.719 52.0925 83.5375 52.0925C85.3181 52.0925 86.6441 53.5701 86.6441 56.0326C86.6441 58.4952 85.3181 59.9727 83.5375 59.9727C81.719 60.0106 80.4308 58.5331 80.4308 56.0326ZM85.8106 56.0326C85.8106 53.9489 84.8634 52.8124 83.5375 52.8124C82.1736 52.8124 81.2643 53.9489 81.2643 56.0326C81.2643 58.1163 82.2115 59.2529 83.5375 59.2529C84.8634 59.2529 85.8106 58.1163 85.8106 56.0326Z" fill="#263238"/>
<path d="M108.466 43.1894H58.4573C55.6916 43.1894 53.4943 40.9542 53.4943 38.2264C53.4943 35.4608 55.7295 33.2634 58.4573 33.2634H108.466C111.232 33.2634 113.429 35.4987 113.429 38.2264C113.429 40.9542 111.232 43.1894 108.466 43.1894Z" fill="#E0E0E0"/>
<path d="M107.178 40.083C106.117 40.083 105.284 39.2495 105.284 38.1887C105.284 37.1279 106.117 36.2944 107.178 36.2944C108.239 36.2944 109.072 37.1279 109.072 38.1887C109.072 39.2495 108.201 40.083 107.178 40.083ZM107.178 36.6733C106.344 36.6733 105.663 37.3552 105.663 38.1887C105.663 39.0222 106.344 39.7041 107.178 39.7041C108.011 39.7041 108.693 39.0222 108.693 38.1887C108.693 37.3552 108.011 36.6733 107.178 36.6733Z" fill="#263238"/>
<path d="M109.716 40.5753C109.678 40.5753 109.641 40.5753 109.603 40.5374L108.352 39.4387C108.277 39.363 108.277 39.2493 108.352 39.1735C108.428 39.0978 108.542 39.0978 108.618 39.1735L109.868 40.2722C109.944 40.348 109.944 40.4616 109.868 40.5374C109.83 40.5753 109.754 40.5753 109.716 40.5753Z" fill="#263238"/>
<path d="M106.875 59.1393C106.875 59.1393 107.026 59.1393 107.292 59.1393C107.557 59.1014 107.936 58.9878 108.315 58.6847C108.504 58.5331 108.693 58.3437 108.845 58.0785C108.921 57.9649 108.959 57.8133 108.996 57.6618C109.034 57.5102 109.072 57.3587 109.034 57.1693C109.034 57.0177 108.996 56.8283 108.959 56.6389C108.921 56.4494 108.845 56.2979 108.731 56.1464C108.542 55.8054 108.239 55.5402 107.86 55.3508H107.822V55.3129C107.86 54.7825 107.557 54.2142 107.026 53.9869C106.534 53.7217 105.814 53.8353 105.359 54.2521L105.322 54.29V54.2142C105.132 53.3807 104.488 52.623 103.617 52.282C103.389 52.2063 103.162 52.1305 102.935 52.0926C102.859 52.0926 102.821 52.0926 102.745 52.0926C102.67 52.0926 102.632 52.0926 102.556 52.0926C102.442 52.0926 102.329 52.0926 102.215 52.1305C101.76 52.2063 101.344 52.4336 101.003 52.6988C100.662 53.0019 100.396 53.3428 100.245 53.7217C100.093 54.1005 99.9798 54.5173 100.018 54.8961V54.934H99.9797C99.5251 54.8204 99.0326 54.8961 98.6538 55.0856C98.4643 55.1992 98.2749 55.3129 98.1234 55.4265C97.9718 55.5781 97.8582 55.7296 97.7445 55.8812C97.6309 56.0327 97.593 56.2221 97.5172 56.4116C97.4793 56.601 97.4793 56.7525 97.4793 56.942C97.5172 57.2829 97.6309 57.586 97.7445 57.8133C98.0476 58.3058 98.4264 58.571 98.6916 58.6847C98.9568 58.7983 99.1463 58.8362 99.1463 58.8362C99.1463 58.8362 99.1463 58.8362 99.1084 58.8362C99.0705 58.8362 99.0705 58.8362 99.0326 58.8362C98.9947 58.8362 98.9568 58.8362 98.8811 58.7983C98.8432 58.7605 98.7674 58.7605 98.6916 58.7226C98.4264 58.6089 98.0097 58.3437 97.7066 57.8512C97.5551 57.586 97.4414 57.2829 97.4035 56.942C97.4035 56.7525 97.4035 56.601 97.4414 56.4116C97.4793 56.2221 97.5551 56.0327 97.6687 55.8812C97.7824 55.6917 97.896 55.5402 98.0476 55.3886C98.1991 55.2371 98.3886 55.1235 98.578 55.0098C98.9947 54.8204 99.4872 54.7067 99.9419 54.8583L100.018 54.934C99.9798 54.5173 100.056 54.1005 100.245 53.7217C100.434 53.3428 100.7 52.964 101.041 52.6609C101.382 52.3578 101.798 52.1305 102.291 52.0547C102.404 52.0168 102.518 52.0168 102.632 52.0168C102.708 52.0168 102.745 52.0168 102.821 52.0168C102.897 52.0168 102.935 52.0168 103.011 52.0168C103.238 52.0547 103.503 52.0926 103.73 52.2063C104.602 52.5472 105.284 53.3428 105.473 54.2142H105.397C105.852 53.7596 106.61 53.6459 107.14 53.9111C107.67 54.1763 107.974 54.7825 107.974 55.3129V55.275C108.352 55.4644 108.656 55.7675 108.883 56.1085C108.996 56.26 109.034 56.4494 109.11 56.6389C109.148 56.8283 109.186 56.9798 109.186 57.1693C109.186 57.3587 109.148 57.5102 109.11 57.6618C109.072 57.8133 108.996 57.9649 108.921 58.0785C108.769 58.3437 108.58 58.5331 108.39 58.6847C108.011 58.9878 107.595 59.1014 107.33 59.1393C107.216 59.1393 107.102 59.1393 107.026 59.1393C106.913 59.1393 106.875 59.1393 106.875 59.1393Z" fill="#263238"/>
<path d="M107.064 59.3287C107.026 59.3287 106.989 59.3287 106.951 59.3287C106.875 59.3287 106.837 59.3287 106.837 59.3287C106.761 59.3287 106.723 59.2529 106.685 59.2151C106.648 59.1393 106.685 59.0635 106.723 59.0256C106.799 58.9499 106.837 58.9877 106.913 58.9877C106.951 58.9877 107.064 58.9877 107.254 58.9877C107.481 58.9499 107.822 58.8741 108.201 58.571C108.39 58.4195 108.542 58.23 108.656 58.0027C108.731 57.8891 108.769 57.7375 108.807 57.6239C108.845 57.4723 108.845 57.3208 108.845 57.2071C108.845 57.0556 108.807 56.8662 108.769 56.7525C108.731 56.601 108.656 56.4494 108.58 56.2979C108.39 55.9948 108.125 55.7296 107.784 55.5781C107.708 55.5402 107.633 55.4644 107.67 55.3886C107.708 54.8961 107.405 54.4036 106.989 54.2142C106.534 53.9869 105.928 54.1005 105.549 54.4415L105.511 54.4794C105.473 54.5173 105.397 54.5551 105.322 54.5173C105.246 54.4794 105.208 54.4415 105.208 54.3657V54.2899C105.056 53.4944 104.412 52.8124 103.617 52.4714C103.389 52.3957 103.162 52.3199 102.973 52.3199C102.897 52.3199 102.859 52.3199 102.821 52.3199H102.745C102.708 52.3199 102.67 52.3199 102.632 52.3199H102.556C102.48 52.3199 102.404 52.3199 102.329 52.3578C101.95 52.4336 101.533 52.623 101.192 52.8882C100.889 53.1534 100.624 53.4944 100.472 53.8353C100.321 54.1763 100.245 54.5551 100.245 54.934V54.9719C100.245 55.0477 100.207 55.0855 100.169 55.1234C100.131 55.1613 100.056 55.1613 100.018 55.1613H99.9797C99.6009 55.0477 99.1463 55.1234 98.7674 55.3129C98.578 55.3886 98.4264 55.5023 98.2749 55.6538C98.1612 55.7675 98.0097 55.919 97.9339 56.0706C97.8582 56.2221 97.7824 56.3736 97.7445 56.5252C97.7066 56.7146 97.7066 56.8662 97.7066 56.9798C97.7445 57.245 97.8203 57.5481 97.9718 57.7754C98.237 58.2679 98.6538 58.4952 98.8432 58.571C99.0326 58.6468 99.1463 58.6847 99.222 58.6847C99.2599 58.6847 99.3357 58.7225 99.3736 58.7983C99.4115 58.8362 99.4115 58.912 99.4115 58.9499C99.3736 59.0635 99.2599 59.1014 99.1463 59.1014H99.0705C98.9947 59.1014 98.9568 59.0635 98.8811 59.0635H98.8432C98.8053 59.0635 98.7295 59.0256 98.6916 58.9877C98.4643 58.8741 97.9718 58.6089 97.6309 58.0406C97.4414 57.7375 97.3278 57.3966 97.3278 57.0556C97.3278 56.8662 97.3278 56.6767 97.3657 56.4494C97.4035 56.26 97.4793 56.0327 97.593 55.8432C97.7066 55.6538 97.8582 55.4644 98.0097 55.3129C98.1991 55.1613 98.3886 55.0098 98.578 54.8961C98.9568 54.7067 99.4115 54.6309 99.7903 54.6688C99.7903 54.3278 99.904 53.9869 100.018 53.6459C100.207 53.2292 100.51 52.8503 100.851 52.5093C101.268 52.1684 101.722 51.941 102.177 51.8653C102.253 51.8274 102.367 51.8274 102.442 51.8274H102.518C102.556 51.8274 102.632 51.8274 102.67 51.8274H102.745C102.821 51.8274 102.897 51.8274 102.935 51.8274C103.162 51.8274 103.389 51.9032 103.693 52.0168C104.526 52.3199 105.17 53.0018 105.435 53.7974C105.928 53.4944 106.572 53.4565 107.102 53.7217C107.633 53.9869 108.011 54.5551 108.011 55.1613C108.352 55.3507 108.656 55.6538 108.845 55.9948C108.959 56.1842 109.034 56.3736 109.072 56.5631C109.11 56.7525 109.148 56.9419 109.148 57.1314C109.148 57.3208 109.11 57.5102 109.072 57.6618C108.996 57.8891 108.959 58.0027 108.883 58.1543C108.731 58.4195 108.542 58.6468 108.315 58.8362C107.898 59.1772 107.443 59.2908 107.178 59.3287C107.216 59.3287 107.14 59.3287 107.064 59.3287Z" fill="#263238"/>
<path d="M102.404 57.7754C102.404 57.7754 102.177 58.1921 101.874 58.7225C101.571 59.2529 101.306 59.6318 101.268 59.6318C101.268 59.6318 101.495 59.215 101.798 58.6846C102.101 58.1921 102.367 57.7754 102.404 57.7754Z" fill="#263238"/>
<path d="M101.306 59.859C101.268 59.859 101.23 59.859 101.192 59.8211C101.003 59.7075 101.003 59.6696 101.647 58.6088C102.215 57.6617 102.253 57.6238 102.367 57.6238C102.404 57.6238 102.48 57.6238 102.518 57.6617C102.556 57.6995 102.594 57.7374 102.594 57.7753C102.632 57.8511 102.632 57.889 102.063 58.874C101.533 59.6317 101.419 59.859 101.306 59.859Z" fill="#263238"/>
<path d="M104.147 57.7754C104.147 57.7754 103.92 58.1921 103.617 58.7225C103.314 59.2529 103.048 59.6318 103.011 59.6318C103.011 59.6318 103.238 59.215 103.541 58.6846C103.844 58.1921 104.109 57.7754 104.147 57.7754Z" fill="#263238"/>
<path d="M103.011 59.8212C102.973 59.8212 102.935 59.8212 102.897 59.7833C102.707 59.6696 102.707 59.6318 103.352 58.571C103.92 57.6238 103.958 57.5859 104.071 57.5859C104.109 57.5859 104.185 57.5859 104.223 57.6238C104.412 57.7375 104.412 57.7754 103.768 58.8362C103.2 59.7833 103.162 59.8212 103.048 59.8212C103.048 59.8212 103.048 59.8212 103.011 59.8212Z" fill="#263238"/>
<path d="M105.89 57.7754C105.89 57.7754 105.663 58.1921 105.359 58.7225C105.056 59.2529 104.791 59.6318 104.753 59.6318C104.753 59.6318 104.981 59.215 105.284 58.6846C105.587 58.1921 105.852 57.7754 105.89 57.7754Z" fill="#263238"/>
<path d="M104.791 59.859C104.753 59.859 104.715 59.859 104.678 59.8211C104.488 59.7075 104.488 59.6696 105.132 58.6088C105.7 57.6617 105.738 57.6238 105.852 57.6238C105.89 57.6238 105.966 57.6238 106.004 57.6617C106.041 57.6995 106.079 57.7374 106.079 57.7753C106.117 57.8511 106.117 57.889 105.549 58.874C105.019 59.6317 104.905 59.859 104.791 59.859Z" fill="#263238"/>
<path d="M100.359 60.3894C100.359 60.3894 100.131 60.8061 99.8282 61.3365C99.5251 61.8669 99.2599 62.2458 99.222 62.2458C99.222 62.2458 99.4493 61.8291 99.7524 61.2987C100.093 60.7683 100.359 60.3894 100.359 60.3894Z" fill="#263238"/>
<path d="M99.2599 62.4353C99.222 62.4353 99.1842 62.4353 99.1463 62.3974C99.1084 62.3595 99.0705 62.3216 99.0705 62.2837C99.0326 62.208 99.0326 62.1701 99.6009 61.1851C100.245 60.1243 100.283 60.0864 100.434 60.2C100.624 60.3137 100.624 60.3516 99.9797 61.4124C99.4115 62.3595 99.3736 62.3974 99.2599 62.3974C99.2978 62.4353 99.2599 62.4353 99.2599 62.4353Z" fill="#263238"/>
<path d="M102.101 60.3894C102.101 60.3894 101.874 60.8061 101.571 61.3365C101.268 61.8669 101.003 62.2458 100.965 62.2458C100.965 62.2458 101.192 61.8291 101.495 61.2987C101.836 60.7683 102.101 60.3894 102.101 60.3894Z" fill="#263238"/>
<path d="M101.003 62.4353C100.965 62.4353 100.927 62.4353 100.889 62.3974C100.851 62.3595 100.813 62.3216 100.813 62.2837C100.775 62.208 100.775 62.1701 101.344 61.1851C101.988 60.1243 102.026 60.0864 102.177 60.2C102.367 60.3137 102.367 60.3516 101.722 61.4124C101.154 62.3595 101.116 62.3974 101.003 62.3974C101.041 62.4353 101.003 62.4353 101.003 62.4353Z" fill="#263238"/>
<path d="M103.844 60.3894C103.844 60.3894 103.617 60.8061 103.314 61.3365C103.011 61.8669 102.745 62.2458 102.707 62.2458C102.707 62.2458 102.935 61.8291 103.238 61.2987C103.579 60.7683 103.844 60.3894 103.844 60.3894Z" fill="#263238"/>
<path d="M102.745 62.4353C102.708 62.4353 102.67 62.4353 102.632 62.3974C102.594 62.3595 102.556 62.3216 102.556 62.2837C102.518 62.208 102.518 62.1701 103.086 61.1851C103.73 60.1243 103.768 60.0864 103.92 60.2C104.109 60.3137 104.109 60.3516 103.465 61.4124C102.897 62.3595 102.859 62.3974 102.745 62.3974C102.783 62.4353 102.745 62.4353 102.745 62.4353Z" fill="#263238"/>
<path d="M105.7 60.4272C105.7 60.4272 105.473 60.844 105.17 61.3744C104.867 61.9048 104.602 62.2836 104.564 62.2836C104.526 62.2836 104.791 61.8669 105.094 61.3365C105.397 60.844 105.663 60.4272 105.7 60.4272Z" fill="#263238"/>
<path d="M104.602 62.473C104.564 62.473 104.526 62.473 104.488 62.4352C104.299 62.3215 104.299 62.2836 104.943 61.2228C105.511 60.2757 105.549 60.2378 105.663 60.2378C105.7 60.2378 105.776 60.2378 105.814 60.2757C105.852 60.3136 105.89 60.3514 105.89 60.3893C105.928 60.4651 105.928 60.503 105.359 61.488C104.829 62.2836 104.715 62.473 104.602 62.473Z" fill="#263238"/>
<path d="M75.6952 139.57C76.574 139.57 77.2864 138.858 77.2864 137.979C77.2864 137.1 76.574 136.388 75.6952 136.388C74.8164 136.388 74.104 137.1 74.104 137.979C74.104 138.858 74.8164 139.57 75.6952 139.57Z" fill="#EBEBEB"/>
<path d="M81.0749 139.57C81.9537 139.57 82.6661 138.858 82.6661 137.979C82.6661 137.1 81.9537 136.388 81.0749 136.388C80.1961 136.388 79.4837 137.1 79.4837 137.979C79.4837 138.858 80.1961 139.57 81.0749 139.57Z" fill="#E0E0E0"/>
<path d="M86.4168 139.57C87.2955 139.57 88.0079 138.858 88.0079 137.979C88.0079 137.1 87.2955 136.388 86.4168 136.388C85.538 136.388 84.8256 137.1 84.8256 137.979C84.8256 138.858 85.538 139.57 86.4168 139.57Z" fill="#E0E0E0"/>
<path d="M91.7965 139.57C92.6753 139.57 93.3877 138.858 93.3877 137.979C93.3877 137.1 92.6753 136.388 91.7965 136.388C90.9177 136.388 90.2053 137.1 90.2053 137.979C90.2053 138.858 90.9177 139.57 91.7965 139.57Z" fill="#E0E0E0"/>
<path d="M62.3216 158.892H56.2599C54.3656 158.892 52.8123 157.338 52.8123 155.444V149.382C52.8123 147.488 54.3656 145.935 56.2599 145.935H62.3216C64.2159 145.935 65.7692 147.488 65.7692 149.382V155.444C65.7313 157.376 64.2159 158.892 62.3216 158.892Z" fill="#4B0082"/>
<path d="M78.2335 158.778H72.5886C70.5806 158.778 68.9515 157.149 68.9515 155.141V149.496C68.9515 147.488 70.5806 145.859 72.5886 145.859H78.2335C80.2414 145.859 81.8705 147.488 81.8705 149.496V155.141C81.8705 157.149 80.2414 158.778 78.2335 158.778Z" fill="#E0E0E0"/>
<path d="M94.1454 158.664H88.9172C86.7956 158.664 85.0529 156.96 85.0529 154.8V149.572C85.0529 147.45 86.7577 145.708 88.9172 145.708H94.1454C96.267 145.708 98.0097 147.412 98.0097 149.572V154.8C98.0097 156.922 96.267 158.664 94.1454 158.664Z" fill="#455A64"/>
<path d="M110.247 158.892H105.094C102.935 158.892 101.192 157.149 101.192 154.989V149.837C101.192 147.678 102.935 145.935 105.094 145.935H110.247C112.406 145.935 114.149 147.678 114.149 149.837V154.989C114.111 157.149 112.368 158.892 110.247 158.892Z" fill="#263238"/>
<path d="M62.3216 130.894H56.1841C54.2899 130.894 52.7745 129.379 52.7745 127.485V121.347C52.7745 119.453 54.2899 117.938 56.1841 117.938H62.3216C64.2159 117.938 65.7313 119.453 65.7313 121.347V127.485C65.7313 129.379 64.2159 130.894 62.3216 130.894Z" fill="#455A64"/>
<path d="M77.8925 130.781H72.9295C70.7322 130.781 68.9515 129 68.9515 126.803V121.84C68.9515 119.642 70.7322 117.862 72.9295 117.862H77.8925C80.0899 117.862 81.8705 119.642 81.8705 121.84V126.803C81.8705 129 80.0899 130.781 77.8925 130.781Z" fill="#263238"/>
<path d="M94.4485 130.667H88.5762C86.6062 130.667 85.0529 129.076 85.0529 127.144V121.234C85.0529 119.264 86.6441 117.71 88.5762 117.71H94.4485C96.4185 117.71 97.9718 119.301 97.9718 121.234V127.106C98.0097 129.076 96.4185 130.667 94.4485 130.667Z" fill="#E0E0E0"/>
<path d="M110.247 130.515H105.019C102.897 130.515 101.154 128.773 101.154 126.651V121.423C101.154 119.301 102.897 117.559 105.019 117.559H110.247C112.368 117.559 114.111 119.301 114.111 121.423V126.651C114.111 128.811 112.406 130.515 110.247 130.515Z" fill="#4B0082"/>
<path d="M57.889 122.105C58.0784 121.991 58.3057 121.878 58.533 121.84L58.6846 121.196L59.7833 121.158L59.9348 121.802C60.1621 121.84 60.3894 121.953 60.5789 122.067L61.1471 121.688L61.9427 122.446L61.6018 123.014C61.7154 123.204 61.8291 123.431 61.867 123.658L62.511 123.81L62.5489 124.908L61.9049 125.06C61.867 125.287 61.7533 125.515 61.6397 125.704L62.0185 126.272L61.2608 127.068L60.6925 126.727C60.5031 126.841 60.2758 126.954 60.0485 126.992L59.859 127.674L58.7604 127.712L58.6088 127.068C58.3815 127.03 58.1542 126.916 57.9648 126.803L57.3965 127.182L56.6009 126.424L56.9419 125.856C56.8282 125.666 56.7145 125.439 56.6767 125.211L56.0326 125.06L55.9947 123.961L56.6388 123.81C56.6767 123.582 56.7903 123.355 56.904 123.166L56.5251 122.597L57.2828 121.802L57.889 122.105ZM58.2679 123.431C57.7375 123.999 57.7375 124.908 58.3057 125.439C58.874 125.969 59.7833 125.969 60.3137 125.401C60.8441 124.833 60.8441 123.923 60.2758 123.393C59.7075 122.863 58.7982 122.863 58.2679 123.431Z" fill="white"/>
<path d="M88.5005 155.331L88.9551 153.588C88.6899 153.095 88.5383 152.565 88.5383 152.035C88.5383 150.254 89.978 148.776 91.7965 148.776C93.5771 148.776 95.0546 150.216 95.0546 152.035C95.0546 153.815 93.615 155.293 91.7965 155.293C91.2661 155.293 90.7357 155.141 90.2432 154.914L88.5005 155.331ZM90.3568 154.194L90.4705 154.27C90.8872 154.497 91.3419 154.649 91.7965 154.649C93.2361 154.649 94.4485 153.474 94.4485 151.997C94.4485 150.557 93.274 149.345 91.7965 149.345C90.3568 149.345 89.1445 150.519 89.1445 151.997C89.1445 152.489 89.296 152.944 89.5234 153.36L89.5991 153.474L89.3339 154.459L90.3568 154.194Z" fill="white"/>
<path fill-rule="evenodd" clip-rule="evenodd" d="M93.0088 152.489C92.8573 152.413 92.7057 152.338 92.5542 152.376C92.4405 152.413 92.3648 152.603 92.289 152.716C92.2511 152.754 92.2132 152.792 92.1374 152.754C91.6828 152.565 91.3419 152.262 91.0767 151.845C91.0388 151.769 91.0388 151.731 91.0767 151.656C91.1524 151.58 91.2661 151.466 91.2661 151.353C91.304 151.239 91.2282 151.087 91.1903 150.974C91.1145 150.822 91.0388 150.633 90.9251 150.557C90.8115 150.481 90.622 150.519 90.5084 150.633C90.3189 150.784 90.2053 151.05 90.2432 151.277C90.2432 151.353 90.2432 151.428 90.2811 151.466C90.3189 151.618 90.3947 151.769 90.4705 151.921C90.5463 152.035 90.5841 152.148 90.6599 152.224C90.8872 152.565 91.1903 152.83 91.5692 153.057C91.7586 153.171 91.948 153.247 92.1374 153.323C92.3648 153.398 92.5542 153.474 92.7815 153.436C93.0467 153.398 93.274 153.247 93.3877 152.982C93.4256 152.906 93.4256 152.83 93.4256 152.754C93.3119 152.641 93.1225 152.565 93.0088 152.489Z" fill="white"/>
<path fill-rule="evenodd" clip-rule="evenodd" d="M61.5639 153.209C61.2987 153.057 60.9956 152.906 60.6925 153.02C60.4652 153.095 60.3137 153.474 60.1621 153.664C60.0864 153.739 60.0106 153.777 59.859 153.739C58.9877 153.398 58.3436 152.83 57.8511 152.035C57.7753 151.921 57.7753 151.807 57.889 151.694C58.0405 151.542 58.23 151.315 58.2679 151.087C58.3057 150.86 58.1921 150.595 58.1163 150.405C58.0026 150.14 57.8511 149.761 57.5859 149.648C57.3586 149.496 57.0176 149.572 56.8282 149.761C56.4493 150.064 56.2978 150.519 56.2978 151.012C56.2978 151.125 56.2978 151.277 56.3357 151.39C56.4115 151.694 56.563 151.997 56.7145 152.262C56.8282 152.451 56.9797 152.679 57.0934 152.868C57.548 153.512 58.1163 154.042 58.7982 154.459C59.1392 154.649 59.4802 154.838 59.859 154.952C60.2758 155.103 60.6546 155.217 61.1093 155.141C61.5639 155.065 62.0564 154.762 62.2079 154.308C62.2458 154.156 62.2837 154.042 62.2458 153.891C62.2079 153.512 61.7912 153.361 61.5639 153.209Z" fill="white"/>
<path d="M109.678 150.367C109.451 150.367 109.3 150.519 109.3 150.746C109.3 150.974 109.451 151.125 109.678 151.125C109.906 151.125 110.057 150.974 110.057 150.746C110.057 150.519 109.906 150.367 109.678 150.367Z" fill="white"/>
<path d="M108.011 150.746C107.14 150.746 106.42 151.466 106.42 152.338C106.42 153.209 107.14 153.929 108.011 153.929C108.883 153.929 109.603 153.209 109.603 152.338C109.603 151.466 108.883 150.746 108.011 150.746ZM108.011 153.323C107.443 153.323 106.989 152.868 106.989 152.3C106.989 151.731 107.443 151.277 108.011 151.277C108.58 151.277 109.034 151.731 109.034 152.3C109.034 152.868 108.58 153.323 108.011 153.323Z" fill="white"/>
<path d="M109.262 155.671H106.685C105.625 155.671 104.753 154.8 104.753 153.739V151.163C104.753 150.102 105.625 149.231 106.685 149.231H109.262C110.322 149.231 111.194 150.102 111.194 151.163V153.739C111.194 154.8 110.322 155.671 109.262 155.671ZM106.685 149.799C105.966 149.799 105.359 150.405 105.359 151.125V153.701C105.359 154.421 105.966 155.027 106.685 155.027H109.262C109.982 155.027 110.588 154.421 110.588 153.701V151.163C110.588 150.443 109.982 149.837 109.262 149.837H106.685V149.799Z" fill="white"/>
<path d="M72.5507 155.444C72.4749 155.444 72.3991 155.406 72.3612 155.368C72.2476 155.255 72.2476 155.065 72.3612 154.952L73.9145 153.398C73.0811 152.376 73.1568 150.822 74.104 149.913C74.5965 149.42 75.2784 149.155 75.9604 149.155C76.6802 149.155 77.3242 149.42 77.8167 149.913C78.8396 150.936 78.8396 152.603 77.8167 153.626C77.3242 154.118 76.6423 154.383 75.9604 154.383C75.3542 154.383 74.7859 154.194 74.3313 153.815L72.778 155.368C72.7022 155.444 72.6264 155.444 72.5507 155.444ZM75.9225 149.724C75.3921 149.724 74.8617 149.951 74.4828 150.33C74.104 150.709 73.8767 151.239 73.8767 151.769C73.8767 152.338 74.104 152.83 74.4828 153.209C74.8617 153.588 75.3921 153.815 75.9225 153.815C76.4529 153.815 76.9833 153.588 77.3621 153.209C77.741 152.83 77.9683 152.3 77.9683 151.769C77.9683 151.201 77.741 150.709 77.3621 150.33C76.9833 149.951 76.4907 149.724 75.9225 149.724Z" fill="white"/>
<path d="M84.333 63.6854C84.333 63.7233 78.2714 63.7991 70.7701 63.7991C63.2687 63.7991 57.2071 63.7612 57.2071 63.6854C57.2071 63.6475 63.2687 63.5718 70.7701 63.5718C78.2714 63.5718 84.333 63.6097 84.333 63.6854Z" fill="#263238"/>
<path d="M75.9604 124.226C76.5286 123.999 76.9075 123.431 76.9075 122.749C76.9075 121.878 76.2634 121.158 75.43 121.158C74.5965 121.158 73.9524 121.878 73.9145 122.749C73.9145 123.431 74.2934 123.999 74.8617 124.226C72.5507 124.567 72.6643 127.068 72.6643 127.068L78.0819 127.106C78.1198 127.106 78.2335 124.567 75.9604 124.226Z" fill="white"/>
<path d="M95.7744 126.272C96.0775 125.59 95.8881 124.908 95.4335 124.34C94.9789 123.772 94.1454 123.506 93.4634 123.696C93.3498 122.976 92.8573 122.37 92.1753 122.067C91.5313 121.764 90.7357 121.839 90.0916 122.218C89.4855 122.597 89.0687 123.279 89.0308 123.999C88.5383 124.075 88.0837 124.378 87.8564 124.832C87.6291 125.249 87.5912 125.817 87.7427 126.272H95.7744Z" fill="white"/>
<path d="M108.769 126.31C108.769 126.613 108.542 126.841 108.239 126.841C107.936 126.841 107.708 126.613 107.708 126.31C107.708 126.007 107.936 125.78 108.239 125.78C108.542 125.78 108.769 126.007 108.769 126.31Z" fill="white"/>
<path d="M107.178 125.629C107.746 125.022 108.693 124.984 109.3 125.591C109.565 125.856 109.981 125.439 109.716 125.174C108.883 124.34 107.557 124.34 106.761 125.212C106.496 125.477 106.913 125.894 107.178 125.629Z" fill="white"/>
<path d="M105.397 123.166C106.193 122.484 107.14 122.029 108.239 122.029C109.3 122.029 110.36 122.408 111.118 123.128C111.383 123.393 111.8 122.976 111.535 122.711C110.626 121.877 109.451 121.423 108.239 121.423C106.989 121.423 105.89 121.915 104.981 122.711C104.678 123.014 105.094 123.431 105.397 123.166Z" fill="white"/>
<path d="M106.117 124.53C106.648 123.961 107.405 123.582 108.201 123.582C109.034 123.582 109.792 123.885 110.36 124.492C110.626 124.757 111.042 124.34 110.777 124.075C110.095 123.393 109.148 122.976 108.163 123.014C107.216 123.052 106.307 123.469 105.663 124.151C105.435 124.378 105.852 124.795 106.117 124.53Z" fill="white"/>
<path d="M30.9903 159.46L30.8388 167.34C30.8388 167.34 38.8326 170.144 38.9463 171.583L23.6405 171.849L23.3374 159.536L30.9903 159.46Z" fill="#4B0082"/>
<path d="M26.1031 166.772C25.8 166.848 25.6106 167.189 25.6864 167.492C25.7621 167.795 26.1031 167.984 26.4062 167.908C26.7093 167.833 26.9366 167.416 26.8608 167.151C26.7471 166.848 26.3304 166.658 26.0652 166.81" fill="#E0E0E0"/>
<path d="M23.6405 171.887L23.6784 170.637L38.3401 170.827C38.3401 170.827 39.022 171.13 38.9463 171.584L23.6405 171.887Z" fill="#263238"/>
<path d="M31.104 167.264C31.104 167.34 30.7251 167.378 30.3841 167.643C30.0053 167.87 29.8159 168.211 29.778 168.174C29.7022 168.174 29.8159 167.719 30.2705 167.416C30.6493 167.113 31.104 167.189 31.104 167.264Z" fill="#263238"/>
<path d="M32.6952 167.908C32.6952 167.984 32.3921 168.098 32.1269 168.439C31.8617 168.742 31.8238 169.083 31.748 169.083C31.6723 169.083 31.6344 168.666 31.9375 168.249C32.2784 167.87 32.6952 167.833 32.6952 167.908Z" fill="#263238"/>
<path d="M33.6423 169.801C33.5665 169.801 33.4529 169.46 33.6423 169.044C33.8317 168.627 34.1727 168.475 34.2106 168.513C34.2485 168.589 34.0211 168.816 33.8696 169.157C33.7559 169.498 33.7181 169.801 33.6423 169.801Z" fill="#263238"/>
<path d="M30.9145 165.484C30.8767 165.56 30.5357 165.446 30.1189 165.484C29.7022 165.522 29.3612 165.673 29.3234 165.597C29.2855 165.56 29.5886 165.256 30.0811 165.219C30.6115 165.181 30.9524 165.408 30.9145 165.484Z" fill="#263238"/>
<path d="M22.0872 155.256L16.5938 160.938C16.5938 160.938 20.5339 168.402 19.6247 169.576L8.22115 159.347L16.4044 150.141L22.0872 155.256Z" fill="#4B0082"/>
<path d="M13.5251 157.262C13.2599 157.111 12.8811 157.225 12.7295 157.49C12.578 157.755 12.6916 158.134 12.9568 158.285C13.222 158.437 13.6767 158.323 13.7903 158.02C13.904 157.755 13.7524 157.3 13.4493 157.225" fill="#E0E0E0"/>
<path d="M8.22115 159.345L9.09251 158.436L19.7004 168.589C19.7004 168.589 20.0035 169.271 19.6247 169.574L8.22115 159.345Z" fill="#263238"/>
<path d="M16.8212 161.051C16.7833 161.089 16.4802 160.899 16.0256 160.824C15.6088 160.748 15.23 160.862 15.1921 160.786C15.1542 160.748 15.533 160.483 16.0634 160.558C16.6317 160.634 16.8969 161.013 16.8212 161.051Z" fill="#263238"/>
<path d="M17.5789 162.604C17.541 162.68 17.2 162.566 16.8212 162.604C16.4044 162.642 16.1392 162.869 16.1013 162.831C16.0256 162.794 16.2908 162.415 16.7833 162.377C17.2758 162.301 17.6546 162.566 17.5789 162.604Z" fill="#263238"/>
<path d="M16.9727 164.65C16.8969 164.612 17.0864 164.271 17.5031 164.082C17.9198 163.892 18.2987 164.006 18.2608 164.082C18.2608 164.157 17.9198 164.157 17.5789 164.309C17.2758 164.461 17.0485 164.688 16.9727 164.65Z" fill="#263238"/>
<path d="M17.9577 159.611C17.8819 159.649 17.6925 159.346 17.3515 159.081C17.0106 158.816 16.6696 158.702 16.7075 158.626C16.7075 158.55 17.1242 158.55 17.541 158.891C17.9198 159.194 17.9956 159.573 17.9577 159.611Z" fill="#263238"/>
<path d="M52.2819 73.8765L45.5383 78.3091L45.652 80.0897L47.3947 83.8025C47.3947 83.8025 48.1903 84.5602 50.5771 82.1734C52.9639 79.7487 55.9947 74.9751 55.9947 74.9751L52.2819 73.8765Z" fill="#FFBE9D"/>
<path d="M63.6097 64.6325C63.5339 64.443 63.3824 64.3294 63.1551 64.2915L59.859 63.8369C59.556 63.799 59.2908 63.8748 59.0634 64.0642L49.63 72.2096L50.0467 72.6263L53.6079 73.4977L63.6855 64.784L63.6097 64.6325Z" fill="#263238"/>
<path d="M60.9956 65.3145C61.0335 65.3902 61.185 65.3902 61.2608 65.3145C61.3745 65.2387 61.4123 65.125 61.3745 65.0493C61.3366 64.9735 61.185 64.9735 61.1093 65.0493C60.9956 65.0871 60.9577 65.2008 60.9956 65.3145Z" fill="white"/>
<path d="M63.6855 64.784C63.6855 64.784 63.4582 64.784 63.0414 64.7461C62.5868 64.7082 62.0185 64.6324 61.2987 64.5567C60.9198 64.5188 60.5031 64.443 60.0864 64.4051C59.8969 64.3673 59.6696 64.4051 59.5181 64.5567C59.3286 64.7082 59.1771 64.8598 58.9877 65.0113C58.23 65.6554 57.4344 66.3373 56.563 67.095C54.8582 68.5725 53.267 69.8985 52.1304 70.8457C51.5621 71.3003 51.1075 71.6791 50.7665 71.9822C50.4256 72.2474 50.274 72.399 50.2361 72.3611C50.2361 72.3611 50.3877 72.2095 50.6908 71.9065C51.0317 71.6034 51.4864 71.2245 52.0167 70.732C53.1154 69.747 54.6687 68.421 56.4115 66.9435C57.2828 66.2236 58.0784 65.5038 58.8361 64.8598C59.0256 64.7082 59.215 64.5567 59.3665 64.4051C59.556 64.2536 59.859 64.1778 60.0864 64.2157C60.5031 64.2915 60.9198 64.3294 61.2987 64.4051C62.0185 64.5188 62.5868 64.5946 63.0414 64.6703C63.4582 64.7082 63.6855 64.7461 63.6855 64.784Z" fill="#455A64"/>
<path d="M60.2758 66.451C60.2758 66.451 59.9727 66.2994 59.556 67.1329C59.1392 67.9664 57.889 70.2774 57.889 70.2774L56.4493 68.9514L54.2899 68.6483C54.2899 68.6483 53.7216 68.9514 53.9868 69.2545C54.252 69.5576 55.5022 70.1637 55.5022 70.1637L56.0705 71.8307L53.6837 69.7091C53.6837 69.7091 52.6987 69.7091 52.8123 70.3153C52.926 70.9593 54.2899 73.2703 54.2899 73.2703L52.926 72.7778L51.5621 71.3003C51.5621 71.3003 51.0317 71.1866 51.1075 71.6792C51.1833 72.1717 52.4714 74.2175 52.4714 74.2175L54.2899 75.8087C54.2899 75.8087 55.4643 76.036 55.6537 75.7329C55.8432 75.4298 56.0326 74.9752 56.0326 74.9752C56.0326 74.9752 56.6767 74.9752 56.8661 74.71C57.0555 74.4448 57.1313 73.9523 57.1313 73.9523C57.1313 73.9523 58.0405 74.369 58.3057 73.8765C58.5709 73.384 58.7604 72.3232 58.7982 71.8686C58.7982 71.4518 60.3894 67.777 60.3894 67.6633C60.3137 67.5496 60.9198 66.3752 60.2758 66.451Z" fill="#FFBE9D"/>
<path d="M55.7295 75.733C55.7295 75.7709 55.5022 75.8088 55.1234 75.733C54.7445 75.6951 54.252 75.5436 53.7595 75.2784C53.267 75.0132 52.8881 74.6343 52.6608 74.3691C52.4335 74.066 52.3577 73.8766 52.3577 73.8766C52.3956 73.8387 52.926 74.5964 53.8731 75.1268C54.8203 75.6572 55.7295 75.6572 55.7295 75.733Z" fill="#EB996E"/>
<path d="M55.4264 74.8616C55.3886 74.8995 55.0476 74.5964 54.7445 74.1797C54.4414 73.7629 54.252 73.3462 54.3278 73.3083C54.3656 73.2704 54.6308 73.6114 54.9339 74.0281C55.237 74.4449 55.4643 74.8237 55.4264 74.8616Z" fill="#EB996E"/>
<path d="M57.0176 73.384C56.9797 73.4219 56.6767 73.1188 56.3736 72.7021C56.1084 72.2475 55.9947 71.8307 56.0326 71.8307C56.1084 71.7929 56.2978 72.1717 56.563 72.5885C56.8661 72.9673 57.0934 73.3083 57.0176 73.384Z" fill="#EB996E"/>
<path d="M58.6088 72.2475C58.533 72.2475 58.4573 71.7928 58.23 71.3003C58.0405 70.7699 57.7753 70.3911 57.8511 70.3532C57.889 70.3153 58.23 70.6563 58.4573 71.2246C58.6467 71.755 58.6467 72.2475 58.6088 72.2475Z" fill="#EB996E"/>
<path d="M42.3181 64.9735C39.7419 64.8978 34.3621 57.4722 34.4 54.896L34.5894 39.4766C34.5137 35.3471 36.8626 31.8237 40.9921 31.8616L41.3709 31.8995C45.2352 32.1647 48.2282 35.3471 48.2661 39.1735C48.304 42.7726 48.304 46.7127 48.1524 48.6449C47.8493 52.6229 43.8335 52.9638 43.8335 52.9638C43.8335 52.9638 43.7956 53.8731 43.7577 55.0475C43.6819 57.6616 44.7049 65.0114 42.0908 64.9356L42.3181 64.9735Z" fill="#FFBE9D"/>
<path d="M43.8714 53.0029C43.8714 53.0029 41.3709 52.965 38.7947 51.1465C38.7947 51.1465 39.8176 54.2152 43.8335 54.1016L43.8714 53.0029Z" fill="#EB996E"/>
<path d="M46.9401 42.4679C46.9401 42.771 46.6749 42.9983 46.3718 42.9983C46.0688 42.9983 45.8036 42.7331 45.8414 42.4301C45.8414 42.127 46.1066 41.8997 46.4097 41.8997C46.7128 41.8997 46.978 42.1649 46.9401 42.4679Z" fill="#263238"/>
<path d="M47.3568 40.9163C47.2811 40.9921 46.8643 40.6511 46.2582 40.6132C45.652 40.5753 45.1974 40.8405 45.1216 40.7648C45.0837 40.7269 45.1595 40.6132 45.3868 40.4617C45.5762 40.348 45.9172 40.2344 46.296 40.2344C46.6749 40.2723 46.978 40.4238 47.1674 40.5753C47.319 40.7269 47.3568 40.8784 47.3568 40.9163Z" fill="#263238"/>
<path d="M41.3709 42.318C41.3709 42.6211 41.1057 42.8484 40.8026 42.8484C40.4996 42.8484 40.2344 42.5832 40.2344 42.2802C40.2344 41.9771 40.4996 41.7498 40.8026 41.7498C41.1436 41.7876 41.4088 42.0528 41.3709 42.318Z" fill="#263238"/>
<path d="M41.3709 40.6512C41.2952 40.7269 40.8784 40.386 40.2723 40.3481C39.6661 40.3102 39.2115 40.5754 39.1357 40.4996C39.0978 40.4617 39.1736 40.3481 39.4009 40.1966C39.5903 40.0829 39.9313 39.9692 40.3101 39.9692C40.689 40.0071 40.9921 40.1587 41.1815 40.3102C41.333 40.4617 41.4088 40.6133 41.3709 40.6512Z" fill="#263238"/>
<path d="M43.2273 45.4624C43.2273 45.4245 43.6062 45.3866 44.2123 45.3488C44.3639 45.3488 44.5154 45.3109 44.5533 45.2351C44.5912 45.1214 44.5533 44.9699 44.4775 44.7805C44.3639 44.4016 44.2123 43.9849 44.0987 43.5681C43.5683 41.8254 43.1894 40.4236 43.2652 40.3858C43.341 40.3479 43.8335 41.7496 44.326 43.4924C44.4397 43.9091 44.5533 44.3258 44.7049 44.7047C44.7427 44.8941 44.8564 45.0836 44.7427 45.3109C44.7049 45.4245 44.5912 45.5003 44.4775 45.5382C44.3639 45.5761 44.2881 45.5761 44.2123 45.5761C43.6062 45.5382 43.2273 45.5003 43.2273 45.4624Z" fill="#263238"/>
<path d="M41.4467 38.3793C41.3709 38.5309 40.7648 38.3415 40.0449 38.2657C39.3251 38.1899 38.719 38.2657 38.6432 38.1141C38.6053 38.0384 38.7568 37.8868 39.022 37.8111C39.2872 37.6974 39.6661 37.6216 40.1207 37.6595C40.5375 37.6974 40.9163 37.8489 41.1436 38.0005C41.4088 38.152 41.4846 38.3036 41.4467 38.3793Z" fill="#263238"/>
<path d="M47.2811 39.4767C47.1295 39.5903 46.6749 39.4388 46.0687 39.4009C45.4626 39.363 44.97 39.4388 44.8564 39.2872C44.8185 39.2115 44.8943 39.0978 45.1216 38.9463C45.3489 38.8326 45.7278 38.7568 46.1445 38.7568C46.5612 38.7947 46.9022 38.9463 47.0916 39.0978C47.2811 39.2493 47.3568 39.4009 47.2811 39.4767Z" fill="#263238"/>
<path d="M34.741 42.4696C34.6652 42.4317 32.089 41.4846 31.9753 44.2123C31.8617 46.9401 34.6273 46.4476 34.6273 46.3718C34.6273 46.2581 34.741 42.4696 34.741 42.4696Z" fill="#FFBE9D"/>
<path d="M33.8317 45.311C33.8317 45.311 33.7938 45.3489 33.7181 45.3868C33.6423 45.4247 33.4908 45.4247 33.3771 45.3868C33.1119 45.2732 32.8846 44.8185 32.8846 44.326C32.8846 44.0608 32.9604 43.8335 33.0361 43.6441C33.1119 43.4547 33.2634 43.3031 33.415 43.3031C33.5665 43.2652 33.6423 43.3789 33.6802 43.4547C33.7181 43.5304 33.6802 43.5683 33.7181 43.6062C33.7181 43.6062 33.7938 43.5683 33.756 43.4547C33.756 43.4168 33.7181 43.341 33.6423 43.2652C33.5665 43.2273 33.4908 43.1895 33.3771 43.1895C33.1498 43.1895 32.9604 43.3789 32.8846 43.6062C32.7709 43.8335 32.6952 44.0608 32.6952 44.3639C32.6952 44.8943 32.9604 45.4247 33.3392 45.5762C33.5286 45.6141 33.6802 45.5762 33.756 45.5384C33.8317 45.3489 33.8317 45.311 33.8317 45.311Z" fill="#EB996E"/>
<path d="M41.5225 45.7647C41.4846 45.7647 41.4467 45.9163 41.5225 46.1436C41.5604 46.3709 41.7119 46.7119 41.9771 46.9392C42.2423 47.2044 42.5454 47.318 42.7727 47.4317C43 47.5075 43.1137 47.5454 43.1516 47.5075C43.1516 47.4696 43.0758 47.3938 42.8864 47.2423C42.6969 47.1286 42.4317 46.9392 42.2044 46.7498C41.7119 46.2951 41.6361 45.7269 41.5225 45.7647Z" fill="#263238"/>
<path d="M21.822 93.0088L20.0793 103.958L21.3674 112.974L21.4053 114.945L22.6934 124.567C22.6934 124.567 22.2009 133.66 21.9736 135.63C21.7463 137.6 22.5797 165.37 22.5797 165.37L31.4071 164.991C31.4071 164.991 34.741 123.81 34.741 123.355C34.741 122.9 39.3251 92.5542 39.3251 92.5542L21.822 93.0088Z" fill="#CAB1DC"/>
<path d="M44.1366 94.6756C44.1366 94.6756 43.9471 131.69 43.1516 133.811C42.3181 135.933 19.1322 158.967 19.1322 158.967L11.7824 153.247L30.5357 127.977L31.6723 92.7056L44.1366 94.6756Z" fill="#CAB1DC"/>
<path d="M37.9991 104.337C38.037 104.337 36.9383 113.694 35.5366 125.212C34.1348 136.729 32.9604 146.049 32.8846 146.049C32.8467 146.049 33.9454 136.691 35.3471 125.174C36.7489 113.694 37.9234 104.337 37.9991 104.337Z" fill="#455A64"/>
<path d="M22.6934 124.567C22.6934 124.567 22.6934 124.605 22.6934 124.643C22.6934 124.719 22.6934 124.795 22.6934 124.908C22.6934 125.174 22.6555 125.515 22.6176 125.931C22.5419 126.803 22.4661 128.129 22.3524 129.72C22.163 132.902 22.0115 137.335 22.0493 142.184C22.0872 147.071 22.2388 151.466 22.3145 154.648C22.3524 156.24 22.3903 157.528 22.3903 158.437C22.3903 158.854 22.3903 159.233 22.3903 159.46C22.3903 159.574 22.3903 159.649 22.3903 159.725C22.3903 159.801 22.3903 159.801 22.3903 159.801C22.3903 159.801 22.3903 159.763 22.3903 159.725C22.3903 159.649 22.3903 159.574 22.3903 159.46C22.3903 159.195 22.3524 158.854 22.3524 158.437C22.3145 157.528 22.2767 156.24 22.2009 154.648C22.0872 151.466 21.8978 147.033 21.8978 142.146C21.8599 137.259 22.0115 132.864 22.2388 129.682C22.3524 128.091 22.4661 126.803 22.5419 125.893C22.5797 125.477 22.6176 125.136 22.6555 124.87C22.6555 124.757 22.6934 124.681 22.6934 124.605V124.567Z" fill="#455A64"/>
<path d="M31.6344 103.579C31.6723 103.617 30.0432 104.488 28.0352 105.473C26.0273 106.458 24.3982 107.254 24.3604 107.216C24.3225 107.178 25.9515 106.307 27.9595 105.321C29.9674 104.299 31.5965 103.541 31.6344 103.579Z" fill="#455A64"/>
<path d="M49.4405 74.9375L53.8731 78.9155C53.8731 78.9155 46.9401 86.4926 44.7806 88.1595C42.6212 89.8265 45.4626 76.7181 45.4626 76.7181L49.4405 74.9375Z" fill="#4B0082"/>
<path d="M34.3621 51.2212L32.5057 53.7595L25.3075 56.4115L22.0493 80.8097L20.0414 102.67C20.0414 102.67 22.9207 98.578 25.1181 98.5022C27.3154 98.4265 38.4537 101.571 39.2115 102.139L40.689 97.2141L41.8634 102.935C41.8634 102.935 43.9471 103.389 45.0458 100.283L44.5912 89.4476C44.5912 89.4476 46.0687 69.8987 45.993 66.9815C45.9172 64.0265 43.9093 55.8432 43.9093 55.8432L43.1515 58.2679L36.6731 52.7366L34.3621 51.2212Z" fill="#4B0082"/>
<path d="M27.4291 55.6917C27.4291 55.6917 22.6934 55.6917 21.178 64.4053C19.6626 73.1568 17.4652 82.5146 18.6018 86.0379C19.7383 89.5613 24.1709 99.6388 24.1709 99.6388L30.2326 97.4414L27.7322 81.5674L30.6115 66.0344C30.6115 66.0723 30.9524 56.3357 27.4291 55.6917Z" fill="#4B0082"/>
<path d="M32.8467 100.965C32.8467 100.965 29.9674 97.5551 29.7401 97.6309L24.9286 99.3736C24.9286 99.3736 24.7392 101.078 24.9665 103.086C25.156 104.867 25.459 106.761 25.459 106.761L31.7859 103.389C31.7859 103.389 32.0511 104.715 32.3921 105.435C32.733 106.155 33.9833 105.397 33.9833 105.397L32.8467 100.965Z" fill="#FFBE9D"/>
<path d="M30.6115 66.0721C30.6115 66.0721 30.6115 66.1857 30.5736 66.3373C30.5357 66.5267 30.4978 66.7919 30.422 67.1329C30.3084 67.8527 30.1189 68.9135 29.8538 70.2395C29.3612 72.9293 28.6414 76.8315 27.7701 81.5672V81.5293C28.4899 86.0377 29.3234 91.4553 30.2705 97.4033V97.4791L30.1947 97.517C28.2626 98.2368 26.2167 98.9567 24.133 99.7144L24.0573 99.7522L24.0194 99.6765C23.4132 98.2368 22.7313 96.7214 22.0872 95.206C20.9128 92.4403 19.8141 89.7884 18.8291 87.1364C18.7154 86.7954 18.6018 86.4544 18.4881 86.1514C18.4502 85.9998 18.4123 85.8104 18.3745 85.621C18.3366 85.4315 18.2987 85.28 18.2608 85.0906C18.2229 84.7496 18.185 84.4086 18.185 84.0677C18.185 83.7267 18.1471 83.3857 18.185 83.0448C18.2229 81.6809 18.3366 80.3549 18.526 79.0668C18.867 76.4906 19.3216 74.1038 19.7383 71.8307C20.1551 69.5575 20.5339 67.4738 20.9128 65.5417C21.0643 64.5945 21.2537 63.6853 21.4432 62.8139C21.5568 62.3972 21.6705 61.9804 21.7841 61.5637C21.9357 61.1848 22.0872 60.806 22.2009 60.4271C22.8071 58.9875 23.5648 57.8509 24.3982 57.0932C25.1938 56.3355 25.9894 55.9567 26.5577 55.8051C26.8229 55.7293 27.0502 55.6914 27.2018 55.6536C27.2775 55.6536 27.3154 55.6536 27.3533 55.6536C27.3912 55.6536 27.3912 55.6536 27.3912 55.6536C27.3912 55.6536 27.3154 55.6536 27.1639 55.6915C27.0123 55.7293 26.785 55.7672 26.5198 55.843C25.9894 56.0324 25.1938 56.4113 24.3982 57.169C23.6026 57.9267 22.8449 59.0254 22.2767 60.465C22.163 60.8439 22.0115 61.1848 21.8599 61.6016C21.7463 61.9804 21.6326 62.3972 21.5189 62.8139C21.3295 63.6853 21.1401 64.5945 20.9886 65.5417C20.6476 67.4738 20.2687 69.5575 19.852 71.8307C19.4352 74.1038 18.9806 76.4906 18.6775 79.0668C18.526 80.3549 18.3745 81.6809 18.3366 83.0069C18.3366 83.3478 18.3366 83.6888 18.3366 84.0298C18.3366 84.3707 18.3745 84.7117 18.4123 85.0527C18.4123 85.2421 18.4502 85.3937 18.4881 85.5452C18.526 85.6967 18.5639 85.8862 18.6018 86.0377C18.7154 86.3787 18.8291 86.6818 18.9427 87.0227C19.9278 89.6747 21.0643 92.3267 22.2009 95.0923C22.8449 96.6077 23.5269 98.1232 24.133 99.5628L24.0194 99.5249C26.1031 98.7672 28.1489 98.0474 30.0811 97.3276L30.0053 97.4412C29.096 91.4932 28.2247 86.1135 27.5427 81.5672C28.452 76.7937 29.1718 72.9293 29.6643 70.2395C29.9295 68.9135 30.1189 67.8527 30.2705 67.1329C30.3463 66.7919 30.3841 66.5267 30.422 66.3373C30.5736 66.1478 30.6115 66.0721 30.6115 66.0721Z" fill="#263238"/>
<path d="M43.1515 58.23C43.1515 58.23 43.1137 58.3437 43 58.571C42.8863 58.7983 42.7348 59.1014 42.5454 59.4424C42.1286 60.238 41.5982 61.2609 40.9542 62.5111L40.8784 62.6248L40.8026 62.5111C40.2344 61.7534 39.5903 60.882 38.8705 60.0485C37.4687 58.3816 36.1049 56.9419 35.0441 55.9569C34.5137 55.4644 34.0969 55.0855 33.7938 54.7825C33.4908 54.5173 33.3392 54.3657 33.3392 54.3657C33.3392 54.3657 33.5286 54.4794 33.8317 54.7446C34.1348 55.0098 34.5894 55.3886 35.1198 55.8811C36.1806 56.8662 37.5824 58.2679 38.9841 59.9349C39.704 60.8063 40.348 61.6397 40.9163 62.4353H40.7648C41.4088 61.223 41.9771 60.1622 42.3938 59.4045C42.5833 59.0635 42.7348 58.7604 42.8863 58.5331C43.0758 58.3058 43.1137 58.23 43.1515 58.23Z" fill="#263238"/>
<path d="M44.7427 59.5181C44.8185 59.4802 45.1216 60.6168 44.8943 62.0943L44.8564 62.3595L44.7427 62.1322C44.667 62.0185 44.5912 61.867 44.5533 61.7154C44.2123 60.9577 44.0229 60.2 43.8335 59.7075C43.6441 59.215 43.4925 58.9119 43.5304 58.874C43.5683 58.874 43.7577 59.1392 43.9471 59.6317C44.1745 60.1242 44.3639 60.8441 44.7049 61.6018C44.7806 61.7533 44.8185 61.867 44.8943 61.9806L44.7427 62.0185C44.8564 61.3366 44.8564 60.6925 44.8185 60.2379C44.7806 59.7833 44.7048 59.5181 44.7427 59.5181Z" fill="#263238"/>
<path d="M43.4546 59.4802C43.4546 59.4802 43.4546 59.5181 43.4546 59.5939C43.4546 59.6697 43.4546 59.7454 43.4546 59.897C43.4546 60.1622 43.4546 60.5031 43.4546 60.9956C43.4546 61.9428 43.4167 63.3445 43.3031 65.0494C43.1137 68.4591 42.6969 73.1948 42.2802 78.3851C41.8256 83.5754 41.4467 88.2732 41.1436 91.7208C40.9921 93.4256 40.8784 94.7895 40.7648 95.7745C40.7269 96.2291 40.689 96.608 40.6511 96.8732C40.6511 96.9868 40.6132 97.1005 40.6132 97.1763C40.6132 97.252 40.6132 97.2899 40.6132 97.2899C40.6132 97.2899 40.6132 97.252 40.6132 97.1763C40.6132 97.1005 40.6132 97.0247 40.6132 96.8732C40.6132 96.608 40.6511 96.2291 40.689 95.7745C40.7648 94.7895 40.8784 93.4256 40.9921 91.7208C41.2573 88.3111 41.6361 83.5754 42.0908 78.3851C42.5075 73.1948 42.9621 68.4591 43.1515 65.0494C43.2652 63.3445 43.341 61.9428 43.341 60.9956C43.341 60.541 43.3789 60.1622 43.3789 59.897C43.3789 59.7833 43.3789 59.6697 43.3789 59.5939C43.4546 59.5181 43.4546 59.4802 43.4546 59.4802Z" fill="#263238"/>
<path d="M45.993 67.9666C46.0308 67.9666 45.7656 72.8159 45.3868 78.7639C45.0079 84.7119 44.667 89.5234 44.5912 89.5234C44.5533 89.5234 44.8185 84.674 45.1974 78.726C45.5762 72.778 45.9551 67.9666 45.993 67.9666Z" fill="#263238"/>
<path d="M31.7859 62.132C31.748 62.132 31.748 61.6774 31.5965 61.0333C31.4449 60.3514 31.0282 59.48 30.3463 58.6844C29.6264 57.8888 28.7551 57.4342 28.111 57.2069C27.467 56.9796 27.0123 56.9417 27.0123 56.9038C27.0123 56.9038 27.126 56.9038 27.3154 56.9038C27.5049 56.9417 27.8079 56.9796 28.1489 57.0932C28.8308 57.2827 29.7401 57.7373 30.4599 58.5708C31.2176 59.3664 31.5586 60.3135 31.7101 60.9954C31.7859 61.3364 31.8238 61.6395 31.8238 61.8289C31.8238 62.0183 31.7859 62.132 31.7859 62.132Z" fill="#263238"/>
<g opacity="0.3">
<g opacity="0.3">
<path opacity="0.3" d="M44.8564 88.0457C46.1824 84.4466 46.4097 80.4686 45.5383 76.7559C45.311 80.5444 45.0837 84.3329 44.8564 88.1594" fill="black"/>
</g>
</g>
<g opacity="0.3">
<g opacity="0.3">
<path opacity="0.3" d="M30.3463 67.436C28.793 75.5056 27.5427 83.1964 27.6943 82.1356L30.1947 97.4792L31.6723 99.6766C30.422 89.3338 29.3612 77.6651 30.3463 67.436Z" fill="black"/>
</g>
</g>
<path d="M51.1454 34.5898C51.1075 34.0594 50.8044 33.5669 50.3498 33.3396C50.3498 33.1881 50.3498 33.0365 50.3498 32.885C50.2361 31.9757 49.4026 31.1801 48.4934 31.1422C48.3797 30.4224 47.8872 29.8163 47.2053 29.5511C46.5234 29.3237 45.7278 29.4753 45.2352 29.9678C44.5912 29.3237 43.5683 29.1343 42.7348 29.4374C42.6212 29.4753 42.5075 29.5511 42.4696 29.6268C42.4317 29.7026 42.3938 29.7784 42.4317 29.8541C42.2044 29.4374 41.7877 29.1343 41.2952 29.0964C41.1436 29.0964 40.9542 29.0964 40.8026 29.1343C40.3859 29.1343 39.9313 29.3237 39.6661 29.6268C38.6053 29.1722 37.2414 29.6647 36.711 30.6876C35.8018 30.6876 34.9304 31.2559 34.6273 32.0894C34.059 32.0894 33.4908 32.4304 33.2256 32.9229C32.9604 33.4154 32.9604 34.0594 33.2634 34.5519C33.2634 34.5519 31.3313 34.855 31.7101 36.5978C31.8996 37.4691 33.074 37.4312 33.074 37.4312L34.1348 43.0383C34.0969 43.0762 34.4379 43.7202 34.7789 43.6066C35.1198 43.4929 35.3093 43.1519 35.5366 42.8867C35.7639 42.5458 36.067 42.2427 36.1806 41.8638C36.2943 41.485 36.2185 40.9925 35.8775 40.7652C36.37 40.6515 36.711 40.1969 36.8247 39.7044C36.9383 39.2119 36.9004 38.7193 36.8247 38.2268C36.7489 37.507 36.6731 36.7872 36.5974 36.0295C37.5824 36.0674 38.5674 35.537 39.0599 34.6656C39.7419 35.2718 40.9163 35.0445 41.3709 34.2867C41.6361 35.2718 42.7348 35.9537 43.7577 35.7264C43.6062 36.2947 44.5912 36.863 45.1216 37.0524C45.652 37.2418 46.3718 36.9008 46.3718 36.9008C46.3718 36.9008 46.9401 37.2797 47.4326 37.3555C47.4705 37.3555 47.4705 37.3555 47.5084 37.3555C48.2661 37.4691 49.0617 36.8251 49.4784 36.181C49.6678 36.2189 49.8573 36.2189 50.0846 36.1431C50.6529 35.9537 51.1454 35.2718 51.1454 34.5898Z" fill="#263238"/>
<path d="M28.9824 75.2784C28.9824 75.3163 28.4899 75.089 27.6564 74.748C26.8229 74.407 25.6864 73.9903 24.3982 73.6114C23.1101 73.2705 21.8978 73.0432 21.0264 72.8916C20.1551 72.778 19.6247 72.7022 19.6247 72.6643C19.6247 72.6643 19.7762 72.6643 20.0035 72.6643C20.2687 72.6643 20.6097 72.7022 21.0643 72.7401C21.9357 72.8537 23.148 73.0432 24.474 73.3841C25.8 73.763 26.9366 74.1797 27.7322 74.5586C28.1489 74.748 28.452 74.8995 28.6793 75.0132C28.9066 75.2026 29.0203 75.2784 28.9824 75.2784Z" fill="white"/>
<path d="M25.5348 98.9947C25.5348 98.9947 25.4969 98.9568 25.4969 98.881C25.459 98.8053 25.4212 98.6916 25.3833 98.578C25.2696 98.3128 25.1181 97.9339 24.9286 97.4414C24.5498 96.4564 23.9815 94.9788 23.3753 93.1603C22.7692 91.3418 22.0872 89.1445 21.6326 86.644C21.4053 85.3938 21.2159 84.0678 21.1401 82.7039C21.0643 81.3401 21.1022 79.9004 21.2538 78.4229C21.5568 75.5057 22.2009 72.778 22.7692 70.3154C23.3375 67.8528 23.9436 65.6555 24.4361 63.7991C24.9286 61.9427 25.3833 60.4652 25.6864 59.4423C25.8379 58.9498 25.9516 58.533 26.0652 58.2678C26.1031 58.1542 26.141 58.0405 26.1789 57.9647C26.2167 57.889 26.2167 57.8511 26.2167 57.8511C26.2167 57.8511 26.2167 57.889 26.1789 57.9647C26.141 58.0405 26.141 58.1542 26.1031 58.2678C26.0273 58.5709 25.9137 58.9498 25.7621 59.4423C25.459 60.4652 25.0423 61.9806 24.5498 63.7991C24.0573 65.6555 23.489 67.8528 22.9207 70.3154C22.3524 72.778 21.7084 75.5057 21.4432 78.4229C21.2916 79.8625 21.2538 81.3022 21.3295 82.6661C21.4053 84.0299 21.5568 85.3559 21.7841 86.6061C22.2388 89.1066 22.8828 91.2661 23.489 93.0846C24.0952 94.9031 24.6256 96.3427 24.9665 97.3656C25.156 97.8581 25.2696 98.237 25.3833 98.5401C25.4212 98.6537 25.459 98.7674 25.4969 98.8431C25.5348 98.9568 25.5348 98.9568 25.5348 98.9947Z" fill="white"/>
<path d="M28.3762 87.5912C28.3762 87.5912 28.2626 87.667 28.0731 87.7428C27.8837 87.8185 27.5806 87.9322 27.2018 88.0837C26.4819 88.3489 25.459 88.652 24.2846 88.8793C23.1101 89.1066 22.0493 89.2203 21.2916 89.2582C20.9128 89.2961 20.6097 89.2961 20.3824 89.2961C20.1551 89.2961 20.0414 89.2961 20.0414 89.2582C20.0414 89.2203 20.5339 89.1824 21.2916 89.1066C22.0493 89.0309 23.1101 88.9172 24.2846 88.6899C25.4211 88.4626 26.4441 88.1974 27.2018 87.9701C27.9216 87.7049 28.3762 87.5533 28.3762 87.5912Z" fill="white"/>
<path d="M31.5965 63.5716C31.5586 63.6095 31.2555 63.117 30.6493 62.473C30.3463 62.132 29.9295 61.791 29.4749 61.4501C28.9824 61.1091 28.4141 60.7681 27.8079 60.465C27.1639 60.162 26.5577 59.9725 25.9894 59.821C25.4211 59.7073 24.8908 59.5937 24.4361 59.5937C23.5269 59.5179 22.9586 59.5937 22.9586 59.5558C22.9586 59.5558 23.1101 59.5179 23.3374 59.48C23.4511 59.4421 23.6026 59.4421 23.7921 59.4421C23.9815 59.4421 24.1709 59.4042 24.3982 59.4421C24.8529 59.4421 25.3833 59.5179 25.9894 59.6316C26.5956 59.7831 27.2397 59.9725 27.8458 60.2756C28.4899 60.5787 29.0582 60.9197 29.5507 61.2985C30.0432 61.6774 30.422 62.0562 30.7251 62.3972C30.8767 62.5487 30.9903 62.7382 31.104 62.8897C31.2176 63.0413 31.2934 63.1549 31.3692 63.2686C31.5586 63.4201 31.6344 63.5716 31.5965 63.5716Z" fill="white"/>
<path d="M34.8546 100.321C34.8546 100.321 34.8546 100.283 34.8546 100.207C34.8546 100.131 34.8546 99.9799 34.8546 99.8663C34.8546 99.5253 34.8546 99.0707 34.8546 98.5024C34.8546 97.2901 34.8925 95.5473 34.9304 93.4258C35.0062 89.1447 35.1198 83.2346 35.2335 76.7183C35.3093 73.4601 35.3471 70.3535 35.2335 67.5121C35.1956 66.1103 35.0819 64.7465 34.9683 63.4962C34.8546 62.246 34.6652 61.0716 34.4 60.0487C34.1348 59.0258 33.7181 58.1165 33.2634 57.4346C32.8088 56.7147 32.2784 56.1843 31.8238 55.8055C31.3692 55.4266 30.9524 55.1993 30.6493 55.0857C30.3463 54.972 30.1947 54.8962 30.1947 54.8962C30.1947 54.8962 30.3463 54.9341 30.6493 55.0478C30.9524 55.1614 31.3692 55.3888 31.8238 55.7297C32.3163 56.1086 32.8088 56.639 33.3013 57.3588C33.7938 58.0786 34.1727 58.9879 34.4758 60.0108C34.7789 61.0337 34.9304 62.2081 35.0819 63.4584C35.1956 64.7086 35.3093 66.0725 35.3471 67.4742C35.4608 70.3156 35.4229 73.4222 35.3471 76.6804C35.1956 83.1967 35.0819 89.1068 34.9683 93.3879C34.9304 95.5095 34.8546 97.2522 34.8546 98.4645C34.8167 99.0707 34.8167 99.5253 34.8167 99.8284C34.8167 99.9799 34.8167 100.094 34.8167 100.169C34.8546 100.283 34.8546 100.321 34.8546 100.321Z" fill="white"/>
<path d="M40.9542 92.2511C40.9542 92.2511 40.7648 92.2511 40.4617 92.2132C40.1586 92.1754 39.704 92.0996 39.1736 92.0238C38.0749 91.8344 36.5974 91.5692 34.9304 91.2282C33.2634 90.8873 31.7859 90.5463 30.7251 90.2811C30.1947 90.1674 29.7401 90.0538 29.4749 89.9401C29.1718 89.8643 29.0203 89.7886 29.0203 89.7886C29.0203 89.7886 29.2097 89.7886 29.5128 89.8643C29.8538 89.9401 30.2705 90.0159 30.8009 90.1295C31.9375 90.3569 33.415 90.6599 35.0441 91.0009C36.6731 91.3419 38.1507 91.645 39.2872 91.8723C39.7797 91.9859 40.2344 92.0617 40.5753 92.1375C40.8026 92.1754 40.9542 92.2511 40.9542 92.2511Z" fill="white"/>
<path d="M41.9771 78.6502C41.9771 78.6881 38.9463 78.5366 35.1956 78.2335C31.4449 77.9683 28.4141 77.6652 28.4141 77.6273C28.4141 77.5894 31.4449 77.741 35.1956 78.044C38.9463 78.3471 42.015 78.6123 41.9771 78.6502Z" fill="white"/>
<path d="M43 66.7164C43 66.7164 42.8106 66.7543 42.5075 66.7922C42.2044 66.8301 41.7498 66.868 41.1815 66.868C40.0449 66.9438 38.4916 66.9816 36.7489 66.9438C35.0062 66.9438 33.4529 66.868 32.3163 66.7922C31.748 66.7543 31.2934 66.7164 30.9903 66.6786C30.6872 66.6407 30.4978 66.6407 30.4978 66.6028C30.4978 66.6028 30.6872 66.6028 30.9903 66.6028C31.3313 66.6028 31.7859 66.6407 32.3163 66.6407C33.4529 66.6786 35.0062 66.7164 36.7489 66.7164C38.4538 66.7164 40.0449 66.7164 41.1815 66.6786C41.7119 66.6786 42.1665 66.6786 42.5075 66.6407C42.8106 66.6786 43 66.6786 43 66.7164Z" fill="white"/>
<path d="M34.9304 55.5401C34.9304 55.578 34.5894 55.6159 34.0212 55.7674C33.4529 55.8811 32.6952 56.0705 31.8617 56.3357C31.0282 56.6009 30.3084 56.904 29.778 57.1313C29.2476 57.3586 28.9445 57.5101 28.9066 57.4723C28.9066 57.4344 29.2097 57.2449 29.7022 56.9798C30.2326 56.7146 30.9524 56.4115 31.7859 56.1084C32.6194 55.8432 33.415 55.6916 33.9833 55.578C34.5515 55.5401 34.9304 55.5022 34.9304 55.5401Z" fill="white"/>
<path d="M42.5075 59.8214C42.5075 59.8214 42.356 59.7077 42.1665 59.5183C41.9392 59.291 41.6361 58.9879 41.2573 58.6469C40.4996 57.9271 39.4388 56.9421 38.2264 55.8813C37.0141 54.8205 35.9154 53.8733 35.0819 53.2293C34.7031 52.9262 34.3621 52.661 34.1348 52.4337C33.9075 52.2443 33.7938 52.1306 33.7938 52.1306C33.7938 52.1306 33.9454 52.2064 34.1727 52.3958C34.4 52.5474 34.741 52.8126 35.1956 53.1535C36.0291 53.7976 37.1656 54.7068 38.378 55.7676C39.5903 56.8284 40.6511 57.8513 41.3709 58.609C41.7498 58.9879 42.0529 59.291 42.2423 59.5183C42.4317 59.6698 42.5075 59.8214 42.5075 59.8214Z" fill="white"/>
<path d="M40.0449 55.7296C40.0828 55.7675 39.5524 56.4115 38.9084 57.1313C38.2264 57.889 37.6582 58.4573 37.6203 58.4194C37.5824 58.3816 38.1128 57.7375 38.7568 57.0177C39.4009 56.26 39.9692 55.6917 40.0449 55.7296Z" fill="white"/>
<path d="M45.993 66.9058C45.993 66.9437 45.3489 66.9058 44.5912 66.868C43.8335 66.8301 43.1894 66.8301 43.1894 66.7922C43.1894 66.7543 43.7956 66.6406 44.5912 66.6785C45.3868 66.7164 45.993 66.868 45.993 66.9058Z" fill="white"/>
<path d="M45.0837 79.5595C45.0837 79.5973 44.4397 79.6352 43.6819 79.6352C42.8863 79.6352 42.2802 79.5595 42.2802 79.5216C42.2802 79.4837 42.9242 79.4458 43.6819 79.4458C44.4397 79.4458 45.0837 79.5216 45.0837 79.5595Z" fill="white"/>
<path d="M44.8185 62.3594C44.8185 62.3594 44.8185 62.3973 44.8185 62.473C44.8185 62.5488 44.8185 62.6625 44.8185 62.7761C44.8185 63.0413 44.8185 63.4581 44.8185 63.9506C44.8185 64.4431 44.8185 65.0871 44.8185 65.8069C44.8185 66.5268 44.7806 67.3603 44.7806 68.2695C44.667 71.9065 44.3639 76.8695 43.985 82.4008C43.6062 87.9321 43.2652 92.8951 43.1137 96.5321C43.0758 97.4413 43.0379 98.2369 43.0379 98.9567C43 99.6766 43 100.283 43 100.813C43 101.306 43 101.684 42.9621 101.988C42.9621 102.101 42.9621 102.215 42.9621 102.291C42.9621 102.366 42.9621 102.404 42.9621 102.404C42.9621 102.404 42.9621 102.366 42.9621 102.291C42.9621 102.215 42.9621 102.101 42.9621 101.988C42.9621 101.722 42.9621 101.306 42.9621 100.813C42.9621 100.321 42.9621 99.6766 42.9621 98.9567C42.9621 98.2369 43 97.4034 43 96.4942C43.1137 92.8572 43.4167 87.8942 43.7956 82.3629C44.1745 76.8695 44.5154 71.8686 44.667 68.2316C44.7048 67.3224 44.7427 66.5268 44.7427 65.8069C44.7806 65.0871 44.7806 64.481 44.7806 63.9506C44.7806 63.4581 44.7806 63.0792 44.8185 62.7761C44.8185 62.6625 44.8185 62.5488 44.8185 62.473C44.8185 62.3973 44.8185 62.3594 44.8185 62.3594Z" fill="white"/>
<path d="M44.6291 92.1756C44.6291 92.2134 43.8335 92.4029 42.8485 92.5923C41.8634 92.7817 41.03 92.8954 41.03 92.8196C41.03 92.7817 41.8256 92.5923 42.8106 92.4029C43.8335 92.2513 44.6291 92.1377 44.6291 92.1756Z" fill="white"/>
<path d="M51.7894 77.2484C51.7894 77.2863 51.4106 77.5136 50.8044 77.8924C50.1982 78.2713 49.3269 78.8396 48.4176 79.4457C47.5084 80.0898 46.6749 80.696 46.1066 81.1506C45.5383 81.6052 45.1595 81.8704 45.1595 81.8704C45.1595 81.8325 45.4626 81.5294 46.0308 81.0748C46.5991 80.5823 47.3947 79.9761 48.304 79.3321C49.2132 78.688 50.0846 78.1576 50.7286 77.8167C51.3727 77.3999 51.7894 77.2105 51.7894 77.2484Z" fill="white"/>
<path d="M50.5771 82.3251C50.5392 82.3251 50.3498 81.9842 50.0467 81.4538C49.7436 80.9234 49.289 80.1657 48.7965 79.3701C48.304 78.5745 47.8115 77.8546 47.4705 77.3242C47.1295 76.7939 46.9022 76.4908 46.9401 76.4529C46.978 76.4529 47.2053 76.7181 47.5841 77.2106C47.963 77.7031 48.4555 78.4229 48.9859 79.2185C49.4784 80.0141 49.8952 80.8097 50.1982 81.3401C50.4634 81.9463 50.5771 82.2872 50.5771 82.3251Z" fill="white"/>
<path d="M161.506 171.697C161.506 171.735 125.439 171.811 80.9991 171.811C36.5216 171.811 0.492519 171.773 0.492519 171.697C0.492519 171.621 36.5216 171.583 80.9991 171.583C125.439 171.583 161.506 171.621 161.506 171.697Z" fill="#263238"/>
</g>
<defs>
<clipPath id="clip0_53_332">
<rect width="161.506" height="172" fill="white"/>
</clipPath>
</defs>
</svg>
