<svg width="42" height="42" viewBox="0 0 42 42" fill="none" xmlns="http://www.w3.org/2000/svg">
<path d="M21 42C32.598 42 42 32.598 42 21C42 9.40202 32.598 0 21 0C9.40202 0 0 9.40202 0 21C0 32.598 9.40202 42 21 42Z" fill="#4B0082"/>
<path d="M31.452 25.2483L30.478 29.4703C30.4128 29.7595 30.2507 30.0177 30.0187 30.2021C29.7866 30.3865 29.4984 30.4861 29.202 30.4843C24.1224 30.4787 19.2523 28.4584 15.6603 24.8667C12.0684 21.2749 10.0478 16.405 10.042 11.3253C10.04 11.0287 10.1395 10.7403 10.3239 10.508C10.5084 10.2758 10.7667 10.1135 11.056 10.0483L15.278 9.07628C15.5773 9.00757 15.8913 9.04587 16.1653 9.18452C16.4393 9.32317 16.6561 9.55342 16.778 9.83528L18.725 14.3793C18.8359 14.6402 18.8592 14.9301 18.7914 15.2054C18.7236 15.4807 18.5684 15.7266 18.349 15.9063L16.094 17.7163C17.5216 20.6197 19.8706 22.9687 22.774 24.3963L24.62 22.1433C24.7985 21.9224 25.0445 21.7661 25.3202 21.6982C25.596 21.6303 25.8864 21.6546 26.147 21.7673L30.691 23.7153C30.9665 23.8543 31.1894 24.0788 31.3266 24.3551C31.4638 24.6315 31.5078 24.9448 31.452 25.2483Z" fill="white"/>
</svg>
