<svg width="22" height="24" viewBox="0 0 22 24" fill="none" xmlns="http://www.w3.org/2000/svg">
<g clip-path="url(#clip0_43_3248)">
<path d="M16.2262 15.3721C19.0157 13.8404 21.1304 12.6733 21.3127 12.5825C21.8957 12.2725 22.4979 11.4518 21.3127 10.8143C20.93 10.6138 18.8696 9.48302 16.2262 8.02475L12.5616 11.7256L16.2262 15.372V15.3721Z" fill="#FFD900"/>
<path d="M12.5616 11.7256L0.89328 23.4856C1.16716 23.5219 1.47637 23.4492 1.84091 23.2488C2.60627 22.8299 10.7198 18.399 16.2262 15.3729L12.5616 11.7256Z" fill="#F43249"/>
<path d="M12.5616 11.7256L16.2262 8.04297C16.2262 8.04297 2.66162 0.640223 1.84092 0.203231C1.53172 0.0200981 1.18522 -0.0343003 0.875153 0.0200981L12.5616 11.7256Z" fill="#00EE76"/>
<path d="M12.5616 11.7257L0.875102 0.0201111C0.400812 0.129767 0 0.548799 0 1.40577V22.0999C0 22.8843 0.310148 23.4492 0.893234 23.5037L12.5616 11.7257Z" fill="#00D3FF"/>
</g>
<defs>
<clipPath id="clip0_43_3248">
<rect width="22" height="23.5469" fill="white"/>
</clipPath>
</defs>
</svg>
