<svg width="42" height="42" viewBox="0 0 42 42" fill="none" xmlns="http://www.w3.org/2000/svg">
<path d="M21 42C9.40313 42 0 32.5969 0 21C0 9.40313 9.40313 0 21 0C32.5969 0 42 9.40313 42 21C42 32.5969 32.5969 42 21 42ZM27.7547 20.6766L17.5172 13.2281C17.4611 13.1878 17.3949 13.1637 17.326 13.1585C17.2571 13.1534 17.1881 13.1673 17.1265 13.1988C17.065 13.2303 17.0134 13.2781 16.9773 13.337C16.9411 13.396 16.922 13.4637 16.9219 13.5328V28.4203C16.9216 28.4896 16.9406 28.5575 16.9766 28.6167C17.0127 28.6758 17.0644 28.7238 17.126 28.7554C17.1877 28.7869 17.2568 28.8008 17.3259 28.7954C17.3949 28.7901 17.4611 28.7657 17.5172 28.725L27.7547 21.2812C27.8031 21.247 27.8425 21.2017 27.8697 21.1491C27.897 21.0965 27.9112 21.0381 27.9112 20.9789C27.9112 20.9197 27.897 20.8613 27.8697 20.8087C27.8425 20.7561 27.8031 20.7108 27.7547 20.6766Z" fill="#4B0082"/>
</svg>
