<svg width="266" height="286" viewBox="0 0 266 286" fill="none" xmlns="http://www.w3.org/2000/svg">
<path d="M259.809 253.704C259.809 253.763 201.666 253.882 129.905 253.882C58.1433 253.882 0 253.822 0 253.704C0 253.644 58.1433 253.526 129.905 253.526C201.666 253.585 259.809 253.644 259.809 253.704Z" fill="#263238"/>
<path d="M161.522 132.431H115.458L106.695 145.471L98.1094 132.431H52.8737C49.9725 132.431 47.6633 130.06 47.6633 127.215V37.4167C47.6633 34.5123 50.0317 32.2007 52.8737 32.2007H161.463C164.364 32.2007 166.673 34.5716 166.673 37.4167V127.215C166.733 130.06 164.424 132.431 161.522 132.431Z" fill="#FAFAFA"/>
<path d="M161.522 132.431C161.522 132.431 161.641 132.431 161.818 132.431C161.996 132.431 162.292 132.372 162.647 132.313C163.358 132.135 164.483 131.72 165.43 130.594C165.904 130.06 166.318 129.29 166.555 128.401C166.614 128.164 166.614 127.926 166.673 127.689C166.673 127.452 166.733 127.215 166.673 126.978C166.673 126.504 166.673 125.97 166.673 125.437C166.673 123.303 166.673 120.754 166.673 117.969C166.673 106.707 166.673 90.466 166.614 70.3724C166.614 60.3553 166.614 49.3305 166.614 37.5352C166.673 36.1127 166.081 34.6308 164.956 33.6232C164.423 33.149 163.772 32.7341 163.062 32.497C162.351 32.2599 161.641 32.2599 160.871 32.2599C157.851 32.2599 154.713 32.2599 151.575 32.2599C145.299 32.2599 138.845 32.2599 132.214 32.2599C118.951 32.2599 105.037 32.2599 90.5898 32.2599C83.3663 32.2599 76.0244 32.2599 68.5641 32.2599C64.8339 32.2599 61.1037 32.2599 57.3144 32.2599C56.367 32.2599 55.4197 32.2599 54.4723 32.2599H53.0513C52.8145 32.2599 52.5776 32.2599 52.3408 32.2599C52.104 32.3192 51.8671 32.3192 51.6895 32.3785C50.8014 32.6155 49.9724 33.0897 49.3211 33.7417C48.6698 34.3937 48.1962 35.2236 47.9593 36.1127C47.7225 36.9425 47.8409 37.7723 47.8409 38.6614C47.8409 39.5505 47.8409 40.3803 47.8409 41.2694C47.8409 42.9883 47.8409 44.7072 47.8409 46.4262C47.8409 49.864 47.8409 53.2425 47.8409 56.6211C47.8409 63.3782 47.8409 70.0168 47.8409 76.5961C47.8409 89.7547 47.8409 102.439 47.8409 114.649C47.8409 117.672 47.8409 120.695 47.8409 123.718C47.8409 124.489 47.8409 125.2 47.8409 125.97C47.8409 126.741 47.7817 127.452 47.9593 128.164C48.2554 129.586 49.1435 130.831 50.3277 131.542C50.9198 131.898 51.6303 132.135 52.3408 132.194C53.0513 132.253 53.7618 132.194 54.4723 132.253C55.8933 132.253 57.3144 132.253 58.7354 132.253C61.5774 132.253 64.3602 132.253 67.1431 132.253C78.1559 132.253 88.5175 132.253 98.1686 132.253H98.2278L98.287 132.313C101.307 136.877 104.149 141.263 106.872 145.353H106.695C109.833 140.729 112.734 136.343 115.517 132.313V132.253H115.576C130.141 132.253 141.628 132.313 149.503 132.313C153.411 132.313 156.43 132.313 158.503 132.313C159.509 132.313 160.279 132.313 160.812 132.313C161.226 132.431 161.522 132.431 161.522 132.431C161.522 132.431 161.285 132.431 160.753 132.431C160.22 132.431 159.45 132.431 158.443 132.431C156.371 132.431 153.351 132.431 149.444 132.431C141.569 132.431 130.082 132.431 115.517 132.491L115.576 132.431C112.852 136.462 109.892 140.848 106.813 145.471L106.695 145.59L106.635 145.471C103.912 141.322 101.07 136.995 98.0502 132.431L98.1686 132.491C88.5175 132.491 78.1559 132.491 67.1431 132.491C64.3602 132.491 61.5774 132.491 58.7354 132.491C57.3144 132.491 55.8933 132.491 54.4723 132.491C53.7618 132.491 53.0513 132.55 52.2816 132.431C51.5711 132.372 50.8014 132.076 50.2093 131.72C48.9067 130.949 47.9593 129.645 47.6633 128.164C47.4857 127.393 47.5449 126.682 47.5449 125.911C47.5449 125.141 47.5449 124.429 47.5449 123.659C47.5449 120.695 47.5449 117.672 47.5449 114.59C47.5449 102.38 47.5449 89.6954 47.5449 76.5368C47.5449 69.9575 47.5449 63.319 47.5449 56.5618C47.5449 53.1833 47.5449 49.8047 47.5449 46.3669C47.5449 44.648 47.5449 42.929 47.5449 41.2101C47.5449 40.321 47.5449 39.4912 47.5449 38.6021V37.2981C47.5449 36.8832 47.6041 36.409 47.7225 35.9941C47.9593 35.0457 48.433 34.1566 49.1435 33.4454C49.854 32.7341 50.7422 32.2599 51.6895 32.0228C51.9263 31.9635 52.1632 31.9635 52.4 31.9043C52.6368 31.9043 52.8737 31.845 53.1105 31.9043H54.4723C55.4197 31.9043 56.367 31.9043 57.3144 31.9043C61.1037 31.9043 64.8339 31.9043 68.5641 31.9043C76.0244 31.9043 83.3663 31.9043 90.5898 31.9043C105.037 31.9043 118.951 31.9043 132.214 31.9043C138.845 31.9043 145.299 31.9043 151.575 31.9043C154.713 31.9043 157.792 31.9043 160.871 31.9043C161.641 31.9043 162.41 31.9043 163.18 32.1414C163.891 32.3785 164.601 32.7934 165.134 33.3268C165.726 33.8603 166.141 34.5123 166.437 35.1643C166.733 35.8756 166.851 36.6461 166.851 37.3574C166.851 49.1527 166.851 60.1775 166.851 70.1946C166.851 90.2882 166.792 106.529 166.792 117.791C166.792 120.577 166.792 123.066 166.792 125.259C166.792 125.793 166.792 126.326 166.792 126.8C166.792 127.037 166.792 127.274 166.733 127.512C166.673 127.749 166.673 127.986 166.614 128.223C166.377 129.112 165.963 129.882 165.489 130.416C164.483 131.542 163.358 131.957 162.647 132.135C162.292 132.194 161.996 132.253 161.818 132.253C161.581 132.431 161.522 132.431 161.522 132.431Z" fill="#263238"/>
<path d="M93.9055 87.3836C93.9055 88.569 93.0174 89.2803 91.6556 89.2803H90.5898V90.7028H89.4056V85.4868H91.6556C93.0766 85.4868 93.9055 86.1981 93.9055 87.3836ZM92.7214 87.3836C92.7214 86.7908 92.3661 86.4945 91.5964 86.4945H90.5898V88.3319H91.5964C92.3069 88.2726 92.7214 87.917 92.7214 87.3836Z" fill="#263238"/>
<path d="M98.2278 88.3915V90.7031H97.1028V90.2289C96.866 90.5846 96.4515 90.7624 95.8594 90.7624C94.9121 90.7624 94.3792 90.2289 94.3792 89.5177C94.3792 88.8064 94.8529 88.3322 96.0963 88.3322H97.0436C97.0436 87.858 96.7476 87.5617 96.0963 87.5617C95.6818 87.5617 95.2081 87.6802 94.9713 87.9173L94.5568 87.0875C94.9713 86.7911 95.6226 86.6133 96.2739 86.6133C97.5173 86.6133 98.2278 87.206 98.2278 88.3915ZM97.0436 89.4584V89.0435H96.2739C95.741 89.0435 95.5634 89.2213 95.5634 89.5177C95.5634 89.814 95.8002 89.9918 96.2147 89.9918C96.5699 89.9918 96.9252 89.814 97.0436 89.4584Z" fill="#263238"/>
<path d="M98.8791 90.3473L99.2936 89.5175C99.6488 89.7546 100.182 89.9324 100.715 89.9324C101.247 89.9324 101.425 89.8138 101.425 89.5767C101.425 88.9247 98.9975 89.5767 98.9975 87.9764C98.9975 87.2058 99.708 86.6724 100.833 86.6724C101.366 86.6724 102.017 86.7909 102.372 87.028L101.958 87.8578C101.543 87.6207 101.188 87.5615 100.833 87.5615C100.3 87.5615 100.063 87.7393 100.063 87.9171C100.063 88.6284 102.491 87.9171 102.491 89.5175C102.491 90.288 101.78 90.8215 100.596 90.8215C99.9448 90.7622 99.2343 90.5844 98.8791 90.3473Z" fill="#263238"/>
<path d="M102.846 90.3473L103.261 89.5175C103.616 89.7546 104.149 89.9324 104.682 89.9324C105.214 89.9324 105.392 89.8138 105.392 89.5767C105.392 88.9247 102.965 89.5767 102.965 87.9764C102.965 87.2058 103.675 86.6724 104.8 86.6724C105.333 86.6724 105.984 86.7909 106.339 87.028L105.925 87.8578C105.511 87.6207 105.155 87.5615 104.8 87.5615C104.267 87.5615 104.03 87.7393 104.03 87.9171C104.03 88.6284 106.458 87.9171 106.458 89.5175C106.458 90.288 105.747 90.8215 104.563 90.8215C103.912 90.7622 103.201 90.5844 102.846 90.3473Z" fill="#263238"/>
<path d="M113.504 86.6724L112.024 90.7029H110.899L110.01 88.2135L109.063 90.7029H107.938L106.517 86.6724H107.583L108.53 89.3989L109.537 86.6724H110.543L111.491 89.3989L112.438 86.6724H113.504Z" fill="#263238"/>
<path d="M113.681 88.6878C113.681 87.5024 114.629 86.6133 115.872 86.6133C117.175 86.6133 118.063 87.4431 118.063 88.6878C118.063 89.8733 117.116 90.7624 115.872 90.7624C114.57 90.7624 113.681 89.9326 113.681 88.6878ZM116.879 88.6878C116.879 87.9766 116.464 87.5617 115.872 87.5617C115.28 87.5617 114.866 87.9766 114.866 88.6878C114.866 89.3991 115.339 89.814 115.872 89.814C116.464 89.814 116.879 89.3991 116.879 88.6878Z" fill="#263238"/>
<path d="M121.319 86.6133V87.6802C121.201 87.6802 121.142 87.6802 121.082 87.6802C120.431 87.6802 120.017 88.0358 120.017 88.8064V90.7031H118.833V86.6726H119.957V87.206C120.254 86.8504 120.727 86.6133 121.319 86.6133Z" fill="#263238"/>
<path d="M126.056 85.1906V90.703H124.931V90.2288C124.635 90.5845 124.221 90.7623 123.688 90.7623C122.563 90.7623 121.675 89.9325 121.675 88.6877C121.675 87.443 122.563 86.6132 123.688 86.6132C124.161 86.6132 124.576 86.791 124.872 87.0874V85.1313H126.056V85.1906ZM124.931 88.6877C124.931 87.9765 124.457 87.5615 123.925 87.5615C123.332 87.5615 122.918 87.9765 122.918 88.6877C122.918 89.399 123.392 89.8139 123.925 89.8139C124.457 89.8139 124.931 89.399 124.931 88.6877Z" fill="#263238"/>
<path d="M78.0375 119.154H70.4588C68.6825 119.154 67.2023 117.672 67.2023 115.894V102.972C67.2023 101.194 68.6825 99.7124 70.4588 99.7124H77.9783C79.7546 99.7124 81.2348 101.194 81.2348 102.972V115.894C81.2348 117.672 79.8138 119.154 78.0375 119.154Z" fill="#EBEBEB"/>
<path d="M111.135 119.154H103.971C102.195 119.154 100.715 117.672 100.715 115.894V102.972C100.715 101.194 102.195 99.7124 103.971 99.7124H111.135C112.912 99.7124 114.392 101.194 114.392 102.972V115.894C114.392 117.672 112.912 119.154 111.135 119.154Z" fill="#EBEBEB"/>
<path d="M94.7345 119.154H87.5702C85.7939 119.154 84.3137 117.672 84.3137 115.894V102.972C84.3137 101.194 85.7939 99.7124 87.5702 99.7124H94.7345C96.5107 99.7124 97.991 101.194 97.991 102.972V115.894C97.9317 117.672 96.5107 119.154 94.7345 119.154Z" fill="#EBEBEB"/>
<path d="M127.832 119.154H120.254C118.477 119.154 116.997 117.672 116.997 115.894V102.972C116.997 101.194 118.477 99.7124 120.254 99.7124H127.832C129.609 99.7124 131.089 101.194 131.089 102.972V115.894C131.089 117.672 129.609 119.154 127.832 119.154Z" fill="#EBEBEB"/>
<path d="M143.937 119.154H136.358C134.582 119.154 133.102 117.672 133.102 115.894V102.972C133.102 101.194 134.582 99.7124 136.358 99.7124H143.937C145.713 99.7124 147.194 101.194 147.194 102.972V115.894C147.194 117.672 145.713 119.154 143.937 119.154Z" fill="#EBEBEB"/>
<path d="M76.0244 108.9L77.5046 109.73L76.8533 110.856L75.3139 109.967V111.626H74.0113V109.967L72.4719 110.856L71.8206 109.73L73.3008 108.9L71.8206 108.07L72.4719 106.944L74.0113 107.833V106.173H75.3139V107.833L76.8533 106.944L77.5046 108.07L76.0244 108.9Z" fill="#CAB1DC"/>
<path d="M92.4253 108.841L93.9056 109.671L93.2543 110.797L91.7148 109.908V111.567H90.4122V109.908L88.8728 110.797L88.2215 109.671L89.7017 108.841L88.2215 108.011L88.8728 106.885L90.4122 107.774V106.114H91.7148V107.774L93.2543 106.885L93.9056 108.011L92.4253 108.841Z" fill="#CAB1DC"/>
<path d="M109.182 108.841L110.662 109.671L110.01 110.797L108.471 109.908V111.567H107.168V109.908L105.629 110.797L104.978 109.671L106.458 108.841L104.978 108.011L105.629 106.885L107.168 107.774V106.114H108.471V107.774L110.01 106.885L110.662 108.011L109.182 108.841Z" fill="#CAB1DC"/>
<path d="M125.405 108.841L126.885 109.671L126.234 110.797L124.694 109.908V111.567H123.392V109.908L121.852 110.797L121.201 109.671L122.681 108.841L121.201 108.011L121.852 106.885L123.392 107.774V106.114H124.694V107.774L126.234 106.885L126.885 108.011L125.405 108.841Z" fill="#CAB1DC"/>
<path d="M77.8599 119.273H70.5772C68.6825 119.273 67.2023 117.732 67.2023 115.894V102.973C67.2023 101.076 68.7417 99.5942 70.5772 99.5942H77.8599C79.7546 99.5942 81.2348 101.135 81.2348 102.973V115.894C81.2348 117.732 79.7546 119.273 77.8599 119.273ZM70.5772 99.8313C68.8601 99.8313 67.4391 101.254 67.4391 102.973V115.894C67.4391 117.613 68.8601 119.036 70.5772 119.036H77.8599C79.577 119.036 80.998 117.613 80.998 115.894V102.973C80.998 101.254 79.577 99.8313 77.8599 99.8313H70.5772Z" fill="#263238"/>
<path d="M94.7345 119.273H87.4518C85.5571 119.273 84.0768 117.732 84.0768 115.894V102.973C84.0768 101.076 85.6163 99.5942 87.4518 99.5942H94.7345C96.6292 99.5942 98.1094 101.135 98.1094 102.973V115.894C98.1094 117.732 96.57 119.273 94.7345 119.273ZM87.4518 99.8313C85.7347 99.8313 84.3137 101.254 84.3137 102.973V115.894C84.3137 117.613 85.7347 119.036 87.4518 119.036H94.7345C96.4515 119.036 97.8726 117.613 97.8726 115.894V102.973C97.8726 101.254 96.4515 99.8313 94.7345 99.8313H87.4518Z" fill="#263238"/>
<path d="M111.135 119.273H103.853C101.958 119.273 100.478 117.732 100.478 115.894V102.973C100.478 101.076 102.017 99.5942 103.853 99.5942H111.135C113.03 99.5942 114.51 101.135 114.51 102.973V115.894C114.51 117.732 112.971 119.273 111.135 119.273ZM103.853 99.8313C102.136 99.8313 100.715 101.254 100.715 102.973V115.894C100.715 117.613 102.136 119.036 103.853 119.036H111.135C112.852 119.036 114.273 117.613 114.273 115.894V102.973C114.273 101.254 112.852 99.8313 111.135 99.8313H103.853Z" fill="#263238"/>
<path d="M127.714 119.273H120.431C118.536 119.273 117.056 117.732 117.056 115.894V102.973C117.056 101.076 118.596 99.5942 120.431 99.5942H127.714C129.609 99.5942 131.089 101.135 131.089 102.973V115.894C131.089 117.732 129.549 119.273 127.714 119.273ZM120.431 99.8313C118.714 99.8313 117.293 101.254 117.293 102.973V115.894C117.293 117.613 118.714 119.036 120.431 119.036H127.714C129.431 119.036 130.852 117.613 130.852 115.894V102.973C130.852 101.254 129.431 99.8313 127.714 99.8313H120.431Z" fill="#263238"/>
<path d="M143.819 119.273H136.536C134.641 119.273 133.161 117.732 133.161 115.894V102.973C133.161 101.076 134.701 99.5942 136.536 99.5942H143.819C145.713 99.5942 147.194 101.135 147.194 102.973V115.894C147.194 117.732 145.654 119.273 143.819 119.273ZM136.536 99.8313C134.819 99.8313 133.398 101.254 133.398 102.973V115.894C133.398 117.613 134.819 119.036 136.536 119.036H143.819C145.536 119.036 146.957 117.613 146.957 115.894V102.973C146.957 101.254 145.536 99.8313 143.819 99.8313H136.536Z" fill="#263238"/>
<path d="M144.056 114.116C144.056 114.175 142.339 114.294 140.148 114.294C138.016 114.294 136.24 114.234 136.24 114.116C136.24 114.057 137.957 113.938 140.148 113.938C142.339 113.938 144.056 113.997 144.056 114.116Z" fill="#CAB1DC"/>
<path d="M107.82 79.5597C116.485 79.5597 123.51 72.5273 123.51 63.8524C123.51 55.1774 116.485 48.145 107.82 48.145C99.1541 48.145 92.1293 55.1774 92.1293 63.8524C92.1293 72.5273 99.1541 79.5597 107.82 79.5597Z" fill="#CAB1DC"/>
<path d="M105.096 61.0074H104.8V59.5256C104.8 57.8659 106.162 56.4434 107.879 56.4434C109.537 56.4434 110.958 57.8066 110.958 59.5256V60.711H110.721V59.5256C110.721 57.9845 109.478 56.7397 107.938 56.7397C106.399 56.7397 105.155 57.9845 105.155 59.5256V61.0074H105.096Z" fill="white"/>
<path d="M111.727 71.2614H103.971C103.261 71.2614 102.668 70.6687 102.668 69.9574V62.1927C102.668 61.4814 103.261 60.8887 103.971 60.8887H111.727C112.438 60.8887 113.03 61.4814 113.03 62.1927V69.9574C113.03 70.6687 112.438 71.2614 111.727 71.2614ZM103.971 61.1258C103.379 61.1258 102.965 61.5999 102.965 62.1334V69.8982C102.965 70.4909 103.438 70.9058 103.971 70.9058H111.727C112.32 70.9058 112.734 70.4316 112.734 69.8982V62.1334C112.734 61.5407 112.26 61.1258 111.727 61.1258H103.971Z" fill="white"/>
<path d="M107.879 66.2824C107.228 66.2824 106.635 65.749 106.635 65.0377C106.635 64.3857 107.168 63.793 107.879 63.793C108.53 63.793 109.122 64.3264 109.122 65.0377C109.122 65.749 108.53 66.2824 107.879 66.2824ZM107.879 64.1486C107.346 64.1486 106.932 64.5635 106.932 65.097C106.932 65.6304 107.346 66.0453 107.879 66.0453C108.412 66.0453 108.826 65.6304 108.826 65.097C108.826 64.5635 108.412 64.1486 107.879 64.1486Z" fill="white"/>
<path d="M107.938 66.105H107.701V68.2981H107.938V66.105Z" fill="white"/>
<path d="M160.991 42.1054C161.567 39.4839 159.912 36.891 157.293 36.3139C154.674 35.7368 152.084 37.3941 151.507 40.0156C150.931 42.6371 152.586 45.23 155.205 45.8071C157.824 46.3843 160.414 44.7269 160.991 42.1054Z" fill="#E0E0E0"/>
<path d="M154.654 42.8104C154.595 42.8104 154.595 42.8104 154.536 42.7511C154.476 42.6919 154.476 42.5733 154.536 42.514L157.674 39.3726C157.733 39.3133 157.851 39.3133 157.911 39.3726C157.97 39.4319 157.97 39.5504 157.911 39.6097L154.772 42.7511C154.713 42.8104 154.713 42.8104 154.654 42.8104Z" fill="white"/>
<path d="M157.792 42.8104C157.733 42.8104 157.733 42.8104 157.674 42.7511L154.536 39.6097C154.476 39.5504 154.476 39.4319 154.536 39.3726C154.595 39.3133 154.713 39.3133 154.772 39.3726L157.911 42.514C157.97 42.5733 157.97 42.6919 157.911 42.7511C157.851 42.8104 157.851 42.8104 157.792 42.8104Z" fill="white"/>
<path d="M31.6768 224.008C31.6768 224.008 16.0457 205.989 10.1247 187.97C4.20384 169.951 7.04588 172.026 7.04588 172.026C7.04588 172.026 15.0391 189.511 21.0784 197.987C27.1177 206.463 37.8938 218.851 37.8938 218.851L31.6768 224.008Z" fill="#455A64"/>
<path d="M34.7557 174.811C34.2228 173.922 32.9202 174.396 33.0386 175.404C33.986 181.746 36.0583 196.565 35.9991 206.226C35.8807 218.733 35.9991 223.593 35.9991 223.593H42.5121C42.5121 223.593 41.3279 197.691 39.9069 189.807C38.8411 184.295 36.6504 178.131 34.7557 174.811Z" fill="#455A64"/>
<path d="M38.3082 221.459C38.3082 221.459 42.3937 212.805 43.6963 202.018C44.2291 197.394 43.2818 191.171 41.8608 182.873C41.1503 178.842 41.0318 175.76 41.0318 173.685C41.0318 172.085 43.1634 171.551 43.9331 172.974C44.7028 174.397 47.012 179.198 47.5448 182.161C49.1435 190.341 50.9198 194.49 49.5579 202.255C48.1961 210.02 43.1634 222.052 43.1634 222.052L38.3082 221.459Z" fill="#455A64"/>
<path d="M44.1699 221.993C44.1699 221.993 61.3405 185.066 62.5247 179.554C63.7089 174.1 67.7351 161.416 68.268 162.127C68.7417 162.839 69.4522 169.536 66.3733 177.123C63.2944 184.77 50.0908 223.06 50.0908 223.06H44.2291" fill="#455A64"/>
<path d="M36.4136 220.333C36.4136 220.333 36.2359 220.215 35.9399 219.978C35.6438 219.74 35.1702 219.444 34.6373 218.97C33.5123 218.081 31.9137 216.718 30.019 214.88C26.2888 211.264 21.6113 205.693 17.5851 198.876C13.5589 192.001 10.776 185.362 9.05898 180.442C8.17085 178.012 7.57876 175.997 7.16429 174.574C6.92746 173.863 6.80904 173.33 6.69062 172.974C6.5722 172.618 6.5722 172.381 6.5722 172.381C6.5722 172.381 6.63141 172.559 6.74983 172.915C6.86825 173.33 7.04588 173.863 7.28271 174.515C7.75639 175.878 8.40768 177.894 9.29582 180.324C11.0721 185.184 13.8549 191.823 17.8811 198.699C21.9073 205.515 26.5257 211.087 30.1966 214.702C32.0321 216.54 33.6307 217.903 34.6965 218.851C35.2294 219.326 35.703 219.681 35.9991 219.918C36.2951 220.215 36.4728 220.333 36.4136 220.333Z" fill="#263238"/>
<path d="M38.3082 202.611C38.3082 202.611 38.249 202.255 38.1306 201.544C38.0714 200.773 37.953 199.766 37.8346 198.58C37.5385 196.091 37.1241 192.653 36.532 188.859C35.9399 185.066 35.2294 181.687 34.6965 179.198C34.4596 178.012 34.2228 177.064 34.0452 176.293C33.9268 175.582 33.8083 175.227 33.8676 175.227C33.8676 175.227 33.986 175.582 34.2228 176.293C34.4004 176.945 34.6965 177.953 34.9925 179.198C35.5846 181.628 36.2951 185.066 36.8872 188.859C37.4793 192.653 37.8938 196.091 38.0714 198.639C38.1898 199.884 38.249 200.892 38.249 201.603C38.3082 202.196 38.3674 202.611 38.3082 202.611Z" fill="#263238"/>
<path d="M42.3345 172.619C42.3345 172.619 42.3937 172.796 42.5121 173.093C42.6306 173.448 42.8082 173.923 43.045 174.456C43.2818 175.049 43.5187 175.76 43.7555 176.649C43.9924 177.538 44.3476 178.487 44.5845 179.613C44.7029 180.146 44.8805 180.739 44.9989 181.332C45.1173 181.924 45.2358 182.577 45.3542 183.229C45.6502 184.533 45.8278 185.955 46.0055 187.437C46.3607 190.46 46.5384 193.72 46.4199 197.217C46.3015 200.714 45.8871 203.974 45.295 206.938C44.9989 208.42 44.7029 209.842 44.3476 211.087C44.17 211.739 43.9924 212.391 43.8147 212.984C43.6371 213.576 43.4595 214.169 43.2819 214.702C42.9266 215.769 42.5713 216.718 42.2161 217.607C41.92 218.437 41.5648 219.148 41.328 219.741C41.0911 220.274 40.8543 220.748 40.7359 221.045C40.6174 221.341 40.499 221.519 40.499 221.519C40.499 221.519 40.5582 221.341 40.6766 221.045C40.7951 220.689 40.9727 220.274 41.2095 219.681C41.4464 219.089 41.7424 218.377 42.0385 217.548C42.3345 216.718 42.6898 215.769 43.045 214.643C43.2226 214.11 43.4003 213.517 43.5779 212.924C43.7555 212.332 43.8739 211.68 44.0516 211.087C44.4068 209.783 44.6437 208.42 44.9989 206.938C45.5318 203.974 45.9463 200.714 46.0647 197.276C46.1831 193.838 46.0055 190.519 45.7094 187.555C45.5318 186.074 45.3542 184.651 45.0581 183.347C44.9397 182.695 44.8213 182.043 44.7029 181.45C44.5845 180.858 44.4068 180.265 44.2884 179.731C44.0516 178.605 43.7555 177.657 43.5187 176.768C43.2819 175.879 43.045 175.167 42.8674 174.575C42.6898 173.982 42.5121 173.508 42.3937 173.152C42.3937 172.796 42.3345 172.619 42.3345 172.619Z" fill="#263238"/>
<path d="M68.0904 162.897C68.0904 162.897 68.0904 162.957 68.0904 163.075C68.0904 163.194 68.0312 163.372 68.0312 163.549C67.972 163.964 67.8535 164.616 67.6759 165.387C67.3207 166.987 66.7878 169.24 65.9589 172.025C65.1299 174.811 63.9457 178.071 62.5247 181.628C61.1629 185.184 59.5051 189.096 58.0248 193.245C56.4854 197.394 55.3012 201.425 54.1763 205.1C53.0513 208.775 51.9855 212.094 50.979 214.761C49.9724 217.488 49.0251 219.622 48.2554 221.104C47.9001 221.815 47.6041 222.408 47.3672 222.763C47.2488 222.941 47.1896 223.06 47.1304 223.178C47.0712 223.297 47.0712 223.297 47.012 223.297C47.012 223.297 47.012 223.237 47.0712 223.119C47.1304 223 47.1896 222.882 47.308 222.704C47.4856 222.289 47.7817 221.756 48.1369 221.044C48.8474 219.562 49.7356 217.429 50.7421 214.702C51.7487 211.975 52.7552 208.656 53.821 204.981C54.946 201.306 56.1302 197.276 57.6696 193.127C59.209 188.978 60.8077 185.066 62.2287 181.509C63.6497 177.953 64.8339 174.693 65.722 171.966C66.6102 169.18 67.2022 166.928 67.5575 165.387C67.7351 164.616 67.8535 163.964 67.972 163.549C68.0312 163.372 68.0312 163.194 68.0904 163.075C68.0312 162.957 68.0904 162.897 68.0904 162.897Z" fill="#263238"/>
<path d="M15.0983 154.718C14.0325 153.651 12.197 154.777 12.6707 156.2C13.1444 157.682 13.7957 159.578 14.8022 161.771C17.1706 166.81 24.0981 184.829 27.3546 194.727C30.6111 204.626 35.1702 223.119 35.1702 223.119L42.0976 221.993C42.0976 221.993 35.7622 191.645 29.5453 180.739C24.6309 171.907 19.5982 159.223 15.0983 154.718Z" fill="#455A64"/>
<path d="M29.2493 200.951C29.2493 200.951 29.4269 201.248 29.6045 201.781C29.7821 202.314 30.0782 203.144 30.4334 204.093C31.0847 206.049 31.8545 208.834 32.6242 211.917C33.3939 214.999 34.0452 217.785 34.5189 219.8C34.7557 220.748 34.8741 221.578 35.0518 222.23C35.1702 222.823 35.2294 223.119 35.1702 223.119C35.1702 223.119 35.0518 222.823 34.8741 222.23C34.6965 221.578 34.5189 220.808 34.2228 219.859C33.6899 217.785 32.9794 214.999 32.2097 211.976C31.44 208.894 30.6703 206.108 30.1374 204.152C29.8414 203.204 29.6045 202.433 29.4269 201.781C29.3085 201.248 29.2493 200.951 29.2493 200.951Z" fill="#263238"/>
<path d="M38.6635 222.586C38.6635 222.586 38.6635 222.526 38.6043 222.408C38.6043 222.289 38.5451 222.112 38.5451 221.874C38.4858 221.4 38.4266 220.689 38.249 219.8C38.0122 217.962 37.5385 215.354 36.7688 212.154C35.9991 208.953 34.9333 205.159 33.5123 201.07C32.0913 196.98 30.315 192.534 28.3019 187.911C24.2757 178.664 20.1903 170.485 17.5259 164.439C16.164 161.416 15.0983 158.986 14.447 157.267C14.0917 156.437 13.8549 155.726 13.6773 155.311C13.6181 155.074 13.5588 154.955 13.4996 154.777C13.4404 154.659 13.4404 154.6 13.4404 154.6C13.4404 154.6 13.4996 154.659 13.4996 154.777C13.5588 154.896 13.6181 155.074 13.7365 155.252C13.9141 155.726 14.2101 156.378 14.5654 157.208C15.2759 158.927 16.4009 161.357 17.7627 164.32C20.4863 170.307 24.6309 178.427 28.7164 187.615C30.7295 192.238 32.5057 196.683 33.9268 200.833C35.3478 204.982 36.4135 208.775 37.124 211.976C37.8346 215.177 38.249 217.844 38.4858 219.681C38.6043 220.57 38.6635 221.341 38.7227 221.815C38.7227 222.052 38.7819 222.23 38.7819 222.349C38.6635 222.467 38.6635 222.586 38.6635 222.586Z" fill="#263238"/>
<path d="M42.0977 221.993C42.0977 221.993 41.9793 221.578 41.8608 220.807C41.7424 219.978 41.5648 218.911 41.328 217.607C40.8543 214.939 40.1438 211.205 39.078 207.175C38.0123 203.144 36.8873 199.528 35.9991 196.98C35.5847 195.735 35.1702 194.727 34.9334 193.957C34.6965 193.245 34.5189 192.831 34.5781 192.831C34.5781 192.831 34.7558 193.186 35.0518 193.897C35.3478 194.609 35.7623 195.616 36.236 196.92C37.1833 199.469 38.4267 203.085 39.4333 207.115C40.499 211.146 41.1503 214.88 41.5648 217.607C41.7424 218.97 41.92 220.037 41.9793 220.807C42.0977 221.578 42.1569 221.993 42.0977 221.993Z" fill="#263238"/>
<path d="M56.367 220.985H29.3085V254H56.367V220.985Z" fill="#CAB1DC"/>
<g opacity="0.3">
<g opacity="0.3">
<path opacity="0.3" d="M56.367 220.985H29.3085V254H56.367V220.985Z" fill="black"/>
</g>
</g>
<path d="M47.7817 220.985H23.7428V254H47.7817V220.985Z" fill="#CAB1DC"/>
<path d="M214.514 147.546L200.304 145.471L171.825 149.739L163.831 152.525L165.252 170.01L192.607 175.048L211.08 169.595L218.067 159.282L214.514 147.546Z" fill="#FFBE9D"/>
<path d="M223.514 149.205L211.613 146.419C211.613 146.419 203.205 172.5 182.423 171.373C165.489 170.484 165.312 151.517 165.312 151.517L153.115 155.429C153.115 155.429 148.437 186.784 153.588 208.952C154.772 214.168 156.43 221.103 156.43 221.103L154.772 253.526L245.007 253.644L223.514 149.205Z" fill="#CAB1DC"/>
<g opacity="0.3">
<g opacity="0.3">
<path opacity="0.3" d="M188.107 247.302C192.489 247.184 196.574 247.539 200.956 247.48C206.225 247.362 211.554 247.243 216.764 248.073C220.672 248.725 224.462 249.91 228.369 250.503C233.698 251.333 239.382 251.036 244.119 248.488L243.349 244.042L225.35 239.715L188.107 247.302Z" fill="black"/>
</g>
</g>
<path d="M142.871 162.72C147.016 157.385 153.884 155.133 153.884 155.133L158.503 195.379L149.74 254L121.083 253.882C121.083 253.882 136.891 170.485 142.871 162.72Z" fill="#CAB1DC"/>
<path d="M222.093 148.909C222.093 148.909 241.395 150.45 248.264 182.102C251.402 196.387 255.369 213.161 256.494 224.423C257.322 232.603 252.882 245.406 244.77 246.413L234.527 247.776C232.514 248.073 230.501 248.014 228.488 247.539C222.034 246.058 221.383 241.612 220.258 236.87L217.297 227.446C215.639 218.496 223.988 216.777 228.606 216.895L225.172 175.938L222.093 148.909Z" fill="#CAB1DC"/>
<path d="M151.457 177.538C151.457 177.538 151.398 177.715 151.398 177.953C151.338 178.249 151.279 178.723 151.22 179.197C151.161 179.494 151.161 179.79 151.101 180.146C151.042 180.501 151.042 180.857 150.983 181.272C150.924 182.042 150.805 182.991 150.746 183.939C150.628 185.954 150.628 188.325 150.687 190.993C150.805 193.66 151.101 196.564 151.516 199.587C151.93 202.61 152.523 205.455 153.055 208.063C153.588 210.671 154.18 212.983 154.654 214.88C155.128 216.836 155.542 218.377 155.838 219.444C155.957 219.977 156.075 220.392 156.193 220.688C156.253 220.985 156.312 221.103 156.312 221.103C156.312 221.103 156.312 220.925 156.253 220.688C156.193 220.392 156.075 219.977 155.957 219.444C155.661 218.317 155.305 216.776 154.832 214.82C154.358 212.864 153.825 210.553 153.292 207.945C152.759 205.337 152.167 202.492 151.753 199.469C151.338 196.446 150.983 193.541 150.865 190.933C150.746 188.325 150.746 185.895 150.865 183.939C150.865 182.931 150.983 182.042 151.042 181.272C151.101 180.857 151.101 180.501 151.101 180.146C151.161 179.79 151.161 179.494 151.22 179.197C151.279 178.664 151.338 178.249 151.338 177.893C151.457 177.715 151.457 177.538 151.457 177.538Z" fill="#263238"/>
<path d="M243.704 228.038C243.704 228.038 243.704 227.742 243.527 227.268C243.408 226.734 243.172 226.023 242.757 225.193C241.987 223.474 240.507 221.281 238.198 219.562C235.889 217.843 233.284 217.132 231.448 216.954C230.501 216.836 229.79 216.836 229.257 216.895C228.725 216.954 228.428 216.954 228.428 217.013C228.428 217.073 229.553 216.954 231.389 217.191C233.224 217.428 235.711 218.199 237.961 219.859C240.211 221.518 241.751 223.652 242.52 225.312C243.468 226.912 243.645 228.097 243.704 228.038Z" fill="#263238"/>
<path d="M239.264 212.272C239.264 212.272 239.086 212.212 238.79 212.212C238.494 212.212 238.08 212.212 237.547 212.272C236.481 212.39 235.001 212.687 233.461 213.279C231.922 213.931 230.678 214.761 229.85 215.413C229.435 215.769 229.139 216.065 228.902 216.243C228.665 216.48 228.606 216.599 228.606 216.599C228.665 216.658 229.139 216.184 229.968 215.532C230.797 214.88 232.099 214.109 233.58 213.516C235.06 212.924 236.481 212.568 237.547 212.449C238.612 212.39 239.264 212.331 239.264 212.272Z" fill="#263238"/>
<path d="M219.31 171.374C219.31 171.374 219.37 171.077 219.37 170.544C219.37 170.01 219.429 169.24 219.488 168.232C219.606 166.276 219.962 163.609 220.791 160.764C221.619 157.919 222.685 155.429 223.573 153.71C224.047 152.821 224.402 152.169 224.698 151.695C224.994 151.221 225.113 150.984 225.113 150.924C225.113 150.924 224.935 151.161 224.639 151.636C224.343 152.11 223.929 152.762 223.455 153.592C222.508 155.311 221.383 157.741 220.554 160.645C219.725 163.49 219.429 166.217 219.37 168.173C219.31 169.121 219.31 169.951 219.37 170.484C219.251 171.077 219.31 171.374 219.31 171.374Z" fill="#263238"/>
<path d="M182.364 200.062C182.364 200.062 182.364 200.18 182.423 200.417C182.482 200.654 182.601 200.951 182.719 201.366C183.015 202.195 183.548 203.322 184.318 204.626C185.088 205.93 186.212 207.411 187.693 208.834C189.173 210.256 190.949 211.56 193.081 212.627C195.212 213.635 197.403 214.228 199.416 214.465C201.429 214.702 203.265 214.702 204.804 214.465C206.344 214.287 207.528 213.931 208.357 213.694C208.771 213.576 209.067 213.457 209.304 213.339C209.541 213.279 209.6 213.22 209.6 213.22C209.6 213.22 209.126 213.339 208.297 213.576C207.469 213.813 206.284 214.109 204.745 214.228C201.725 214.583 197.403 214.287 193.199 212.272C188.995 210.256 186.094 206.996 184.495 204.448C183.666 203.144 183.134 202.077 182.838 201.247C182.601 200.476 182.423 200.062 182.364 200.062Z" fill="#263238"/>
<path d="M223.04 244.516C223.1 244.516 223.396 244.931 224.106 245.524C224.817 246.116 226.001 246.768 227.659 247.183C229.257 247.598 231.271 247.835 233.461 247.717C235.652 247.539 238.08 247.302 240.626 246.946C243.172 246.531 245.54 246.116 247.612 245.346C248.619 244.931 249.448 244.279 250.158 243.627C250.869 242.975 251.461 242.264 251.934 241.612C252.941 240.248 253.533 239.063 253.888 238.174C254.066 237.759 254.244 237.403 254.303 237.166C254.421 236.929 254.421 236.811 254.48 236.811C254.48 236.811 254.48 236.929 254.362 237.166C254.303 237.403 254.184 237.759 254.007 238.174C253.652 239.063 253.059 240.308 252.112 241.671C251.638 242.382 251.046 243.093 250.336 243.746C249.625 244.398 248.737 245.109 247.731 245.524C245.599 246.354 243.231 246.768 240.685 247.183C238.139 247.539 235.711 247.835 233.52 247.954C231.271 248.072 229.257 247.835 227.659 247.361C226.001 246.887 224.817 246.176 224.106 245.583C223.751 245.287 223.514 244.99 223.337 244.812C223.1 244.635 222.981 244.575 223.04 244.516Z" fill="#263238"/>
<path d="M219.843 181.45C219.902 181.45 221.975 189.333 224.402 199.113C226.83 208.893 228.725 216.836 228.665 216.836C228.606 216.836 226.534 208.952 224.106 199.172C221.679 189.392 219.725 181.45 219.843 181.45Z" fill="#263238"/>
<path d="M217.356 226.023C217.356 226.023 217.297 225.786 217.238 225.371C217.179 224.956 217.12 224.363 217.179 223.593C217.238 222.822 217.475 221.933 218.067 221.044C218.363 220.629 218.659 220.214 219.073 219.799C219.488 219.384 219.962 219.088 220.435 218.792C222.508 217.665 224.58 217.191 226.06 216.954C226.83 216.836 227.422 216.836 227.836 216.776C228.251 216.776 228.488 216.776 228.488 216.776C228.488 216.836 227.54 216.836 226.06 217.132C224.58 217.428 222.567 217.903 220.554 218.969C220.08 219.266 219.606 219.562 219.251 219.918C218.896 220.273 218.541 220.688 218.304 221.103C217.771 221.933 217.475 222.763 217.416 223.474C217.356 224.185 217.356 224.837 217.356 225.252C217.416 225.786 217.416 226.023 217.356 226.023Z" fill="#263238"/>
<g opacity="0.3">
<g opacity="0.3">
<g opacity="0.3">
<path opacity="0.3" d="M152.345 204.092C147.431 195.735 147.312 184.947 151.634 176.234C150.332 185.48 150.45 194.964 152.523 204.033" fill="black"/>
</g>
</g>
</g>
<path d="M178.574 225.016C178.574 225.016 178.634 225.016 178.634 225.076C178.634 225.016 178.634 225.016 178.574 225.016Z" fill="#FFBE9D"/>
<path d="M178.397 224.956C178.456 225.015 178.515 225.015 178.574 225.015C178.515 225.015 178.456 224.956 178.397 224.956Z" fill="#FFBE9D"/>
<path d="M178.338 224.897C178.338 224.897 178.398 224.897 178.398 224.957C178.338 224.897 178.338 224.897 178.338 224.897Z" fill="#FFBE9D"/>
<path d="M160.22 241.552C161.759 238.648 173.838 230.883 173.838 230.883L170.581 230.113L166.97 231.654C166.97 231.654 166.733 233.136 165.43 235.032C164.127 236.929 161.818 234.973 161.818 234.973L163.358 227.623L170.522 223.296C170.522 223.296 177.272 224.304 178.338 224.837L181.18 227.445C182.423 228.453 186.094 232.306 187.041 232.424C188.048 232.543 219.251 225.489 219.251 225.489C223.514 228.868 225.764 235.625 226.475 240.486C226.475 240.486 227.244 242.856 226.415 244.16L188.107 247.183L179.995 249.436C179.995 249.436 175.496 251.273 173.305 251.747C170.581 252.34 168.805 251.451 168.687 249.969C168.627 248.487 170.7 248.31 170.7 248.31C170.7 248.31 174.134 247.065 175.91 245.998C177.746 244.931 178.871 242.738 178.871 242.738L175.969 243.094C175.969 243.094 169.812 247.361 167.502 248.606C165.193 249.851 164.72 247.539 164.542 246.828C164.364 246.116 171.469 239.182 171.469 239.182C171.469 239.182 164.72 243.331 163.476 244.398C162.233 245.464 160.457 245.761 160.101 245.05C159.746 244.457 158.68 244.457 160.22 241.552Z" fill="#FFBE9D"/>
<path d="M178.693 225.075C178.693 225.075 178.753 225.075 178.753 225.135C178.753 225.075 178.693 225.075 178.693 225.075Z" fill="#FFBE9D"/>
<path d="M193.495 242.205C193.495 242.205 193.554 242.027 193.554 241.731C193.554 241.553 193.554 241.375 193.495 241.197C193.495 240.96 193.436 240.723 193.377 240.486C193.14 239.419 192.429 237.996 191.423 236.692C190.416 235.388 189.291 234.321 188.462 233.61C187.633 232.899 187.101 232.484 187.041 232.543C187.041 232.602 187.515 233.017 188.285 233.788C189.054 234.558 190.12 235.566 191.127 236.87C192.133 238.174 192.844 239.478 193.14 240.545C193.495 241.553 193.436 242.205 193.495 242.205Z" fill="#EB996E"/>
<path d="M174.134 230.646C174.134 230.706 175.081 230.824 176.206 230.469C177.331 230.113 178.042 229.402 177.982 229.342C177.923 229.283 177.213 229.817 176.147 230.172C175.022 230.528 174.134 230.528 174.134 230.646Z" fill="#EB996E"/>
<path d="M172.121 238.648C172.18 238.708 173.542 238.233 175.2 237.522C176.857 236.811 178.219 236.218 178.16 236.159C178.101 236.1 176.739 236.574 175.081 237.285C173.423 237.996 172.061 238.589 172.121 238.648Z" fill="#EB996E"/>
<path d="M178.574 242.738C178.634 242.797 179.285 242.501 180.173 242.205C181.002 241.849 181.713 241.612 181.713 241.553C181.713 241.493 180.943 241.612 180.055 241.968C179.226 242.264 178.574 242.679 178.574 242.738Z" fill="#EB996E"/>
<path d="M173.127 239.182C173.068 239.241 173.779 239.537 174.311 240.249C174.844 240.96 174.904 241.671 175.022 241.671C175.081 241.671 175.081 241.493 175.022 241.197C174.963 240.901 174.844 240.486 174.548 240.071C174.252 239.715 173.897 239.419 173.601 239.3C173.305 239.182 173.127 239.182 173.127 239.182Z" fill="#EB996E"/>
<path d="M170.285 234.736C170.226 234.796 170.759 235.092 171.114 235.685C171.469 236.278 171.469 236.87 171.529 236.87C171.588 236.87 171.765 236.218 171.351 235.507C170.936 234.855 170.285 234.618 170.285 234.736Z" fill="#EB996E"/>
<path d="M171.233 226.734C171.292 226.734 171.351 226.616 171.469 226.379C171.529 226.142 171.588 225.727 171.469 225.312C171.351 224.897 171.173 224.541 170.937 224.364C170.759 224.186 170.581 224.126 170.581 224.126C170.522 224.186 170.996 224.601 171.173 225.371C171.41 226.082 171.173 226.675 171.233 226.734Z" fill="#EB996E"/>
<path d="M226.771 245.405C226.771 245.405 226.711 245.109 226.711 244.516C226.711 244.22 226.711 243.864 226.652 243.509C226.652 243.094 226.593 242.679 226.534 242.145C226.356 240.13 225.882 237.344 224.876 234.44C224.343 233.017 223.692 231.654 223.04 230.528C222.685 229.935 222.389 229.402 222.034 228.928C221.856 228.69 221.679 228.453 221.56 228.216C221.383 227.979 221.205 227.801 221.087 227.624C219.843 226.082 218.837 225.253 218.896 225.193C218.896 225.193 219.133 225.371 219.606 225.727C219.843 225.905 220.08 226.142 220.376 226.438C220.672 226.734 220.968 227.031 221.323 227.446C221.501 227.624 221.679 227.861 221.856 228.038C222.034 228.276 222.211 228.513 222.389 228.75C222.744 229.224 223.1 229.757 223.455 230.35C224.106 231.536 224.757 232.84 225.29 234.321C226.356 237.226 226.771 240.071 226.889 242.086C226.948 242.62 226.948 243.035 226.948 243.449C226.948 243.864 226.948 244.22 226.948 244.457C226.83 245.05 226.771 245.405 226.771 245.405Z" fill="#263238"/>
<g opacity="0.3">
<g opacity="0.3">
<path opacity="0.3" d="M239.915 217.962C236.362 216.48 232.277 216.125 228.547 216.954C235.178 216.539 241.573 220.807 243.882 226.853C244.178 227.564 244.711 228.453 245.481 228.335C246.191 228.216 246.487 227.327 246.487 226.557C246.487 222.763 243.468 219.444 239.915 217.962Z" fill="black"/>
</g>
</g>
<path d="M151.22 174.811C151.22 174.811 151.042 174.752 150.687 174.633C150.391 174.515 149.917 174.278 149.325 174.041C148.2 173.507 146.72 172.618 145.181 171.492C143.641 170.366 142.398 169.18 141.569 168.291C141.154 167.817 140.799 167.461 140.621 167.165C140.385 166.869 140.266 166.75 140.325 166.75C140.385 166.691 140.858 167.284 141.746 168.113C142.635 168.943 143.878 170.129 145.417 171.196C146.957 172.322 148.378 173.211 149.444 173.804C150.569 174.456 151.279 174.811 151.22 174.811Z" fill="white"/>
<path d="M219.606 177.063C219.606 177.063 219.547 177.123 219.429 177.182C219.31 177.241 219.133 177.36 218.955 177.478C218.541 177.715 217.948 178.071 217.179 178.486C215.639 179.316 213.271 180.383 210.251 181.39C207.232 182.398 203.561 183.346 199.475 183.998C195.331 184.65 190.772 185.006 185.916 185.125C181.12 185.243 176.502 185.125 172.298 185.065C168.094 184.947 164.364 184.71 161.226 184.236C158.088 183.761 155.601 183.109 153.944 182.517C153.115 182.22 152.463 181.983 152.049 181.805C151.871 181.746 151.694 181.627 151.575 181.627C151.457 181.568 151.398 181.568 151.398 181.568C151.398 181.568 151.457 181.568 151.575 181.627C151.694 181.687 151.871 181.746 152.049 181.805C152.463 181.983 153.115 182.22 153.944 182.457C155.601 182.991 158.088 183.584 161.226 184.058C164.364 184.473 168.094 184.769 172.298 184.828C176.443 184.888 181.061 185.006 185.857 184.888C190.653 184.769 195.271 184.413 199.357 183.761C203.501 183.109 207.113 182.22 210.133 181.213C213.153 180.205 215.462 179.197 217.06 178.427C217.83 178.012 218.481 177.715 218.837 177.478C219.014 177.36 219.192 177.301 219.31 177.241C219.547 177.063 219.606 177.063 219.606 177.063Z" fill="white"/>
<path d="M151.457 198.165C151.457 198.165 151.161 198.105 150.746 197.987C150.213 197.868 149.562 197.691 148.792 197.453C147.134 196.979 144.825 196.327 142.339 195.557C139.793 194.786 137.543 194.075 135.885 193.601C135.115 193.364 134.464 193.127 133.931 192.949C133.457 192.771 133.22 192.712 133.22 192.652C133.22 192.652 133.516 192.712 133.931 192.83C134.464 192.949 135.115 193.127 135.885 193.364C137.543 193.838 139.852 194.49 142.339 195.26C144.885 196.031 147.134 196.742 148.792 197.216C149.562 197.453 150.213 197.691 150.746 197.868C151.22 198.046 151.457 198.165 151.457 198.165Z" fill="white"/>
<path d="M153.174 230.943C153.174 231.002 147.253 229.343 139.97 227.149C132.688 224.956 126.826 223.119 126.826 223.06C126.826 223 132.747 224.66 140.029 226.853C147.312 229.046 153.174 230.884 153.174 230.943Z" fill="white"/>
<path d="M238.731 160.052C238.731 160.052 238.494 160.23 238.08 160.586C237.665 160.882 237.014 161.356 236.185 161.89C234.586 162.957 232.336 164.261 229.672 165.565C227.067 166.869 224.58 167.817 222.804 168.469C221.915 168.765 221.146 169.002 220.672 169.18C220.139 169.358 219.902 169.417 219.843 169.358C219.843 169.358 220.139 169.24 220.613 169.062C221.146 168.884 221.856 168.588 222.744 168.291C224.521 167.639 226.948 166.632 229.553 165.328C232.159 164.024 234.468 162.72 236.066 161.712C236.836 161.238 237.487 160.823 237.961 160.526C238.494 160.23 238.731 160.052 238.731 160.052Z" fill="white"/>
<path d="M250.513 193.778C250.513 193.778 250.158 193.956 249.566 194.253C248.915 194.549 248.027 194.905 246.902 195.32C244.593 196.149 241.336 197.157 237.665 197.868C233.994 198.58 230.619 198.935 228.192 198.995C226.948 199.054 226.001 199.054 225.29 199.054C224.58 199.054 224.225 198.995 224.225 198.995C224.225 198.995 224.58 198.935 225.29 198.935C226.001 198.935 226.948 198.876 228.192 198.817C230.619 198.639 233.994 198.283 237.665 197.572C241.336 196.861 244.533 195.912 246.843 195.083C247.967 194.668 248.915 194.371 249.566 194.134C250.158 193.838 250.513 193.719 250.513 193.778Z" fill="white"/>
<path d="M233.461 247.599C233.461 247.599 233.461 247.48 233.52 247.243C233.58 247.006 233.58 246.71 233.639 246.295C233.698 245.88 233.816 245.406 233.876 244.813C233.935 244.22 234.053 243.568 234.053 242.857C234.053 242.501 234.113 242.086 234.113 241.731C234.113 241.316 234.113 240.901 234.113 240.486C234.113 239.597 234.053 238.708 234.053 237.759C233.876 235.803 233.639 233.729 233.106 231.536C232.573 229.343 231.863 227.327 231.093 225.549C230.678 224.66 230.323 223.83 229.909 223.06C229.731 222.704 229.553 222.289 229.317 221.934C229.139 221.578 228.902 221.282 228.725 220.926C228.369 220.274 227.955 219.74 227.659 219.266C227.363 218.792 227.067 218.377 226.771 218.022C226.534 217.725 226.356 217.488 226.238 217.251C226.119 217.073 226.06 216.955 226.06 216.955C226.06 216.955 226.119 217.014 226.297 217.192C226.475 217.369 226.652 217.607 226.889 217.903C227.126 218.199 227.481 218.614 227.777 219.088C228.132 219.563 228.488 220.096 228.902 220.748C229.08 221.044 229.317 221.4 229.494 221.756C229.731 222.111 229.909 222.467 230.086 222.882C230.501 223.652 230.915 224.482 231.33 225.371C232.099 227.15 232.81 229.165 233.343 231.358C233.876 233.551 234.172 235.685 234.29 237.641C234.349 238.589 234.409 239.538 234.349 240.427C234.349 240.842 234.349 241.256 234.29 241.671C234.231 242.086 234.231 242.442 234.172 242.798C234.113 243.509 233.994 244.22 233.935 244.754C233.876 245.346 233.757 245.82 233.698 246.235C233.639 246.591 233.52 246.887 233.52 247.184C233.52 247.539 233.52 247.599 233.461 247.599Z" fill="white"/>
<path d="M256.375 229.461C256.316 229.461 256.316 228.987 256.198 228.097C256.079 227.268 255.724 226.023 255.013 224.66C254.303 223.296 253.178 221.814 251.638 220.451C250.099 219.088 248.145 217.902 245.954 217.132C243.704 216.361 241.454 216.065 239.441 216.006C237.369 215.946 235.534 216.065 233.994 216.184C232.455 216.302 231.211 216.48 230.323 216.598C229.909 216.658 229.613 216.658 229.317 216.717C229.08 216.717 228.961 216.717 228.961 216.717C228.961 216.717 229.08 216.658 229.317 216.658C229.553 216.598 229.909 216.539 230.323 216.48C231.211 216.361 232.455 216.184 233.994 216.006C235.534 215.828 237.369 215.65 239.441 215.709C241.514 215.769 243.764 216.065 246.073 216.836C248.323 217.665 250.277 218.851 251.875 220.273C253.415 221.637 254.54 223.178 255.25 224.6C255.961 226.023 256.257 227.268 256.316 228.157C256.375 228.572 256.375 228.927 256.375 229.164C256.375 229.342 256.375 229.461 256.375 229.461Z" fill="white"/>
<path d="M192.666 212.272C192.666 212.272 192.548 212.331 192.311 212.331C192.074 212.331 191.719 212.391 191.364 212.45C190.476 212.509 189.291 212.628 187.811 212.746C184.791 212.983 180.647 213.28 176.088 213.517C171.529 213.754 167.325 213.932 164.305 213.932C162.825 213.932 161.581 213.932 160.753 213.932C160.338 213.932 160.042 213.932 159.805 213.872C159.568 213.872 159.45 213.872 159.45 213.813C159.45 213.813 159.568 213.813 159.805 213.754C160.042 213.754 160.397 213.754 160.753 213.754C161.641 213.754 162.825 213.695 164.305 213.695C167.325 213.635 171.469 213.398 176.028 213.161C180.588 212.924 184.732 212.687 187.752 212.509C189.232 212.45 190.416 212.331 191.304 212.331C191.719 212.331 192.015 212.272 192.252 212.272C192.548 212.272 192.666 212.272 192.666 212.272Z" fill="white"/>
<g opacity="0.3">
<g opacity="0.3">
<g opacity="0.3">
<path opacity="0.3" d="M196.1 213.517C199.831 214.643 204.982 214.88 208.653 213.517C205.811 217.547 200.304 219.029 195.567 217.725C190.831 216.421 186.39 211.62 186.035 206.7C188.344 209.842 192.37 212.45 196.1 213.517Z" fill="black"/>
</g>
</g>
</g>
<path d="M226.356 209.604C226.356 209.604 226.238 209.664 226.06 209.664C225.823 209.723 225.527 209.782 225.172 209.842C224.402 210.019 223.336 210.197 221.975 210.434C219.31 210.908 215.521 211.501 211.376 211.975C207.232 212.509 203.442 212.805 200.719 212.983C199.357 213.102 198.232 213.161 197.462 213.161C197.107 213.161 196.811 213.161 196.574 213.22C196.396 213.22 196.278 213.22 196.278 213.22C196.278 213.22 196.396 213.22 196.574 213.161C196.811 213.161 197.107 213.102 197.462 213.102C198.291 213.042 199.357 212.924 200.659 212.805C203.383 212.568 207.113 212.213 211.258 211.679C215.402 211.146 219.133 210.612 221.856 210.197C223.159 210.019 224.225 209.842 225.054 209.723C225.409 209.664 225.705 209.604 225.942 209.604C226.238 209.604 226.356 209.604 226.356 209.604Z" fill="white"/>
<g opacity="0.3">
<g opacity="0.3">
<path opacity="0.3" d="M220.139 183.228C219.192 193.956 222.152 204.626 224.994 214.998C225.172 215.65 225.35 216.302 225.764 216.777C226.179 217.251 226.948 217.547 227.54 217.251C228.428 216.777 228.31 215.473 228.073 214.524C225.409 204.27 222.685 193.956 220.021 183.702" fill="black"/>
</g>
</g>
<path d="M70.222 193.897L82.419 253.704H166.792H188.048C189.232 253.704 190.18 252.755 190.18 251.57C190.18 250.384 189.232 249.436 188.048 249.436H166.792L155.483 193.838C155.246 192.771 154.358 192 153.233 192L72.5311 191.111C71.0509 191.111 69.9259 192.475 70.222 193.897Z" fill="#E0E0E0"/>
<path d="M70.2219 193.897C70.2219 193.897 70.2219 193.838 70.1627 193.719C70.1627 193.601 70.1035 193.423 70.1627 193.186C70.2219 192.712 70.4588 191.941 71.2877 191.467C71.4653 191.348 71.7022 191.23 71.9982 191.171C72.235 191.111 72.5311 191.111 72.8271 191.111C73.4192 191.111 74.0113 191.111 74.7218 191.111C76.0836 191.111 77.6823 191.111 79.4585 191.171C86.6228 191.23 97.0436 191.348 110.01 191.467C116.464 191.526 123.628 191.586 131.266 191.704C135.115 191.763 139.082 191.763 143.167 191.823C145.24 191.823 147.312 191.882 149.444 191.882C150.509 191.882 151.575 191.882 152.641 191.941C152.937 191.941 153.174 191.941 153.47 191.941C153.766 192 154.003 192.06 154.299 192.178C154.832 192.415 155.246 192.89 155.483 193.423C155.601 193.66 155.661 193.956 155.72 194.253L155.897 195.083C156.016 195.616 156.134 196.15 156.253 196.683C156.49 197.75 156.667 198.876 156.904 199.943C157.378 202.136 157.792 204.329 158.266 206.582C159.154 211.086 160.101 215.65 161.049 220.333C162.943 229.698 164.956 239.478 166.97 249.495L166.851 249.377C170.818 249.377 174.963 249.377 179.107 249.377C181.18 249.377 183.311 249.377 185.384 249.377H186.982H187.752C187.989 249.377 188.285 249.377 188.581 249.436C189.114 249.554 189.647 249.91 189.943 250.384C190.298 250.858 190.416 251.451 190.298 251.985C190.179 252.696 189.765 253.289 189.173 253.644C188.877 253.822 188.522 253.881 188.166 253.941H187.219C185.916 253.941 184.614 253.941 183.37 253.941C180.824 253.941 178.219 253.941 175.732 253.941C170.64 253.941 165.667 253.941 160.693 253.941C150.805 253.941 141.273 253.941 132.095 253.941C113.741 253.941 96.9844 253.941 82.4782 253.941H82.3598V253.822C78.6296 235.448 75.61 220.511 73.5376 210.138C72.4719 204.981 71.7022 200.951 71.1101 198.165C70.814 196.802 70.6364 195.735 70.518 195.023C70.2811 194.312 70.2219 193.897 70.2219 193.897C70.2219 193.897 70.2811 194.253 70.4588 194.964C70.5772 195.675 70.814 196.683 71.1101 198.046C71.7022 200.773 72.5311 204.803 73.5969 209.96C75.7284 220.333 78.748 235.27 82.5374 253.644L82.419 253.526C96.9252 253.526 113.681 253.526 132.036 253.526C141.214 253.526 150.746 253.526 160.634 253.526C165.548 253.526 170.581 253.526 175.673 253.526C178.219 253.526 180.765 253.526 183.311 253.526C184.614 253.526 185.857 253.526 187.16 253.526H188.107C188.403 253.526 188.699 253.407 188.995 253.289C189.528 252.992 189.943 252.459 190.002 251.866C190.061 251.392 189.943 250.858 189.706 250.444C189.41 250.029 188.995 249.732 188.522 249.614C188.285 249.554 188.048 249.554 187.752 249.554H186.982H185.384C183.252 249.554 181.18 249.554 179.107 249.554C174.963 249.554 170.877 249.554 166.851 249.554H166.733V249.436C164.72 239.36 162.706 229.639 160.812 220.274C159.864 215.591 158.917 210.968 158.029 206.522C157.555 204.27 157.141 202.077 156.667 199.884C156.43 198.817 156.253 197.691 156.016 196.624C155.897 196.09 155.779 195.557 155.661 195.023L155.483 194.194C155.424 193.897 155.365 193.66 155.305 193.423C155.128 192.949 154.713 192.534 154.24 192.356C154.003 192.238 153.766 192.178 153.529 192.119C153.292 192.119 152.996 192.119 152.759 192.119C151.694 192.119 150.628 192.119 149.562 192.06C147.431 192.06 145.358 192 143.286 192C139.2 191.941 135.233 191.882 131.385 191.882C123.688 191.763 116.583 191.704 110.129 191.645C97.162 191.467 86.7413 191.348 79.577 191.289C77.8007 191.289 76.2021 191.23 74.8402 191.23C74.1297 191.23 73.5376 191.23 72.9456 191.23C72.6495 191.23 72.3535 191.23 72.1166 191.289C71.8798 191.348 71.643 191.408 71.4061 191.526C70.5772 192 70.3404 192.771 70.2811 193.245C70.1627 193.66 70.2219 193.897 70.2219 193.897Z" fill="#263238"/>
<path d="M118.892 221.281C118.892 223.237 117.352 224.778 115.398 224.778C113.445 224.778 111.905 223.237 111.905 221.281C111.905 219.325 113.445 217.784 115.398 217.784C117.352 217.784 118.892 219.385 118.892 221.281Z" fill="white"/>
<path d="M70.3403 194.431C70.3403 194.431 70.4587 194.431 70.6956 194.431C70.9324 194.431 71.2877 194.431 71.7613 194.431C72.7087 194.431 74.0705 194.431 75.8468 194.431C79.3993 194.431 84.6097 194.49 90.9451 194.49C103.734 194.608 121.319 194.727 140.799 194.846C143.227 194.846 145.654 194.905 148.023 194.905C148.615 194.905 149.207 194.905 149.799 194.905C150.095 194.905 150.391 194.905 150.687 194.964C150.983 195.023 151.279 195.142 151.516 195.32C152.049 195.675 152.404 196.209 152.582 196.802C152.7 197.394 152.819 197.928 152.937 198.52C153.825 203.025 154.713 207.352 155.483 211.501C157.141 219.8 158.562 227.209 159.805 233.492C161.049 239.775 161.996 244.813 162.706 248.31C163.062 250.029 163.299 251.392 163.476 252.34C163.535 252.815 163.654 253.17 163.654 253.407C163.713 253.644 163.713 253.763 163.713 253.763C163.713 253.763 163.654 253.644 163.654 253.407C163.595 253.17 163.535 252.815 163.417 252.34C163.239 251.392 162.943 250.029 162.588 248.31C161.877 244.813 160.871 239.715 159.568 233.492C158.325 227.209 156.845 219.8 155.187 211.501C154.358 207.352 153.47 203.025 152.582 198.52C152.463 197.987 152.345 197.394 152.226 196.861C152.108 196.327 151.753 195.853 151.279 195.557C151.042 195.438 150.805 195.32 150.509 195.26C150.273 195.201 149.976 195.201 149.68 195.201C149.088 195.201 148.496 195.201 147.904 195.201C145.536 195.201 143.108 195.142 140.681 195.142C121.201 194.964 103.616 194.846 90.8267 194.727C84.4321 194.668 79.2809 194.608 75.7284 194.549C73.9521 194.549 72.5903 194.49 71.6429 194.49C71.1693 194.49 70.814 194.49 70.5772 194.49C70.4587 194.431 70.3403 194.431 70.3403 194.431Z" fill="#263238"/>
<path d="M211.376 103.565C211.672 114.59 206.995 125.674 198.883 133.142C197.048 127.748 195.153 122.354 193.318 116.961" fill="#263238"/>
<path d="M169.338 71.3799C174.134 68.7719 179.936 68.357 185.265 69.4832C190.594 70.5501 195.627 72.9803 200.304 75.7068C202.969 77.2479 205.574 78.9076 207.528 81.3378C211.021 85.724 214.455 92.896 214.751 98.4677C215.047 102.972 213.271 114.294 211.376 118.383C209.6 122.177 201.429 125.022 197.403 125.97L160.338 82.7603C161.641 77.9592 164.956 73.7508 169.338 71.3799Z" fill="#263238"/>
<path d="M162.943 77.1888L171.825 75.5884C166.969 87.1466 165.667 113.701 162.884 125.911C159.628 121.169 151.99 106.647 152.404 100.898C152.818 95.1485 152.404 76.2404 162.943 77.1888Z" fill="#263238"/>
<path d="M205.1 96.5118C204.626 89.7547 200.245 84.183 193.673 82.5234L173.186 77.3073C164.364 76.359 158.443 87.2652 157.851 96.1561C157.2 106.055 156.786 116.427 157.97 123.837C160.279 138.655 171.647 140.552 171.647 140.552C171.647 140.552 171.647 147.605 171.647 151.932L178.515 180.324L200.6 149.798L205.159 96.7489C205.159 96.4525 205.1 96.8674 205.1 96.5118Z" fill="#FFBE9D"/>
<path d="M162.292 107.299C162.233 108.307 163.062 109.137 164.127 109.196C165.193 109.255 166.022 108.485 166.081 107.477C166.141 106.469 165.312 105.64 164.246 105.58C163.239 105.521 162.351 106.292 162.292 107.299Z" fill="#263238"/>
<path d="M160.101 101.905C160.338 102.143 161.759 101.076 163.831 101.076C165.845 101.076 167.384 102.083 167.621 101.846C167.739 101.728 167.502 101.313 166.851 100.839C166.2 100.364 165.134 99.8901 163.831 99.8901C162.588 99.8901 161.463 100.364 160.871 100.839C160.16 101.372 159.983 101.787 160.101 101.905Z" fill="#263238"/>
<path d="M180.114 107.299C180.055 108.307 180.884 109.137 181.949 109.196C183.015 109.255 183.844 108.485 183.903 107.477C183.963 106.469 183.134 105.64 182.068 105.58C181.061 105.521 180.173 106.292 180.114 107.299Z" fill="#263238"/>
<path d="M179.463 101.905C179.699 102.143 181.12 101.076 183.193 101.076C185.206 101.076 186.745 102.083 186.982 101.846C187.101 101.728 186.864 101.313 186.212 100.839C185.561 100.364 184.495 99.8901 183.193 99.8901C181.949 99.8901 180.824 100.364 180.232 100.839C179.581 101.372 179.344 101.787 179.463 101.905Z" fill="#263238"/>
<path d="M173.068 117.968C173.068 117.85 171.825 117.613 169.752 117.376C169.219 117.316 168.746 117.198 168.627 116.842C168.509 116.487 168.746 115.894 168.983 115.301C169.456 114.056 169.989 112.693 170.522 111.33C172.654 105.699 174.252 101.016 174.015 100.957C173.779 100.898 171.884 105.403 169.693 111.034C169.16 112.456 168.687 113.76 168.213 115.005C168.035 115.598 167.68 116.25 167.917 117.079C168.035 117.494 168.45 117.731 168.746 117.85C169.101 117.968 169.397 117.968 169.634 117.968C171.825 118.087 173.068 118.087 173.068 117.968Z" fill="#263238"/>
<path d="M191.245 135.217C191.245 135.217 186.449 145.412 171.588 143.989V140.492C171.647 140.492 181.416 141.144 191.245 135.217Z" fill="#EB996E"/>
<path d="M180.114 94.4964C180.292 95.0299 182.364 94.7928 184.732 95.0891C187.16 95.3262 189.054 96.0375 189.41 95.5633C189.528 95.3262 189.232 94.7928 188.462 94.2593C187.693 93.7258 186.449 93.1924 185.028 93.0146C183.607 92.8368 182.245 93.0738 181.417 93.4295C180.469 93.8444 180.055 94.2593 180.114 94.4964Z" fill="#263238"/>
<path d="M160.753 95.6817C161.108 96.1559 162.529 95.6817 164.187 95.6224C165.904 95.5631 167.325 95.9188 167.621 95.4446C167.739 95.2075 167.562 94.7333 166.91 94.3184C166.318 93.9035 165.252 93.5479 164.127 93.5479C162.943 93.6071 161.937 94.022 161.345 94.4962C160.812 94.9704 160.575 95.4446 160.753 95.6817Z" fill="#263238"/>
<path d="M161.877 82.5825C162.766 80.3301 165.252 79.0261 167.621 78.9076C170.048 78.789 172.357 79.6781 174.43 80.9229C183.252 86.0203 187.752 98.3491 196.515 103.624C198.646 104.928 201.429 103.743 203.265 105.462C205.1 107.181 206.284 109.907 205.278 112.219C206.462 110.619 207.646 108.959 208.297 107.122C208.949 105.225 209.067 103.091 208.061 101.372C207.291 100.068 205.988 99.0604 205.633 97.5786C205.337 96.2746 205.811 94.9706 205.751 93.6073C205.692 92.244 205.041 90.9993 204.39 89.8138C200.955 83.768 196.278 78.3149 190.239 74.9363C186.272 72.7432 181.772 71.4392 177.272 71.5577C172.772 71.7356 168.213 73.3952 164.897 76.4774C162.943 78.1963 160.871 80.0931 161.877 82.5825Z" fill="#263238"/>
<path d="M203.087 107.24C203.265 106.825 210.962 104.04 211.08 112.219C211.199 120.221 203.146 118.621 203.087 118.384C203.087 118.206 203.087 107.24 203.087 107.24Z" fill="#FFBE9D"/>
<path d="M205.515 115.36C205.574 115.36 205.633 115.479 205.87 115.538C206.107 115.657 206.521 115.716 206.936 115.538C207.765 115.242 208.475 113.878 208.475 112.456C208.475 111.745 208.357 111.033 208.061 110.441C207.824 109.848 207.409 109.433 206.995 109.374C206.58 109.255 206.284 109.552 206.166 109.789C206.047 110.026 206.107 110.144 206.047 110.204C206.047 110.204 205.87 110.085 205.929 109.729C205.988 109.552 206.047 109.374 206.225 109.255C206.403 109.077 206.699 109.018 206.995 109.018C207.587 109.077 208.179 109.611 208.475 110.263C208.771 110.915 209.008 111.685 208.949 112.456C208.89 114.056 208.12 115.597 206.936 115.894C206.403 116.072 205.929 115.894 205.692 115.716C205.515 115.597 205.515 115.42 205.515 115.36Z" fill="#EB996E"/>
<path d="M206.225 103.15C206.225 103.15 206.047 103.091 205.751 102.854C205.455 102.676 204.982 102.38 204.39 102.024C203.265 101.194 201.725 99.9495 200.067 98.112C198.409 96.2746 196.692 93.9037 194.798 91.2364C192.903 88.5691 190.831 85.6647 188.226 83.0567C186.864 81.7527 185.502 80.6265 183.962 79.6781C182.482 78.7298 180.884 78.0778 179.403 77.6036C176.325 76.596 173.364 76.4181 170.936 76.5367C168.509 76.7145 166.555 77.1887 165.252 77.6629C164.601 77.8407 164.127 78.0778 163.772 78.1963C163.417 78.3149 163.239 78.3741 163.239 78.3741C163.239 78.3741 163.417 78.2556 163.713 78.137C164.068 77.9592 164.542 77.7221 165.193 77.5443C166.496 77.0701 168.391 76.4774 170.877 76.2996C173.305 76.1218 176.325 76.2996 179.463 77.248C181.002 77.7221 182.601 78.4334 184.14 79.3225C185.68 80.2709 187.101 81.3971 188.462 82.7011C191.127 85.3683 193.199 88.332 195.035 90.9993C196.87 93.6666 198.587 96.0375 200.245 97.8749C201.844 99.7124 203.383 101.016 204.449 101.846C204.982 102.261 205.455 102.558 205.751 102.735C206.107 103.032 206.225 103.15 206.225 103.15Z" fill="#455A64"/>
<path d="M206.403 116.783C207.172 116.665 208.001 117.198 208.238 117.969C208.416 118.739 207.942 119.628 207.172 119.865C206.403 120.102 205.515 119.687 205.219 118.917C204.922 118.206 205.278 117.257 206.047 116.902" fill="white"/>
<path d="M206.047 116.901C206.107 116.961 205.515 117.198 205.337 117.968C205.219 118.324 205.278 118.857 205.633 119.213C205.988 119.569 206.58 119.806 207.113 119.628C207.646 119.45 208.001 118.917 208.061 118.443C208.12 117.909 207.883 117.494 207.587 117.257C206.995 116.724 206.344 116.842 206.403 116.783C206.403 116.783 206.521 116.724 206.758 116.724C206.995 116.724 207.409 116.783 207.765 117.079C208.12 117.316 208.475 117.909 208.416 118.502C208.357 119.095 207.942 119.806 207.232 120.043C206.521 120.28 205.811 119.984 205.396 119.509C204.982 119.035 204.923 118.383 205.1 117.968C205.219 117.553 205.515 117.257 205.692 117.079C205.929 116.901 206.047 116.901 206.047 116.901Z" fill="#263238"/>
<path d="M204.212 105.403C204.33 107.596 204.449 109.907 203.442 111.804C202.436 113.76 199.89 115.064 197.995 113.997C196.456 113.108 195.982 111.152 195.745 109.374C194.975 104.276 194.62 99.1197 193.85 94.0815L204.212 105.403Z" fill="#263238"/>
<path d="M163.831 78.7891C163.831 78.8484 164.542 78.6706 165.785 78.6113C167.029 78.552 168.923 78.7298 171.055 79.5597C172.121 79.9746 173.246 80.508 174.371 81.2786C175.496 81.9898 176.621 82.8789 177.805 83.8866C180.114 85.8426 182.482 88.2728 184.495 91.1179C185.502 92.5404 186.39 94.0223 187.397 95.3855C188.344 96.7488 189.41 97.9936 190.594 99.0012C192.903 101.016 195.271 102.439 197.344 103.506C199.357 104.573 201.074 105.343 202.258 105.877C202.791 106.114 203.265 106.292 203.62 106.47C203.916 106.588 204.094 106.647 204.094 106.647C204.094 106.647 203.916 106.529 203.62 106.41C203.265 106.233 202.85 105.995 202.317 105.758C201.192 105.166 199.475 104.395 197.462 103.269C195.449 102.143 193.14 100.72 190.831 98.7048C189.706 97.6972 188.64 96.5117 187.693 95.1484C186.745 93.7852 185.857 92.3626 184.791 90.8808C182.719 87.9764 180.351 85.6055 178.042 83.5902C176.857 82.5826 175.732 81.7528 174.548 80.9822C173.423 80.2117 172.239 79.6782 171.173 79.2633C168.983 78.4335 167.088 78.3149 165.785 78.4335C165.134 78.4927 164.66 78.552 164.305 78.6113C164.009 78.7298 163.831 78.7298 163.831 78.7891Z" fill="#455A64"/>
<path d="M204.449 100.483C204.449 100.483 204.686 100.661 205.159 100.957C205.692 101.254 206.403 101.668 207.172 102.143C207.409 102.261 207.646 102.38 207.824 102.558C208.061 102.676 208.357 102.795 208.712 102.854C208.889 102.854 209.067 102.854 209.245 102.735C209.422 102.617 209.541 102.439 209.541 102.202C209.541 101.787 209.304 101.491 209.186 101.194C208.475 100.068 207.705 98.7641 206.817 97.4601L206.521 97.7564C207.291 98.2899 208.12 98.7641 209.067 99.0604C210.014 99.3568 210.962 99.4753 211.909 99.4161C212.146 99.4161 212.383 99.3568 212.62 99.2975C212.856 99.2382 213.153 99.0604 213.212 98.7641C213.33 98.4677 213.212 98.1713 213.093 97.9342C212.975 97.7564 212.797 97.5786 212.62 97.4601C211.435 96.3339 210.547 95.0891 209.896 94.0222C208.593 91.8884 208.238 90.288 208.179 90.3473C208.179 90.3473 208.238 90.7622 208.416 91.4142C208.653 92.0662 209.008 93.0739 209.6 94.2C210.192 95.3262 211.08 96.571 212.324 97.7564C212.62 98.0528 212.916 98.3491 212.797 98.5862C212.679 98.8233 212.264 98.9419 211.85 98.9419C210.962 99.0012 210.074 98.8826 209.126 98.5862C208.238 98.2899 207.409 97.875 206.699 97.4008L205.751 96.6895L206.403 97.6971C207.232 99.0011 208.061 100.305 208.771 101.431C208.949 101.728 209.126 101.965 209.126 102.202C209.126 102.439 208.949 102.558 208.653 102.558C208.12 102.558 207.646 102.202 207.232 101.965C206.403 101.55 205.692 101.194 205.159 100.898C204.745 100.542 204.449 100.424 204.449 100.483Z" fill="#455A64"/>
<path d="M180.884 121.762C180.588 120.517 179.344 119.628 178.101 119.746C177.213 119.865 176.384 120.458 175.969 121.288C175.555 122.117 175.555 123.066 175.851 123.955L175.91 124.133C176.739 125.081 178.219 125.377 179.344 124.844C180.41 124.31 181.12 122.947 180.884 121.762Z" fill="#EB996E"/>
<path d="M174.43 124.133C174.43 123.837 176.502 123.896 178.042 122.236C179.581 120.517 179.463 118.324 179.759 118.324C179.877 118.324 180.114 118.858 180.114 119.747C180.114 120.636 179.759 121.999 178.811 123.007C177.864 124.014 176.621 124.429 175.792 124.489C174.903 124.548 174.371 124.311 174.43 124.133Z" fill="#263238"/>
<path d="M244 249.792C244 249.792 243.941 249.792 243.882 249.792C243.764 249.792 243.645 249.792 243.468 249.851C243.053 249.91 242.579 249.91 241.869 249.969C240.507 250.088 238.494 250.206 236.066 250.384C231.152 250.681 224.343 250.977 216.824 251.096C209.304 251.214 202.495 251.155 197.581 251.036C195.094 250.977 193.14 250.918 191.719 250.858C191.068 250.799 190.535 250.799 190.12 250.799C189.943 250.799 189.824 250.799 189.706 250.799C189.587 250.799 189.587 250.799 189.587 250.799C189.587 250.799 189.647 250.799 189.706 250.799C189.824 250.799 189.943 250.799 190.12 250.799C190.535 250.799 191.068 250.799 191.719 250.799C193.14 250.799 195.094 250.858 197.581 250.918C202.495 250.977 209.304 251.036 216.824 250.918C224.343 250.799 231.152 250.503 236.066 250.266C238.494 250.147 240.507 250.029 241.869 249.969C242.52 249.91 243.053 249.91 243.468 249.91C243.645 249.91 243.764 249.91 243.882 249.91C243.941 249.792 244 249.792 244 249.792Z" fill="white"/>
<path d="M263.439 96.5627C268.628 121.753 266.911 153.609 249.09 173.893C222.171 204.553 234.962 233.718 174.073 268.443C165.205 273.551 155.81 277.684 146.051 280.768C141.275 282.261 136.408 283.447 131.48 284.32C88.0063 292.025 50.5325 272.475 28.7451 241.106C0.0838718 199.855 17.0437 160.997 28.8845 137.048C40.7254 113.099 35.0995 52.5704 94.6902 17.9602C103.769 12.6476 113.431 8.39902 123.484 5.29866C146.457 -1.72214 173.787 -2.48816 196.202 7.41313C197.891 8.15172 199.551 8.94728 201.182 9.79982C233.188 26.3864 256.388 62.2184 263.439 96.5627Z" fill="url(#paint0_linear_991_14)"/>
<defs>
<linearGradient id="paint0_linear_991_14" x1="139.5" y1="-1.50579e-06" x2="121.845" y2="308.646" gradientUnits="userSpaceOnUse">
<stop stop-color="#CAB1DC" stop-opacity="0.26"/>
<stop offset="1" stop-color="white" stop-opacity="0"/>
</linearGradient>
</defs>
</svg>
