<svg width="342" height="286" viewBox="0 0 342 286" fill="none" xmlns="http://www.w3.org/2000/svg">
<path d="M311.439 96.5627C316.628 121.753 314.911 153.609 297.09 173.893C270.171 204.553 282.962 233.718 222.073 268.443C213.205 273.551 203.81 277.684 194.051 280.768C189.275 282.261 184.408 283.447 179.48 284.32C136.006 292.025 98.5325 272.475 76.7451 241.106C48.0839 199.855 65.0437 160.997 76.8845 137.048C88.7254 113.099 83.0995 52.5704 142.69 17.9602C151.769 12.6476 161.431 8.39902 171.484 5.29866C194.457 -1.72214 221.787 -2.48816 244.202 7.41313C245.891 8.15172 247.551 8.94728 249.182 9.79982C281.188 26.3864 304.388 62.2184 311.439 96.5627Z" fill="url(#paint0_linear_24_9082)"/>
<path d="M205.463 221.556L205.444 227.627H197.037L196.342 221.865L205.463 221.556Z" fill="white"/>
<path d="M205.753 227.936H196.748L195.975 221.556L205.772 221.228L205.753 227.936ZM197.308 227.318H205.135L205.154 221.885L196.709 222.175L197.308 227.318Z" fill="#0E2549"/>
<path d="M205.908 227.26C205.908 227.26 218.063 231.127 218.488 234.297H196.69V227.26H205.908Z" fill="#D296FF"/>
<path d="M171.567 221.691L171.335 227.82H162.929L162.523 221.556L171.567 221.691Z" fill="white"/>
<path d="M171.625 228.149H162.62L162.175 221.247L171.876 221.382L171.625 228.149ZM163.219 227.511H171.026L171.239 222.001L162.871 221.885L163.219 227.511Z" fill="#0E2549"/>
<path d="M171.799 227.453C171.799 227.453 183.955 231.32 184.38 234.491H162.562V227.453H171.799Z" fill="#D296FF"/>
<path d="M185.153 233.292V235.128H162.001V233.021L185.153 233.292Z" fill="#0E2549"/>
<path d="M196.013 232.963V234.916H219.165V232.828L196.013 232.963Z" fill="#0E2549"/>
<path d="M174.35 222.793H160.958L159.818 115.472L198.41 122.142L207.589 222.793H194.699L181.21 155.918L182.756 141.263L174.35 222.793Z" fill="#0E2549"/>
<path d="M165.248 220.744C165.074 220.744 164.939 220.589 164.939 220.415L166.91 131.519C166.91 131.345 167.064 131.209 167.238 131.209C167.412 131.209 167.548 131.364 167.548 131.538L165.576 220.435C165.557 220.609 165.422 220.744 165.248 220.744Z" fill="#D296FF"/>
<path d="M197.733 220.377L184.012 142.365C183.993 142.268 183.935 142.191 183.858 142.152L184.612 137.744V137.725V128.928C184.612 128.754 184.476 128.619 184.302 128.619C184.128 128.619 183.993 128.754 183.993 128.928V137.667L180.901 155.879C180.862 156.053 180.978 156.208 181.152 156.247C181.172 156.247 181.191 156.247 181.21 156.247C181.365 156.247 181.5 156.131 181.52 155.976L183.607 143.68L197.115 220.493C197.134 220.647 197.269 220.744 197.424 220.744C197.443 220.744 197.463 220.744 197.482 220.744C197.656 220.725 197.772 220.551 197.733 220.377Z" fill="#D296FF"/>
<path d="M188.689 128.928C188.689 128.928 188.554 137.822 187.008 138.112H172.224C171.741 137.648 170.968 134.999 175.606 134.902C180.244 134.806 181.616 134.902 181.616 134.902L181.404 128.948H188.689V128.928Z" fill="white"/>
<path d="M187.027 138.363H172.108L172.031 138.286C171.702 137.957 171.393 137.106 171.702 136.314C171.992 135.56 172.901 134.67 175.587 134.612C179.085 134.535 180.708 134.574 181.326 134.593L181.114 128.638H188.94V128.909C188.902 131.036 188.689 138.034 187.046 138.344L187.027 138.363ZM172.359 137.822H186.988C187.781 137.609 188.341 133.24 188.419 129.18H181.693L181.906 135.154L181.616 135.134C181.597 135.134 180.186 135.038 175.625 135.134C173.248 135.192 172.456 135.908 172.224 136.507C172.012 137.048 172.205 137.609 172.359 137.822Z" fill="#0E2549"/>
<path d="M206.603 57.838C206.603 57.838 203.028 67.4469 203.531 68.7616C204.033 70.057 204.11 75.0838 204.11 75.0838L194.429 93.7022L178.543 87.786L181.945 70.811C181.945 70.811 191.008 66.7316 191.781 65.6102C192.863 64.0442 195.318 54.8413 195.318 54.8413L206.603 57.838Z" fill="white"/>
<path d="M194.564 94.0886L178.196 87.9791L181.674 70.598L181.809 70.54C185.423 68.916 190.989 66.2093 191.53 65.4359C192.573 63.9472 195.008 54.8603 195.028 54.7637C195.066 54.609 195.24 54.5123 195.395 54.551C195.55 54.5897 195.646 54.7637 195.607 54.9183C195.511 55.305 193.134 64.1986 192.032 65.7839C191.259 66.9053 183.626 70.3854 182.215 71.0234L178.911 87.6117L194.313 93.3539L203.84 75.0255C203.821 74.4068 203.724 70.0374 203.28 68.8773C202.758 67.5433 205.753 59.3651 206.352 57.7411C206.41 57.5864 206.584 57.5091 206.739 57.5671C206.893 57.6251 206.971 57.7991 206.913 57.9538C205.541 61.6272 203.511 67.7946 203.84 68.6647C204.342 69.9987 204.439 74.8901 204.439 75.0835V75.1608L204.4 75.2188L194.564 94.0886Z" fill="#0E2549"/>
<path d="M210.449 37.4797C212.382 38.369 217.097 40.4571 215.899 44.0338C214.527 48.1326 212.072 53.1594 210.739 55.7887C210.217 56.8328 209 57.3161 207.898 56.9488L195.549 52.8113C194.409 52.4247 193.752 51.2646 194.003 50.0853C194.834 46.1412 196.67 37.8277 197.54 36.7837C200.458 33.1876 207.396 36.0876 210.449 37.4797Z" fill="#0E2549"/>
<path d="M195.627 55.8077C195.202 54.8991 195.839 52.057 196.806 48.9056C196.825 48.8089 196.806 48.7123 196.748 48.6543C196.091 47.9002 195.279 46.4695 195.82 44.9422C196.303 43.6081 197.173 44.2075 197.791 44.9035C197.907 45.0195 198.1 44.9808 198.158 44.8262C199.472 41.0754 200.787 37.8467 200.787 37.8467L215.454 42.7575C215.454 42.7575 214.295 46.1022 212.903 49.8336C212.845 50.0076 209.212 58.7851 208.594 59.4812C208.246 59.8678 207.763 60.0998 207.164 60.2352C207.164 60.2352 205.966 60.6992 200.632 58.9011L195.627 55.8077Z" fill="white"/>
<path d="M206.661 60.5833C205.85 60.5833 204.072 60.3706 200.555 59.1912C200.4 59.1332 200.323 58.9785 200.361 58.8045C200.419 58.6499 200.593 58.5725 200.748 58.6112C205.792 60.2932 207.067 59.9452 207.086 59.9452H207.125C207.686 59.8099 208.111 59.5972 208.401 59.2879C208.961 58.6692 212.517 50.085 212.652 49.737C213.812 46.6823 214.797 43.8402 215.106 42.9509L200.999 38.2334C200.671 39.0841 199.569 41.8488 198.468 44.9422C198.41 45.1162 198.255 45.2516 198.081 45.2902C197.907 45.3289 197.733 45.2709 197.598 45.1356C197.192 44.6716 196.806 44.4396 196.574 44.4782C196.361 44.5169 196.206 44.8262 196.129 45.0582C195.569 46.6049 196.554 47.9583 196.999 48.4803C197.134 48.635 197.173 48.8283 197.115 49.0217C195.627 53.8938 195.723 55.3051 195.917 55.7111C195.994 55.8658 195.917 56.0398 195.781 56.1171C195.627 56.1945 195.453 56.1171 195.376 55.9818C194.95 55.1118 195.337 52.7724 196.535 48.8863C196.013 48.287 194.912 46.7016 195.569 44.8842C195.781 44.3236 196.071 43.9949 196.477 43.9175C196.922 43.8209 197.424 44.0722 197.965 44.6522C199.26 40.9981 200.555 37.8081 200.555 37.7694L200.651 37.5181L215.879 42.6222L215.783 42.9122C215.763 42.9509 214.604 46.3149 213.232 49.9883C213.193 50.0657 209.56 58.9592 208.864 59.7326C208.497 60.1386 207.975 60.4286 207.299 60.5833C207.202 60.5252 207.009 60.5833 206.661 60.5833Z" fill="#0E2549"/>
<path d="M204.632 48.5963C204.574 48.5963 204.516 48.577 204.439 48.5576C204.168 48.461 204.053 48.1516 204.149 47.9003L204.265 47.6103C204.362 47.3396 204.671 47.2236 204.922 47.3203C205.193 47.417 205.309 47.7263 205.212 47.9776L205.096 48.2676C205.038 48.461 204.845 48.5963 204.632 48.5963Z" fill="#0E2549"/>
<path d="M210.72 50.8971C210.662 50.8971 210.604 50.8971 210.546 50.8778C210.275 50.7811 210.14 50.4911 210.236 50.2398L210.352 49.8918C210.449 49.6211 210.739 49.4857 210.99 49.5824C211.261 49.6791 211.396 49.9691 211.299 50.2204L211.183 50.5684C211.145 50.7618 210.932 50.8971 210.72 50.8971Z" fill="#0E2549"/>
<path d="M202.41 45.5414C202.313 45.5414 202.197 45.5027 202.12 45.4254C201.965 45.2707 201.965 45.0193 202.12 44.8453C203.666 43.2793 206.256 44.1107 206.352 44.1493C206.565 44.2267 206.681 44.4587 206.603 44.6713C206.526 44.884 206.294 45 206.082 44.9227C206.062 44.9227 203.859 44.2073 202.68 45.406C202.622 45.4834 202.526 45.5414 202.41 45.5414Z" fill="#0E2549"/>
<path d="M207.357 52.9273C207.164 52.9273 207.009 52.9079 206.913 52.9079C206.719 52.8886 206.584 52.7146 206.603 52.5212C206.623 52.3279 206.797 52.1926 206.99 52.2119C207.512 52.2699 208.053 52.1926 208.111 52.0766C208.207 51.8832 208.343 50.6652 208.439 49.6792C208.652 47.8038 208.787 46.6438 209 46.2764C209.116 46.0831 209.29 45.9671 209.521 45.9284C210.546 45.7738 212.362 47.3785 212.71 47.7071C212.845 47.8425 212.865 48.0552 212.729 48.1905C212.594 48.3258 212.382 48.3452 212.246 48.2098C210.72 46.8371 209.734 46.5085 209.579 46.6245C209.425 46.8951 209.232 48.6158 209.096 49.7565C208.903 51.4579 208.806 52.1732 208.671 52.4052C208.478 52.8499 207.84 52.9273 207.357 52.9273Z" fill="#0E2549"/>
<path d="M211.782 43.2796C213.715 43.8016 217.522 44.2656 218.392 40.3988C219.261 36.5321 218.082 37.6534 218.082 37.6534C218.082 37.6534 217.039 38.2335 216.73 38.1755C216.42 38.1175 216.962 38.5235 216.981 35.1014C216.981 35.1014 214.353 33.6514 212.555 35.0241C210.758 36.3968 210.217 35.1207 210.063 34.0767C209.927 33.1873 208.42 33.7867 207.937 34.4827C207.222 35.1981 203.048 33.342 201.56 33.5547C199.202 33.9027 198.371 34.1154 197.54 36.8028C197.385 37.3248 196.535 42.5836 196.535 42.5836L199.898 37.8661C199.898 37.8661 208.632 42.4289 211.782 43.2796Z" fill="#0E2549"/>
<path d="M207.86 55.0347C207.956 55.286 207.57 56.0594 206.855 55.75C205.038 54.9573 203.84 53.024 204.246 53.2753C204.4 53.372 205.483 54.0873 206.236 54.474C207.26 54.996 207.744 54.7447 207.86 55.0347Z" fill="#0E2549"/>
<path d="M192.206 65.958C192.206 65.958 204.42 70.2694 204.903 70.3081C205.386 70.3468 197.289 125.68 197.289 125.68L171.606 117.424L192.206 65.958Z" fill="#CAB1DC"/>
<path d="M175.181 131.577C175.007 131.577 174.872 131.442 174.872 131.268V85.9299C174.872 85.7559 175.007 85.6206 175.181 85.6206C175.355 85.6206 175.49 85.7559 175.49 85.9299V131.268C175.49 131.442 175.355 131.577 175.181 131.577Z" fill="#0E2549"/>
<path d="M210.352 95.616C211.28 97.2593 231.262 82.585 231.552 81.4636C232.228 78.8923 230.586 76.5335 230.779 75.7795C231.069 74.6002 233.523 78.3316 234.064 79.4143C234.161 79.6076 234.296 79.6076 234.47 79.5109C236.634 78.3122 242.335 74.8515 242.625 76.0502C242.896 77.1522 237.195 79.8783 237.253 80.1489C237.369 80.8643 237.89 83.4744 235.03 84.6344C233.175 85.3884 228.17 103.195 218.507 101.319C208.864 99.444 209.425 93.9726 210.352 95.616Z" fill="white"/>
<path d="M219.938 101.783C219.454 101.783 218.952 101.745 218.45 101.629C211.299 100.237 209.599 96.8725 209.56 95.6931C209.541 95.1711 209.811 95.0358 209.908 95.0164C210.043 94.9778 210.333 94.9778 210.604 95.4418C211.087 95.5578 213.831 94.3591 221.271 89.139C226.547 85.4269 230.953 81.9468 231.243 81.3861C231.649 79.8201 231.146 78.3121 230.76 77.21C230.528 76.5527 230.373 76.0693 230.45 75.7213C230.547 75.3347 230.818 75.2573 230.914 75.2573C230.933 75.2573 230.953 75.2573 230.953 75.2573C232.016 75.2573 234.064 78.8534 234.277 79.2594C234.547 79.1047 234.856 78.9307 235.224 78.7181C239.282 76.398 241.659 75.1993 242.528 75.586C242.722 75.6633 242.838 75.818 242.896 76.0113C243.108 76.8234 241.659 77.848 238.76 79.5494C238.296 79.8201 237.755 80.1294 237.562 80.2841C237.929 82.5848 237.098 84.1509 235.127 84.9629C234.741 85.1175 233.871 86.8189 233.059 88.4623C230.508 93.5084 226.353 101.783 219.938 101.783ZM210.236 95.9445C210.275 96.1185 210.352 96.3311 210.507 96.6018C211.029 97.5492 212.845 99.8885 218.585 101.01C225.387 102.344 229.851 93.4504 232.518 88.1336C233.716 85.7362 234.335 84.5762 234.914 84.3249C237.465 83.3002 237.079 80.9994 236.963 80.2454L236.944 80.1874C236.886 79.8781 237.079 79.7814 238.47 78.9501C239.301 78.4667 240.325 77.8674 241.118 77.2874C242.355 76.398 242.316 76.108 242.316 76.108C242.297 76.0887 241.91 75.9147 239.688 76.978C238.316 77.6354 236.731 78.5441 235.571 79.2207C235.204 79.4334 234.895 79.6074 234.625 79.7621C234.451 79.8588 234.277 79.8974 234.122 79.8394C234.025 79.8008 233.871 79.7234 233.774 79.5301C233.233 78.4281 231.629 76.1467 231.069 75.876C231.049 76.0693 231.204 76.5334 231.359 76.978C231.745 78.0994 232.306 79.7814 231.842 81.5408C231.61 82.3915 224.943 87.2829 222.392 89.1003C219.57 91.111 212.787 95.7898 210.816 96.0411C210.546 96.0991 210.352 96.0411 210.236 95.9445Z" fill="#0E2549"/>
<path d="M151.489 120.421C151.489 120.421 167.818 70.018 174.679 65.4359C181.52 60.8538 183.703 61.6078 189.308 61.6465C194.912 61.6852 194.989 76.2628 193.211 81.2316C190.95 87.5344 179.123 126.647 179.123 126.647L151.489 120.421Z" fill="#D296FF"/>
<path d="M191.878 129.527C191.878 129.527 197.694 89.7384 200.052 81.6763C201.54 76.6108 202.932 65.9192 205.869 66.8473C212.188 68.858 215.821 91.4205 215.821 91.4205L228.479 81.0382L236.074 91.8845C236.074 91.8845 223.648 112.572 214.237 112.475C210.082 112.436 205.135 101.145 205.135 101.145L201.463 131.673L191.878 129.527Z" fill="#D296FF"/>
<path d="M176.282 84.4414L175.181 132.795L189.307 132.989L190.08 81.0967L176.282 84.4414Z" fill="#D296FF"/>
<path d="M189.636 133.336L174.833 133.124L175.954 84.4412C175.954 84.2479 176.109 84.0932 176.302 84.1125C176.495 84.1125 176.63 84.2672 176.63 84.4605L175.529 132.466L188.979 132.66L189.752 81.1158C189.752 80.9224 189.907 80.7871 190.081 80.7871C190.274 80.7871 190.409 80.9418 190.409 81.1351L189.636 133.336Z" fill="#0E2549"/>
<path d="M205.038 99.5793C205.019 99.5793 205.019 99.5793 204.999 99.5793C204.806 99.5599 204.69 99.3859 204.709 99.1926L206.623 84.2862C206.642 84.0929 206.816 83.9769 207.009 83.9962C207.202 84.0156 207.318 84.1896 207.299 84.3829L205.386 99.2892C205.347 99.4439 205.193 99.5793 205.038 99.5793Z" fill="#0E2549"/>
<path d="M97.6878 184.687H63.1734C58.5354 184.687 54.7864 180.936 54.7864 176.296V105.322C54.7864 100.682 58.5354 96.9312 63.1734 96.9312H90.5569C95.1949 96.9312 98.944 100.682 98.944 105.322V169.549L106.075 176.296C106.075 180.936 102.326 184.687 97.6878 184.687Z" fill="#D296FF"/>
<path d="M97.6878 185.016H63.1734C58.3614 185.016 54.4385 181.091 54.4385 176.277V105.322C54.4385 100.508 58.3614 96.583 63.1734 96.583H90.5569C95.3688 96.583 99.2918 100.508 99.2918 105.322V169.413L106.423 176.161V176.315C106.423 181.11 102.5 185.016 97.6878 185.016ZM63.1734 97.2597C58.7286 97.2597 55.1149 100.875 55.1149 105.322V176.296C55.1149 180.743 58.7286 184.358 63.1734 184.358H97.6878C102.075 184.358 105.669 180.82 105.746 176.451L98.6154 169.684V105.303C98.6154 100.856 95.0016 97.2404 90.5569 97.2404H63.1734V97.2597Z" fill="#0E2549"/>
<path d="M78.7493 172.101L64.3522 172.352C66.2653 148.997 60.5645 114.196 60.5065 113.848C60.4678 113.655 60.2939 113.539 60.12 113.578C59.9267 113.616 59.8108 113.79 59.8494 113.964C59.9074 114.312 65.6083 149.094 63.6951 172.352L60.6224 172.41C60.4292 172.41 60.2939 172.565 60.2939 172.758C60.2939 172.952 60.4485 173.087 60.6224 173.087L78.7686 172.778C78.9619 172.778 79.0971 172.623 79.0971 172.43C79.0778 172.236 78.9425 172.101 78.7493 172.101Z" fill="#0E2549"/>
<path d="M87.4069 228.246H84.1989V188.65C86.228 188.244 87.7547 186.62 87.7547 184.687H78.614C78.614 186.62 80.1407 188.225 82.1698 188.65V228.246H78.9619C75.7926 228.246 73.203 230.817 73.203 234.007V235.129H93.1464V234.007C93.1657 230.817 90.5955 228.246 87.4069 228.246Z" fill="#0E2549"/>
<path d="M149.382 212.141L154.928 226.061H145.285L140.512 217.167L149.382 212.141Z" fill="white"/>
<path d="M155.47 226.428H145.053L140.01 217.032L149.556 211.599L155.47 226.428ZM145.498 225.674H154.368L149.17 212.662L140.995 217.303L145.498 225.674Z" fill="#0E2549"/>
<path d="M155.45 225.597C155.45 225.597 169.403 230.314 169.886 234.22H144.879V225.597H155.45Z" fill="#CAB1DC"/>
<path d="M117.94 218.482L116.82 226.177H107.679L108.645 217.805L117.94 218.482Z" fill="white"/>
<path d="M117.148 226.544H107.273L108.336 217.399L118.385 218.134L117.148 226.544ZM108.104 225.79H116.491L117.515 218.811L108.974 218.192L108.104 225.79Z" fill="#0E2549"/>
<path d="M117.341 225.713C117.341 225.713 131.294 230.43 131.777 234.336H106.771V225.713H117.341Z" fill="#CAB1DC"/>
<path d="M132.685 232.866V235.09H106.114V232.538L132.685 232.866Z" fill="#0E2549"/>
<path d="M144.087 232.596V234.993H170.678V232.422L144.087 232.596Z" fill="#0E2549"/>
<path d="M118.288 228.864C118.153 228.864 118.018 228.768 117.96 228.632C117.902 228.458 117.998 228.265 118.172 228.207L123.004 226.66C123.177 226.602 123.371 226.699 123.429 226.873C123.487 227.047 123.39 227.24 123.216 227.298L118.385 228.845C118.346 228.864 118.327 228.864 118.288 228.864Z" fill="#0E2549"/>
<path d="M120.704 230.411C120.569 230.411 120.433 230.314 120.375 230.179C120.317 230.005 120.414 229.812 120.588 229.754L125.419 228.207C125.593 228.149 125.786 228.245 125.844 228.419C125.902 228.593 125.806 228.787 125.632 228.845L120.801 230.392C120.762 230.411 120.723 230.411 120.704 230.411Z" fill="#0E2549"/>
<path d="M124.047 231.958C123.912 231.958 123.777 231.861 123.719 231.726C123.661 231.552 123.757 231.358 123.931 231.3L128.762 229.754C128.936 229.696 129.13 229.792 129.188 229.966C129.246 230.14 129.149 230.334 128.975 230.392L124.144 231.938C124.105 231.958 124.066 231.958 124.047 231.958Z" fill="#0E2549"/>
<path d="M155.701 228.245C155.566 228.245 155.431 228.149 155.373 228.013C155.315 227.839 155.412 227.646 155.586 227.588L160.417 226.041C160.591 225.983 160.784 226.08 160.842 226.254C160.9 226.428 160.803 226.621 160.629 226.679L155.798 228.226C155.779 228.226 155.74 228.245 155.701 228.245Z" fill="#0E2549"/>
<path d="M158.117 229.773C157.982 229.773 157.847 229.677 157.789 229.541C157.731 229.367 157.827 229.174 158.001 229.116L162.832 227.569C163.006 227.511 163.2 227.608 163.258 227.782C163.316 227.956 163.219 228.149 163.045 228.207L158.214 229.754C158.194 229.773 158.156 229.773 158.117 229.773Z" fill="#0E2549"/>
<path d="M161.46 231.32C161.325 231.32 161.19 231.223 161.132 231.088C161.074 230.914 161.17 230.72 161.344 230.662L166.176 229.115C166.349 229.057 166.543 229.154 166.601 229.328C166.659 229.502 166.562 229.696 166.388 229.754L161.557 231.3C161.538 231.32 161.499 231.32 161.46 231.32Z" fill="#0E2549"/>
<path d="M107.698 154.275C107.698 154.275 138.348 152.921 139.121 160.404C139.894 167.905 121.09 220.938 121.09 220.938L106.345 218.85C106.345 218.85 116.955 179.969 116.491 177.166C114.674 166.126 72.2948 152.728 72.2948 152.728L107.698 154.275Z" fill="#CAB1DC"/>
<path d="M66.7871 148.417C66.7871 148.417 63.0961 172.622 80.7204 174.111C98.5188 175.619 115.583 175.348 119.448 179.157C120.588 180.279 140.551 220.937 140.551 220.937L154.503 215.427C154.503 215.427 131.178 165.102 129.381 162.665C126.153 158.315 123.719 155.957 107.698 154.255C93.243 152.728 66.7871 148.417 66.7871 148.417Z" fill="#4B0082"/>
<path d="M108.838 83.5712C108.838 83.5712 105.63 93.0254 106.21 94.2434C106.79 95.4808 111.119 98.4002 111.119 98.4002L98.0743 118.739L81.3389 113.771L83.9864 97.2208C83.9864 97.2208 93.1464 92.8514 93.9001 91.7301C94.9437 90.1834 97.0114 81.1738 97.0114 81.1738L108.838 83.5712Z" fill="white"/>
<path d="M98.1903 119.106L97.9777 119.029L81.0104 114.002L83.7159 97.0465L83.8511 96.9885C87.3683 95.3065 93.1271 92.3678 93.6489 91.5944C94.6538 90.1057 96.7023 81.2315 96.7216 81.1348C96.7602 80.9802 96.9148 80.8835 97.0694 80.9028C97.224 80.9415 97.3207 81.0962 97.3013 81.2509C97.224 81.6182 95.1949 90.3184 94.1514 91.9038C93.417 93.0251 85.687 96.7372 84.257 97.4332L81.6674 113.558L97.9197 118.391L110.694 98.4772C109.708 97.8006 106.461 95.4998 105.94 94.3591C105.341 93.0831 108.007 85.0596 108.548 83.4549C108.606 83.3002 108.761 83.2229 108.935 83.2616C109.09 83.3196 109.167 83.4742 109.128 83.6482C107.911 87.2637 106.114 93.2765 106.5 94.1078C106.944 95.0552 110.114 97.3365 111.293 98.1486L111.525 98.3032L98.1903 119.106Z" fill="#0E2549"/>
<path d="M110.133 63.8891C112.22 64.5465 117.283 66.1125 116.433 69.6699C115.447 73.73 113.438 78.7954 112.336 81.4635C111.892 82.5075 110.713 83.1069 109.534 82.8555L96.393 80.0715C95.1949 79.8201 94.3832 78.7568 94.5185 77.6161C94.9823 73.7493 96.0258 65.5905 96.7795 64.4885C99.4077 60.7184 106.848 62.8257 110.133 63.8891Z" fill="#0E2549"/>
<path d="M96.7603 82.914C96.2192 82.0827 96.6057 79.2986 97.282 76.1665C97.3014 76.0699 97.2627 75.9925 97.2047 75.9152C96.4511 75.2578 95.4655 73.9625 95.8713 72.4351C96.2192 71.1011 97.1854 71.6038 97.9004 72.2031C98.0357 72.3191 98.229 72.2418 98.2676 72.0871C99.2532 68.3557 100.258 65.127 100.258 65.127L115.873 68.433C115.873 68.433 115.022 71.7584 113.96 75.4705C113.921 75.6445 111.08 84.422 110.5 85.1567C110.191 85.5627 109.708 85.8334 109.109 86.0267C109.109 86.0267 107.93 86.5874 102.249 85.3694L96.7603 82.914Z" fill="white"/>
<path d="M107.93 86.4711C106.906 86.4711 105.147 86.3164 102.191 85.6784C102.036 85.6397 101.92 85.4851 101.959 85.3304C101.997 85.1757 102.152 85.0597 102.307 85.0984C107.698 86.2391 108.974 85.7751 108.993 85.7751L109.012 85.7557C109.573 85.5817 109.998 85.3304 110.249 84.9824C110.752 84.3444 113.554 75.7409 113.65 75.3928C114.52 72.3574 115.254 69.5541 115.486 68.6647L100.451 65.4746C100.2 66.306 99.3498 69.09 98.5381 72.1641C98.4995 72.3381 98.3642 72.4735 98.1903 72.5315C98.0164 72.5895 97.8231 72.5508 97.6878 72.4348C97.2047 72.0288 96.7796 71.8354 96.5477 71.9128C96.3351 71.9708 96.2191 72.2801 96.1418 72.5121C95.736 74.0202 96.8762 75.2382 97.3786 75.7022C97.5332 75.8375 97.5912 76.0309 97.5526 76.2242C96.509 81.0383 96.7602 82.3723 96.9921 82.7397C97.0888 82.875 97.0501 83.0684 96.8955 83.1457C96.7602 83.2424 96.567 83.2037 96.4897 83.049C96.2964 82.759 95.7167 81.8503 96.9535 76.1082C96.3544 75.5669 95.0596 74.1555 95.5428 72.3381C95.6974 71.7774 95.9679 71.4294 96.3351 71.3134C96.7796 71.1781 97.3207 71.3714 97.9584 71.8741C98.9246 68.22 99.9295 65.03 99.9295 65.0106L100.007 64.7593L116.201 68.2007L116.124 68.51C116.124 68.5487 115.274 71.8934 114.211 75.5669C114.191 75.6442 111.351 84.557 110.713 85.3497C110.384 85.7751 109.863 86.1038 109.186 86.3164C109.109 86.3744 108.761 86.4711 107.93 86.4711Z" fill="#0E2549"/>
<path d="M103.621 75.1224C103.563 75.1224 103.524 75.1224 103.466 75.103C103.195 75.0257 103.041 74.7357 103.118 74.465L103.215 74.175C103.292 73.9044 103.582 73.7497 103.853 73.827C104.123 73.9044 104.278 74.1944 104.2 74.465L104.104 74.755C104.026 74.987 103.833 75.1224 103.621 75.1224Z" fill="#0E2549"/>
<path d="M110.809 76.6687C110.771 76.6687 110.732 76.6687 110.674 76.6494C110.404 76.572 110.23 76.3014 110.307 76.0307L110.404 75.6827C110.481 75.412 110.751 75.238 111.022 75.3153C111.293 75.3927 111.467 75.6633 111.389 75.934L111.293 76.282C111.235 76.514 111.022 76.6687 110.809 76.6687Z" fill="#0E2549"/>
<path d="M105.34 73.0149C105.263 73.0149 105.186 72.9956 105.109 72.9376C105.089 72.9183 104.046 72.2029 102.712 72.3962C102.48 72.4349 102.287 72.2802 102.248 72.0482C102.21 71.8356 102.364 71.6229 102.596 71.5842C104.258 71.3329 105.534 72.2222 105.592 72.2609C105.766 72.3962 105.824 72.6476 105.688 72.8216C105.592 72.9569 105.476 73.0149 105.34 73.0149Z" fill="#0E2549"/>
<path d="M104.026 80.0135C103.698 80.3036 104.664 81.7342 106.152 81.9856C108.568 82.3916 109.669 81.0189 109.07 81.0189C108.838 81.0189 107.853 81.2896 106.423 81.0189C104.857 80.7096 104.239 79.8202 104.026 80.0135Z" fill="#0E2549"/>
<path d="M107.002 79.4531C106.983 79.4531 106.964 79.4531 106.964 79.4531C106.771 79.4531 106.616 79.2984 106.616 79.1051C106.616 78.9118 106.771 78.7571 106.964 78.7571C106.983 78.7571 106.983 78.7571 107.002 78.7571C107.563 78.7571 108.065 78.6217 108.123 78.5057C108.239 78.2351 108.259 78.2351 107.988 76.6304C107.93 76.263 107.853 75.8377 107.775 75.3157V75.2963C107.775 75.1803 107.698 74.0976 108.027 73.421C108.143 73.189 108.413 73.015 108.819 72.9376C109.863 72.7249 111.679 73.0536 112.568 73.8656C112.703 74.001 112.723 74.2136 112.587 74.349C112.452 74.4843 112.24 74.5037 112.104 74.3683C111.447 73.769 110.075 73.4983 109.186 73.5563C108.8 73.595 108.645 73.6916 108.606 73.711C108.413 74.117 108.413 74.929 108.433 75.219C108.51 75.741 108.587 76.1664 108.645 76.5144C108.916 78.1771 108.935 78.3124 108.722 78.7957C108.471 79.3951 107.389 79.4531 107.002 79.4531Z" fill="#0E2549"/>
<path d="M98.5768 64.566C98.5768 64.566 98.4415 60.6219 101.089 61.1052C103.737 61.5692 104.181 58.9592 106.655 59.4232C109.128 59.8872 107.737 60.5446 110.268 61.3179C112.8 62.0913 114.153 60.7186 114.752 62.7679C115.351 64.8173 117.38 64.4306 118.211 65.842C119.023 67.2534 118.655 68.8194 117.361 69.2641C116.066 69.7088 117.94 70.9075 116.858 71.9708C115.776 73.0342 111.505 72.6668 110.887 70.9655C110.268 69.2641 109.94 68.1041 108.355 67.9301C106.771 67.7561 104.799 68.4521 103.737 68.0847C102.674 67.7174 101.282 66.48 100.683 66.7314C100.084 67.002 99.4077 67.9494 98.828 67.8334C98.2676 67.7174 96.567 65.7067 98.5768 64.566Z" fill="#0E2549"/>
<path d="M101.07 65.1269C101.07 65.1269 100.355 67.0216 99.601 67.8337C98.828 68.6457 97.7845 69.1677 97.8038 70.5404C97.8231 71.9131 94.5572 69.8057 95.4655 68.3943C97.34 65.4943 94.5186 64.6243 96.3738 63.1742C97.4753 62.3042 99.4271 62.4589 99.4271 62.4589L101.07 65.1269Z" fill="#0E2549"/>
<path d="M101.07 65.1269C101.07 65.1269 100.355 67.0216 99.601 67.8337C98.828 68.6457 97.7845 69.1677 97.8038 70.5404C97.8231 71.9131 94.5572 69.8057 95.4655 68.3943C97.34 65.4943 94.5186 64.6243 96.3738 63.1742C97.4753 62.3042 99.4271 62.4589 99.4271 62.4589L101.07 65.1269Z" fill="#0E2549"/>
<path d="M89.0302 91.4977C85.629 89.7384 64.1783 104.567 58.1296 124.114C51.3272 146.058 76.2564 139.89 76.2564 139.89L72.4107 115.414L66.1881 150.562L106.152 154.274L110.346 128.155C110.346 128.155 108.49 139.716 123.332 139.967C129.864 140.083 139.121 139.967 139.121 139.967L140.183 129.972L123.525 127.594C123.525 127.594 122.018 108.763 115.409 101.919C112.317 98.6899 109.766 96.7952 108.413 96.4665C104.374 95.4805 106.287 100.391 89.0302 91.4977Z" fill="#CAB1DC"/>
<path d="M112.839 135.888L120.762 135.057L123.332 135.733L123.699 136.681C123.699 136.681 119.467 136.429 116.974 137.183C114.481 137.937 112.568 137.705 112.568 137.705L112.433 137.125L112.839 135.888Z" fill="white"/>
<path d="M111.505 138.479C107.988 138.17 92.9338 140.219 92.9338 140.219L94.2093 132.08C94.2093 132.08 110.636 134.883 111.892 134.516C114.23 133.839 117.322 133.433 120.085 133.336C123.738 133.201 127.139 134.071 127.081 135.057C127.042 135.598 122.134 135.173 120.878 135.676C117.303 137.087 114.017 138.692 111.505 138.479Z" fill="white"/>
<path d="M92.4508 140.702L93.8615 131.615L94.2674 131.693C100.548 132.756 110.868 134.38 111.756 134.148C113.979 133.51 117.071 133.065 120.047 132.949C123.197 132.833 126.25 133.433 127.158 134.361C127.448 134.651 127.487 134.921 127.487 135.115C127.448 135.772 126.54 135.791 124.337 135.83C123.1 135.849 121.574 135.869 121.032 136.101C120.472 136.333 119.892 136.565 119.351 136.797C116.452 137.995 113.708 139.136 111.505 138.943C108.085 138.653 93.1658 140.663 93.0112 140.683L92.4508 140.702ZM94.5379 132.543L93.4171 139.735C96.1805 139.368 108.355 137.802 111.544 138.073C113.554 138.247 116.201 137.145 119.003 135.985C119.564 135.753 120.124 135.521 120.704 135.289C121.38 135.018 122.868 134.999 124.298 134.96C125.052 134.941 126.038 134.921 126.521 134.863C125.806 134.225 123.1 133.626 120.066 133.742C117.148 133.858 114.133 134.303 111.988 134.921C110.771 135.269 98.0551 133.143 94.5379 132.543Z" fill="#0E2549"/>
<path d="M113.612 136.352L121.805 135.134L121.419 135.25C121.419 135.25 129.207 136.546 117.747 137.493C115.119 137.706 112.993 137.454 113.128 137.725L113.206 137.57L113.612 136.352Z" fill="white"/>
<path d="M114.732 138.44C114.539 138.44 114.365 138.286 114.327 138.092C114.288 137.86 114.443 137.667 114.674 137.628C115.621 137.493 116.472 137.3 117.225 137.126C118.153 136.913 118.945 136.72 119.641 136.72C120.491 136.7 122.984 136.681 123.429 136.372C123.429 136.372 123.429 136.352 123.409 136.352C123.216 136.101 121.593 135.482 119.969 135.463C118.114 135.444 116.452 136.082 116.433 136.082C116.22 136.159 115.989 136.062 115.911 135.85C115.834 135.637 115.931 135.405 116.143 135.328C116.22 135.308 117.94 134.651 119.912 134.651C119.931 134.651 119.95 134.651 119.969 134.651C121.535 134.67 123.719 135.25 124.124 135.966C124.318 136.333 124.24 136.604 124.144 136.778C123.815 137.338 122.81 137.512 119.622 137.551C119.023 137.551 118.269 137.725 117.38 137.938C116.607 138.112 115.737 138.324 114.752 138.46C114.771 138.44 114.752 138.44 114.732 138.44Z" fill="#0E2549"/>
<path d="M85.5131 92.2518L91.1366 89.4678L100.335 95.5772L96.335 98.7673L85.5131 92.2518Z" fill="#CAB1DC"/>
<path d="M111.37 97.9749L108.722 93.7021L100.335 95.5775L102.5 99.7149L111.37 97.9749Z" fill="#CAB1DC"/>
<path d="M112.027 98.2648L108.916 93.238L100.413 95.152L91.1753 89.0039L84.6821 92.2326L96.3737 99.2701L99.9102 96.4474C99.5237 102.828 97.0308 142.036 93.8615 152.322C93.8035 152.515 93.9195 152.728 94.1127 152.786C94.1514 152.805 94.19 152.805 94.2287 152.805C94.3833 152.805 94.5379 152.709 94.5765 152.554C97.7072 142.442 100.161 104.761 100.625 97.0274L102.307 100.198L112.027 98.2648ZM96.2964 98.2648L86.3634 92.2906L91.098 89.9319L99.6203 95.616L96.2964 98.2648ZM108.529 94.166L110.713 97.6848L102.732 99.2508L100.954 95.8674L108.529 94.166Z" fill="#0E2549"/>
<path d="M71.9469 125.525L99.9875 130.552L96.7215 140.219C96.7215 140.219 77.2999 140.78 73.145 140.219C65.3957 139.175 57.1246 132.35 57.1246 132.35L71.9469 125.525Z" fill="#CAB1DC"/>
<path d="M96.8955 140.084C96.8568 140.084 96.8182 140.084 96.7795 140.065C96.5863 140.007 96.4703 139.775 96.5476 139.581L99.5043 130.862L73.7441 126.782L81.0683 114.428C81.1843 114.254 81.4162 114.196 81.5901 114.293C81.764 114.409 81.822 114.641 81.7254 114.815L74.9809 126.202L100.529 130.262L97.282 139.852C97.2047 139.987 97.0694 140.084 96.8955 140.084Z" fill="#0E2549"/>
<path d="M305.161 143.312L73.8407 143.003C72.5653 143.003 71.5217 141.959 71.5217 140.683V140.412C71.5217 139.136 72.5653 138.092 73.8407 138.092L305.161 138.402C306.436 138.402 307.48 139.446 307.48 140.722V140.992C307.48 142.268 306.436 143.312 305.161 143.312Z" fill="#F5E8FF"/>
<path d="M305.161 143.602L73.8407 143.293C72.4106 143.293 71.2318 142.114 71.2318 140.683V140.412C71.2318 138.982 72.4106 137.802 73.8407 137.802L305.161 138.112C306.591 138.112 307.77 139.291 307.77 140.722V140.992C307.77 142.442 306.591 143.602 305.161 143.602ZM73.8407 138.382C72.7198 138.382 71.8116 139.291 71.8116 140.412V140.683C71.8116 141.804 72.7198 142.713 73.8407 142.713L305.161 143.022C306.282 143.022 307.19 142.114 307.19 140.992V140.722C307.19 139.6 306.282 138.692 305.161 138.692L73.8407 138.382Z" fill="#0E2549"/>
<path d="M65.9369 235.128H61.0283L83.6579 143.042H88.5664L65.9369 235.128Z" fill="#F5E8FF"/>
<path d="M66.1494 235.399H60.6804L60.7577 235.071L83.4453 142.791H88.9142L88.8369 143.119L66.1494 235.399ZM61.3761 234.839H65.7242L88.2185 143.313H83.8704L61.3761 234.839Z" fill="#0E2549"/>
<path d="M304.33 235.129H309.238L295.711 143.312H290.802L304.33 235.129Z" fill="#F5E8FF"/>
<path d="M309.586 235.419H304.098L304.059 235.167L290.454 143.022H295.943L295.981 143.274L309.586 235.419ZM304.581 234.838H308.91L295.46 143.622H291.131L304.581 234.838Z" fill="#0E2549"/>
<path d="M157.535 34.8719C159.424 24.721 152.731 14.9595 142.585 13.0689C132.439 11.1783 122.681 17.8746 120.792 28.0255C118.902 38.1764 125.595 47.9379 135.742 49.8285C145.888 51.719 155.645 45.0228 157.535 34.8719Z" fill="#D296FF"/>
<path d="M139.179 31.7766L128.009 26.6145C127.854 26.5565 127.796 26.3825 127.873 26.2278C127.931 26.0732 128.105 26.0152 128.26 26.0925L139.14 31.1193L151.74 22.9604C151.875 22.8638 152.049 22.9024 152.146 23.0378C152.242 23.1731 152.204 23.3471 152.068 23.4438L139.179 31.7766Z" fill="#0E2549"/>
<path d="M177.693 108.203L170.949 135.521H131.564L139.546 108.203H177.693Z" fill="#F5E8FF"/>
<path d="M171.181 135.811H131.178L139.314 107.913H178.06L177.964 108.28L171.181 135.811ZM131.951 135.231H170.717L177.326 108.493H139.758L131.951 135.231Z" fill="#0E2549"/>
<path d="M119.766 138.09H170.919V135.499H119.766V138.09Z" fill="#D296FF"/>
<path d="M171.2 138.383H119.467V135.212H171.2V138.383ZM120.047 137.803H170.62V135.792H120.047V137.803Z" fill="#0E2549"/>
<path d="M154.387 127.053C154.31 127.053 154.233 127.053 154.136 127.034C153.208 126.956 152.397 126.454 151.817 125.603C151.257 124.771 150.986 123.708 151.083 122.625C151.276 120.344 152.957 118.643 154.851 118.797C156.726 118.952 158.098 120.943 157.904 123.205C157.731 125.371 156.165 127.053 154.387 127.053ZM154.619 119.358C153.131 119.358 151.836 120.789 151.682 122.664C151.605 123.631 151.817 124.539 152.32 125.255C152.803 125.951 153.479 126.376 154.213 126.434C155.779 126.57 157.189 125.081 157.344 123.128C157.518 121.175 156.378 119.474 154.812 119.339C154.735 119.358 154.677 119.358 154.619 119.358Z" fill="#0E2549"/>
<path d="M223.532 138.092C218.836 138.092 215.029 134.284 215.029 129.585V124.423H232.035V129.585C232.035 134.284 228.228 138.092 223.532 138.092Z" fill="#CAB1DC"/>
<path d="M230.199 135.173C230.083 135.173 229.948 135.173 229.832 135.154L229.871 134.574C231.726 134.709 233.407 133.781 234.509 132.041C235.475 130.514 235.745 128.638 235.146 127.594C234.934 127.227 234.644 127.014 234.257 126.937C233.079 126.744 231.281 128.058 230.682 128.561L230.296 128.116C230.392 128.039 232.653 126.067 234.354 126.338C234.914 126.434 235.34 126.744 235.649 127.266C236.345 128.503 236.093 130.572 235.011 132.312C233.852 134.148 232.132 135.173 230.199 135.173Z" fill="#CAB1DC"/>
<path d="M220.691 135.637C220.653 135.637 220.614 135.618 220.575 135.598C216.749 133.491 217.213 127.014 217.232 126.724C217.251 126.589 217.367 126.492 217.503 126.492C217.638 126.512 217.735 126.628 217.735 126.763C217.735 126.821 217.271 133.201 220.827 135.154C220.942 135.212 220.981 135.366 220.923 135.482C220.865 135.579 220.788 135.637 220.691 135.637Z" fill="white"/>
<path d="M219.3 123.07C219.223 123.07 219.145 123.051 219.087 122.993C218.971 122.877 218.971 122.703 219.087 122.587C220.595 121.098 221.02 120.595 221.001 118.875C220.981 117.347 220.266 116.69 219.512 115.994C218.933 115.453 218.314 114.892 218.005 113.925C217.271 111.625 220.112 109.498 220.228 109.401C220.363 109.305 220.537 109.324 220.633 109.459C220.73 109.595 220.711 109.769 220.575 109.865C220.556 109.885 217.947 111.837 218.546 113.751C218.817 114.583 219.339 115.066 219.88 115.569C220.691 116.303 221.522 117.077 221.542 118.855C221.58 120.789 221.02 121.427 219.455 122.974C219.455 123.032 219.377 123.07 219.3 123.07Z" fill="#0E2549"/>
<path d="M226.856 123.07C226.779 123.07 226.701 123.051 226.643 122.993C226.527 122.877 226.527 122.703 226.643 122.587C228.151 121.098 228.576 120.595 228.557 118.875C228.537 117.347 227.822 116.69 227.069 115.994C226.489 115.453 225.87 114.892 225.561 113.925C224.827 111.625 227.668 109.498 227.784 109.401C227.919 109.305 228.093 109.324 228.189 109.459C228.286 109.595 228.267 109.769 228.131 109.865C228.112 109.885 225.503 111.837 226.102 113.751C226.373 114.583 226.895 115.066 227.436 115.569C228.247 116.303 229.078 117.077 229.098 118.855C229.136 120.789 228.576 121.427 227.011 122.974C227.011 123.032 226.933 123.07 226.856 123.07Z" fill="#0E2549"/>
<path d="M222.817 121.543C222.74 121.543 222.662 121.524 222.604 121.466C222.488 121.35 222.488 121.176 222.604 121.06C224.112 119.571 224.537 119.068 224.518 117.347C224.498 115.82 223.783 115.163 223.03 114.467C222.45 113.925 221.831 113.365 221.522 112.398C220.788 110.097 223.629 107.971 223.745 107.874C223.88 107.777 224.054 107.797 224.15 107.932C224.247 108.067 224.228 108.241 224.092 108.338C224.073 108.357 221.464 110.31 222.063 112.224C222.334 113.055 222.856 113.539 223.397 114.041C224.208 114.776 225.039 115.549 225.059 117.328C225.097 119.261 224.537 119.9 222.972 121.446C222.972 121.504 222.894 121.543 222.817 121.543Z" fill="#0E2549"/>
<path d="M236.229 218.018L237.214 227.608H245.582L246.857 217.341L236.229 218.018Z" fill="white"/>
<path d="M245.872 227.917H236.924L235.881 217.728L247.225 217.013L245.872 227.917ZM237.485 227.279H245.311L246.509 217.67L236.557 218.308L237.485 227.279Z" fill="#0E2549"/>
<path d="M236.75 227.24C236.75 227.24 224.634 231.088 224.208 234.258H245.93V227.24H236.75Z" fill="#CAB1DC"/>
<path d="M263.284 216.974L261.293 227.414H269.68L271.187 217.303L263.284 216.974Z" fill="white"/>
<path d="M269.951 227.723H260.926L263.052 216.665L271.555 217.013L269.951 227.723ZM261.68 227.085H269.41L270.82 217.593L263.554 217.303L261.68 227.085Z" fill="#0E2549"/>
<path d="M260.829 227.047C260.829 227.047 248.713 230.894 248.287 234.065H270.009V227.047H260.829Z" fill="#CAB1DC"/>
<path d="M247.282 233.234V235.09H270.357V232.982L247.282 233.234Z" fill="#0E2549"/>
<path d="M246.625 232.886V235.09H223.532V232.731L246.625 232.886Z" fill="#0E2549"/>
<path d="M265.564 233.272C265.409 233.272 265.274 233.137 265.274 232.982V228.768C265.274 228.613 265.409 228.478 265.564 228.478C265.719 228.478 265.854 228.613 265.854 228.768V232.982C265.854 233.137 265.719 233.272 265.564 233.272Z" fill="#0E2549"/>
<path d="M241.485 233.466C241.33 233.466 241.195 233.33 241.195 233.176V228.961C241.195 228.806 241.33 228.671 241.485 228.671C241.64 228.671 241.775 228.806 241.775 228.961V233.176C241.775 233.33 241.64 233.466 241.485 233.466Z" fill="#0E2549"/>
<path d="M274.898 150.35L254.355 169.703L249.969 221.286L234.721 221.672C234.721 221.672 235.765 168.446 237.407 163.458C239.147 158.161 264.714 126.183 264.714 126.183L300.02 121.852C300.02 121.852 304.427 136.024 301.605 142.887C298.784 149.731 272.907 222.388 272.907 222.388L255.766 221.498L274.898 150.35Z" fill="#0E2549"/>
<path d="M275.091 150.582C275.072 150.582 275.052 150.582 275.033 150.582C274.898 150.543 274.801 150.408 274.84 150.253L278.183 137.358C278.222 137.222 278.357 137.126 278.512 137.164C278.647 137.203 278.744 137.338 278.705 137.493L275.362 150.389C275.323 150.505 275.207 150.582 275.091 150.582Z" fill="#D296FF"/>
<path d="M275.458 80.2654L278.666 77.8486L282.087 79.8593L280.579 82.5661L286.667 118.798L282.377 128.696L277.236 119.513L277.545 82.7207L275.458 80.2654Z" fill="#CAB1DC"/>
<path d="M278.145 44.9811C280.116 44.8458 284.889 44.4591 285.488 47.9198C286.184 51.8639 286.396 57.026 286.474 59.7714C286.493 60.8541 285.739 61.7821 284.676 61.9755L272.772 64.0635C271.69 64.2569 270.627 63.5995 270.318 62.5361C269.255 58.9594 267.381 51.2646 267.612 50.0272C268.385 45.7738 275.033 45.1938 278.145 44.9811Z" fill="#0E2549"/>
<path d="M284.618 62.9614C284.618 62.9614 285.894 72.2416 286.899 73.1503C287.904 74.059 292.58 75.7024 292.58 75.7024L279.652 87.4186L269.352 79.9558C269.352 79.9558 273.661 77.0944 273.893 75.799C274.202 74.001 272.54 65.0881 272.54 65.0881L284.618 62.9614Z" fill="white"/>
<path d="M279.652 87.7859L268.83 79.9364L269.178 79.7044C270.801 78.6217 273.449 76.5917 273.603 75.741C273.912 74.0203 272.25 65.2234 272.25 65.1267C272.212 64.9721 272.328 64.8174 272.482 64.7787C272.637 64.7401 272.791 64.8561 272.83 65.0107C272.907 65.3781 274.511 74.0203 274.183 75.8376C273.97 77.0363 270.956 79.2017 269.854 79.9557L279.633 87.0319L292.039 75.799C290.822 75.3543 287.556 74.1169 286.705 73.3436C285.681 72.4156 284.56 64.5467 284.348 62.9807C284.328 62.826 284.444 62.6713 284.599 62.652C284.754 62.6327 284.908 62.7487 284.928 62.9034C285.411 66.4414 286.435 72.2996 287.111 72.9182C287.904 73.6336 290.203 75.4123 291.498 75.8763L292.213 76.437L279.652 87.7859Z" fill="#0E2549"/>
<path d="M280.367 66.8863C277.062 67.8723 272.733 67.969 271.361 67.0023C270.55 66.4416 269.796 63.7736 269.178 60.6802C269.158 60.5835 267.516 49.5633 267.516 49.5633L282.609 46.9146C282.609 46.9146 283.169 50.24 283.671 54.01C283.691 54.184 283.884 54.2614 284.019 54.1454C284.734 53.546 285.778 52.966 286.048 54.358C286.396 56.0981 285.024 57.4515 284.29 57.9541C284.213 58.0121 284.174 58.0895 284.174 58.1861C284.464 60.8542 284.599 63.1742 284.386 64.0443C284.271 64.5083 283.942 64.9529 283.498 65.3396L280.367 66.8863Z" fill="white"/>
<path d="M274.821 67.9691C273.275 67.9691 271.902 67.7564 271.187 67.2344C270.414 66.6931 269.661 64.5663 268.888 60.7383C268.868 60.6416 267.612 52.1927 267.206 49.6213L267.168 49.3313L282.84 46.5859L282.879 46.8759C282.879 46.9146 283.42 50.182 283.923 53.8361C284.599 53.2948 285.159 53.1014 285.585 53.2561C285.952 53.3914 286.203 53.7394 286.3 54.3001C286.628 55.9628 285.507 57.4322 284.444 58.1862C284.792 61.3763 284.85 63.3096 284.638 64.1217C284.502 64.6437 284.174 65.127 283.652 65.5524C283.536 65.649 283.343 65.649 283.246 65.5137C283.15 65.3977 283.15 65.2044 283.285 65.1077C283.71 64.7403 283.981 64.3537 284.077 63.967C284.212 63.4643 284.27 62.0529 283.865 58.2249C283.845 58.0315 283.923 57.8382 284.097 57.7222C284.309 57.5868 286.106 56.2528 285.739 54.4161C285.701 54.1841 285.585 53.8748 285.391 53.7974C285.14 53.7201 284.715 53.9134 284.174 54.3581C284.039 54.4741 283.845 54.5128 283.671 54.4354C283.497 54.3774 283.382 54.2228 283.362 54.0294C282.937 50.9554 282.493 48.1326 282.357 47.2433L267.844 49.8147C268.424 53.6428 269.448 60.4869 269.468 60.6416C270.414 65.3784 271.168 66.5191 271.516 66.7704C272.772 67.6597 277.024 67.5824 280.27 66.6157C280.425 66.577 280.579 66.6544 280.637 66.8091C280.676 66.9637 280.599 67.1184 280.444 67.1764C278.763 67.6791 276.656 67.9691 274.821 67.9691Z" fill="#0E2549"/>
<path d="M272.038 57.9151C271.845 57.9151 271.651 57.7797 271.613 57.5671L271.555 57.219C271.516 56.987 271.671 56.7744 271.902 56.7164C272.134 56.6777 272.347 56.8324 272.405 57.0644L272.463 57.4124C272.502 57.6444 272.347 57.8571 272.115 57.9151C272.096 57.9151 272.057 57.9151 272.038 57.9151Z" fill="#0E2549"/>
<path d="M278.802 56.7937C278.589 56.7937 278.415 56.639 278.376 56.4457L278.318 56.0977C278.28 55.8657 278.434 55.653 278.666 55.6143C278.898 55.5757 279.111 55.7303 279.149 55.9623L279.207 56.3103C279.246 56.5423 279.091 56.755 278.86 56.7937C278.84 56.7937 278.821 56.7937 278.802 56.7937Z" fill="#0E2549"/>
<path d="M277.024 54.203C276.908 54.203 276.811 54.1257 276.772 54.0097C276.734 53.8744 276.811 53.739 276.946 53.7004C277.024 53.681 279.033 53.1397 280.193 53.623C280.328 53.681 280.386 53.8357 280.328 53.9517C280.27 54.087 280.116 54.145 280 54.087C278.995 53.681 277.101 54.1837 277.082 54.1837C277.082 54.1837 277.043 54.203 277.024 54.203Z" fill="#0E2549"/>
<path d="M272.869 54.6669C272.869 54.6669 271.671 54.2609 270.028 55.3243L272.869 54.6669Z" fill="white"/>
<path d="M270.028 55.5949C269.951 55.5949 269.854 55.5563 269.815 55.4789C269.738 55.3629 269.777 55.2083 269.893 55.1309C271.613 54.0096 272.907 54.4156 272.946 54.4349C273.081 54.4736 273.159 54.6283 273.101 54.7636C273.062 54.8989 272.907 54.9763 272.772 54.9183C272.734 54.8989 271.651 54.5703 270.163 55.5563C270.125 55.5756 270.086 55.5949 270.028 55.5949Z" fill="#0E2549"/>
<path d="M275.439 60.5832C275.42 60.5832 275.42 60.5832 275.439 60.5832C275.11 60.5639 274.028 60.4865 273.796 59.8679C273.622 59.4039 273.642 59.2685 273.97 57.6445C274.048 57.2965 274.125 56.8711 274.222 56.3491C274.26 56.1751 274.434 56.0591 274.608 56.0978C274.782 56.1365 274.898 56.3105 274.859 56.4845C274.763 57.0065 274.666 57.4318 274.608 57.7798C274.299 59.3459 274.299 59.3652 274.395 59.6359C274.434 59.7519 274.917 59.9065 275.439 59.9259C275.613 59.9259 275.768 60.0805 275.748 60.2739C275.748 60.4479 275.613 60.5832 275.439 60.5832Z" fill="#0E2549"/>
<path d="M284.174 57.9541C284.174 57.9541 283.807 58.4761 283.034 59.5588C282.145 60.8155 272.018 61.9755 271.245 61.7435C269.564 61.2215 269.719 59.7908 269.158 60.0228C268.463 60.2935 270.511 67.2536 271.419 68.1237C272.347 68.9937 279.671 68.0657 283.439 66.577C286.57 65.3589 284.174 57.9541 284.174 57.9541Z" fill="#0E2549"/>
<path d="M282.763 47.7264C282.763 47.7264 272.057 52.9658 266.279 49.8918C260.481 46.8177 268.559 45.2323 273.506 44.8843C278.473 44.517 285.469 44.3043 282.763 47.7264Z" fill="#0E2549"/>
<path d="M245.273 92.8705C249.621 93.1798 269.68 77.3841 272.115 77.4422C272.328 77.4422 278.531 78.0608 278.666 77.9835C280.077 77.0941 281.159 77.0555 281.971 77.6935C285.14 76.7268 289.488 75.1608 289.701 75.1994C298.687 76.8428 308.775 101.88 309.335 103.601C311.403 109.788 303.692 113.016 303.692 113.016C303.615 113.712 306.108 131.267 306.108 131.267L277.816 132.195L258.897 133.046C258.897 133.046 261.042 102.499 260.443 93.6245C260.153 89.2551 253.196 112.127 246.954 103.079C239.243 91.8651 242.026 92.6385 245.273 92.8705Z" fill="white"/>
<path d="M258.588 133.336L258.607 133.008C258.626 132.698 260.733 102.364 260.153 93.6247C260.153 93.5474 260.134 93.4894 260.134 93.4507C259.786 93.8374 259.129 95.0554 258.53 96.1575C256.559 99.8115 253.563 105.322 250.297 105.496C249.002 105.554 247.804 104.8 246.722 103.234C241.62 95.8288 241.388 94.0114 241.891 93.1414C242.355 92.3487 243.514 92.426 244.848 92.542C245.002 92.5614 245.157 92.5614 245.311 92.5807C245.35 92.5807 245.389 92.5807 245.427 92.5807C247.998 92.5807 255.805 87.3413 262.085 83.1072C267.593 79.4144 271.033 77.133 272.096 77.133C272.096 77.133 272.096 77.133 272.115 77.133C272.173 77.133 272.502 77.1717 273.449 77.249C274.956 77.3844 278.067 77.6744 278.55 77.6744C279.922 76.8237 281.082 76.7077 282.01 77.3457C283.478 76.8817 285.198 76.321 286.609 75.8377C289.353 74.9096 289.585 74.8516 289.74 74.8903C293.585 75.5863 298.03 80.4198 302.919 89.1973C306.765 96.0995 309.374 102.77 309.606 103.466C311.557 109.285 305.161 112.591 303.982 113.152C304.079 114.621 305.451 124.539 306.398 131.171L306.436 131.5L277.816 132.447L258.588 133.336ZM260.211 92.7547C260.25 92.7547 260.269 92.7547 260.308 92.774C260.694 92.8514 260.733 93.3734 260.752 93.6054C261.312 101.9 259.457 129.392 259.245 132.737L277.835 131.906L305.799 130.978C305.393 128.097 303.364 113.655 303.422 112.978L303.441 112.804L303.596 112.726C303.905 112.591 311.036 109.536 309.065 103.678C308.833 103.021 306.185 96.2735 302.417 89.5066C297.701 81.0191 293.295 76.1857 289.682 75.4897C289.43 75.5477 288.097 75.9923 286.802 76.4177C285.353 76.901 283.556 77.5004 282.048 77.9644L281.894 78.003L281.778 77.9064C281.024 77.3264 280.058 77.423 278.802 78.2157C278.666 78.2931 278.608 78.3317 273.391 77.8484C272.734 77.7904 272.154 77.7324 272.096 77.7324C271.168 77.7324 266.723 80.7098 262.414 83.6098C255.612 88.1919 247.882 93.3734 245.253 93.1801C245.099 93.1607 244.944 93.1607 244.79 93.1414C243.688 93.0447 242.664 92.9674 242.393 93.4507C241.872 94.3594 243.437 97.4528 247.205 102.905C248.171 104.297 249.196 104.974 250.259 104.916C253.196 104.761 256.211 99.2122 258.008 95.8868C259.264 93.5667 259.728 92.7547 260.211 92.7547Z" fill="#0E2549"/>
<path d="M278.666 77.7324L277.333 129.199L278.666 77.7324Z" fill="#CAB1DC"/>
<path d="M277.333 129.47C277.178 129.47 277.043 129.334 277.062 129.18L278.396 77.7131C278.396 77.5584 278.531 77.4424 278.686 77.4424C278.84 77.4424 278.956 77.5777 278.956 77.7324L277.623 129.199C277.603 129.354 277.487 129.47 277.333 129.47Z" fill="#0E2549"/>
<path d="M275.458 80.3811L278.686 77.9644L282.338 79.6271L280.038 82.8558L282.357 115.124L278.048 125.023L272.907 115.839L277.545 82.8365L275.458 80.3811Z" fill="#CAB1DC"/>
<path d="M288.561 91.8267C288.561 91.8267 292.774 101.126 291.807 102.789C290.841 104.452 270.994 106.23 270.994 106.23L272.076 114.486C272.076 114.486 291.363 116.477 301.972 112.746L288.561 91.8267Z" fill="white"/>
<path d="M283.614 115.278C277.256 115.278 272.154 114.776 272.057 114.756L271.845 114.737L270.704 105.979L270.994 105.959C271.052 105.959 276.019 105.515 281.024 104.857C290.339 103.659 291.459 102.866 291.595 102.653C292.252 101.532 289.952 95.4999 288.348 91.9425C288.29 91.8071 288.348 91.6331 288.483 91.5751C288.619 91.5171 288.793 91.5751 288.851 91.7105C289.295 92.6772 293.083 101.203 292.078 102.924C291.885 103.233 291.402 104.084 281.101 105.399C276.753 105.959 272.463 106.365 271.323 106.481L272.347 114.234C274.492 114.428 292.078 115.936 301.895 112.494C302.03 112.436 302.204 112.514 302.243 112.668C302.301 112.804 302.224 112.978 302.069 113.016C296.909 114.814 289.682 115.278 283.614 115.278Z" fill="#0E2549"/>
<path d="M278.666 77.7324L284.831 80.9224L292.29 75.4123L288.251 73.8076L278.666 77.7324Z" fill="white"/>
<path d="M278.666 77.7323L274.569 81.5024L268.753 79.105L270.898 76.6689L278.666 77.7323Z" fill="white"/>
<path d="M292.889 75.3348L288.251 73.498L278.608 77.4421L270.801 76.4561L267.979 79.4335L274.279 81.8696L278.666 78.0801L284.831 81.2895L292.889 75.3348ZM274.163 81.1735L269.023 79.1822L271.033 77.0555L277.913 77.9255L274.163 81.1735ZM279.343 77.7515L288.251 74.1167L291.691 75.4894L284.792 80.5935L279.343 77.7515Z" fill="#0E2549"/>
<path d="M273.487 87.9404L273.622 89.6998L267.129 90.1638L266.994 88.4044L273.487 87.9404Z" fill="white"/>
<path d="M266.859 90.4734L266.685 88.134L273.758 87.6313L273.932 89.9707L266.859 90.4734ZM267.303 88.6754L267.381 89.8547L273.294 89.4294L273.217 88.25L267.303 88.6754Z" fill="#0E2549"/>
<path d="M229.948 82.1982L236.692 109.498H276.077L268.115 82.1982H229.948Z" fill="#F5E8FF"/>
<path d="M276.463 109.788H236.461L236.403 109.575L229.581 81.9087H268.327L268.385 82.1214L276.463 109.788ZM236.924 109.208H275.69L267.883 82.4887H230.315L236.924 109.208Z" fill="#0E2549"/>
<path d="M287.884 109.498H236.731V112.088H287.884V109.498Z" fill="#D296FF"/>
<path d="M288.174 112.379H236.441V109.208H288.174V112.379ZM237.021 111.799H287.594V109.788H237.021V111.799Z" fill="#0E2549"/>
<path d="M253.254 101.03C251.476 101.03 249.93 99.3671 249.737 97.1824C249.544 94.901 250.916 92.929 252.79 92.7743C253.718 92.697 254.607 93.0643 255.322 93.799C256.017 94.5143 256.462 95.5197 256.539 96.6024C256.636 97.6851 256.365 98.7484 255.805 99.5798C255.225 100.43 254.394 100.933 253.486 101.01C253.409 101.03 253.331 101.03 253.254 101.03ZM253.041 93.3543C252.983 93.3543 252.906 93.3543 252.848 93.3543C251.283 93.4896 250.162 95.191 250.317 97.1437C250.49 99.0964 251.882 100.566 253.447 100.45C254.201 100.392 254.858 99.9665 255.341 99.2704C255.824 98.5551 256.056 97.6271 255.979 96.6797C255.901 95.713 255.515 94.843 254.916 94.2243C254.375 93.6443 253.718 93.3543 253.041 93.3543Z" fill="#0E2549"/>
<path d="M244.79 112.707C244.79 112.707 244.075 107.913 243.031 107.681C241.987 107.429 242.335 111.934 242.219 111.973C242.045 112.011 242.142 106.695 241.176 106.385C240.21 106.076 240.345 111.315 240.248 111.296C240.113 111.277 240.403 107.932 239.495 107.217C238.606 106.501 238.992 110.851 238.799 110.774C238.683 110.735 239.089 107.855 238.18 107.7C237.62 107.603 236.963 110.967 236.963 110.967C236.963 110.967 236.596 113.113 238.934 113.616C239.553 113.732 244.055 114.834 244.79 112.707Z" fill="white"/>
<path d="M241.987 114.273C241.195 114.273 240.21 114.157 238.992 113.887L238.895 113.867C236.325 113.326 236.712 110.948 236.712 110.909C237.427 107.274 238.045 107.39 238.258 107.41C238.451 107.449 238.606 107.545 238.722 107.7C238.799 107.236 238.934 106.984 239.147 106.868C239.243 106.83 239.437 106.772 239.688 106.965C239.939 107.158 240.094 107.487 240.229 107.913C240.345 106.984 240.519 106.385 240.828 106.153C240.963 106.056 241.137 106.037 241.292 106.076C241.775 106.23 242.026 106.984 242.2 108.319C242.297 107.932 242.432 107.642 242.625 107.487C242.78 107.371 242.954 107.332 243.128 107.371C244.248 107.642 244.925 111.47 245.099 112.63L245.118 112.688L245.099 112.746C244.79 113.539 244.017 114.273 241.987 114.273ZM238.2 107.971C237.968 108.203 237.523 109.556 237.233 111.025C237.214 111.103 236.944 112.92 238.992 113.345L239.089 113.365C242.123 114.022 244.055 113.79 244.5 112.669C244.152 110.465 243.475 108.048 242.954 107.932C242.934 107.932 242.934 107.932 242.915 107.951C242.509 108.28 242.509 110.561 242.509 111.296C242.509 112.069 242.509 112.166 242.277 112.224L242.161 112.243L242.065 112.166C241.929 112.069 241.91 111.953 241.852 110.871C241.698 108.183 241.446 106.752 241.118 106.636C240.925 106.752 240.673 107.545 240.577 110.581C240.557 111.393 240.557 111.412 240.441 111.509L240.345 111.586L240.229 111.567C239.958 111.528 239.958 111.354 239.939 110.619C239.92 109.788 239.881 107.874 239.359 107.429C239.166 107.777 239.166 109.285 239.166 109.865C239.166 110.755 239.166 110.89 238.992 111.006L238.876 111.083L238.741 111.025C238.528 110.948 238.528 110.793 238.548 110.233C238.567 108.841 238.451 108.087 238.2 107.971Z" fill="#0E2549"/>
<path d="M274.067 63.116C273.893 63.3673 274.086 64.2953 274.937 64.16C277.101 63.8313 278.956 62.072 278.434 62.246C278.241 62.304 276.869 62.7873 275.961 62.9806C274.724 63.2513 274.28 62.8453 274.067 63.116Z" fill="white"/>
<path d="M305.431 190.216L313.355 177.263L327.269 183.74L325.703 194.276L305.431 190.216Z" fill="#F5E8FF"/>
<path d="M325.955 194.625L304.968 190.429L313.239 176.896L327.578 183.566L325.955 194.625ZM305.895 190.023L325.452 193.948L326.94 183.933L313.451 177.65L305.895 190.023Z" fill="#0E2549"/>
<path d="M288.348 190.429L291.034 182.328L309.915 188.186L306.185 195.533L288.348 190.429Z" fill="#F5E8FF"/>
<path d="M306.34 195.862L287.981 190.622L290.86 181.961L310.34 188.012L306.34 195.862ZM288.715 190.236L306.031 195.185L309.49 188.36L291.208 182.676L288.715 190.236Z" fill="#0E2549"/>
<path d="M285.952 189.076H328.989L323.829 235.109L290.841 235.206L285.952 189.076Z" fill="#4B0082"/>
<path d="M341.357 235.419H0.289875C0.135275 235.419 0 235.284 0 235.129C0 234.974 0.135275 234.839 0.289875 234.839H341.357C341.511 234.839 341.646 234.974 341.646 235.129C341.646 235.284 341.511 235.419 341.357 235.419Z" fill="#0E2549"/>
<defs>
<linearGradient id="paint0_linear_24_9082" x1="187.5" y1="-1.50579e-06" x2="169.845" y2="308.646" gradientUnits="userSpaceOnUse">
<stop stop-color="#CAB1DC" stop-opacity="0.26"/>
<stop offset="1" stop-color="white" stop-opacity="0"/>
</linearGradient>
</defs>
</svg>
