<svg width="182" height="158" viewBox="0 0 182 158" fill="none" xmlns="http://www.w3.org/2000/svg">
<g clip-path="url(#clip0_53_10)">
<path fill-rule="evenodd" clip-rule="evenodd" d="M159.594 143.382H21.9808C20.5777 143.382 19.4085 144.551 19.4085 145.954C19.4085 147.357 20.5777 148.526 21.9808 148.526H30.0871C31.5291 148.526 32.7373 149.695 32.7373 151.176C32.7373 152.618 31.5681 153.826 30.0871 153.826H29.2297C28.3333 153.826 27.5929 154.567 27.5929 155.463C27.5929 156.36 28.3333 157.1 29.2297 157.1C64.2274 157.1 105.344 157.1 140.342 157.1C141.823 157.1 143.031 155.892 143.031 154.411C143.031 152.93 141.823 151.722 140.342 151.722H139.601C138.705 151.722 138.003 151.02 138.003 150.124C138.003 149.228 138.705 148.526 139.601 148.526H159.633C161.036 148.526 162.205 147.357 162.205 145.954C162.167 144.551 161.036 143.382 159.594 143.382ZM147.824 157.1C146.343 157.1 145.174 155.892 145.174 154.45V154.411C145.174 152.93 146.382 151.761 147.824 151.761C149.305 151.761 150.475 152.969 150.475 154.411V154.45C150.514 155.892 149.305 157.1 147.824 157.1Z" fill="#4B0082"/>
<path fill-rule="evenodd" clip-rule="evenodd" d="M29.1907 143.304C13.1339 143.304 0 130.17 0 114.152C0 98.095 13.1339 84.9611 29.1907 84.9611C35.972 84.9611 41.5452 79.427 41.5452 72.6067C41.5452 65.8254 36.011 60.2523 29.1907 60.2523H27.7098C20.6557 60.2523 14.8877 54.4843 14.8877 47.4302C14.8877 40.3761 20.6557 34.6081 27.7098 34.6081H32.2306C34.9587 34.6081 37.2192 32.3476 37.2192 29.6195C37.2192 26.8914 34.9587 24.631 32.2306 24.631H28.9179C27.0083 24.631 25.4883 23.0721 25.4883 21.2014C25.4883 19.2917 27.0472 17.7718 28.9179 17.7718H51.1715C54.1334 17.7718 56.5887 15.3165 56.5887 12.3545C56.5887 9.39257 54.1334 6.93728 51.1715 6.93728H44.5071C42.5974 6.93728 41.0775 5.37836 41.0775 3.50766C41.0775 1.59798 42.6364 0.0780355 44.5071 0.0780355H141.979C144.434 0.0780355 146.46 2.10463 146.46 4.55993C146.46 7.01522 144.434 9.04182 141.979 9.04182H140.108C136.21 9.04182 133.054 12.2376 133.054 16.0959C133.054 19.9932 136.249 23.15 140.108 23.15H161.543C163.998 23.15 166.025 25.1766 166.025 27.6319C166.025 30.0872 163.998 32.1138 161.543 32.1138H157.217C153.631 32.1138 150.708 35.0368 150.708 38.6223C150.708 42.2078 153.631 45.1308 157.217 45.1308H163.102C172.299 45.1308 179.86 52.6526 179.86 61.8892C179.86 71.0868 172.338 78.6475 163.102 78.6475H161.192C152.345 78.6475 145.096 85.8965 145.096 94.7434C145.096 103.59 152.345 110.839 161.192 110.839H165.323C174.248 110.839 181.575 118.127 181.575 127.091C181.575 136.016 174.287 143.343 165.323 143.343C119.14 143.304 75.3737 143.304 29.1907 143.304ZM153.476 9.00284C155.97 9.00284 157.957 6.97625 157.957 4.52095C157.957 2.02668 155.931 0.0390625 153.476 0.0390625C150.981 0.0390625 148.994 2.06566 148.994 4.52095C148.994 6.97625 150.981 9.00284 153.476 9.00284ZM19.2526 24.631C21.1623 24.631 22.6823 23.0721 22.6823 21.2014C22.6823 19.2917 21.1233 17.7718 19.2526 17.7718C17.343 17.7718 15.823 19.3307 15.823 21.2014C15.784 23.0721 17.343 24.631 19.2526 24.631Z" fill="#F5E7FF"/>
<path fill-rule="evenodd" clip-rule="evenodd" d="M50.8987 28.7619C50.8597 28.723 50.6649 28.3722 50.6259 27.7486C49.9633 26.7353 50.0023 25.4103 50.431 24.1242C50.7038 23.2278 51.1715 22.3704 51.6392 21.6299C52.1458 20.8894 52.6914 20.3048 53.1591 19.954C53.5488 19.6812 53.8996 19.6033 54.1724 19.6812C54.5232 19.7982 54.757 19.993 54.9129 20.2269C55.4585 20.3438 57.0564 20.8115 57.3292 22.4873C57.7969 22.7211 58.3036 23.1498 58.5374 23.9293C59.122 24.2021 60.9537 25.2154 60.2522 27.242C60.2912 27.281 60.3301 27.3199 60.3691 27.3589C60.8368 27.9045 60.7978 28.4112 60.4081 28.8789C60.0963 29.2686 59.5507 29.6193 58.8881 29.9311C58.1087 30.3209 56.7057 30.8665 55.2637 30.7885C54.2893 30.7496 53.276 30.4378 52.3407 29.6583C51.912 29.5804 51.5223 29.4245 51.2105 29.1517C51.1325 29.0737 51.0156 28.9568 50.8987 28.7619Z" fill="#CAB1DC"/>
<path fill-rule="evenodd" clip-rule="evenodd" d="M63.7988 43.7278C63.9546 43.8447 63.9936 44.0396 63.8767 44.1955C63.7598 44.3514 63.5649 44.3903 63.409 44.2734C59.2779 41.4674 54.3673 40.2592 49.5346 40.7269C44.8189 41.1556 40.2201 43.1822 36.6346 46.7677C32.5424 50.8598 30.5158 56.2381 30.5158 61.6554C30.5158 67.0336 32.5424 72.4509 36.6346 76.543L67.9689 107.877C68.0858 107.994 68.0858 108.228 67.9689 108.345C67.8519 108.462 67.6181 108.462 67.5012 108.345L36.1669 77.0107C31.9578 72.8016 29.8143 67.2285 29.8143 61.6554C29.8143 56.0822 31.9189 50.5091 36.1669 46.3C39.8694 42.5976 44.6241 40.493 49.4957 40.0643C54.4452 39.5967 59.5507 40.8048 63.7988 43.7278Z" fill="#443E71"/>
<path fill-rule="evenodd" clip-rule="evenodd" d="M50.7038 100.628C48.7552 102.967 46.105 106.084 40.5709 104.759H40.5319C40.337 104.72 40.2591 104.525 40.298 104.331C41.818 99.1862 44.8969 97.4713 47.7029 97.0816C47.3521 96.9647 47.0014 96.8867 46.6506 96.7698C46.144 96.6139 45.6373 96.458 45.1307 96.2632C44.5851 96.1073 43.9225 96.6919 43.1041 97.4324C41.5062 98.8744 39.3627 100.823 35.5823 99.381C35.4264 99.3031 35.3485 99.1082 35.4264 98.9133C36.9464 95.5617 39.1678 94.5873 41.1165 94.5094C40.7657 94.3145 40.4539 94.1197 40.1422 93.8858C39.2068 93.8858 32.4255 93.5351 33.2439 86.0523C33.2829 85.8574 33.4388 85.7405 33.6337 85.7405H33.6726C37.6479 86.403 38.5053 89.1311 39.1678 91.1967C39.3627 91.8592 39.5576 92.4828 39.8304 92.8336C39.9083 92.8336 39.9473 92.8725 39.9863 92.9115C40.8826 93.613 41.9349 94.1976 43.1041 94.7043C43.4159 94.7822 43.6887 94.8602 43.9615 94.9381C42.3636 93.3792 40.9996 90.768 43.1431 86.7927C43.221 86.6369 43.4549 86.5589 43.6107 86.6369H43.6497C47.0793 88.7414 46.8455 91.6254 46.6506 93.7689C46.5727 94.8602 46.4947 95.7176 46.9624 96.0683C48.0537 96.3801 49.1449 96.6919 50.3141 97.0037C50.7428 97.0426 51.1715 97.1206 51.5223 97.1985C49.5346 95.6786 47.8198 92.9894 49.4567 88.3517C49.5346 88.1568 49.7295 88.0789 49.8854 88.1568C54.2114 89.9106 54.4452 93.2233 54.6401 95.6786C54.757 96.9647 54.835 98.017 55.4585 98.2898C56.0431 98.4457 56.5887 98.6016 57.1344 98.7574C55.6534 97.4324 54.5621 95.2109 55.9262 91.6254C56.0041 91.4305 56.199 91.3526 56.3549 91.4305H56.3939C59.9014 92.9895 60.0184 95.7176 60.0963 97.7442C60.1353 98.7964 60.1743 99.6149 60.6809 99.8487C61.2655 100.083 61.8111 100.277 62.3178 100.55C62.3178 100.55 62.3178 100.55 62.3567 100.55C62.5126 100.628 62.6685 100.706 62.7854 100.784C63.8377 101.33 64.929 102.148 65.6305 103.2C66.2151 104.097 66.5658 105.11 66.4489 106.279C66.4489 106.474 66.254 106.591 66.0592 106.591C65.8643 106.591 65.7474 106.396 65.7474 106.201C65.8643 105.188 65.5525 104.292 65.0459 103.551C64.4223 102.616 63.448 101.836 62.4737 101.369C62.3567 101.291 62.2008 101.252 62.0839 101.174C61.2655 101.018 60.486 101.953 59.5507 103.083C57.7579 105.227 55.3416 108.111 50.1972 106.903H50.1582C49.9633 106.864 49.8854 106.669 49.9244 106.474C51.6002 100.901 55.1857 99.6928 58.1087 99.6928C57.2123 99.42 56.277 99.1472 55.3026 98.9133C55.2637 98.9133 55.1078 98.8744 54.9129 98.7964C54.4452 98.6795 53.9776 98.5626 53.4709 98.4457C52.4966 98.4846 51.6781 99.459 50.7038 100.628Z" fill="#CAB1DC"/>
<path fill-rule="evenodd" clip-rule="evenodd" d="M30.7107 65.8252C28.5672 65.8642 25.7222 65.8642 23.8904 62.3176C23.8125 62.1618 23.8904 61.9279 24.0463 61.85C27.2031 60.4469 29.4246 61.0315 30.9056 62.1618C30.8666 62.0838 30.8276 61.9669 30.7887 61.8889V61.85C30.6328 61.5382 30.5158 61.2264 30.3989 60.9146C30.3989 60.9146 30.3989 60.9146 30.3989 60.8756C30.282 60.5639 29.6974 60.4859 28.9569 60.369C27.437 60.1741 25.4494 59.9403 24.475 57.2512V57.2122C24.4361 57.0173 24.514 56.8225 24.7089 56.7835C27.0083 56.1209 28.4893 56.6666 29.4636 57.5629C29.4246 57.4071 29.4246 57.2901 29.3856 57.1342C28.879 56.5497 26.1119 52.8082 30.3989 49.8463C30.5548 49.7294 30.7497 49.7684 30.8666 49.9242C32.3865 52.3795 31.2953 54.0944 30.4769 55.3805C30.243 55.7702 30.0092 56.1209 29.9313 56.3938C29.9313 56.4327 29.9702 56.4717 29.9702 56.5107C30.0092 57.2512 30.1651 58.0696 30.4379 58.927C30.4769 59.0049 30.5158 59.0439 30.5158 59.1219C30.7107 57.6409 31.6071 55.9651 34.4521 55.3415C34.647 55.3025 34.8029 55.4194 34.8418 55.6143V55.6533C35.2705 58.4593 33.6337 59.6285 32.4255 60.5249C31.8409 60.9536 31.3733 61.2654 31.4122 61.6161C31.724 62.3177 32.0748 63.0192 32.4255 63.7207C32.5035 63.8376 32.5814 63.9545 32.6594 64.1104C32.6983 62.4346 33.4778 60.5249 36.4397 59.3557C36.6346 59.2778 36.8295 59.3557 36.8684 59.5506V59.5895C37.8817 62.6684 36.2449 64.3442 35.0367 65.5524C34.4521 66.137 33.9455 66.6437 34.0624 67.0724C34.1793 67.3062 34.2962 67.54 34.4131 67.7739C34.569 66.4878 35.3485 65.0847 37.6479 64.2663C37.8428 64.1883 38.0376 64.3053 38.0766 64.4612C38.8561 67.0723 37.453 68.3585 36.4008 69.3718C35.8941 69.8394 35.5044 70.2292 35.5823 70.502C35.7382 70.8917 35.8551 71.2814 35.9331 71.6322V71.6712C36.3618 73.269 36.4008 74.7111 35.7382 75.9192C35.6603 76.0751 35.4264 76.153 35.2705 76.0751C35.1147 75.9972 35.0367 75.7633 35.1147 75.6074C35.6603 74.5941 35.6213 73.308 35.2316 71.866C34.9588 71.4373 34.1793 71.4373 33.205 71.4373C31.2174 71.4763 28.6062 71.4763 26.8914 68.2026C26.8134 68.0467 26.8914 67.8128 27.0473 67.7349C30.3989 66.2539 32.5814 67.1893 33.9455 68.5144C33.7506 68.1246 33.5557 67.6959 33.3609 67.3062V67.2672C33.3609 67.2282 33.2829 67.1503 33.244 67.0334C33.0881 66.7216 32.9322 66.4098 32.7763 66.098C32.5814 65.8252 31.724 65.8252 30.7107 65.8252Z" fill="#CAB1DC"/>
<path fill-rule="evenodd" clip-rule="evenodd" d="M67.1115 44.78C66.4099 44.1174 65.0849 43.4549 62.7855 43.26H62.7465C62.5516 43.26 62.4737 43.3769 62.5126 43.5328C63.2531 45.4425 64.2664 46.4948 65.1628 46.9235C66.1371 47.3911 66.9945 47.2353 67.4232 46.7676C67.8519 46.2609 67.8519 45.4815 67.1115 44.78Z" fill="#443E71"/>
<path fill-rule="evenodd" clip-rule="evenodd" d="M61.6942 44.5461C61.3045 43.6497 60.3301 42.5585 58.3035 41.4673C58.3035 41.4673 58.2646 41.4673 58.2646 41.4283C58.1087 41.3503 57.9528 41.4283 57.9528 41.5842C57.9138 43.6497 58.4205 44.9748 59.083 45.7543C59.7845 46.5727 60.6419 46.7286 61.2265 46.4558C61.7721 46.183 62.0839 45.4815 61.6942 44.5461Z" fill="#443E71"/>
<path fill-rule="evenodd" clip-rule="evenodd" d="M56.3549 43.1041C55.9262 42.2467 54.8739 41.1944 52.8084 40.1811C52.8084 40.1811 52.7694 40.1811 52.7694 40.1422C52.6135 40.0642 52.4576 40.1422 52.4576 40.337C52.5356 42.4026 53.1202 43.7277 53.8217 44.4292C54.5622 45.2087 55.4196 45.3256 56.0041 45.0528C56.5108 44.741 56.7836 44.0005 56.3549 43.1041Z" fill="#443E71"/>
<path fill-rule="evenodd" clip-rule="evenodd" d="M64.0716 39.7915C63.0972 39.7525 61.6942 40.1812 59.8235 41.5452L59.7845 41.5842C59.6676 41.7011 59.6676 41.857 59.7845 41.935C61.6163 42.8703 63.0583 42.9872 64.0326 42.7144C65.0849 42.4027 65.5915 41.7401 65.5915 41.0776C65.6305 40.415 65.1238 39.8694 64.0716 39.7915Z" fill="#443E71"/>
<path fill-rule="evenodd" clip-rule="evenodd" d="M58.5764 37.609C57.602 37.7649 56.3159 38.4664 54.757 40.1812L54.718 40.2202C54.6011 40.3761 54.6401 40.532 54.796 40.5709C56.7836 41.1165 58.2256 40.9217 59.122 40.493C60.0963 39.9863 60.4471 39.2069 60.3301 38.5833C60.2132 37.9208 59.6286 37.4531 58.5764 37.609Z" fill="#443E71"/>
<path fill-rule="evenodd" clip-rule="evenodd" d="M45.9491 80.869C46.2609 81.8044 46.2219 83.2853 45.4425 85.4288V85.4678C45.3645 85.6237 45.2086 85.6627 45.0917 85.5458C43.6887 84.0258 43.221 82.6618 43.221 81.6874C43.221 80.5962 43.7666 79.9337 44.3512 79.7388C44.9358 79.5829 45.6373 79.8947 45.9491 80.869Z" fill="#443E71"/>
<path fill-rule="evenodd" clip-rule="evenodd" d="M41.4283 76.5428C41.7401 77.4782 41.7011 78.9592 40.9216 81.1027V81.1417C40.8437 81.2975 40.6878 81.3365 40.5709 81.2196C39.1678 79.6996 38.7002 78.3356 38.7002 77.3613C38.7002 76.27 39.2458 75.6075 39.8304 75.4126C40.376 75.2567 41.0775 75.5685 41.4283 76.5428Z" fill="#443E71"/>
<path fill-rule="evenodd" clip-rule="evenodd" d="M37.9207 83.5581C38.8171 83.9088 40.298 83.9868 42.5195 83.2853H42.5585C42.7144 83.2073 42.7533 83.0514 42.6364 82.9345C41.1944 81.4535 39.8693 80.8689 38.856 80.83C37.7648 80.752 37.0633 81.2587 36.8295 81.8433C36.6736 82.4668 36.9464 83.1684 37.9207 83.5581Z" fill="#443E71"/>
<path fill-rule="evenodd" clip-rule="evenodd" d="M50.8208 28.4894C50.9766 28.3724 51.1715 28.4114 51.2884 28.5673C51.4054 28.7232 51.3664 28.9181 51.2105 29.035C47.9368 31.6072 47.0794 35.5045 46.2609 39.2459C44.9358 45.2867 43.6887 51.0157 33.166 51.0157C32.9711 51.0157 32.8152 50.8598 32.8152 50.665C32.8152 50.4701 32.9711 50.3142 33.166 50.3142C43.1041 50.3142 44.3123 44.858 45.5594 39.09C46.4558 35.1927 47.3522 31.1785 50.8208 28.4894Z" fill="#7F6A81"/>
<path fill-rule="evenodd" clip-rule="evenodd" d="M50.7428 28.918C50.7038 28.879 50.5089 28.4893 50.47 27.8657C49.7685 26.8135 49.8464 25.4494 50.2751 24.0854C50.5869 23.15 51.0546 22.2536 51.5612 21.4742C52.0679 20.6947 52.6525 20.0711 53.1591 19.7594C53.5488 19.4866 53.8996 19.3696 54.2114 19.4866C54.5621 19.6035 54.8349 19.7983 54.9908 20.0711C55.5365 20.1881 57.2123 20.6947 57.5241 22.4095C58.0307 22.6434 58.5374 23.111 58.7712 23.9295C59.3558 24.2023 61.2655 25.2545 60.525 27.3591C60.564 27.3981 60.6029 27.437 60.6419 27.476C61.1096 28.0606 61.0706 28.5673 60.6809 29.0739C60.3691 29.4636 59.8235 29.8144 59.122 30.2041C58.3035 30.6328 56.8615 31.1395 55.3416 31.0615C54.3283 31.0225 53.276 30.6718 52.3407 29.8534C51.912 29.7754 51.5222 29.6195 51.1715 29.3077C50.9766 29.1908 50.8597 29.0739 50.7428 28.918ZM59.044 24.9038C59.3558 25.4104 59.4338 25.995 58.9661 26.7355C59.2389 26.7355 59.5507 26.8135 59.8235 26.9304C60.0963 25.9561 59.5507 25.2935 59.044 24.9038ZM59.8625 27.7098C59.8235 27.7098 59.8235 27.7098 59.8625 27.7098C59.3558 27.3201 58.6933 27.3981 58.4594 27.437C58.1866 27.7098 57.8748 27.9827 57.4851 28.2555C56.5498 28.918 55.3416 29.4636 54.2114 29.7364C53.9775 29.7754 53.7437 29.8534 53.5099 29.8534C54.0945 30.1651 54.718 30.321 55.3416 30.36C56.7056 30.438 58.0307 29.9313 58.7712 29.5805C59.3948 29.2688 59.8625 28.957 60.0963 28.6452C60.2522 28.4114 60.2912 28.1775 60.0573 27.9047C59.9794 27.8268 59.9014 27.7488 59.8625 27.7098ZM55.1857 20.8116C55.2247 21.0844 55.1857 21.3183 55.1467 21.5521C55.2247 21.5521 55.3026 21.5521 55.3806 21.5911C55.8872 21.708 56.199 21.8639 56.3939 22.0977C56.4718 22.0977 56.5498 22.0977 56.6667 22.1367C56.3549 21.3573 55.6534 21.0065 55.1857 20.8116ZM56.9785 22.9162C57.0954 23.0721 57.2513 23.2669 57.4461 23.4228C57.5631 23.5008 57.641 23.5787 57.7579 23.6567L57.8748 23.7736C57.641 23.3059 57.2902 23.0721 56.9785 22.9162ZM50.6259 26.2678C50.7428 25.9171 50.8987 25.4884 51.1325 25.0597C51.7561 23.8905 52.4576 22.9162 53.1981 22.2926C53.6268 21.9418 54.0555 21.669 54.4842 21.5911C54.5621 21.2014 54.6401 20.344 53.9775 20.1101C53.8996 20.0711 53.7437 20.1491 53.5099 20.305C53.0812 20.6168 52.5745 21.1624 52.1068 21.8639C51.6392 22.5654 51.1715 23.4228 50.9376 24.2802C50.7038 24.9817 50.5869 25.6443 50.6259 26.2678ZM51.1325 27.6709C51.1325 27.7098 51.1325 27.7488 51.1325 27.7878C51.1715 28.2555 51.2884 28.5283 51.3274 28.5673C51.4053 28.6452 51.4443 28.7231 51.5612 28.8011C51.7951 28.996 52.1068 29.1518 52.4576 29.1908C52.9253 29.2688 53.4709 29.1908 54.0165 29.0739C55.0688 28.8401 56.199 28.2944 57.0564 27.6709C57.4851 27.3981 57.8359 27.0863 58.0697 26.8135C58.9271 25.8391 58.4984 25.2156 57.9138 24.67C57.7189 24.5141 57.5241 24.3582 57.3292 24.2023C57.2123 24.1243 57.0954 24.0464 57.0174 23.9684C56.5498 23.6177 56.3549 23.2669 56.16 22.9551C55.9652 22.6434 55.8093 22.3706 55.2247 22.2536C55.0688 22.2147 54.9519 22.2147 54.796 22.2536C54.4452 22.2926 54.0555 22.5264 53.6268 22.8772C52.9642 23.4228 52.3407 24.3192 51.7561 25.4104C51.2105 26.3458 51.0935 27.1253 51.1325 27.6709Z" fill="#4B0082"/>
<path fill-rule="evenodd" clip-rule="evenodd" d="M45.8322 39.9475C45.9491 39.5577 46.0271 39.129 46.066 38.7003C46.1829 37.8039 46.1829 36.8296 46.066 35.9332C45.5984 33.1272 43.7277 31.4124 40.9216 30.8278C40.6878 30.7888 40.4929 30.9057 40.415 31.1006C39.2847 33.7508 39.6745 36.245 41.779 38.1937C42.4415 38.8172 43.221 39.3629 44.0394 39.7526C44.3902 39.9475 44.8189 40.1423 45.2086 40.2592C45.3255 40.2982 45.4425 40.2982 45.5594 40.2203C45.7153 40.1813 45.7932 40.1033 45.8322 39.9475Z" fill="#9FBBC1"/>
<path fill-rule="evenodd" clip-rule="evenodd" d="M41.4672 48.4045C41.6231 48.0147 41.8569 47.625 42.0518 47.2742C42.5195 46.4948 43.1041 45.7543 43.8056 45.1307C45.9491 43.1821 48.4434 42.9872 51.0156 44.3123C51.2105 44.4292 51.3274 44.6241 51.2494 44.8579C50.47 47.625 48.5993 49.3008 45.7153 49.5347C44.7799 49.6126 43.8446 49.5347 42.9482 49.3398C42.5585 49.2619 42.1298 49.1449 41.74 48.9891C41.6231 48.9501 41.5062 48.8721 41.4672 48.7162C41.4282 48.6383 41.4282 48.5214 41.4672 48.4045Z" fill="#9FBBC1"/>
<path fill-rule="evenodd" clip-rule="evenodd" d="M37.8817 50.1972C38.0766 50.1193 38.2714 50.0413 38.4663 49.9244C38.856 49.6906 39.2458 49.4177 39.5575 49.106C40.5708 48.0927 40.7267 46.8066 40.1032 45.5205C40.0642 45.4035 39.9473 45.3646 39.8304 45.4035C38.4273 45.7543 37.5699 46.6507 37.3751 48.0927C37.3361 48.5603 37.3361 49.028 37.414 49.4567C37.453 49.6516 37.492 49.8854 37.5699 50.0803C37.6089 50.1582 37.6479 50.1972 37.6868 50.2362C37.7648 50.1972 37.8038 50.1972 37.8817 50.1972Z" fill="#9FBBC1"/>
<path fill-rule="evenodd" clip-rule="evenodd" d="M47.1963 35.1537C47.3911 35.1927 47.625 35.2316 47.8198 35.2316C48.2875 35.2706 48.7552 35.2316 49.1839 35.1147C50.5869 34.764 51.3664 33.7896 51.5223 32.3866C51.5223 32.2697 51.4833 32.1528 51.3664 32.1528C50.0023 31.6851 48.7942 31.9969 47.8978 33.1271C47.625 33.4779 47.3911 33.9066 47.1963 34.3353C47.1183 34.5301 47.0404 34.725 47.0014 34.9199C47.0014 34.9978 47.0014 35.0368 47.0404 35.1147C47.0793 35.1147 47.1183 35.1537 47.1963 35.1537Z" fill="#9FBBC1"/>
<path fill-rule="evenodd" clip-rule="evenodd" d="M138.549 35.7772C138.471 35.5824 138.588 35.3875 138.744 35.3485C138.939 35.2706 139.133 35.3875 139.172 35.5434C139.172 35.5824 142.407 44.3513 145.369 46.8066C145.525 46.9235 145.525 47.1573 145.408 47.2743C145.291 47.4302 145.057 47.4302 144.94 47.3132C141.823 44.741 138.549 35.7772 138.549 35.7772Z" fill="#7F6A81"/>
<path fill-rule="evenodd" clip-rule="evenodd" d="M131.105 30.6718C131.222 28.4893 133.327 28.2555 133.95 28.2165C134.457 27.554 135.08 27.3591 135.626 27.3202C136.522 25.8782 138.198 26.0341 138.744 26.112C138.978 25.9561 139.25 25.8392 139.64 25.8782C139.952 25.9171 140.225 26.151 140.498 26.5017C140.809 26.9694 141.121 27.7489 141.277 28.6452C141.472 29.5026 141.55 30.5159 141.472 31.4513C141.355 32.8153 140.926 34.0625 139.913 34.764C139.679 35.2317 139.406 35.5045 139.289 35.5824L139.25 35.6214C139.095 35.6993 138.978 35.7773 138.822 35.8552C138.432 35.9722 138.003 36.0111 137.575 35.8942C136.444 36.2839 135.353 36.206 134.418 35.8552C133.015 35.3876 131.923 34.3743 131.339 33.7117C130.832 33.1271 130.481 32.6205 130.326 32.1528C130.17 31.5682 130.326 31.1005 130.949 30.7498C131.027 30.7108 131.066 30.7108 131.105 30.6718Z" fill="#CAB1DC"/>
<path fill-rule="evenodd" clip-rule="evenodd" d="M117.62 44.3125C117.464 44.4294 117.27 44.3904 117.153 44.2345C117.036 44.0786 117.075 43.8838 117.231 43.7669C121.479 40.8439 126.584 39.6357 131.534 40.1034C136.405 40.5711 141.16 42.6366 144.862 46.3391C149.072 50.5481 151.215 56.1213 151.215 61.6944C151.215 67.2675 149.111 72.8407 144.862 77.0498L113.567 108.345C113.45 108.462 113.216 108.462 113.1 108.345C112.983 108.228 112.983 107.994 113.1 107.877L144.434 76.5431C148.526 72.4509 150.553 67.0727 150.553 61.6554C150.553 56.2772 148.526 50.8599 144.434 46.7678C140.848 43.1823 136.249 41.1557 131.534 40.727C126.701 40.2983 121.752 41.4674 117.62 44.3125Z" fill="#443E71"/>
<path fill-rule="evenodd" clip-rule="evenodd" d="M135.977 99.615C132.313 101.213 130.131 99.4201 128.455 98.056C127.675 97.3935 127.013 96.8479 126.467 97.0038C126.155 97.1597 125.844 97.2766 125.571 97.4325C125.454 97.5104 125.337 97.5494 125.298 97.5494C125.298 97.5494 125.298 97.5494 125.259 97.5494C124.83 97.7443 124.441 97.9391 124.051 98.134C125.961 97.9391 128.26 98.6017 129.936 101.875C130.014 102.031 129.936 102.265 129.78 102.343C126.389 103.824 124.363 102.148 122.843 100.901C122.102 100.277 121.479 99.7708 120.972 99.9267C119.764 100.784 118.946 101.758 118.751 102.889C118.712 103.084 118.556 103.2 118.361 103.162C118.166 103.123 118.049 102.967 118.088 102.772C118.322 101.447 119.257 100.316 120.621 99.3421L120.66 99.3032C120.972 99.0693 121.323 98.8745 121.674 98.6406C121.946 98.4458 121.868 97.9001 121.752 97.2376C121.557 95.8346 121.284 93.9249 123.505 92.366C123.505 92.366 123.544 92.366 123.544 92.327C123.7 92.2101 123.934 92.288 124.012 92.4439C125.298 94.5095 125.025 96.1074 124.324 97.1986C124.558 97.0817 124.791 96.9648 125.025 96.8479C125.376 96.614 125.298 95.9125 125.22 95.0551C125.025 93.3403 124.791 91.0019 127.559 89.2482H127.597C127.753 89.1702 127.987 89.2092 128.065 89.3651C129.624 92.1322 129.039 94.1198 128.026 95.4448C128.143 95.4059 128.299 95.3669 128.455 95.3279C129.195 94.9772 129.897 94.6654 130.559 94.3146C130.793 94.0418 130.637 93.4962 130.443 92.8337C130.053 91.3917 129.507 89.443 131.612 87.5333L131.651 87.4944C131.807 87.3774 132.001 87.4164 132.118 87.5333C133.95 89.7938 133.599 91.6645 132.82 92.9506C132.898 92.9116 132.937 92.9116 133.015 92.8726C133.599 92.4829 134.145 92.0542 134.574 91.5865C134.652 91.5086 134.769 91.3917 134.846 91.2747C134.885 91.2358 134.924 91.1968 134.963 91.1968C135.08 90.924 135.119 90.5343 135.197 90.0666C135.392 88.5466 135.626 86.559 138.315 85.5847C138.51 85.5457 138.705 85.6237 138.744 85.8185C140.264 90.846 135.743 91.9763 134.963 92.1321C134.846 92.2491 134.769 92.327 134.652 92.4439C135.938 92.366 137.458 92.8337 138.822 94.8213C138.939 94.9772 138.9 95.172 138.744 95.289C138.744 95.289 138.705 95.289 138.705 95.3279C136.288 96.8089 134.574 95.7177 133.288 94.9382C132.664 94.5485 132.157 94.2367 131.846 94.4316C131.846 94.4316 131.846 94.4316 131.807 94.4316C131.495 94.5874 131.222 94.7433 130.91 94.8992C130.91 94.8992 130.871 94.8992 130.871 94.9382C130.793 94.9772 130.715 95.0161 130.598 95.0551C132.469 95.0941 134.574 96.0294 136.172 99.1083C136.249 99.3032 136.172 99.498 135.977 99.615Z" fill="#CAB1DC"/>
<path fill-rule="evenodd" clip-rule="evenodd" d="M161.075 57.6412C158.776 62.0451 155.229 62.0061 152.579 62.0061C151.254 62.0061 150.163 61.9672 149.734 62.5518C149.539 62.9415 149.344 63.3312 149.15 63.7209C149.072 63.8768 149.033 63.9548 148.994 63.9938V64.0327C148.643 64.6953 148.331 65.3968 148.058 66.0204C149.734 64.1886 152.54 62.7077 156.983 64.6953C157.139 64.7732 157.217 64.9681 157.139 65.1629C155.034 69.2551 151.761 69.2161 149.305 69.1772C148.019 69.1772 147.006 69.1382 146.655 69.7618C146.149 71.5935 146.11 73.2303 146.811 74.5165C146.889 74.6723 146.85 74.9062 146.655 74.9841C146.499 75.0621 146.266 75.0231 146.188 74.8282C145.369 73.3473 145.447 71.5545 145.993 69.5279V69.4889V69.45C146.11 68.9823 146.266 68.5146 146.46 68.008C146.577 67.5793 146.071 67.0726 145.408 66.488C144.083 65.2799 142.368 63.643 143.304 60.4082C143.382 60.2134 143.576 60.1354 143.732 60.2134C146.772 61.3046 147.669 63.2143 147.747 64.8901C147.941 64.5004 148.136 64.1107 148.331 63.682C148.487 63.0974 147.863 62.4738 147.084 61.6944C145.564 60.1744 143.498 58.1088 144.785 54.2895V54.2505C144.862 54.0557 145.057 53.9777 145.213 54.0557C149.072 55.5756 149.968 58.1478 149.89 60.2913C150.046 60.0575 150.202 59.7847 150.358 59.5508C150.825 58.6545 151.254 57.7581 151.644 56.8617C151.683 56.394 151.059 55.9653 150.319 55.4197C148.799 54.3285 146.772 52.8475 147.318 49.3789V49.3399C147.357 49.1451 147.552 49.0281 147.708 49.0671C151.449 49.8855 152.501 52.146 152.657 54.0557C152.735 53.8998 152.813 53.7049 152.891 53.549C153.203 52.4967 153.437 51.4834 153.476 50.5091C153.476 50.4701 153.514 50.3922 153.514 50.3532C153.437 50.0025 153.125 49.5348 152.813 49.0281C151.8 47.4303 150.475 45.2867 152.345 42.2858C152.462 42.1299 152.657 42.091 152.813 42.2079C158.191 45.9103 154.645 50.5871 154.06 51.2496C154.021 51.5224 153.982 51.7952 153.943 52.068C155.112 50.8599 157.022 50.0025 160.023 50.8988C160.218 50.9378 160.296 51.1327 160.257 51.3275V51.3665C159.049 54.6792 156.554 54.991 154.684 55.2248C153.748 55.3418 152.969 55.4197 152.813 55.8874C152.813 55.8874 152.813 55.8874 152.813 55.9264C152.657 56.3161 152.501 56.7448 152.306 57.1345V57.1735C152.189 57.4073 152.111 57.6412 151.995 57.836C153.865 56.2771 156.71 55.3418 160.841 57.2125C161.075 57.2514 161.153 57.4463 161.075 57.6412Z" fill="#CAB1DC"/>
<path fill-rule="evenodd" clip-rule="evenodd" d="M113.918 44.78C114.619 44.1174 115.945 43.4549 118.244 43.26H118.283C118.478 43.26 118.556 43.3769 118.517 43.5328C117.776 45.4425 116.763 46.4948 115.867 46.9235C114.892 47.3911 114.035 47.2353 113.606 46.7676C113.216 46.2609 113.216 45.4815 113.918 44.78Z" fill="#443E71"/>
<path fill-rule="evenodd" clip-rule="evenodd" d="M119.374 44.5461C119.764 43.6497 120.738 42.5585 122.765 41.4673C122.765 41.4673 122.804 41.4673 122.804 41.4283C122.96 41.3503 123.116 41.4283 123.116 41.5842C123.155 43.6497 122.648 44.9748 121.985 45.7543C121.284 46.5727 120.426 46.7286 119.842 46.4558C119.257 46.183 118.984 45.4815 119.374 44.5461Z" fill="#443E71"/>
<path fill-rule="evenodd" clip-rule="evenodd" d="M124.713 43.1041C125.142 42.2467 126.194 41.1944 128.26 40.1811C128.26 40.1811 128.299 40.1811 128.299 40.1422C128.455 40.0642 128.611 40.1422 128.611 40.337C128.533 42.4026 127.948 43.7277 127.247 44.4292C126.506 45.2087 125.649 45.3256 125.064 45.0528C124.519 44.741 124.246 44.0005 124.713 43.1041Z" fill="#443E71"/>
<path fill-rule="evenodd" clip-rule="evenodd" d="M116.958 39.7915C117.932 39.7525 119.335 40.1812 121.206 41.5452L121.245 41.5842C121.362 41.7011 121.362 41.857 121.245 41.935C119.413 42.8703 117.971 42.9872 116.997 42.7144C115.945 42.4027 115.438 41.7401 115.438 41.0776C115.438 40.415 115.945 39.8694 116.958 39.7915Z" fill="#443E71"/>
<path fill-rule="evenodd" clip-rule="evenodd" d="M122.453 37.609C123.427 37.7649 124.713 38.4664 126.272 40.1812L126.311 40.2202C126.428 40.3761 126.389 40.532 126.233 40.5709C124.246 41.1165 122.804 40.9217 121.907 40.493C120.933 39.9863 120.582 39.2069 120.699 38.5833C120.816 37.9208 121.44 37.4531 122.453 37.609Z" fill="#443E71"/>
<path fill-rule="evenodd" clip-rule="evenodd" d="M136.951 78.9984C136.639 79.9337 136.678 81.4147 137.458 83.5582V83.5972C137.536 83.7531 137.691 83.7921 137.808 83.6751C139.211 82.1552 139.679 80.7911 139.679 79.8168C139.679 78.7256 139.133 78.063 138.549 77.8682C137.964 77.6733 137.302 78.0241 136.951 78.9984Z" fill="#443E71"/>
<path fill-rule="evenodd" clip-rule="evenodd" d="M141.511 74.6722C141.199 75.6076 141.238 77.0885 142.017 79.232V79.271C142.095 79.4269 142.251 79.4659 142.368 79.349C143.771 77.829 144.239 76.465 144.239 75.4906C144.239 74.3994 143.693 73.7369 143.109 73.542C142.524 73.3471 141.823 73.6979 141.511 74.6722Z" fill="#443E71"/>
<path fill-rule="evenodd" clip-rule="evenodd" d="M145.018 81.6875C144.122 82.0382 142.641 82.1162 140.42 81.4147H140.381C140.225 81.3367 140.186 81.1808 140.303 81.0639C141.745 79.5829 143.07 78.9983 144.083 78.9594C145.174 78.8814 145.876 79.3881 146.11 79.9727C146.266 80.5573 145.954 81.2977 145.018 81.6875Z" fill="#443E71"/>
<path fill-rule="evenodd" clip-rule="evenodd" d="M138.978 35.1927C139.056 35.1537 139.25 34.9588 139.445 34.5301C139.445 34.4912 139.484 34.4522 139.484 34.4132C139.718 33.9066 139.874 33.1661 139.757 32.0748C139.64 30.8277 139.367 29.7754 138.978 28.996C138.627 28.3334 138.237 27.9437 137.73 27.8658C137.107 27.7488 136.873 27.9437 136.561 28.1775C136.288 28.3724 135.977 28.6452 135.392 28.8011C135.314 28.8401 135.158 28.8791 135.002 28.918C134.768 28.996 134.496 29.0349 134.262 29.1129C133.521 29.3857 132.898 29.8144 133.326 31.0226C133.326 31.0615 133.326 31.0615 133.365 31.1005V31.1395C133.482 31.4513 133.677 31.841 133.95 32.1918C134.535 33.0881 135.353 33.9845 136.249 34.6081C136.717 34.9199 137.185 35.1927 137.652 35.3096C137.691 35.3096 137.691 35.3096 137.73 35.3096C138.081 35.3875 138.393 35.3875 138.705 35.2706C138.783 35.3096 138.9 35.2706 138.978 35.1927ZM133.171 28.918C132.703 29.2688 132.43 29.7754 132.547 30.6328C132.313 30.5549 132.001 30.4769 131.69 30.4769C131.807 29.5026 132.547 29.1129 133.171 28.918ZM130.988 30.6718C131.105 28.4503 133.288 28.1775 133.911 28.1386C134.457 27.476 135.08 27.2422 135.626 27.2032C136.561 25.7222 138.276 25.8781 138.822 25.9951C139.056 25.8392 139.367 25.7222 139.757 25.7612C140.069 25.8002 140.381 26.034 140.614 26.4238C140.926 26.9304 141.238 27.7099 141.433 28.6062C141.628 29.5026 141.706 30.5159 141.628 31.4902C141.511 32.8933 141.043 34.1794 140.03 34.9199C139.796 35.4265 139.484 35.6993 139.406 35.7773L139.367 35.8162C139.211 35.8942 139.056 35.9721 138.9 36.0501C138.51 36.206 138.081 36.206 137.614 36.0891C136.444 36.4788 135.353 36.4008 134.379 36.0501C132.937 35.5434 131.807 34.5301 131.183 33.8286C130.676 33.244 130.287 32.6984 130.131 32.2307C129.975 31.6461 130.131 31.1395 130.793 30.7887C130.871 30.7108 130.91 30.6718 130.988 30.6718ZM138.315 26.5796C137.808 26.5407 136.99 26.6186 136.444 27.2422C136.561 27.2812 136.639 27.2812 136.717 27.3201C136.99 27.2032 137.341 27.1253 137.847 27.2422C137.925 27.2422 138.003 27.2812 138.081 27.2812C138.081 27.0863 138.198 26.8135 138.315 26.5796ZM135.86 27.8658C135.704 27.9827 135.47 28.0606 135.197 28.1386C135.041 28.1775 134.963 28.2165 134.846 28.2555L134.691 28.2945C135.08 27.9827 135.509 27.8658 135.86 27.8658ZM140.459 33.3609C140.498 32.9712 140.498 32.5425 140.459 32.0748C140.303 30.7498 140.03 29.6195 139.601 28.7621C139.367 28.2555 139.056 27.8658 138.705 27.6319C138.783 27.2422 139.017 26.3848 139.718 26.4627C139.796 26.4627 139.913 26.5796 140.069 26.8135C140.342 27.2422 140.614 27.9437 140.809 28.7621C141.004 29.5806 141.082 30.5549 141.004 31.4513C140.887 32.1138 140.77 32.7763 140.459 33.3609ZM132.781 31.4902C132.937 31.841 133.132 32.2307 133.365 32.6205C133.989 33.5558 134.885 34.5301 135.86 35.2316C136.055 35.3875 136.249 35.5045 136.483 35.6214C135.821 35.6993 135.197 35.5824 134.613 35.3875C133.288 34.9199 132.274 33.9845 131.729 33.3609C131.3 32.8543 130.949 32.3866 130.832 31.9969C130.754 31.7241 130.832 31.4902 131.144 31.3344C131.807 30.9836 132.547 31.3733 132.781 31.4902Z" fill="#4B0082"/>
<path fill-rule="evenodd" clip-rule="evenodd" d="M142.524 43.9225C142.329 43.5718 142.173 43.1431 142.056 42.7533C141.745 41.8959 141.55 40.9606 141.511 40.0642C141.355 37.1802 142.836 35.1146 145.447 33.9844C145.642 33.9065 145.876 33.9454 146.032 34.1403C147.669 36.5177 147.785 39.0119 146.11 41.3893C145.564 42.1298 144.901 42.8313 144.2 43.3769C143.888 43.6107 143.537 43.8835 143.187 44.1174C143.07 44.1953 142.953 44.1953 142.836 44.1564C142.68 44.1564 142.602 44.0784 142.524 43.9225Z" fill="#9FBBC1"/>
<path fill-rule="evenodd" clip-rule="evenodd" d="M140.575 40.0252C140.381 40.1031 140.186 40.1811 139.991 40.2201C139.562 40.337 139.094 40.4149 138.627 40.376C137.185 40.337 136.21 39.5186 135.782 38.1545C135.743 38.0376 135.782 37.9207 135.899 37.8817C137.146 37.1802 138.393 37.2191 139.523 38.1155C139.874 38.4273 140.186 38.7781 140.459 39.1288C140.575 39.2847 140.692 39.4796 140.77 39.6744C140.809 39.7524 140.809 39.7914 140.77 39.8693C140.692 39.9473 140.614 39.9862 140.575 40.0252Z" fill="#9FBBC1"/>
<path fill-rule="evenodd" clip-rule="evenodd" d="M128.104 12.4714H126.662C126.311 12.4714 126.039 12.1985 126.039 11.8478V10.4058C126.039 10.055 126.311 9.78223 126.662 9.78223H128.104C128.455 9.78223 128.728 10.055 128.728 10.4058V11.8478C128.728 12.1985 128.455 12.4714 128.104 12.4714Z" fill="#E8BFC5"/>
<path fill-rule="evenodd" clip-rule="evenodd" d="M123.116 12.4714H121.674C121.323 12.4714 121.05 12.1985 121.05 11.8478V10.4058C121.05 10.055 121.323 9.78223 121.674 9.78223H123.116C123.466 9.78223 123.739 10.055 123.739 10.4058V11.8478C123.778 12.1985 123.466 12.4714 123.116 12.4714Z" fill="white"/>
<path fill-rule="evenodd" clip-rule="evenodd" d="M118.166 12.4714H116.724C116.373 12.4714 116.1 12.1985 116.1 11.8478V10.4058C116.1 10.055 116.373 9.78223 116.724 9.78223H118.166C118.517 9.78223 118.79 10.055 118.79 10.4058V11.8478C118.79 12.1985 118.517 12.4714 118.166 12.4714Z" fill="#E8BFC5"/>
<path fill-rule="evenodd" clip-rule="evenodd" d="M113.178 12.4714H111.736C111.385 12.4714 111.112 12.1985 111.112 11.8478V10.4058C111.112 10.055 111.385 9.78223 111.736 9.78223H113.178C113.528 9.78223 113.801 10.055 113.801 10.4058V11.8478C113.801 12.1985 113.528 12.4714 113.178 12.4714Z" fill="white"/>
<path fill-rule="evenodd" clip-rule="evenodd" d="M108.189 12.4714H106.747C106.396 12.4714 106.123 12.1985 106.123 11.8478V10.4058C106.123 10.055 106.396 9.78223 106.747 9.78223H108.189C108.54 9.78223 108.813 10.055 108.813 10.4058V11.8478C108.813 12.1985 108.54 12.4714 108.189 12.4714Z" fill="#E8BFC5"/>
<path fill-rule="evenodd" clip-rule="evenodd" d="M117.971 7.05412H116.529C116.178 7.05412 115.906 6.78131 115.906 6.43056V4.98856C115.906 4.6378 116.178 4.36499 116.529 4.36499H117.971C118.322 4.36499 118.595 4.6378 118.595 4.98856V6.43056C118.595 6.74234 118.322 7.05412 117.971 7.05412Z" fill="white"/>
<path fill-rule="evenodd" clip-rule="evenodd" d="M112.983 7.05412H111.541C111.19 7.05412 110.917 6.78131 110.917 6.43056V4.98856C110.917 4.6378 111.19 4.36499 111.541 4.36499H112.983C113.333 4.36499 113.606 4.6378 113.606 4.98856V6.43056C113.606 6.74234 113.333 7.05412 112.983 7.05412Z" fill="#E8BFC5"/>
<path fill-rule="evenodd" clip-rule="evenodd" d="M108.033 7.05412H106.591C106.24 7.05412 105.967 6.78131 105.967 6.43056V4.98856C105.967 4.6378 106.24 4.36499 106.591 4.36499H108.033C108.384 4.36499 108.657 4.6378 108.657 4.98856V6.43056C108.657 6.74234 108.345 7.05412 108.033 7.05412Z" fill="white"/>
<path fill-rule="evenodd" clip-rule="evenodd" d="M39.8304 137.497H41.2724C41.6231 137.497 41.896 137.224 41.896 136.873V135.431C41.896 135.08 41.6231 134.808 41.2724 134.808H39.8304C39.4796 134.808 39.2068 135.08 39.2068 135.431V136.873C39.2068 137.224 39.4796 137.497 39.8304 137.497Z" fill="#E8BFC5"/>
<path fill-rule="evenodd" clip-rule="evenodd" d="M44.8189 137.497H46.2609C46.6117 137.497 46.8845 137.224 46.8845 136.873V135.431C46.8845 135.08 46.6117 134.808 46.2609 134.808H44.8189C44.4682 134.808 44.1953 135.08 44.1953 135.431V136.873C44.1953 137.224 44.4682 137.497 44.8189 137.497Z" fill="white"/>
<path fill-rule="evenodd" clip-rule="evenodd" d="M49.7685 137.497H51.2105C51.5612 137.497 51.8341 137.224 51.8341 136.873V135.431C51.8341 135.08 51.5612 134.808 51.2105 134.808H49.7685C49.4177 134.808 49.1449 135.08 49.1449 135.431V136.873C49.1449 137.224 49.4567 137.497 49.7685 137.497Z" fill="#E8BFC5"/>
<path fill-rule="evenodd" clip-rule="evenodd" d="M54.757 137.497H56.199C56.5498 137.497 56.8226 137.224 56.8226 136.873V135.431C56.8226 135.08 56.5498 134.808 56.199 134.808H54.757C54.4063 134.808 54.1335 135.08 54.1335 135.431V136.873C54.1335 137.224 54.4063 137.497 54.757 137.497Z" fill="white"/>
<path fill-rule="evenodd" clip-rule="evenodd" d="M59.7456 137.497H61.1876C61.5383 137.497 61.8111 137.224 61.8111 136.873V135.431C61.8111 135.08 61.5383 134.808 61.1876 134.808H59.7456C59.3948 134.808 59.122 135.08 59.122 135.431V136.873C59.122 137.224 59.3948 137.497 59.7456 137.497Z" fill="#E8BFC5"/>
<path fill-rule="evenodd" clip-rule="evenodd" d="M49.9633 132.08H51.4053C51.7561 132.08 52.0289 131.807 52.0289 131.456V130.014C52.0289 129.663 51.7561 129.39 51.4053 129.39H49.9633C49.6126 129.39 49.3398 129.663 49.3398 130.014V131.456C49.3398 131.807 49.6126 132.08 49.9633 132.08Z" fill="white"/>
<path fill-rule="evenodd" clip-rule="evenodd" d="M54.9519 132.08H56.3939C56.7446 132.08 57.0174 131.807 57.0174 131.456V130.014C57.0174 129.663 56.7446 129.39 56.3939 129.39H54.9519C54.6011 129.39 54.3283 129.663 54.3283 130.014V131.456C54.3283 131.807 54.6011 132.08 54.9519 132.08Z" fill="#E8BFC5"/>
<path fill-rule="evenodd" clip-rule="evenodd" d="M59.9404 132.08H61.3824C61.7332 132.08 62.006 131.807 62.006 131.456V130.014C62.006 129.663 61.7332 129.39 61.3824 129.39H59.9404C59.5897 129.39 59.3169 129.663 59.3169 130.014V131.456C59.2779 131.807 59.5897 132.08 59.9404 132.08Z" fill="white"/>
<path fill-rule="evenodd" clip-rule="evenodd" d="M27.1642 108.93C27.1642 108.735 27.3201 108.54 27.5539 108.54C27.7488 108.54 27.9436 108.696 27.9436 108.93V110.605C27.9436 110.8 27.7877 110.995 27.5539 110.995C27.359 110.995 27.1642 110.839 27.1642 110.605V108.93ZM24.6309 110.294C24.475 110.138 24.475 109.904 24.6309 109.748C24.7868 109.592 25.0207 109.592 25.1765 109.748L26.3457 110.917C26.5016 111.073 26.5016 111.307 26.3457 111.463C26.1898 111.619 25.956 111.619 25.8001 111.463L24.6309 110.294ZM23.7735 113.061C23.5787 113.061 23.3838 112.905 23.3838 112.671C23.3838 112.476 23.5397 112.281 23.7735 112.281H25.4494C25.6442 112.281 25.8391 112.437 25.8391 112.671C25.8391 112.866 25.6832 113.061 25.4494 113.061H23.7735ZM25.1376 115.594C24.9817 115.75 24.7478 115.75 24.592 115.594C24.4361 115.438 24.4361 115.204 24.592 115.048L25.7611 113.879C25.917 113.723 26.1509 113.723 26.3068 113.879C26.4627 114.035 26.4627 114.269 26.3068 114.425L25.1376 115.594ZM27.9047 116.451C27.9047 116.646 27.7488 116.841 27.5149 116.841C27.3201 116.841 27.1252 116.685 27.1252 116.451V114.775C27.1252 114.581 27.2811 114.386 27.5149 114.386C27.7098 114.386 27.9047 114.542 27.9047 114.775V116.451ZM30.4769 115.087C30.6328 115.243 30.6328 115.477 30.4769 115.633C30.321 115.789 30.0871 115.789 29.9312 115.633L28.7621 114.464C28.6062 114.308 28.6062 114.074 28.7621 113.918C28.918 113.762 29.1518 113.762 29.3077 113.918L30.4769 115.087ZM31.2953 112.32C31.4902 112.32 31.685 112.476 31.685 112.71C31.685 112.905 31.5291 113.1 31.2953 113.1H29.6195C29.4246 113.1 29.2297 112.944 29.2297 112.71C29.2297 112.515 29.3856 112.32 29.6195 112.32H31.2953ZM29.9312 109.787C30.0871 109.631 30.321 109.631 30.4769 109.787C30.6328 109.943 30.6328 110.177 30.4769 110.333L29.3077 111.502C29.1518 111.658 28.918 111.658 28.7621 111.502C28.6062 111.346 28.6062 111.112 28.7621 110.956L29.9312 109.787Z" fill="white"/>
<path fill-rule="evenodd" clip-rule="evenodd" d="M65.4356 10.172C65.4356 9.97709 65.5915 9.78223 65.8253 9.78223C66.0202 9.78223 66.2151 9.93812 66.2151 10.172V11.8478C66.2151 12.0427 66.0592 12.2375 65.8253 12.2375C65.6305 12.2375 65.4356 12.0816 65.4356 11.8478V10.172ZM62.8634 11.536C62.7075 11.3801 62.7075 11.1463 62.8634 10.9904C63.0193 10.8345 63.2531 10.8345 63.409 10.9904L64.5782 12.1596C64.7341 12.3155 64.7341 12.5493 64.5782 12.7052C64.4223 12.8611 64.1885 12.8611 64.0326 12.7052L62.8634 11.536ZM62.045 14.3031C61.8501 14.3031 61.6552 14.1472 61.6552 13.9134C61.6552 13.7185 61.8111 13.5236 62.045 13.5236H63.7208C63.9157 13.5236 64.1105 13.6795 64.1105 13.9134C64.1105 14.1082 63.9546 14.3031 63.7208 14.3031H62.045ZM63.409 16.8363C63.2531 16.9922 63.0193 16.9922 62.8634 16.8363C62.7075 16.6804 62.7075 16.4466 62.8634 16.2907L64.0326 15.1215C64.1885 14.9656 64.4223 14.9656 64.5782 15.1215C64.7341 15.2774 64.7341 15.5113 64.5782 15.6671L63.409 16.8363ZM66.1761 17.6937C66.1761 17.8886 66.0202 18.0835 65.7864 18.0835C65.5915 18.0835 65.3966 17.9276 65.3966 17.6937V15.9789C65.3966 15.7841 65.5525 15.5892 65.7864 15.5892C65.9812 15.5892 66.1761 15.7451 66.1761 15.9789V17.6937ZM68.7094 16.3297C68.8652 16.4856 68.8652 16.7194 68.7094 16.8753C68.5535 17.0312 68.3196 17.0312 68.1637 16.8753L66.9945 15.7061C66.8386 15.5502 66.8386 15.3164 66.9945 15.1605C67.1504 15.0046 67.3843 15.0046 67.5402 15.1605L68.7094 16.3297ZM69.5278 13.5626C69.7226 13.5626 69.9175 13.7185 69.9175 13.9523C69.9175 14.1472 69.7616 14.3421 69.5278 14.3421H67.8519C67.6571 14.3421 67.4622 14.1862 67.4622 13.9523C67.4622 13.7575 67.6181 13.5626 67.8519 13.5626H69.5278ZM68.1637 10.9904C68.3196 10.8345 68.5535 10.8345 68.7094 10.9904C68.8652 11.1463 68.8652 11.3801 68.7094 11.536L67.5402 12.7052C67.3843 12.8611 67.1504 12.8611 66.9945 12.7052C66.8386 12.5493 66.8386 12.3155 66.9945 12.1596L68.1637 10.9904Z" fill="white"/>
<path fill-rule="evenodd" clip-rule="evenodd" d="M168.051 59.0831C168.051 58.8882 168.207 58.6934 168.441 58.6934C168.636 58.6934 168.831 58.8493 168.831 59.0831V60.7589C168.831 60.9538 168.675 61.1487 168.441 61.1487C168.246 61.1487 168.051 60.9928 168.051 60.7589V59.0831ZM165.518 60.4471C165.362 60.2913 165.362 60.0574 165.518 59.9015C165.674 59.7456 165.908 59.7456 166.064 59.9015L167.233 61.0707C167.389 61.2266 167.389 61.4604 167.233 61.6163C167.077 61.7722 166.843 61.7722 166.687 61.6163L165.518 60.4471ZM164.661 63.2142C164.466 63.2142 164.271 63.0583 164.271 62.8245C164.271 62.6296 164.427 62.4348 164.661 62.4348H166.337C166.531 62.4348 166.726 62.5907 166.726 62.8245C166.726 63.0194 166.57 63.2142 166.337 63.2142H164.661ZM166.025 65.7475C165.869 65.9034 165.635 65.9034 165.479 65.7475C165.323 65.5916 165.323 65.3577 165.479 65.2018L166.648 64.0327C166.804 63.8768 167.038 63.8768 167.194 64.0327C167.35 64.1885 167.35 64.4224 167.194 64.5783L166.025 65.7475ZM168.792 66.5659C168.792 66.7608 168.636 66.9556 168.402 66.9556C168.207 66.9556 168.012 66.7997 168.012 66.5659V64.8901C168.012 64.6952 168.168 64.5003 168.402 64.5003C168.597 64.5003 168.792 64.6562 168.792 64.8901V66.5659ZM171.325 65.2018C171.481 65.3577 171.481 65.5916 171.325 65.7475C171.169 65.9034 170.935 65.9034 170.78 65.7475L169.61 64.5783C169.454 64.4224 169.454 64.1885 169.61 64.0327C169.766 63.8768 170 63.8768 170.156 64.0327L171.325 65.2018ZM172.183 62.4348C172.377 62.4348 172.572 62.5907 172.572 62.8245C172.572 63.0194 172.416 63.2142 172.183 63.2142H170.507C170.312 63.2142 170.117 63.0583 170.117 62.8245C170.117 62.6296 170.273 62.4348 170.507 62.4348H172.183ZM170.819 59.9015C170.974 59.7456 171.208 59.7456 171.364 59.9015C171.52 60.0574 171.52 60.2913 171.364 60.4471L170.195 61.6163C170.039 61.7722 169.805 61.7722 169.649 61.6163C169.493 61.4604 169.493 61.2266 169.649 61.0707L170.819 59.9015Z" fill="white"/>
<path fill-rule="evenodd" clip-rule="evenodd" d="M58.6543 57.9139C57.719 56.9786 56.238 56.9786 55.3026 57.9139L54.9129 58.3036L54.5232 57.9139C53.5878 56.9786 52.1069 56.9786 51.1715 57.9139C50.2362 58.8493 50.2362 60.3302 51.1715 61.2656L51.5612 61.6553L54.9129 65.007L58.2646 61.6553L58.6543 61.2656C59.5507 60.3302 59.5507 58.8493 58.6543 57.9139Z" fill="white"/>
<path fill-rule="evenodd" clip-rule="evenodd" d="M121.089 80.2064C120.154 79.271 118.673 79.271 117.737 80.2064L117.348 80.5961L116.958 80.2064C116.023 79.271 114.542 79.271 113.606 80.2064C112.671 81.1417 112.671 82.6227 113.606 83.5581L113.996 83.9478L117.348 87.2995L120.699 83.9478L121.089 83.5581C122.024 82.6227 122.024 81.1028 121.089 80.2064Z" fill="white"/>
<path fill-rule="evenodd" clip-rule="evenodd" d="M126.896 19.1747C125.961 18.2393 124.48 18.2393 123.544 19.1747L123.155 19.5644L122.765 19.1747C121.829 18.2393 120.349 18.2393 119.413 19.1747C118.478 20.11 118.478 21.591 119.413 22.5263L119.803 22.9161L123.155 26.2677L126.506 22.9161L126.896 22.5263C127.831 21.63 127.831 20.11 126.896 19.1747Z" fill="white"/>
<path fill-rule="evenodd" clip-rule="evenodd" d="M24.3971 44.6631C25.0596 44.6631 25.6053 44.1175 25.6053 43.455C25.6053 42.7924 25.0596 42.2468 24.3971 42.2468C23.7346 42.2468 23.1889 42.7924 23.1889 43.455C23.1889 44.1175 23.7346 44.6631 24.3971 44.6631Z" fill="white"/>
<path fill-rule="evenodd" clip-rule="evenodd" d="M58.7712 119.218C59.4338 119.218 59.9794 118.673 59.9794 118.01C59.9794 117.348 59.4338 116.802 58.7712 116.802C58.1087 116.802 57.5631 117.348 57.5631 118.01C57.5631 118.673 58.1087 119.218 58.7712 119.218Z" fill="white"/>
<path fill-rule="evenodd" clip-rule="evenodd" d="M138.198 131.339C138.861 131.339 139.406 130.793 139.406 130.131C139.406 129.468 138.861 128.923 138.198 128.923C137.536 128.923 136.99 129.468 136.99 130.131C136.951 130.793 137.497 131.339 138.198 131.339Z" fill="white"/>
<path fill-rule="evenodd" clip-rule="evenodd" d="M128.962 61.6163C129.624 61.6163 130.17 61.0707 130.17 60.4081C130.17 59.7456 129.624 59.2 128.962 59.2C128.299 59.2 127.753 59.7456 127.753 60.4081C127.753 61.0707 128.299 61.6163 128.962 61.6163Z" fill="white"/>
<path fill-rule="evenodd" clip-rule="evenodd" d="M138.51 110.839C138.51 110.644 138.666 110.449 138.9 110.449C139.094 110.449 139.289 110.605 139.289 110.839V112.515C139.289 112.71 139.133 112.905 138.9 112.905C138.705 112.905 138.51 112.749 138.51 112.515V110.839ZM135.977 112.203C135.821 112.047 135.821 111.814 135.977 111.658C136.133 111.502 136.366 111.502 136.522 111.658L137.691 112.827C137.847 112.983 137.847 113.217 137.691 113.372C137.536 113.528 137.302 113.528 137.146 113.372L135.977 112.203ZM135.158 114.97C134.963 114.97 134.768 114.814 134.768 114.581C134.768 114.386 134.924 114.191 135.158 114.191H136.834C137.029 114.191 137.224 114.347 137.224 114.581C137.224 114.775 137.068 114.97 136.834 114.97H135.158ZM136.522 117.504C136.366 117.659 136.133 117.659 135.977 117.504C135.821 117.348 135.821 117.114 135.977 116.958L137.146 115.789C137.302 115.633 137.536 115.633 137.691 115.789C137.847 115.945 137.847 116.178 137.691 116.334L136.522 117.504ZM139.25 118.322C139.25 118.517 139.094 118.712 138.861 118.712C138.666 118.712 138.471 118.556 138.471 118.322V116.646C138.471 116.451 138.627 116.256 138.861 116.256C139.056 116.256 139.25 116.412 139.25 116.646V118.322ZM141.823 116.958C141.978 117.114 141.978 117.348 141.823 117.504C141.667 117.659 141.433 117.659 141.277 117.504L140.108 116.334C139.952 116.178 139.952 115.945 140.108 115.789C140.264 115.633 140.498 115.633 140.653 115.789L141.823 116.958ZM142.641 114.191C142.836 114.191 143.031 114.347 143.031 114.581C143.031 114.775 142.875 114.97 142.641 114.97H140.965C140.77 114.97 140.575 114.814 140.575 114.581C140.575 114.386 140.731 114.191 140.965 114.191H142.641ZM141.277 111.658C141.433 111.502 141.667 111.502 141.823 111.658C141.978 111.814 141.978 112.047 141.823 112.203L140.653 113.372C140.498 113.528 140.264 113.528 140.108 113.372C139.952 113.217 139.952 112.983 140.108 112.827L141.277 111.658Z" fill="white"/>
<path fill-rule="evenodd" clip-rule="evenodd" d="M168.207 123.349C167.272 122.414 165.791 122.414 164.856 123.349L164.466 123.739L164.076 123.349C163.141 122.414 161.66 122.414 160.724 123.349C159.789 124.285 159.789 125.766 160.724 126.701L161.114 127.091L164.466 130.443L167.818 127.091L168.207 126.701C169.104 125.766 169.104 124.246 168.207 123.349Z" fill="white"/>
<path fill-rule="evenodd" clip-rule="evenodd" d="M92.9505 39.9085C88.8973 42.5197 84.2985 45.4037 84.2985 45.4037L84.1816 43.533H80.1674L79.8556 47.781C79.8556 47.781 79.6607 49.8466 81.2197 50.704C82.7786 51.5614 85.2728 50.665 86.481 50.1584C87.7281 49.6517 95.4448 46.0273 95.4448 46.0273C99.8487 44.1176 97.0037 37.2973 92.9505 39.9085Z" fill="#D2887A"/>
<path fill-rule="evenodd" clip-rule="evenodd" d="M75.8024 50.0804C77.3224 53.8608 78.4136 56.2771 78.6085 56.8617C78.8813 57.6802 80.4792 59.8237 83.3242 60.0185C86.2082 60.2134 99.498 59.9016 99.6929 59.9016C99.9267 59.9016 100.472 59.6288 100.433 59.1611C100.433 58.7324 99.3421 51.6004 99.1862 51.0158C99.0303 50.3922 98.6016 50.3533 97.6273 50.4312C96.614 50.5091 87.4943 51.0158 87.4943 51.0158C87.4943 51.0158 87.4164 50.1584 87.1825 49.8856C86.9487 49.6128 86.2472 49.7687 86.2472 49.7687L86.1692 49.4958L75.8024 50.0804Z" fill="#4B0082"/>
<path fill-rule="evenodd" clip-rule="evenodd" d="M73.1133 136.522L73.0353 137.107C73.0353 137.107 72.6846 139.562 72.5676 140.069C72.4507 140.537 72.6846 141.667 72.6846 141.667C72.6846 141.667 73.5809 142.719 74.4773 142.875C75.3737 143.031 79.4269 143.187 79.5048 142.992C79.5828 142.797 78.6085 141.082 78.6085 141.082C78.6085 141.082 78.1408 140.108 78.5695 137.185C78.5695 135.002 73.1133 136.522 73.1133 136.522Z" fill="#D2887A"/>
<path fill-rule="evenodd" clip-rule="evenodd" d="M77.6731 141.472L77.1665 141.316C77.1665 141.316 76.0362 141.901 74.5942 141.433C73.1522 140.965 72.6066 140.186 72.6066 140.186C72.6066 140.186 72.5287 140.03 72.3728 140.03C72.2169 140.03 72.3338 140.03 72.2169 140.03C72.1 140.03 71.7103 140.069 71.5544 140.42C71.3985 140.771 71.0867 142.914 71.5154 144.083C71.9441 145.252 72.5677 145.097 72.5677 145.097C72.5677 145.097 74.984 144.395 76.6598 144.98C78.2967 145.525 79.8166 146.11 79.8166 146.11C79.8166 146.11 79.7387 142.992 77.6731 141.472Z" fill="#4B0082"/>
<path fill-rule="evenodd" clip-rule="evenodd" d="M88.7414 145.798L88.9363 145.291C88.9363 145.291 88.9363 144.902 88.9363 144.668C88.9363 144.434 88.8194 143.732 88.1179 143.732C87.4164 143.732 86.0523 143.732 85.4287 143.732C84.8052 143.732 81.4145 142.095 78.8423 140.069C78.8423 140.069 78.6474 139.874 78.3746 140.03C78.1018 140.186 77.2834 140.809 77.2054 140.887C77.1275 140.965 77.1275 141.238 77.1665 141.316C77.2054 141.394 79.6218 145.954 79.6218 145.954C79.6218 145.954 86.6759 146.85 88.7414 145.798Z" fill="#383260"/>
<path fill-rule="evenodd" clip-rule="evenodd" d="M88.9363 145.291C88.9363 145.291 89.0922 145.408 89.0922 145.564C89.0922 145.72 89.0922 145.954 89.0922 146.071C89.0922 146.188 88.7804 146.694 88.0789 146.694C87.3774 146.694 81.5704 146.694 80.5961 146.694C79.6218 146.694 78.6085 146.461 77.9459 146.149C77.2834 145.837 76.0363 145.486 76.0363 145.486C76.0363 145.486 75.8414 145.447 75.8414 145.72C75.8414 146.032 75.8414 146.149 75.8414 146.305C75.8414 146.461 75.9193 146.85 75.3348 146.85C74.7112 146.85 71.9831 146.85 71.7103 146.85C71.4375 146.85 71.1257 146.694 71.1257 146.149C71.1257 145.603 71.1257 145.096 71.1257 144.746C71.1257 144.395 71.3205 144.161 71.5544 144.161C71.7882 144.161 73.1912 144.161 74.3604 144.161C75.5296 144.161 76.465 144.434 77.907 145.096C79.349 145.759 80.713 145.954 82.233 145.954C83.7529 145.954 85.6626 145.954 86.4031 145.954C87.1436 145.954 88.4297 145.72 88.9363 145.291Z" fill="#383260"/>
<path fill-rule="evenodd" clip-rule="evenodd" d="M71.1646 136.522L71.0867 137.107C71.0867 137.107 70.7359 139.562 70.619 140.069C70.5021 140.537 70.7359 141.667 70.7359 141.667C70.7359 141.667 71.5933 142.719 72.4507 142.875C73.3081 143.031 77.2054 143.187 77.2834 142.992C77.3613 142.797 76.426 141.082 76.426 141.082C76.426 141.082 75.9583 140.108 76.387 137.185C76.426 135.002 71.1646 136.522 71.1646 136.522Z" fill="#E6B5A3"/>
<path fill-rule="evenodd" clip-rule="evenodd" d="M75.5296 141.472L75.0619 141.316C75.0619 141.316 73.9707 141.901 72.6066 141.433C71.2426 140.965 70.697 140.186 70.697 140.186C70.697 140.186 70.619 140.03 70.5021 140.03C70.3462 140.03 70.4631 140.03 70.3462 140.03C70.2293 140.03 69.8785 140.069 69.7226 140.42C69.5667 140.771 69.255 142.914 69.6837 144.083C70.1124 145.252 70.697 145.097 70.697 145.097C70.697 145.097 73.0353 144.395 74.5943 144.98C76.1532 145.525 77.5952 146.11 77.5952 146.11C77.5952 146.11 77.5172 142.992 75.5296 141.472Z" fill="#383260"/>
<path fill-rule="evenodd" clip-rule="evenodd" d="M86.1692 145.798L86.3251 145.291C86.3251 145.291 86.3251 144.902 86.3251 144.668C86.3251 144.434 86.2472 143.732 85.5456 143.732C84.8831 143.732 83.558 143.732 82.9734 143.732C82.3888 143.732 79.1541 142.095 76.6598 140.069C76.6598 140.069 76.4649 139.874 76.2311 140.03C75.9583 140.186 75.1788 140.809 75.1009 140.887C75.0229 140.965 75.0229 141.238 75.0619 141.316C75.1009 141.394 77.4003 145.954 77.4003 145.954C77.4003 145.954 84.1816 146.85 86.1692 145.798Z" fill="#443E71"/>
<path fill-rule="evenodd" clip-rule="evenodd" d="M86.3251 145.291C86.3251 145.291 86.481 145.408 86.481 145.564C86.481 145.72 86.481 145.954 86.481 146.071C86.481 146.188 86.1692 146.694 85.5067 146.694C80.2453 146.694 75.0229 146.811 69.7616 146.811C69.4888 146.811 69.177 146.655 69.177 146.11C69.177 145.564 69.177 145.057 69.177 144.707C69.177 144.356 69.3719 144.122 69.6057 144.122C69.8395 144.122 71.1646 144.122 72.2948 144.122C73.4251 144.122 74.3214 144.395 75.7245 145.057C77.1275 145.72 78.4136 145.915 79.8556 145.915C81.2976 145.915 83.1683 145.915 83.8698 145.915C84.6103 145.876 85.8574 145.72 86.3251 145.291Z" fill="#443E71"/>
<path fill-rule="evenodd" clip-rule="evenodd" d="M101.797 29.8923C101.758 30.0482 101.719 30.2431 101.641 30.438C100.823 32.9712 100.667 33.244 101.369 34.4132C102.07 35.5434 103.2 37.648 100.706 40.1812C98.2119 42.7144 100.277 43.8836 99.8487 45.3256C99.42 46.7676 97.0037 46.3389 96.3412 47.1574C95.6786 47.9368 95.6786 49.4957 93.8469 49.184C92.0152 48.8722 90.846 45.6374 92.0931 43.2211C93.3402 40.8048 93.4961 40.2981 92.9115 39.8694C92.3269 39.4407 90.2224 36.9464 93.5351 33.283C94.8992 31.763 95.4448 30.7108 95.6396 29.9703H101.797V29.8923Z" fill="#383260"/>
<path fill-rule="evenodd" clip-rule="evenodd" d="M95.6397 33.0882C96.4191 32.9323 96.575 33.244 96.9258 33.7897C97.6273 34.8809 99.1862 37.2972 99.1862 37.2972H104.526L100.083 28.5283L95.9904 30.7888L95.6397 33.0882Z" fill="#E6B5A3"/>
<path fill-rule="evenodd" clip-rule="evenodd" d="M95.6397 33.0882C96.0684 33.0102 96.3412 33.0882 96.5361 33.2441L100.745 32.2308L101.252 30.7108L100.161 28.5283L95.9904 30.7888L95.6397 33.0882Z" fill="#D2887A"/>
<path fill-rule="evenodd" clip-rule="evenodd" d="M81.4925 37.2192C81.4925 37.2192 83.0124 38.4664 83.3242 38.8561C83.675 39.2458 86.559 49.9244 86.6759 51.3664C86.7928 52.7695 86.4421 60.8369 86.4421 60.8369C86.4421 60.8369 88.3907 76.426 88.5856 77.907C88.7804 79.388 83.8309 82.7786 83.8309 82.7786L81.4925 37.2192Z" fill="#4B0082"/>
<path fill-rule="evenodd" clip-rule="evenodd" d="M118.322 133.522C112.398 123.194 106.63 88.8975 106.903 79.0373C107.137 69.1772 101.525 63.643 101.525 63.643C96.7699 53.588 108.929 44.5462 105.89 37.9988C105.266 36.7127 103.941 36.0891 103.941 36.0891C104.097 36.6347 103.434 36.7127 101.641 36.7517C99.8487 36.8296 98.4067 37.3362 98.4067 37.3362C98.4067 37.3362 95.2499 40.8048 94.9382 41.1166C94.5874 41.4674 89.7937 43.8447 89.1702 44.897C88.5466 45.9493 89.7937 50.626 89.7158 53.1593C89.6378 55.7315 89.0532 60.5252 88.8973 63.0974C88.7025 65.6696 86.0133 81.0639 86.2472 91.7815C86.481 102.499 83.4022 124.714 82.155 131.339C82.155 131.339 81.9991 132.002 82.233 132.625C82.4668 133.249 84.0647 133.833 84.0647 133.833C84.0647 133.833 82.2719 144.005 82.0771 144.785C81.8432 145.564 82.5837 146.889 83.675 147.279C84.7662 147.669 92.8336 149.267 99.0693 147.786C99.0693 147.786 100.433 147.24 100.355 145.642C100.355 145.642 107.176 145.837 110.527 143.966C110.527 143.966 111.034 143.771 111.034 142.563C111.034 141.316 110.8 140.342 110.8 140.342C110.8 140.342 115.828 138.12 118.166 134.691C118.166 134.691 118.595 134.34 118.322 133.522Z" fill="white"/>
<path fill-rule="evenodd" clip-rule="evenodd" d="M100.628 60.8368C99.8877 56.9395 101.33 53.237 102.967 49.7685L101.447 48.1316C101.447 48.1316 101.174 51.0156 101.018 51.6002C100.901 52.1848 94.0807 57.7189 94.0807 57.7189L95.5228 60.2132L100.628 60.8368Z" fill="#E3E1F1"/>
<path fill-rule="evenodd" clip-rule="evenodd" d="M100.706 61.2266C100.589 60.7589 100.55 60.3302 100.472 59.8625L89.0922 60.603C89.0143 61.5384 88.9363 62.3958 88.8584 63.0973C88.8194 63.6039 88.7025 64.6172 88.5076 66.0203L96.3802 66.1372C96.3802 66.1372 97.3155 66.1372 97.0817 65.0849C96.8478 64.0327 96.5361 63.2532 96.5361 63.2532L100.589 62.084L100.706 61.2266Z" fill="#E3E1F1"/>
<path fill-rule="evenodd" clip-rule="evenodd" d="M89.0532 46.8846C89.2091 48.5604 89.6378 50.8209 89.7158 52.4967C93.2233 52.4967 96.2632 49.0671 96.2632 49.0671L102.031 42.8704L102.772 45.7544C102.772 45.7544 103.006 42.7145 102.46 42.0909C101.953 41.4674 95.9514 45.0918 95.9514 45.0918L89.0532 46.8846Z" fill="#E3E1F1"/>
<path fill-rule="evenodd" clip-rule="evenodd" d="M96.4191 62.24C97.7442 62.3959 99.6539 62.5128 100.55 61.2657C100.823 60.876 101.836 58.6155 101.641 57.2125C101.603 56.9007 100.706 56.6279 100.55 56.511C100.55 56.511 99.537 56.7448 99.3811 56.9007C99.3421 56.9397 100.083 56.1992 100.044 55.8874C100.044 55.6146 99.3421 55.8874 99.0693 55.9264C98.8744 55.9654 98.1729 55.9264 97.5883 56.1992C96.8478 56.511 96.3412 57.1346 96.2242 57.4464C95.6397 58.8104 96.4191 62.24 96.4191 62.24Z" fill="#E6B5A3"/>
<path fill-rule="evenodd" clip-rule="evenodd" d="M94.1587 56.6277C94.1587 56.6277 96.4191 56.5108 96.653 56.4718C96.8478 56.4328 97.0037 56.6277 97.0817 56.8226C97.1986 57.0174 97.9001 62.9024 97.9001 62.9024C97.9001 62.9024 98.017 63.2921 97.6273 63.4869C97.2376 63.6818 95.0551 64.0715 95.0551 64.0715L94.1587 56.6277Z" fill="white"/>
<path fill-rule="evenodd" clip-rule="evenodd" d="M84.4934 74.1656C84.4934 74.1656 84.7272 81.1417 84.4155 82.5837C84.1037 83.9867 79.6218 134.457 79.5049 137.536C79.5049 137.536 79.4269 138.198 78.6475 138.198C77.829 138.198 73.6199 138.198 73.6199 138.198C73.6199 138.198 72.9964 138.159 72.8795 137.185C72.8015 136.211 73.3082 115.789 73.2692 115.165C73.2302 114.542 72.8405 114.23 72.8015 113.762C72.7625 113.255 73.3861 112.827 73.542 112.359C73.6979 111.93 69.3719 81.4925 69.5668 77.6731C69.8006 73.8538 84.4934 74.1656 84.4934 74.1656Z" fill="#CEA8EA"/>
<path fill-rule="evenodd" clip-rule="evenodd" d="M84.4934 74.1656C84.4934 74.1656 84.4544 81.1417 84.1037 82.5837C83.7529 83.9867 77.4783 134.457 77.2834 137.536C77.2834 137.536 77.2055 138.198 76.387 138.198C75.5686 138.198 71.3595 138.198 71.3595 138.198C71.3595 138.198 70.7359 138.159 70.658 137.185C70.619 136.211 71.8272 115.789 71.8272 115.165C71.8272 114.542 71.4375 114.23 71.3985 113.762C71.3595 113.255 72.022 112.827 72.1779 112.359C72.3338 111.93 69.0991 81.4925 69.4498 77.6731C69.8006 73.8538 84.4934 74.1656 84.4934 74.1656Z" fill="#CAB1DC"/>
<path fill-rule="evenodd" clip-rule="evenodd" d="M84.8831 72.6457C84.8831 72.6457 85.7795 69.8007 85.9354 69.2941C86.0913 68.8264 85.7016 66.7998 85.7016 66.7998C85.7016 66.7998 83.4801 71.2427 83.4801 71.4376C83.4801 71.6325 84.1816 73.1524 84.8831 72.6457Z" fill="#C8C4E1"/>
<path fill-rule="evenodd" clip-rule="evenodd" d="M82.7786 75.2178L84.8831 75.2567C84.8831 75.2567 85.3118 75.2567 85.3118 74.6332C85.3118 74.0096 85.3118 72.6066 85.3118 72.6066C85.3118 72.6066 85.2729 72.2948 85.0001 72.2168C84.7272 72.1389 83.4411 72.3727 83.4411 72.3727L82.7786 75.2178Z" fill="#C8C4E1"/>
<path fill-rule="evenodd" clip-rule="evenodd" d="M82.3109 38.895L84.3375 49.3788L74.6332 40.454L77.9849 32.7373L82.233 37.6479L82.3109 38.895Z" fill="#E3E1F1"/>
<path fill-rule="evenodd" clip-rule="evenodd" d="M82.0771 36.9464L83.4801 32.8542L83.9088 28.918C83.9088 28.918 81.9212 27.437 81.6873 27.0473C81.4145 26.6575 78.2577 25.4104 78.2577 25.4104L76.6988 28.3723L75.6075 32.1138L77.7511 34.3742L82.0771 36.9464Z" fill="#E6B5A3"/>
<path fill-rule="evenodd" clip-rule="evenodd" d="M82.8955 34.53L83.4801 32.8152L83.9088 28.8789C83.9088 28.8789 81.9212 27.398 81.6873 27.0082C81.4925 26.6964 79.349 25.839 78.5695 25.4883C78.4136 25.5662 78.2187 25.6831 78.0629 25.7611L76.6988 28.3333L76.5429 28.801L82.8955 34.53Z" fill="#D3857F"/>
<path fill-rule="evenodd" clip-rule="evenodd" d="M88.6245 20.305C88.7414 20.6947 89.7158 22.0198 89.1702 23.9294C88.5466 26.1509 88.3907 27.1642 89.1312 27.9437C89.1312 27.9437 89.2481 28.1385 89.1312 28.4113C88.9753 28.6452 88.4686 29.0349 87.884 29.0349C87.4943 29.4636 86.8707 30.6718 86.6759 31.1005C85.9744 32.4256 85.5457 33.0881 83.9867 32.9322C82.4278 32.7763 78.4916 31.0225 78.8423 27.6709C79.1931 24.2802 79.5828 24.3971 79.5828 24.3971C79.5828 24.3971 84.9221 19.2527 85.2729 19.2137C85.6236 19.1747 88.6245 18.5122 88.6245 18.5122V20.305Z" fill="#E6B5A3"/>
<path fill-rule="evenodd" clip-rule="evenodd" d="M87.2215 30.0093C87.1825 30.1262 87.1825 30.2042 87.1436 30.3211L86.8707 30.2821C86.3251 30.3211 85.7405 30.0873 85.4287 29.6586C85.3508 29.5806 85.3898 29.4637 85.4677 29.3857C85.5457 29.3078 85.6626 29.3468 85.7405 29.4247C86.0133 29.7755 86.6759 29.9703 87.1046 29.9703C87.1436 29.9703 87.1825 29.9703 87.2215 30.0093Z" fill="#D2887A"/>
<path fill-rule="evenodd" clip-rule="evenodd" d="M86.0523 32.3866C85.5846 32.7763 84.9221 33.0101 83.9478 32.8932C83.4411 32.8543 82.6227 32.6204 81.8432 32.1917C81.6094 31.6461 81.3366 31.4512 81.4925 30.399C81.6484 29.3467 82.7396 27.9047 83.597 27.437C84.1037 28.4503 84.5713 29.5026 85.078 30.5159C85.4287 29.7754 85.3898 29.1908 86.1303 29.3467C86.0913 29.3857 86.1303 31.5681 86.0523 32.3866Z" fill="#DC9784"/>
<path fill-rule="evenodd" clip-rule="evenodd" d="M80.5182 25.1766C82.2719 24.8258 82.1161 24.4361 82.5837 22.9941C84.2985 22.9551 85.3118 21.9808 85.8964 21.0844C86.52 21.3572 87.4943 21.0454 87.2605 20.188L88.8194 21.0454C94.7823 22.0587 92.4439 7.63873 88.8974 15.0826C88.8974 15.0826 85.2339 10.8345 80.6741 11.2242C78.9592 11.3412 77.9459 12.7052 77.4393 13.8744C77.1275 12.7442 76.1142 12.3155 75.8024 13.4457C75.5686 14.3031 75.8804 15.1995 76.1922 15.7451C71.2426 18.3173 76.8547 27.0862 76.7768 28.1775C76.7768 28.2554 76.7768 28.2944 76.7768 28.2944L76.8937 28.2554L77.9849 27.0083L80.5182 25.1766Z" fill="#443E71"/>
<path fill-rule="evenodd" clip-rule="evenodd" d="M75.9973 29.6196C75.9973 29.6196 76.6598 29.6196 76.9326 29.8924C77.2444 30.1652 82.116 36.0112 82.5058 36.7517C82.8955 37.4922 82.3109 38.8562 82.3109 38.8562C82.3109 38.8562 78.1018 33.6728 74.3214 31.997C74.3214 32.036 75.6076 29.7755 75.9973 29.6196Z" fill="white"/>
<path fill-rule="evenodd" clip-rule="evenodd" d="M80.5181 25.1766C80.2843 21.3183 76.9326 22.0588 76.7767 24.3972C76.6208 26.7356 78.8033 27.6319 78.8033 27.6319L80.713 26.7745L80.5181 25.1766Z" fill="#E6B5A3"/>
<path fill-rule="evenodd" clip-rule="evenodd" d="M84.9611 26.5017C84.3375 26.2678 83.675 26.5406 83.4411 27.1642C83.2073 27.7878 83.4801 28.4503 84.1037 28.6842C84.7272 28.918 85.3898 28.6452 85.6236 28.0216C85.8574 27.437 85.5846 26.7355 84.9611 26.5017Z" fill="#D2887A"/>
<path fill-rule="evenodd" clip-rule="evenodd" d="M86.2861 23.6955C86.7928 23.5786 87.3384 23.6566 87.7282 24.0463C87.8061 24.1243 87.962 24.1243 88.0399 24.0463C88.1179 23.9684 88.1179 23.8125 88.0399 23.7345C87.5723 23.2668 86.8318 23.1499 86.2472 23.3058C86.1303 23.3448 86.0523 23.4617 86.0913 23.5397C86.0523 23.6566 86.1692 23.7345 86.2861 23.6955Z" fill="#383260"/>
<path d="M79.7777 24.9818C79.5049 22.8772 77.6731 23.3059 77.6731 24.5921C77.6731 25.8782 78.9203 26.3458 78.9203 26.3458" stroke="#D2887A" stroke-width="0.276201" stroke-miterlimit="2.6131" stroke-linecap="round" stroke-linejoin="round"/>
<path d="M79.3879 23.8906C79.3879 23.8906 78.2577 24.5532 79.232 25.4885" stroke="#D2887A" stroke-width="0.276201" stroke-miterlimit="2.6131" stroke-linecap="round" stroke-linejoin="round"/>
<path fill-rule="evenodd" clip-rule="evenodd" d="M86.0523 25.1766C86.4031 25.4884 86.8318 25.6833 87.2994 25.5664C87.4164 25.5274 87.4943 25.6053 87.5333 25.6833C87.5723 25.8002 87.4943 25.8781 87.4164 25.9171C86.8707 26.073 86.2082 25.8392 85.8185 25.4494C85.7405 25.3715 85.7405 25.2546 85.8185 25.1766C85.8574 25.0987 85.9744 25.0987 86.0523 25.1766Z" fill="#383260"/>
<path fill-rule="evenodd" clip-rule="evenodd" d="M84.4154 19.7983C83.1683 18.6291 81.3366 17.0702 80.3622 16.7194C78.9202 16.2518 78.0239 16.3297 77.2834 16.3297C76.5429 16.3297 76.1142 15.7451 76.1142 15.7451C75.8024 15.1995 75.4906 14.3031 75.7245 13.4457C76.0362 12.3155 77.0495 12.7052 77.3613 13.8744C77.9069 12.7442 78.8813 11.3801 80.5961 11.2242C85.1559 10.8345 88.8194 15.0826 88.8194 15.0826C92.3659 7.6777 94.7433 22.0977 88.7414 21.0454L87.1825 20.188C87.4553 21.0454 86.442 21.3572 85.8185 21.0844C85.7405 21.0454 85.6626 21.0065 85.5846 20.9285C85.4677 20.7726 85 20.3439 84.4154 19.7983Z" fill="#383260"/>
<path fill-rule="evenodd" clip-rule="evenodd" d="M92.1711 18.629C87.6502 19.3305 81.7653 16.9532 78.9982 11.8477C79.31 11.6528 79.6218 11.458 80.0115 11.3411C83.3242 16.7583 88.7414 16.7193 92.1711 14.342C92.5218 15.4332 92.6387 16.9921 92.288 18.3172C92.21 18.4731 92.21 18.5511 92.1711 18.629Z" fill="#443E71"/>
<path fill-rule="evenodd" clip-rule="evenodd" d="M74.3215 32.0358C74.3215 32.0358 69.1381 36.5956 68.1248 39.8304C67.0725 43.0262 69.9175 59.083 69.9175 60.0574C69.9175 61.0317 69.6057 61.1876 69.5278 61.5383C69.4498 61.8891 69.8006 62.1229 69.8786 62.3957C69.9565 62.7075 69.216 63.6039 69.0601 63.9936C68.9042 64.3834 69.6447 65.5525 69.7616 65.8254C69.8396 66.0592 63.5649 76.6598 63.2142 77.0496C62.8634 77.4003 66.9946 81.6484 76.9716 83.7919C76.9716 83.7919 79.9336 84.2985 80.752 82.194C81.5704 80.0895 86.7928 68.9432 86.6759 63.7208C86.559 58.4984 85.4288 52.4966 85.117 50.9377C84.7662 49.3398 78.1798 30.1651 74.3215 32.0358Z" fill="#4B0082"/>
<path fill-rule="evenodd" clip-rule="evenodd" d="M68.2027 47.1574C68.5535 50.4312 69.0601 54.0557 69.4498 56.6668L73.8538 64.8901C73.8538 64.8901 74.984 66.9167 77.5952 66.8778C79.5049 66.8388 84.0257 66.4101 86.4031 66.1763C86.559 65.2409 86.6759 64.3835 86.6369 63.643C86.5979 62.6687 86.559 61.6944 86.481 60.72L78.6864 60.1354L70.9308 51.4055L69.4109 44.7021L68.2027 47.1574Z" fill="#4B0082"/>
<path fill-rule="evenodd" clip-rule="evenodd" d="M74.2825 31.9579C74.2825 31.9579 75.5686 35.4265 75.8024 36.0891C75.8024 36.1281 75.8804 36.245 75.9583 36.4009L77.6731 36.5568L76.8937 38.0377C79.1931 42.0519 84.4934 51.3665 86.3251 59.1221C86.3251 59.1221 86.1693 50.3922 81.8433 41.0776C77.5173 31.8021 74.7112 31.2954 74.7112 31.2954L74.2825 31.9579Z" fill="#CAB1DC"/>
<path fill-rule="evenodd" clip-rule="evenodd" d="M69.255 50.782C71.9051 57.5633 74.0876 62.0452 74.3604 62.8636C74.6722 63.682 76.2701 65.7866 79.1541 65.9035C82.0381 66.0594 95.2889 65.4358 95.5227 65.4358C95.7566 65.4358 96.2632 65.124 96.2632 64.6953C96.2242 64.2666 94.9771 57.1735 94.8212 56.55C94.6653 55.9264 94.2366 55.8874 93.2233 56.0044C92.21 56.0823 83.1293 56.8228 83.1293 56.8228C83.1293 56.8228 83.0514 55.9654 82.7786 55.6926C82.5447 55.4198 81.8432 55.5757 81.8432 55.5757C81.8432 55.5757 79.0372 47.2354 77.6341 42.9484C74.6722 33.9067 63.0972 35.1148 69.255 50.782Z" fill="#CAB1DC"/>
<path fill-rule="evenodd" clip-rule="evenodd" d="M98.1729 30.555C97.2376 33.4 93.2623 33.7898 92.249 33.7118C90.6901 33.5559 91.7034 31.5293 91.1188 30.0094C90.6511 29.8925 90.2614 29.152 90.4173 28.9961C90.5732 28.8402 91.5865 27.8659 91.7034 27.0864C91.8203 26.3069 91.5865 27.8659 92.1321 24.5142C92.6777 21.1625 95.4058 20.3831 95.4058 20.3831L99.537 28.2166C99.537 28.1776 98.4068 29.3858 98.1729 30.555Z" fill="#E6B5A3"/>
<path fill-rule="evenodd" clip-rule="evenodd" d="M93.9638 28.0996C94.4705 28.1386 94.8602 28.6063 94.8212 29.1129C94.7823 29.6196 94.3146 30.0093 93.769 29.9703C93.2623 29.9314 92.8726 29.4637 92.9116 28.957C92.9895 28.4114 93.4572 28.0607 93.9638 28.0996Z" fill="#D2887A"/>
<path fill-rule="evenodd" clip-rule="evenodd" d="M93.9248 25.8392C94.0028 25.8782 94.1197 25.8782 94.1977 25.8002C94.2366 25.7223 94.2366 25.6054 94.1587 25.5274C93.73 25.2156 93.0674 25.1377 92.5998 25.3326C92.5218 25.3715 92.4828 25.4884 92.5218 25.5664C92.5608 25.6443 92.6777 25.6833 92.7557 25.6443C93.1064 25.4885 93.5741 25.6054 93.9248 25.8392Z" fill="#383260"/>
<path fill-rule="evenodd" clip-rule="evenodd" d="M92.5608 27.32C92.4828 27.2421 92.4828 27.1252 92.5218 27.0472C92.5998 26.9693 92.7167 26.9693 92.7946 27.0083C92.7946 27.0083 93.2623 27.398 93.769 27.0472C93.8469 27.0083 93.9638 27.0083 94.0418 27.0862C94.0807 27.1252 94.0807 27.2031 94.0807 27.2421L94.1587 27.359C94.1977 27.437 94.1977 27.5149 94.1197 27.5539C94.0418 27.5929 93.9638 27.5929 93.9248 27.5149L93.8859 27.437H93.8469L93.8859 27.5149C93.9248 27.5929 93.8859 27.6708 93.8079 27.7098C93.73 27.7488 93.652 27.7098 93.6131 27.6318L93.5741 27.5149H93.5351V27.6318C93.5351 27.7098 93.4961 27.7877 93.4182 27.7877C93.3402 27.7877 93.2623 27.7488 93.2623 27.6708V27.5539C92.8336 27.5539 92.5608 27.32 92.5608 27.32Z" fill="#383260"/>
<path fill-rule="evenodd" clip-rule="evenodd" d="M96.9258 38.2326C93.73 41.8181 90.1055 45.8713 90.1055 45.8713C88.7025 41.896 87.3384 37.9208 85.9354 33.9456C85.1949 34.4912 84.4934 34.9978 83.7529 35.5434L86.481 49.3788C86.481 49.3788 86.8707 51.4054 88.5855 51.8341C90.3004 52.2239 92.4828 50.7039 93.5351 49.8855C94.5874 49.0671 101.057 43.4939 101.057 43.4939C104.72 40.4151 100.122 34.6471 96.9258 38.2326Z" fill="#E6B5A3"/>
<path fill-rule="evenodd" clip-rule="evenodd" d="M98.8354 26.8133C98.8354 26.8133 94.5094 26.6185 94.9382 21.7079C94.9382 21.7079 94.0418 22.3314 93.0285 22.1756C93.0285 22.1756 92.5998 22.7991 92.327 23.5786C92.327 23.5786 91.2747 21.2792 92.0931 19.7203C92.9116 18.1613 95.5227 18.7459 95.5227 18.7459C96.614 16.1347 107.371 16.2906 105.149 21.7079C109.514 23.7345 106.24 29.3466 109.28 31.7629C110.722 32.8931 113.139 35.0366 111.112 39.4796C109.085 43.9225 112.281 44.4681 112.398 46.4947C112.515 48.5213 109.202 49.1448 108.735 50.4699C108.267 51.795 108.968 53.7826 106.474 54.2113C103.941 54.64 100.979 51.0545 101.447 47.3521C101.953 43.6497 101.875 42.9092 100.94 42.6364C100.005 42.3635 96.1073 40.1421 98.6796 33.8674C101.291 27.5928 98.8354 26.8133 98.8354 26.8133Z" fill="#383260"/>
<path fill-rule="evenodd" clip-rule="evenodd" d="M97.5104 28.957C98.2898 25.2546 102.148 26.3458 100.823 28.996C100.122 30.399 98.1729 30.5549 98.1729 30.5549L97.5104 28.957Z" fill="#E6B5A3"/>
<path d="M98.5237 28.1777C99.4201 26.6188 100.706 27.5541 100.316 28.5674C99.8877 29.5807 98.7575 29.5418 98.7575 29.5418" stroke="#D2887A" stroke-width="0.276201" stroke-miterlimit="2.6131" stroke-linecap="round" stroke-linejoin="round"/>
<path d="M99.1862 27.4761C99.1862 27.4761 99.8488 28.3725 98.7575 28.8012" stroke="#D2887A" stroke-width="0.276201" stroke-miterlimit="2.6131" stroke-linecap="round" stroke-linejoin="round"/>
<path fill-rule="evenodd" clip-rule="evenodd" d="M94.6264 18.6292C96.9648 22.2147 102.109 24.8259 107.371 24.0464C107.254 23.6567 107.059 23.267 106.786 22.9162C102.07 23.267 99.1083 20.4609 98.095 17.2651C96.8478 17.5379 95.8735 18.0056 95.5617 18.7071C95.5617 18.7461 95.172 18.6682 94.6264 18.6292Z" fill="#443E71"/>
<path fill-rule="evenodd" clip-rule="evenodd" d="M99.1082 26.3459L98.8354 26.8135C98.8354 26.8135 97.939 27.1643 97.8611 28.2555C97.8611 28.2555 96.8088 27.1643 97.4324 25.9951C98.056 24.8259 99.1472 26.2679 99.1472 26.2679L99.1082 26.3459Z" fill="#383260"/>
<path d="M83.1293 56.8228L80.713 56.9007" stroke="#4B0082" stroke-width="0.276201" stroke-miterlimit="2.6131" stroke-linecap="round" stroke-linejoin="round"/>
<path d="M81.8433 55.5754L81.4146 55.9262" stroke="#4B0082" stroke-width="0.276201" stroke-miterlimit="2.6131" stroke-linecap="round" stroke-linejoin="round"/>
<path d="M69.7616 62.2009L71.0867 64.0327" stroke="#4B0082" stroke-width="0.276201" stroke-miterlimit="2.6131" stroke-linecap="round" stroke-linejoin="round"/>
<path d="M69.7227 65.7864L70.2293 65.1628" stroke="#4B0082" stroke-width="0.276201" stroke-miterlimit="2.6131" stroke-linecap="round" stroke-linejoin="round"/>
<path d="M77.6731 36.5958L78.1798 35.5825" stroke="#4B0082" stroke-width="0.276201" stroke-miterlimit="2.6131" stroke-linecap="round" stroke-linejoin="round"/>
<path d="M110.8 140.381C110.8 140.381 106.006 119.452 104.253 93.8469" stroke="#E3E1F1" stroke-width="0.276201" stroke-miterlimit="2.6131" stroke-linecap="round" stroke-linejoin="round"/>
<path d="M98.9524 62.3179C98.9524 62.3179 102.928 65.3188 104.837 71.6324" stroke="#E3E1F1" stroke-width="0.276201" stroke-miterlimit="2.6131" stroke-linecap="round" stroke-linejoin="round"/>
<path d="M98.1339 62.5127C98.1339 62.5127 104.019 69.9176 104.019 85.4288" stroke="#E3E1F1" stroke-width="0.276201" stroke-miterlimit="2.6131" stroke-linecap="round" stroke-linejoin="round"/>
<path d="M100.394 145.642C100.394 145.642 99.6928 123.583 99.5759 114.113" stroke="#E3E1F1" stroke-width="0.276201" stroke-miterlimit="2.6131" stroke-linecap="round" stroke-linejoin="round"/>
<path d="M96.3802 65.5525C96.3802 65.5525 100.394 71.1646 99.8877 96.8868" stroke="#E3E1F1" stroke-width="0.276201" stroke-miterlimit="2.6131" stroke-linecap="round" stroke-linejoin="round"/>
<path d="M84.1037 133.872C84.1037 133.872 87.5723 104.993 87.6892 90.1055" stroke="#E3E1F1" stroke-width="0.276201" stroke-miterlimit="2.6131" stroke-linecap="round" stroke-linejoin="round"/>
<path d="M89.5209 65.9033C89.5209 65.9033 89.0143 70.0734 88.8194 72.7236" stroke="#E3E1F1" stroke-width="0.276201" stroke-miterlimit="2.6131" stroke-linecap="round" stroke-linejoin="round"/>
<path d="M93.2623 65.7864C93.2623 65.7864 94.2366 83.7139 93.8859 90.846C93.5351 97.978 92.9116 115.477 92.9116 115.477" stroke="#E3E1F1" stroke-width="0.276201" stroke-miterlimit="2.6131" stroke-linecap="round" stroke-linejoin="round"/>
<path d="M90.1055 45.8713C90.1055 45.8713 90.1834 46.1441 90.1445 46.417" stroke="#D2887A" stroke-width="0.276201" stroke-miterlimit="2.6131" stroke-linecap="round" stroke-linejoin="round"/>
<path fill-rule="evenodd" clip-rule="evenodd" d="M83.5191 35.2706C82.3889 33.6337 81.4145 30.282 82.2719 29.7754C82.4278 29.6974 82.2719 29.2297 82.3499 29.0739C82.4278 28.879 82.7396 28.918 82.7786 28.7231C82.8565 28.3334 83.3632 28.1775 83.3632 27.8657C83.3242 27.5149 83.7529 27.5539 83.8698 27.6319C84.3375 27.9826 85.3508 31.2174 85.3508 31.2174C85.3508 31.2174 85.6626 29.0349 86.0133 29.4246C86.3641 29.8143 86.52 32.1527 86.52 32.6983C86.52 33.244 86.1692 36.1669 86.1692 36.1669L83.9867 36.4397L83.5191 35.2706Z" fill="#E6B5A3"/>
<path d="M83.3632 27.9048L84.5714 31.1006" stroke="#D2887A" stroke-width="0.276201" stroke-miterlimit="2.6131" stroke-linecap="round" stroke-linejoin="round"/>
<path d="M82.8176 28.7231L83.7919 31.4902" stroke="#D2887A" stroke-width="0.276201" stroke-miterlimit="2.6131" stroke-linecap="round" stroke-linejoin="round"/>
<path d="M82.2719 29.8145L83.0904 32.1139" stroke="#D2887A" stroke-width="0.276201" stroke-miterlimit="2.6131" stroke-linecap="round" stroke-linejoin="round"/>
<path fill-rule="evenodd" clip-rule="evenodd" d="M92.7557 30.7888C92.8336 30.7498 92.9505 30.7498 93.0285 30.8278C93.0674 30.9057 93.0674 31.0226 92.9895 31.1006C92.5608 31.4124 91.8983 31.4903 91.4306 31.2954C91.3526 31.2565 91.3137 31.1395 91.3526 31.0616C91.3916 30.9836 91.5085 30.9447 91.5865 30.9836C91.9372 31.1395 92.4049 31.0226 92.7557 30.7888Z" fill="#D2887A"/>
</g>
<defs>
<clipPath id="clip0_53_10">
<rect width="181.575" height="157.1" fill="white"/>
</clipPath>
</defs>
</svg>
